<?xml version="1.0" encoding="UTF-8"?>
<svg xmlns="http://www.w3.org/2000/svg" xmlns:xlink="http://www.w3.org/1999/xlink" version="1.2" >
<font id="Berton Regular">
<font-face  font-family="Berton" units-per-em="1024" ascent="975" descent="-300" font-style="normal" font-weight="400" font-stretch="normal" cap-height="700" x-height="500" underline-position="0" underline-thickness="0" />
<missing-glyph  horiz-adv-x="472" d="M0 700 C0 700 432 700 432 700 C432 700 432 0 432 0 C432 0 0 0 0 0 C0 0 0 700 0 700 L0 700 Z M50 50 C50 50 382 50 382 50 C382 50 382 650 382 650 C382 650 50 650 50 650 C50 650 50 50 50 50 L50 50 Z " />
<glyph glyph-name="NULL" d="" />
<glyph glyph-name="CR" unicode="&#xd;" horiz-adv-x="256" d="" />
<glyph glyph-name="space" unicode="&#x20;" horiz-adv-x="250" d="" />
<glyph glyph-name="exclam" unicode="&#x21;" horiz-adv-x="241" d="M127 -10 C159 -10 180 11 180 43 C180 75 159 96 127 96 C96 96 75 75 75 43 C75 11 96 -10 127 -10 L127 -10 Z M167 651 C170 686 152 710 123 710 C92 710 74 686 78 651 C78 651 123 171 123 171 C123 171 132 171 132 171 C132 171 167 651 167 651 L167 651 Z " />
<glyph glyph-name="quotedbl" unicode="&#x22;" horiz-adv-x="325" d="M178 700 C178 700 218 470 218 470 C218 470 231 470 231 470 C231 470 271 700 271 700 C271 700 178 700 178 700 L178 700 Z M54 700 C54 700 95 470 95 470 C95 470 107 470 107 470 C107 470 148 700 148 700 C148 700 54 700 54 700 L54 700 Z " />
<glyph glyph-name="numbersign" unicode="&#x23;" horiz-adv-x="558" d="M405 672 C405 672 378 488 378 488 C378 488 225 488 225 488 C225 488 252 672 252 672 C252 672 248 672 248 672 C248 672 221 488 221 488 C221 488 81 488 81 488 C81 488 73 432 73 432 C73 432 213 432 213 432 C213 432 183 228 183 228 C183 228 41 228 41 228 C41 228 33 172 33 172 C33 172 174 172 174 172 C174 172 149 0 149 0 C149 0 154 0 154 0 C154 0 179 172 179 172 C179 172 332 172 332 172 C332 172 307 0 307 0 C307 0 311 0 311 0 C311 0 336 172 336 172 C336 172 470 172 470 172 C470 172 478 228 478 228 C478 228 344 228 344 228 C344 228 374 432 374 432 C374 432 516 432 516 432 C516 432 524 488 524 488 C524 488 382 488 382 488 C382 488 409 672 409 672 C409 672 405 672 405 672 L405 672 Z M217 432 C217 432 370 432 370 432 C370 432 340 228 340 228 C340 228 187 228 187 228 C187 228 217 432 217 432 L217 432 Z " />
<glyph glyph-name="dollar" unicode="&#x24;" horiz-adv-x="536" d="M286 775 C286 775 286 709 286 709 C278 709 270 710 262 710 C251 710 241 709 231 708 C231 708 231 775 231 775 C231 775 206 775 206 775 C206 775 206 704 206 704 C118 682 62 609 62 507 C62 439 118 371 206 332 C206 332 206 17 206 17 C185 21 163 27 142 35 C142 35 142 35 142 35 C121 42 93 55 71 68 C69 69 66 71 64 73 C64 73 56 73 56 73 C56 73 56 44 56 44 C95 22 150 4 206 -4 C206 -4 206 -75 206 -75 C206 -75 231 -75 231 -75 C231 -75 231 -8 231 -8 C246 -9 261 -10 276 -10 C279 -10 283 -10 286 -10 C286 -10 286 -75 286 -75 C286 -75 311 -75 311 -75 C311 -75 311 -8 311 -8 C411 6 477 78 477 181 C477 259 411 336 311 375 C311 375 311 682 311 682 C339 674 372 661 404 644 C411 640 418 636 425 632 C427 631 430 629 432 627 C432 627 440 627 440 627 C440 627 440 656 440 656 C400 679 353 696 311 705 C311 705 311 775 311 775 C311 775 286 775 286 775 L286 775 Z M231 408 C231 408 231 689 231 689 C240 690 249 691 259 691 C267 691 276 690 286 688 C286 688 286 384 286 384 C266 391 248 399 231 408 C231 408 231 408 231 408 L231 408 Z M206 422 C150 457 116 499 116 538 C116 609 150 662 206 682 C206 682 206 422 206 422 L206 422 Z M231 322 C233 321 235 321 237 320 C254 314 271 307 286 300 C286 300 286 9 286 9 C283 9 279 9 276 9 C262 9 247 10 231 12 C231 12 231 322 231 322 L231 322 Z M311 287 C380 249 422 198 422 150 C422 77 378 25 311 12 C311 12 311 287 311 287 L311 287 Z " />
<glyph glyph-name="ampersand" unicode="&#x26;" horiz-adv-x="714" d="M20 398 C20 398 -4 398 -4 398 C-4 398 -4 390 -4 390 C-2 390 -1 373 -1 286 C-1 286 -1 255 -1 255 C-1 207 -12 164 -33 129 C-61 158 -93 193 -128 235 C-176 292 -222 351 -256 407 C-150 435 -81 505 -81 587 C-81 661 -140 710 -229 710 C-317 710 -376 639 -376 532 C-376 494 -357 446 -327 393 C-425 351 -489 264 -489 168 C-489 61 -406 -10 -281 -10 C-189 -10 -112 18 -60 68 C33 -7 106 -14 183 0 C183 0 183 12 183 12 C133 4 78 18 -21 117 C3 156 16 202 16 255 C16 255 16 286 16 286 C16 373 17 390 19 390 C19 390 20 390 20 390 C20 390 20 398 20 398 L20 398 Z M-263 418 C-297 475 -319 526 -319 565 C-319 642 -285 694 -233 694 C-176 694 -138 649 -138 583 C-138 507 -187 445 -263 418 L-263 418 Z M-75 80 C-116 44 -173 23 -241 23 C-348 23 -419 92 -419 196 C-419 277 -381 346 -320 380 C-284 319 -234 253 -181 190 C-142 144 -107 108 -75 80 C-75 80 -75 80 -75 80 L-75 80 Z " />
<glyph glyph-name="quotesingle" unicode="&#x27;" horiz-adv-x="202" d="M54 700 C54 700 95 470 95 470 C95 470 107 470 107 470 C107 470 148 700 148 700 C148 700 54 700 54 700 L54 700 Z " />
<glyph glyph-name="parenleft" unicode="&#x28;" horiz-adv-x="259" d="M226 730 C135 622 74 491 74 283 C74 76 135 -55 226 -163 C226 -163 235 -155 235 -155 C173 -81 131 37 131 283 C131 529 173 648 235 722 C235 722 226 730 226 730 L226 730 Z " />
<glyph glyph-name="parenright" unicode="&#x29;" horiz-adv-x="259" d="M25 -163 C115 -55 176 76 176 283 C176 491 115 622 25 730 C25 730 15 722 15 722 C78 648 119 530 119 283 C119 38 78 -81 15 -155 C15 -155 25 -163 25 -163 L25 -163 Z " />
<glyph glyph-name="asterisk" unicode="&#x2a;" horiz-adv-x="585" d="M183 581 C183 581 91 659 91 659 C78 670 63 668 55 654 C47 640 52 626 68 621 C68 621 183 580 183 580 C183 580 68 539 68 539 C33 528 62 476 91 501 C91 501 183 579 183 579 C183 579 161 460 161 460 C158 443 167 432 184 432 C200 432 209 443 206 460 C206 460 184 579 184 579 C184 579 276 501 276 501 C289 490 304 492 312 506 C320 520 315 534 299 539 C299 539 184 580 184 580 C184 580 299 621 299 621 C334 632 305 684 276 659 C276 659 184 581 184 581 C184 581 206 700 206 700 C209 717 200 728 184 728 C167 728 158 717 161 700 C161 700 183 581 183 581 L183 581 Z " />
<glyph glyph-name="plus" unicode="&#x2b;" horiz-adv-x="569" d="M272 450 C272 450 272 266 272 266 C272 266 90 266 90 266 C90 266 90 234 90 234 C90 234 272 234 272 234 C272 234 272 50 272 50 C272 50 307 50 307 50 C307 50 307 234 307 234 C307 234 490 234 490 234 C490 234 490 266 490 266 C490 266 307 266 307 266 C307 266 307 450 307 450 C307 450 272 450 272 450 L272 450 Z " />
<glyph glyph-name="comma" unicode="&#x2c;" horiz-adv-x="254" d="M167 80 C167 80 167 80 167 80 C158 90 144 96 127 96 C96 96 75 75 75 43 C75 11 96 -10 127 -10 C134 -10 140 -9 145 -7 C146 -12 146 -16 146 -20 C146 -65 123 -105 89 -121 C89 -121 94 -132 94 -132 C152 -105 190 -45 190 16 C190 40 181 66 167 80 C167 80 167 80 167 80 L167 80 Z " />
<glyph glyph-name="hyphen" unicode="&#x2d;" horiz-adv-x="294" d="M35 207 C35 207 260 207 260 207 C260 207 260 263 260 263 C260 263 35 263 35 263 C35 263 35 207 35 207 L35 207 Z " />
<glyph glyph-name="period" unicode="&#x2e;" horiz-adv-x="252" d="M125 -10 C157 -10 178 11 178 43 C178 75 157 96 125 96 C93 96 72 75 72 43 C72 11 93 -10 125 -10 L125 -10 Z " />
<glyph glyph-name="slash" unicode="&#x2f;" horiz-adv-x="357" d="M15 -158 C15 -158 47 -158 47 -158 C47 -158 357 750 357 750 C357 750 325 750 325 750 C325 750 15 -158 15 -158 L15 -158 Z " />
<glyph glyph-name="zero" unicode="0" horiz-adv-x="644" d="M322 6 C216 6 146 104 146 250 C146 396 216 494 322 494 C428 494 499 396 499 250 C499 104 428 6 322 6 L322 6 Z M65 250 C65 94 168 -10 322 -10 C477 -10 580 94 580 250 C580 406 477 510 322 510 C168 510 65 406 65 250 L65 250 Z " />
<glyph glyph-name="one" unicode="1" horiz-adv-x="218" d="M149 500 C149 500 146 500 146 500 C146 500 109 500 109 500 C109 500 73 500 73 500 C73 500 70 500 70 500 C70 500 70 491 70 491 C72 491 73 480 73 464 C73 464 73 36 73 36 C73 20 72 9 70 9 C70 9 70 0 70 0 C70 0 73 0 73 0 C73 0 109 0 109 0 C109 0 146 0 146 0 C146 0 149 0 149 0 C149 0 149 9 149 9 C149 9 148 9 148 9 C147 9 146 20 146 36 C146 36 146 464 146 464 C146 480 147 491 148 491 C148 491 149 491 149 491 C149 491 149 500 149 500 L149 500 Z " />
<glyph glyph-name="two" unicode="2" horiz-adv-x="512" d="M458 76 C457 74 446 73 430 73 C430 73 155 73 155 73 C333 185 445 254 445 351 C445 446 380 510 283 510 C201 510 122 449 85 358 C85 358 94 353 94 353 C119 415 180 456 247 456 C316 456 363 404 363 326 C363 194 234 142 40 16 C40 16 40 0 40 0 C40 0 460 0 460 0 C460 0 466 73 466 73 C466 73 466 73 466 73 C466 74 466 75 466 76 C466 76 458 76 458 76 L458 76 Z " />
<glyph glyph-name="three" unicode="3" horiz-adv-x="490" d="M39 -234 C271 -221 426 -116 426 31 C426 126 353 193 240 204 C331 252 386 314 386 374 C386 455 328 510 242 510 C165 510 78 457 24 376 C24 376 33 371 33 371 C68 422 136 457 204 457 C270 457 313 414 313 350 C313 289 261 229 180 190 C164 183 144 175 119 166 C119 166 119 154 119 154 C122 155 126 156 129 157 C148 162 172 166 192 166 C286 166 349 110 349 27 C349 -112 225 -212 39 -222 C39 -222 39 -234 39 -234 L39 -234 Z " />
<glyph glyph-name="four" unicode="4" horiz-adv-x="519" d="M70 33 C70 33 313 384 313 384 C313 384 312 382 312 382 C312 382 312 33 312 33 C312 33 70 33 70 33 L70 33 Z M312 0 C312 0 312 -163 312 -163 C312 -163 385 -163 385 -163 C385 -163 385 0 385 0 C385 0 495 0 495 0 C495 0 495 33 495 33 C495 33 385 33 385 33 C385 33 385 488 385 488 C385 488 385 510 385 510 C385 510 373 510 373 510 C373 510 29 13 29 13 C29 13 29 0 29 0 C29 0 44 0 44 0 C44 0 47 0 47 0 C47 0 312 0 312 0 L312 0 Z " />
<glyph glyph-name="five" unicode="5" horiz-adv-x="475" d="M81 204 C81 204 100 204 100 204 C100 204 138 204 138 204 C257 204 337 140 337 45 C337 -86 220 -178 45 -184 C45 -184 46 -198 46 -198 C265 -190 411 -83 411 69 C411 193 317 276 175 276 C175 276 106 276 106 276 C106 276 117 423 117 423 C117 423 378 423 378 423 C378 423 400 490 400 490 C401 495 403 499 404 503 C404 503 395 503 395 503 C394 501 383 500 367 500 C367 500 123 500 123 500 C123 500 101 500 101 500 C101 500 81 204 81 204 L81 204 Z " />
<glyph glyph-name="six" unicode="6" horiz-adv-x="599" d="M515 745 C253 736 79 557 79 297 C79 113 170 -10 307 -10 C450 -10 541 80 535 216 C535 344 455 429 335 429 C265 429 204 386 165 315 C165 317 165 319 165 321 C165 561 305 725 516 733 C516 733 515 745 515 745 L515 745 Z M164 275 C196 358 255 409 322 409 C403 409 457 330 457 212 C464 91 407 10 315 10 C223 10 162 97 162 228 C162 242 163 259 164 275 C164 275 164 275 164 275 L164 275 Z " />
<glyph glyph-name="seven" unicode="7" horiz-adv-x="469" d="M46 422 C46 422 46 423 46 423 C47 424 58 425 74 425 C74 425 409 425 409 425 C409 425 139 -152 139 -152 C139 -152 221 -152 221 -152 C296 63 370 279 445 493 C445 493 440 500 440 500 C440 500 45 500 45 500 C45 500 42 463 42 463 C42 463 41 463 41 463 C40 455 40 446 39 438 C39 438 38 425 38 425 C38 425 38 425 38 425 C38 424 38 423 38 422 C38 422 46 422 46 422 L46 422 Z " />
<glyph glyph-name="eight" unicode="8" horiz-adv-x="569" d="M336 376 C322 382 308 387 293 391 C214 414 161 479 161 552 C161 637 210 694 283 694 C360 694 412 631 412 537 C412 458 383 397 336 376 L336 376 Z M345 372 C423 397 473 464 473 549 C473 646 398 710 287 710 C175 710 100 635 100 523 C100 449 145 382 215 342 C129 332 73 266 73 172 C73 63 159 -10 289 -10 C419 -10 505 69 505 187 C505 260 443 330 345 372 C345 372 345 372 345 372 L345 372 Z M223 338 C238 331 255 324 272 319 C370 290 436 227 436 162 C436 68 379 6 293 6 C202 6 142 77 142 184 C142 267 174 326 223 338 L223 338 Z " />
<glyph glyph-name="nine" unicode="9" horiz-adv-x="599" d="M84 -245 C346 -236 520 -57 520 203 C520 387 429 510 293 510 C149 510 58 420 65 284 C64 156 144 71 265 71 C335 71 396 114 435 186 C435 184 435 181 435 179 C434 -61 294 -225 83 -233 C83 -233 84 -245 84 -245 L84 -245 Z M436 225 C404 142 345 91 277 91 C196 91 142 170 142 288 C135 409 192 490 284 490 C376 490 437 403 438 272 C438 258 437 242 436 225 C436 225 436 225 436 225 L436 225 Z " />
<glyph glyph-name="colon" unicode="&#x3a;" horiz-adv-x="252" d="M125 377 C157 377 178 398 178 430 C178 462 157 483 125 483 C93 483 72 462 72 430 C72 398 93 377 125 377 L125 377 Z M125 -10 C157 -10 178 11 178 43 C178 75 157 96 125 96 C93 96 72 75 72 43 C72 11 93 -10 125 -10 L125 -10 Z " />
<glyph glyph-name="semicolon" unicode="&#x3b;" horiz-adv-x="254" d="M127 377 C159 377 180 398 180 430 C180 462 159 483 127 483 C96 483 75 462 75 430 C75 398 96 377 127 377 L127 377 Z M167 80 C167 80 167 80 167 80 C158 90 144 96 127 96 C96 96 75 75 75 43 C75 11 96 -10 127 -10 C134 -10 140 -9 145 -7 C146 -12 146 -16 146 -20 C146 -65 123 -105 89 -121 C89 -121 94 -132 94 -132 C152 -105 190 -45 190 16 C190 40 181 66 167 80 C167 80 167 80 167 80 L167 80 Z " />
<glyph glyph-name="less" unicode="&#x3c;" horiz-adv-x="567" d="M478 500 C478 500 63 296 63 296 C63 296 55 292 55 292 C55 292 55 258 55 258 C55 258 63 254 63 254 C63 254 478 50 478 50 C478 50 478 87 478 87 C478 87 86 275 86 275 C86 275 478 463 478 463 C478 463 478 500 478 500 L478 500 Z " />
<glyph glyph-name="equal" unicode="&#x3d;" horiz-adv-x="560" d="M96 216 C96 216 96 184 96 184 C96 184 476 184 476 184 C476 184 476 216 476 216 C476 216 96 216 96 216 L96 216 Z M96 316 C96 316 96 284 96 284 C96 284 476 284 476 284 C476 284 476 316 476 316 C476 316 96 316 96 316 L96 316 Z " />
<glyph glyph-name="greater" unicode="&#x3e;" horiz-adv-x="559" d="M473 275 C473 275 90 87 90 87 C90 87 90 50 90 50 C90 50 495 254 495 254 C495 254 505 259 505 259 C505 259 505 291 505 291 C505 291 495 296 495 296 C495 296 90 500 90 500 C90 500 90 463 90 463 C90 463 473 275 473 275 L473 275 Z " />
<glyph glyph-name="question" unicode="&#x3f;" horiz-adv-x="397" d="M154 -10 C186 -10 207 11 207 43 C207 75 186 96 154 96 C122 96 101 75 101 43 C101 11 122 -10 154 -10 L154 -10 Z M147 393 C138 393 132 389 133 382 C133 382 149 185 149 185 C149 185 159 185 159 185 C159 185 175 382 175 382 C175 382 172 337 172 337 C172 337 207 337 207 337 C325 337 348 418 348 464 C348 612 264 710 137 710 C87 710 54 683 54 642 C54 626 68 615 90 615 C117 615 133 653 160 653 C263 653 331 581 331 473 C331 444 307 393 182 393 C182 393 147 393 147 393 L147 393 Z " />
<glyph glyph-name="at" unicode="&#x40;" horiz-adv-x="1182" d="M1057 0 C990 -142 809 -237 604 -237 C318 -237 127 -39 127 259 C127 557 313 755 591 755 C870 755 1056 590 1056 343 C1056 141 981 6 869 6 C766 6 716 84 745 200 C745 200 815 480 815 480 C815 480 746 480 746 480 C746 480 726 399 726 399 C710 455 662 490 596 490 C423 490 307 371 307 194 C307 83 377 10 482 10 C562 10 631 53 669 121 C677 35 746 -19 856 -19 C1010 -19 1113 126 1113 343 C1113 602 904 775 591 775 C279 775 70 569 70 259 C70 -51 284 -257 604 -257 C818 -257 1009 -154 1081 0 C1081 0 1057 0 1057 0 L1057 0 Z M715 356 C715 356 676 200 676 200 C654 110 591 50 520 50 C440 50 387 113 387 208 C387 365 470 470 595 470 C667 470 715 424 715 356 L715 356 Z " />
<glyph glyph-name="A" unicode="A" horiz-adv-x="565" d="M545 9 C545 9 544 9 544 9 C541 9 535 20 529 36 C529 36 529 36 529 36 C529 36 278 716 278 716 C278 716 259 716 259 716 C259 716 35 32 35 32 C29 18 26 9 24 9 C24 9 24 0 24 0 C24 0 37 0 37 0 C37 0 49 0 49 0 C49 0 54 0 54 0 C54 0 54 9 54 9 C54 9 53 9 53 9 C53 9 56 22 63 43 C63 43 63 43 63 43 C63 43 129 250 129 250 C129 250 370 250 370 250 C370 250 445 36 445 36 C445 36 445 36 445 36 C451 20 454 9 454 9 C454 9 455 9 455 9 C455 9 457 3 457 3 C457 3 457 0 457 0 C457 0 458 0 458 0 C458 0 500 0 500 0 C500 0 542 0 542 0 C542 0 545 0 545 0 C545 0 545 9 545 9 L545 9 Z M364 269 C364 269 135 269 135 269 C135 269 244 610 244 610 C244 610 364 269 364 269 L364 269 Z " />
<glyph glyph-name="B" unicode="B" horiz-adv-x="503" d="M32 691 C32 691 33 691 33 691 C34 691 35 680 35 664 C35 664 35 36 35 36 C35 20 34 9 33 9 C33 9 32 9 32 9 C32 9 32 0 32 0 C32 0 35 0 35 0 C35 0 74 0 74 0 C74 0 113 0 113 0 C113 0 250 0 250 0 C381 0 469 90 469 224 C469 301 402 357 295 374 C400 393 466 454 466 539 C466 636 380 700 251 700 C251 700 113 700 113 700 C113 700 74 700 74 700 C74 700 35 700 35 700 C35 700 32 700 32 700 C32 700 32 691 32 691 L32 691 Z M220 380 C220 380 113 380 113 380 C113 380 113 680 113 680 C113 680 251 680 251 680 C334 680 389 624 389 539 C389 444 323 380 223 380 C223 380 220 380 220 380 L220 380 Z M113 364 C113 364 195 364 195 364 C311 364 388 308 388 224 C388 102 330 20 242 20 C242 20 113 20 113 20 C113 20 113 364 113 364 L113 364 Z " />
<glyph glyph-name="C" unicode="C" horiz-adv-x="716" d="M642 622 C642 622 642 644 642 644 C574 684 469 710 381 710 C179 710 44 566 44 350 C44 134 179 -10 381 -10 C469 -10 574 16 642 56 C642 56 642 78 642 78 C642 78 634 78 634 78 C632 77 629 75 627 73 C611 63 590 52 568 44 C509 22 441 9 381 9 C230 9 129 145 129 350 C129 555 230 691 381 691 C443 691 514 677 574 654 C592 646 612 636 627 627 C629 625 632 623 634 622 C634 622 642 622 642 622 L642 622 Z " />
<glyph glyph-name="D" unicode="D" horiz-adv-x="631" d="M60 691 C60 691 61 691 61 691 C62 691 63 680 63 664 C63 664 63 36 63 36 C63 20 62 9 61 9 C61 9 60 9 60 9 C60 9 60 0 60 0 C60 0 63 0 63 0 C63 0 102 0 102 0 C102 0 141 0 141 0 C141 0 288 0 288 0 C467 0 586 140 586 350 C586 560 452 700 251 700 C251 700 141 700 141 700 C141 700 102 700 102 700 C102 700 63 700 63 700 C63 700 60 700 60 700 C60 700 60 691 60 691 L60 691 Z M141 20 C141 20 141 680 141 680 C141 680 251 680 251 680 C406 680 509 548 509 350 C509 152 421 20 288 20 C288 20 141 20 141 20 L141 20 Z " />
<glyph glyph-name="E" unicode="E" horiz-adv-x="469" d="M338 386 C331 384 312 383 291 383 C291 383 117 383 117 383 C117 383 117 681 117 681 C117 681 338 681 338 681 C365 681 391 680 405 675 C405 675 412 675 412 675 C412 675 412 690 412 690 C412 690 412 700 412 700 C412 700 402 700 402 700 C402 700 375 700 375 700 C375 700 117 700 117 700 C117 700 78 700 78 700 C78 700 40 700 40 700 C40 700 37 700 37 700 C37 700 37 691 37 691 C39 691 40 680 40 664 C40 664 40 36 40 36 C40 20 39 9 37 9 C37 9 37 0 37 0 C37 0 40 0 40 0 C40 0 78 0 78 0 C78 0 117 0 117 0 C117 0 379 0 379 0 C379 0 412 0 412 0 C412 0 415 0 415 0 C416 3 416 7 417 10 C418 14 419 20 419 25 C419 25 413 25 413 25 C398 21 373 20 344 19 C344 19 117 19 117 19 C117 19 117 364 117 364 C117 364 291 364 291 364 C314 364 332 364 340 360 C340 360 347 360 347 360 C347 360 347 364 347 364 C347 364 347 373 347 373 C347 373 347 383 347 383 C347 383 347 386 347 386 C347 386 338 386 338 386 L338 386 Z " />
<glyph glyph-name="F" unicode="F" horiz-adv-x="475" d="M356 355 C356 355 356 358 356 358 C356 358 356 368 356 368 C356 368 356 378 356 378 C356 378 356 381 356 381 C356 381 349 381 349 381 C344 379 333 378 318 378 C318 378 300 378 300 378 C300 378 136 378 136 378 C136 378 136 681 136 681 C136 681 387 681 387 681 C414 681 440 680 454 675 C454 675 461 675 461 675 C461 675 461 690 461 690 C461 690 461 700 461 700 C461 700 451 700 451 700 C451 700 424 700 424 700 C424 700 136 700 136 700 C136 700 97 700 97 700 C97 700 59 700 59 700 C59 700 56 700 56 700 C56 700 56 691 56 691 C58 691 59 680 59 664 C59 664 59 36 59 36 C59 20 58 9 56 9 C56 9 56 0 56 0 C56 0 59 0 59 0 C59 0 97 0 97 0 C97 0 136 0 136 0 C136 0 141 0 141 0 C141 0 141 9 141 9 C141 9 140 9 140 9 C138 9 136 20 136 36 C136 36 136 358 136 358 C136 358 300 358 300 358 C321 358 340 357 347 355 C347 355 356 355 356 355 L356 355 Z " />
<glyph glyph-name="G" unicode="G" horiz-adv-x="741" d="M637 329 C637 329 634 329 634 329 C634 329 599 329 599 329 C599 329 565 329 565 329 C565 329 562 329 562 329 C562 329 562 320 562 320 C564 320 565 309 565 293 C565 293 565 45 565 45 C506 23 438 9 378 9 C233 9 136 145 136 350 C136 555 233 691 378 691 C430 691 491 679 545 660 C545 660 545 660 545 660 C567 652 595 639 614 627 C616 625 619 623 621 622 C621 622 629 622 629 622 C629 622 629 644 629 644 C561 684 460 710 378 710 C182 710 51 566 51 350 C51 134 182 -10 378 -10 C463 -10 566 16 634 56 C634 56 634 293 634 293 C634 309 635 320 637 320 C637 320 637 329 637 329 L637 329 Z " />
<glyph glyph-name="H" unicode="H" horiz-adv-x="604" d="M559 700 C559 700 556 700 556 700 C556 700 517 700 517 700 C517 700 479 700 479 700 C479 700 476 700 476 700 C476 700 476 691 476 691 C478 691 479 680 479 664 C479 664 479 377 479 377 C479 377 89 377 89 377 C89 377 89 664 89 664 C89 680 90 691 91 691 C91 691 92 691 92 691 C92 691 92 700 92 700 C92 700 89 700 89 700 C89 700 50 700 50 700 C50 700 12 700 12 700 C12 700 9 700 9 700 C9 700 9 691 9 691 C11 691 12 680 12 664 C12 664 12 36 12 36 C12 20 11 9 9 9 C9 9 9 0 9 0 C9 0 12 0 12 0 C12 0 50 0 50 0 C50 0 89 0 89 0 C89 0 92 0 92 0 C92 0 92 9 92 9 C92 9 91 9 91 9 C90 9 89 20 89 36 C89 36 89 358 89 358 C89 358 479 358 479 358 C479 358 479 36 479 36 C479 20 478 9 476 9 C476 9 476 0 476 0 C476 0 479 0 479 0 C479 0 517 0 517 0 C517 0 556 0 556 0 C556 0 559 0 559 0 C559 0 559 9 559 9 C559 9 558 9 558 9 C557 9 556 20 556 36 C556 36 556 664 556 664 C556 680 557 691 558 691 C558 691 559 691 559 691 C559 691 559 700 559 700 L559 700 Z " />
<glyph glyph-name="I" unicode="I" horiz-adv-x="194" d="M140 700 C140 700 137 700 137 700 C137 700 98 700 98 700 C98 700 60 700 60 700 C60 700 57 700 57 700 C57 700 57 691 57 691 C59 691 60 680 60 664 C60 664 60 36 60 36 C60 20 59 9 57 9 C57 9 57 0 57 0 C57 0 60 0 60 0 C60 0 98 0 98 0 C98 0 137 0 137 0 C137 0 140 0 140 0 C140 0 140 9 140 9 C140 9 139 9 139 9 C138 9 137 20 137 36 C137 36 137 664 137 664 C137 680 138 691 139 691 C139 691 140 691 140 691 C140 691 140 700 140 700 L140 700 Z " />
<glyph glyph-name="J" unicode="J" horiz-adv-x="325" d="M271 700 C271 700 268 700 268 700 C268 700 229 700 229 700 C229 700 191 700 191 700 C191 700 188 700 188 700 C188 700 188 691 188 691 C190 691 191 680 191 664 C191 664 191 212 191 212 C191 57 175 -4 132 -4 C111 -4 92 18 84 50 C78 70 64 83 47 83 C22 83 9 70 14 50 C25 8 64 -20 112 -20 C224 -20 268 63 268 277 C268 277 268 664 268 664 C268 680 269 691 271 691 C271 691 271 700 271 700 L271 700 Z " />
<glyph glyph-name="K" unicode="K" horiz-adv-x="601" d="M51 691 C51 691 52 691 52 691 C53 691 54 680 54 664 C54 664 54 36 54 36 C54 20 53 9 52 9 C52 9 51 9 51 9 C51 9 51 0 51 0 C51 0 54 0 54 0 C54 0 93 0 93 0 C93 0 132 0 132 0 C132 0 135 0 135 0 C134 0 134 2 135 4 C134 7 134 9 135 9 C135 9 134 9 134 9 C133 9 132 11 132 15 C132 15 132 36 132 36 C132 36 132 377 132 377 C132 377 144 361 144 361 C144 361 144 361 144 361 C144 361 307 151 307 151 C398 35 465 -10 547 -10 C547 -10 576 -10 576 -10 C576 -10 576 6 576 6 C576 6 571 6 571 6 C537 6 478 63 363 210 C363 210 200 420 200 420 C200 420 443 675 443 675 C453 685 460 691 461 691 C461 691 462 691 462 691 C462 691 467 700 467 700 C467 700 453 700 453 700 C453 700 439 700 439 700 C439 700 436 700 436 700 C436 700 435 698 433 696 C432 694 432 693 431 691 C431 691 132 377 132 377 C132 377 132 664 132 664 C132 664 132 685 132 685 C132 689 133 691 134 691 C134 691 135 691 135 691 C134 691 134 693 135 696 C134 698 134 700 135 700 C135 700 132 700 132 700 C132 700 93 700 93 700 C93 700 54 700 54 700 C54 700 51 700 51 700 C51 700 51 691 51 691 L51 691 Z " />
<glyph glyph-name="L" unicode="L" horiz-adv-x="460" d="M111 700 C111 700 108 700 108 700 C108 700 69 700 69 700 C69 700 31 700 31 700 C31 700 28 700 28 700 C28 700 28 691 28 691 C30 691 31 680 31 664 C31 664 31 36 31 36 C31 20 30 9 28 9 C28 9 28 0 28 0 C28 0 31 0 31 0 C31 0 69 0 69 0 C69 0 108 0 108 0 C108 0 370 0 370 0 C370 0 403 0 403 0 C403 0 406 0 406 0 C407 3 407 7 408 10 C409 14 410 21 410 25 C410 25 408 25 408 25 C403 25 399 26 399 25 C387 21 364 20 339 19 C339 19 108 19 108 19 C108 19 108 664 108 664 C108 680 109 691 110 691 C110 691 111 691 111 691 C111 691 111 700 111 700 L111 700 Z " />
<glyph glyph-name="M" unicode="M" horiz-adv-x="718" d="M703 9 C703 9 702 9 702 9 C701 9 699 20 699 36 C699 36 698 36 698 36 C698 36 672 664 672 664 C672 664 672 664 672 664 C671 680 671 691 672 691 C672 691 673 691 673 691 C672 691 672 693 673 696 C672 698 672 700 673 700 C673 700 670 700 670 700 C670 700 635 700 635 700 C635 700 629 700 629 700 C629 700 601 700 601 700 C601 700 378 88 378 88 C378 88 376 92 376 92 C376 92 129 700 129 700 C129 700 97 700 97 700 C97 700 86 700 86 700 C86 700 74 700 74 700 C74 700 71 700 71 700 C71 700 71 691 71 691 C73 691 73 683 73 672 C73 672 50 36 50 36 C50 36 50 36 50 36 C50 20 48 9 47 9 C47 9 46 9 46 9 C46 9 46 0 46 0 C46 0 49 0 49 0 C49 0 61 0 61 0 C61 0 72 0 72 0 C72 0 77 0 77 0 C77 0 77 9 77 9 C77 9 76 9 76 9 C74 9 73 22 74 43 C74 43 74 43 74 43 C74 43 93 598 93 598 C93 598 324 35 324 35 C324 35 342 -10 342 -10 C342 -10 362 -10 362 -10 C362 -10 603 631 603 631 C603 631 622 32 622 32 C622 18 622 9 620 9 C620 9 620 0 620 0 C620 0 623 0 623 0 C623 0 661 0 661 0 C661 0 700 0 700 0 C700 0 703 0 703 0 C703 0 703 9 703 9 L703 9 Z " />
<glyph glyph-name="N" unicode="N" horiz-adv-x="555" d="M539 700 C539 700 536 700 536 700 C536 700 524 700 524 700 C524 700 513 700 513 700 C513 700 510 700 510 700 C510 700 510 691 510 691 C512 691 513 680 513 664 C513 664 513 118 513 118 C513 118 126 700 126 700 C126 700 82 667 82 667 C82 667 82 667 82 667 C82 667 126 700 126 700 C126 700 82 700 82 700 C82 700 70 700 70 700 C70 700 59 700 59 700 C59 700 56 700 56 700 C56 700 56 691 56 691 C58 691 59 680 59 664 C59 664 59 36 59 36 C59 20 58 9 56 9 C56 9 56 0 56 0 C56 0 59 0 59 0 C59 0 70 0 70 0 C70 0 82 0 82 0 C82 0 85 0 85 0 C85 0 85 9 85 9 C83 9 82 20 82 36 C82 36 82 628 82 628 C82 628 477 35 477 35 C477 35 512 -16 512 -16 C512 -16 536 -16 536 -16 C536 -16 536 64 536 64 C536 64 536 664 536 664 C536 680 537 691 538 691 C538 691 539 691 539 691 C539 691 539 700 539 700 L539 700 Z " />
<glyph glyph-name="O" unicode="O" horiz-adv-x="741" d="M369 9 C209 9 127 166 127 350 C127 534 209 691 369 691 C529 691 611 534 611 350 C611 166 529 9 369 9 L369 9 Z M42 350 C42 156 153 -10 369 -10 C585 -10 696 156 696 350 C696 544 585 710 369 710 C153 710 42 544 42 350 L42 350 Z " />
<glyph glyph-name="P" unicode="P" horiz-adv-x="483" d="M5 691 C5 691 6 691 6 691 C7 691 8 680 8 664 C8 664 8 36 8 36 C8 20 7 9 6 9 C6 9 5 9 5 9 C5 9 5 0 5 0 C5 0 8 0 8 0 C8 0 47 0 47 0 C47 0 86 0 86 0 C86 0 89 0 89 0 C88 0 88 2 89 4 C88 7 88 9 89 9 C89 9 88 9 88 9 C87 9 86 11 86 15 C86 15 86 36 86 36 C86 36 86 314 86 314 C86 314 199 314 199 314 C349 314 449 391 449 506 C449 623 360 700 227 700 C227 700 86 700 86 700 C86 700 47 700 47 700 C47 700 8 700 8 700 C8 700 5 700 5 700 C5 700 5 691 5 691 L5 691 Z M86 334 C86 334 86 680 86 680 C86 680 227 680 227 680 C311 680 368 611 368 506 C368 403 300 334 199 334 C199 334 86 334 86 334 L86 334 Z " />
<glyph glyph-name="Q" unicode="Q" horiz-adv-x="752" d="M780 -63 C780 -63 773 -57 773 -57 C756 -77 693 -91 615 -91 C495 -91 415 -59 367 -10 C579 -7 688 158 688 350 C688 544 577 710 361 710 C145 710 34 544 34 350 C34 163 137 2 338 -9 C412 -91 502 -144 607 -144 C671 -144 740 -112 780 -63 L780 -63 Z M361 9 C201 9 119 166 119 350 C119 534 201 691 361 691 C521 691 603 534 603 350 C603 166 521 9 361 9 L361 9 Z " />
<glyph glyph-name="R" unicode="R" horiz-adv-x="588" d="M32 691 C32 691 33 691 33 691 C34 691 35 680 35 664 C35 664 35 36 35 36 C35 20 34 9 33 9 C33 9 32 9 32 9 C32 9 32 0 32 0 C32 0 35 0 35 0 C35 0 74 0 74 0 C74 0 113 0 113 0 C113 0 116 0 116 0 C115 0 115 2 116 4 C115 7 115 9 116 9 C116 9 115 9 115 9 C114 9 113 11 113 15 C113 15 113 36 113 36 C113 36 113 334 113 334 C113 334 205 334 205 334 C205 334 376 106 376 106 C454 4 461 0 548 0 C548 0 578 0 578 0 C578 0 578 16 578 16 C578 16 573 16 573 16 C545 16 542 19 488 90 C488 90 297 341 297 341 C403 361 470 428 470 518 C470 627 382 700 251 700 C251 700 113 700 113 700 C113 700 74 700 74 700 C74 700 35 700 35 700 C35 700 32 700 32 700 C32 700 32 691 32 691 L32 691 Z M223 355 C223 355 189 355 189 355 C189 355 113 355 113 355 C113 355 113 680 113 680 C113 680 251 680 251 680 C334 680 389 615 389 518 C389 420 323 355 223 355 L223 355 Z " />
<glyph glyph-name="S" unicode="S" horiz-adv-x="490" d="M29 73 C29 73 29 44 29 44 C85 12 173 -10 249 -10 C369 -10 450 67 450 181 C450 263 378 343 270 380 C161 418 89 481 89 538 C89 630 146 691 232 691 C266 691 322 673 377 644 C384 640 391 636 398 632 C400 631 403 629 405 627 C405 627 413 627 413 627 C413 627 413 656 413 656 C356 688 285 710 235 710 C115 710 35 629 35 507 C35 431 105 356 210 320 C321 282 395 213 395 150 C395 65 336 9 249 9 C209 9 160 18 115 35 C115 35 115 35 115 35 C94 42 66 55 44 68 C42 69 39 71 37 73 C37 73 29 73 29 73 L29 73 Z " />
<glyph glyph-name="T" unicode="T" horiz-adv-x="558" d="M311 9 C309 9 308 20 308 36 C308 36 308 681 308 681 C308 681 492 681 492 681 C515 681 539 679 554 675 C554 675 561 675 561 675 C561 680 561 686 560 690 C560 693 560 697 559 700 C559 700 540 700 540 700 C540 700 523 700 523 700 C523 700 16 700 16 700 C16 700 0 700 0 700 C0 700 -20 700 -20 700 C-21 697 -21 693 -21 690 C-22 686 -22 680 -22 675 C-22 675 -15 675 -15 675 C0 679 24 681 47 681 C47 681 231 681 231 681 C231 681 231 36 231 36 C231 20 230 9 228 9 C228 9 228 0 228 0 C228 0 231 0 231 0 C231 0 270 0 270 0 C270 0 308 0 308 0 C308 0 311 0 311 0 C311 0 311 9 311 9 L311 9 Z " />
<glyph glyph-name="U" unicode="U" horiz-adv-x="568" d="M525 700 C525 700 521 700 521 700 C521 700 509 700 509 700 C509 700 497 700 497 700 C497 700 493 700 493 700 C493 700 493 691 493 691 C493 691 494 691 494 691 C496 691 497 678 497 660 C497 660 497 201 497 201 C497 91 443 17 303 17 C179 17 131 94 131 210 C131 210 131 664 131 664 C131 664 131 685 131 685 C131 689 132 691 133 691 C133 691 134 691 134 691 C133 691 133 693 134 696 C133 698 133 700 134 700 C134 700 131 700 131 700 C131 700 92 700 92 700 C92 700 53 700 53 700 C53 700 50 700 50 700 C50 700 50 691 50 691 C50 691 51 691 51 691 C52 691 53 680 53 664 C53 664 53 225 53 225 C53 84 120 -10 292 -10 C457 -10 521 71 521 193 C521 193 521 660 521 660 C522 678 523 691 524 691 C524 691 525 691 525 691 C525 691 525 700 525 700 L525 700 Z " />
<glyph glyph-name="V" unicode="V" horiz-adv-x="614" d="M567 700 C567 700 566 700 566 700 C566 700 554 700 554 700 C554 700 542 700 542 700 C542 700 537 700 537 700 C537 700 537 691 537 691 C537 691 538 691 538 691 C538 691 534 675 527 651 C527 651 527 651 527 651 C527 651 357 86 357 86 C357 86 144 664 144 664 C144 664 145 664 145 664 C139 680 135 691 135 691 C136 691 136 693 135 696 C136 698 136 700 135 700 C135 700 131 700 131 700 C131 700 89 700 89 700 C89 700 46 700 46 700 C46 700 47 698 47 698 C47 698 47 697 47 696 C47 696 47 691 47 691 C47 691 48 691 48 691 C49 691 50 688 53 682 C53 682 322 -30 322 -30 C322 -30 343 -30 343 -30 C343 -30 555 664 555 664 C560 680 565 691 566 691 C566 691 567 691 567 691 C567 691 567 700 567 700 L567 700 Z " />
<glyph glyph-name="W" unicode="W" horiz-adv-x="897" d="M859 700 C859 700 858 700 858 700 C858 700 846 700 846 700 C846 700 834 700 834 700 C834 700 830 700 830 700 C830 700 830 691 830 691 C831 691 829 680 824 664 C824 664 824 664 824 664 C824 664 639 -30 639 -30 C639 -30 659 -30 659 -30 C659 -30 849 668 849 668 C854 682 857 691 858 691 C858 691 859 691 859 691 C859 691 859 700 859 700 L859 700 Z M130 700 C130 700 126 700 126 700 C126 700 84 700 84 700 C84 700 41 700 41 700 C41 700 41 699 41 699 C41 698 42 697 41 696 C42 693 42 691 42 691 C43 691 45 685 48 676 C48 676 269 -30 269 -30 C269 -30 289 -30 289 -30 C289 -30 430 324 430 324 C430 324 639 -30 639 -30 C639 -30 674 102 674 102 C674 102 484 458 484 458 C484 458 464 458 464 458 C464 458 269 -30 269 -30 C269 -30 316 89 316 89 C316 89 137 664 137 664 C137 664 138 664 138 664 C132 680 129 691 130 691 C130 691 130 700 130 700 L130 700 Z " />
<glyph glyph-name="X" unicode="X" horiz-adv-x="618" d="M98 33 C89 19 82 9 81 9 C81 9 80 9 80 9 C80 8 78 1 78 0 C78 0 92 0 92 0 C92 0 107 0 107 0 C107 0 111 0 111 0 C111 0 111 4 111 4 C112 8 114 11 117 16 C117 16 296 319 296 319 C296 319 473 36 473 36 C473 36 473 36 473 36 C475 33 477 31 478 28 C478 28 491 8 491 8 C491 8 491 4 491 4 C492 2 492 0 492 0 C492 0 496 0 496 0 C496 0 540 0 540 0 C540 0 584 0 584 0 C584 0 582 4 582 4 C582 7 581 9 581 9 C580 9 574 17 566 29 C566 29 341 387 341 387 C341 387 342 387 342 387 C342 387 525 680 525 680 C530 687 534 691 535 691 C535 691 536 693 536 696 C536 697 537 697 537 698 C537 698 538 700 538 700 C538 700 522 700 522 700 C522 700 507 700 507 700 C507 700 503 700 503 700 C503 700 503 696 503 696 C502 692 500 689 498 685 C498 685 330 405 330 405 C330 405 168 664 168 664 C168 664 168 664 168 664 C164 670 162 674 159 678 C159 678 151 690 151 690 C150 692 150 694 150 696 C150 698 149 700 149 700 C149 700 145 700 145 700 C145 700 101 700 101 700 C101 700 57 700 57 700 C58 698 60 692 60 691 C60 691 61 691 61 691 C62 691 67 683 75 672 C75 672 284 338 284 338 C284 338 284 338 284 338 C284 338 98 33 98 33 L98 33 Z " />
<glyph glyph-name="Y" unicode="Y" horiz-adv-x="554" d="M313 9 C313 9 312 9 312 9 C311 9 310 20 310 36 C310 36 310 317 310 317 C310 317 310 317 310 317 C310 317 504 664 504 664 C504 664 504 664 504 664 C513 680 520 691 521 691 C521 691 522 691 522 691 C522 692 524 699 524 700 C524 700 512 700 512 700 C512 700 500 700 500 700 C500 700 495 700 495 700 C495 700 495 691 495 691 C495 691 487 677 475 655 C475 655 475 655 475 655 C475 655 300 336 300 336 C300 336 130 664 130 664 C130 664 130 664 130 664 C128 668 126 672 124 675 C124 675 116 691 116 691 C116 692 116 694 115 696 C115 696 115 700 115 700 C115 700 111 700 111 700 C111 700 65 700 65 700 C65 700 18 700 18 700 C18 700 19 698 19 696 C20 693 20 691 20 691 C20 691 21 691 21 691 C22 691 26 683 33 672 C33 672 232 288 232 288 C232 288 232 36 232 36 C232 20 231 9 230 9 C230 9 229 9 229 9 C229 9 229 0 229 0 C229 0 232 0 232 0 C232 0 271 0 271 0 C271 0 310 0 310 0 C310 0 313 0 313 0 C313 0 313 9 313 9 L313 9 Z " />
<glyph glyph-name="Z" unicode="Z" horiz-adv-x="599" d="M518 26 C506 22 483 20 458 20 C458 20 159 20 159 20 C159 20 544 700 544 700 C544 700 500 700 500 700 C500 700 456 700 456 700 C456 700 158 700 158 700 C158 700 141 700 141 700 C141 700 121 700 121 700 C120 697 119 693 119 690 C117 686 116 680 115 676 C115 676 122 676 122 676 C137 680 163 681 185 681 C185 681 445 681 445 681 C445 681 61 0 61 0 C61 0 104 0 104 0 C104 0 148 0 148 0 C148 0 489 0 489 0 C489 0 522 0 522 0 C522 0 525 0 525 0 C525 3 526 7 527 10 C528 15 529 21 529 26 C529 26 518 26 518 26 L518 26 Z " />
<glyph glyph-name="bracketleft" unicode="&#x5b;" horiz-adv-x="273" d="M144 684 C144 684 249 684 249 684 C249 684 249 700 249 700 C249 700 144 700 144 700 C144 700 87 700 87 700 C87 700 87 -120 87 -120 C87 -120 144 -120 144 -120 C144 -120 249 -120 249 -120 C249 -120 249 -104 249 -104 C249 -104 144 -104 144 -104 C144 -104 144 684 144 684 L144 684 Z " />
<glyph glyph-name="backslash" unicode="&#x5c;" horiz-adv-x="270" d="M230 -158 C230 -158 256 -158 256 -158 C256 -158 -20 750 -20 750 C-20 750 -45 750 -45 750 C-45 750 230 -158 230 -158 L230 -158 Z " />
<glyph glyph-name="bracketright" unicode="&#x5d;" horiz-adv-x="251" d="M110 684 C110 684 110 -104 110 -104 C110 -104 5 -104 5 -104 C5 -104 5 -120 5 -120 C5 -120 110 -120 110 -120 C110 -120 167 -120 167 -120 C167 -120 167 700 167 700 C167 700 110 700 110 700 C110 700 5 700 5 700 C5 700 5 684 5 684 C5 684 110 684 110 684 L110 684 Z " />
<glyph glyph-name="underscore" unicode="&#x5f;" horiz-adv-x="469" d="M20 -50 C20 -50 20 -91 20 -91 C20 -91 450 -91 450 -91 C450 -91 450 -50 450 -50 C450 -50 20 -50 20 -50 L20 -50 Z " />
<glyph glyph-name="a" unicode="a" horiz-adv-x="522" d="M486 39 C471 25 456 15 436 15 C406 15 397 44 397 87 C397 87 397 357 397 357 C397 449 345 510 268 510 C164 510 87 466 74 400 C74 400 147 400 147 400 C158 454 200 490 251 490 C293 490 320 443 320 373 C320 373 320 254 320 254 C320 254 221 240 221 240 C119 225 50 170 50 103 C50 35 97 -10 167 -10 C217 -10 275 15 321 56 C325 9 342 -20 386 -20 C432 -20 465 0 494 30 C494 30 486 39 486 39 L486 39 Z M320 237 C320 237 320 79 320 79 C320 77 320 75 320 73 C287 52 245 39 203 39 C155 39 123 73 123 124 C123 169 162 206 221 218 C221 218 320 237 320 237 L320 237 Z " />
<glyph glyph-name="b" unicode="b" horiz-adv-x="508" d="M17 724 C19 719 20 714 20 709 C20 709 20 677 20 677 C20 677 20 0 20 0 C20 0 28 0 28 0 C35 16 55 27 77 27 C111 27 140 8 178 -3 C193 -8 209 -10 227 -10 C371 -10 467 94 467 249 C467 406 385 510 261 510 C214 510 147 491 94 462 C94 462 94 696 94 696 C94 696 94 731 94 731 C94 731 94 750 94 750 C94 750 79 750 79 750 C79 750 20 731 20 731 C20 731 20 731 20 731 C20 731 20 731 20 731 C20 731 17 730 17 730 C17 730 17 724 17 724 L17 724 Z M94 450 C124 466 169 477 205 477 C315 477 389 373 389 216 C389 93 324 10 227 10 C147 10 94 66 94 149 C94 149 94 450 94 450 L94 450 Z " />
<glyph glyph-name="c" unicode="c" horiz-adv-x="493" d="M434 59 C434 59 427 68 427 68 C404 47 353 34 300 34 C193 34 121 125 121 261 C121 398 186 490 285 490 C329 490 362 456 367 404 C369 382 383 368 403 368 C423 368 436 381 436 400 C430 466 373 510 293 510 C144 510 44 399 44 233 C44 87 122 -10 239 -10 C307 -10 385 18 434 59 L434 59 Z " />
<glyph glyph-name="d" unicode="d" horiz-adv-x="531" d="M393 724 C395 719 396 714 396 709 C396 709 396 677 396 677 C396 677 396 449 396 449 C364 485 313 510 258 510 C123 510 33 395 33 223 C33 83 112 -10 229 -10 C289 -10 354 14 396 50 C396 50 396 19 396 19 C396 19 396 0 396 0 C396 0 411 0 411 0 C411 0 469 19 469 19 C469 19 469 19 469 19 C469 19 469 19 469 19 C469 19 472 20 472 20 C473 21 473 21 472 21 C473 24 473 26 472 26 C472 26 472 29 472 29 C470 43 470 50 469 73 C469 73 469 696 469 696 C469 696 469 731 469 731 C469 731 469 750 469 750 C469 750 455 750 455 750 C455 750 396 731 396 731 C396 731 396 731 396 731 C396 731 396 731 396 731 C396 731 393 730 393 730 C393 730 393 724 393 724 L393 724 Z M396 62 C375 45 326 35 270 35 C174 35 110 121 110 251 C110 394 168 490 254 490 C315 490 370 457 396 416 C396 416 396 62 396 62 L396 62 Z " />
<glyph glyph-name="e" unicode="e" horiz-adv-x="505" d="M440 59 C440 59 433 68 433 68 C410 47 357 34 302 34 C193 34 120 125 120 261 C120 281 121 301 124 319 C124 319 441 319 441 319 C441 434 370 510 264 510 C131 510 43 399 43 233 C43 87 122 -10 241 -10 C311 -10 390 18 440 59 L440 59 Z M126 333 C142 429 192 490 260 490 C328 490 373 446 373 380 C373 379 373 378 373 378 C372 360 360 347 343 344 C343 344 126 333 126 333 L126 333 Z M339 344 C339 344 338 344 338 344 C338 344 339 344 339 344 L339 344 Z " />
<glyph glyph-name="f" unicode="f" horiz-adv-x="369" d="M63 0 C63 0 66 0 66 0 C66 0 103 0 103 0 C103 0 140 0 140 0 C140 0 143 0 143 0 C142 0 142 2 143 4 C142 7 142 9 143 9 C143 9 142 9 142 9 C141 9 140 11 140 15 C140 15 140 36 140 36 C140 36 140 472 140 472 C140 472 275 472 275 472 C275 472 275 500 275 500 C275 500 140 500 140 500 C140 500 140 540 140 540 C140 656 181 734 243 734 C274 734 296 716 298 688 C300 669 315 656 335 656 C354 656 367 669 367 688 C364 725 323 750 263 750 C156 750 79 673 70 556 C70 556 66 500 66 500 C66 500 -12 500 -12 500 C-12 500 -12 472 -12 472 C-12 472 66 472 66 472 C66 472 66 36 66 36 C66 20 65 9 64 9 C64 9 63 9 63 9 C63 9 63 0 63 0 L63 0 Z " />
<glyph glyph-name="g" unicode="g" horiz-adv-x="535" d="M472 500 C472 500 334 489 334 489 C308 503 276 510 240 510 C135 510 64 446 64 351 C64 280 104 226 168 203 C96 198 48 158 48 100 C48 47 86 10 147 0 C72 -27 23 -80 23 -136 C23 -213 84 -265 175 -265 C341 -265 452 -182 452 -57 C452 19 380 70 273 70 C273 70 191 66 191 66 C135 64 98 89 98 128 C98 167 133 192 185 192 C185 192 240 192 240 192 C346 192 416 256 416 351 C416 395 401 433 374 460 C374 460 472 459 472 459 C472 459 472 500 472 500 L472 500 Z M133 351 C133 437 176 494 240 494 C304 494 347 437 347 351 C347 265 304 208 240 208 C176 208 133 265 133 351 L133 351 Z M169 -3 C178 -3 186 -3 195 -3 C195 -3 253 0 253 0 C341 0 399 -38 399 -94 C399 -185 313 -245 183 -245 C116 -245 72 -198 72 -127 C72 -71 111 -22 169 -3 C169 -3 169 -3 169 -3 L169 -3 Z " />
<glyph glyph-name="h" unicode="h" horiz-adv-x="511" d="M377 0 C377 0 380 0 380 0 C380 0 417 0 417 0 C417 0 453 0 453 0 C453 0 456 0 456 0 C457 0 457 2 456 4 C457 7 457 9 456 9 C455 9 454 20 453 36 C453 36 453 337 453 337 C454 441 420 510 333 510 C296 510 218 482 135 438 C135 438 135 696 135 696 C135 696 135 731 135 731 C135 731 135 750 135 750 C135 750 121 750 121 750 C121 750 62 731 62 731 C62 731 62 731 62 731 C62 731 62 731 62 731 C62 731 59 730 59 730 C59 730 59 724 59 724 C61 719 62 714 62 709 C62 709 62 677 62 677 C62 677 62 36 62 36 C62 20 61 9 60 9 C60 9 59 9 59 9 C59 9 59 0 59 0 C59 0 62 0 62 0 C62 0 99 0 99 0 C99 0 135 0 135 0 C135 0 138 0 138 0 C139 0 139 2 138 4 C139 7 139 9 138 9 C137 9 136 20 135 36 C135 36 135 430 135 430 C175 449 229 461 276 461 C351 461 380 408 380 329 C380 329 380 36 380 36 C380 20 379 9 378 9 C378 9 377 9 377 9 C377 9 377 0 377 0 L377 0 Z " />
<glyph glyph-name="i" unicode="i" horiz-adv-x="185" d="M47 471 C50 457 50 450 50 427 C50 427 50 36 50 36 C50 20 49 9 47 9 C47 9 47 0 47 0 C47 0 50 0 50 0 C50 0 86 0 86 0 C86 0 123 0 123 0 C123 0 126 0 126 0 C126 0 126 9 126 9 C126 9 125 9 125 9 C124 9 123 20 123 36 C123 36 123 446 123 446 C123 446 123 481 123 481 C123 481 123 500 123 500 C123 500 108 500 108 500 C108 500 50 481 50 481 C50 481 50 481 50 481 C50 481 50 481 50 481 C50 481 47 480 47 480 C47 480 47 471 47 471 L47 471 Z M82 620 C111 620 131 640 131 669 C131 698 111 718 82 718 C53 718 33 698 33 669 C33 640 53 620 82 620 L82 620 Z " />
<glyph glyph-name="j" unicode="j" horiz-adv-x="176" d="M60 471 C62 461 63 455 63 444 C63 444 62 5 62 5 C62 -145 35 -191 -47 -243 C-47 -243 -40 -252 -40 -252 C92 -170 136 -115 136 25 C136 25 136 446 136 446 C136 446 136 481 136 481 C136 481 136 500 136 500 C136 500 121 500 121 500 C121 500 63 481 63 481 C63 481 63 481 63 481 C63 481 63 481 63 481 C63 481 60 480 60 480 C60 480 60 471 60 471 L60 471 Z M95 620 C124 620 144 640 144 669 C144 698 124 718 95 718 C66 718 46 698 46 669 C46 640 66 620 95 620 L95 620 Z " />
<glyph glyph-name="k" unicode="k" horiz-adv-x="428" d="M55 724 C57 719 58 714 58 709 C58 709 58 677 58 677 C58 677 58 36 58 36 C58 20 57 9 56 9 C56 9 55 9 55 9 C55 9 55 0 55 0 C55 0 58 0 58 0 C58 0 95 0 95 0 C95 0 132 0 132 0 C132 0 135 0 135 0 C134 0 134 2 135 4 C134 7 134 9 135 9 C135 9 134 9 134 9 C133 9 132 11 132 15 C132 15 132 36 132 36 C132 36 132 275 132 275 C132 275 139 265 139 265 C139 265 140 266 140 266 C140 266 329 36 329 36 C329 36 329 36 329 36 C331 34 333 32 335 30 C335 30 352 8 352 8 C353 6 355 1 356 0 C356 0 359 0 359 0 C359 0 405 0 405 0 C405 0 451 0 451 0 C450 2 446 9 446 9 C445 9 441 12 436 18 C436 18 193 315 193 315 C193 315 357 464 357 464 C357 464 357 464 357 464 C375 480 388 491 389 491 C389 491 390 491 390 491 C390 491 397 500 396 500 C396 500 380 500 380 500 C380 500 364 500 364 500 C364 500 361 500 361 500 C357 495 355 492 352 488 C352 488 346 482 346 482 C342 478 335 473 326 464 C326 464 327 464 327 464 C327 464 132 275 132 275 C132 275 132 696 132 696 C132 696 132 731 132 731 C132 731 132 750 132 750 C132 750 117 750 117 750 C117 750 58 731 58 731 C58 731 58 731 58 731 C58 731 58 731 58 731 C58 731 55 730 55 730 C55 730 55 724 55 724 L55 724 Z " />
<glyph glyph-name="l" unicode="l" horiz-adv-x="198" d="M60 721 C63 707 63 700 63 677 C63 677 63 36 63 36 C63 20 62 9 60 9 C60 9 60 0 60 0 C60 0 63 0 63 0 C63 0 99 0 99 0 C99 0 136 0 136 0 C136 0 139 0 139 0 C139 0 139 9 139 9 C139 9 138 9 138 9 C137 9 136 20 136 36 C136 36 136 696 136 696 C136 696 136 731 136 731 C136 731 136 750 136 750 C136 750 121 750 121 750 C121 750 63 731 63 731 C63 731 63 731 63 731 C63 731 63 731 63 731 C63 731 60 730 60 730 C60 730 60 721 60 721 L60 721 Z " />
<glyph glyph-name="m" unicode="m" horiz-adv-x="849" d="M715 0 C715 0 718 0 718 0 C718 0 755 0 755 0 C755 0 791 0 791 0 C791 0 794 0 794 0 C795 0 795 2 794 4 C795 7 795 9 794 9 C793 9 792 20 791 36 C791 36 791 337 791 337 C792 441 737 510 663 510 C629 510 547 476 449 424 C428 478 388 510 339 510 C294 510 218 482 135 438 C135 438 135 445 135 445 C135 445 131 445 131 445 C131 445 135 446 135 446 C135 446 135 500 135 500 C135 500 121 500 121 500 C121 500 59 480 59 480 C59 480 59 474 59 474 C62 464 62 457 62 445 C62 445 62 445 62 445 C62 445 62 427 62 427 C62 427 62 36 62 36 C62 20 61 9 60 9 C60 9 59 9 59 9 C59 9 59 0 59 0 C59 0 62 0 62 0 C62 0 99 0 99 0 C99 0 135 0 135 0 C135 0 138 0 138 0 C139 0 139 2 138 4 C139 7 139 9 138 9 C137 9 136 20 135 36 C135 36 135 430 135 430 C179 451 232 465 282 465 C344 465 390 411 390 329 C390 329 390 36 390 36 C390 20 389 9 388 9 C388 9 387 9 387 9 C387 9 387 0 387 0 C387 0 390 0 390 0 C390 0 427 0 427 0 C427 0 463 0 463 0 C463 0 466 0 466 0 C467 0 467 2 466 4 C467 7 467 9 466 9 C465 9 464 20 463 36 C463 36 463 337 463 337 C463 365 460 391 453 413 C508 442 566 461 607 461 C670 461 718 408 718 329 C718 329 718 36 718 36 C718 20 717 9 716 9 C716 9 715 9 715 9 C715 9 715 0 715 0 L715 0 Z " />
<glyph glyph-name="n" unicode="n" horiz-adv-x="511" d="M377 0 C377 0 380 0 380 0 C380 0 417 0 417 0 C417 0 453 0 453 0 C453 0 456 0 456 0 C457 0 457 2 456 4 C457 7 457 9 456 9 C455 9 454 20 453 36 C453 36 453 337 453 337 C454 441 420 510 333 510 C296 510 218 482 135 438 C135 438 135 445 135 445 C135 445 131 445 131 445 C131 445 135 446 135 446 C135 446 135 500 135 500 C135 500 121 500 121 500 C121 500 59 480 59 480 C59 480 59 474 59 474 C62 464 62 457 62 445 C62 445 62 445 62 445 C62 445 62 427 62 427 C62 427 62 36 62 36 C62 20 61 9 60 9 C60 9 59 9 59 9 C59 9 59 0 59 0 C59 0 62 0 62 0 C62 0 99 0 99 0 C99 0 135 0 135 0 C135 0 138 0 138 0 C139 0 139 2 138 4 C139 7 139 9 138 9 C137 9 136 20 135 36 C135 36 135 430 135 430 C175 449 229 461 276 461 C351 461 380 408 380 329 C380 329 380 36 380 36 C380 20 379 9 378 9 C378 9 377 9 377 9 C377 9 377 0 377 0 L377 0 Z " />
<glyph glyph-name="o" unicode="o" horiz-adv-x="589" d="M291 6 C191 6 125 104 125 250 C125 396 191 494 291 494 C391 494 458 396 458 250 C458 104 391 6 291 6 L291 6 Z M44 250 C44 94 143 -10 291 -10 C440 -10 539 94 539 250 C539 406 440 510 291 510 C143 510 44 406 44 250 L44 250 Z " />
<glyph glyph-name="p" unicode="p" horiz-adv-x="567" d="M45 474 C48 464 48 457 48 445 C48 445 48 445 48 445 C48 445 48 427 48 427 C48 427 48 -214 48 -214 C48 -230 47 -241 46 -241 C46 -241 45 -241 45 -241 C45 -241 45 -250 45 -250 C45 -250 48 -250 48 -250 C48 -250 85 -250 85 -250 C85 -250 121 -250 121 -250 C121 -250 124 -250 124 -250 C125 -250 125 -248 124 -246 C125 -243 125 -241 124 -241 C123 -241 122 -230 121 -214 C121 -214 121 31 121 31 C155 5 203 -10 260 -10 C411 -10 512 99 512 262 C512 411 432 510 313 510 C245 510 170 476 121 424 C121 424 121 445 121 445 C121 445 117 445 117 445 C117 445 121 446 121 446 C121 446 111 500 111 500 C111 500 97 500 97 500 C97 500 45 480 45 480 C45 480 45 474 45 474 L45 474 Z M121 135 C121 135 121 411 121 411 C152 442 205 461 256 461 C366 461 440 359 440 205 C440 88 368 10 260 10 C183 10 128 60 121 135 L121 135 Z " />
<glyph glyph-name="q" unicode="q" horiz-adv-x="550" d="M491 -241 C491 -241 490 -241 490 -241 C489 -241 488 -230 488 -214 C488 -214 488 500 488 500 C488 500 480 500 480 500 C473 484 453 473 430 473 C392 473 360 497 314 507 C303 509 292 510 280 510 C143 510 52 395 52 223 C52 83 127 -10 240 -10 C302 -10 370 15 415 55 C415 55 415 -214 415 -214 C415 -230 414 -241 412 -241 C412 -241 412 -250 412 -250 C412 -250 415 -250 415 -250 C415 -250 451 -250 451 -250 C451 -250 488 -250 488 -250 C488 -250 491 -250 491 -250 C491 -250 491 -241 491 -241 L491 -241 Z M415 68 C393 48 339 35 280 35 C189 35 129 121 129 251 C129 394 190 490 280 490 C361 490 415 434 415 351 C415 351 415 68 415 68 L415 68 Z " />
<glyph glyph-name="r" unicode="r" horiz-adv-x="380" d="M59 474 C62 464 62 457 62 445 C62 445 62 445 62 445 C62 445 62 427 62 427 C62 427 62 36 62 36 C62 20 61 9 60 9 C60 9 59 9 59 9 C59 9 59 0 59 0 C59 0 62 0 62 0 C62 0 99 0 99 0 C99 0 135 0 135 0 C135 0 138 0 138 0 C139 0 139 2 138 4 C139 7 139 9 138 9 C137 9 136 20 135 36 C135 36 135 416 135 416 C158 440 188 456 216 456 C251 456 285 421 320 421 C341 421 355 435 355 456 C355 489 332 510 274 510 C233 510 178 477 135 426 C135 426 135 445 135 445 C135 445 131 445 131 445 C131 445 135 446 135 446 C135 446 125 500 125 500 C125 500 111 500 111 500 C111 500 59 480 59 480 C59 480 59 474 59 474 L59 474 Z " />
<glyph glyph-name="s" unicode="s" horiz-adv-x="450" d="M61 58 C61 58 61 32 61 32 C106 7 169 -10 221 -10 C320 -10 386 50 386 140 C386 190 339 245 268 276 C186 312 131 362 131 400 C131 456 172 494 234 494 C245 494 275 481 314 460 C322 456 333 450 349 441 C350 441 350 440 351 440 C351 440 351 440 351 440 C352 440 352 439 353 439 C354 439 356 438 357 437 C357 437 364 437 364 437 C364 437 364 463 364 463 C315 491 263 510 234 510 C138 510 74 456 74 375 C74 322 131 262 216 224 C281 195 325 151 325 113 C325 49 285 7 225 7 C200 7 166 15 132 28 C132 28 132 28 132 28 C117 33 94 44 74 55 C72 56 70 58 68 58 C68 58 61 58 61 58 L61 58 Z " />
<glyph glyph-name="t" unicode="t" horiz-adv-x="367" d="M322 500 C322 500 187 500 187 500 C187 500 187 646 187 646 C187 646 174 646 174 646 C174 646 157 597 157 597 C131 533 87 487 42 480 C42 480 40 480 40 480 C40 480 40 472 40 472 C40 472 113 472 113 472 C113 472 113 112 113 112 C113 17 132 -10 200 -10 C254 -10 295 11 333 43 C333 43 328 50 328 50 C308 34 282 23 236 23 C197 23 186 40 186 99 C186 99 187 472 187 472 C187 472 322 472 322 472 C322 472 322 500 322 500 L322 500 Z " />
<glyph glyph-name="u" unicode="u" horiz-adv-x="476" d="M347 491 C347 491 348 491 348 491 C349 491 350 480 350 464 C350 464 350 66 350 66 C330 49 294 38 234 38 C149 38 105 88 105 163 C105 163 105 500 105 500 C105 500 69 500 69 500 C69 500 32 500 32 500 C32 500 29 500 29 500 C29 500 29 491 29 491 C29 491 30 491 30 491 C31 491 32 480 32 464 C32 464 32 155 32 155 C32 56 81 -10 177 -10 C249 -10 307 15 350 54 C350 54 350 54 350 54 C350 54 350 19 350 19 C350 19 350 0 350 0 C350 0 365 0 365 0 C365 0 423 19 423 19 C423 19 423 19 423 19 C423 19 423 19 423 19 C423 19 426 20 426 20 C427 21 427 21 426 21 C427 24 427 26 426 26 C426 26 426 29 426 29 C424 43 424 50 423 73 C423 73 423 500 423 500 C423 500 387 500 387 500 C387 500 350 500 350 500 C350 500 347 500 347 500 C347 500 347 491 347 491 L347 491 Z " />
<glyph glyph-name="v" unicode="v" horiz-adv-x="480" d="M36 464 C36 464 36 464 36 464 C36 464 226 -20 226 -20 C226 -20 238 -20 238 -20 C238 -20 433 480 433 480 C436 487 439 491 440 491 C440 491 440 496 440 496 C440 497 440 497 440 497 C440 497 441 500 441 500 C441 500 428 500 428 500 C428 500 416 500 416 500 C416 500 413 500 413 500 C413 500 413 492 413 492 C413 492 260 73 260 73 C260 73 118 464 118 464 C118 464 119 464 119 464 C113 480 109 491 109 491 C109 491 109 496 109 496 C109 498 109 500 108 500 C108 500 105 500 105 500 C105 500 64 500 64 500 C64 500 22 500 22 500 C21 500 21 498 22 496 C22 496 22 491 22 491 C24 491 29 480 36 464 C36 464 36 464 36 464 L36 464 Z " />
<glyph glyph-name="w" unicode="w" horiz-adv-x="738" d="M692 491 C693 491 690 484 677 448 C677 448 540 73 540 73 C540 73 400 458 400 458 C400 458 401 458 401 458 C399 463 397 467 396 471 C396 471 389 490 389 490 C389 491 389 491 389 491 C389 491 389 500 389 500 C389 500 385 500 385 500 C385 500 301 500 301 500 C301 500 303 491 303 491 C303 491 304 491 304 491 C304 491 305 491 305 489 C305 489 361 348 361 348 C361 348 260 72 260 72 C260 72 120 458 120 458 C120 458 121 458 121 458 C110 486 108 491 109 491 C109 491 109 500 109 500 C109 500 105 500 105 500 C105 500 22 500 22 500 C22 500 22 496 22 496 C23 493 23 491 23 491 C23 491 24 491 24 491 C25 491 27 485 39 456 C39 456 39 456 39 456 C39 456 226 -20 226 -20 C226 -20 238 -20 238 -20 C238 -20 369 328 369 328 C369 328 506 -20 506 -20 C506 -20 518 -20 518 -20 C518 -20 702 453 702 453 C702 453 702 453 702 453 C714 485 717 491 718 491 C718 491 719 491 719 491 C719 491 719 493 720 496 C720 496 720 500 720 500 C720 500 696 500 696 500 C696 500 692 500 692 500 C692 500 692 491 692 491 L692 491 Z " />
<glyph glyph-name="x" unicode="x" horiz-adv-x="511" d="M55 28 C46 16 41 9 39 9 C39 9 38 7 37 4 C37 2 36 0 36 0 C36 0 48 0 48 0 C48 0 60 0 60 0 C60 0 65 0 65 0 C65 0 65 2 66 4 C66 4 66 9 66 9 C66 9 67 10 68 12 C68 12 76 25 76 25 C78 28 81 32 84 36 C84 36 84 36 84 36 C84 36 213 231 213 231 C213 231 347 36 347 36 C347 36 347 36 347 36 C352 28 357 22 360 17 C360 17 366 8 366 8 C367 7 367 6 368 4 C368 2 369 0 369 0 C369 0 372 0 372 0 C372 0 417 0 417 0 C417 0 462 0 462 0 C461 2 458 9 458 9 C458 9 457 9 457 9 C457 9 452 16 444 26 C444 26 258 295 258 295 C258 295 385 464 385 464 C385 464 385 464 385 464 C397 480 407 491 408 491 C409 491 411 499 412 500 C412 500 400 500 400 500 C400 500 387 500 387 500 C387 500 383 500 383 500 C384 500 383 498 382 496 C382 495 382 493 381 492 C381 492 250 307 250 307 C250 307 142 464 142 464 C142 464 142 464 142 464 C141 465 141 466 140 467 C140 467 123 492 123 492 C122 493 122 494 121 496 C121 498 120 500 120 500 C120 500 117 500 117 500 C117 500 72 500 72 500 C72 500 27 500 27 500 C28 498 31 491 31 491 C32 491 37 484 45 474 C45 474 203 246 203 246 C203 246 55 28 55 28 L55 28 Z " />
<glyph glyph-name="y" unicode="y" horiz-adv-x="426" d="M29 464 C29 464 29 464 29 464 C29 464 215 -10 215 -10 C215 -10 192 -65 192 -65 C154 -164 127 -202 95 -202 C70 -202 45 -177 20 -177 C-2 -177 -17 -190 -17 -208 C-17 -233 10 -250 50 -250 C116 -250 161 -200 211 -72 C211 -72 231 -20 231 -20 C231 -20 426 480 426 480 C429 487 432 491 433 491 C433 491 433 496 433 496 C433 497 433 497 433 497 C433 497 434 500 434 500 C434 500 421 500 421 500 C421 500 409 500 409 500 C409 500 406 500 406 500 C406 500 406 492 406 492 C406 492 253 73 253 73 C253 73 111 464 111 464 C111 464 112 464 112 464 C106 480 102 491 102 491 C102 491 102 496 102 496 C102 498 102 500 101 500 C101 500 98 500 98 500 C98 500 57 500 57 500 C57 500 15 500 15 500 C14 500 14 498 15 496 C15 496 15 491 15 491 C17 491 22 480 29 464 C29 464 29 464 29 464 L29 464 Z " />
<glyph glyph-name="z" unicode="z" horiz-adv-x="512" d="M149 483 C149 483 149 483 149 483 C149 483 354 484 354 484 C354 484 64 0 64 0 C64 0 107 0 107 0 C107 0 150 0 150 0 C150 0 394 0 394 0 C394 0 427 0 427 0 C427 0 431 0 431 0 C431 2 432 6 432 8 C433 12 434 18 434 22 C434 22 432 22 432 22 C427 22 423 22 423 23 C413 20 399 17 381 17 C381 17 369 17 369 17 C368 17 366 17 364 17 C364 17 364 17 364 17 C364 17 160 16 160 16 C160 16 448 500 448 500 C448 500 406 500 406 500 C406 500 364 500 364 500 C364 500 121 500 121 500 C121 500 105 500 105 500 C105 500 85 500 85 500 C84 498 83 494 83 491 C82 488 80 483 80 479 C80 479 86 479 86 479 C102 482 126 483 149 483 C149 483 149 483 149 483 L149 483 Z " />
<glyph glyph-name="braceleft" unicode="&#x7b;" horiz-adv-x="275" d="M246 -130 C246 -130 246 -129 246 -129 C246 -129 208 -129 208 -129 C162 -129 131 -82 132 -12 C132 -12 132 171 132 171 C131 239 90 285 27 285 C-36 285 131 329 132 396 C132 396 132 581 132 581 C131 652 162 698 208 698 C208 698 246 698 246 698 C246 698 246 700 246 700 C246 700 206 700 206 700 C127 700 74 652 75 581 C75 581 75 355 75 355 C74 313 54 286 25 286 C25 286 20 286 20 286 C20 286 20 284 20 284 C20 284 25 284 25 284 C54 284 74 255 75 212 C75 212 75 -12 75 -12 C74 -83 127 -130 206 -130 C206 -130 246 -130 246 -130 L246 -130 Z " />
<glyph glyph-name="bar" unicode="&#x7c;" horiz-adv-x="206" d="M75 800 C75 800 75 -250 75 -250 C75 -250 132 -250 132 -250 C132 -250 132 800 132 800 C132 800 75 800 75 800 L75 800 Z " />
<glyph glyph-name="braceright" unicode="&#x7d;" horiz-adv-x="275" d="M20 700 C20 700 20 698 20 698 C20 698 57 698 57 698 C103 698 134 651 134 581 C134 581 134 398 134 398 C134 330 176 285 238 285 C300 285 134 240 134 174 C134 174 134 -12 134 -12 C134 -82 103 -129 57 -129 C57 -129 20 -129 20 -129 C20 -129 20 -130 20 -130 C20 -130 60 -130 60 -130 C138 -130 191 -83 191 -12 C191 -12 191 214 191 214 C191 256 211 284 241 284 C241 284 246 284 246 284 C246 284 246 286 246 286 C246 286 241 286 241 286 C211 286 191 315 191 357 C191 357 191 581 191 581 C191 652 138 700 60 700 C60 700 20 700 20 700 L20 700 Z " />
<glyph glyph-name="[namenotfound]" unicode="&#xa0;" horiz-adv-x="220" d="" />
<glyph glyph-name="exclamdown" unicode="&#xa1;" horiz-adv-x="241" d="M114 510 C83 510 62 489 62 457 C62 425 83 404 114 404 C146 404 167 425 167 457 C167 489 146 510 114 510 L114 510 Z M75 -151 C72 -186 90 -210 119 -210 C150 -210 168 -186 164 -151 C164 -151 119 329 119 329 C119 329 110 329 110 329 C110 329 75 -151 75 -151 L75 -151 Z " />
<glyph glyph-name="cent" unicode="&#xa2;" horiz-adv-x="521" d="M287 575 C287 575 287 509 287 509 C153 496 65 389 65 233 C65 87 143 -10 260 -10 C269 -10 278 -10 287 -9 C287 -9 287 -75 287 -75 C287 -75 311 -75 311 -75 C311 -75 311 -5 311 -5 C364 4 418 28 455 59 C455 59 448 68 448 68 C425 47 374 34 321 34 C318 34 314 34 311 34 C311 34 311 490 311 490 C352 487 383 454 388 404 C390 382 404 368 424 368 C444 368 457 381 457 400 C451 466 394 510 314 510 C313 510 312 510 311 510 C311 510 311 575 311 575 C311 575 287 575 287 575 L287 575 Z M287 37 C199 55 142 140 142 261 C142 389 199 478 287 489 C287 489 287 37 287 37 L287 37 Z " />
<glyph glyph-name="guillemotleft" unicode="&#xab;" horiz-adv-x="469" d="M264 247 C264 247 410 462 410 462 C410 462 409 463 409 463 C409 463 187 247 187 247 C187 247 187 246 187 246 C187 246 409 37 409 37 C409 37 410 38 410 38 C410 38 264 247 264 247 L264 247 Z M110 247 C110 247 243 462 243 462 C243 462 241 463 241 463 C241 463 35 247 35 247 C35 247 35 246 35 246 C35 246 242 37 242 37 C242 37 243 38 243 38 C243 38 110 247 110 247 L110 247 Z " />
<glyph glyph-name="guillemotright" unicode="&#xbb;" horiz-adv-x="469" d="M206 247 C206 247 60 462 60 462 C60 462 61 463 61 463 C61 463 282 247 282 247 C282 247 282 246 282 246 C282 246 61 37 61 37 C61 37 60 38 60 38 C60 38 206 247 206 247 L206 247 Z M360 247 C360 247 227 462 227 462 C227 462 228 463 228 463 C228 463 435 247 435 247 C435 247 435 246 435 246 C435 246 228 37 228 37 C228 37 227 38 227 38 C227 38 360 247 360 247 L360 247 Z " />
<glyph glyph-name="questiondown" unicode="&#xbf;" horiz-adv-x="397" d="M244 510 C212 510 191 489 191 457 C191 425 212 404 244 404 C276 404 297 425 297 457 C297 489 276 510 244 510 L244 510 Z M265 118 C265 118 249 315 249 315 C249 315 239 315 239 315 C239 315 223 118 223 118 C223 118 226 163 226 163 C226 163 191 163 191 163 C72 163 50 82 50 36 C50 -112 134 -210 261 -210 C311 -210 344 -183 344 -142 C344 -126 330 -115 308 -115 C281 -115 265 -153 238 -153 C135 -153 67 -81 66 27 C67 56 91 107 216 107 C216 107 251 107 251 107 C260 107 265 111 265 118 L265 118 Z " />
<glyph glyph-name="Agrave" unicode="&#xc0;" horiz-adv-x="574" d="M545 9 C545 9 544 9 544 9 C541 9 535 20 529 36 C529 36 529 36 529 36 C529 36 278 716 278 716 C278 716 259 716 259 716 C259 716 35 32 35 32 C29 18 26 9 24 9 C24 9 24 0 24 0 C24 0 37 0 37 0 C37 0 49 0 49 0 C49 0 54 0 54 0 C54 0 54 9 54 9 C54 9 53 9 53 9 C53 9 56 22 63 43 C63 43 63 43 63 43 C63 43 129 250 129 250 C129 250 370 250 370 250 C370 250 445 36 445 36 C445 36 445 36 445 36 C451 20 454 9 454 9 C454 9 455 9 455 9 C455 9 457 3 457 3 C457 3 457 0 457 0 C457 0 458 0 458 0 C458 0 500 0 500 0 C500 0 542 0 542 0 C542 0 545 0 545 0 C545 0 545 9 545 9 L545 9 Z M264 912 C246 944 232 965 228 965 C215 965 186 944 186 935 C186 929 202 909 226 883 C226 883 341 755 341 755 C341 755 350 762 350 762 C350 762 264 912 264 912 L264 912 Z M364 269 C364 269 135 269 135 269 C135 269 244 610 244 610 C244 610 364 269 364 269 L364 269 Z " />
<glyph glyph-name="Aacute" unicode="&#xc1;" horiz-adv-x="574" d="M207 755 C207 755 319 883 319 883 C343 910 358 930 359 935 C359 944 329 965 317 965 C314 965 300 944 282 912 C282 912 199 762 199 762 C199 762 207 755 207 755 L207 755 Z M545 9 C545 9 544 9 544 9 C541 9 535 20 529 36 C529 36 529 36 529 36 C529 36 278 716 278 716 C278 716 259 716 259 716 C259 716 35 32 35 32 C29 18 26 9 24 9 C24 9 24 0 24 0 C24 0 37 0 37 0 C37 0 49 0 49 0 C49 0 54 0 54 0 C54 0 54 9 54 9 C54 9 53 9 53 9 C53 9 56 22 63 43 C63 43 63 43 63 43 C63 43 129 250 129 250 C129 250 370 250 370 250 C370 250 445 36 445 36 C445 36 445 36 445 36 C451 20 454 9 454 9 C454 9 455 9 455 9 C455 9 457 3 457 3 C457 3 457 0 457 0 C457 0 458 0 458 0 C458 0 500 0 500 0 C500 0 542 0 542 0 C542 0 545 0 545 0 C545 0 545 9 545 9 L545 9 Z M364 269 C364 269 135 269 135 269 C135 269 244 610 244 610 C244 610 364 269 364 269 L364 269 Z " />
<glyph glyph-name="Acircumflex" unicode="&#xc2;" horiz-adv-x="574" d="M545 9 C545 9 544 9 544 9 C541 9 535 20 529 36 C529 36 529 36 529 36 C529 36 278 716 278 716 C278 716 259 716 259 716 C259 716 35 32 35 32 C29 18 26 9 24 9 C24 9 24 0 24 0 C24 0 37 0 37 0 C37 0 49 0 49 0 C49 0 54 0 54 0 C54 0 54 9 54 9 C54 9 53 9 53 9 C53 9 56 22 63 43 C63 43 63 43 63 43 C63 43 129 250 129 250 C129 250 370 250 370 250 C370 250 445 36 445 36 C445 36 445 36 445 36 C451 20 454 9 454 9 C454 9 455 9 455 9 C455 9 457 3 457 3 C457 3 457 0 457 0 C457 0 458 0 458 0 C458 0 500 0 500 0 C500 0 542 0 542 0 C542 0 545 0 545 0 C545 0 545 9 545 9 L545 9 Z M269 897 C269 897 381 757 381 757 C381 757 388 764 388 764 C388 764 292 949 292 949 C289 955 280 970 269 970 C257 970 249 955 245 949 C245 949 149 764 149 764 C149 764 157 757 157 757 C157 757 269 897 269 897 L269 897 Z M364 269 C364 269 135 269 135 269 C135 269 244 610 244 610 C244 610 364 269 364 269 L364 269 Z " />
<glyph glyph-name="Atilde" unicode="&#xc3;" horiz-adv-x="574" d="M125 820 C125 858 143 883 171 883 C231 883 287 818 347 818 C387 818 414 861 414 927 C414 927 412 927 412 927 C412 891 392 867 363 867 C303 867 247 932 186 932 C148 932 123 887 123 820 C123 820 125 820 125 820 L125 820 Z M545 9 C545 9 544 9 544 9 C541 9 535 20 529 36 C529 36 529 36 529 36 C529 36 278 716 278 716 C278 716 259 716 259 716 C259 716 35 32 35 32 C29 18 26 9 24 9 C24 9 24 0 24 0 C24 0 37 0 37 0 C37 0 49 0 49 0 C49 0 54 0 54 0 C54 0 54 9 54 9 C54 9 53 9 53 9 C53 9 56 22 63 43 C63 43 63 43 63 43 C63 43 129 250 129 250 C129 250 370 250 370 250 C370 250 445 36 445 36 C445 36 445 36 445 36 C451 20 454 9 454 9 C454 9 455 9 455 9 C455 9 457 3 457 3 C457 3 457 0 457 0 C457 0 458 0 458 0 C458 0 500 0 500 0 C500 0 542 0 542 0 C542 0 545 0 545 0 C545 0 545 9 545 9 L545 9 Z M364 269 C364 269 135 269 135 269 C135 269 244 610 244 610 C244 610 364 269 364 269 L364 269 Z " />
<glyph glyph-name="Adieresis" unicode="&#xc4;" horiz-adv-x="574" d="M362 820 C388 820 406 838 406 865 C406 892 388 910 362 910 C335 910 317 892 317 865 C317 838 335 820 362 820 L362 820 Z M176 820 C202 820 220 838 220 865 C220 892 202 910 176 910 C149 910 131 892 131 865 C131 838 149 820 176 820 L176 820 Z M545 9 C545 9 544 9 544 9 C541 9 535 20 529 36 C529 36 529 36 529 36 C529 36 278 716 278 716 C278 716 259 716 259 716 C259 716 35 32 35 32 C29 18 26 9 24 9 C24 9 24 0 24 0 C24 0 37 0 37 0 C37 0 49 0 49 0 C49 0 54 0 54 0 C54 0 54 9 54 9 C54 9 53 9 53 9 C53 9 56 22 63 43 C63 43 63 43 63 43 C63 43 129 250 129 250 C129 250 370 250 370 250 C370 250 445 36 445 36 C445 36 445 36 445 36 C451 20 454 9 454 9 C454 9 455 9 455 9 C455 9 457 3 457 3 C457 3 457 0 457 0 C457 0 458 0 458 0 C458 0 500 0 500 0 C500 0 542 0 542 0 C542 0 545 0 545 0 C545 0 545 9 545 9 L545 9 Z M364 269 C364 269 135 269 135 269 C135 269 244 610 244 610 C244 610 364 269 364 269 L364 269 Z " />
<glyph glyph-name="Aring" unicode="&#xc5;" horiz-adv-x="574" d="M269 776 C227 776 192 812 192 855 C192 902 223 934 269 934 C314 934 345 902 345 855 C345 812 310 776 269 776 L269 776 Z M171 855 C171 804 216 760 269 760 C321 760 366 804 366 855 C366 912 327 950 269 950 C210 950 171 912 171 855 L171 855 Z M545 9 C545 9 544 9 544 9 C541 9 535 20 529 36 C529 36 529 36 529 36 C529 36 278 716 278 716 C278 716 259 716 259 716 C259 716 35 32 35 32 C29 18 26 9 24 9 C24 9 24 0 24 0 C24 0 37 0 37 0 C37 0 49 0 49 0 C49 0 54 0 54 0 C54 0 54 9 54 9 C54 9 53 9 53 9 C53 9 56 22 63 43 C63 43 63 43 63 43 C63 43 129 250 129 250 C129 250 370 250 370 250 C370 250 445 36 445 36 C445 36 445 36 445 36 C451 20 454 9 454 9 C454 9 455 9 455 9 C455 9 457 3 457 3 C457 3 457 0 457 0 C457 0 458 0 458 0 C458 0 500 0 500 0 C500 0 542 0 542 0 C542 0 545 0 545 0 C545 0 545 9 545 9 L545 9 Z M364 269 C364 269 135 269 135 269 C135 269 244 610 244 610 C244 610 364 269 364 269 L364 269 Z " />
<glyph glyph-name="Ccedilla" unicode="&#xc7;" horiz-adv-x="742" d="M668 622 C668 622 668 644 668 644 C600 684 495 710 407 710 C205 710 70 566 70 350 C70 134 205 -10 407 -10 C495 -10 600 16 668 56 C668 56 668 78 668 78 C668 78 660 78 660 78 C658 77 655 75 653 73 C637 63 616 52 594 44 C535 22 467 9 407 9 C256 9 155 145 155 350 C155 555 256 691 407 691 C469 691 540 677 600 654 C618 646 638 636 653 627 C655 625 658 623 660 622 C660 622 668 622 668 622 L668 622 Z " />
<glyph glyph-name="Egrave" unicode="&#xc8;" horiz-adv-x="488" d="M357 386 C350 384 331 383 310 383 C310 383 136 383 136 383 C136 383 136 681 136 681 C136 681 357 681 357 681 C384 681 410 680 424 675 C424 675 431 675 431 675 C431 675 431 690 431 690 C431 690 431 700 431 700 C431 700 421 700 421 700 C421 700 394 700 394 700 C394 700 136 700 136 700 C136 700 97 700 97 700 C97 700 59 700 59 700 C59 700 56 700 56 700 C56 700 56 691 56 691 C58 691 59 680 59 664 C59 664 59 36 59 36 C59 20 58 9 56 9 C56 9 56 0 56 0 C56 0 59 0 59 0 C59 0 97 0 97 0 C97 0 136 0 136 0 C136 0 398 0 398 0 C398 0 431 0 431 0 C431 0 434 0 434 0 C435 3 435 7 436 10 C437 14 438 20 438 25 C438 25 432 25 432 25 C417 21 392 20 363 19 C363 19 136 19 136 19 C136 19 136 364 136 364 C136 364 310 364 310 364 C333 364 351 364 359 360 C359 360 366 360 366 360 C366 360 366 364 366 364 C366 364 366 373 366 373 C366 373 366 383 366 383 C366 383 366 386 366 386 C366 386 357 386 357 386 L357 386 Z M219 912 C201 944 188 965 183 965 C171 965 141 944 141 935 C141 929 157 909 182 883 C182 883 297 755 297 755 C297 755 305 762 305 762 C305 762 219 912 219 912 L219 912 Z " />
<glyph glyph-name="Eacute" unicode="&#xc9;" horiz-adv-x="488" d="M208 755 C208 755 321 883 321 883 C344 910 360 930 360 935 C360 944 331 965 318 965 C315 965 302 944 283 912 C283 912 200 762 200 762 C200 762 208 755 208 755 L208 755 Z M357 386 C350 384 331 383 310 383 C310 383 136 383 136 383 C136 383 136 681 136 681 C136 681 357 681 357 681 C384 681 410 680 424 675 C424 675 431 675 431 675 C431 675 431 690 431 690 C431 690 431 700 431 700 C431 700 421 700 421 700 C421 700 394 700 394 700 C394 700 136 700 136 700 C136 700 97 700 97 700 C97 700 59 700 59 700 C59 700 56 700 56 700 C56 700 56 691 56 691 C58 691 59 680 59 664 C59 664 59 36 59 36 C59 20 58 9 56 9 C56 9 56 0 56 0 C56 0 59 0 59 0 C59 0 97 0 97 0 C97 0 136 0 136 0 C136 0 398 0 398 0 C398 0 431 0 431 0 C431 0 434 0 434 0 C435 3 435 7 436 10 C437 14 438 20 438 25 C438 25 432 25 432 25 C417 21 392 20 363 19 C363 19 136 19 136 19 C136 19 136 364 136 364 C136 364 310 364 310 364 C333 364 351 364 359 360 C359 360 366 360 366 360 C366 360 366 364 366 364 C366 364 366 373 366 373 C366 373 366 383 366 383 C366 383 366 386 366 386 C366 386 357 386 357 386 L357 386 Z " />
<glyph glyph-name="Ecircumflex" unicode="&#xca;" horiz-adv-x="488" d="M357 386 C350 384 331 383 310 383 C310 383 136 383 136 383 C136 383 136 681 136 681 C136 681 357 681 357 681 C384 681 410 680 424 675 C424 675 431 675 431 675 C431 675 431 690 431 690 C431 690 431 700 431 700 C431 700 421 700 421 700 C421 700 394 700 394 700 C394 700 136 700 136 700 C136 700 97 700 97 700 C97 700 59 700 59 700 C59 700 56 700 56 700 C56 700 56 691 56 691 C58 691 59 680 59 664 C59 664 59 36 59 36 C59 20 58 9 56 9 C56 9 56 0 56 0 C56 0 59 0 59 0 C59 0 97 0 97 0 C97 0 136 0 136 0 C136 0 398 0 398 0 C398 0 431 0 431 0 C431 0 434 0 434 0 C435 3 435 7 436 10 C437 14 438 20 438 25 C438 25 432 25 432 25 C417 21 392 20 363 19 C363 19 136 19 136 19 C136 19 136 364 136 364 C136 364 310 364 310 364 C333 364 351 364 359 360 C359 360 366 360 366 360 C366 360 366 364 366 364 C366 364 366 373 366 373 C366 373 366 383 366 383 C366 383 366 386 366 386 C366 386 357 386 357 386 L357 386 Z M240 897 C240 897 352 757 352 757 C352 757 359 764 359 764 C359 764 263 949 263 949 C260 955 251 970 240 970 C228 970 220 955 217 949 C217 949 120 764 120 764 C120 764 128 757 128 757 C128 757 240 897 240 897 L240 897 Z " />
<glyph glyph-name="Edieresis" unicode="&#xcb;" horiz-adv-x="488" d="M333 820 C359 820 377 838 377 865 C377 892 359 910 333 910 C306 910 288 892 288 865 C288 838 306 820 333 820 L333 820 Z M147 820 C174 820 192 838 192 865 C192 892 174 910 147 910 C120 910 102 892 102 865 C102 838 120 820 147 820 L147 820 Z M357 386 C350 384 331 383 310 383 C310 383 136 383 136 383 C136 383 136 681 136 681 C136 681 357 681 357 681 C384 681 410 680 424 675 C424 675 431 675 431 675 C431 675 431 690 431 690 C431 690 431 700 431 700 C431 700 421 700 421 700 C421 700 394 700 394 700 C394 700 136 700 136 700 C136 700 97 700 97 700 C97 700 59 700 59 700 C59 700 56 700 56 700 C56 700 56 691 56 691 C58 691 59 680 59 664 C59 664 59 36 59 36 C59 20 58 9 56 9 C56 9 56 0 56 0 C56 0 59 0 59 0 C59 0 97 0 97 0 C97 0 136 0 136 0 C136 0 398 0 398 0 C398 0 431 0 431 0 C431 0 434 0 434 0 C435 3 435 7 436 10 C437 14 438 20 438 25 C438 25 432 25 432 25 C417 21 392 20 363 19 C363 19 136 19 136 19 C136 19 136 364 136 364 C136 364 310 364 310 364 C333 364 351 364 359 360 C359 360 366 360 366 360 C366 360 366 364 366 364 C366 364 366 373 366 373 C366 373 366 383 366 383 C366 383 366 386 366 386 C366 386 357 386 357 386 L357 386 Z " />
<glyph glyph-name="Igrave" unicode="&#xcc;" horiz-adv-x="194" d="M140 700 C140 700 137 700 137 700 C137 700 98 700 98 700 C98 700 60 700 60 700 C60 700 57 700 57 700 C57 700 57 691 57 691 C59 691 60 680 60 664 C60 664 60 36 60 36 C60 20 59 9 57 9 C57 9 57 0 57 0 C57 0 60 0 60 0 C60 0 98 0 98 0 C98 0 137 0 137 0 C137 0 140 0 140 0 C140 0 140 9 140 9 C140 9 139 9 139 9 C138 9 137 20 137 36 C137 36 137 664 137 664 C137 680 138 691 139 691 C139 691 140 691 140 691 C140 691 140 700 140 700 L140 700 Z M93 912 C75 944 61 965 57 965 C44 965 15 944 15 935 C15 929 31 909 56 883 C56 883 171 755 171 755 C171 755 179 762 179 762 C179 762 93 912 93 912 L93 912 Z " />
<glyph glyph-name="Iacute" unicode="&#xcd;" horiz-adv-x="194" d="M37 755 C37 755 149 883 149 883 C173 910 188 930 188 935 C188 944 159 965 146 965 C143 965 129 944 112 912 C112 912 28 762 28 762 C28 762 37 755 37 755 L37 755 Z M140 700 C140 700 137 700 137 700 C137 700 98 700 98 700 C98 700 60 700 60 700 C60 700 57 700 57 700 C57 700 57 691 57 691 C59 691 60 680 60 664 C60 664 60 36 60 36 C60 20 59 9 57 9 C57 9 57 0 57 0 C57 0 60 0 60 0 C60 0 98 0 98 0 C98 0 137 0 137 0 C137 0 140 0 140 0 C140 0 140 9 140 9 C140 9 139 9 139 9 C138 9 137 20 137 36 C137 36 137 664 137 664 C137 680 138 691 139 691 C139 691 140 691 140 691 C140 691 140 700 140 700 L140 700 Z " />
<glyph glyph-name="Icircumflex" unicode="&#xce;" horiz-adv-x="194" d="M140 700 C140 700 137 700 137 700 C137 700 98 700 98 700 C98 700 60 700 60 700 C60 700 57 700 57 700 C57 700 57 691 57 691 C59 691 60 680 60 664 C60 664 60 36 60 36 C60 20 59 9 57 9 C57 9 57 0 57 0 C57 0 60 0 60 0 C60 0 98 0 98 0 C98 0 137 0 137 0 C137 0 140 0 140 0 C140 0 140 9 140 9 C140 9 139 9 139 9 C138 9 137 20 137 36 C137 36 137 664 137 664 C137 680 138 691 139 691 C139 691 140 691 140 691 C140 691 140 700 140 700 L140 700 Z M98 897 C98 897 210 757 210 757 C210 757 218 764 218 764 C218 764 122 949 122 949 C118 955 110 970 98 970 C87 970 78 955 75 949 C75 949 -21 764 -21 764 C-21 764 -14 757 -14 757 C-14 757 98 897 98 897 L98 897 Z " />
<glyph glyph-name="Idieresis" unicode="&#xcf;" horiz-adv-x="194" d="M191 820 C218 820 236 838 236 865 C236 892 218 910 191 910 C164 910 146 892 146 865 C146 838 164 820 191 820 L191 820 Z M5 820 C32 820 50 838 50 865 C50 892 32 910 5 910 C-21 910 -39 892 -39 865 C-39 838 -21 820 5 820 L5 820 Z M140 700 C140 700 137 700 137 700 C137 700 98 700 98 700 C98 700 60 700 60 700 C60 700 57 700 57 700 C57 700 57 691 57 691 C59 691 60 680 60 664 C60 664 60 36 60 36 C60 20 59 9 57 9 C57 9 57 0 57 0 C57 0 60 0 60 0 C60 0 98 0 98 0 C98 0 137 0 137 0 C137 0 140 0 140 0 C140 0 140 9 140 9 C140 9 139 9 139 9 C138 9 137 20 137 36 C137 36 137 664 137 664 C137 680 138 691 139 691 C139 691 140 691 140 691 C140 691 140 700 140 700 L140 700 Z " />
<glyph glyph-name="Ntilde" unicode="&#xd1;" horiz-adv-x="583" d="M154 820 C154 858 172 883 199 883 C259 883 315 818 375 818 C416 818 443 861 443 927 C443 927 441 927 441 927 C441 891 421 867 391 867 C331 867 275 932 215 932 C177 932 152 887 152 820 C152 820 154 820 154 820 L154 820 Z M539 700 C539 700 536 700 536 700 C536 700 524 700 524 700 C524 700 513 700 513 700 C513 700 510 700 510 700 C510 700 510 691 510 691 C512 691 513 680 513 664 C513 664 513 118 513 118 C513 118 126 700 126 700 C126 700 82 667 82 667 C82 667 82 667 82 667 C82 667 126 700 126 700 C126 700 82 700 82 700 C82 700 70 700 70 700 C70 700 59 700 59 700 C59 700 56 700 56 700 C56 700 56 691 56 691 C58 691 59 680 59 664 C59 664 59 36 59 36 C59 20 58 9 56 9 C56 9 56 0 56 0 C56 0 59 0 59 0 C59 0 70 0 70 0 C70 0 82 0 82 0 C82 0 85 0 85 0 C85 0 85 9 85 9 C83 9 82 20 82 36 C82 36 82 628 82 628 C82 628 477 35 477 35 C477 35 512 -16 512 -16 C512 -16 536 -16 536 -16 C536 -16 536 64 536 64 C536 64 536 664 536 664 C536 680 537 691 538 691 C538 691 539 691 539 691 C539 691 539 700 539 700 L539 700 Z " />
<glyph glyph-name="Ograve" unicode="&#xd2;" horiz-adv-x="788" d="M397 9 C237 9 155 166 155 350 C155 534 237 691 397 691 C557 691 639 534 639 350 C639 166 557 9 397 9 L397 9 Z M70 350 C70 156 181 -10 397 -10 C613 -10 724 156 724 350 C724 544 613 710 397 710 C181 710 70 544 70 350 L70 350 Z M392 912 C374 944 360 965 356 965 C343 965 314 944 314 935 C314 929 330 909 355 883 C355 883 470 755 470 755 C470 755 478 762 478 762 C478 762 392 912 392 912 L392 912 Z " />
<glyph glyph-name="Oacute" unicode="&#xd3;" horiz-adv-x="788" d="M373 755 C373 755 486 883 486 883 C509 910 525 930 525 935 C525 944 496 965 483 965 C480 965 466 944 448 912 C448 912 365 762 365 762 C365 762 373 755 373 755 L373 755 Z M397 9 C237 9 155 166 155 350 C155 534 237 691 397 691 C557 691 639 534 639 350 C639 166 557 9 397 9 L397 9 Z M70 350 C70 156 181 -10 397 -10 C613 -10 724 156 724 350 C724 544 613 710 397 710 C181 710 70 544 70 350 L70 350 Z " />
<glyph glyph-name="Ocircumflex" unicode="&#xd4;" horiz-adv-x="788" d="M397 9 C237 9 155 166 155 350 C155 534 237 691 397 691 C557 691 639 534 639 350 C639 166 557 9 397 9 L397 9 Z M70 350 C70 156 181 -10 397 -10 C613 -10 724 156 724 350 C724 544 613 710 397 710 C181 710 70 544 70 350 L70 350 Z M397 897 C397 897 509 757 509 757 C509 757 516 764 516 764 C516 764 420 949 420 949 C417 955 409 970 397 970 C385 970 377 955 374 949 C374 949 277 764 277 764 C277 764 285 757 285 757 C285 757 397 897 397 897 L397 897 Z " />
<glyph glyph-name="Otilde" unicode="&#xd5;" horiz-adv-x="788" d="M253 820 C253 858 271 883 299 883 C359 883 415 818 475 818 C515 818 542 861 542 927 C542 927 540 927 540 927 C540 891 520 867 491 867 C431 867 375 932 315 932 C277 932 252 887 252 820 C252 820 253 820 253 820 L253 820 Z M397 9 C237 9 155 166 155 350 C155 534 237 691 397 691 C557 691 639 534 639 350 C639 166 557 9 397 9 L397 9 Z M70 350 C70 156 181 -10 397 -10 C613 -10 724 156 724 350 C724 544 613 710 397 710 C181 710 70 544 70 350 L70 350 Z " />
<glyph glyph-name="Odieresis" unicode="&#xd6;" horiz-adv-x="788" d="M490 820 C517 820 535 838 535 865 C535 892 517 910 490 910 C463 910 445 892 445 865 C445 838 463 820 490 820 L490 820 Z M304 820 C331 820 349 838 349 865 C349 892 331 910 304 910 C277 910 259 892 259 865 C259 838 277 820 304 820 L304 820 Z M397 9 C237 9 155 166 155 350 C155 534 237 691 397 691 C557 691 639 534 639 350 C639 166 557 9 397 9 L397 9 Z M70 350 C70 156 181 -10 397 -10 C613 -10 724 156 724 350 C724 544 613 710 397 710 C181 710 70 544 70 350 L70 350 Z " />
<glyph glyph-name="Oslash" unicode="&#xd8;" horiz-adv-x="788" d="M83 -22 C83 -22 172 76 172 76 C226 23 301 -10 397 -10 C613 -10 724 156 724 350 C724 445 698 533 645 598 C645 598 736 698 736 698 C736 698 711 722 711 722 C711 722 622 624 622 624 C568 677 493 710 397 710 C181 710 70 544 70 350 C70 256 96 168 148 102 C148 102 57 2 57 2 C57 2 83 -22 83 -22 L83 -22 Z M397 9 C313 9 251 52 211 119 C211 119 600 548 600 548 C626 492 639 423 639 350 C639 166 557 9 397 9 C397 9 397 9 397 9 L397 9 Z M193 152 C168 208 155 277 155 350 C155 534 237 691 397 691 C480 691 543 648 583 581 C583 581 193 152 193 152 L193 152 Z " />
<glyph glyph-name="Ugrave" unicode="&#xd9;" horiz-adv-x="559" d="M525 700 C525 700 521 700 521 700 C521 700 509 700 509 700 C509 700 497 700 497 700 C497 700 493 700 493 700 C493 700 493 691 493 691 C493 691 494 691 494 691 C496 691 497 678 497 660 C497 660 497 201 497 201 C497 91 443 17 303 17 C179 17 131 94 131 210 C131 210 131 664 131 664 C131 664 131 685 131 685 C131 689 132 691 133 691 C133 691 134 691 134 691 C133 691 133 693 134 696 C133 698 133 700 134 700 C134 700 131 700 131 700 C131 700 92 700 92 700 C92 700 53 700 53 700 C53 700 50 700 50 700 C50 700 50 691 50 691 C50 691 51 691 51 691 C52 691 53 680 53 664 C53 664 53 225 53 225 C53 84 120 -10 292 -10 C457 -10 521 71 521 193 C521 193 521 660 521 660 C522 678 523 691 524 691 C524 691 525 691 525 691 C525 691 525 700 525 700 L525 700 Z M282 912 C264 944 250 965 246 965 C233 965 204 944 204 935 C204 929 220 909 245 883 C245 883 360 755 360 755 C360 755 368 762 368 762 C368 762 282 912 282 912 L282 912 Z " />
<glyph glyph-name="Uacute" unicode="&#xda;" horiz-adv-x="559" d="M286 755 C286 755 399 883 399 883 C422 910 438 930 438 935 C438 944 409 965 396 965 C392 965 379 944 361 912 C361 912 278 762 278 762 C278 762 286 755 286 755 L286 755 Z M525 700 C525 700 521 700 521 700 C521 700 509 700 509 700 C509 700 497 700 497 700 C497 700 493 700 493 700 C493 700 493 691 493 691 C493 691 494 691 494 691 C496 691 497 678 497 660 C497 660 497 201 497 201 C497 91 443 17 303 17 C179 17 131 94 131 210 C131 210 131 664 131 664 C131 664 131 685 131 685 C131 689 132 691 133 691 C133 691 134 691 134 691 C133 691 133 693 134 696 C133 698 133 700 134 700 C134 700 131 700 131 700 C131 700 92 700 92 700 C92 700 53 700 53 700 C53 700 50 700 50 700 C50 700 50 691 50 691 C50 691 51 691 51 691 C52 691 53 680 53 664 C53 664 53 225 53 225 C53 84 120 -10 292 -10 C457 -10 521 71 521 193 C521 193 521 660 521 660 C522 678 523 691 524 691 C524 691 525 691 525 691 C525 691 525 700 525 700 L525 700 Z " />
<glyph glyph-name="Ucircumflex" unicode="&#xdb;" horiz-adv-x="559" d="M525 700 C525 700 521 700 521 700 C521 700 509 700 509 700 C509 700 497 700 497 700 C497 700 493 700 493 700 C493 700 493 691 493 691 C493 691 494 691 494 691 C496 691 497 678 497 660 C497 660 497 201 497 201 C497 91 443 17 303 17 C179 17 131 94 131 210 C131 210 131 664 131 664 C131 664 131 685 131 685 C131 689 132 691 133 691 C133 691 134 691 134 691 C133 691 133 693 134 696 C133 698 133 700 134 700 C134 700 131 700 131 700 C131 700 92 700 92 700 C92 700 53 700 53 700 C53 700 50 700 50 700 C50 700 50 691 50 691 C50 691 51 691 51 691 C52 691 53 680 53 664 C53 664 53 225 53 225 C53 84 120 -10 292 -10 C457 -10 521 71 521 193 C521 193 521 660 521 660 C522 678 523 691 524 691 C524 691 525 691 525 691 C525 691 525 700 525 700 L525 700 Z M287 897 C287 897 399 757 399 757 C399 757 407 764 407 764 C407 764 311 949 311 949 C307 955 299 970 287 970 C276 970 267 955 264 949 C264 949 168 764 168 764 C168 764 175 757 175 757 C175 757 287 897 287 897 L287 897 Z " />
<glyph glyph-name="Udieresis" unicode="&#xdc;" horiz-adv-x="559" d="M380 820 C407 820 425 838 425 865 C425 892 407 910 380 910 C353 910 335 892 335 865 C335 838 353 820 380 820 L380 820 Z M194 820 C221 820 239 838 239 865 C239 892 221 910 194 910 C168 910 150 892 150 865 C150 838 168 820 194 820 L194 820 Z M525 700 C525 700 521 700 521 700 C521 700 509 700 509 700 C509 700 497 700 497 700 C497 700 493 700 493 700 C493 700 493 691 493 691 C493 691 494 691 494 691 C496 691 497 678 497 660 C497 660 497 201 497 201 C497 91 443 17 303 17 C179 17 131 94 131 210 C131 210 131 664 131 664 C131 664 131 685 131 685 C131 689 132 691 133 691 C133 691 134 691 134 691 C133 691 133 693 134 696 C133 698 133 700 134 700 C134 700 131 700 131 700 C131 700 92 700 92 700 C92 700 53 700 53 700 C53 700 50 700 50 700 C50 700 50 691 50 691 C50 691 51 691 51 691 C52 691 53 680 53 664 C53 664 53 225 53 225 C53 84 120 -10 292 -10 C457 -10 521 71 521 193 C521 193 521 660 521 660 C522 678 523 691 524 691 C524 691 525 691 525 691 C525 691 525 700 525 700 L525 700 Z " />
<glyph glyph-name="Yacute" unicode="&#xdd;" horiz-adv-x="560" d="M285 755 C285 755 397 883 397 883 C421 910 437 930 437 935 C437 944 408 965 395 965 C391 965 378 944 360 912 C360 912 277 762 277 762 C277 762 285 755 285 755 L285 755 Z M328 9 C328 9 327 9 327 9 C326 9 325 20 325 36 C325 36 325 317 325 317 C325 317 325 317 325 317 C325 317 519 664 519 664 C519 664 519 664 519 664 C528 680 535 691 536 691 C536 691 537 691 537 691 C537 692 539 699 539 700 C539 700 527 700 527 700 C527 700 515 700 515 700 C515 700 510 700 510 700 C510 700 510 691 510 691 C510 691 502 677 490 655 C490 655 490 655 490 655 C490 655 315 336 315 336 C315 336 145 664 145 664 C145 664 145 664 145 664 C143 668 141 672 139 675 C139 675 131 691 131 691 C131 692 131 694 130 696 C130 696 130 700 130 700 C130 700 126 700 126 700 C126 700 80 700 80 700 C80 700 33 700 33 700 C33 700 34 698 34 696 C35 693 35 691 35 691 C35 691 36 691 36 691 C37 691 41 683 48 672 C48 672 247 288 247 288 C247 288 247 36 247 36 C247 20 246 9 245 9 C245 9 244 9 244 9 C244 9 244 0 244 0 C244 0 247 0 247 0 C247 0 286 0 286 0 C286 0 325 0 325 0 C325 0 328 0 328 0 C328 0 328 9 328 9 L328 9 Z " />
<glyph glyph-name="agrave" unicode="&#xe0;" horiz-adv-x="608" d="M244 712 C226 744 212 765 208 765 C195 765 166 744 166 735 C166 729 182 709 207 683 C207 683 322 555 322 555 C322 555 330 562 330 562 C330 562 244 712 244 712 L244 712 Z M483 19 C483 19 486 20 486 20 C487 21 487 21 486 21 C487 24 487 26 486 26 C486 26 486 29 486 29 C484 43 484 50 483 73 C483 73 483 500 483 500 C483 500 463 500 463 500 C463 500 422 423 422 423 C397 472 339 510 278 510 C153 510 69 395 69 223 C69 83 141 -10 249 -10 C302 -10 364 36 410 108 C410 108 410 54 410 54 C410 54 410 0 410 0 C410 0 410 -10 410 -10 C410 -10 422 -10 422 -10 C422 -10 483 19 483 19 C483 19 483 19 483 19 L483 19 Z M410 123 C377 70 329 35 290 35 C203 35 146 121 146 251 C146 394 197 490 274 490 C336 490 392 449 410 400 C410 400 410 123 410 123 L410 123 Z " />
<glyph glyph-name="aacute" unicode="&#xe1;" horiz-adv-x="522" d="M204 555 C204 555 316 683 316 683 C340 710 356 730 356 735 C356 744 326 765 314 765 C311 765 297 744 279 712 C279 712 196 562 196 562 C196 562 204 555 204 555 L204 555 Z M486 39 C471 25 456 15 436 15 C406 15 397 44 397 87 C397 87 397 357 397 357 C397 449 345 510 268 510 C164 510 87 466 74 400 C74 400 147 400 147 400 C158 454 200 490 251 490 C293 490 320 443 320 373 C320 373 320 254 320 254 C320 254 221 240 221 240 C119 225 50 170 50 103 C50 35 97 -10 167 -10 C217 -10 275 15 321 56 C325 9 342 -20 386 -20 C432 -20 465 0 494 30 C494 30 486 39 486 39 L486 39 Z M320 237 C320 237 320 79 320 79 C320 77 320 75 320 73 C287 52 245 39 203 39 C155 39 123 73 123 124 C123 169 162 206 221 218 C221 218 320 237 320 237 L320 237 Z " />
<glyph glyph-name="acircumflex" unicode="&#xe2;" horiz-adv-x="608" d="M249 697 C249 697 361 557 361 557 C361 557 369 564 369 564 C369 564 273 749 273 749 C269 755 261 770 249 770 C238 770 229 755 226 749 C226 749 130 564 130 564 C130 564 137 557 137 557 C137 557 249 697 249 697 L249 697 Z M483 19 C483 19 486 20 486 20 C487 21 487 21 486 21 C487 24 487 26 486 26 C486 26 486 29 486 29 C484 43 484 50 483 73 C483 73 483 500 483 500 C483 500 463 500 463 500 C463 500 422 423 422 423 C397 472 339 510 278 510 C153 510 69 395 69 223 C69 83 141 -10 249 -10 C302 -10 364 36 410 108 C410 108 410 54 410 54 C410 54 410 0 410 0 C410 0 410 -10 410 -10 C410 -10 422 -10 422 -10 C422 -10 483 19 483 19 C483 19 483 19 483 19 L483 19 Z M410 123 C377 70 329 35 290 35 C203 35 146 121 146 251 C146 394 197 490 274 490 C336 490 392 449 410 400 C410 400 410 123 410 123 L410 123 Z " />
<glyph glyph-name="atilde" unicode="&#xe3;" horiz-adv-x="608" d="M106 620 C106 658 124 683 151 683 C211 683 267 618 327 618 C368 618 395 661 395 727 C395 727 393 727 393 727 C393 691 373 667 343 667 C283 667 227 732 167 732 C129 732 104 687 104 620 C104 620 106 620 106 620 L106 620 Z M483 19 C483 19 486 20 486 20 C487 21 487 21 486 21 C487 24 487 26 486 26 C486 26 486 29 486 29 C484 43 484 50 483 73 C483 73 483 500 483 500 C483 500 463 500 463 500 C463 500 422 423 422 423 C397 472 339 510 278 510 C153 510 69 395 69 223 C69 83 141 -10 249 -10 C302 -10 364 36 410 108 C410 108 410 54 410 54 C410 54 410 0 410 0 C410 0 410 -10 410 -10 C410 -10 422 -10 422 -10 C422 -10 483 19 483 19 C483 19 483 19 483 19 L483 19 Z M410 123 C377 70 329 35 290 35 C203 35 146 121 146 251 C146 394 197 490 274 490 C336 490 392 449 410 400 C410 400 410 123 410 123 L410 123 Z " />
<glyph glyph-name="adieresis" unicode="&#xe4;" horiz-adv-x="608" d="M342 620 C369 620 387 638 387 665 C387 692 369 710 342 710 C315 710 297 692 297 665 C297 638 315 620 342 620 L342 620 Z M156 620 C183 620 201 638 201 665 C201 692 183 710 156 710 C130 710 112 692 112 665 C112 638 130 620 156 620 L156 620 Z M483 19 C483 19 486 20 486 20 C487 21 487 21 486 21 C487 24 487 26 486 26 C486 26 486 29 486 29 C484 43 484 50 483 73 C483 73 483 500 483 500 C483 500 463 500 463 500 C463 500 422 423 422 423 C397 472 339 510 278 510 C153 510 69 395 69 223 C69 83 141 -10 249 -10 C302 -10 364 36 410 108 C410 108 410 54 410 54 C410 54 410 0 410 0 C410 0 410 -10 410 -10 C410 -10 422 -10 422 -10 C422 -10 483 19 483 19 C483 19 483 19 483 19 L483 19 Z M410 123 C377 70 329 35 290 35 C203 35 146 121 146 251 C146 394 197 490 274 490 C336 490 392 449 410 400 C410 400 410 123 410 123 L410 123 Z " />
<glyph glyph-name="aring" unicode="&#xe5;" horiz-adv-x="608" d="M249 576 C208 576 172 612 172 655 C172 702 203 734 249 734 C295 734 326 702 326 655 C326 612 291 576 249 576 L249 576 Z M152 655 C152 604 197 560 249 560 C301 560 346 604 346 655 C346 712 307 750 249 750 C191 750 152 712 152 655 L152 655 Z M483 19 C483 19 486 20 486 20 C487 21 487 21 486 21 C487 24 487 26 486 26 C486 26 486 29 486 29 C484 43 484 50 483 73 C483 73 483 500 483 500 C483 500 463 500 463 500 C463 500 422 423 422 423 C397 472 339 510 278 510 C153 510 69 395 69 223 C69 83 141 -10 249 -10 C302 -10 364 36 410 108 C410 108 410 54 410 54 C410 54 410 0 410 0 C410 0 410 -10 410 -10 C410 -10 422 -10 422 -10 C422 -10 483 19 483 19 C483 19 483 19 483 19 L483 19 Z M410 123 C377 70 329 35 290 35 C203 35 146 121 146 251 C146 394 197 490 274 490 C336 490 392 449 410 400 C410 400 410 123 410 123 L410 123 Z " />
<glyph glyph-name="ccedilla" unicode="&#xe7;" horiz-adv-x="521" d="M455 59 C455 59 448 68 448 68 C425 47 374 34 321 34 C214 34 142 125 142 261 C142 398 207 490 306 490 C350 490 383 456 388 404 C390 382 404 368 424 368 C444 368 457 381 457 400 C451 466 394 510 314 510 C165 510 65 399 65 233 C65 87 143 -10 260 -10 C328 -10 406 18 455 59 L455 59 Z " />
<glyph glyph-name="egrave" unicode="&#xe8;" horiz-adv-x="527" d="M462 59 C462 59 455 68 455 68 C432 47 379 34 324 34 C215 34 142 125 142 261 C142 281 143 301 146 319 C146 319 463 319 463 319 C463 434 392 510 286 510 C153 510 65 399 65 233 C65 87 144 -10 263 -10 C333 -10 412 18 462 59 L462 59 Z M281 712 C263 744 249 765 245 765 C232 765 203 744 203 735 C203 729 219 709 244 683 C244 683 359 555 359 555 C359 555 367 562 367 562 C367 562 281 712 281 712 L281 712 Z M148 333 C164 429 214 490 282 490 C350 490 395 446 395 380 C395 379 395 378 395 378 C394 360 382 347 365 344 C365 344 148 333 148 333 L148 333 Z M361 344 C361 344 360 344 360 344 C360 344 361 344 361 344 L361 344 Z " />
<glyph glyph-name="eacute" unicode="&#xe9;" horiz-adv-x="527" d="M255 555 C255 555 367 683 367 683 C391 710 407 730 406 735 C406 744 377 765 365 765 C361 765 348 744 330 712 C330 712 247 562 247 562 C247 562 255 555 255 555 L255 555 Z M462 59 C462 59 455 68 455 68 C432 47 379 34 324 34 C215 34 142 125 142 261 C142 281 143 301 146 319 C146 319 463 319 463 319 C463 434 392 510 286 510 C153 510 65 399 65 233 C65 87 144 -10 263 -10 C333 -10 412 18 462 59 L462 59 Z M148 333 C164 429 214 490 282 490 C350 490 395 446 395 380 C395 379 395 378 395 378 C394 360 382 347 365 344 C365 344 148 333 148 333 L148 333 Z M361 344 C361 344 360 344 360 344 C360 344 361 344 361 344 L361 344 Z " />
<glyph glyph-name="ecircumflex" unicode="&#xea;" horiz-adv-x="527" d="M462 59 C462 59 455 68 455 68 C432 47 379 34 324 34 C215 34 142 125 142 261 C142 281 143 301 146 319 C146 319 463 319 463 319 C463 434 392 510 286 510 C153 510 65 399 65 233 C65 87 144 -10 263 -10 C333 -10 412 18 462 59 L462 59 Z M286 697 C286 697 398 557 398 557 C398 557 406 564 406 564 C406 564 309 749 309 749 C306 755 298 770 286 770 C274 770 266 755 263 749 C263 749 167 564 167 564 C167 564 174 557 174 557 C174 557 286 697 286 697 L286 697 Z M148 333 C164 429 214 490 282 490 C350 490 395 446 395 380 C395 379 395 378 395 378 C394 360 382 347 365 344 C365 344 148 333 148 333 L148 333 Z M361 344 C361 344 360 344 360 344 C360 344 361 344 361 344 L361 344 Z " />
<glyph glyph-name="edieresis" unicode="&#xeb;" horiz-adv-x="527" d="M379 620 C406 620 424 638 424 665 C424 692 406 710 379 710 C352 710 334 692 334 665 C334 638 352 620 379 620 L379 620 Z M193 620 C220 620 238 638 238 665 C238 692 220 710 193 710 C166 710 148 692 148 665 C148 638 166 620 193 620 L193 620 Z M462 59 C462 59 455 68 455 68 C432 47 379 34 324 34 C215 34 142 125 142 261 C142 281 143 301 146 319 C146 319 463 319 463 319 C463 434 392 510 286 510 C153 510 65 399 65 233 C65 87 144 -10 263 -10 C333 -10 412 18 462 59 L462 59 Z M148 333 C164 429 214 490 282 490 C350 490 395 446 395 380 C395 379 395 378 395 378 C394 360 382 347 365 344 C365 344 148 333 148 333 L148 333 Z M361 344 C361 344 360 344 360 344 C360 344 361 344 361 344 L361 344 Z " />
<glyph glyph-name="igrave" unicode="&#xec;" horiz-adv-x="198" d="M136 0 C136 0 139 0 139 0 C139 0 139 9 139 9 C139 9 138 9 138 9 C137 9 136 8 136 0 C136 0 136 464 136 464 C136 464 136 510 136 510 C136 510 132 510 132 510 C132 510 60 488 60 488 C60 488 60 480 60 480 C60 480 62 459 62 459 C63 454 63 449 63 443 C63 443 63 0 63 0 C63 0 60 0 60 0 C60 0 60 9 60 9 C62 9 63 8 63 0 C63 0 136 0 136 0 L136 0 Z M94 712 C76 744 62 765 58 765 C45 765 16 744 16 735 C16 729 32 709 57 683 C57 683 172 555 172 555 C172 555 180 562 180 562 C180 562 94 712 94 712 L94 712 Z " />
<glyph glyph-name="iacute" unicode="&#xed;" horiz-adv-x="198" d="M22 555 C22 555 135 683 135 683 C158 710 174 730 174 735 C174 744 145 765 132 765 C129 765 115 744 97 712 C97 712 14 562 14 562 C14 562 22 555 22 555 L22 555 Z M136 0 C136 0 139 0 139 0 C139 0 139 9 139 9 C139 9 138 9 138 9 C137 9 136 8 136 0 C136 0 136 464 136 464 C136 464 136 510 136 510 C136 510 132 510 132 510 C132 510 60 488 60 488 C60 488 60 480 60 480 C60 480 62 459 62 459 C63 454 63 449 63 443 C63 443 63 0 63 0 C63 0 60 0 60 0 C60 0 60 9 60 9 C62 9 63 8 63 0 C63 0 136 0 136 0 L136 0 Z " />
<glyph glyph-name="icircumflex" unicode="&#xee;" horiz-adv-x="198" d="M136 0 C136 0 139 0 139 0 C139 0 139 9 139 9 C139 9 138 9 138 9 C137 9 136 8 136 0 C136 0 136 464 136 464 C136 464 136 510 136 510 C136 510 132 510 132 510 C132 510 60 488 60 488 C60 488 60 480 60 480 C60 480 62 459 62 459 C63 454 63 449 63 443 C63 443 63 0 63 0 C63 0 60 0 60 0 C60 0 60 9 60 9 C62 9 63 8 63 0 C63 0 136 0 136 0 L136 0 Z M76 726 C76 726 99 697 99 697 C99 697 76 726 76 726 L76 726 Z M99 697 C99 697 211 557 211 557 C211 557 219 564 219 564 C219 564 123 749 123 749 C119 755 111 770 99 770 C88 770 79 755 76 749 C76 749 -20 564 -20 564 C-20 564 -13 557 -13 557 C-13 557 99 697 99 697 L99 697 Z " />
<glyph glyph-name="idieresis" unicode="&#xef;" horiz-adv-x="198" d="M192 620 C219 620 237 638 237 665 C237 692 219 710 192 710 C165 710 147 692 147 665 C147 638 165 620 192 620 L192 620 Z M6 620 C33 620 51 638 51 665 C51 692 33 710 6 710 C-20 710 -38 692 -38 665 C-38 638 -20 620 6 620 L6 620 Z M136 0 C136 0 139 0 139 0 C139 0 139 9 139 9 C139 9 138 9 138 9 C137 9 136 8 136 0 C136 0 136 464 136 464 C136 464 136 510 136 510 C136 510 132 510 132 510 C132 510 60 488 60 488 C60 488 60 480 60 480 C60 480 62 459 62 459 C63 454 63 449 63 443 C63 443 63 0 63 0 C63 0 60 0 60 0 C60 0 60 9 60 9 C62 9 63 8 63 0 C63 0 136 0 136 0 L136 0 Z " />
<glyph glyph-name="ntilde" unicode="&#xf1;" horiz-adv-x="511" d="M114 620 C114 658 132 683 160 683 C220 683 276 618 336 618 C376 618 403 661 403 727 C403 727 401 727 401 727 C401 691 381 667 352 667 C292 667 236 732 176 732 C137 732 112 687 112 620 C112 620 114 620 114 620 L114 620 Z M377 0 C377 0 380 0 380 0 C380 0 417 0 417 0 C417 0 453 0 453 0 C453 0 456 0 456 0 C457 0 457 2 456 4 C457 7 457 9 456 9 C455 9 454 20 453 36 C453 36 453 337 453 337 C454 441 420 510 333 510 C296 510 218 482 135 438 C135 438 135 445 135 445 C135 445 131 445 131 445 C131 445 135 446 135 446 C135 446 135 500 135 500 C135 500 121 500 121 500 C121 500 59 480 59 480 C59 480 59 474 59 474 C62 464 62 457 62 445 C62 445 62 445 62 445 C62 445 62 427 62 427 C62 427 62 36 62 36 C62 20 61 9 60 9 C60 9 59 9 59 9 C59 9 59 0 59 0 C59 0 62 0 62 0 C62 0 99 0 99 0 C99 0 135 0 135 0 C135 0 138 0 138 0 C139 0 139 2 138 4 C139 7 139 9 138 9 C137 9 136 20 135 36 C135 36 135 430 135 430 C175 449 229 461 276 461 C351 461 380 408 380 329 C380 329 380 36 380 36 C380 20 379 9 378 9 C378 9 377 9 377 9 C377 9 377 0 377 0 L377 0 Z " />
<glyph glyph-name="ograve" unicode="&#xf2;" horiz-adv-x="624" d="M312 6 C212 6 146 104 146 250 C146 396 212 494 312 494 C412 494 479 396 479 250 C479 104 412 6 312 6 L312 6 Z M65 250 C65 94 164 -10 312 -10 C461 -10 560 94 560 250 C560 406 461 510 312 510 C164 510 65 406 65 250 L65 250 Z M307 712 C289 744 275 765 271 765 C258 765 229 744 229 735 C229 729 245 709 270 683 C270 683 385 555 385 555 C385 555 393 562 393 562 C393 562 307 712 307 712 L307 712 Z " />
<glyph glyph-name="oacute" unicode="&#xf3;" horiz-adv-x="624" d="M281 555 C281 555 393 683 393 683 C417 710 433 730 433 735 C433 744 403 765 391 765 C387 765 374 744 356 712 C356 712 273 562 273 562 C273 562 281 555 281 555 L281 555 Z M312 6 C212 6 146 104 146 250 C146 396 212 494 312 494 C412 494 479 396 479 250 C479 104 412 6 312 6 L312 6 Z M65 250 C65 94 164 -10 312 -10 C461 -10 560 94 560 250 C560 406 461 510 312 510 C164 510 65 406 65 250 L65 250 Z " />
<glyph glyph-name="ocircumflex" unicode="&#xf4;" horiz-adv-x="624" d="M312 6 C212 6 146 104 146 250 C146 396 212 494 312 494 C412 494 479 396 479 250 C479 104 412 6 312 6 L312 6 Z M65 250 C65 94 164 -10 312 -10 C461 -10 560 94 560 250 C560 406 461 510 312 510 C164 510 65 406 65 250 L65 250 Z M312 697 C312 697 424 557 424 557 C424 557 432 564 432 564 C432 564 336 749 336 749 C332 755 324 770 312 770 C301 770 292 755 289 749 C289 749 193 564 193 564 C193 564 200 557 200 557 C200 557 312 697 312 697 L312 697 Z " />
<glyph glyph-name="otilde" unicode="&#xf5;" horiz-adv-x="624" d="M169 620 C169 658 187 683 214 683 C274 683 330 618 390 618 C431 618 458 661 458 727 C458 727 456 727 456 727 C456 691 436 667 406 667 C346 667 290 732 230 732 C192 732 167 687 167 620 C167 620 169 620 169 620 L169 620 Z M312 6 C212 6 146 104 146 250 C146 396 212 494 312 494 C412 494 479 396 479 250 C479 104 412 6 312 6 L312 6 Z M65 250 C65 94 164 -10 312 -10 C461 -10 560 94 560 250 C560 406 461 510 312 510 C164 510 65 406 65 250 L65 250 Z " />
<glyph glyph-name="odieresis" unicode="&#xf6;" horiz-adv-x="624" d="M405 620 C432 620 450 638 450 665 C450 692 432 710 405 710 C378 710 360 692 360 665 C360 638 378 620 405 620 L405 620 Z M219 620 C246 620 264 638 264 665 C264 692 246 710 219 710 C193 710 175 692 175 665 C175 638 193 620 219 620 L219 620 Z M312 6 C212 6 146 104 146 250 C146 396 212 494 312 494 C412 494 479 396 479 250 C479 104 412 6 312 6 L312 6 Z M65 250 C65 94 164 -10 312 -10 C461 -10 560 94 560 250 C560 406 461 510 312 510 C164 510 65 406 65 250 L65 250 Z " />
<glyph glyph-name="oslash" unicode="&#xf8;" horiz-adv-x="624" d="M73 -18 C73 -18 141 53 141 53 C184 13 243 -10 312 -10 C461 -10 560 94 560 250 C560 323 538 385 500 430 C500 430 569 502 569 502 C569 502 551 518 551 518 C551 518 483 447 483 447 C441 487 382 510 312 510 C164 510 65 406 65 250 C65 177 87 115 125 70 C125 70 56 -2 56 -2 C56 -2 73 -18 73 -18 L73 -18 Z M312 6 C255 6 208 38 179 94 C179 94 456 383 456 383 C471 346 479 301 479 250 C479 104 412 6 312 6 C312 6 312 6 312 6 L312 6 Z M169 117 C154 154 146 199 146 250 C146 396 212 494 312 494 C369 494 416 462 445 407 C445 407 169 117 169 117 L169 117 Z " />
<glyph glyph-name="ugrave" unicode="&#xf9;" horiz-adv-x="476" d="M347 491 C347 491 348 491 348 491 C349 491 350 480 350 464 C350 464 350 66 350 66 C330 49 294 38 234 38 C149 38 105 88 105 163 C105 163 105 500 105 500 C105 500 69 500 69 500 C69 500 32 500 32 500 C32 500 29 500 29 500 C29 500 29 491 29 491 C29 491 30 491 30 491 C31 491 32 480 32 464 C32 464 32 155 32 155 C32 56 81 -10 177 -10 C249 -10 307 15 350 54 C350 54 350 54 350 54 C350 54 350 19 350 19 C350 19 350 0 350 0 C350 0 365 0 365 0 C365 0 423 19 423 19 C423 19 423 19 423 19 C423 19 423 19 423 19 C423 19 426 20 426 20 C427 21 427 21 426 21 C427 24 427 26 426 26 C426 26 426 29 426 29 C424 43 424 50 423 73 C423 73 423 500 423 500 C423 500 387 500 387 500 C387 500 350 500 350 500 C350 500 347 500 347 500 C347 500 347 491 347 491 L347 491 Z M223 712 C205 744 191 765 187 765 C174 765 145 744 145 735 C145 729 161 709 185 683 C185 683 301 555 301 555 C301 555 309 562 309 562 C309 562 223 712 223 712 L223 712 Z " />
<glyph glyph-name="uacute" unicode="&#xfa;" horiz-adv-x="476" d="M197 555 C197 555 309 683 309 683 C333 710 349 730 348 735 C348 744 319 765 306 765 C303 765 290 744 271 712 C271 712 188 562 188 562 C188 562 197 555 197 555 L197 555 Z M347 491 C347 491 348 491 348 491 C349 491 350 480 350 464 C350 464 350 66 350 66 C330 49 294 38 234 38 C149 38 105 88 105 163 C105 163 105 500 105 500 C105 500 69 500 69 500 C69 500 32 500 32 500 C32 500 29 500 29 500 C29 500 29 491 29 491 C29 491 30 491 30 491 C31 491 32 480 32 464 C32 464 32 155 32 155 C32 56 81 -10 177 -10 C249 -10 307 15 350 54 C350 54 350 54 350 54 C350 54 350 19 350 19 C350 19 350 0 350 0 C350 0 365 0 365 0 C365 0 423 19 423 19 C423 19 423 19 423 19 C423 19 423 19 423 19 C423 19 426 20 426 20 C427 21 427 21 426 21 C427 24 427 26 426 26 C426 26 426 29 426 29 C424 43 424 50 423 73 C423 73 423 500 423 500 C423 500 387 500 387 500 C387 500 350 500 350 500 C350 500 347 500 347 500 C347 500 347 491 347 491 L347 491 Z " />
<glyph glyph-name="ucircumflex" unicode="&#xfb;" horiz-adv-x="476" d="M347 491 C347 491 348 491 348 491 C349 491 350 480 350 464 C350 464 350 66 350 66 C330 49 294 38 234 38 C149 38 105 88 105 163 C105 163 105 500 105 500 C105 500 69 500 69 500 C69 500 32 500 32 500 C32 500 29 500 29 500 C29 500 29 491 29 491 C29 491 30 491 30 491 C31 491 32 480 32 464 C32 464 32 155 32 155 C32 56 81 -10 177 -10 C249 -10 307 15 350 54 C350 54 350 54 350 54 C350 54 350 19 350 19 C350 19 350 0 350 0 C350 0 365 0 365 0 C365 0 423 19 423 19 C423 19 423 19 423 19 C423 19 423 19 423 19 C423 19 426 20 426 20 C427 21 427 21 426 21 C427 24 427 26 426 26 C426 26 426 29 426 29 C424 43 424 50 423 73 C423 73 423 500 423 500 C423 500 387 500 387 500 C387 500 350 500 350 500 C350 500 347 500 347 500 C347 500 347 491 347 491 L347 491 Z M228 697 C228 697 340 557 340 557 C340 557 347 564 347 564 C347 564 251 749 251 749 C248 755 239 770 228 770 C216 770 208 755 205 749 C205 749 108 564 108 564 C108 564 116 557 116 557 C116 557 228 697 228 697 L228 697 Z " />
<glyph glyph-name="udieresis" unicode="&#xfc;" horiz-adv-x="476" d="M321 620 C348 620 366 638 366 665 C366 692 348 710 321 710 C294 710 276 692 276 665 C276 638 294 620 321 620 L321 620 Z M135 620 C162 620 180 638 180 665 C180 692 162 710 135 710 C108 710 90 692 90 665 C90 638 108 620 135 620 L135 620 Z M347 491 C347 491 348 491 348 491 C349 491 350 480 350 464 C350 464 350 66 350 66 C330 49 294 38 234 38 C149 38 105 88 105 163 C105 163 105 500 105 500 C105 500 69 500 69 500 C69 500 32 500 32 500 C32 500 29 500 29 500 C29 500 29 491 29 491 C29 491 30 491 30 491 C31 491 32 480 32 464 C32 464 32 155 32 155 C32 56 81 -10 177 -10 C249 -10 307 15 350 54 C350 54 350 54 350 54 C350 54 350 19 350 19 C350 19 350 0 350 0 C350 0 365 0 365 0 C365 0 423 19 423 19 C423 19 423 19 423 19 C423 19 423 19 423 19 C423 19 426 20 426 20 C427 21 427 21 426 21 C427 24 427 26 426 26 C426 26 426 29 426 29 C424 43 424 50 423 73 C423 73 423 500 423 500 C423 500 387 500 387 500 C387 500 350 500 350 500 C350 500 347 500 347 500 C347 500 347 491 347 491 L347 491 Z " />
<glyph glyph-name="ydieresis" unicode="&#xff;" horiz-adv-x="382" d="M310 620 C337 620 355 638 355 665 C355 692 337 710 310 710 C283 710 265 692 265 665 C265 638 283 620 310 620 L310 620 Z M124 620 C151 620 169 638 169 665 C169 692 151 710 124 710 C97 710 79 692 79 665 C79 638 97 620 124 620 L124 620 Z M22 464 C22 464 22 464 22 464 C22 464 208 -10 208 -10 C208 -10 185 -65 185 -65 C147 -164 120 -202 88 -202 C63 -202 38 -177 13 -177 C-9 -177 -24 -190 -24 -208 C-24 -233 3 -250 43 -250 C109 -250 154 -200 204 -72 C204 -72 224 -20 224 -20 C224 -20 419 480 419 480 C422 487 425 491 426 491 C426 491 426 496 426 496 C426 497 426 497 426 497 C426 497 427 500 427 500 C427 500 414 500 414 500 C414 500 402 500 402 500 C402 500 399 500 399 500 C399 500 399 492 399 492 C399 492 246 73 246 73 C246 73 104 464 104 464 C104 464 105 464 105 464 C99 480 95 491 95 491 C95 491 95 496 95 496 C95 498 95 500 94 500 C94 500 91 500 91 500 C91 500 50 500 50 500 C50 500 8 500 8 500 C7 500 7 498 8 496 C8 496 8 491 8 491 C10 491 15 480 22 464 C22 464 22 464 22 464 L22 464 Z " />
<glyph glyph-name="Amacron" unicode="&#x100;" horiz-adv-x="574" d="M119 832 C119 832 419 832 419 832 C419 832 419 873 419 873 C419 873 119 873 119 873 C119 873 119 832 119 832 L119 832 Z M545 9 C545 9 544 9 544 9 C541 9 535 20 529 36 C529 36 529 36 529 36 C529 36 278 716 278 716 C278 716 259 716 259 716 C259 716 35 32 35 32 C29 18 26 9 24 9 C24 9 24 0 24 0 C24 0 37 0 37 0 C37 0 49 0 49 0 C49 0 54 0 54 0 C54 0 54 9 54 9 C54 9 53 9 53 9 C53 9 56 22 63 43 C63 43 63 43 63 43 C63 43 129 250 129 250 C129 250 370 250 370 250 C370 250 445 36 445 36 C445 36 445 36 445 36 C451 20 454 9 454 9 C454 9 455 9 455 9 C455 9 457 3 457 3 C457 3 457 0 457 0 C457 0 458 0 458 0 C458 0 500 0 500 0 C500 0 542 0 542 0 C542 0 545 0 545 0 C545 0 545 9 545 9 L545 9 Z M364 269 C364 269 135 269 135 269 C135 269 244 610 244 610 C244 610 364 269 364 269 L364 269 Z " />
<glyph glyph-name="amacron" unicode="&#x101;" horiz-adv-x="608" d="M99 632 C99 632 399 632 399 632 C399 632 399 673 399 673 C399 673 99 673 99 673 C99 673 99 632 99 632 L99 632 Z M483 19 C483 19 486 20 486 20 C487 21 487 21 486 21 C487 24 487 26 486 26 C486 26 486 29 486 29 C484 43 484 50 483 73 C483 73 483 500 483 500 C483 500 463 500 463 500 C463 500 422 423 422 423 C397 472 339 510 278 510 C153 510 69 395 69 223 C69 83 141 -10 249 -10 C302 -10 364 36 410 108 C410 108 410 54 410 54 C410 54 410 0 410 0 C410 0 410 -10 410 -10 C410 -10 422 -10 422 -10 C422 -10 483 19 483 19 C483 19 483 19 483 19 L483 19 Z M410 123 C377 70 329 35 290 35 C203 35 146 121 146 251 C146 394 197 490 274 490 C336 490 392 449 410 400 C410 400 410 123 410 123 L410 123 Z " />
<glyph glyph-name="Abreve" unicode="&#x102;" horiz-adv-x="574" d="M147 936 C166 864 215 816 269 816 C323 816 371 864 390 936 C390 936 377 939 377 939 C366 895 322 865 269 865 C215 865 171 895 160 939 C160 939 147 936 147 936 L147 936 Z M545 9 C545 9 544 9 544 9 C541 9 535 20 529 36 C529 36 529 36 529 36 C529 36 278 716 278 716 C278 716 259 716 259 716 C259 716 35 32 35 32 C29 18 26 9 24 9 C24 9 24 0 24 0 C24 0 37 0 37 0 C37 0 49 0 49 0 C49 0 54 0 54 0 C54 0 54 9 54 9 C54 9 53 9 53 9 C53 9 56 22 63 43 C63 43 63 43 63 43 C63 43 129 250 129 250 C129 250 370 250 370 250 C370 250 445 36 445 36 C445 36 445 36 445 36 C451 20 454 9 454 9 C454 9 455 9 455 9 C455 9 457 3 457 3 C457 3 457 0 457 0 C457 0 458 0 458 0 C458 0 500 0 500 0 C500 0 542 0 542 0 C542 0 545 0 545 0 C545 0 545 9 545 9 L545 9 Z M364 269 C364 269 135 269 135 269 C135 269 244 610 244 610 C244 610 364 269 364 269 L364 269 Z " />
<glyph glyph-name="abreve" unicode="&#x103;" horiz-adv-x="608" d="M128 686 C147 614 195 566 249 566 C303 566 352 614 371 686 C371 686 358 689 358 689 C347 645 303 615 249 615 C196 615 152 645 140 689 C140 689 128 686 128 686 L128 686 Z M483 19 C483 19 486 20 486 20 C487 21 487 21 486 21 C487 24 487 26 486 26 C486 26 486 29 486 29 C484 43 484 50 483 73 C483 73 483 500 483 500 C483 500 463 500 463 500 C463 500 422 423 422 423 C397 472 339 510 278 510 C153 510 69 395 69 223 C69 83 141 -10 249 -10 C302 -10 364 36 410 108 C410 108 410 54 410 54 C410 54 410 0 410 0 C410 0 410 -10 410 -10 C410 -10 422 -10 422 -10 C422 -10 483 19 483 19 C483 19 483 19 483 19 L483 19 Z M410 123 C377 70 329 35 290 35 C203 35 146 121 146 251 C146 394 197 490 274 490 C336 490 392 449 410 400 C410 400 410 123 410 123 L410 123 Z " />
<glyph glyph-name="Aogonek" unicode="&#x104;" horiz-adv-x="574" d="M545 9 C545 9 544 9 544 9 C541 9 535 20 529 36 C529 36 529 36 529 36 C529 36 278 716 278 716 C278 716 259 716 259 716 C259 716 35 32 35 32 C29 18 26 9 24 9 C24 9 24 0 24 0 C24 0 37 0 37 0 C37 0 49 0 49 0 C49 0 54 0 54 0 C54 0 54 9 54 9 C54 9 53 9 53 9 C53 9 56 22 63 43 C63 43 63 43 63 43 C63 43 129 250 129 250 C129 250 370 250 370 250 C370 250 445 36 445 36 C445 36 445 36 445 36 C451 20 454 9 454 9 C454 9 455 9 455 9 C455 9 457 3 457 3 C457 3 457 2 457 2 C410 -15 305 -97 305 -162 C305 -203 353 -231 425 -231 C454 -231 484 -217 502 -196 C502 -196 501 -195 501 -195 C485 -215 455 -228 427 -228 C380 -228 349 -198 349 -154 C349 -86 425 -12 458 0 C458 0 500 0 500 0 C500 0 542 0 542 0 C542 0 545 0 545 0 C545 0 545 9 545 9 L545 9 Z M364 269 C364 269 135 269 135 269 C135 269 244 610 244 610 C244 610 364 269 364 269 L364 269 Z " />
<glyph glyph-name="aogonek" unicode="&#x105;" horiz-adv-x="522" d="M320 237 C320 237 320 79 320 79 C320 77 320 75 320 73 C287 52 245 39 203 39 C155 39 123 73 123 124 C123 169 162 206 221 218 C221 218 320 237 320 237 L320 237 Z M320 254 C320 254 221 240 221 240 C119 225 50 170 50 103 C50 35 97 -10 167 -10 C217 -10 275 15 321 56 C325 9 342 -20 386 -20 C398 -20 410 -19 420 -16 C379 -51 340 -99 340 -142 C340 -195 388 -231 460 -231 C489 -231 520 -217 537 -196 C537 -196 537 -195 537 -195 C520 -215 491 -228 463 -228 C416 -228 385 -190 385 -134 C385 -87 416 -39 446 -6 C464 2 479 15 494 30 C494 30 494 32 494 32 C494 32 493 32 493 31 C493 31 486 39 486 39 C471 25 456 15 436 15 C406 15 397 44 397 87 C397 87 397 357 397 357 C397 449 345 510 268 510 C164 510 87 466 74 400 C74 400 147 400 147 400 C158 454 200 490 251 490 C293 490 320 443 320 373 C320 373 320 254 320 254 L320 254 Z " />
<glyph glyph-name="Cacute" unicode="&#x106;" horiz-adv-x="742" d="M360 755 C360 755 473 883 473 883 C497 910 512 930 512 935 C512 944 483 965 470 965 C467 965 453 944 435 912 C435 912 352 762 352 762 C352 762 360 755 360 755 L360 755 Z M668 622 C668 622 668 644 668 644 C600 684 495 710 407 710 C205 710 70 566 70 350 C70 134 205 -10 407 -10 C495 -10 600 16 668 56 C668 56 668 78 668 78 C668 78 660 78 660 78 C658 77 655 75 653 73 C637 63 616 52 594 44 C535 22 467 9 407 9 C256 9 155 145 155 350 C155 555 256 691 407 691 C469 691 540 677 600 654 C618 646 638 636 653 627 C655 625 658 623 660 622 C660 622 668 622 668 622 L668 622 Z " />
<glyph glyph-name="cacute" unicode="&#x107;" horiz-adv-x="521" d="M237 555 C237 555 349 683 349 683 C373 710 389 730 389 735 C389 744 360 765 347 765 C343 765 330 744 312 712 C312 712 229 562 229 562 C229 562 237 555 237 555 L237 555 Z M455 59 C455 59 448 68 448 68 C425 47 374 34 321 34 C214 34 142 125 142 261 C142 398 207 490 306 490 C350 490 383 456 388 404 C390 382 404 368 424 368 C444 368 457 381 457 400 C451 466 394 510 314 510 C165 510 65 399 65 233 C65 87 143 -10 260 -10 C328 -10 406 18 455 59 L455 59 Z " />
<glyph glyph-name="Ccircumflex" unicode="&#x108;" horiz-adv-x="742" d="M668 622 C668 622 668 644 668 644 C600 684 495 710 407 710 C205 710 70 566 70 350 C70 134 205 -10 407 -10 C495 -10 600 16 668 56 C668 56 668 78 668 78 C668 78 660 78 660 78 C658 77 655 75 653 73 C637 63 616 52 594 44 C535 22 467 9 407 9 C256 9 155 145 155 350 C155 555 256 691 407 691 C469 691 540 677 600 654 C618 646 638 636 653 627 C655 625 658 623 660 622 C660 622 668 622 668 622 L668 622 Z M407 897 C407 897 519 757 519 757 C519 757 526 764 526 764 C526 764 430 949 430 949 C427 955 419 970 407 970 C395 970 387 955 384 949 C384 949 287 764 287 764 C287 764 295 757 295 757 C295 757 407 897 407 897 L407 897 Z " />
<glyph glyph-name="Cdotaccent" unicode="&#x10a;" horiz-adv-x="742" d="M407 820 C434 820 452 838 452 865 C452 892 434 910 407 910 C380 910 362 892 362 865 C362 838 380 820 407 820 L407 820 Z M668 622 C668 622 668 644 668 644 C600 684 495 710 407 710 C205 710 70 566 70 350 C70 134 205 -10 407 -10 C495 -10 600 16 668 56 C668 56 668 78 668 78 C668 78 660 78 660 78 C658 77 655 75 653 73 C637 63 616 52 594 44 C535 22 467 9 407 9 C256 9 155 145 155 350 C155 555 256 691 407 691 C469 691 540 677 600 654 C618 646 638 636 653 627 C655 625 658 623 660 622 C660 622 668 622 668 622 L668 622 Z " />
<glyph glyph-name="cdotaccent" unicode="&#x10b;" horiz-adv-x="521" d="M314 620 C341 620 359 638 359 665 C359 692 341 710 314 710 C287 710 269 692 269 665 C269 638 287 620 314 620 L314 620 Z M455 59 C455 59 448 68 448 68 C425 47 374 34 321 34 C214 34 142 125 142 261 C142 398 207 490 306 490 C350 490 383 456 388 404 C390 382 404 368 424 368 C444 368 457 381 457 400 C451 466 394 510 314 510 C165 510 65 399 65 233 C65 87 143 -10 260 -10 C328 -10 406 18 455 59 L455 59 Z " />
<glyph glyph-name="Ccaron" unicode="&#x10c;" horiz-adv-x="742" d="M668 622 C668 622 668 644 668 644 C600 684 495 710 407 710 C205 710 70 566 70 350 C70 134 205 -10 407 -10 C495 -10 600 16 668 56 C668 56 668 78 668 78 C668 78 660 78 660 78 C658 77 655 75 653 73 C637 63 616 52 594 44 C535 22 467 9 407 9 C256 9 155 145 155 350 C155 555 256 691 407 691 C469 691 540 677 600 654 C618 646 638 636 653 627 C655 625 658 623 660 622 C660 622 668 622 668 622 L668 622 Z M407 853 C407 853 519 993 519 993 C519 993 526 986 526 986 C526 986 430 801 430 801 C427 795 419 780 407 780 C395 780 387 795 384 801 C384 801 287 986 287 986 C287 986 295 993 295 993 C295 993 407 853 407 853 L407 853 Z " />
<glyph glyph-name="ccaron" unicode="&#x10d;" horiz-adv-x="521" d="M455 59 C455 59 448 68 448 68 C425 47 374 34 321 34 C214 34 142 125 142 261 C142 398 207 490 306 490 C350 490 383 456 388 404 C390 382 404 368 424 368 C444 368 457 381 457 400 C451 466 394 510 314 510 C165 510 65 399 65 233 C65 87 143 -10 260 -10 C328 -10 406 18 455 59 L455 59 Z M314 653 C314 653 426 793 426 793 C426 793 433 786 433 786 C433 786 337 601 337 601 C334 595 326 580 314 580 C302 580 294 595 291 601 C291 601 194 786 194 786 C194 786 202 793 202 793 C202 793 314 653 314 653 L314 653 Z " />
<glyph glyph-name="Dcaron" unicode="&#x10e;" horiz-adv-x="650" d="M60 691 C60 691 61 691 61 691 C62 691 63 680 63 664 C63 664 63 36 63 36 C63 20 62 9 61 9 C61 9 60 9 60 9 C60 9 60 0 60 0 C60 0 63 0 63 0 C63 0 102 0 102 0 C102 0 141 0 141 0 C141 0 288 0 288 0 C467 0 586 140 586 350 C586 560 452 700 251 700 C251 700 141 700 141 700 C141 700 102 700 102 700 C102 700 63 700 63 700 C63 700 60 700 60 700 C60 700 60 691 60 691 L60 691 Z M286 853 C286 853 398 993 398 993 C398 993 405 986 405 986 C405 986 309 801 309 801 C306 795 298 780 286 780 C274 780 266 795 263 801 C263 801 166 986 166 986 C166 986 174 993 174 993 C174 993 286 853 286 853 L286 853 Z M141 20 C141 20 141 680 141 680 C141 680 251 680 251 680 C406 680 509 548 509 350 C509 152 421 20 288 20 C288 20 141 20 141 20 L141 20 Z " />
<glyph glyph-name="dcaron" unicode="&#x10f;" horiz-adv-x="630" d="M429 724 C431 719 432 714 432 709 C432 709 432 677 432 677 C432 677 432 449 432 449 C400 485 349 510 294 510 C159 510 69 395 69 223 C69 83 148 -10 265 -10 C325 -10 390 14 432 50 C432 50 432 19 432 19 C432 19 432 0 432 0 C432 0 447 0 447 0 C447 0 505 19 505 19 C505 19 505 19 505 19 C505 19 505 19 505 19 C505 19 508 20 508 20 C509 21 509 21 508 21 C509 24 509 26 508 26 C508 26 508 29 508 29 C506 43 506 50 505 73 C505 73 505 696 505 696 C505 696 505 731 505 731 C505 731 505 750 505 750 C505 750 491 750 491 750 C491 750 432 731 432 731 C432 731 432 731 432 731 C432 731 432 731 432 731 C432 731 429 730 429 730 C429 730 429 724 429 724 L429 724 Z M630 684 C653 734 669 784 669 791 C669 803 637 808 623 808 C607 808 592 746 584 700 C584 700 553 537 553 537 C553 537 562 534 562 534 C562 534 630 684 630 684 L630 684 Z M432 62 C411 45 362 35 306 35 C210 35 146 121 146 251 C146 394 204 490 290 490 C351 490 406 457 432 416 C432 416 432 62 432 62 L432 62 Z " />
<glyph glyph-name="Emacron" unicode="&#x112;" horiz-adv-x="488" d="M90 832 C90 832 390 832 390 832 C390 832 390 873 390 873 C390 873 90 873 90 873 C90 873 90 832 90 832 L90 832 Z M357 386 C350 384 331 383 310 383 C310 383 136 383 136 383 C136 383 136 681 136 681 C136 681 357 681 357 681 C384 681 410 680 424 675 C424 675 431 675 431 675 C431 675 431 690 431 690 C431 690 431 700 431 700 C431 700 421 700 421 700 C421 700 394 700 394 700 C394 700 136 700 136 700 C136 700 97 700 97 700 C97 700 59 700 59 700 C59 700 56 700 56 700 C56 700 56 691 56 691 C58 691 59 680 59 664 C59 664 59 36 59 36 C59 20 58 9 56 9 C56 9 56 0 56 0 C56 0 59 0 59 0 C59 0 97 0 97 0 C97 0 136 0 136 0 C136 0 398 0 398 0 C398 0 431 0 431 0 C431 0 434 0 434 0 C435 3 435 7 436 10 C437 14 438 20 438 25 C438 25 432 25 432 25 C417 21 392 20 363 19 C363 19 136 19 136 19 C136 19 136 364 136 364 C136 364 310 364 310 364 C333 364 351 364 359 360 C359 360 366 360 366 360 C366 360 366 364 366 364 C366 364 366 373 366 373 C366 373 366 383 366 383 C366 383 366 386 366 386 C366 386 357 386 357 386 L357 386 Z " />
<glyph glyph-name="emacron" unicode="&#x113;" horiz-adv-x="527" d="M136 632 C136 632 436 632 436 632 C436 632 436 673 436 673 C436 673 136 673 136 673 C136 673 136 632 136 632 L136 632 Z M462 59 C462 59 455 68 455 68 C432 47 379 34 324 34 C215 34 142 125 142 261 C142 281 143 301 146 319 C146 319 463 319 463 319 C463 434 392 510 286 510 C153 510 65 399 65 233 C65 87 144 -10 263 -10 C333 -10 412 18 462 59 L462 59 Z M148 333 C164 429 214 490 282 490 C350 490 395 446 395 380 C395 379 395 378 395 378 C394 360 382 347 365 344 C365 344 148 333 148 333 L148 333 Z M361 344 C361 344 360 344 360 344 C360 344 361 344 361 344 L361 344 Z " />
<glyph glyph-name="Ebreve" unicode="&#x114;" horiz-adv-x="488" d="M118 936 C137 864 186 816 240 816 C294 816 342 864 361 936 C361 936 349 939 349 939 C337 895 293 865 240 865 C186 865 142 895 131 939 C131 939 118 936 118 936 L118 936 Z M357 386 C350 384 331 383 310 383 C310 383 136 383 136 383 C136 383 136 681 136 681 C136 681 357 681 357 681 C384 681 410 680 424 675 C424 675 431 675 431 675 C431 675 431 690 431 690 C431 690 431 700 431 700 C431 700 421 700 421 700 C421 700 394 700 394 700 C394 700 136 700 136 700 C136 700 97 700 97 700 C97 700 59 700 59 700 C59 700 56 700 56 700 C56 700 56 691 56 691 C58 691 59 680 59 664 C59 664 59 36 59 36 C59 20 58 9 56 9 C56 9 56 0 56 0 C56 0 59 0 59 0 C59 0 97 0 97 0 C97 0 136 0 136 0 C136 0 398 0 398 0 C398 0 431 0 431 0 C431 0 434 0 434 0 C435 3 435 7 436 10 C437 14 438 20 438 25 C438 25 432 25 432 25 C417 21 392 20 363 19 C363 19 136 19 136 19 C136 19 136 364 136 364 C136 364 310 364 310 364 C333 364 351 364 359 360 C359 360 366 360 366 360 C366 360 366 364 366 364 C366 364 366 373 366 373 C366 373 366 383 366 383 C366 383 366 386 366 386 C366 386 357 386 357 386 L357 386 Z " />
<glyph glyph-name="ebreve" unicode="&#x115;" horiz-adv-x="527" d="M165 736 C183 664 232 616 286 616 C340 616 389 664 407 736 C407 736 395 739 395 739 C383 695 339 665 286 665 C233 665 189 695 177 739 C177 739 165 736 165 736 L165 736 Z M462 59 C462 59 455 68 455 68 C432 47 379 34 324 34 C215 34 142 125 142 261 C142 281 143 301 146 319 C146 319 463 319 463 319 C463 434 392 510 286 510 C153 510 65 399 65 233 C65 87 144 -10 263 -10 C333 -10 412 18 462 59 L462 59 Z M148 333 C164 429 214 490 282 490 C350 490 395 446 395 380 C395 379 395 378 395 378 C394 360 382 347 365 344 C365 344 148 333 148 333 L148 333 Z M361 344 C361 344 360 344 360 344 C360 344 361 344 361 344 L361 344 Z " />
<glyph glyph-name="Edotaccent" unicode="&#x116;" horiz-adv-x="488" d="M240 820 C267 820 285 838 285 865 C285 892 267 910 240 910 C213 910 195 892 195 865 C195 838 213 820 240 820 L240 820 Z M357 386 C350 384 331 383 310 383 C310 383 136 383 136 383 C136 383 136 681 136 681 C136 681 357 681 357 681 C384 681 410 680 424 675 C424 675 431 675 431 675 C431 675 431 690 431 690 C431 690 431 700 431 700 C431 700 421 700 421 700 C421 700 394 700 394 700 C394 700 136 700 136 700 C136 700 97 700 97 700 C97 700 59 700 59 700 C59 700 56 700 56 700 C56 700 56 691 56 691 C58 691 59 680 59 664 C59 664 59 36 59 36 C59 20 58 9 56 9 C56 9 56 0 56 0 C56 0 59 0 59 0 C59 0 97 0 97 0 C97 0 136 0 136 0 C136 0 398 0 398 0 C398 0 431 0 431 0 C431 0 434 0 434 0 C435 3 435 7 436 10 C437 14 438 20 438 25 C438 25 432 25 432 25 C417 21 392 20 363 19 C363 19 136 19 136 19 C136 19 136 364 136 364 C136 364 310 364 310 364 C333 364 351 364 359 360 C359 360 366 360 366 360 C366 360 366 364 366 364 C366 364 366 373 366 373 C366 373 366 383 366 383 C366 383 366 386 366 386 C366 386 357 386 357 386 L357 386 Z " />
<glyph glyph-name="edotaccent" unicode="&#x117;" horiz-adv-x="527" d="M286 620 C313 620 331 638 331 665 C331 692 313 710 286 710 C259 710 241 692 241 665 C241 638 259 620 286 620 L286 620 Z M462 59 C462 59 455 68 455 68 C432 47 379 34 324 34 C215 34 142 125 142 261 C142 281 143 301 146 319 C146 319 463 319 463 319 C463 434 392 510 286 510 C153 510 65 399 65 233 C65 87 144 -10 263 -10 C333 -10 412 18 462 59 L462 59 Z M148 333 C164 429 214 490 282 490 C350 490 395 446 395 380 C395 379 395 378 395 378 C394 360 382 347 365 344 C365 344 148 333 148 333 L148 333 Z M361 344 C361 344 360 344 360 344 C360 344 361 344 361 344 L361 344 Z " />
<glyph glyph-name="Eogonek" unicode="&#x118;" horiz-adv-x="488" d="M357 386 C350 384 331 383 310 383 C310 383 136 383 136 383 C136 383 136 681 136 681 C136 681 357 681 357 681 C384 681 410 680 424 675 C424 675 431 675 431 675 C431 675 431 690 431 690 C431 690 431 700 431 700 C431 700 421 700 421 700 C421 700 394 700 394 700 C394 700 136 700 136 700 C136 700 97 700 97 700 C97 700 59 700 59 700 C59 700 56 700 56 700 C56 700 56 691 56 691 C58 691 59 680 59 664 C59 664 59 36 59 36 C59 20 58 9 56 9 C56 9 56 0 56 0 C56 0 59 0 59 0 C59 0 97 0 97 0 C97 0 136 0 136 0 C136 0 398 0 398 0 C398 0 426 0 426 0 C377 -20 277 -99 277 -162 C277 -203 325 -231 397 -231 C426 -231 457 -217 474 -196 C474 -196 474 -195 474 -195 C457 -215 427 -228 400 -228 C353 -228 322 -198 322 -154 C322 -86 398 -12 431 0 C431 0 434 0 434 0 C435 3 435 7 436 10 C437 14 438 20 438 25 C438 25 432 25 432 25 C417 21 392 20 363 19 C363 19 136 19 136 19 C136 19 136 364 136 364 C136 364 310 364 310 364 C333 364 351 364 359 360 C359 360 366 360 366 360 C366 360 366 364 366 364 C366 364 366 373 366 373 C366 373 366 383 366 383 C366 383 366 386 366 386 C366 386 357 386 357 386 L357 386 Z " />
<glyph glyph-name="eogonek" unicode="&#x119;" horiz-adv-x="527" d="M148 333 C164 429 214 490 282 490 C350 490 395 446 395 380 C395 379 395 378 395 378 C394 360 382 347 365 344 C365 344 148 333 148 333 L148 333 Z M146 319 C146 319 463 319 463 319 C463 434 392 510 286 510 C153 510 65 399 65 233 C65 87 144 -10 263 -10 C275 -10 288 -9 301 -7 C251 -30 156 -106 156 -166 C156 -205 204 -231 276 -231 C305 -231 335 -217 353 -196 C353 -196 352 -195 352 -195 C336 -215 306 -228 278 -228 C231 -228 200 -200 200 -158 C200 -92 274 -20 308 -6 C365 2 422 27 462 59 C462 59 455 68 455 68 C432 47 379 34 324 34 C215 34 142 125 142 261 C142 281 143 301 146 319 L146 319 Z M361 344 C361 344 360 344 360 344 C360 344 361 344 361 344 L361 344 Z " />
<glyph glyph-name="Ecaron" unicode="&#x11a;" horiz-adv-x="488" d="M357 386 C350 384 331 383 310 383 C310 383 136 383 136 383 C136 383 136 681 136 681 C136 681 357 681 357 681 C384 681 410 680 424 675 C424 675 431 675 431 675 C431 675 431 690 431 690 C431 690 431 700 431 700 C431 700 421 700 421 700 C421 700 394 700 394 700 C394 700 136 700 136 700 C136 700 97 700 97 700 C97 700 59 700 59 700 C59 700 56 700 56 700 C56 700 56 691 56 691 C58 691 59 680 59 664 C59 664 59 36 59 36 C59 20 58 9 56 9 C56 9 56 0 56 0 C56 0 59 0 59 0 C59 0 97 0 97 0 C97 0 136 0 136 0 C136 0 398 0 398 0 C398 0 431 0 431 0 C431 0 434 0 434 0 C435 3 435 7 436 10 C437 14 438 20 438 25 C438 25 432 25 432 25 C417 21 392 20 363 19 C363 19 136 19 136 19 C136 19 136 364 136 364 C136 364 310 364 310 364 C333 364 351 364 359 360 C359 360 366 360 366 360 C366 360 366 364 366 364 C366 364 366 373 366 373 C366 373 366 383 366 383 C366 383 366 386 366 386 C366 386 357 386 357 386 L357 386 Z M240 853 C240 853 352 993 352 993 C352 993 359 986 359 986 C359 986 263 801 263 801 C260 795 251 780 240 780 C228 780 220 795 217 801 C217 801 120 986 120 986 C120 986 128 993 128 993 C128 993 240 853 240 853 L240 853 Z " />
<glyph glyph-name="ecaron" unicode="&#x11b;" horiz-adv-x="527" d="M462 59 C462 59 455 68 455 68 C432 47 379 34 324 34 C215 34 142 125 142 261 C142 281 143 301 146 319 C146 319 463 319 463 319 C463 434 392 510 286 510 C153 510 65 399 65 233 C65 87 144 -10 263 -10 C333 -10 412 18 462 59 L462 59 Z M286 653 C286 653 398 793 398 793 C398 793 406 786 406 786 C406 786 309 601 309 601 C306 595 298 580 286 580 C274 580 266 595 263 601 C263 601 167 786 167 786 C167 786 174 793 174 793 C174 793 286 653 286 653 L286 653 Z M148 333 C164 429 214 490 282 490 C350 490 395 446 395 380 C395 379 395 378 395 378 C394 360 382 347 365 344 C365 344 148 333 148 333 L148 333 Z M361 344 C361 344 360 344 360 344 C360 344 361 344 361 344 L361 344 Z " />
<glyph glyph-name="Gcircumflex" unicode="&#x11c;" horiz-adv-x="760" d="M656 329 C656 329 653 329 653 329 C653 329 618 329 618 329 C618 329 584 329 584 329 C584 329 581 329 581 329 C581 329 581 320 581 320 C583 320 584 309 584 293 C584 293 584 45 584 45 C525 23 457 9 397 9 C252 9 155 145 155 350 C155 555 252 691 397 691 C449 691 510 679 564 660 C564 660 564 660 564 660 C586 652 614 639 633 627 C635 625 638 623 640 622 C640 622 648 622 648 622 C648 622 648 644 648 644 C580 684 479 710 397 710 C201 710 70 566 70 350 C70 134 201 -10 397 -10 C482 -10 585 16 653 56 C653 56 653 293 653 293 C653 309 654 320 656 320 C656 320 656 329 656 329 L656 329 Z M397 897 C397 897 509 757 509 757 C509 757 516 764 516 764 C516 764 420 949 420 949 C417 955 408 970 397 970 C385 970 377 955 373 949 C373 949 277 764 277 764 C277 764 285 757 285 757 C285 757 397 897 397 897 L397 897 Z " />
<glyph glyph-name="Gbreve" unicode="&#x11e;" horiz-adv-x="760" d="M275 936 C294 864 342 816 397 816 C451 816 499 864 518 936 C518 936 505 939 505 939 C494 895 450 865 397 865 C343 865 299 895 288 939 C288 939 275 936 275 936 L275 936 Z M656 329 C656 329 653 329 653 329 C653 329 618 329 618 329 C618 329 584 329 584 329 C584 329 581 329 581 329 C581 329 581 320 581 320 C583 320 584 309 584 293 C584 293 584 45 584 45 C525 23 457 9 397 9 C252 9 155 145 155 350 C155 555 252 691 397 691 C449 691 510 679 564 660 C564 660 564 660 564 660 C586 652 614 639 633 627 C635 625 638 623 640 622 C640 622 648 622 648 622 C648 622 648 644 648 644 C580 684 479 710 397 710 C201 710 70 566 70 350 C70 134 201 -10 397 -10 C482 -10 585 16 653 56 C653 56 653 293 653 293 C653 309 654 320 656 320 C656 320 656 329 656 329 L656 329 Z " />
<glyph glyph-name="gbreve" unicode="&#x11f;" horiz-adv-x="500" d="M133 736 C152 664 200 616 254 616 C308 616 357 664 376 736 C376 736 363 739 363 739 C352 695 308 665 254 665 C201 665 157 695 145 739 C145 739 133 736 133 736 L133 736 Z M486 500 C486 500 348 489 348 489 C322 503 290 510 254 510 C149 510 78 446 78 351 C78 280 118 226 182 203 C110 198 62 158 62 100 C62 47 100 10 161 0 C86 -27 37 -80 37 -136 C37 -213 98 -265 189 -265 C355 -265 466 -182 466 -57 C466 19 394 70 287 70 C287 70 205 66 205 66 C149 64 112 89 112 128 C112 167 147 192 199 192 C199 192 254 192 254 192 C360 192 430 256 430 351 C430 395 415 433 388 460 C388 460 486 459 486 459 C486 459 486 500 486 500 L486 500 Z M147 351 C147 437 190 494 254 494 C318 494 361 437 361 351 C361 265 318 208 254 208 C190 208 147 265 147 351 L147 351 Z M183 -3 C192 -3 200 -3 209 -3 C209 -3 267 0 267 0 C355 0 413 -38 413 -94 C413 -185 327 -245 197 -245 C130 -245 86 -198 86 -127 C86 -71 125 -22 183 -3 C183 -3 183 -3 183 -3 L183 -3 Z " />
<glyph glyph-name="Gdotaccent" unicode="&#x120;" horiz-adv-x="760" d="M397 820 C423 820 441 838 441 865 C441 892 423 910 397 910 C370 910 352 892 352 865 C352 838 370 820 397 820 L397 820 Z M656 329 C656 329 653 329 653 329 C653 329 618 329 618 329 C618 329 584 329 584 329 C584 329 581 329 581 329 C581 329 581 320 581 320 C583 320 584 309 584 293 C584 293 584 45 584 45 C525 23 457 9 397 9 C252 9 155 145 155 350 C155 555 252 691 397 691 C449 691 510 679 564 660 C564 660 564 660 564 660 C586 652 614 639 633 627 C635 625 638 623 640 622 C640 622 648 622 648 622 C648 622 648 644 648 644 C580 684 479 710 397 710 C201 710 70 566 70 350 C70 134 201 -10 397 -10 C482 -10 585 16 653 56 C653 56 653 293 653 293 C653 309 654 320 656 320 C656 320 656 329 656 329 L656 329 Z " />
<glyph glyph-name="gdotaccent" unicode="&#x121;" horiz-adv-x="500" d="M254 620 C281 620 299 638 299 665 C299 692 281 710 254 710 C228 710 210 692 210 665 C210 638 228 620 254 620 L254 620 Z M486 500 C486 500 348 489 348 489 C322 503 290 510 254 510 C149 510 78 446 78 351 C78 280 118 226 182 203 C110 198 62 158 62 100 C62 47 100 10 161 0 C86 -27 37 -80 37 -136 C37 -213 98 -265 189 -265 C355 -265 466 -182 466 -57 C466 19 394 70 287 70 C287 70 205 66 205 66 C149 64 112 89 112 128 C112 167 147 192 199 192 C199 192 254 192 254 192 C360 192 430 256 430 351 C430 395 415 433 388 460 C388 460 486 459 486 459 C486 459 486 500 486 500 L486 500 Z M147 351 C147 437 190 494 254 494 C318 494 361 437 361 351 C361 265 318 208 254 208 C190 208 147 265 147 351 L147 351 Z M183 -3 C192 -3 200 -3 209 -3 C209 -3 267 0 267 0 C355 0 413 -38 413 -94 C413 -185 327 -245 197 -245 C130 -245 86 -198 86 -127 C86 -71 125 -22 183 -3 C183 -3 183 -3 183 -3 L183 -3 Z " />
<glyph glyph-name="Hcircumflex" unicode="&#x124;" horiz-adv-x="660" d="M606 700 C606 700 603 700 603 700 C603 700 564 700 564 700 C564 700 526 700 526 700 C526 700 523 700 523 700 C523 700 523 691 523 691 C525 691 526 680 526 664 C526 664 526 377 526 377 C526 377 136 377 136 377 C136 377 136 664 136 664 C136 680 137 691 138 691 C138 691 139 691 139 691 C139 691 139 700 139 700 C139 700 136 700 136 700 C136 700 97 700 97 700 C97 700 59 700 59 700 C59 700 56 700 56 700 C56 700 56 691 56 691 C58 691 59 680 59 664 C59 664 59 36 59 36 C59 20 58 9 56 9 C56 9 56 0 56 0 C56 0 59 0 59 0 C59 0 97 0 97 0 C97 0 136 0 136 0 C136 0 139 0 139 0 C139 0 139 9 139 9 C139 9 138 9 138 9 C137 9 136 20 136 36 C136 36 136 358 136 358 C136 358 526 358 526 358 C526 358 526 36 526 36 C526 20 525 9 523 9 C523 9 523 0 523 0 C523 0 526 0 526 0 C526 0 564 0 564 0 C564 0 603 0 603 0 C603 0 606 0 606 0 C606 0 606 9 606 9 C606 9 605 9 605 9 C604 9 603 20 603 36 C603 36 603 664 603 664 C603 680 604 691 605 691 C605 691 606 691 606 691 C606 691 606 700 606 700 L606 700 Z M331 897 C331 897 443 757 443 757 C443 757 450 764 450 764 C450 764 354 949 354 949 C351 955 342 970 331 970 C319 970 311 955 308 949 C308 949 211 764 211 764 C211 764 219 757 219 757 C219 757 331 897 331 897 L331 897 Z " />
<glyph glyph-name="Itilde" unicode="&#x128;" horiz-adv-x="194" d="M-45 820 C-45 858 -27 883 0 883 C60 883 116 818 176 818 C217 818 244 861 244 927 C244 927 242 927 242 927 C242 891 222 867 192 867 C132 867 76 932 16 932 C-22 932 -47 887 -47 820 C-47 820 -45 820 -45 820 L-45 820 Z M140 700 C140 700 137 700 137 700 C137 700 98 700 98 700 C98 700 60 700 60 700 C60 700 57 700 57 700 C57 700 57 691 57 691 C59 691 60 680 60 664 C60 664 60 36 60 36 C60 20 59 9 57 9 C57 9 57 0 57 0 C57 0 60 0 60 0 C60 0 98 0 98 0 C98 0 137 0 137 0 C137 0 140 0 140 0 C140 0 140 9 140 9 C140 9 139 9 139 9 C138 9 137 20 137 36 C137 36 137 664 137 664 C137 680 138 691 139 691 C139 691 140 691 140 691 C140 691 140 700 140 700 L140 700 Z " />
<glyph glyph-name="itilde" unicode="&#x129;" horiz-adv-x="198" d="M-44 620 C-44 658 -26 683 1 683 C61 683 117 618 177 618 C218 618 245 661 245 727 C245 727 243 727 243 727 C243 691 223 667 193 667 C133 667 77 732 17 732 C-21 732 -46 687 -46 620 C-46 620 -44 620 -44 620 L-44 620 Z M136 0 C136 0 139 0 139 0 C139 0 139 9 139 9 C139 9 138 9 138 9 C137 9 136 8 136 0 C136 0 136 464 136 464 C136 464 136 510 136 510 C136 510 132 510 132 510 C132 510 60 488 60 488 C60 488 60 480 60 480 C60 480 62 459 62 459 C63 454 63 449 63 443 C63 443 63 0 63 0 C63 0 60 0 60 0 C60 0 60 9 60 9 C62 9 63 8 63 0 C63 0 136 0 136 0 L136 0 Z " />
<glyph glyph-name="Imacron" unicode="&#x12a;" horiz-adv-x="194" d="M-52 832 C-52 832 248 832 248 832 C248 832 248 873 248 873 C248 873 -52 873 -52 873 C-52 873 -52 832 -52 832 L-52 832 Z M140 700 C140 700 137 700 137 700 C137 700 98 700 98 700 C98 700 60 700 60 700 C60 700 57 700 57 700 C57 700 57 691 57 691 C59 691 60 680 60 664 C60 664 60 36 60 36 C60 20 59 9 57 9 C57 9 57 0 57 0 C57 0 60 0 60 0 C60 0 98 0 98 0 C98 0 137 0 137 0 C137 0 140 0 140 0 C140 0 140 9 140 9 C140 9 139 9 139 9 C138 9 137 20 137 36 C137 36 137 664 137 664 C137 680 138 691 139 691 C139 691 140 691 140 691 C140 691 140 700 140 700 L140 700 Z " />
<glyph glyph-name="imacron" unicode="&#x12b;" horiz-adv-x="198" d="M-51 632 C-51 632 249 632 249 632 C249 632 249 673 249 673 C249 673 -51 673 -51 673 C-51 673 -51 632 -51 632 L-51 632 Z M136 0 C136 0 139 0 139 0 C139 0 139 9 139 9 C139 9 138 9 138 9 C137 9 136 8 136 0 C136 0 136 464 136 464 C136 464 136 510 136 510 C136 510 132 510 132 510 C132 510 60 488 60 488 C60 488 60 480 60 480 C60 480 62 459 62 459 C63 454 63 449 63 443 C63 443 63 0 63 0 C63 0 60 0 60 0 C60 0 60 9 60 9 C62 9 63 8 63 0 C63 0 136 0 136 0 L136 0 Z " />
<glyph glyph-name="Ibreve" unicode="&#x12c;" horiz-adv-x="194" d="M-23 936 C-4 864 44 816 98 816 C152 816 201 864 220 936 C220 936 207 939 207 939 C196 895 152 865 98 865 C45 865 1 895 -11 939 C-11 939 -23 936 -23 936 L-23 936 Z M140 700 C140 700 137 700 137 700 C137 700 98 700 98 700 C98 700 60 700 60 700 C60 700 57 700 57 700 C57 700 57 691 57 691 C59 691 60 680 60 664 C60 664 60 36 60 36 C60 20 59 9 57 9 C57 9 57 0 57 0 C57 0 60 0 60 0 C60 0 98 0 98 0 C98 0 137 0 137 0 C137 0 140 0 140 0 C140 0 140 9 140 9 C140 9 139 9 139 9 C138 9 137 20 137 36 C137 36 137 664 137 664 C137 680 138 691 139 691 C139 691 140 691 140 691 C140 691 140 700 140 700 L140 700 Z " />
<glyph glyph-name="ibreve" unicode="&#x12d;" horiz-adv-x="198" d="M-22 736 C-3 664 45 616 99 616 C153 616 202 664 221 736 C221 736 208 739 208 739 C197 695 153 665 99 665 C46 665 2 695 -10 739 C-10 739 -22 736 -22 736 L-22 736 Z M136 0 C136 0 139 0 139 0 C139 0 139 9 139 9 C139 9 138 9 138 9 C137 9 136 8 136 0 C136 0 136 464 136 464 C136 464 136 510 136 510 C136 510 132 510 132 510 C132 510 60 488 60 488 C60 488 60 480 60 480 C60 480 62 459 62 459 C63 454 63 449 63 443 C63 443 63 0 63 0 C63 0 60 0 60 0 C60 0 60 9 60 9 C62 9 63 8 63 0 C63 0 136 0 136 0 L136 0 Z " />
<glyph glyph-name="Idotaccent" unicode="&#x130;" horiz-adv-x="194" d="M98 820 C125 820 143 838 143 865 C143 892 125 910 98 910 C71 910 53 892 53 865 C53 838 71 820 98 820 L98 820 Z M140 700 C140 700 137 700 137 700 C137 700 98 700 98 700 C98 700 60 700 60 700 C60 700 57 700 57 700 C57 700 57 691 57 691 C59 691 60 680 60 664 C60 664 60 36 60 36 C60 20 59 9 57 9 C57 9 57 0 57 0 C57 0 60 0 60 0 C60 0 98 0 98 0 C98 0 137 0 137 0 C137 0 140 0 140 0 C140 0 140 9 140 9 C140 9 139 9 139 9 C138 9 137 20 137 36 C137 36 137 664 137 664 C137 680 138 691 139 691 C139 691 140 691 140 691 C140 691 140 700 140 700 L140 700 Z " />
<glyph glyph-name="dotlessi" unicode="&#x131;" horiz-adv-x="198" d="M136 0 C136 0 139 0 139 0 C139 0 139 9 139 9 C139 9 138 9 138 9 C137 9 136 8 136 0 C136 0 136 464 136 464 C136 464 136 510 136 510 C136 510 132 510 132 510 C132 510 60 488 60 488 C60 488 60 480 60 480 C60 480 62 459 62 459 C63 454 63 449 63 443 C63 443 63 0 63 0 C63 0 60 0 60 0 C60 0 60 9 60 9 C62 9 63 8 63 0 C63 0 136 0 136 0 L136 0 Z " />
<glyph glyph-name="Jcircumflex" unicode="&#x134;" horiz-adv-x="325" d="M271 700 C271 700 268 700 268 700 C268 700 229 700 229 700 C229 700 191 700 191 700 C191 700 188 700 188 700 C188 700 188 691 188 691 C190 691 191 680 191 664 C191 664 191 212 191 212 C191 57 175 -4 132 -4 C111 -4 92 18 84 50 C78 70 64 83 47 83 C22 83 9 70 14 50 C25 8 64 -20 112 -20 C224 -20 268 63 268 277 C268 277 268 664 268 664 C268 680 269 691 271 691 C271 691 271 700 271 700 L271 700 Z M229 897 C229 897 341 757 341 757 C341 757 349 764 349 764 C349 764 253 949 253 949 C250 955 241 970 229 970 C218 970 209 955 206 949 C206 949 110 764 110 764 C110 764 117 757 117 757 C117 757 229 897 229 897 L229 897 Z " />
<glyph glyph-name="Lacute" unicode="&#x139;" horiz-adv-x="488" d="M74 755 C74 755 186 883 186 883 C209 910 225 930 225 935 C225 944 196 965 183 965 C180 965 166 944 148 912 C148 912 65 762 65 762 C65 762 74 755 74 755 L74 755 Z M139 700 C139 700 136 700 136 700 C136 700 97 700 97 700 C97 700 59 700 59 700 C59 700 56 700 56 700 C56 700 56 691 56 691 C58 691 59 680 59 664 C59 664 59 36 59 36 C59 20 58 9 56 9 C56 9 56 0 56 0 C56 0 59 0 59 0 C59 0 97 0 97 0 C97 0 136 0 136 0 C136 0 398 0 398 0 C398 0 431 0 431 0 C431 0 434 0 434 0 C435 3 435 7 436 10 C437 14 438 21 438 25 C438 25 436 25 436 25 C431 25 427 26 427 25 C415 21 392 20 367 19 C367 19 136 19 136 19 C136 19 136 664 136 664 C136 680 137 691 138 691 C138 691 139 691 139 691 C139 691 139 700 139 700 L139 700 Z " />
<glyph glyph-name="Lcaron" unicode="&#x13d;" horiz-adv-x="488" d="M139 700 C139 700 136 700 136 700 C136 700 97 700 97 700 C97 700 59 700 59 700 C59 700 56 700 56 700 C56 700 56 691 56 691 C58 691 59 680 59 664 C59 664 59 36 59 36 C59 20 58 9 56 9 C56 9 56 0 56 0 C56 0 59 0 59 0 C59 0 97 0 97 0 C97 0 136 0 136 0 C136 0 398 0 398 0 C398 0 431 0 431 0 C431 0 434 0 434 0 C435 3 435 7 436 10 C437 14 438 21 438 25 C438 25 436 25 436 25 C431 25 427 26 427 25 C415 21 392 20 367 19 C367 19 136 19 136 19 C136 19 136 664 136 664 C136 680 137 691 138 691 C138 691 139 691 139 691 C139 691 139 700 139 700 L139 700 Z M263 634 C287 684 302 734 302 741 C302 753 270 758 256 758 C241 758 226 696 217 650 C217 650 187 487 187 487 C187 487 196 484 196 484 C196 484 263 634 263 634 L263 634 Z " />
<glyph glyph-name="lcaron" unicode="&#x13e;" horiz-adv-x="198" d="M60 721 C63 707 63 700 63 677 C63 677 63 36 63 36 C63 20 62 9 60 9 C60 9 60 0 60 0 C60 0 63 0 63 0 C63 0 99 0 99 0 C99 0 136 0 136 0 C136 0 139 0 139 0 C139 0 139 9 139 9 C139 9 138 9 138 9 C137 9 136 20 136 36 C136 36 136 696 136 696 C136 696 136 731 136 731 C136 731 136 750 136 750 C136 750 121 750 121 750 C121 750 63 731 63 731 C63 731 63 731 63 731 C63 731 63 731 63 731 C63 731 60 730 60 730 C60 730 60 721 60 721 L60 721 Z M260 634 C283 684 299 734 299 741 C299 753 267 758 253 758 C238 758 223 696 214 650 C214 650 183 487 183 487 C183 487 193 484 193 484 C193 484 260 634 260 634 L260 634 Z " />
<glyph glyph-name="Lslash" unicode="&#x141;" horiz-adv-x="488" d="M9 288 C9 288 59 306 59 306 C59 306 59 36 59 36 C59 20 58 9 56 9 C56 9 56 0 56 0 C56 0 59 0 59 0 C59 0 97 0 97 0 C97 0 136 0 136 0 C136 0 398 0 398 0 C398 0 431 0 431 0 C431 0 434 0 434 0 C435 3 435 7 436 10 C437 14 438 21 438 25 C438 25 436 25 436 25 C431 25 427 26 427 25 C415 21 392 20 367 19 C367 19 136 19 136 19 C136 19 136 334 136 334 C136 334 283 388 283 388 C283 388 283 412 283 412 C283 412 136 358 136 358 C136 358 136 664 136 664 C136 680 137 691 138 691 C138 691 139 691 139 691 C139 691 139 700 139 700 C139 700 136 700 136 700 C136 700 97 700 97 700 C97 700 59 700 59 700 C59 700 56 700 56 700 C56 700 56 691 56 691 C58 691 59 680 59 664 C59 664 59 330 59 330 C59 330 9 312 9 312 C9 312 9 288 9 288 L9 288 Z " />
<glyph glyph-name="lslash" unicode="&#x142;" horiz-adv-x="198" d="M-37 313 C-37 313 63 350 63 350 C63 350 63 36 63 36 C63 20 62 9 60 9 C60 9 60 0 60 0 C60 0 63 0 63 0 C63 0 99 0 99 0 C99 0 136 0 136 0 C136 0 139 0 139 0 C139 0 139 9 139 9 C139 9 138 9 138 9 C137 9 136 20 136 36 C136 36 136 376 136 376 C136 376 236 413 236 413 C236 413 236 437 236 437 C236 437 136 400 136 400 C136 400 136 696 136 696 C136 696 136 731 136 731 C136 731 136 750 136 750 C136 750 121 750 121 750 C121 750 63 731 63 731 C63 731 63 731 63 731 C63 731 63 731 63 731 C63 731 60 730 60 730 C60 730 60 721 60 721 C63 707 63 700 63 677 C63 677 63 374 63 374 C63 374 -37 337 -37 337 C-37 337 -37 313 -37 313 L-37 313 Z " />
<glyph glyph-name="Nacute" unicode="&#x143;" horiz-adv-x="583" d="M266 755 C266 755 378 883 378 883 C402 910 418 930 418 935 C418 944 388 965 376 965 C372 965 359 944 341 912 C341 912 258 762 258 762 C258 762 266 755 266 755 L266 755 Z M539 700 C539 700 536 700 536 700 C536 700 524 700 524 700 C524 700 513 700 513 700 C513 700 510 700 510 700 C510 700 510 691 510 691 C512 691 513 680 513 664 C513 664 513 118 513 118 C513 118 126 700 126 700 C126 700 82 667 82 667 C82 667 82 667 82 667 C82 667 126 700 126 700 C126 700 82 700 82 700 C82 700 70 700 70 700 C70 700 59 700 59 700 C59 700 56 700 56 700 C56 700 56 691 56 691 C58 691 59 680 59 664 C59 664 59 36 59 36 C59 20 58 9 56 9 C56 9 56 0 56 0 C56 0 59 0 59 0 C59 0 70 0 70 0 C70 0 82 0 82 0 C82 0 85 0 85 0 C85 0 85 9 85 9 C83 9 82 20 82 36 C82 36 82 628 82 628 C82 628 477 35 477 35 C477 35 512 -16 512 -16 C512 -16 536 -16 536 -16 C536 -16 536 64 536 64 C536 64 536 664 536 664 C536 680 537 691 538 691 C538 691 539 691 539 691 C539 691 539 700 539 700 L539 700 Z " />
<glyph glyph-name="nacute" unicode="&#x144;" horiz-adv-x="511" d="M181 555 C181 555 293 683 293 683 C317 710 333 730 333 735 C333 744 304 765 291 765 C287 765 274 744 256 712 C256 712 173 562 173 562 C173 562 181 555 181 555 L181 555 Z M377 0 C377 0 380 0 380 0 C380 0 417 0 417 0 C417 0 453 0 453 0 C453 0 456 0 456 0 C457 0 457 2 456 4 C457 7 457 9 456 9 C455 9 454 20 453 36 C453 36 453 337 453 337 C454 441 420 510 333 510 C296 510 218 482 135 438 C135 438 135 445 135 445 C135 445 131 445 131 445 C131 445 135 446 135 446 C135 446 135 500 135 500 C135 500 121 500 121 500 C121 500 59 480 59 480 C59 480 59 474 59 474 C62 464 62 457 62 445 C62 445 62 445 62 445 C62 445 62 427 62 427 C62 427 62 36 62 36 C62 20 61 9 60 9 C60 9 59 9 59 9 C59 9 59 0 59 0 C59 0 62 0 62 0 C62 0 99 0 99 0 C99 0 135 0 135 0 C135 0 138 0 138 0 C139 0 139 2 138 4 C139 7 139 9 138 9 C137 9 136 20 135 36 C135 36 135 430 135 430 C175 449 229 461 276 461 C351 461 380 408 380 329 C380 329 380 36 380 36 C380 20 379 9 378 9 C378 9 377 9 377 9 C377 9 377 0 377 0 L377 0 Z " />
<glyph glyph-name="Ncaron" unicode="&#x147;" horiz-adv-x="583" d="M539 700 C539 700 536 700 536 700 C536 700 524 700 524 700 C524 700 513 700 513 700 C513 700 510 700 510 700 C510 700 510 691 510 691 C512 691 513 680 513 664 C513 664 513 118 513 118 C513 118 126 700 126 700 C126 700 82 667 82 667 C82 667 82 667 82 667 C82 667 126 700 126 700 C126 700 82 700 82 700 C82 700 70 700 70 700 C70 700 59 700 59 700 C59 700 56 700 56 700 C56 700 56 691 56 691 C58 691 59 680 59 664 C59 664 59 36 59 36 C59 20 58 9 56 9 C56 9 56 0 56 0 C56 0 59 0 59 0 C59 0 70 0 70 0 C70 0 82 0 82 0 C82 0 85 0 85 0 C85 0 85 9 85 9 C83 9 82 20 82 36 C82 36 82 628 82 628 C82 628 477 35 477 35 C477 35 512 -16 512 -16 C512 -16 536 -16 536 -16 C536 -16 536 64 536 64 C536 64 536 664 536 664 C536 680 537 691 538 691 C538 691 539 691 539 691 C539 691 539 700 539 700 L539 700 Z M297 853 C297 853 409 993 409 993 C409 993 417 986 417 986 C417 986 321 801 321 801 C317 795 309 780 297 780 C286 780 277 795 274 801 C274 801 178 986 178 986 C178 986 185 993 185 993 C185 993 297 853 297 853 L297 853 Z " />
<glyph glyph-name="ncaron" unicode="&#x148;" horiz-adv-x="511" d="M377 0 C377 0 380 0 380 0 C380 0 417 0 417 0 C417 0 453 0 453 0 C453 0 456 0 456 0 C457 0 457 2 456 4 C457 7 457 9 456 9 C455 9 454 20 453 36 C453 36 453 337 453 337 C454 441 420 510 333 510 C296 510 218 482 135 438 C135 438 135 445 135 445 C135 445 131 445 131 445 C131 445 135 446 135 446 C135 446 135 500 135 500 C135 500 121 500 121 500 C121 500 59 480 59 480 C59 480 59 474 59 474 C62 464 62 457 62 445 C62 445 62 445 62 445 C62 445 62 427 62 427 C62 427 62 36 62 36 C62 20 61 9 60 9 C60 9 59 9 59 9 C59 9 59 0 59 0 C59 0 62 0 62 0 C62 0 99 0 99 0 C99 0 135 0 135 0 C135 0 138 0 138 0 C139 0 139 2 138 4 C139 7 139 9 138 9 C137 9 136 20 135 36 C135 36 135 430 135 430 C175 449 229 461 276 461 C351 461 380 408 380 329 C380 329 380 36 380 36 C380 20 379 9 378 9 C378 9 377 9 377 9 C377 9 377 0 377 0 L377 0 Z M258 653 C258 653 370 793 370 793 C370 793 377 786 377 786 C377 786 281 601 281 601 C278 595 269 580 258 580 C246 580 238 595 235 601 C235 601 138 786 138 786 C138 786 146 793 146 793 C146 793 258 653 258 653 L258 653 Z " />
<glyph glyph-name="Omacron" unicode="&#x14c;" horiz-adv-x="788" d="M247 832 C247 832 547 832 547 832 C547 832 547 873 547 873 C547 873 247 873 247 873 C247 873 247 832 247 832 L247 832 Z M397 9 C237 9 155 166 155 350 C155 534 237 691 397 691 C557 691 639 534 639 350 C639 166 557 9 397 9 L397 9 Z M70 350 C70 156 181 -10 397 -10 C613 -10 724 156 724 350 C724 544 613 710 397 710 C181 710 70 544 70 350 L70 350 Z " />
<glyph glyph-name="omacron" unicode="&#x14d;" horiz-adv-x="624" d="M162 632 C162 632 462 632 462 632 C462 632 462 673 462 673 C462 673 162 673 162 673 C162 673 162 632 162 632 L162 632 Z M312 6 C212 6 146 104 146 250 C146 396 212 494 312 494 C412 494 479 396 479 250 C479 104 412 6 312 6 L312 6 Z M65 250 C65 94 164 -10 312 -10 C461 -10 560 94 560 250 C560 406 461 510 312 510 C164 510 65 406 65 250 L65 250 Z " />
<glyph glyph-name="Obreve" unicode="&#x14e;" horiz-adv-x="788" d="M276 936 C294 864 343 816 397 816 C451 816 500 864 518 936 C518 936 506 939 506 939 C494 895 450 865 397 865 C344 865 300 895 288 939 C288 939 276 936 276 936 L276 936 Z M397 9 C237 9 155 166 155 350 C155 534 237 691 397 691 C557 691 639 534 639 350 C639 166 557 9 397 9 L397 9 Z M70 350 C70 156 181 -10 397 -10 C613 -10 724 156 724 350 C724 544 613 710 397 710 C181 710 70 544 70 350 L70 350 Z " />
<glyph glyph-name="obreve" unicode="&#x14f;" horiz-adv-x="624" d="M191 736 C210 664 258 616 312 616 C366 616 415 664 434 736 C434 736 421 739 421 739 C410 695 366 665 312 665 C259 665 215 695 203 739 C203 739 191 736 191 736 L191 736 Z M312 6 C212 6 146 104 146 250 C146 396 212 494 312 494 C412 494 479 396 479 250 C479 104 412 6 312 6 L312 6 Z M65 250 C65 94 164 -10 312 -10 C461 -10 560 94 560 250 C560 406 461 510 312 510 C164 510 65 406 65 250 L65 250 Z " />
<glyph glyph-name="Racute" unicode="&#x154;" horiz-adv-x="586" d="M190 755 C190 755 302 883 302 883 C326 910 341 930 341 935 C341 944 312 965 300 965 C296 965 283 944 265 912 C265 912 182 762 182 762 C182 762 190 755 190 755 L190 755 Z M60 691 C60 691 61 691 61 691 C62 691 63 680 63 664 C63 664 63 36 63 36 C63 20 62 9 61 9 C61 9 60 9 60 9 C60 9 60 0 60 0 C60 0 63 0 63 0 C63 0 102 0 102 0 C102 0 141 0 141 0 C141 0 144 0 144 0 C143 0 143 2 144 4 C143 7 143 9 144 9 C144 9 143 9 143 9 C142 9 141 11 141 15 C141 15 141 36 141 36 C141 36 141 334 141 334 C141 334 219 334 219 334 C219 334 376 106 376 106 C446 4 453 0 543 0 C543 0 572 0 572 0 C572 0 572 16 572 16 C572 16 567 16 567 16 C541 16 538 19 488 90 C488 90 312 342 312 342 C409 363 470 429 470 518 C470 627 388 700 265 700 C265 700 141 700 141 700 C141 700 102 700 102 700 C102 700 63 700 63 700 C63 700 60 700 60 700 C60 700 60 691 60 691 L60 691 Z M240 355 C240 355 205 355 205 355 C205 355 141 355 141 355 C141 355 141 680 141 680 C141 680 265 680 265 680 C339 680 389 615 389 518 C389 420 329 355 240 355 L240 355 Z " />
<glyph glyph-name="Rcaron" unicode="&#x158;" horiz-adv-x="520" d="M60 691 C60 691 61 691 61 691 C62 691 63 680 63 664 C63 664 63 36 63 36 C63 20 62 9 61 9 C61 9 60 9 60 9 C60 9 60 0 60 0 C60 0 63 0 63 0 C63 0 102 0 102 0 C102 0 141 0 141 0 C141 0 144 0 144 0 C143 0 143 2 144 4 C143 7 143 9 144 9 C144 9 143 9 143 9 C142 9 141 11 141 15 C141 15 141 36 141 36 C141 36 141 334 141 334 C141 334 240 334 240 334 C299 173 405 21 506 -44 C506 -44 514 -32 514 -32 C472 -6 397 145 324 344 C414 368 470 432 470 518 C470 627 388 700 265 700 C265 700 141 700 141 700 C141 700 102 700 102 700 C102 700 63 700 63 700 C63 700 60 700 60 700 C60 700 60 691 60 691 L60 691 Z M267 853 C267 853 379 993 379 993 C379 993 386 986 386 986 C386 986 290 801 290 801 C287 795 278 780 267 780 C255 780 247 795 243 801 C243 801 147 986 147 986 C147 986 155 993 155 993 C155 993 267 853 267 853 L267 853 Z M141 355 C141 355 141 680 141 680 C141 680 265 680 265 680 C339 680 389 615 389 518 C389 420 329 355 240 355 C240 355 141 355 141 355 L141 355 Z " />
<glyph glyph-name="rcaron" unicode="&#x159;" horiz-adv-x="380" d="M59 474 C62 464 62 457 62 445 C62 445 62 445 62 445 C62 445 62 427 62 427 C62 427 62 36 62 36 C62 20 61 9 60 9 C60 9 59 9 59 9 C59 9 59 0 59 0 C59 0 62 0 62 0 C62 0 99 0 99 0 C99 0 135 0 135 0 C135 0 138 0 138 0 C139 0 139 2 138 4 C139 7 139 9 138 9 C137 9 136 20 135 36 C135 36 135 416 135 416 C158 440 188 456 216 456 C251 456 285 421 320 421 C341 421 355 435 355 456 C355 489 332 510 274 510 C233 510 178 477 135 426 C135 426 135 445 135 445 C135 445 131 445 131 445 C131 445 135 446 135 446 C135 446 125 500 125 500 C125 500 111 500 111 500 C111 500 59 480 59 480 C59 480 59 474 59 474 L59 474 Z M168 653 C168 653 280 793 280 793 C280 793 288 786 288 786 C288 786 192 601 192 601 C188 595 180 580 168 580 C156 580 148 595 145 601 C145 601 49 786 49 786 C49 786 56 793 56 793 C56 793 168 653 168 653 L168 653 Z " />
<glyph glyph-name="Sacute" unicode="&#x15a;" horiz-adv-x="536" d="M212 755 C212 755 324 883 324 883 C348 910 364 930 364 935 C364 944 334 965 322 965 C319 965 305 944 287 912 C287 912 204 762 204 762 C204 762 212 755 212 755 L212 755 Z M56 73 C56 73 56 44 56 44 C112 12 200 -10 276 -10 C396 -10 477 67 477 181 C477 263 405 343 297 380 C188 418 116 481 116 538 C116 630 173 691 259 691 C293 691 349 673 404 644 C411 640 418 636 425 632 C427 631 430 629 432 627 C432 627 440 627 440 627 C440 627 440 656 440 656 C383 688 312 710 262 710 C142 710 62 629 62 507 C62 431 132 356 237 320 C348 282 422 213 422 150 C422 65 363 9 276 9 C236 9 187 18 142 35 C142 35 142 35 142 35 C121 42 93 55 71 68 C69 69 66 71 64 73 C64 73 56 73 56 73 L56 73 Z " />
<glyph glyph-name="sacute" unicode="&#x15b;" horiz-adv-x="450" d="M157 555 C157 555 270 683 270 683 C293 710 309 730 309 735 C309 744 280 765 267 765 C264 765 250 744 232 712 C232 712 149 562 149 562 C149 562 157 555 157 555 L157 555 Z M61 58 C61 58 61 32 61 32 C106 7 169 -10 221 -10 C320 -10 386 50 386 140 C386 190 339 245 268 276 C186 312 131 362 131 400 C131 456 172 494 234 494 C245 494 275 481 314 460 C322 456 333 450 349 441 C350 441 350 440 351 440 C351 440 351 440 351 440 C352 440 352 439 353 439 C354 439 356 438 357 437 C357 437 364 437 364 437 C364 437 364 463 364 463 C315 491 263 510 234 510 C138 510 74 456 74 375 C74 322 131 262 216 224 C281 195 325 151 325 113 C325 49 285 7 225 7 C200 7 166 15 132 28 C132 28 132 28 132 28 C117 33 94 44 74 55 C72 56 70 58 68 58 C68 58 61 58 61 58 L61 58 Z " />
<glyph glyph-name="Scircumflex" unicode="&#x15c;" horiz-adv-x="536" d="M56 73 C56 73 56 44 56 44 C112 12 200 -10 276 -10 C396 -10 477 67 477 181 C477 263 405 343 297 380 C188 418 116 481 116 538 C116 630 173 691 259 691 C293 691 349 673 404 644 C411 640 418 636 425 632 C427 631 430 629 432 627 C432 627 440 627 440 627 C440 627 440 656 440 656 C383 688 312 710 262 710 C142 710 62 629 62 507 C62 431 132 356 237 320 C348 282 422 213 422 150 C422 65 363 9 276 9 C236 9 187 18 142 35 C142 35 142 35 142 35 C121 42 93 55 71 68 C69 69 66 71 64 73 C64 73 56 73 56 73 L56 73 Z M259 897 C259 897 371 757 371 757 C371 757 378 764 378 764 C378 764 282 949 282 949 C279 955 270 970 259 970 C247 970 239 955 235 949 C235 949 139 764 139 764 C139 764 147 757 147 757 C147 757 259 897 259 897 L259 897 Z " />
<glyph glyph-name="Scedilla" unicode="&#x15e;" horiz-adv-x="536" d="M56 73 C56 73 56 44 56 44 C112 12 200 -10 276 -10 C396 -10 477 67 477 181 C477 263 405 343 297 380 C188 418 116 481 116 538 C116 630 173 691 259 691 C293 691 349 673 404 644 C411 640 418 636 425 632 C427 631 430 629 432 627 C432 627 440 627 440 627 C440 627 440 656 440 656 C383 688 312 710 262 710 C142 710 62 629 62 507 C62 431 132 356 237 320 C348 282 422 213 422 150 C422 65 363 9 276 9 C236 9 187 18 142 35 C142 35 142 35 142 35 C121 42 93 55 71 68 C69 69 66 71 64 73 C64 73 56 73 56 73 L56 73 Z " />
<glyph glyph-name="scedilla" unicode="&#x15f;" horiz-adv-x="450" d="M61 58 C61 58 61 32 61 32 C106 7 169 -10 221 -10 C320 -10 386 50 386 140 C386 190 339 245 268 276 C186 312 131 362 131 400 C131 456 172 494 234 494 C245 494 275 481 314 460 C322 456 333 450 349 441 C350 441 350 440 351 440 C351 440 351 440 351 440 C352 440 352 439 353 439 C354 439 356 438 357 437 C357 437 364 437 364 437 C364 437 364 463 364 463 C315 491 263 510 234 510 C138 510 74 456 74 375 C74 322 131 262 216 224 C281 195 325 151 325 113 C325 49 285 7 225 7 C200 7 166 15 132 28 C132 28 132 28 132 28 C117 33 94 44 74 55 C72 56 70 58 68 58 C68 58 61 58 61 58 L61 58 Z " />
<glyph glyph-name="Scaron" unicode="&#x160;" horiz-adv-x="536" d="M56 73 C56 73 56 44 56 44 C112 12 200 -10 276 -10 C396 -10 477 67 477 181 C477 263 405 343 297 380 C188 418 116 481 116 538 C116 630 173 691 259 691 C293 691 349 673 404 644 C411 640 418 636 425 632 C427 631 430 629 432 627 C432 627 440 627 440 627 C440 627 440 656 440 656 C383 688 312 710 262 710 C142 710 62 629 62 507 C62 431 132 356 237 320 C348 282 422 213 422 150 C422 65 363 9 276 9 C236 9 187 18 142 35 C142 35 142 35 142 35 C121 42 93 55 71 68 C69 69 66 71 64 73 C64 73 56 73 56 73 L56 73 Z M259 853 C259 853 371 993 371 993 C371 993 378 986 378 986 C378 986 282 801 282 801 C279 795 270 780 259 780 C247 780 239 795 235 801 C235 801 139 986 139 986 C139 986 147 993 147 993 C147 993 259 853 259 853 L259 853 Z " />
<glyph glyph-name="scaron" unicode="&#x161;" horiz-adv-x="450" d="M61 58 C61 58 61 32 61 32 C106 7 169 -10 221 -10 C320 -10 386 50 386 140 C386 190 339 245 268 276 C186 312 131 362 131 400 C131 456 172 494 234 494 C245 494 275 481 314 460 C322 456 333 450 349 441 C350 441 350 440 351 440 C351 440 351 440 351 440 C352 440 352 439 353 439 C354 439 356 438 357 437 C357 437 364 437 364 437 C364 437 364 463 364 463 C315 491 263 510 234 510 C138 510 74 456 74 375 C74 322 131 262 216 224 C281 195 325 151 325 113 C325 49 285 7 225 7 C200 7 166 15 132 28 C132 28 132 28 132 28 C117 33 94 44 74 55 C72 56 70 58 68 58 C68 58 61 58 61 58 L61 58 Z M234 653 C234 653 346 793 346 793 C346 793 354 786 354 786 C354 786 258 601 258 601 C254 595 246 580 234 580 C223 580 214 595 211 601 C211 601 115 786 115 786 C115 786 122 793 122 793 C122 793 234 653 234 653 L234 653 Z " />
<glyph glyph-name="Tcaron" unicode="&#x164;" horiz-adv-x="649" d="M366 9 C364 9 363 20 363 36 C363 36 363 681 363 681 C363 681 547 681 547 681 C570 681 594 679 609 675 C609 675 616 675 616 675 C616 680 616 686 615 690 C615 693 615 697 614 700 C614 700 595 700 595 700 C595 700 578 700 578 700 C578 700 71 700 71 700 C71 700 55 700 55 700 C55 700 35 700 35 700 C34 697 34 693 34 690 C33 686 33 680 33 675 C33 675 40 675 40 675 C55 679 79 681 102 681 C102 681 286 681 286 681 C286 681 286 36 286 36 C286 20 285 9 283 9 C283 9 283 0 283 0 C283 0 286 0 286 0 C286 0 325 0 325 0 C325 0 363 0 363 0 C363 0 366 0 366 0 C366 0 366 9 366 9 L366 9 Z M325 853 C325 853 437 993 437 993 C437 993 444 986 444 986 C444 986 348 801 348 801 C345 795 336 780 325 780 C313 780 305 795 301 801 C301 801 205 986 205 986 C205 986 213 993 213 993 C213 993 325 853 325 853 L325 853 Z " />
<glyph glyph-name="tcaron" unicode="&#x165;" horiz-adv-x="367" d="M322 500 C322 500 187 500 187 500 C187 500 187 646 187 646 C187 646 174 646 174 646 C174 646 157 597 157 597 C131 533 87 487 42 480 C42 480 40 480 40 480 C40 480 40 472 40 472 C40 472 113 472 113 472 C113 472 113 112 113 112 C113 17 132 -10 200 -10 C254 -10 295 11 333 43 C333 43 328 50 328 50 C308 34 282 23 236 23 C197 23 186 40 186 99 C186 99 187 472 187 472 C187 472 322 472 322 472 C322 472 322 500 322 500 L322 500 Z M446 634 C469 684 485 734 485 741 C485 753 453 758 439 758 C423 758 408 696 400 650 C400 650 369 487 369 487 C369 487 378 484 378 484 C378 484 446 634 446 634 L446 634 Z " />
<glyph glyph-name="Utilde" unicode="&#x168;" horiz-adv-x="559" d="M144 820 C144 858 162 883 189 883 C249 883 305 818 365 818 C406 818 433 861 433 927 C433 927 431 927 431 927 C431 891 411 867 381 867 C321 867 265 932 205 932 C167 932 142 887 142 820 C142 820 144 820 144 820 L144 820 Z M525 700 C525 700 521 700 521 700 C521 700 509 700 509 700 C509 700 497 700 497 700 C497 700 493 700 493 700 C493 700 493 691 493 691 C493 691 494 691 494 691 C496 691 497 678 497 660 C497 660 497 201 497 201 C497 91 443 17 303 17 C179 17 131 94 131 210 C131 210 131 664 131 664 C131 664 131 685 131 685 C131 689 132 691 133 691 C133 691 134 691 134 691 C133 691 133 693 134 696 C133 698 133 700 134 700 C134 700 131 700 131 700 C131 700 92 700 92 700 C92 700 53 700 53 700 C53 700 50 700 50 700 C50 700 50 691 50 691 C50 691 51 691 51 691 C52 691 53 680 53 664 C53 664 53 225 53 225 C53 84 120 -10 292 -10 C457 -10 521 71 521 193 C521 193 521 660 521 660 C522 678 523 691 524 691 C524 691 525 691 525 691 C525 691 525 700 525 700 L525 700 Z " />
<glyph glyph-name="utilde" unicode="&#x169;" horiz-adv-x="476" d="M84 620 C84 658 102 683 130 683 C190 683 246 618 306 618 C346 618 373 661 373 727 C373 727 371 727 371 727 C371 691 351 667 322 667 C262 667 206 732 146 732 C107 732 82 687 82 620 C82 620 84 620 84 620 L84 620 Z M347 491 C347 491 348 491 348 491 C349 491 350 480 350 464 C350 464 350 66 350 66 C330 49 294 38 234 38 C149 38 105 88 105 163 C105 163 105 500 105 500 C105 500 69 500 69 500 C69 500 32 500 32 500 C32 500 29 500 29 500 C29 500 29 491 29 491 C29 491 30 491 30 491 C31 491 32 480 32 464 C32 464 32 155 32 155 C32 56 81 -10 177 -10 C249 -10 307 15 350 54 C350 54 350 54 350 54 C350 54 350 19 350 19 C350 19 350 0 350 0 C350 0 365 0 365 0 C365 0 423 19 423 19 C423 19 423 19 423 19 C423 19 423 19 423 19 C423 19 426 20 426 20 C427 21 427 21 426 21 C427 24 427 26 426 26 C426 26 426 29 426 29 C424 43 424 50 423 73 C423 73 423 500 423 500 C423 500 387 500 387 500 C387 500 350 500 350 500 C350 500 347 500 347 500 C347 500 347 491 347 491 L347 491 Z " />
<glyph glyph-name="Umacron" unicode="&#x16a;" horiz-adv-x="559" d="M137 832 C137 832 437 832 437 832 C437 832 437 873 437 873 C437 873 137 873 137 873 C137 873 137 832 137 832 L137 832 Z M525 700 C525 700 521 700 521 700 C521 700 509 700 509 700 C509 700 497 700 497 700 C497 700 493 700 493 700 C493 700 493 691 493 691 C493 691 494 691 494 691 C496 691 497 678 497 660 C497 660 497 201 497 201 C497 91 443 17 303 17 C179 17 131 94 131 210 C131 210 131 664 131 664 C131 664 131 685 131 685 C131 689 132 691 133 691 C133 691 134 691 134 691 C133 691 133 693 134 696 C133 698 133 700 134 700 C134 700 131 700 131 700 C131 700 92 700 92 700 C92 700 53 700 53 700 C53 700 50 700 50 700 C50 700 50 691 50 691 C50 691 51 691 51 691 C52 691 53 680 53 664 C53 664 53 225 53 225 C53 84 120 -10 292 -10 C457 -10 521 71 521 193 C521 193 521 660 521 660 C522 678 523 691 524 691 C524 691 525 691 525 691 C525 691 525 700 525 700 L525 700 Z " />
<glyph glyph-name="umacron" unicode="&#x16b;" horiz-adv-x="476" d="M78 632 C78 632 378 632 378 632 C378 632 378 673 378 673 C378 673 78 673 78 673 C78 673 78 632 78 632 L78 632 Z M347 491 C347 491 348 491 348 491 C349 491 350 480 350 464 C350 464 350 66 350 66 C330 49 294 38 234 38 C149 38 105 88 105 163 C105 163 105 500 105 500 C105 500 69 500 69 500 C69 500 32 500 32 500 C32 500 29 500 29 500 C29 500 29 491 29 491 C29 491 30 491 30 491 C31 491 32 480 32 464 C32 464 32 155 32 155 C32 56 81 -10 177 -10 C249 -10 307 15 350 54 C350 54 350 54 350 54 C350 54 350 19 350 19 C350 19 350 0 350 0 C350 0 365 0 365 0 C365 0 423 19 423 19 C423 19 423 19 423 19 C423 19 423 19 423 19 C423 19 426 20 426 20 C427 21 427 21 426 21 C427 24 427 26 426 26 C426 26 426 29 426 29 C424 43 424 50 423 73 C423 73 423 500 423 500 C423 500 387 500 387 500 C387 500 350 500 350 500 C350 500 347 500 347 500 C347 500 347 491 347 491 L347 491 Z " />
<glyph glyph-name="Ubreve" unicode="&#x16c;" horiz-adv-x="559" d="M166 936 C185 864 233 816 287 816 C341 816 390 864 409 936 C409 936 396 939 396 939 C385 895 341 865 287 865 C234 865 190 895 178 939 C178 939 166 936 166 936 L166 936 Z M525 700 C525 700 521 700 521 700 C521 700 509 700 509 700 C509 700 497 700 497 700 C497 700 493 700 493 700 C493 700 493 691 493 691 C493 691 494 691 494 691 C496 691 497 678 497 660 C497 660 497 201 497 201 C497 91 443 17 303 17 C179 17 131 94 131 210 C131 210 131 664 131 664 C131 664 131 685 131 685 C131 689 132 691 133 691 C133 691 134 691 134 691 C133 691 133 693 134 696 C133 698 133 700 134 700 C134 700 131 700 131 700 C131 700 92 700 92 700 C92 700 53 700 53 700 C53 700 50 700 50 700 C50 700 50 691 50 691 C50 691 51 691 51 691 C52 691 53 680 53 664 C53 664 53 225 53 225 C53 84 120 -10 292 -10 C457 -10 521 71 521 193 C521 193 521 660 521 660 C522 678 523 691 524 691 C524 691 525 691 525 691 C525 691 525 700 525 700 L525 700 Z " />
<glyph glyph-name="ubreve" unicode="&#x16d;" horiz-adv-x="476" d="M106 736 C125 664 174 616 228 616 C282 616 330 664 349 736 C349 736 337 739 337 739 C325 695 281 665 228 665 C174 665 130 695 119 739 C119 739 106 736 106 736 L106 736 Z M347 491 C347 491 348 491 348 491 C349 491 350 480 350 464 C350 464 350 66 350 66 C330 49 294 38 234 38 C149 38 105 88 105 163 C105 163 105 500 105 500 C105 500 69 500 69 500 C69 500 32 500 32 500 C32 500 29 500 29 500 C29 500 29 491 29 491 C29 491 30 491 30 491 C31 491 32 480 32 464 C32 464 32 155 32 155 C32 56 81 -10 177 -10 C249 -10 307 15 350 54 C350 54 350 54 350 54 C350 54 350 19 350 19 C350 19 350 0 350 0 C350 0 365 0 365 0 C365 0 423 19 423 19 C423 19 423 19 423 19 C423 19 423 19 423 19 C423 19 426 20 426 20 C427 21 427 21 426 21 C427 24 427 26 426 26 C426 26 426 29 426 29 C424 43 424 50 423 73 C423 73 423 500 423 500 C423 500 387 500 387 500 C387 500 350 500 350 500 C350 500 347 500 347 500 C347 500 347 491 347 491 L347 491 Z " />
<glyph glyph-name="Uring" unicode="&#x16e;" horiz-adv-x="559" d="M287 776 C246 776 210 812 210 855 C210 902 241 934 287 934 C333 934 364 902 364 855 C364 812 329 776 287 776 L287 776 Z M190 855 C190 804 235 760 287 760 C340 760 385 804 385 855 C385 912 346 950 287 950 C229 950 190 912 190 855 L190 855 Z M525 700 C525 700 521 700 521 700 C521 700 509 700 509 700 C509 700 497 700 497 700 C497 700 493 700 493 700 C493 700 493 691 493 691 C493 691 494 691 494 691 C496 691 497 678 497 660 C497 660 497 201 497 201 C497 91 443 17 303 17 C179 17 131 94 131 210 C131 210 131 664 131 664 C131 664 131 685 131 685 C131 689 132 691 133 691 C133 691 134 691 134 691 C133 691 133 693 134 696 C133 698 133 700 134 700 C134 700 131 700 131 700 C131 700 92 700 92 700 C92 700 53 700 53 700 C53 700 50 700 50 700 C50 700 50 691 50 691 C50 691 51 691 51 691 C52 691 53 680 53 664 C53 664 53 225 53 225 C53 84 120 -10 292 -10 C457 -10 521 71 521 193 C521 193 521 660 521 660 C522 678 523 691 524 691 C524 691 525 691 525 691 C525 691 525 700 525 700 L525 700 Z " />
<glyph glyph-name="uring" unicode="&#x16f;" horiz-adv-x="476" d="M228 576 C186 576 151 612 151 655 C151 702 182 734 228 734 C274 734 305 702 305 655 C305 612 269 576 228 576 L228 576 Z M131 655 C131 604 176 560 228 560 C280 560 325 604 325 655 C325 712 286 750 228 750 C170 750 131 712 131 655 L131 655 Z M347 491 C347 491 348 491 348 491 C349 491 350 480 350 464 C350 464 350 66 350 66 C330 49 294 38 234 38 C149 38 105 88 105 163 C105 163 105 500 105 500 C105 500 69 500 69 500 C69 500 32 500 32 500 C32 500 29 500 29 500 C29 500 29 491 29 491 C29 491 30 491 30 491 C31 491 32 480 32 464 C32 464 32 155 32 155 C32 56 81 -10 177 -10 C249 -10 307 15 350 54 C350 54 350 54 350 54 C350 54 350 19 350 19 C350 19 350 0 350 0 C350 0 365 0 365 0 C365 0 423 19 423 19 C423 19 423 19 423 19 C423 19 423 19 423 19 C423 19 426 20 426 20 C427 21 427 21 426 21 C427 24 427 26 426 26 C426 26 426 29 426 29 C424 43 424 50 423 73 C423 73 423 500 423 500 C423 500 387 500 387 500 C387 500 350 500 350 500 C350 500 347 500 347 500 C347 500 347 491 347 491 L347 491 Z " />
<glyph glyph-name="Wcircumflex" unicode="&#x174;" horiz-adv-x="866" d="M816 691 C817 691 815 680 810 664 C810 664 810 664 810 664 C810 664 625 -30 625 -30 C625 -30 645 -30 645 -30 C645 -30 839 680 839 680 C842 687 844 691 845 691 C845 691 845 700 845 700 C845 700 832 700 832 700 C832 700 820 700 820 700 C820 700 816 700 816 700 C816 700 816 691 816 691 L816 691 Z M111 700 C111 700 107 700 107 700 C107 700 65 700 65 700 C65 700 22 700 22 700 C22 700 22 699 22 699 C22 698 23 697 22 696 C23 693 23 691 23 691 C24 691 26 685 30 675 C30 675 252 -30 252 -30 C252 -30 273 -30 273 -30 C273 -30 433 580 433 580 C433 580 625 -30 625 -30 C625 -30 660 102 660 102 C660 102 470 720 470 720 C470 720 450 720 450 720 C450 720 285 94 285 94 C285 94 118 664 118 664 C118 664 118 664 118 664 C113 680 110 691 111 691 C111 691 111 700 111 700 L111 700 Z M460 897 C460 897 572 757 572 757 C572 757 580 764 580 764 C580 764 484 949 484 949 C480 955 472 970 460 970 C449 970 440 955 437 949 C437 949 341 764 341 764 C341 764 348 757 348 757 C348 757 460 897 460 897 L460 897 Z " />
<glyph glyph-name="Ycircumflex" unicode="&#x176;" horiz-adv-x="560" d="M328 9 C328 9 327 9 327 9 C326 9 325 20 325 36 C325 36 325 317 325 317 C325 317 325 317 325 317 C325 317 519 664 519 664 C519 664 519 664 519 664 C528 680 535 691 536 691 C536 691 537 691 537 691 C537 692 539 699 539 700 C539 700 527 700 527 700 C527 700 515 700 515 700 C515 700 510 700 510 700 C510 700 510 691 510 691 C510 691 502 677 490 655 C490 655 490 655 490 655 C490 655 315 336 315 336 C315 336 145 664 145 664 C145 664 145 664 145 664 C143 668 141 672 139 675 C139 675 131 691 131 691 C131 692 131 694 130 696 C130 696 130 700 130 700 C130 700 126 700 126 700 C126 700 80 700 80 700 C80 700 33 700 33 700 C33 700 34 698 34 696 C35 693 35 691 35 691 C35 691 36 691 36 691 C37 691 41 683 48 672 C48 672 247 288 247 288 C247 288 247 36 247 36 C247 20 246 9 245 9 C245 9 244 9 244 9 C244 9 244 0 244 0 C244 0 247 0 247 0 C247 0 286 0 286 0 C286 0 325 0 325 0 C325 0 328 0 328 0 C328 0 328 9 328 9 L328 9 Z M286 897 C286 897 398 757 398 757 C398 757 406 764 406 764 C406 764 310 949 310 949 C306 955 298 970 286 970 C274 970 266 955 263 949 C263 949 167 764 167 764 C167 764 174 757 174 757 C174 757 286 897 286 897 L286 897 Z " />
<glyph glyph-name="Ydieresis" unicode="&#x178;" horiz-adv-x="560" d="M379 820 C406 820 424 838 424 865 C424 892 406 910 379 910 C352 910 334 892 334 865 C334 838 352 820 379 820 L379 820 Z M193 820 C220 820 238 838 238 865 C238 892 220 910 193 910 C166 910 148 892 148 865 C148 838 166 820 193 820 L193 820 Z M328 9 C328 9 327 9 327 9 C326 9 325 20 325 36 C325 36 325 317 325 317 C325 317 325 317 325 317 C325 317 519 664 519 664 C519 664 519 664 519 664 C528 680 535 691 536 691 C536 691 537 691 537 691 C537 692 539 699 539 700 C539 700 527 700 527 700 C527 700 515 700 515 700 C515 700 510 700 510 700 C510 700 510 691 510 691 C510 691 502 677 490 655 C490 655 490 655 490 655 C490 655 315 336 315 336 C315 336 145 664 145 664 C145 664 145 664 145 664 C143 668 141 672 139 675 C139 675 131 691 131 691 C131 692 131 694 130 696 C130 696 130 700 130 700 C130 700 126 700 126 700 C126 700 80 700 80 700 C80 700 33 700 33 700 C33 700 34 698 34 696 C35 693 35 691 35 691 C35 691 36 691 36 691 C37 691 41 683 48 672 C48 672 247 288 247 288 C247 288 247 36 247 36 C247 20 246 9 245 9 C245 9 244 9 244 9 C244 9 244 0 244 0 C244 0 247 0 247 0 C247 0 286 0 286 0 C286 0 325 0 325 0 C325 0 328 0 328 0 C328 0 328 9 328 9 L328 9 Z " />
<glyph glyph-name="Zacute" unicode="&#x179;" horiz-adv-x="599" d="M341 755 C341 755 454 883 454 883 C477 910 493 930 493 935 C493 944 464 965 451 965 C448 965 435 944 416 912 C416 912 333 762 333 762 C333 762 341 755 341 755 L341 755 Z M518 26 C506 22 483 20 458 20 C458 20 159 20 159 20 C159 20 544 700 544 700 C544 700 500 700 500 700 C500 700 456 700 456 700 C456 700 158 700 158 700 C158 700 141 700 141 700 C141 700 121 700 121 700 C120 697 119 693 119 690 C117 686 116 680 115 676 C115 676 122 676 122 676 C137 680 163 681 185 681 C185 681 445 681 445 681 C445 681 61 0 61 0 C61 0 104 0 104 0 C104 0 148 0 148 0 C148 0 489 0 489 0 C489 0 522 0 522 0 C522 0 525 0 525 0 C525 3 526 7 527 10 C528 15 529 21 529 26 C529 26 518 26 518 26 L518 26 Z " />
<glyph glyph-name="zacute" unicode="&#x17a;" horiz-adv-x="512" d="M200 555 C200 555 312 683 312 683 C335 710 351 730 351 735 C351 744 322 765 309 765 C306 765 293 744 275 712 C275 712 191 562 191 562 C191 562 200 555 200 555 L200 555 Z M149 483 C149 483 149 483 149 483 C149 483 354 484 354 484 C354 484 64 0 64 0 C64 0 107 0 107 0 C107 0 150 0 150 0 C150 0 394 0 394 0 C394 0 427 0 427 0 C427 0 431 0 431 0 C431 2 432 6 432 8 C433 12 434 18 434 22 C434 22 432 22 432 22 C427 22 423 22 423 23 C413 20 399 17 381 17 C381 17 369 17 369 17 C368 17 366 17 364 17 C364 17 364 17 364 17 C364 17 160 16 160 16 C160 16 448 500 448 500 C448 500 406 500 406 500 C406 500 364 500 364 500 C364 500 121 500 121 500 C121 500 105 500 105 500 C105 500 85 500 85 500 C84 498 83 494 83 491 C82 488 80 483 80 479 C80 479 86 479 86 479 C102 482 126 483 149 483 C149 483 149 483 149 483 L149 483 Z " />
<glyph glyph-name="Zdotaccent" unicode="&#x17b;" horiz-adv-x="599" d="M342 820 C369 820 387 838 387 865 C387 892 369 910 342 910 C316 910 298 892 298 865 C298 838 316 820 342 820 L342 820 Z M518 26 C506 22 483 20 458 20 C458 20 159 20 159 20 C159 20 544 700 544 700 C544 700 500 700 500 700 C500 700 456 700 456 700 C456 700 158 700 158 700 C158 700 141 700 141 700 C141 700 121 700 121 700 C120 697 119 693 119 690 C117 686 116 680 115 676 C115 676 122 676 122 676 C137 680 163 681 185 681 C185 681 445 681 445 681 C445 681 61 0 61 0 C61 0 104 0 104 0 C104 0 148 0 148 0 C148 0 489 0 489 0 C489 0 522 0 522 0 C522 0 525 0 525 0 C525 3 526 7 527 10 C528 15 529 21 529 26 C529 26 518 26 518 26 L518 26 Z " />
<glyph glyph-name="zdotaccent" unicode="&#x17c;" horiz-adv-x="512" d="M276 620 C303 620 321 638 321 665 C321 692 303 710 276 710 C250 710 232 692 232 665 C232 638 250 620 276 620 L276 620 Z M149 483 C149 483 149 483 149 483 C149 483 354 484 354 484 C354 484 64 0 64 0 C64 0 107 0 107 0 C107 0 150 0 150 0 C150 0 394 0 394 0 C394 0 427 0 427 0 C427 0 431 0 431 0 C431 2 432 6 432 8 C433 12 434 18 434 22 C434 22 432 22 432 22 C427 22 423 22 423 23 C413 20 399 17 381 17 C381 17 369 17 369 17 C368 17 366 17 364 17 C364 17 364 17 364 17 C364 17 160 16 160 16 C160 16 448 500 448 500 C448 500 406 500 406 500 C406 500 364 500 364 500 C364 500 121 500 121 500 C121 500 105 500 105 500 C105 500 85 500 85 500 C84 498 83 494 83 491 C82 488 80 483 80 479 C80 479 86 479 86 479 C102 482 126 483 149 483 C149 483 149 483 149 483 L149 483 Z " />
<glyph glyph-name="Zcaron" unicode="&#x17d;" horiz-adv-x="599" d="M518 26 C506 22 483 20 458 20 C458 20 159 20 159 20 C159 20 544 700 544 700 C544 700 500 700 500 700 C500 700 456 700 456 700 C456 700 158 700 158 700 C158 700 141 700 141 700 C141 700 121 700 121 700 C120 697 119 693 119 690 C117 686 116 680 115 676 C115 676 122 676 122 676 C137 680 163 681 185 681 C185 681 445 681 445 681 C445 681 61 0 61 0 C61 0 104 0 104 0 C104 0 148 0 148 0 C148 0 489 0 489 0 C489 0 522 0 522 0 C522 0 525 0 525 0 C525 3 526 7 527 10 C528 15 529 21 529 26 C529 26 518 26 518 26 L518 26 Z M342 853 C342 853 454 993 454 993 C454 993 462 986 462 986 C462 986 366 801 366 801 C363 795 354 780 342 780 C331 780 322 795 319 801 C319 801 223 986 223 986 C223 986 230 993 230 993 C230 993 342 853 342 853 L342 853 Z " />
<glyph glyph-name="zcaron" unicode="&#x17e;" horiz-adv-x="512" d="M149 483 C149 483 149 483 149 483 C149 483 354 484 354 484 C354 484 64 0 64 0 C64 0 107 0 107 0 C107 0 150 0 150 0 C150 0 394 0 394 0 C394 0 427 0 427 0 C427 0 431 0 431 0 C431 2 432 6 432 8 C433 12 434 18 434 22 C434 22 432 22 432 22 C427 22 423 22 423 23 C413 20 399 17 381 17 C381 17 369 17 369 17 C368 17 366 17 364 17 C364 17 364 17 364 17 C364 17 160 16 160 16 C160 16 448 500 448 500 C448 500 406 500 406 500 C406 500 364 500 364 500 C364 500 121 500 121 500 C121 500 105 500 105 500 C105 500 85 500 85 500 C84 498 83 494 83 491 C82 488 80 483 80 479 C80 479 86 479 86 479 C102 482 126 483 149 483 C149 483 149 483 149 483 L149 483 Z M276 653 C276 653 388 793 388 793 C388 793 396 786 396 786 C396 786 300 601 300 601 C297 595 288 580 276 580 C265 580 256 595 253 601 C253 601 157 786 157 786 C157 786 164 793 164 793 C164 793 276 653 276 653 L276 653 Z " />
<glyph glyph-name="SmallLetterOwithogon" unicode="&#x1eb;" horiz-adv-x="728" d="M729 -63 C729 -63 722 -58 722 -58 C703 -80 649 -95 587 -95 C491 -95 422 -62 373 -10 C565 -8 664 126 664 283 C664 442 563 577 368 577 C173 577 72 442 72 283 C72 131 166 0 347 -9 C419 -90 498 -143 579 -143 C629 -143 689 -111 729 -63 L729 -63 Z M368 7 C223 7 149 134 149 283 C149 432 223 559 368 559 C513 559 587 432 587 283 C587 134 513 7 368 7 L368 7 Z " />
<glyph glyph-name="CapitalLetterAwithdo" unicode="&#x226;" horiz-adv-x="574" d="M269 820 C295 820 313 838 313 865 C313 892 295 910 269 910 C242 910 224 892 224 865 C224 838 242 820 269 820 L269 820 Z M545 9 C545 9 544 9 544 9 C541 9 535 20 529 36 C529 36 529 36 529 36 C529 36 278 716 278 716 C278 716 259 716 259 716 C259 716 35 32 35 32 C29 18 26 9 24 9 C24 9 24 0 24 0 C24 0 37 0 37 0 C37 0 49 0 49 0 C49 0 54 0 54 0 C54 0 54 9 54 9 C54 9 53 9 53 9 C53 9 56 22 63 43 C63 43 63 43 63 43 C63 43 129 250 129 250 C129 250 370 250 370 250 C370 250 445 36 445 36 C445 36 445 36 445 36 C451 20 454 9 454 9 C454 9 455 9 455 9 C455 9 457 3 457 3 C457 3 457 0 457 0 C457 0 458 0 458 0 C458 0 500 0 500 0 C500 0 542 0 542 0 C542 0 545 0 545 0 C545 0 545 9 545 9 L545 9 Z M364 269 C364 269 135 269 135 269 C135 269 244 610 244 610 C244 610 364 269 364 269 L364 269 Z " />
<glyph glyph-name="LETTERSMALLCAPITALG" unicode="&#x262;" horiz-adv-x="702" d="M598 266 C598 266 595 266 595 266 C595 266 564 266 564 266 C564 266 532 266 532 266 C532 266 529 266 529 266 C529 266 529 257 529 257 C529 257 530 257 530 257 C531 257 532 246 532 230 C532 230 532 45 532 45 C476 22 414 7 365 7 C235 7 149 118 149 283 C149 449 235 559 365 559 C404 559 454 548 502 531 C502 531 502 531 502 531 C527 522 556 508 575 495 C577 493 580 491 582 490 C582 490 590 490 590 490 C590 490 590 511 590 511 C521 550 431 577 365 577 C189 577 72 460 72 283 C72 107 189 -10 365 -10 C434 -10 526 17 595 56 C595 56 595 230 595 230 C595 246 596 257 598 257 C598 257 598 266 598 266 L598 266 Z " />
<glyph glyph-name="LETTERSMALLCAPITALI" unicode="&#x26a;" horiz-adv-x="190" d="M136 567 C135 567 134 567 133 567 C133 567 133 567 133 567 C133 567 98 567 98 567 C98 567 63 567 63 567 C63 567 63 567 63 567 C62 567 61 567 60 567 C60 567 60 558 60 558 C60 558 61 558 61 558 C62 558 63 547 63 530 C63 530 63 36 63 36 C63 20 62 9 61 9 C61 9 60 9 60 9 C60 9 60 0 60 0 C60 0 63 0 63 0 C63 0 98 0 98 0 C98 0 133 0 133 0 C133 0 136 0 136 0 C136 0 136 9 136 9 C134 9 133 20 133 36 C133 36 133 530 133 530 C133 547 134 558 136 558 C136 558 136 567 136 567 L136 567 Z " />
<glyph glyph-name="LETTERSMALLCAPITALN" unicode="&#x274;" horiz-adv-x="521" d="M83 9 C81 9 80 20 80 36 C80 36 80 504 80 504 C80 504 421 32 421 32 C421 32 454 -15 454 -15 C454 -15 473 -15 473 -15 C473 -15 473 57 473 57 C473 57 473 530 473 530 C474 547 475 558 476 558 C477 558 477 560 476 562 C477 565 477 566 476 567 C475 567 474 567 473 566 C473 566 473 567 473 567 C473 567 463 567 463 567 C463 567 453 567 453 567 C453 567 453 566 453 566 C452 567 451 567 450 567 C450 567 450 558 450 558 C452 558 453 547 453 530 C453 530 453 104 453 104 C453 104 120 567 120 567 C120 567 80 536 80 536 C80 536 80 537 80 537 C80 537 120 567 120 567 C120 567 80 567 80 567 C80 567 70 567 70 567 C70 567 59 567 59 567 C59 567 59 566 59 566 C58 567 57 567 56 567 C56 567 56 558 56 558 C56 558 57 558 57 558 C58 558 59 547 59 530 C59 530 59 36 59 36 C59 20 58 9 57 9 C57 9 56 9 56 9 C56 9 56 0 56 0 C56 0 59 0 59 0 C59 0 70 0 70 0 C70 0 80 0 80 0 C80 0 83 0 83 0 C83 0 83 9 83 9 L83 9 Z " />
<glyph glyph-name="LETTERSMALLCAPITALR" unicode="&#x280;" horiz-adv-x="530" d="M62 558 C62 558 63 558 63 558 C64 558 65 547 65 530 C65 530 65 36 65 36 C65 20 64 9 63 9 C63 9 62 9 62 9 C62 9 62 0 62 0 C62 0 65 0 65 0 C65 0 100 0 100 0 C100 0 135 0 135 0 C135 0 138 0 138 0 C138 0 138 9 138 9 C138 9 137 9 137 9 C136 9 135 20 135 36 C135 36 135 270 135 270 C135 270 183 270 183 270 C183 270 320 106 320 106 C404 4 411 0 489 0 C489 0 516 0 516 0 C516 0 516 14 516 14 C516 14 511 14 511 14 C485 14 481 17 420 92 C420 92 266 276 266 276 C351 294 404 348 404 422 C404 509 329 567 217 567 C217 567 135 567 135 567 C135 567 100 567 100 567 C100 567 65 567 65 567 C65 567 65 567 65 567 C64 567 63 567 62 567 C62 567 62 558 62 558 L62 558 Z M200 288 C200 288 168 288 168 288 C168 288 135 288 135 288 C135 288 135 548 135 548 C135 548 217 548 217 548 C285 548 331 498 331 422 C331 342 279 288 200 288 L200 288 Z " />
<glyph glyph-name="LETTERSMALLCAPITALY" unicode="&#x28f;" horiz-adv-x="493" d="M291 9 C289 9 288 20 288 36 C288 36 288 259 288 259 C288 259 288 259 288 259 C288 259 449 530 449 530 C449 530 450 530 450 530 C460 547 467 558 469 558 C469 559 472 566 471 567 C471 567 460 567 460 567 C460 567 450 567 450 567 C450 567 450 566 450 566 C448 566 446 567 445 567 C445 567 445 562 445 562 C442 556 439 548 423 522 C423 522 424 522 424 522 C424 522 276 270 276 270 C276 270 133 541 133 541 C128 551 124 558 124 558 C124 558 124 560 123 562 C123 562 123 567 123 567 C122 567 120 567 119 567 C119 567 119 567 119 567 C119 567 77 567 77 567 C77 567 35 567 35 567 C35 567 36 565 36 565 C36 564 37 563 37 562 C37 560 38 558 38 558 C39 558 46 547 55 530 C55 530 55 530 55 530 C55 530 219 233 219 233 C219 233 219 36 219 36 C219 20 218 9 216 9 C216 9 216 0 216 0 C216 0 219 0 219 0 C219 0 253 0 253 0 C253 0 288 0 288 0 C288 0 291 0 291 0 C291 0 291 9 291 9 L291 9 Z " />
<glyph glyph-name="LETTERSMALLCAPITALB" unicode="&#x299;" horiz-adv-x="488" d="M62 558 C62 558 63 558 63 558 C64 558 65 547 65 530 C65 530 65 36 65 36 C65 20 64 9 63 9 C63 9 62 9 62 9 C62 9 62 0 62 0 C62 0 65 0 65 0 C65 0 100 0 100 0 C100 0 135 0 135 0 C135 0 238 0 238 0 C367 0 454 63 454 156 C454 236 384 292 273 306 C351 324 400 371 400 435 C400 514 327 567 217 567 C217 567 135 567 135 567 C135 567 100 567 100 567 C100 567 65 567 65 567 C65 567 65 567 65 567 C64 567 63 567 62 567 C62 567 62 558 62 558 L62 558 Z M135 309 C135 309 135 548 135 548 C135 548 217 548 217 548 C285 548 331 503 331 435 C331 359 279 309 200 309 C200 309 135 309 135 309 L135 309 Z M135 295 C135 295 196 295 196 295 C307 295 381 240 381 156 C381 73 321 18 230 18 C230 18 135 18 135 18 C135 18 135 295 135 295 L135 295 Z " />
<glyph glyph-name="LETTERSMALLCAPITALH" unicode="&#x29c;" horiz-adv-x="600" d="M546 567 C545 567 544 567 543 567 C543 567 543 567 543 567 C543 567 508 567 508 567 C508 567 473 567 473 567 C473 567 473 567 473 567 C472 567 471 567 470 567 C470 567 470 558 470 558 C470 558 471 558 471 558 C472 558 473 547 473 530 C473 530 473 308 473 308 C473 308 130 308 130 308 C130 308 130 530 130 530 C130 547 131 558 133 558 C133 558 133 567 133 567 C132 567 131 567 130 567 C130 567 130 567 130 567 C130 567 95 567 95 567 C95 567 61 567 61 567 C61 567 61 567 61 567 C60 567 59 567 58 567 C58 567 58 558 58 558 C60 558 61 547 61 530 C61 530 61 36 61 36 C61 20 60 9 58 9 C58 9 58 0 58 0 C58 0 61 0 61 0 C61 0 95 0 95 0 C95 0 130 0 130 0 C130 0 133 0 133 0 C133 0 133 9 133 9 C131 9 130 20 130 36 C130 36 130 291 130 291 C130 291 473 291 473 291 C473 291 473 36 473 36 C473 20 472 9 471 9 C471 9 470 9 470 9 C470 9 470 0 470 0 C470 0 473 0 473 0 C473 0 508 0 508 0 C508 0 543 0 543 0 C543 0 546 0 546 0 C546 0 546 9 546 9 C546 9 545 9 545 9 C544 9 543 20 543 36 C543 36 543 530 543 530 C543 547 544 558 545 558 C545 558 546 558 546 558 C546 558 546 567 546 567 L546 567 Z " />
<glyph glyph-name="LETTERSMALLCAPITALL" unicode="&#x29f;" horiz-adv-x="437" d="M133 567 C132 567 131 567 130 567 C130 567 130 567 130 567 C130 567 95 567 95 567 C95 567 61 567 61 567 C61 567 61 567 61 567 C60 567 59 567 58 567 C58 567 58 558 58 558 C60 558 61 547 61 530 C61 530 61 36 61 36 C61 20 60 9 58 9 C58 9 58 0 58 0 C58 0 61 0 61 0 C61 0 95 0 95 0 C95 0 130 0 130 0 C130 0 347 0 347 0 C347 0 380 0 380 0 C380 0 383 0 383 0 C383 2 384 6 384 9 C385 13 386 19 387 23 C387 23 385 23 385 23 C380 24 376 24 376 23 C363 19 341 18 316 17 C316 17 130 17 130 17 C130 17 130 530 130 530 C130 547 131 558 133 558 C133 558 133 567 133 567 L133 567 Z " />
<glyph glyph-name="LETTERSMALLCAPITALA" unicode="&#x1d00;" horiz-adv-x="505" d="M477 9 C477 9 476 9 476 9 C473 9 467 20 460 36 C460 36 460 36 460 36 C460 36 245 580 245 580 C245 580 228 580 228 580 C228 580 33 26 33 26 C29 16 26 9 25 9 C25 9 24 9 24 9 C24 9 24 0 24 0 C24 0 36 0 36 0 C36 0 47 0 47 0 C47 0 52 0 52 0 C52 0 52 9 52 9 C51 9 55 22 62 43 C62 43 62 43 62 43 C62 43 116 202 116 202 C116 202 321 202 321 202 C321 202 391 18 391 18 C393 12 394 9 393 9 C393 9 395 9 395 9 C395 9 397 3 397 3 C397 3 397 0 397 0 C397 0 398 0 398 0 C398 0 436 0 436 0 C436 0 474 0 474 0 C474 0 477 0 477 0 C477 0 477 9 477 9 L477 9 Z M315 219 C315 219 122 219 122 219 C122 219 213 487 213 487 C213 487 315 219 315 219 L315 219 Z " />
<glyph glyph-name="LETTERSMALLCAPITALC" unicode="&#x1d04;" horiz-adv-x="684" d="M610 490 C610 490 610 511 610 511 C541 550 447 577 375 577 C193 577 72 460 72 283 C72 107 193 -10 375 -10 C447 -10 541 16 610 56 C610 56 610 77 610 77 C610 77 602 77 602 77 C600 75 597 73 595 72 C573 57 538 40 507 31 C507 31 507 31 507 31 C462 16 415 7 375 7 C240 7 149 118 149 283 C149 449 240 559 375 559 C424 559 484 546 539 524 C558 516 580 505 595 495 C597 493 600 491 602 490 C602 490 610 490 610 490 L610 490 Z " />
<glyph glyph-name="LETTERSMALLCAPITALD" unicode="&#x1d05;" horiz-adv-x="584" d="M62 558 C62 558 63 558 63 558 C64 558 65 547 65 530 C65 530 65 36 65 36 C65 20 64 9 63 9 C63 9 62 9 62 9 C62 9 62 0 62 0 C62 0 65 0 65 0 C65 0 100 0 100 0 C100 0 135 0 135 0 C135 0 240 0 240 0 C408 0 520 113 520 283 C520 454 398 567 214 567 C214 567 135 567 135 567 C135 567 100 567 100 567 C100 567 65 567 65 567 C65 567 65 567 65 567 C64 567 63 567 62 567 C62 567 62 558 62 558 L62 558 Z M135 18 C135 18 135 548 135 548 C135 548 214 548 214 548 C356 548 451 442 451 283 C451 124 367 18 240 18 C240 18 135 18 135 18 L135 18 Z " />
<glyph glyph-name="LETTERSMALLCAPITALE" unicode="&#x1d07;" horiz-adv-x="437" d="M308 314 C303 312 293 311 279 311 C279 311 259 311 259 311 C259 311 130 311 130 311 C130 311 130 549 130 549 C130 549 305 549 305 549 C333 549 358 548 373 544 C373 544 379 544 379 544 C379 544 379 558 379 558 C379 558 379 567 379 567 C379 566 377 566 375 567 C374 566 372 566 370 567 C370 567 343 567 343 567 C343 567 130 567 130 567 C130 567 95 567 95 567 C95 567 61 567 61 567 C61 567 61 567 61 567 C60 567 59 567 58 567 C58 567 58 558 58 558 C60 558 61 547 61 530 C61 530 61 36 61 36 C61 20 60 9 58 9 C58 9 58 0 58 0 C58 0 61 0 61 0 C61 0 95 0 95 0 C95 0 130 0 130 0 C130 0 347 0 347 0 C347 0 380 0 380 0 C380 0 383 0 383 0 C383 2 384 6 384 9 C385 13 386 19 387 23 C387 23 381 23 381 23 C365 19 340 18 312 17 C312 17 130 17 130 17 C130 17 130 294 130 294 C130 294 259 294 259 294 C283 294 300 294 308 290 C308 290 315 290 315 290 C315 290 315 294 315 294 C315 294 315 302 315 302 C315 302 315 311 315 311 C315 311 315 314 315 314 C315 314 308 314 308 314 L308 314 Z " />
<glyph glyph-name="LETTERSMALLCAPITALJ" unicode="&#x1d0a;" horiz-adv-x="281" d="M227 567 C226 567 225 567 224 567 C224 567 224 567 224 567 C224 567 189 567 189 567 C189 567 154 567 154 567 C154 567 154 567 154 567 C153 567 152 567 151 567 C151 567 151 558 151 558 C151 558 152 558 152 558 C153 558 154 547 154 530 C154 530 154 172 154 172 C154 44 142 -5 112 -5 C99 -5 85 17 77 50 C72 67 59 79 44 79 C22 79 10 67 14 50 C25 8 57 -20 94 -20 C188 -20 224 50 224 230 C224 230 224 530 224 530 C224 547 225 558 226 558 C226 558 227 558 227 558 C227 558 227 567 227 567 L227 567 Z " />
<glyph glyph-name="LETTERSMALLCAPITALK" unicode="&#x1d0b;" horiz-adv-x="533" d="M138 567 C137 567 136 567 135 567 C135 567 135 567 135 567 C135 567 100 567 100 567 C100 567 65 567 65 567 C65 567 65 567 65 567 C64 567 63 567 62 567 C62 567 62 558 62 558 C62 558 63 558 63 558 C64 558 65 547 65 530 C65 530 65 36 65 36 C65 20 64 9 63 9 C63 9 62 9 62 9 C62 9 62 0 62 0 C62 0 65 0 65 0 C65 0 100 0 100 0 C100 0 135 0 135 0 C135 0 138 0 138 0 C138 0 138 9 138 9 C138 9 137 9 137 9 C136 9 135 20 135 36 C135 36 135 305 135 305 C135 305 249 156 249 156 C340 37 406 -10 482 -10 C482 -10 509 -10 509 -10 C509 -10 509 4 509 4 C509 4 504 4 504 4 C469 4 412 62 298 210 C298 210 196 345 196 345 C196 345 368 530 368 530 C368 530 368 530 368 530 C383 547 395 558 396 558 C396 558 397 558 397 558 C398 560 402 566 402 567 C402 567 391 567 391 567 C391 567 381 567 381 567 C381 567 381 567 381 567 C380 567 379 567 378 567 C378 566 375 562 374 559 C374 559 185 359 185 359 C185 359 185 359 185 359 C185 359 135 305 135 305 C135 305 135 530 135 530 C135 547 136 558 137 558 C137 558 138 558 138 558 C138 558 138 567 138 567 L138 567 Z " />
<glyph glyph-name="LETTERSMALLCAPITALM" unicode="&#x1d0d;" horiz-adv-x="650" d="M605 567 C604 567 604 567 603 567 C603 567 603 567 603 567 C603 567 571 567 571 567 C571 567 566 567 566 567 C566 567 540 567 540 567 C540 567 347 74 347 74 C347 74 343 83 343 83 C343 83 124 567 124 567 C124 567 95 567 95 567 C95 567 85 567 85 567 C85 567 75 567 75 567 C75 567 75 566 75 566 C74 567 73 567 72 567 C71 566 71 565 72 562 C71 560 71 558 72 558 C73 558 74 547 73 530 C73 530 73 530 73 530 C73 530 52 36 52 36 C52 36 51 36 51 36 C50 20 49 9 47 9 C47 9 47 0 47 0 C47 0 50 0 50 0 C50 0 60 0 60 0 C60 0 70 0 70 0 C70 0 75 0 75 0 C75 0 75 9 75 9 C75 9 74 9 74 9 C72 9 72 22 72 43 C72 43 72 43 72 43 C72 43 91 480 91 480 C91 480 295 32 295 32 C295 32 314 -10 314 -10 C314 -10 332 -10 332 -10 C332 -10 542 509 542 509 C542 509 562 25 562 25 C562 15 562 9 560 9 C560 9 560 0 560 0 C560 0 563 0 563 0 C563 0 598 0 598 0 C598 0 633 0 633 0 C633 0 635 0 635 0 C635 0 635 9 635 9 C634 9 633 12 632 18 C632 18 605 530 605 530 C605 530 605 530 605 530 C604 547 604 558 605 558 C605 558 605 567 605 567 L605 567 Z " />
<glyph glyph-name="LETTERSMALLCAPITALO" unicode="&#x1d0f;" horiz-adv-x="728" d="M368 7 C223 7 149 134 149 283 C149 432 223 559 368 559 C513 559 587 432 587 283 C587 134 513 7 368 7 L368 7 Z M72 283 C72 125 173 -10 368 -10 C563 -10 664 125 664 283 C664 442 563 577 368 577 C173 577 72 442 72 283 L72 283 Z " />
<glyph glyph-name="LETTERSMALLCAPITALP" unicode="&#x1d18;" horiz-adv-x="474" d="M62 558 C62 558 63 558 63 558 C64 558 65 547 65 530 C65 530 65 36 65 36 C65 20 64 9 63 9 C63 9 62 9 62 9 C62 9 62 0 62 0 C62 0 65 0 65 0 C65 0 100 0 100 0 C100 0 135 0 135 0 C135 0 138 0 138 0 C138 0 138 9 138 9 C138 9 137 9 137 9 C136 9 135 20 135 36 C135 36 135 255 135 255 C135 255 212 255 212 255 C349 255 440 317 440 410 C440 504 357 567 232 567 C232 567 135 567 135 567 C135 567 100 567 100 567 C100 567 65 567 65 567 C65 567 65 567 65 567 C64 567 63 567 62 567 C62 567 62 558 62 558 L62 558 Z M135 273 C135 273 135 548 135 548 C135 548 232 548 232 548 C313 548 367 493 367 410 C367 328 305 273 212 273 C212 273 135 273 135 273 L135 273 Z " />
<glyph glyph-name="LETTERSMALLCAPITALT" unicode="&#x1d1b;" horiz-adv-x="589" d="M42 543 C57 547 82 549 104 549 C104 549 260 549 260 549 C260 549 260 36 260 36 C260 20 259 9 257 9 C257 9 257 0 257 0 C257 0 260 0 260 0 C260 0 295 0 295 0 C295 0 329 0 329 0 C329 0 332 0 332 0 C333 0 333 2 332 4 C333 7 333 9 332 9 C331 9 330 20 329 36 C329 36 329 549 329 549 C329 549 485 549 485 549 C508 549 532 547 547 543 C547 543 554 543 554 543 C554 548 554 554 553 558 C553 561 553 564 552 566 C552 566 550 566 548 567 C547 566 545 566 544 567 C541 567 538 566 535 566 C535 566 535 567 535 567 C535 567 516 567 516 567 C516 567 73 567 73 567 C73 567 55 567 55 567 C55 567 55 566 55 566 C52 566 49 567 46 567 C44 566 43 566 41 567 C38 566 37 566 37 567 C36 564 36 561 36 558 C36 554 35 548 35 543 C35 543 42 543 42 543 L42 543 Z M552 566 C552 567 552 567 552 567 C552 567 552 567 552 566 C552 566 552 566 552 566 L552 566 Z " />
<glyph glyph-name="LETTERSMALLCAPITALU" unicode="&#x1d1c;" horiz-adv-x="500" d="M466 567 C465 567 464 567 463 566 C463 566 463 567 463 567 C463 567 452 567 452 567 C452 567 441 567 441 567 C441 567 441 567 441 566 C440 566 438 567 437 567 C437 567 437 558 437 558 C437 558 438 558 438 558 C440 558 441 549 441 535 C441 535 440 160 440 160 C440 72 393 14 273 14 C167 14 125 74 125 165 C125 165 125 530 125 530 C125 547 126 558 127 558 C127 558 128 558 128 558 C128 558 128 567 128 567 C127 567 126 567 125 567 C125 567 125 567 125 567 C125 567 90 567 90 567 C90 567 55 567 55 567 C55 567 55 567 55 567 C54 567 53 567 52 567 C52 567 52 558 52 558 C52 558 53 558 53 558 C54 558 55 547 55 530 C55 530 55 178 55 178 C55 65 113 -10 263 -10 C407 -10 463 55 463 153 C463 153 463 526 463 526 C463 526 463 545 463 545 C464 553 465 558 466 558 C466 558 466 567 466 567 L466 567 Z " />
<glyph glyph-name="LETTERSMALLCAPITALV" unicode="&#x1d20;" horiz-adv-x="502" d="M481 567 C481 567 480 567 480 567 C480 567 480 567 480 567 C480 567 469 567 469 567 C469 567 458 567 458 567 C458 567 458 566 458 566 C457 567 455 567 454 567 C454 567 454 558 454 558 C454 558 454 555 453 550 C453 550 300 64 300 64 C300 64 110 557 110 557 C110 558 110 558 110 558 C110 558 110 567 110 567 C109 567 107 567 106 567 C106 567 106 567 106 567 C106 567 68 567 68 567 C68 567 29 567 29 567 C29 567 30 565 30 565 C30 564 30 563 30 562 C31 560 31 558 31 558 C32 558 37 547 44 530 C44 530 271 -30 271 -30 C271 -30 290 -30 290 -30 C290 -30 468 530 468 530 C468 530 469 530 469 530 C474 547 479 558 480 558 C480 558 481 558 481 558 C481 558 481 567 481 567 L481 567 Z " />
<glyph glyph-name="LETTERSMALLCAPITALW" unicode="&#x1d21;" horiz-adv-x="737" d="M102 567 C101 567 100 567 99 567 C99 567 99 567 99 567 C99 567 60 567 60 567 C60 567 22 567 22 567 C22 567 22 562 22 562 C22 560 23 558 23 558 C24 558 29 547 34 530 C34 530 34 530 34 530 C34 530 218 -30 218 -30 C218 -30 236 -30 236 -30 C236 -30 401 587 401 587 C401 587 383 587 383 587 C383 587 218 -30 218 -30 C218 -30 245 71 245 71 C245 71 105 548 105 548 C103 554 102 558 102 558 C102 558 102 567 102 567 L102 567 Z M688 547 C688 547 529 -30 529 -30 C529 -30 547 -30 547 -30 C547 -30 705 530 705 530 C705 530 705 530 705 530 C709 547 714 558 715 558 C716 558 716 560 715 562 C716 565 716 566 715 567 C715 567 704 567 704 567 C704 567 693 567 693 567 C693 567 693 566 693 566 C691 567 690 567 689 567 C689 567 689 558 689 558 C690 558 689 554 688 547 C688 547 688 547 688 547 L688 547 Z M529 -30 C529 -30 558 76 558 76 C558 76 401 587 401 587 C401 587 371 473 371 473 C371 473 529 -30 529 -30 L529 -30 Z " />
<glyph glyph-name="LETTERSMALLCAPITALZ" unicode="&#x1d22;" horiz-adv-x="539" d="M468 9 C469 13 470 19 471 24 C471 24 460 24 460 24 C447 20 425 18 400 18 C400 18 152 18 152 18 C152 18 484 567 484 567 C484 567 444 567 444 567 C444 567 405 567 405 567 C405 567 162 567 162 567 C162 567 143 567 143 567 C143 567 143 566 143 566 C140 566 137 567 134 567 C132 566 131 566 130 567 C127 566 125 566 125 567 C125 564 124 561 123 558 C122 554 121 548 119 544 C119 544 126 544 126 544 C142 547 167 549 189 549 C189 549 394 549 394 549 C394 549 63 0 63 0 C63 0 102 0 102 0 C102 0 141 0 141 0 C141 0 430 0 430 0 C430 0 464 0 464 0 C464 0 467 0 467 0 C467 3 468 7 468 9 L468 9 Z " />
<glyph glyph-name="Wgrave" unicode="&#x1e80;" horiz-adv-x="866" d="M816 691 C817 691 815 680 810 664 C810 664 810 664 810 664 C810 664 625 -30 625 -30 C625 -30 645 -30 645 -30 C645 -30 839 680 839 680 C842 687 844 691 845 691 C845 691 845 700 845 700 C845 700 832 700 832 700 C832 700 820 700 820 700 C820 700 816 700 816 700 C816 700 816 691 816 691 L816 691 Z M111 700 C111 700 107 700 107 700 C107 700 65 700 65 700 C65 700 22 700 22 700 C22 700 22 699 22 699 C22 698 23 697 22 696 C23 693 23 691 23 691 C24 691 26 685 30 675 C30 675 252 -30 252 -30 C252 -30 273 -30 273 -30 C273 -30 433 580 433 580 C433 580 625 -30 625 -30 C625 -30 660 102 660 102 C660 102 470 720 470 720 C470 720 450 720 450 720 C450 720 285 94 285 94 C285 94 118 664 118 664 C118 664 118 664 118 664 C113 680 110 691 111 691 C111 691 111 700 111 700 L111 700 Z M455 912 C437 944 423 965 419 965 C406 965 377 944 377 935 C377 929 393 909 418 883 C418 883 533 755 533 755 C533 755 541 762 541 762 C541 762 455 912 455 912 L455 912 Z " />
<glyph glyph-name="Wacute" unicode="&#x1e82;" horiz-adv-x="866" d="M399 755 C399 755 511 883 511 883 C535 910 550 930 550 935 C550 944 521 965 508 965 C505 965 491 944 474 912 C474 912 390 762 390 762 C390 762 399 755 399 755 L399 755 Z M816 691 C817 691 815 680 810 664 C810 664 810 664 810 664 C810 664 625 -30 625 -30 C625 -30 645 -30 645 -30 C645 -30 839 680 839 680 C842 687 844 691 845 691 C845 691 845 700 845 700 C845 700 832 700 832 700 C832 700 820 700 820 700 C820 700 816 700 816 700 C816 700 816 691 816 691 L816 691 Z M111 700 C111 700 107 700 107 700 C107 700 65 700 65 700 C65 700 22 700 22 700 C22 700 22 699 22 699 C22 698 23 697 22 696 C23 693 23 691 23 691 C24 691 26 685 30 675 C30 675 252 -30 252 -30 C252 -30 273 -30 273 -30 C273 -30 433 580 433 580 C433 580 625 -30 625 -30 C625 -30 660 102 660 102 C660 102 470 720 470 720 C470 720 450 720 450 720 C450 720 285 94 285 94 C285 94 118 664 118 664 C118 664 118 664 118 664 C113 680 110 691 111 691 C111 691 111 700 111 700 L111 700 Z " />
<glyph glyph-name="Wdieresis" unicode="&#x1e84;" horiz-adv-x="866" d="M553 820 C580 820 598 838 598 865 C598 892 580 910 553 910 C526 910 508 892 508 865 C508 838 526 820 553 820 L553 820 Z M367 820 C394 820 412 838 412 865 C412 892 394 910 367 910 C341 910 323 892 323 865 C323 838 341 820 367 820 L367 820 Z M816 691 C817 691 815 680 810 664 C810 664 810 664 810 664 C810 664 625 -30 625 -30 C625 -30 645 -30 645 -30 C645 -30 839 680 839 680 C842 687 844 691 845 691 C845 691 845 700 845 700 C845 700 832 700 832 700 C832 700 820 700 820 700 C820 700 816 700 816 700 C816 700 816 691 816 691 L816 691 Z M111 700 C111 700 107 700 107 700 C107 700 65 700 65 700 C65 700 22 700 22 700 C22 700 22 699 22 699 C22 698 23 697 22 696 C23 693 23 691 23 691 C24 691 26 685 30 675 C30 675 252 -30 252 -30 C252 -30 273 -30 273 -30 C273 -30 433 580 433 580 C433 580 625 -30 625 -30 C625 -30 660 102 660 102 C660 102 470 720 470 720 C470 720 450 720 450 720 C450 720 285 94 285 94 C285 94 118 664 118 664 C118 664 118 664 118 664 C113 680 110 691 111 691 C111 691 111 700 111 700 L111 700 Z " />
<glyph glyph-name="CapitalLetterEWITHTI" unicode="&#x1ebc;" horiz-adv-x="488" d="M96 820 C96 858 114 883 142 883 C202 883 258 818 318 818 C358 818 385 861 385 927 C385 927 383 927 383 927 C383 891 363 867 334 867 C274 867 218 932 158 932 C119 932 94 887 94 820 C94 820 96 820 96 820 L96 820 Z M357 386 C350 384 331 383 310 383 C310 383 136 383 136 383 C136 383 136 681 136 681 C136 681 357 681 357 681 C384 681 410 680 424 675 C424 675 431 675 431 675 C431 675 431 690 431 690 C431 690 431 700 431 700 C431 700 421 700 421 700 C421 700 394 700 394 700 C394 700 136 700 136 700 C136 700 97 700 97 700 C97 700 59 700 59 700 C59 700 56 700 56 700 C56 700 56 691 56 691 C58 691 59 680 59 664 C59 664 59 36 59 36 C59 20 58 9 56 9 C56 9 56 0 56 0 C56 0 59 0 59 0 C59 0 97 0 97 0 C97 0 136 0 136 0 C136 0 398 0 398 0 C398 0 431 0 431 0 C431 0 434 0 434 0 C435 3 435 7 436 10 C437 14 438 20 438 25 C438 25 432 25 432 25 C417 21 392 20 363 19 C363 19 136 19 136 19 C136 19 136 364 136 364 C136 364 310 364 310 364 C333 364 351 364 359 360 C359 360 366 360 366 360 C366 360 366 364 366 364 C366 364 366 373 366 373 C366 373 366 383 366 383 C366 383 366 386 366 386 C366 386 357 386 357 386 L357 386 Z " />
<glyph glyph-name="Ygrave" unicode="&#x1ef2;" horiz-adv-x="560" d="M328 9 C328 9 327 9 327 9 C326 9 325 20 325 36 C325 36 325 317 325 317 C325 317 325 317 325 317 C325 317 519 664 519 664 C519 664 519 664 519 664 C528 680 535 691 536 691 C536 691 537 691 537 691 C537 692 539 699 539 700 C539 700 527 700 527 700 C527 700 515 700 515 700 C515 700 510 700 510 700 C510 700 510 691 510 691 C510 691 502 677 490 655 C490 655 490 655 490 655 C490 655 315 336 315 336 C315 336 145 664 145 664 C145 664 145 664 145 664 C143 668 141 672 139 675 C139 675 131 691 131 691 C131 692 131 694 130 696 C130 696 130 700 130 700 C130 700 126 700 126 700 C126 700 80 700 80 700 C80 700 33 700 33 700 C33 700 34 698 34 696 C35 693 35 691 35 691 C35 691 36 691 36 691 C37 691 41 683 48 672 C48 672 247 288 247 288 C247 288 247 36 247 36 C247 20 246 9 245 9 C245 9 244 9 244 9 C244 9 244 0 244 0 C244 0 247 0 247 0 C247 0 286 0 286 0 C286 0 325 0 325 0 C325 0 328 0 328 0 C328 0 328 9 328 9 L328 9 Z M281 912 C263 944 249 965 245 965 C232 965 203 944 203 935 C203 929 219 909 244 883 C244 883 359 755 359 755 C359 755 367 762 367 762 C367 762 281 912 281 912 L281 912 Z " />
<glyph glyph-name="quoteleft" unicode="&#x2018;" horiz-adv-x="254" d="M88 500 C88 500 88 500 88 500 C98 491 111 485 127 485 C159 485 180 506 180 538 C180 569 159 591 127 590 C121 590 115 589 110 588 C109 592 109 597 109 601 C109 645 132 685 166 702 C166 702 161 713 161 713 C103 685 65 626 65 564 C65 541 74 515 88 500 C88 500 88 500 88 500 L88 500 Z " />
<glyph glyph-name="quoteright" unicode="&#x2019;" horiz-adv-x="254" d="M167 695 C167 695 166 694 166 694 C157 704 144 710 127 710 C96 710 75 689 75 657 C75 625 96 604 127 604 C134 604 140 605 145 607 C146 602 146 598 146 594 C146 550 123 510 89 493 C89 493 94 482 94 482 C152 510 190 569 190 630 C190 654 181 680 167 695 C167 695 167 695 167 695 L167 695 Z " />
<glyph glyph-name="quotedblleft" unicode="&#x201c;" horiz-adv-x="409" d="M244 500 C244 500 244 500 244 500 C254 491 267 485 283 485 C315 485 336 506 336 538 C336 569 315 591 283 590 C277 590 271 589 266 588 C265 592 265 597 265 601 C265 645 287 685 322 702 C322 702 316 713 316 713 C259 685 221 626 221 564 C221 541 230 515 244 500 C244 500 244 500 244 500 L244 500 Z M88 500 C88 500 88 500 88 500 C98 491 111 485 127 485 C159 485 180 506 180 538 C180 569 159 591 127 590 C121 590 115 589 110 588 C109 592 109 597 109 601 C109 645 132 685 166 702 C166 702 161 713 161 713 C103 685 65 626 65 564 C65 541 74 515 88 500 C88 500 88 500 88 500 L88 500 Z " />
<glyph glyph-name="quotedblright" unicode="&#x201d;" horiz-adv-x="409" d="M167 695 C167 695 166 694 166 694 C157 704 144 710 127 710 C96 710 75 689 75 657 C75 625 96 604 127 604 C134 604 140 605 145 607 C146 602 146 598 146 594 C146 550 123 510 89 493 C89 493 94 482 94 482 C152 510 190 569 190 630 C190 654 181 680 167 695 C167 695 167 695 167 695 L167 695 Z M283 604 C290 604 296 605 301 607 C302 602 302 598 302 594 C302 550 279 510 245 493 C245 493 250 482 250 482 C307 510 345 569 345 630 C345 651 338 674 326 690 C325 692 324 693 322 695 C322 695 322 695 322 695 C322 695 322 695 322 695 C313 705 299 710 283 710 C251 710 230 689 230 657 C230 625 251 604 283 604 L283 604 Z " />
<glyph glyph-name="ellipsis" unicode="&#x2026;" horiz-adv-x="548" d="M448 0 C480 0 501 21 501 53 C501 85 480 106 448 106 C416 106 395 85 395 53 C395 21 416 0 448 0 L448 0 Z M274 0 C306 0 327 21 327 53 C327 85 306 106 274 106 C243 106 222 85 222 53 C222 21 243 0 274 0 L274 0 Z M101 0 C133 0 154 21 154 53 C154 85 133 106 101 106 C69 106 48 85 48 53 C48 21 69 0 101 0 L101 0 Z " />
<glyph glyph-name="guilsinglleft" unicode="&#x2039;" horiz-adv-x="302" d="M110 247 C110 247 243 462 243 462 C243 462 242 463 242 463 C242 463 35 247 35 247 C35 247 35 246 35 246 C35 246 242 37 242 37 C242 37 243 38 243 38 C243 38 110 247 110 247 L110 247 Z " />
<glyph glyph-name="guilsinglright" unicode="&#x203a;" horiz-adv-x="302" d="M193 247 C193 247 60 462 60 462 C60 462 61 463 61 463 C61 463 268 247 268 247 C268 247 268 246 268 246 C268 246 61 37 61 37 C61 37 60 38 60 38 C60 38 193 247 193 247 L193 247 Z " />
<glyph glyph-name="Euro" unicode="&#x20ac;" horiz-adv-x="687" d="M613 621 C613 621 613 642 613 642 C543 683 458 710 401 710 C251 710 145 602 120 432 C120 432 72 432 72 432 C72 432 65 380 65 380 C65 380 116 380 116 380 C115 372 115 363 115 355 C115 347 115 338 116 330 C116 330 65 330 65 330 C65 330 57 278 57 278 C57 278 120 278 120 278 C144 102 250 -10 401 -10 C447 -10 532 21 613 68 C613 68 613 89 613 89 C613 89 606 89 606 89 C603 88 600 86 598 85 C577 71 547 55 520 43 C471 22 428 9 401 9 C296 9 221 114 204 278 C204 278 436 278 436 278 C436 278 443 330 443 330 C443 330 200 330 200 330 C200 338 200 347 200 355 C200 363 200 372 200 380 C200 380 443 380 443 380 C443 380 451 432 451 432 C451 432 204 432 204 432 C222 590 296 691 401 691 C435 691 479 681 524 663 C524 663 524 663 524 663 C547 654 577 639 598 625 C600 624 603 622 606 621 C606 621 613 621 613 621 L613 621 Z " />
<glyph glyph-name="LETTERSMALLCAPITALF" unicode="&#xa730;" horiz-adv-x="424" d="M305 286 C305 286 305 289 305 289 C305 289 305 298 305 298 C305 298 305 307 305 307 C305 307 305 310 305 310 C305 309 305 309 304 310 C300 309 298 309 298 310 C295 308 290 308 284 307 C284 307 249 307 249 307 C249 307 130 307 130 307 C130 307 130 549 130 549 C130 549 335 549 335 549 C363 549 388 548 403 544 C403 544 409 544 409 544 C409 544 409 558 409 558 C409 558 409 567 409 567 C409 566 407 566 405 567 C404 566 402 566 400 567 C400 567 373 567 373 567 C373 567 130 567 130 567 C130 567 95 567 95 567 C95 567 61 567 61 567 C61 567 61 567 61 567 C60 567 59 567 58 567 C58 567 58 558 58 558 C60 558 61 547 61 530 C61 530 61 36 61 36 C61 20 60 9 58 9 C58 9 58 0 58 0 C58 0 61 0 61 0 C61 0 95 0 95 0 C95 0 130 0 130 0 C130 0 135 0 135 0 C135 0 135 9 135 9 C135 9 134 9 134 9 C132 9 130 20 130 36 C130 36 130 289 130 289 C130 289 249 289 249 289 C271 289 289 288 296 286 C296 286 305 286 305 286 L305 286 Z " />
<glyph glyph-name="LETTERSMALLCAPITALS" unicode="&#xa731;" horiz-adv-x="475" d="M57 71 C57 71 57 45 57 45 C113 12 188 -10 243 -10 C347 -10 416 53 416 147 C416 213 353 278 259 309 C171 338 112 390 112 438 C112 511 159 560 230 560 C244 560 273 549 309 532 C309 532 309 532 309 532 C325 524 347 512 365 501 C367 499 370 497 372 496 C372 496 380 496 380 496 C380 496 380 522 380 522 C323 555 264 577 233 577 C131 577 64 510 64 410 C64 347 122 286 208 258 C303 227 366 171 366 118 C366 52 317 7 243 7 C217 7 183 15 147 29 C147 29 147 29 147 29 C142 31 136 33 131 35 C130 36 129 36 127 37 C108 45 87 56 72 66 C69 67 66 69 64 71 C64 71 57 71 57 71 L57 71 Z " />
<glyph glyph-name="[namenotfound]001" unicode="&#xf078;" horiz-adv-x="560" d="M105 36 C105 36 105 36 105 36 C95 20 87 9 85 9 C85 9 82 1 82 0 C82 0 93 0 93 0 C93 0 103 0 103 0 C103 0 108 0 108 0 C108 0 108 4 108 4 C109 7 109 9 109 9 C109 9 117 21 128 40 C128 40 266 258 266 258 C266 258 435 7 435 7 C435 7 435 4 435 4 C436 2 436 0 436 0 C436 0 440 0 440 0 C440 0 480 0 480 0 C480 0 520 0 520 0 C519 2 516 9 516 9 C515 9 510 15 503 25 C503 25 300 327 300 327 C300 327 447 530 447 530 C447 530 448 530 448 530 C460 547 469 558 471 558 C472 560 475 566 474 567 C474 567 463 567 463 567 C463 567 452 567 452 567 C452 567 452 566 452 566 C450 567 448 567 447 567 C447 566 447 565 446 562 C446 562 446 558 446 558 C446 558 432 538 432 538 C430 535 428 533 426 530 C426 530 426 530 426 530 C426 530 292 339 292 339 C292 339 144 560 144 560 C144 560 144 562 144 562 C143 565 142 566 143 567 C142 567 140 567 139 567 C139 567 139 567 139 567 C139 567 99 567 99 567 C99 567 59 567 59 567 C59 567 60 566 60 566 C61 564 62 560 63 558 C64 558 71 549 81 534 C81 534 257 272 257 272 C257 272 257 272 257 272 C257 272 105 36 105 36 L105 36 Z " />
</font>
</svg>
