<?xml version="1.0" encoding="UTF-8"?>
<svg xmlns="http://www.w3.org/2000/svg" xmlns:xlink="http://www.w3.org/1999/xlink" version="1.2" >
<font id="Brycen Light">
<font-face  font-family="Brycen" units-per-em="1024" ascent="975" descent="-300" font-style="normal" font-weight="300" font-stretch="normal" cap-height="750" x-height="520" underline-position="-125" underline-thickness="50" />
<missing-glyph  horiz-adv-x="650" d="" />
<glyph glyph-name="NULL" d="" />
<glyph glyph-name="CR" unicode="&#xd;" horiz-adv-x="256" d="" />
<glyph glyph-name="space" unicode="&#x20;" horiz-adv-x="250" d="" />
<glyph glyph-name="exclam" unicode="&#x21;" horiz-adv-x="148" d="M44 0 L104 0 L104 60 L44 60 L44 0 L44 0 Z M45 750 L45 440 L67 193 L82 193 L104 440 L104 750 L45 750 L45 750 Z " />
<glyph glyph-name="quotedbl" unicode="&#x22;" horiz-adv-x="270" d="M167 750 L167 695 L183 650 L207 650 L223 695 L223 750 L167 750 L167 750 Z M77 750 L77 695 L93 650 L117 650 L133 695 L133 750 L77 750 L77 750 Z " />
<glyph glyph-name="numbersign" unicode="&#x23;" horiz-adv-x="682" d="M484 750 L457 540 L282 540 L309 750 L261 750 L234 540 L69 540 L63 500 L229 500 L197 250 L25 250 L19 210 L192 210 L165 0 L213 0 L240 210 L415 210 L388 0 L436 0 L463 210 L613 210 L619 250 L468 250 L500 500 L657 500 L663 540 L505 540 L532 750 L484 750 L484 750 Z M277 500 L452 500 L420 250 L245 250 L277 500 L277 500 Z " />
<glyph glyph-name="dollar" unicode="&#x24;" horiz-adv-x="551" d="M312 825 L312 755 C294 759 275 760 250 760 C239 760 229 760 219 760 L219 825 L187 825 L187 758 C77 748 56 702 56 547 C56 431 66 403 187 375 L187 65 C159 87 135 128 100 204 L52 171 L52 139 L67 139 C74 124 81 111 88 99 C89 96 91 93 93 90 C123 38 149 13 186 1 L186 -75 L218 -75 L218 -6 C241 -9 268 -10 302 -10 C305 -10 308 -10 311 -10 L311 -75 L343 -75 L343 -9 C503 -4 515 37 515 209 C515 346 503 371 343 403 L343 678 C366 659 395 629 438 581 L458 599 L478 617 L478 648 L460 648 L450 648 C449 649 448 650 447 651 C444 655 435 664 418 681 C387 713 364 732 342 744 L342 826 L312 825 L312 825 Z M310 410 C302 412 293 414 284 416 C258 421 236 425 217 429 L217 711 C226 712 236 712 247 712 C272 712 290 711 309 702 L310 410 L310 410 Z M184 438 C116 458 110 482 110 556 C110 660 123 697 184 708 L184 438 Z M216 370 C232 367 249 364 268 361 C283 358 297 355 310 352 L310 41 C307 41 304 41 301 41 C265 41 239 42 217 49 L216 370 L216 370 Z M342 345 C450 321 458 300 458 210 C458 81 450 48 342 43 L342 345 Z " />
<glyph glyph-name="percent" unicode="&#x25;" horiz-adv-x="734" d="M652 140 C652 35 646 16 564 16 C481 16 475 35 475 140 C475 245 481 264 564 264 C646 264 652 245 652 140 L652 140 Z M564 -10 C673 -10 681 13 681 140 C681 267 673 290 564 290 C455 290 447 267 447 140 C447 13 455 -10 564 -10 L564 -10 Z M82 610 C82 715 88 734 171 734 C254 734 260 715 260 610 C260 505 254 486 171 486 C88 486 82 505 82 610 L82 610 Z M171 760 C62 760 54 738 54 610 C54 483 62 460 171 460 C281 460 288 483 288 610 C288 738 281 760 171 760 L171 760 Z M160 0 L177 0 L575 750 L557 750 L160 0 L160 0 Z " />
<glyph glyph-name="ampersand" unicode="&#x26;" horiz-adv-x="702" d="M642 2 L636 44 C617 36 611 35 591 35 C560 35 544 39 527 54 C562 108 570 199 567 348 L522 359 C524 227 518 146 491 97 C479 112 465 131 447 155 C353 275 306 335 283 364 C452 454 482 479 482 528 C482 668 459 693 326 693 C184 693 159 668 159 527 C159 438 167 412 214 369 C75 295 51 267 51 181 C51 9 87 -21 293 -21 C387 -21 450 -12 492 18 C516 -4 539 -10 586 -10 C608 -10 616 -8 641 2 L642 2 L642 2 Z M259 395 C214 435 206 457 206 533 C206 636 224 654 326 654 C422 654 439 635 439 527 C439 496 412 476 260 395 L259 395 Z M238 342 C258 316 301 260 389 147 C418 110 439 82 456 60 C422 36 372 29 299 29 C132 29 102 53 102 189 C102 259 121 281 229 338 L238 342 Z " />
<glyph glyph-name="quotesingle" unicode="&#x27;" horiz-adv-x="180" d="M77 750 L77 695 L93 650 L117 650 L133 695 L133 750 L77 750 L77 750 Z " />
<glyph glyph-name="parenleft" unicode="&#x28;" horiz-adv-x="348" d="M311 795 C124 638 111 608 111 335 C111 71 124 42 311 -115 L328 -96 C155 49 143 77 143 335 C143 602 155 631 328 776 L311 795 L311 795 Z " />
<glyph glyph-name="parenright" unicode="&#x29;" horiz-adv-x="330" d="M37 -115 C224 42 237 72 237 345 C237 609 224 638 37 795 L20 776 C193 631 205 603 205 345 C205 78 193 49 20 -96 L37 -115 L37 -115 Z " />
<glyph glyph-name="asterisk" unicode="&#x2a;" horiz-adv-x="351" d="M322 669 L189 618 L197 760 L155 760 L163 617 L30 669 L17 630 L155 593 L65 483 L99 458 L176 578 L253 458 L287 483 L196 594 L334 630 L322 669 L322 669 Z " />
<glyph glyph-name="plus" unicode="&#x2b;" horiz-adv-x="590" d="M279 245 L279 0 L311 0 L311 245 L565 245 L565 275 L311 275 L311 520 L279 520 L279 275 L25 275 L25 245 L279 245 L279 245 Z " />
<glyph glyph-name="comma" unicode="&#x2c;" horiz-adv-x="160" d="M50 60 L50 0 L77 0 C77 -61 78 -60 50 -60 L50 -86 C111 -86 110 -88 110 0 L110 60 L50 60 L50 60 Z " />
<glyph glyph-name="hyphen" unicode="&#x2d;" horiz-adv-x="365" d="M50 242 L315 242 L315 284 L50 284 L50 242 L50 242 Z " />
<glyph glyph-name="period" unicode="&#x2e;" horiz-adv-x="160" d="M50 0 L110 0 L110 60 L50 60 L50 0 L50 0 Z " />
<glyph glyph-name="slash" unicode="&#x2f;" horiz-adv-x="263" d="M0 0 L22 0 L263 750 L242 750 L0 0 L0 0 Z " />
<glyph glyph-name="zero" unicode="0" horiz-adv-x="699" d="M358 35 C143 35 128 57 128 375 C128 678 153 715 358 715 C562 715 587 678 587 375 C587 57 572 35 358 35 L358 35 Z M71 375 C71 15 90 -10 358 -10 C626 -10 645 15 645 375 C645 719 614 760 358 760 C102 760 71 719 71 375 L71 375 Z " />
<glyph glyph-name="one" unicode="1" horiz-adv-x="375" d="M248 0 L276 0 L307 0 C308 0 308 4 307 28 C308 36 308 37 307 37 L303 35 C280 27 276 31 276 63 L276 676 L276 750 L232 750 L50 556 L50 488 L220 670 L220 63 C220 31 216 27 193 35 L188 37 L188 28 L188 0 L220 0 L248 0 L248 0 Z " />
<glyph glyph-name="two" unicode="2" horiz-adv-x="579" d="M64 0 L124 0 C124 9 124 18 124 26 L545 0 L545 27 L545 54 L545 85 L517 85 L508 85 L510 81 C517 61 515 55 496 54 L482 54 L124 54 C126 170 146 162 339 296 C501 408 530 442 530 521 C530 724 497 760 308 760 C119 760 86 726 86 535 C86 462 92 441 129 394 L178 419 C145 461 139 478 139 535 C139 688 164 715 308 715 C449 715 474 686 474 525 C474 458 444 425 273 307 C60 159 64 193 64 0 L64 0 Z " />
<glyph glyph-name="three" unicode="3" horiz-adv-x="598" d="M65 245 C65 28 102 -10 309 -10 C517 -10 554 23 554 209 C554 349 526 387 375 408 C501 426 525 454 525 563 C525 730 494 759 318 759 C141 759 110 726 110 539 L165 539 C165 688 188 714 316 714 C450 714 474 691 474 559 C474 446 449 426 304 426 L224 426 L224 413 L224 404 L224 383 L284 383 C463 383 494 357 494 211 C494 65 466 39 309 39 C150 39 122 70 122 244 L65 245 L65 245 Z " />
<glyph glyph-name="four" unicode="4" horiz-adv-x="595" d="M25 315 L25 272 L72 272 L396 272 L396 63 C396 31 392 27 369 35 L364 37 L364 28 L364 0 L396 0 L424 0 L451 0 L483 0 L483 28 L483 37 L478 35 C456 27 452 31 451 63 L451 272 L575 272 L575 322 L451 322 L451 553 L451 738 L451 750 L408 750 L25 315 L25 315 Z M83 322 L404 685 L396 553 L396 322 L83 322 L83 322 Z " />
<glyph glyph-name="five" unicode="5" horiz-adv-x="594" d="M110 346 L164 334 C235 414 261 428 338 428 C471 428 495 399 495 235 C495 69 467 40 310 40 C151 40 123 71 123 245 L66 245 C66 28 103 -10 310 -10 C518 -10 555 27 555 235 C555 437 524 473 348 473 C263 473 234 460 167 387 L187 698 L473 696 C505 696 509 692 499 670 L497 665 L506 665 L534 665 C535 679 536 688 537 697 L537 697 L539 724 L541 751 L134 751 L110 346 L110 346 Z " />
<glyph glyph-name="six" unicode="6" horiz-adv-x="609" d="M560 626 C494 740 461 760 341 760 C92 760 75 702 75 372 C75 15 92 -10 338 -10 C544 -10 580 28 580 245 C580 447 546 483 356 483 C215 483 203 482 132 329 C132 346 132 364 132 383 C132 667 146 717 341 717 C435 717 461 699 519 599 L560 626 Z M133 259 C197 396 206 438 344 438 C493 438 519 409 519 245 C519 67 492 35 337 35 C172 35 139 52 133 260 L133 259 Z " />
<glyph glyph-name="seven" unicode="7" horiz-adv-x="490" d="M30 750 L30 723 L30 696 L30 665 L58 665 L67 665 L65 669 C57 692 61 696 93 696 L433 696 C172 445 177 459 177 0 L239 0 C239 473 234 459 480 696 L480 750 L30 750 L30 750 Z " />
<glyph glyph-name="eight" unicode="8" horiz-adv-x="628" d="M325 425 C159 425 155 445 155 559 C155 705 181 715 325 715 C483 715 494 692 494 559 C494 428 469 425 325 425 L325 425 Z M103 563 C103 462 105 419 179 402 C94 388 76 344 76 204 C76 22 82 -10 325 -10 C537 -10 574 -5 574 204 C574 333 571 383 469 400 C531 414 545 454 545 563 C545 730 531 760 325 760 C136 760 103 747 103 563 L103 563 Z M325 35 C140 35 136 61 136 208 C136 371 164 375 325 375 C510 375 514 350 514 209 C514 39 486 35 325 35 L325 35 Z " />
<glyph glyph-name="nine" unicode="9" horiz-adv-x="609" d="M70 124 C136 10 169 -10 288 -10 C537 -10 555 48 555 378 C555 735 537 760 292 760 C86 760 50 722 50 505 C50 303 83 267 274 267 C415 267 426 268 497 421 C497 404 497 386 497 367 C497 83 484 33 288 33 C195 33 168 51 111 151 L70 124 Z M496 491 C431 354 422 312 284 312 C136 312 110 341 110 505 C110 684 137 715 292 715 C456 715 490 698 496 491 L496 491 Z " />
<glyph glyph-name="colon" unicode="&#x3a;" horiz-adv-x="160" d="M50 460 L110 460 L110 520 L50 520 L50 460 L50 460 Z M50 0 L110 0 L110 60 L50 60 L50 0 L50 0 Z " />
<glyph glyph-name="semicolon" unicode="&#x3b;" horiz-adv-x="160" d="M50 460 L110 460 L110 520 L50 520 L50 460 L50 460 Z M50 60 L50 0 L77 0 C77 -61 78 -60 50 -60 L50 -86 C111 -86 110 -88 110 0 L110 60 L50 60 L50 60 Z " />
<glyph glyph-name="less" unicode="&#x3c;" horiz-adv-x="555" d="M495 480 L45 278 L45 242 L495 40 L495 81 L86 260 L495 439 L495 480 L495 480 Z " />
<glyph glyph-name="equal" unicode="&#x3d;" horiz-adv-x="604" d="M39 180 L39 150 L554 150 L554 180 L39 180 L39 180 Z M39 380 L39 350 L554 350 L554 380 L39 380 L39 380 Z " />
<glyph glyph-name="greater" unicode="&#x3e;" horiz-adv-x="555" d="M469 260 L60 81 L60 40 L510 242 L510 278 L60 480 L60 439 L469 260 L469 260 Z " />
<glyph glyph-name="question" unicode="&#x3f;" horiz-adv-x="564" d="M256 0 L316 0 L316 60 L256 60 L256 0 L256 0 Z M31 557 L79 549 C92 695 123 721 290 721 C436 721 462 696 462 555 C462 443 464 446 383 409 C239 341 262 382 262 193 L310 193 C310 351 289 316 418 376 C516 422 514 418 514 555 C514 729 480 760 290 760 C85 760 46 730 31 557 L31 557 Z " />
<glyph glyph-name="at" unicode="&#x40;" horiz-adv-x="1171" d="M989 -119 C850 -217 791 -234 596 -234 C169 -234 94 -159 94 269 C94 697 169 772 596 772 C1006 772 1079 710 1079 357 C1079 72 1054 22 913 22 C773 22 751 50 771 208 L806 499 L760 499 L753 444 C737 512 686 510 585 510 C395 510 357 474 332 269 C306 48 336 9 531 9 C641 9 691 23 718 85 C727 9 775 -7 896 -7 C1081 -7 1114 48 1114 357 C1114 737 1036 804 594 804 C136 804 55 724 55 269 C55 -186 136 -266 594 -266 C795 -266 856 -248 1005 -144 L989 -119 L989 -119 Z M724 219 L723 208 C707 75 679 52 535 52 C382 52 359 85 381 269 C401 436 430 466 579 466 C726 466 754 471 724 219 L724 219 Z " />
<glyph glyph-name="A" unicode="A" horiz-adv-x="756" d="M705 63 L419 750 L415 750 L387 750 L361 750 L359 750 L327 750 L327 722 L327 713 L330 715 C345 723 346 719 332 687 L333 687 L72 63 C58 31 53 27 34 35 L30 37 L30 23 L30 0 L46 0 L76 0 L106 0 L137 0 L137 28 L137 37 L134 35 C122 29 119 30 125 46 L196 218 L582 218 L653 46 C659 30 656 29 644 35 L640 37 L640 28 L640 0 L672 0 L702 0 L732 0 L748 0 L748 23 L748 37 L744 35 C725 27 720 31 706 63 L705 63 L705 63 Z M213 260 L389 685 L579 225 L564 260 L213 260 L213 260 Z " />
<glyph glyph-name="B" unicode="B" horiz-adv-x="693" d="M526 415 C616 428 635 463 635 551 C635 754 640 750 360 750 L177 750 L149 750 L121 750 L89 750 L89 722 L89 713 L94 715 C117 723 121 719 121 687 L121 63 C121 31 117 27 94 35 L89 37 L89 28 L89 0 L121 0 L149 0 L177 0 L384 0 C665 0 659 -4 659 222 C659 354 636 401 526 415 L526 415 Z M177 431 L177 707 L363 707 C582 707 578 710 578 547 C578 448 546 431 362 431 L177 431 L177 431 Z M177 43 L177 389 L377 389 C566 389 599 365 599 229 C599 39 604 43 368 43 L177 43 L177 43 Z " />
<glyph glyph-name="C" unicode="C" horiz-adv-x="720" d="M659 199 C598 60 558 35 395 35 C171 35 131 115 131 375 C131 635 171 715 395 715 C540 715 579 690 659 551 L680 569 L680 568 L700 586 L700 617 L682 617 C608 738 557 760 396 760 C121 760 72 670 72 375 C72 80 121 -10 396 -10 C590 -10 636 16 701 164 L659 199 L659 199 Z " />
<glyph glyph-name="D" unicode="D" horiz-adv-x="779" d="M149 0 L177 0 L365 0 C711 0 725 15 725 375 C725 726 700 750 335 750 L177 750 L149 750 L121 750 L89 750 L89 722 L89 713 L94 715 C117 723 121 719 121 687 L121 63 C121 31 117 27 94 35 L89 37 L89 28 L89 0 L121 0 L149 0 L149 0 Z M177 43 L177 707 L337 707 C644 707 665 685 665 375 C665 56 653 43 361 43 L177 43 L177 43 Z " />
<glyph glyph-name="E" unicode="E" horiz-adv-x="601" d="M552 23 L552 45 L552 77 L524 77 L515 77 L517 72 C525 50 521 46 489 45 L177 45 L177 365 L454 365 C486 365 490 361 482 338 L480 334 L489 334 L517 334 L517 365 L517 387 L517 409 L517 440 L489 440 L480 440 L482 436 C489 416 487 410 468 409 L454 409 L177 409 L177 705 L474 705 C506 705 510 701 502 678 L500 673 L509 673 L537 673 L537 705 L537 727 L537 750 L177 750 L176 750 L149 750 L121 750 L89 750 L89 722 L89 713 L94 715 C117 723 121 719 121 687 L121 63 C121 31 117 27 94 35 L89 37 L89 28 L89 0 L121 0 L149 0 L176 0 L177 0 L552 0 L552 23 L552 23 Z " />
<glyph glyph-name="F" unicode="F" horiz-adv-x="566" d="M444 365 C476 365 480 361 472 338 L470 334 L479 334 L507 334 L507 365 L507 387 L507 409 L507 440 L479 440 L470 440 L472 436 C479 416 477 410 458 409 L444 409 L177 409 L177 705 L474 705 C506 705 510 701 502 678 L500 673 L509 673 L537 673 L537 705 L537 727 L537 750 L177 750 L176 750 L149 750 L121 750 L89 750 L89 722 L89 713 L94 715 C117 723 121 719 121 687 L121 63 C121 31 117 27 94 35 L89 37 L89 28 L89 0 L121 0 L149 0 L177 0 L208 0 L208 28 L208 37 L203 35 C184 28 178 30 177 49 L177 63 L177 365 L444 365 L444 365 Z " />
<glyph glyph-name="G" unicode="G" horiz-adv-x="773" d="M445 373 L675 373 L675 126 C583 49 558 35 428 35 C176 35 131 86 131 375 C131 664 176 715 428 715 C556 715 592 690 672 551 L692 568 L713 586 L713 617 L694 617 C688 627 682 636 676 645 C674 648 671 652 668 657 C607 743 555 760 428 760 C125 760 71 702 71 375 C71 48 125 -10 428 -10 C587 -10 618 6 728 99 L728 418 L445 418 L445 373 L445 373 Z " />
<glyph glyph-name="H" unicode="H" horiz-adv-x="737" d="M609 0 L637 0 L668 0 L668 28 L668 37 L663 35 C644 28 638 30 637 49 L637 63 L637 687 L637 701 C638 720 644 722 663 715 L668 713 L668 722 L668 750 L637 750 L609 750 L581 750 L549 750 L549 722 L549 713 L554 715 C577 723 581 719 581 687 L581 418 L177 418 L177 687 L177 701 C178 720 184 722 203 715 L208 713 L208 722 L208 750 L177 750 L149 750 L121 750 L89 750 L89 722 L89 713 L94 715 C117 723 121 719 121 687 L121 63 C121 31 117 27 94 35 L89 37 L89 28 L89 0 L121 0 L149 0 L177 0 L208 0 L208 28 L208 37 L203 35 C184 28 178 30 177 49 L177 63 L177 372 L581 372 L581 63 C581 31 577 27 554 35 L549 37 L549 28 L549 0 L581 0 L609 0 L609 0 Z " />
<glyph glyph-name="I" unicode="I" horiz-adv-x="258" d="M130 0 L158 0 L189 0 C190 0 190 4 189 28 C190 36 190 37 189 37 L185 35 C162 27 158 31 158 63 L158 687 C158 719 162 723 185 715 L189 713 C190 713 190 714 189 722 C190 746 190 750 189 750 L158 750 L130 750 L102 750 L70 750 L70 722 L70 713 L75 715 C98 723 102 719 102 687 L102 63 C102 31 98 27 75 35 L70 37 L70 28 L70 0 L102 0 L130 0 L130 0 Z " />
<glyph glyph-name="J" unicode="J" horiz-adv-x="492" d="M67 283 L67 221 C67 -5 71 -10 237 -10 C397 -10 408 25 408 220 L408 687 C408 719 412 723 435 715 L439 713 L439 722 L439 750 L408 750 L380 750 L352 750 L320 750 L320 722 L320 713 L325 715 C348 723 352 719 352 687 L352 220 C352 69 345 42 237 42 C126 42 123 46 123 237 L123 292 L67 283 L67 283 Z " />
<glyph glyph-name="K" unicode="K" horiz-adv-x="607" d="M561 63 L560 63 L323 470 L501 687 L502 687 C528 719 536 723 551 715 L555 713 L555 731 L555 750 L553 750 L519 750 L485 750 L454 750 C453 750 453 746 454 722 C453 714 453 713 454 713 L455 715 C458 718 460 719 460 718 L161 345 L161 687 C161 719 165 723 188 715 L192 713 C193 713 193 714 192 722 C193 746 193 750 192 750 L161 750 L133 750 L105 750 L73 750 L73 722 L73 713 L78 715 C101 723 105 719 105 687 L105 63 C105 31 101 27 78 35 L73 37 L73 28 L73 0 L105 0 L133 0 L161 0 L192 0 C193 0 193 4 192 28 C193 36 193 37 192 37 L188 35 C165 27 161 31 161 63 L161 272 L297 437 L285 423 L509 37 C512 29 509 29 501 34 L499 36 L499 27 L499 -1 L530 -1 L563 -1 L596 -1 L606 -1 L606 20 L606 36 L603 34 C585 26 579 30 560 62 L561 63 L561 63 Z " />
<glyph glyph-name="L" unicode="L" horiz-adv-x="528" d="M483 23 L483 45 L483 77 L455 77 L446 77 L448 72 C456 50 452 46 420 45 L158 45 L158 687 C158 719 162 723 185 715 L189 713 C190 713 190 714 189 722 C190 746 190 750 189 750 L158 750 L130 750 L102 750 L70 750 L70 722 L70 713 L75 715 C98 723 102 719 102 687 L102 63 C102 31 98 27 75 35 L70 37 L70 28 L70 0 L102 0 L130 0 L158 0 L483 0 L483 23 L483 23 Z " />
<glyph glyph-name="M" unicode="M" horiz-adv-x="865" d="M738 0 L764 0 L796 0 L796 28 L796 37 L791 35 C769 27 765 31 764 63 L764 687 C765 719 769 723 791 715 L796 713 L796 722 L796 750 L764 750 L738 750 L729 750 L711 750 L677 750 L443 72 L206 750 L175 750 L154 750 L148 750 L121 750 L90 750 L90 722 L90 713 L95 715 C117 723 121 719 121 687 L121 63 C121 31 117 27 95 35 L90 37 L90 28 L90 0 L121 0 L148 0 L175 0 L207 0 L207 28 L207 37 L202 35 C179 27 175 31 175 63 L175 690 L418 0 L468 0 L711 698 L711 63 C711 31 707 27 684 35 L679 37 L679 28 L679 0 L711 0 L738 0 L738 0 Z " />
<glyph glyph-name="N" unicode="N" horiz-adv-x="704" d="M548 687 L548 74 L183 750 L177 750 L149 750 L121 750 L89 750 L89 722 L89 713 L94 715 C117 723 121 719 121 687 L121 63 C121 31 117 27 94 35 L89 37 L89 28 L89 0 L121 0 L149 0 L177 0 L208 0 L208 28 L208 37 L203 35 C184 28 178 30 177 49 L177 63 L177 646 L526 0 L548 0 L588 0 L604 0 L604 687 L604 700 C605 720 612 722 632 715 L636 713 L636 722 L636 750 L605 750 L577 750 L549 750 L517 750 L517 722 L517 713 L522 715 C545 723 549 719 549 687 L548 687 L548 687 Z " />
<glyph glyph-name="O" unicode="O" horiz-adv-x="814" d="M418 35 C178 35 136 86 136 375 C136 650 190 715 418 715 C645 715 699 650 699 375 C699 86 657 35 418 35 L418 35 Z M76 375 C76 48 127 -10 418 -10 C708 -10 759 48 759 375 C759 686 693 760 418 760 C142 760 76 686 76 375 L76 375 Z " />
<glyph glyph-name="P" unicode="P" horiz-adv-x="639" d="M149 0 L177 0 L208 0 L208 28 L208 37 L203 35 C184 28 178 30 177 49 L177 63 L177 315 L414 315 C593 315 605 329 605 525 C605 735 593 750 414 750 L177 750 L149 750 L135 750 L121 750 L89 750 L89 722 L89 713 L94 715 C117 723 121 719 121 687 L121 63 C121 31 117 27 94 35 L89 37 L89 28 L89 0 L121 0 L149 0 L149 0 Z M177 359 L177 707 L412 707 C540 707 549 695 549 525 C549 369 540 358 416 358 L177 359 L177 359 Z " />
<glyph glyph-name="Q" unicode="Q" horiz-adv-x="814" d="M76 375 C76 48 127 -10 418 -10 C474 -10 521 -8 561 -2 L693 -90 L725 -58 L620 12 C733 50 758 147 758 375 C758 686 692 760 417 760 C141 760 75 686 75 375 L76 375 L76 375 Z M501 38 C476 36 448 35 417 35 C177 35 135 86 135 375 C135 650 189 715 417 715 C644 715 698 650 698 375 C698 160 675 77 565 48 L465 115 L433 83 L501 38 L501 38 Z " />
<glyph glyph-name="R" unicode="R" horiz-adv-x="655" d="M586 0 L618 0 L631 0 L631 22 L631 37 L627 35 C611 28 605 31 592 55 L455 336 C596 339 606 363 606 526 C606 736 594 751 415 751 L178 751 L150 751 L136 751 L122 751 L90 751 L90 723 L90 714 L95 716 C118 724 122 720 122 688 L122 64 C122 32 118 28 95 36 L90 38 L90 29 L90 1 L122 1 L150 1 L178 1 L209 1 L209 29 L209 38 L204 36 C185 29 179 31 178 50 L178 64 L178 336 L391 336 L555 1 L586 0 L586 0 Z M178 379 L178 708 L413 708 C541 708 550 696 550 526 C550 389 541 379 417 379 L178 379 L178 379 Z " />
<glyph glyph-name="S" unicode="S" horiz-adv-x="551" d="M88 100 C89 97 91 94 93 91 C147 -2 189 -10 303 -10 C502 -10 516 23 516 209 C516 361 501 375 286 414 C124 444 113 453 113 554 C113 687 134 710 250 710 C312 710 331 702 439 581 L459 599 L479 617 L479 648 L461 648 L451 648 C450 649 449 650 448 651 C445 655 436 664 419 681 C346 755 318 761 249 761 C84 761 55 729 55 548 C55 409 69 396 270 359 C447 326 459 316 459 209 C459 65 449 40 302 40 C195 40 171 51 99 206 L51 173 L51 141 L66 141 C73 126 80 113 87 101 L88 100 L88 100 Z " />
<glyph glyph-name="T" unicode="T" horiz-adv-x="595" d="M298 0 L325 0 L357 0 L357 28 L357 37 L352 35 C330 27 326 31 325 63 L325 705 L522 705 C554 705 558 701 550 678 L548 673 L557 673 L585 673 L585 705 L585 727 L585 750 L325 750 L270 750 L10 750 L10 727 L10 705 L10 673 L38 673 L47 673 L45 678 C37 701 41 705 73 705 L270 705 L270 63 C270 31 266 27 243 35 L238 37 L238 28 L238 0 L270 0 L297 0 L298 0 L298 0 Z " />
<glyph glyph-name="U" unicode="U" horiz-adv-x="690" d="M114 687 L114 293 C114 10 130 -10 354 -10 C579 -10 595 10 595 293 L595 687 L595 701 C596 720 602 722 621 715 L626 713 L626 722 L626 750 L595 750 L567 750 L539 750 L507 750 L507 722 L507 713 L512 715 C535 723 539 719 539 687 L539 302 C539 59 527 42 354 42 C182 42 170 59 170 302 L170 687 L170 701 C171 720 177 722 196 715 L201 713 L201 722 L201 750 L170 750 L142 750 L114 750 L82 750 L82 722 L82 713 L87 715 C110 723 114 719 114 687 L114 687 Z " />
<glyph glyph-name="V" unicode="V" horiz-adv-x="635" d="M498 687 L320 83 L140 687 C131 719 132 723 149 715 L153 713 L153 722 L153 750 L121 750 L92 750 L62 750 L41 750 L41 726 L41 713 L46 715 C66 723 71 719 81 687 L81 687 L293 0 L295 0 L344 0 L346 0 L556 687 C566 719 571 723 592 715 L596 713 L596 726 L596 750 L575 750 L546 750 L516 750 L484 750 L484 722 L484 713 L488 715 C505 723 506 719 497 687 L498 687 L498 687 Z " />
<glyph glyph-name="W" unicode="W" horiz-adv-x="842" d="M711 687 L598 119 L457 750 L404 750 L265 119 L151 687 C144 719 146 723 166 715 L170 713 L170 722 L170 750 L138 750 L109 750 L79 750 L55 750 L55 725 L55 713 L59 715 C80 723 85 719 92 687 L92 687 L235 0 L239 0 L289 0 L430 631 L570 0 L574 0 L624 0 L769 687 C776 719 781 723 802 715 L806 713 L806 725 L806 750 L782 750 L753 750 L723 750 L691 750 L691 722 L691 713 L695 715 C715 723 717 719 710 687 L711 687 L711 687 Z " />
<glyph glyph-name="X" unicode="X" horiz-adv-x="670" d="M170 63 L351 345 L526 40 C531 30 529 30 520 35 L518 37 L518 28 L518 0 L549 0 L578 0 L607 0 L617 0 L617 21 L617 37 L614 35 C596 27 590 31 571 63 L571 63 L382 392 L579 698 C594 719 601 721 616 714 L619 712 L619 728 L619 749 L612 749 L581 749 L550 749 L519 749 L519 721 L519 712 L521 714 C528 718 530 719 527 713 L352 441 L198 708 C193 718 195 718 204 713 L206 711 L206 720 L206 748 L175 748 L146 748 L117 748 L107 748 L107 727 L107 711 L110 713 C128 721 134 717 153 685 L153 685 L321 393 L99 48 C84 28 77 26 63 33 L59 35 L59 19 L59 -2 L67 -2 L98 -2 L128 -2 L160 -2 L160 26 L160 35 L158 33 C146 25 148 29 169 61 L170 63 L170 63 Z " />
<glyph glyph-name="Y" unicode="Y" horiz-adv-x="674" d="M322 63 C322 31 318 27 295 35 L290 37 L290 28 L290 0 L322 0 L350 0 L378 0 L409 0 L409 28 L409 37 L405 35 C385 28 379 30 378 49 L378 63 L378 330 L594 687 C614 719 620 723 638 715 L641 713 L641 729 L641 750 L632 750 L603 750 L575 750 L543 750 L543 722 L543 713 L546 715 C555 721 557 721 550 709 L350 377 L163 688 C161 690 160 692 159 694 L152 705 C143 720 145 721 154 715 L157 713 L157 722 L157 750 L125 750 L96 750 L67 750 L58 750 L58 729 L58 713 L62 715 C77 721 84 720 97 702 L323 330 L322 63 L322 63 Z " />
<glyph glyph-name="Z" unicode="Z" horiz-adv-x="655" d="M610 23 L610 45 L610 77 L582 77 L573 77 L575 72 C583 50 579 46 547 45 L109 45 L610 705 L610 750 L60 750 L60 727 L60 705 L60 673 L88 673 L97 673 L95 678 C87 701 91 705 123 705 L545 705 L45 45 L45 0 L610 0 L610 23 L610 23 Z " />
<glyph glyph-name="bracketleft" unicode="&#x5b;" horiz-adv-x="328" d="M168 722 L298 722 L298 750 L168 750 L136 750 L136 -115 L168 -115 L298 -115 L298 -87 L168 -87 L168 722 L168 722 Z " />
<glyph glyph-name="backslash" unicode="&#x5c;" horiz-adv-x="311" d="M290 0 L312 0 L22 750 L0 750 L290 0 L290 0 Z " />
<glyph glyph-name="bracketright" unicode="&#x5d;" horiz-adv-x="317" d="M160 722 L160 -87 L30 -87 L30 -115 L160 -115 L193 -115 L193 750 L160 750 L30 750 L30 722 L160 722 L160 722 Z " />
<glyph glyph-name="underscore" unicode="&#x5f;" horiz-adv-x="680" d="M50 -115 L630 -115 L630 -85 L50 -85 L50 -115 L50 -115 Z " />
<glyph glyph-name="a" unicode="a" horiz-adv-x="550" d="M70 386 L115 371 C147 471 171 489 272 489 C402 489 425 491 425 381 C425 267 397 275 238 255 C84 236 57 215 57 111 C57 8 53 -10 244 -10 C350 -10 401 -18 424 29 C419 -14 405 -1 520 -1 L520 36 C459 36 475 32 475 47 L475 359 C475 532 445 529 272 529 C140 529 110 507 70 385 L70 386 L70 386 Z M425 258 L425 173 C425 8 400 24 259 24 C103 24 106 37 106 111 C106 189 130 206 268 223 C354 234 401 236 425 259 L425 258 L425 258 Z " />
<glyph glyph-name="b" unicode="b" horiz-adv-x="598" d="M315 31 C164 31 137 36 137 260 C137 484 164 489 315 489 C467 489 494 455 494 260 C494 65 467 31 315 31 L315 31 Z M112 0 L137 0 L137 53 C163 -8 219 -10 331 -10 C515 -10 548 31 548 260 C548 489 515 530 331 530 C219 530 163 528 137 467 L137 740 L137 750 L112 750 L87 750 L55 750 L55 722 L55 713 L60 715 C83 723 87 719 87 687 L87 63 C87 31 83 27 60 35 L55 37 L55 28 L55 0 L87 0 L112 0 L112 0 Z " />
<glyph glyph-name="c" unicode="c" horiz-adv-x="556" d="M482 151 C445 49 418 31 302 31 C149 31 122 36 122 260 C122 486 149 491 302 491 C417 491 425 470 483 352 L526 373 L526 405 L510 405 C505 416 500 426 495 435 C493 441 489 449 483 460 L482 460 C447 518 413 530 303 530 C103 530 68 524 68 260 C68 -4 103 -10 303 -10 C451 -10 485 11 528 130 L482 151 L482 151 Z " />
<glyph glyph-name="d" unicode="d" horiz-adv-x="574" d="M67 260 C67 31 98 -10 272 -10 C376 -10 429 5 455 66 L455 10 L455 0 L480 0 L505 0 L537 0 C536 0 536 4 537 28 C536 34 536 36 536 37 L532 35 C509 27 505 31 505 63 L505 740 L505 750 L480 750 L455 750 L424 750 L424 722 L424 713 L428 715 C451 723 455 719 455 687 L455 454 C429 515 376 530 272 530 C98 530 67 489 67 260 L67 260 Z M453 260 C453 65 428 31 287 31 C146 31 121 65 121 260 C121 455 146 489 287 489 C428 489 453 455 453 260 L453 260 Z " />
<glyph glyph-name="e" unicode="e" horiz-adv-x="563" d="M486 148 C460 49 432 31 300 31 C151 31 123 36 122 250 L490 250 L490 285 L122 285 C124 486 155 491 304 491 C494 491 490 455 490 250 L540 250 C540 488 545 530 304 530 C103 530 67 524 67 260 C67 -4 102 -10 300 -10 C466 -10 501 11 533 131 L486 148 L486 148 Z " />
<glyph glyph-name="f" unicode="f" horiz-adv-x="419" d="M152 0 L177 0 L208 0 L208 28 L208 37 L203 35 C184 28 178 30 177 49 L177 63 L177 481 L350 481 L350 520 L177 520 L177 670 C177 710 176 709 210 709 L287 709 C319 709 323 705 314 682 L313 677 L322 677 L350 677 L350 709 L350 729 L350 750 L197 750 C126 750 127 752 127 670 L127 520 L30 520 L30 481 L127 481 L127 63 C127 31 123 27 100 35 L95 37 L95 28 L95 0 L127 0 L152 0 L152 0 Z " />
<glyph glyph-name="g" unicode="g" horiz-adv-x="564" d="M67 -74 C67 -178 99 -176 281 -176 C498 -176 494 -146 494 21 L494 457 C494 489 498 493 521 485 L525 483 C525 484 525 486 526 492 C525 516 525 520 526 520 L494 520 L469 520 L444 520 L444 455 C419 515 368 530 267 530 C97 530 67 535 67 260 C67 -5 97 0 267 0 C368 0 419 14 444 72 L444 0 C444 -114 447 -134 276 -134 C145 -134 122 -135 122 -74 L67 -74 L67 -74 Z M283 489 C420 489 444 455 444 260 C444 74 420 41 283 41 C146 41 122 37 122 260 C122 494 146 489 283 489 L283 489 Z M525 483 L526 483 L525 483 L525 483 Z " />
<glyph glyph-name="h" unicode="h" horiz-adv-x="554" d="M444 0 L469 0 L500 0 L500 28 L500 37 L495 35 C476 28 470 30 469 49 L469 63 L469 315 C469 511 446 525 319 525 C220 525 173 514 152 468 L152 740 L152 750 L127 750 L115 750 L102 750 L71 750 L71 722 L71 713 L75 715 C98 723 102 719 102 687 L102 63 C102 31 98 27 75 35 L71 37 L71 28 L71 0 L102 0 L127 0 L152 0 L184 0 L184 28 L184 37 L179 35 C157 27 153 31 152 63 L152 348 C152 460 174 480 300 480 C401 480 419 469 419 315 L419 63 C419 31 415 27 392 35 L387 37 L387 28 L387 0 L419 0 L444 0 L444 0 Z " />
<glyph glyph-name="i" unicode="i" horiz-adv-x="253" d="M113 600 L173 600 L173 660 L113 660 L113 600 L113 600 Z M143 0 L168 0 L199 0 C200 0 200 4 199 28 C200 36 200 37 199 37 L195 35 C172 27 168 31 168 63 L168 510 L168 520 L143 520 L118 520 L86 520 L86 492 L86 483 L91 485 C114 493 118 489 118 457 L118 63 C118 31 114 27 91 35 L86 37 L86 28 L86 0 L118 0 L143 0 L143 0 Z " />
<glyph glyph-name="j" unicode="j" horiz-adv-x="237" d="M113 600 L173 600 L173 660 L113 660 L113 600 L113 600 Z M33 -75 L33 -116 L81 -116 C177 -116 168 -128 168 0 L168 510 L168 520 L143 520 L118 520 L86 520 L86 492 L86 483 L91 485 C114 493 118 489 118 457 L118 0 C118 -83 123 -75 68 -75 L33 -75 L33 -75 Z " />
<glyph glyph-name="k" unicode="k" horiz-adv-x="516" d="M477 0 L507 0 L514 0 L514 21 L514 37 L510 35 C497 29 490 30 478 46 L286 340 L421 470 C444 490 452 492 463 485 L466 483 C466 483 467 486 470 503 C472 514 472 518 473 519 L474 520 L443 520 L413 520 L381 520 C382 520 381 516 376 491 C375 484 375 483 374 483 L374 483 L352 462 C350 461 348 460 346 458 L346 458 L138 258 L138 741 L138 751 L113 751 L100 751 L88 751 L56 751 L56 723 L56 714 L61 716 C84 724 88 720 88 688 L88 64 C88 32 84 28 61 36 L56 38 L56 29 L56 1 L88 1 L113 1 L138 1 L169 1 L169 29 L169 38 L164 36 C145 29 139 31 138 50 L138 64 L138 198 L246 302 L448 1 L477 0 L477 0 Z " />
<glyph glyph-name="l" unicode="l" horiz-adv-x="285" d="M159 0 L184 0 L215 0 L215 28 L215 37 L210 35 C191 28 185 30 184 49 L184 63 L184 740 L184 750 L159 750 L134 750 L102 750 L102 722 L102 713 L107 715 C130 723 134 719 134 687 L134 63 C134 31 130 27 107 35 L102 37 L102 28 L102 0 L134 0 L159 0 L159 0 Z " />
<glyph glyph-name="m" unicode="m" horiz-adv-x="805" d="M700 0 L725 0 L756 0 L756 28 L756 37 L751 35 C732 28 726 30 725 49 L725 63 L725 315 C725 511 705 525 592 525 C494 525 453 512 438 451 C424 519 389 526 307 526 C217 526 173 516 153 472 L153 512 L153 522 L128 522 L116 522 L103 522 L72 522 L72 494 L72 485 L76 487 C99 495 103 491 103 459 L103 65 C103 33 99 29 76 37 L72 39 L72 30 L72 2 L103 2 L128 2 L153 2 L185 2 L185 30 L185 39 L180 37 C158 29 154 33 153 65 L153 350 C153 462 173 482 288 482 C381 482 397 471 397 317 L397 65 C397 33 393 29 370 37 L365 39 L365 30 L365 2 L397 2 L422 2 L447 2 L479 2 L479 30 L479 39 L474 37 C451 29 447 33 447 65 L447 317 C447 329 447 340 447 350 L447 350 C447 462 466 482 573 482 C661 482 676 471 676 317 L676 65 C676 33 672 29 649 37 L644 39 L644 30 L644 2 L676 2 L700 0 L700 0 Z " />
<glyph glyph-name="n" unicode="n" horiz-adv-x="549" d="M444 0 L469 0 L500 0 L500 28 L500 37 L495 35 C476 28 470 30 469 49 L469 63 L469 315 C469 511 446 525 319 525 C220 525 173 514 152 468 L152 510 L152 520 L127 520 L115 520 L102 520 L71 520 L71 492 L71 483 L75 485 C98 493 102 489 102 457 L102 63 C102 31 98 27 75 35 L71 37 L71 28 L71 0 L102 0 L127 0 L152 0 L184 0 L184 28 L184 37 L179 35 C157 27 153 31 152 63 L152 348 C152 460 174 480 300 480 C401 480 419 469 419 315 L419 63 C419 31 415 27 392 35 L387 37 L387 28 L387 0 L419 0 L444 0 L444 0 Z " />
<glyph glyph-name="o" unicode="o" horiz-adv-x="590" d="M304 27 C126 27 122 62 122 260 C122 488 149 493 304 493 C482 493 486 458 486 260 C486 32 459 27 304 27 L304 27 Z M67 260 C67 31 72 -10 304 -10 C505 -10 540 -4 540 260 C540 489 535 530 304 530 C103 530 67 524 67 260 L67 260 Z " />
<glyph glyph-name="p" unicode="p" horiz-adv-x="613" d="M330 31 C179 31 152 36 152 260 C152 484 179 489 330 489 C483 489 510 455 510 260 C510 65 483 31 330 31 L330 31 Z M127 -155 L152 -155 L184 -155 L184 -127 L184 -118 L179 -120 C157 -128 153 -124 152 -92 L152 56 C178 -7 234 -9 347 -9 C531 -9 564 32 564 261 C564 490 531 531 347 531 C234 531 178 529 152 466 L152 512 L152 522 L127 522 L115 522 L102 522 L71 522 L71 494 L71 485 L75 487 C98 495 102 491 102 459 L102 -90 C102 -122 98 -126 75 -118 L71 -116 L71 -125 L71 -153 L102 -153 L127 -155 L127 -155 Z " />
<glyph glyph-name="q" unicode="q" horiz-adv-x="589" d="M67 260 C67 31 98 -10 272 -10 C376 -10 429 5 455 66 L455 -92 C455 -124 451 -128 428 -120 L424 -118 L424 -127 L424 -155 L455 -155 L480 -155 L505 -155 L537 -155 C536 -155 536 -151 537 -127 C536 -121 536 -119 536 -118 L532 -120 C509 -128 505 -124 505 -92 L505 457 C505 489 509 493 532 485 L536 483 C536 484 536 486 537 492 C536 516 536 520 537 520 L505 520 L480 520 L455 520 L455 454 C429 515 376 530 272 530 C98 530 67 489 67 260 L67 260 Z M535 483 L536 483 L535 483 L535 483 Z M454 260 C454 65 429 31 288 31 C147 31 122 65 122 260 C122 455 147 489 288 489 C429 489 454 455 454 260 L454 260 Z " />
<glyph glyph-name="r" unicode="r" horiz-adv-x="370" d="M350 466 L350 520 L340 520 C223 520 173 508 152 458 L152 510 L152 520 L127 520 L115 520 L102 520 L71 520 L71 492 L71 483 L75 485 C98 493 102 489 102 457 L102 63 C102 31 98 27 75 35 L71 37 L71 28 L71 0 L102 0 L127 0 L152 0 L184 0 L184 28 L184 37 L179 35 C157 27 153 31 152 63 L152 258 L152 289 C152 439 159 466 334 466 L350 466 L350 466 Z " />
<glyph glyph-name="s" unicode="s" horiz-adv-x="500" d="M71 72 C73 66 78 59 86 50 C120 5 166 -5 264 -5 C439 -5 470 17 470 141 C470 247 457 267 271 282 C132 294 122 308 122 383 C122 472 144 488 266 488 C347 488 369 469 417 363 L437 372 L458 382 L458 413 L444 413 C398 507 365 525 266 525 C103 525 74 503 74 379 C74 272 86 252 259 238 C410 225 420 211 420 137 C420 49 397 34 264 34 C153 34 126 52 87 153 L42 136 L42 104 L55 104 C60 92 65 81 70 71 L71 72 L71 72 Z " />
<glyph glyph-name="t" unicode="t" horiz-adv-x="345" d="M315 520 L172 520 L172 697 L122 655 L122 520 L10 520 L10 481 L122 481 L122 137 C122 -9 87 0 219 0 L315 0 L315 41 L240 41 C147 41 172 35 172 137 L172 481 L315 481 L315 520 L315 520 Z " />
<glyph glyph-name="u" unicode="u" horiz-adv-x="549" d="M464 63 L464 520 L439 520 L414 520 L382 520 L382 492 L382 483 L387 485 C410 493 414 489 414 457 L414 144 C414 51 394 35 284 35 C133 35 147 44 147 172 L147 520 L122 520 L97 520 L66 520 L66 492 L66 483 L70 485 C93 493 97 489 97 457 L97 172 C97 2 79 -10 268 -10 C355 -10 396 0 414 42 L414 11 L414 1 L439 1 L464 1 L495 1 C496 1 496 5 495 29 C496 37 496 38 495 38 L491 36 C468 28 464 32 464 64 L464 63 L464 63 Z " />
<glyph glyph-name="v" unicode="v" horiz-adv-x="547" d="M131 483 C131 484 131 486 132 492 C131 516 131 520 132 520 L100 520 L72 520 L44 520 L26 520 L26 496 L26 483 L30 485 C49 493 54 490 66 462 L241 1 L252 1 L285 1 L296 1 L472 458 C484 490 490 494 509 486 L513 484 C514 484 514 486 513 497 C514 517 514 521 513 521 L496 521 L468 521 L439 521 L408 521 L408 493 L408 484 L411 486 C424 492 427 491 423 476 L269 47 L123 458 L124 458 C112 490 113 494 129 486 L131 483 L131 483 Z M132 484 L133 484 L132 484 L132 484 Z " />
<glyph glyph-name="w" unicode="w" horiz-adv-x="822" d="M687 457 L573 50 L435 520 L391 520 L253 49 L134 476 C131 490 135 491 148 485 L152 483 L152 492 L152 520 L121 520 L94 520 L68 520 L47 520 L47 496 L47 483 L51 485 C72 493 77 489 87 457 L87 457 L227 0 L238 0 L266 0 L277 0 L412 447 L548 0 L558 0 L587 0 L598 0 L741 469 C749 490 755 492 772 485 L776 483 L776 496 L776 520 L756 520 L729 520 L703 520 L671 520 L671 492 L671 483 L675 485 C692 493 694 489 685 457 L687 457 L687 457 Z " />
<glyph glyph-name="x" unicode="x" horiz-adv-x="551" d="M459 63 L308 270 L456 473 C470 490 477 491 490 485 L493 483 L493 500 L493 520 L489 520 L458 520 L427 520 L395 520 L395 492 L395 483 L397 485 C407 493 405 490 384 461 L276 313 L168 461 C147 490 145 493 155 485 L157 483 L157 492 L157 520 L125 520 L94 520 L63 520 L59 520 L59 500 L59 483 L62 485 C79 493 86 489 109 457 L109 457 L245 270 L94 63 C70 31 63 27 47 35 L43 37 L43 20 L43 0 L48 0 L79 0 L110 0 L141 0 L141 28 L141 37 L139 35 C134 30 133 30 138 37 L277 228 L416 37 C421 30 420 30 415 35 L413 37 L413 28 L413 0 L444 0 L475 0 L506 0 L511 0 L511 20 L511 37 L507 35 C491 27 484 31 460 63 L459 63 L459 63 Z " />
<glyph glyph-name="y" unicode="y" horiz-adv-x="556" d="M78 457 L256 -4 L253 -11 C191 -172 203 -157 138 -157 L88 -157 L88 -200 L138 -200 C236 -200 220 -218 292 -30 L480 457 C493 489 498 493 517 485 L521 483 L521 496 L521 520 L504 520 L476 520 L447 520 L416 520 L416 492 L416 483 L419 485 C431 491 435 491 432 479 L282 69 L133 458 L134 458 C121 490 122 494 138 486 L141 484 L141 493 L141 521 L109 521 L81 521 L53 521 L36 521 L36 497 L36 484 L40 486 C59 494 65 490 77 458 L78 457 L78 457 Z " />
<glyph glyph-name="z" unicode="z" horiz-adv-x="473" d="M58 520 L58 500 L58 481 L58 449 L86 449 L95 449 L93 454 C85 477 89 481 121 481 L374 481 L43 30 L43 0 L97 0 L453 0 L453 20 L453 39 L453 71 C453 70 449 70 425 71 C419 70 417 70 416 70 L418 66 C426 43 422 39 390 39 L103 39 L437 490 L437 520 L384 520 L58 520 L58 520 Z " />
<glyph glyph-name="braceleft" unicode="&#x7b;" horiz-adv-x="320" d="M290 750 L220 750 C149 750 136 736 136 655 L136 388 C136 338 125 329 65 329 L55 329 L55 306 L65 306 C125 306 136 297 136 247 L136 -20 C136 -101 149 -115 220 -115 L290 -115 L290 -87 L220 -87 C176 -87 168 -77 168 -20 L168 241 C168 289 157 301 97 317 C157 333 168 345 168 393 L168 654 C168 711 176 721 220 721 L290 721 L290 750 L290 750 Z " />
<glyph glyph-name="bar" unicode="&#x7c;" horiz-adv-x="122" d="M45 800 L45 -250 L78 -250 L78 800 L45 800 L45 800 Z " />
<glyph glyph-name="braceright" unicode="&#x7d;" horiz-adv-x="320" d="M30 750 L30 721 L100 721 C144 721 152 711 152 654 L152 393 C152 345 163 333 223 317 C163 301 152 289 152 241 L152 -20 C152 -77 144 -87 100 -87 L30 -87 L30 -115 L100 -115 C172 -115 184 -101 184 -20 L184 247 C184 297 195 306 255 306 L265 306 L265 329 L255 329 C195 329 184 338 184 388 L184 655 C184 736 172 750 100 750 L30 750 L30 750 Z " />
<glyph glyph-name="nbspace" unicode="&#xa0;" horiz-adv-x="220" d="" />
<glyph glyph-name="exclamdown" unicode="&#xa1;" horiz-adv-x="148" d="M104 520 L44 520 L44 460 L104 460 L104 520 L104 520 Z M104 -230 L104 80 L82 327 L67 327 L45 80 L45 -230 L104 -230 L104 -230 Z " />
<glyph glyph-name="cent" unicode="&#xa2;" horiz-adv-x="552" d="M283 595 L283 530 C100 529 67 516 67 260 C67 4 100 -9 283 -10 L283 -75 L316 -75 L316 -10 C449 -8 482 16 523 131 L478 152 C443 55 417 34 316 32 L316 492 C424 490 443 472 466 391 C456 388 454 379 454 356 C454 324 459 319 485 319 C527 319 532 326 522 364 C486 502 482 530 316 532 L316 597 L283 595 L283 595 Z M283 33 C147 34 122 47 122 262 C122 479 147 492 283 493 L283 33 Z " />
<glyph glyph-name="guillemotleft" unicode="&#xab;" horiz-adv-x="483" d="M384 470 L244 260 L384 50 L427 50 L287 260 L427 470 L384 470 L384 470 Z M224 470 L84 260 L224 50 L268 50 L128 260 L268 470 L224 470 L224 470 Z " />
<glyph glyph-name="logicalnot" unicode="&#xac;" horiz-adv-x="450" d="M400 92 L400 242 L400 284 L350 284 L50 284 L50 242 L350 242 L350 92 L400 92 L400 92 Z " />
<glyph glyph-name="periodcentered" unicode="&#xb7;" horiz-adv-x="160" d="M50 230 L110 230 L110 290 L50 290 L50 230 L50 230 Z " />
<glyph glyph-name="guillemotright" unicode="&#xbb;" horiz-adv-x="465" d="M254 470 L394 260 L254 50 L297 50 L437 260 L297 470 L254 470 L254 470 Z M94 470 L234 260 L94 50 L138 50 L278 260 L138 470 L94 470 L94 470 Z " />
<glyph glyph-name="questiondown" unicode="&#xbf;" horiz-adv-x="549" d="M293 520 L233 520 L233 460 L293 460 L293 520 L293 520 Z M518 -37 L470 -29 C457 -175 426 -201 259 -201 C113 -201 87 -176 87 -35 C87 77 85 74 166 111 C310 179 287 138 287 327 L239 327 C239 169 260 204 131 144 C33 98 35 102 35 -35 C35 -209 69 -240 259 -240 C464 -240 503 -210 518 -37 L518 -37 Z " />
<glyph glyph-name="Agrave" unicode="&#xc0;" horiz-adv-x="756" d="M367 830 L413 830 L348 980 L282 980 L367 830 L367 830 Z M705 63 L419 750 L415 750 L387 750 L361 750 L359 750 L327 750 L327 722 L327 713 L330 715 C345 723 346 719 332 687 L333 687 L72 63 C58 31 53 27 34 35 L30 37 L30 23 L30 0 L46 0 L76 0 L106 0 L137 0 L137 28 L137 37 L134 35 C122 29 119 30 125 46 L196 218 L582 218 L653 46 C659 30 656 29 644 35 L640 37 L640 28 L640 0 L672 0 L702 0 L732 0 L748 0 L748 23 L748 37 L744 35 C725 27 720 31 706 63 L705 63 L705 63 Z M213 260 L389 685 L579 225 L564 260 L213 260 L213 260 Z " />
<glyph glyph-name="Aacute" unicode="&#xc1;" horiz-adv-x="756" d="M367 830 L413 830 L498 980 L432 980 L367 830 L367 830 Z M705 63 L419 750 L415 750 L387 750 L361 750 L359 750 L327 750 L327 722 L327 713 L330 715 C345 723 346 719 332 687 L333 687 L72 63 C58 31 53 27 34 35 L30 37 L30 23 L30 0 L46 0 L76 0 L106 0 L137 0 L137 28 L137 37 L134 35 C122 29 119 30 125 46 L196 218 L582 218 L653 46 C659 30 656 29 644 35 L640 37 L640 28 L640 0 L672 0 L702 0 L732 0 L748 0 L748 23 L748 37 L744 35 C725 27 720 31 706 63 L705 63 L705 63 Z M213 260 L389 685 L579 225 L564 260 L213 260 L213 260 Z " />
<glyph glyph-name="Acircumflex" unicode="&#xc2;" horiz-adv-x="756" d="M390 941 L514 830 L560 830 L415 980 L365 980 L220 830 L266 830 L390 941 L390 941 Z M705 63 L419 750 L415 750 L387 750 L361 750 L359 750 L327 750 L327 722 L327 713 L330 715 C345 723 346 719 332 687 L333 687 L72 63 C58 31 53 27 34 35 L30 37 L30 23 L30 0 L46 0 L76 0 L106 0 L137 0 L137 28 L137 37 L134 35 C122 29 119 30 125 46 L196 218 L582 218 L653 46 C659 30 656 29 644 35 L640 37 L640 28 L640 0 L672 0 L702 0 L732 0 L748 0 L748 23 L748 37 L744 35 C725 27 720 31 706 63 L705 63 L705 63 Z M213 260 L389 685 L579 225 L564 260 L213 260 L213 260 Z " />
<glyph glyph-name="Atilde" unicode="&#xc3;" horiz-adv-x="756" d="M310 830 C310 884 315 894 343 894 C402 894 368 820 440 820 C497 820 507 836 507 923 L470 923 C470 869 465 859 437 859 C378 859 412 933 340 933 C283 933 273 918 273 830 L310 830 L310 830 Z M705 63 L419 750 L415 750 L387 750 L361 750 L359 750 L327 750 L327 722 L327 713 L330 715 C345 723 346 719 332 687 L333 687 L72 63 C58 31 53 27 34 35 L30 37 L30 23 L30 0 L46 0 L76 0 L106 0 L137 0 L137 28 L137 37 L134 35 C122 29 119 30 125 46 L196 218 L582 218 L653 46 C659 30 656 29 644 35 L640 37 L640 28 L640 0 L672 0 L702 0 L732 0 L748 0 L748 23 L748 37 L744 35 C725 27 720 31 706 63 L705 63 L705 63 Z M213 260 L389 685 L579 225 L564 260 L213 260 L213 260 Z " />
<glyph glyph-name="Adieresis" unicode="&#xc4;" horiz-adv-x="756" d="M429 830 L489 830 L489 890 L429 890 L429 830 L429 830 Z M291 830 L351 830 L351 890 L291 890 L291 830 L291 830 Z M705 63 L419 750 L415 750 L387 750 L361 750 L359 750 L327 750 L327 722 L327 713 L330 715 C345 723 346 719 332 687 L333 687 L72 63 C58 31 53 27 34 35 L30 37 L30 23 L30 0 L46 0 L76 0 L106 0 L137 0 L137 28 L137 37 L134 35 C122 29 119 30 125 46 L196 218 L582 218 L653 46 C659 30 656 29 644 35 L640 37 L640 28 L640 0 L672 0 L702 0 L732 0 L748 0 L748 23 L748 37 L744 35 C725 27 720 31 706 63 L705 63 L705 63 Z M213 260 L389 685 L579 225 L564 260 L213 260 L213 260 Z " />
<glyph glyph-name="Aring" unicode="&#xc5;" horiz-adv-x="756" d="M390 853 C338 853 334 857 334 915 C334 970 340 977 390 977 C440 977 446 970 446 915 C446 857 442 853 390 853 L390 853 Z M309 915 C309 836 314 830 390 830 C466 830 471 836 471 915 C471 991 462 1000 390 1000 C318 1000 309 991 309 915 L309 915 Z M705 63 L419 750 L415 750 L387 750 L361 750 L359 750 L327 750 L327 722 L327 713 L330 715 C345 723 346 719 332 687 L333 687 L72 63 C58 31 53 27 34 35 L30 37 L30 23 L30 0 L46 0 L76 0 L106 0 L137 0 L137 28 L137 37 L134 35 C122 29 119 30 125 46 L196 218 L582 218 L653 46 C659 30 656 29 644 35 L640 37 L640 28 L640 0 L672 0 L702 0 L732 0 L748 0 L748 23 L748 37 L744 35 C725 27 720 31 706 63 L705 63 L705 63 Z M213 260 L389 685 L579 225 L564 260 L213 260 L213 260 Z " />
<glyph glyph-name="Ccedilla" unicode="&#xc7;" horiz-adv-x="720" d="M659 199 C598 60 558 35 395 35 C171 35 131 115 131 375 C131 635 171 715 395 715 C540 715 579 690 659 551 L680 569 L680 568 L700 586 L700 617 L682 617 C608 738 557 760 396 760 C121 760 72 670 72 375 C72 89 118 -4 372 -9 L343 -102 L358 -111 L358 -110 C362 -97 369 -95 400 -95 C436 -95 443 -103 443 -146 C443 -189 436 -197 398 -197 C364 -197 357 -192 353 -164 L333 -179 C339 -215 349 -221 400 -221 C460 -221 471 -210 471 -146 C471 -82 461 -71 404 -71 C383 -71 373 -72 367 -79 L388 -9 C390 -9 392 -9 394 -9 C588 -9 634 17 699 165 L659 199 L659 199 Z " />
<glyph glyph-name="Egrave" unicode="&#xc8;" horiz-adv-x="601" d="M306 830 L352 830 L286 980 L221 980 L306 830 L306 830 Z M552 23 L552 45 L552 77 L524 77 L515 77 L517 72 C525 50 521 46 489 45 L177 45 L177 365 L454 365 C486 365 490 361 482 338 L480 334 L489 334 L517 334 L517 365 L517 387 L517 409 L517 440 L489 440 L480 440 L482 436 C489 416 487 410 468 409 L454 409 L177 409 L177 705 L474 705 C506 705 510 701 502 678 L500 673 L509 673 L537 673 L537 705 L537 727 L537 750 L177 750 L176 750 L149 750 L121 750 L89 750 L89 722 L89 713 L94 715 C117 723 121 719 121 687 L121 63 C121 31 117 27 94 35 L89 37 L89 28 L89 0 L121 0 L149 0 L176 0 L177 0 L552 0 L552 23 L552 23 Z " />
<glyph glyph-name="Eacute" unicode="&#xc9;" horiz-adv-x="601" d="M306 830 L352 830 L436 980 L371 980 L306 830 L306 830 Z M552 23 L552 45 L552 77 L524 77 L515 77 L517 72 C525 50 521 46 489 45 L177 45 L177 365 L454 365 C486 365 490 361 482 338 L480 334 L489 334 L517 334 L517 365 L517 387 L517 409 L517 440 L489 440 L480 440 L482 436 C489 416 487 410 468 409 L454 409 L177 409 L177 705 L474 705 C506 705 510 701 502 678 L500 673 L509 673 L537 673 L537 705 L537 727 L537 750 L177 750 L176 750 L149 750 L121 750 L89 750 L89 722 L89 713 L94 715 C117 723 121 719 121 687 L121 63 C121 31 117 27 94 35 L89 37 L89 28 L89 0 L121 0 L149 0 L176 0 L177 0 L552 0 L552 23 L552 23 Z " />
<glyph glyph-name="Ecircumflex" unicode="&#xca;" horiz-adv-x="601" d="M329 941 L453 830 L499 830 L354 980 L304 980 L159 830 L204 830 L329 941 L329 941 Z M552 23 L552 45 L552 77 L524 77 L515 77 L517 72 C525 50 521 46 489 45 L177 45 L177 365 L454 365 C486 365 490 361 482 338 L480 334 L489 334 L517 334 L517 365 L517 387 L517 409 L517 440 L489 440 L480 440 L482 436 C489 416 487 410 468 409 L454 409 L177 409 L177 705 L474 705 C506 705 510 701 502 678 L500 673 L509 673 L537 673 L537 705 L537 727 L537 750 L177 750 L176 750 L149 750 L121 750 L89 750 L89 722 L89 713 L94 715 C117 723 121 719 121 687 L121 63 C121 31 117 27 94 35 L89 37 L89 28 L89 0 L121 0 L149 0 L176 0 L177 0 L552 0 L552 23 L552 23 Z " />
<glyph glyph-name="Edieresis" unicode="&#xcb;" horiz-adv-x="601" d="M368 830 L428 830 L428 890 L368 890 L368 830 L368 830 Z M230 830 L290 830 L290 890 L230 890 L230 830 L230 830 Z M552 23 L552 45 L552 77 L524 77 L515 77 L517 72 C525 50 521 46 489 45 L177 45 L177 365 L454 365 C486 365 490 361 482 338 L480 334 L489 334 L517 334 L517 365 L517 387 L517 409 L517 440 L489 440 L480 440 L482 436 C489 416 487 410 468 409 L454 409 L177 409 L177 705 L474 705 C506 705 510 701 502 678 L500 673 L509 673 L537 673 L537 705 L537 727 L537 750 L177 750 L176 750 L149 750 L121 750 L89 750 L89 722 L89 713 L94 715 C117 723 121 719 121 687 L121 63 C121 31 117 27 94 35 L89 37 L89 28 L89 0 L121 0 L149 0 L176 0 L177 0 L552 0 L552 23 L552 23 Z " />
<glyph glyph-name="Igrave" unicode="&#xcc;" horiz-adv-x="258" d="M107 830 L153 830 L88 980 L22 980 L107 830 L107 830 Z M130 0 L158 0 L189 0 C190 0 190 4 189 28 C190 36 190 37 189 37 L185 35 C162 27 158 31 158 63 L158 687 C158 719 162 723 185 715 L189 713 C190 713 190 714 189 722 C190 746 190 750 189 750 L158 750 L130 750 L102 750 L70 750 L70 722 L70 713 L75 715 C98 723 102 719 102 687 L102 63 C102 31 98 27 75 35 L70 37 L70 28 L70 0 L102 0 L130 0 L130 0 Z " />
<glyph glyph-name="Iacute" unicode="&#xcd;" horiz-adv-x="258" d="M107 830 L153 830 L238 980 L172 980 L107 830 L107 830 Z M130 0 L158 0 L189 0 C190 0 190 4 189 28 C190 36 190 37 189 37 L185 35 C162 27 158 31 158 63 L158 687 C158 719 162 723 185 715 L189 713 C190 713 190 714 189 722 C190 746 190 750 189 750 L158 750 L130 750 L102 750 L70 750 L70 722 L70 713 L75 715 C98 723 102 719 102 687 L102 63 C102 31 98 27 75 35 L70 37 L70 28 L70 0 L102 0 L130 0 L130 0 Z " />
<glyph glyph-name="Icircumflex" unicode="&#xce;" horiz-adv-x="258" d="M130 941 L254 830 L300 830 L155 980 L105 980 L-40 830 L6 830 L130 941 L130 941 Z M130 0 L158 0 L189 0 C190 0 190 4 189 28 C190 36 190 37 189 37 L185 35 C162 27 158 31 158 63 L158 687 C158 719 162 723 185 715 L189 713 C190 713 190 714 189 722 C190 746 190 750 189 750 L158 750 L130 750 L102 750 L70 750 L70 722 L70 713 L75 715 C98 723 102 719 102 687 L102 63 C102 31 98 27 75 35 L70 37 L70 28 L70 0 L102 0 L130 0 L130 0 Z " />
<glyph glyph-name="Idieresis" unicode="&#xcf;" horiz-adv-x="258" d="M169 830 L229 830 L229 890 L169 890 L169 830 L169 830 Z M31 830 L91 830 L91 890 L31 890 L31 830 L31 830 Z M130 0 L158 0 L189 0 C190 0 190 4 189 28 C190 36 190 37 189 37 L185 35 C162 27 158 31 158 63 L158 687 C158 719 162 723 185 715 L189 713 C190 713 190 714 189 722 C190 746 190 750 189 750 L158 750 L130 750 L102 750 L70 750 L70 722 L70 713 L75 715 C98 723 102 719 102 687 L102 63 C102 31 98 27 75 35 L70 37 L70 28 L70 0 L102 0 L130 0 L130 0 Z " />
<glyph glyph-name="Ntilde" unicode="&#xd1;" horiz-adv-x="704" d="M282 830 C282 884 287 894 316 894 C375 894 340 820 412 820 C469 820 479 836 479 923 L442 923 C442 869 437 859 409 859 C350 859 384 933 312 933 C255 933 245 918 245 830 L282 830 L282 830 Z M548 687 L548 74 L183 750 L177 750 L149 750 L121 750 L89 750 L89 722 L89 713 L94 715 C117 723 121 719 121 687 L121 63 C121 31 117 27 94 35 L89 37 L89 28 L89 0 L121 0 L149 0 L177 0 L208 0 L208 28 L208 37 L203 35 C184 28 178 30 177 49 L177 63 L177 646 L526 0 L548 0 L588 0 L604 0 L604 687 L604 700 C605 720 612 722 632 715 L636 713 L636 722 L636 750 L605 750 L577 750 L549 750 L517 750 L517 722 L517 713 L522 715 C545 723 549 719 549 687 L548 687 L548 687 Z " />
<glyph glyph-name="Ograve" unicode="&#xd2;" horiz-adv-x="814" d="M395 830 L440 830 L375 980 L310 980 L395 830 L395 830 Z M418 35 C178 35 136 86 136 375 C136 650 190 715 418 715 C645 715 699 650 699 375 C699 86 657 35 418 35 L418 35 Z M76 375 C76 48 127 -10 418 -10 C708 -10 759 48 759 375 C759 686 693 760 418 760 C142 760 76 686 76 375 L76 375 Z " />
<glyph glyph-name="Oacute" unicode="&#xd3;" horiz-adv-x="814" d="M395 830 L440 830 L525 980 L460 980 L395 830 L395 830 Z M418 35 C178 35 136 86 136 375 C136 650 190 715 418 715 C645 715 699 650 699 375 C699 86 657 35 418 35 L418 35 Z M76 375 C76 48 127 -10 418 -10 C708 -10 759 48 759 375 C759 686 693 760 418 760 C142 760 76 686 76 375 L76 375 Z " />
<glyph glyph-name="Ocircumflex" unicode="&#xd4;" horiz-adv-x="814" d="M418 941 L542 830 L588 830 L443 980 L392 980 L248 830 L293 830 L418 941 L418 941 Z M418 35 C178 35 136 86 136 375 C136 650 190 715 418 715 C645 715 699 650 699 375 C699 86 657 35 418 35 L418 35 Z M76 375 C76 48 127 -10 418 -10 C708 -10 759 48 759 375 C759 686 693 760 418 760 C142 760 76 686 76 375 L76 375 Z " />
<glyph glyph-name="Otilde" unicode="&#xd5;" horiz-adv-x="814" d="M338 830 C338 884 343 894 371 894 C430 894 396 820 468 820 C524 820 534 836 534 923 L498 923 C498 869 493 859 464 859 C405 859 439 933 367 933 C311 933 301 918 301 830 L338 830 L338 830 Z M418 35 C178 35 136 86 136 375 C136 650 190 715 418 715 C645 715 699 650 699 375 C699 86 657 35 418 35 L418 35 Z M76 375 C76 48 127 -10 418 -10 C708 -10 759 48 759 375 C759 686 693 760 418 760 C142 760 76 686 76 375 L76 375 Z " />
<glyph glyph-name="Odieresis" unicode="&#xd6;" horiz-adv-x="814" d="M456 830 L516 830 L516 890 L456 890 L456 830 L456 830 Z M319 830 L379 830 L379 890 L319 890 L319 830 L319 830 Z M418 35 C178 35 136 86 136 375 C136 650 190 715 418 715 C645 715 699 650 699 375 C699 86 657 35 418 35 L418 35 Z M76 375 C76 48 127 -10 418 -10 C708 -10 759 48 759 375 C759 686 693 760 418 760 C142 760 76 686 76 375 L76 375 Z " />
<glyph glyph-name="Oslash" unicode="&#xd8;" horiz-adv-x="814" d="M418 35 C303 35 233 47 192 91 L653 635 C687 583 698 501 698 375 C698 86 656 35 417 35 L418 35 L418 35 Z M75 375 C75 213 88 117 136 61 L76 -10 L107 -10 L153 45 C204 2 286 -10 417 -10 C707 -10 758 48 758 375 C758 529 742 625 692 683 L758 761 L727 761 L675 700 C623 746 541 761 416 761 C140 761 74 687 74 376 L75 375 L75 375 Z M175 111 C142 161 133 243 133 375 C133 650 187 715 415 715 C524 715 593 700 635 654 L175 111 Z " />
<glyph glyph-name="Ugrave" unicode="&#xd9;" horiz-adv-x="690" d="M331 820 L377 820 L312 970 L247 970 L331 820 L331 820 Z M114 687 L114 293 C114 10 130 -10 354 -10 C579 -10 595 10 595 293 L595 687 L595 701 C596 720 602 722 621 715 L626 713 L626 722 L626 750 L595 750 L567 750 L539 750 L507 750 L507 722 L507 713 L512 715 C535 723 539 719 539 687 L539 302 C539 59 527 42 354 42 C182 42 170 59 170 302 L170 687 L170 701 C171 720 177 722 196 715 L201 713 L201 722 L201 750 L170 750 L142 750 L114 750 L82 750 L82 722 L82 713 L87 715 C110 723 114 719 114 687 L114 687 Z " />
<glyph glyph-name="Uacute" unicode="&#xda;" horiz-adv-x="690" d="M331 820 L377 820 L462 970 L397 970 L331 820 L331 820 Z M114 687 L114 293 C114 10 130 -10 354 -10 C579 -10 595 10 595 293 L595 687 L595 701 C596 720 602 722 621 715 L626 713 L626 722 L626 750 L595 750 L567 750 L539 750 L507 750 L507 722 L507 713 L512 715 C535 723 539 719 539 687 L539 302 C539 59 527 42 354 42 C182 42 170 59 170 302 L170 687 L170 701 C171 720 177 722 196 715 L201 713 L201 722 L201 750 L170 750 L142 750 L114 750 L82 750 L82 722 L82 713 L87 715 C110 723 114 719 114 687 L114 687 Z " />
<glyph glyph-name="Ucircumflex" unicode="&#xdb;" horiz-adv-x="690" d="M354 931 L479 820 L524 820 L379 970 L329 970 L184 820 L230 820 L354 931 L354 931 Z M114 687 L114 293 C114 10 130 -10 354 -10 C579 -10 595 10 595 293 L595 687 L595 701 C596 720 602 722 621 715 L626 713 L626 722 L626 750 L595 750 L567 750 L539 750 L507 750 L507 722 L507 713 L512 715 C535 723 539 719 539 687 L539 302 C539 59 527 42 354 42 C182 42 170 59 170 302 L170 687 L170 701 C171 720 177 722 196 715 L201 713 L201 722 L201 750 L170 750 L142 750 L114 750 L82 750 L82 722 L82 713 L87 715 C110 723 114 719 114 687 L114 687 Z " />
<glyph glyph-name="Udieresis" unicode="&#xdc;" horiz-adv-x="690" d="M393 820 L453 820 L453 880 L393 880 L393 820 L393 820 Z M255 820 L315 820 L315 880 L255 880 L255 820 L255 820 Z M114 687 L114 293 C114 10 130 -10 354 -10 C579 -10 595 10 595 293 L595 687 L595 701 C596 720 602 722 621 715 L626 713 L626 722 L626 750 L595 750 L567 750 L539 750 L507 750 L507 722 L507 713 L512 715 C535 723 539 719 539 687 L539 302 C539 59 527 42 354 42 C182 42 170 59 170 302 L170 687 L170 701 C171 720 177 722 196 715 L201 713 L201 722 L201 750 L170 750 L142 750 L114 750 L82 750 L82 722 L82 713 L87 715 C110 723 114 719 114 687 L114 687 Z " />
<glyph glyph-name="Yacute" unicode="&#xdd;" horiz-adv-x="640" d="M310 830 L356 830 L440 980 L375 980 L310 830 L310 830 Z M305 63 C305 31 301 27 278 35 L273 37 L273 28 L273 0 L305 0 L333 0 L361 0 L392 0 L392 28 L392 37 L388 35 C368 28 362 30 361 49 L361 63 L361 330 L577 687 C597 719 603 723 621 715 L624 713 L624 729 L624 750 L615 750 L586 750 L558 750 L526 750 L526 722 L526 713 L529 715 C538 721 540 721 533 709 L333 377 L146 688 C144 690 143 692 142 694 L135 705 C126 720 128 721 137 715 L140 713 L140 722 L140 750 L108 750 L79 750 L50 750 L41 750 L41 729 L41 713 L45 715 C60 721 67 720 80 702 L306 330 L305 63 L305 63 Z " />
<glyph glyph-name="Thorn" unicode="&#xde;" horiz-adv-x="639" d="M149 0 L177 0 L208 0 L208 28 L208 37 L203 35 C184 28 178 30 177 49 L177 63 L177 150 L414 150 C593 150 605 165 605 375 C605 585 593 600 414 600 L177 600 L177 687 L177 701 C178 720 184 722 203 715 L208 713 L208 722 L208 750 L177 750 L149 750 L121 750 L89 750 L89 722 L89 713 L94 715 C117 723 121 719 121 687 L121 63 C121 31 117 27 94 35 L89 37 L89 28 L89 0 L121 0 L149 0 L149 0 Z M177 193 L177 557 L412 557 C540 557 549 545 549 375 C549 205 540 193 416 193 L177 193 L177 193 Z " />
<glyph glyph-name="agrave" unicode="&#xe0;" horiz-adv-x="550" d="M249 600 L295 600 L230 750 L165 750 L249 600 L249 600 Z M70 386 L115 371 C147 471 171 489 272 489 C402 489 425 491 425 381 C425 267 397 275 238 255 C84 236 57 215 57 111 C57 8 53 -10 244 -10 C350 -10 401 -18 424 29 C419 -14 405 -1 520 -1 L520 36 C459 36 475 32 475 47 L475 359 C475 532 445 529 272 529 C140 529 110 507 70 385 L70 386 L70 386 Z M425 258 L425 173 C425 8 400 24 259 24 C103 24 106 37 106 111 C106 189 130 206 268 223 C354 234 401 236 425 259 L425 258 L425 258 Z " />
<glyph glyph-name="aacute" unicode="&#xe1;" horiz-adv-x="550" d="M249 600 L295 600 L380 750 L315 750 L249 600 L249 600 Z M70 386 L115 371 C147 471 171 489 272 489 C402 489 425 491 425 381 C425 267 397 275 238 255 C84 236 57 215 57 111 C57 8 53 -10 244 -10 C350 -10 401 -18 424 29 C419 -14 405 -1 520 -1 L520 36 C459 36 475 32 475 47 L475 359 C475 532 445 529 272 529 C140 529 110 507 70 385 L70 386 L70 386 Z M425 258 L425 173 C425 8 400 24 259 24 C103 24 106 37 106 111 C106 189 130 206 268 223 C354 234 401 236 425 259 L425 258 L425 258 Z " />
<glyph glyph-name="acircumflex" unicode="&#xe2;" horiz-adv-x="550" d="M272 711 L397 600 L442 600 L298 750 L247 750 L102 600 L148 600 L272 711 L272 711 Z M70 386 L115 371 C147 471 171 489 272 489 C402 489 425 491 425 381 C425 267 397 275 238 255 C84 236 57 215 57 111 C57 8 53 -10 244 -10 C350 -10 401 -18 424 29 C419 -14 405 -1 520 -1 L520 36 C459 36 475 32 475 47 L475 359 C475 532 445 529 272 529 C140 529 110 507 70 385 L70 386 L70 386 Z M425 258 L425 173 C425 8 400 24 259 24 C103 24 106 37 106 111 C106 189 130 206 268 223 C354 234 401 236 425 259 L425 258 L425 258 Z " />
<glyph glyph-name="atilde" unicode="&#xe3;" horiz-adv-x="624" d="M231 600 C231 654 236 664 264 664 C323 664 289 590 361 590 C418 590 428 606 428 693 L391 693 C391 639 386 629 357 629 C298 629 333 703 261 703 C204 703 194 688 194 600 L231 600 L231 600 Z M67 260 C67 31 105 -10 320 -10 C425 -10 478 5 504 66 L504 0 L554 0 L554 520 L504 520 L504 454 C478 515 425 530 320 530 C105 530 67 489 67 260 L67 260 Z M504 260 C504 65 479 31 336 31 C154 31 122 65 122 260 C122 455 154 489 336 489 C479 489 504 455 504 260 L504 260 Z " />
<glyph glyph-name="adieresis" unicode="&#xe4;" horiz-adv-x="550" d="M320 600 L380 600 L380 660 L320 660 L320 600 L320 600 Z M165 600 L225 600 L225 660 L165 660 L165 600 L165 600 Z M70 386 L115 371 C147 471 171 489 272 489 C402 489 425 491 425 381 C425 267 397 275 238 255 C84 236 57 215 57 111 C57 8 53 -10 244 -10 C350 -10 401 -18 424 29 C419 -14 405 -1 520 -1 L520 36 C459 36 475 32 475 47 L475 359 C475 532 445 529 272 529 C140 529 110 507 70 385 L70 386 L70 386 Z M425 258 L425 173 C425 8 400 24 259 24 C103 24 106 37 106 111 C106 189 130 206 268 223 C354 234 401 236 425 259 L425 258 L425 258 Z " />
<glyph glyph-name="aring" unicode="&#xe5;" horiz-adv-x="550" d="M272 623 C220 623 216 627 216 685 C216 740 222 747 272 747 C322 747 328 740 328 685 C328 627 324 623 272 623 L272 623 Z M191 685 C191 606 196 600 272 600 C348 600 353 606 353 685 C353 761 344 770 272 770 C200 770 191 761 191 685 L191 685 Z M70 386 L115 371 C147 471 171 489 272 489 C402 489 425 491 425 381 C425 267 397 275 238 255 C84 236 57 215 57 111 C57 8 53 -10 244 -10 C350 -10 401 -18 424 29 C419 -14 405 -1 520 -1 L520 36 C459 36 475 32 475 47 L475 359 C475 532 445 529 272 529 C140 529 110 507 70 385 L70 386 L70 386 Z M425 258 L425 173 C425 8 400 24 259 24 C103 24 106 37 106 111 C106 189 130 206 268 223 C354 234 401 236 425 259 L425 258 L425 258 Z " />
<glyph glyph-name="ccedilla" unicode="&#xe7;" horiz-adv-x="556" d="M482 151 C445 49 418 31 302 31 C149 31 122 36 122 260 C122 486 149 491 302 491 C417 491 425 470 483 352 L526 373 C461 507 453 530 302 530 C102 530 67 524 67 260 C67 5 100 -9 283 -10 L255 -103 L270 -112 L272 -107 C276 -98 285 -97 311 -97 C348 -97 355 -105 355 -148 C355 -191 348 -199 310 -199 C275 -199 268 -194 264 -166 L245 -181 C250 -217 260 -223 311 -223 C372 -223 383 -212 383 -148 C383 -84 373 -73 315 -73 C296 -73 286 -74 280 -80 L301 -11 C449 -11 483 10 526 129 L482 151 L482 151 Z " />
<glyph glyph-name="egrave" unicode="&#xe8;" horiz-adv-x="563" d="M281 600 L327 600 L261 750 L196 750 L281 600 L281 600 Z M486 148 C460 49 432 31 300 31 C151 31 123 36 122 250 L490 250 L490 285 L122 285 C124 486 155 491 304 491 C494 491 490 455 490 250 L540 250 C540 488 545 530 304 530 C103 530 67 524 67 260 C67 -4 102 -10 300 -10 C466 -10 501 11 533 131 L486 148 L486 148 Z " />
<glyph glyph-name="eacute" unicode="&#xe9;" horiz-adv-x="563" d="M281 600 L327 600 L411 750 L346 750 L281 600 L281 600 Z M486 148 C460 49 432 31 300 31 C151 31 123 36 122 250 L490 250 L490 285 L122 285 C124 486 155 491 304 491 C494 491 490 455 490 250 L540 250 C540 488 545 530 304 530 C103 530 67 524 67 260 C67 -4 102 -10 300 -10 C466 -10 501 11 533 131 L486 148 L486 148 Z " />
<glyph glyph-name="ecircumflex" unicode="&#xea;" horiz-adv-x="563" d="M304 711 L428 600 L474 600 L329 750 L279 750 L134 600 L179 600 L304 711 L304 711 Z M486 148 C460 49 432 31 300 31 C151 31 123 36 122 250 L490 250 L490 285 L122 285 C124 486 155 491 304 491 C494 491 490 455 490 250 L540 250 C540 488 545 530 304 530 C103 530 67 524 67 260 C67 -4 102 -10 300 -10 C466 -10 501 11 533 131 L486 148 L486 148 Z " />
<glyph glyph-name="edieresis" unicode="&#xeb;" horiz-adv-x="563" d="M343 600 L403 600 L403 660 L343 660 L343 600 L343 600 Z M205 600 L265 600 L265 660 L205 660 L205 600 L205 600 Z M486 148 C460 49 432 31 300 31 C151 31 123 36 122 250 L490 250 L490 285 L122 285 C124 486 155 491 304 491 C494 491 490 455 490 250 L540 250 C540 488 545 530 304 530 C103 530 67 524 67 260 C67 -4 102 -10 300 -10 C466 -10 501 11 533 131 L486 148 L486 148 Z " />
<glyph glyph-name="igrave" unicode="&#xec;" horiz-adv-x="196" d="M63 600 L109 600 L43 750 L-22 750 L63 600 L63 600 Z M86 0 L111 0 L142 0 C143 0 143 4 142 28 C143 36 143 37 142 37 L138 35 C115 27 111 31 111 63 L111 520 L86 520 L61 520 L29 520 L29 492 L29 483 L34 485 C57 493 61 489 61 457 L61 63 C61 31 57 27 34 35 L29 37 L29 28 L29 0 L61 0 L86 0 L86 0 Z " />
<glyph glyph-name="iacute" unicode="&#xed;" horiz-adv-x="196" d="M63 600 L109 600 L193 750 L128 750 L63 600 L63 600 Z M86 0 L111 0 L142 0 C143 0 143 4 142 28 C143 36 143 37 142 37 L138 35 C115 27 111 31 111 63 L111 520 L86 520 L61 520 L29 520 L29 492 L29 483 L34 485 C57 493 61 489 61 457 L61 63 C61 31 57 27 34 35 L29 37 L29 28 L29 0 L61 0 L86 0 L86 0 Z " />
<glyph glyph-name="icircumflex" unicode="&#xee;" horiz-adv-x="196" d="M86 711 L210 600 L256 600 L111 750 L61 750 L-84 600 L-39 600 L86 711 L86 711 Z M86 0 L111 0 L142 0 C143 0 143 4 142 28 C143 36 143 37 142 37 L138 35 C115 27 111 31 111 63 L111 520 L86 520 L61 520 L29 520 L29 492 L29 483 L34 485 C57 493 61 489 61 457 L61 63 C61 31 57 27 34 35 L29 37 L29 28 L29 0 L61 0 L86 0 L86 0 Z " />
<glyph glyph-name="idieresis" unicode="&#xef;" horiz-adv-x="196" d="M133 600 L193 600 L193 660 L133 660 L133 600 L133 600 Z M-22 600 L38 600 L38 660 L-22 660 L-22 600 L-22 600 Z M86 0 L111 0 L142 0 C143 0 143 4 142 28 C143 36 143 37 142 37 L138 35 C115 27 111 31 111 63 L111 520 L86 520 L61 520 L29 520 L29 492 L29 483 L34 485 C57 493 61 489 61 457 L61 63 C61 31 57 27 34 35 L29 37 L29 28 L29 0 L61 0 L86 0 L86 0 Z " />
<glyph glyph-name="ntilde" unicode="&#xf1;" horiz-adv-x="549" d="M205 600 C205 654 210 664 239 664 C298 664 263 590 335 590 C392 590 402 606 402 693 L365 693 C365 639 360 629 332 629 C273 629 307 703 235 703 C178 703 168 688 168 600 L205 600 L205 600 Z M444 0 L469 0 L500 0 L500 28 L500 37 L495 35 C476 28 470 30 469 49 L469 63 L469 315 C469 511 446 525 319 525 C220 525 173 514 152 468 L152 510 L152 520 L127 520 L115 520 L102 520 L71 520 L71 492 L71 483 L75 485 C98 493 102 489 102 457 L102 63 C102 31 98 27 75 35 L71 37 L71 28 L71 0 L102 0 L127 0 L152 0 L184 0 L184 28 L184 37 L179 35 C157 27 153 31 152 63 L152 348 C152 460 174 480 300 480 C401 480 419 469 419 315 L419 63 C419 31 415 27 392 35 L387 37 L387 28 L387 0 L419 0 L444 0 L444 0 Z " />
<glyph glyph-name="ograve" unicode="&#xf2;" horiz-adv-x="590" d="M281 600 L327 600 L261 750 L196 750 L281 600 L281 600 Z M304 27 C126 27 122 62 122 260 C122 488 149 493 304 493 C482 493 486 458 486 260 C486 32 459 27 304 27 L304 27 Z M67 260 C67 31 72 -10 304 -10 C505 -10 540 -4 540 260 C540 489 535 530 304 530 C103 530 67 524 67 260 L67 260 Z " />
<glyph glyph-name="oacute" unicode="&#xf3;" horiz-adv-x="590" d="M281 600 L327 600 L411 750 L346 750 L281 600 L281 600 Z M304 27 C126 27 122 62 122 260 C122 488 149 493 304 493 C482 493 486 458 486 260 C486 32 459 27 304 27 L304 27 Z M67 260 C67 31 72 -10 304 -10 C505 -10 540 -4 540 260 C540 489 535 530 304 530 C103 530 67 524 67 260 L67 260 Z " />
<glyph glyph-name="ocircumflex" unicode="&#xf4;" horiz-adv-x="590" d="M304 711 L428 600 L474 600 L329 750 L278 750 L134 600 L179 600 L304 711 L304 711 Z M304 27 C126 27 122 62 122 260 C122 488 149 493 304 493 C482 493 486 458 486 260 C486 32 459 27 304 27 L304 27 Z M67 260 C67 31 72 -10 304 -10 C505 -10 540 -4 540 260 C540 489 535 530 304 530 C103 530 67 524 67 260 L67 260 Z " />
<glyph glyph-name="otilde" unicode="&#xf5;" horiz-adv-x="590" d="M224 600 C224 654 229 664 257 664 C316 664 282 590 354 590 C411 590 421 606 421 693 L384 693 C384 639 379 629 350 629 C291 629 326 703 254 703 C197 703 187 688 187 600 L224 600 L224 600 Z M304 27 C126 27 122 62 122 260 C122 488 149 493 304 493 C482 493 486 458 486 260 C486 32 459 27 304 27 L304 27 Z M67 260 C67 31 72 -10 304 -10 C505 -10 540 -4 540 260 C540 489 535 530 304 530 C103 530 67 524 67 260 L67 260 Z " />
<glyph glyph-name="odieresis" unicode="&#xf6;" horiz-adv-x="590" d="M343 600 L403 600 L403 660 L343 660 L343 600 L343 600 Z M205 600 L265 600 L265 660 L205 660 L205 600 L205 600 Z M304 27 C126 27 122 62 122 260 C122 488 149 493 304 493 C482 493 486 458 486 260 C486 32 459 27 304 27 L304 27 Z M67 260 C67 31 72 -10 304 -10 C505 -10 540 -4 540 260 C540 489 535 530 304 530 C103 530 67 524 67 260 L67 260 Z " />
<glyph glyph-name="oslash" unicode="&#xf8;" horiz-adv-x="590" d="M304 27 C220 27 175 35 151 64 L467 443 C485 408 486 351 486 260 C486 32 459 27 304 27 L304 27 Z M67 260 C67 140 68 72 103 34 L67 -9 L89 -9 L116 23 C150 -2 207 -9 304 -9 C505 -9 540 -3 540 261 C540 381 539 449 504 487 L540 530 L518 530 L491 498 C457 523 400 530 304 530 C103 530 67 524 67 260 L67 260 Z M141 78 C123 113 122 169 122 260 C122 488 149 493 304 493 C387 493 432 485 457 457 L141 78 Z " />
<glyph glyph-name="ugrave" unicode="&#xf9;" horiz-adv-x="549" d="M258 600 L303 600 L238 750 L173 750 L258 600 L258 600 Z M464 63 L464 520 L439 520 L414 520 L382 520 L382 492 L382 483 L387 485 C410 493 414 489 414 457 L414 144 C414 51 394 35 284 35 C133 35 147 44 147 172 L147 520 L122 520 L97 520 L66 520 L66 492 L66 483 L70 485 C93 493 97 489 97 457 L97 172 C97 2 79 -10 268 -10 C355 -10 396 0 414 42 L414 11 L414 1 L439 1 L464 1 L495 1 C496 1 496 5 495 29 C496 37 496 38 495 38 L491 36 C468 28 464 32 464 64 L464 63 L464 63 Z " />
<glyph glyph-name="uacute" unicode="&#xfa;" horiz-adv-x="549" d="M258 600 L303 600 L388 750 L323 750 L258 600 L258 600 Z M464 63 L464 520 L439 520 L414 520 L382 520 L382 492 L382 483 L387 485 C410 493 414 489 414 457 L414 144 C414 51 394 35 284 35 C133 35 147 44 147 172 L147 520 L122 520 L97 520 L66 520 L66 492 L66 483 L70 485 C93 493 97 489 97 457 L97 172 C97 2 79 -10 268 -10 C355 -10 396 0 414 42 L414 11 L414 1 L439 1 L464 1 L495 1 C496 1 496 5 495 29 C496 37 496 38 495 38 L491 36 C468 28 464 32 464 64 L464 63 L464 63 Z " />
<glyph glyph-name="ucircumflex" unicode="&#xfb;" horiz-adv-x="549" d="M281 711 L405 600 L451 600 L306 750 L255 750 L111 600 L156 600 L281 711 L281 711 Z M464 63 L464 520 L439 520 L414 520 L382 520 L382 492 L382 483 L387 485 C410 493 414 489 414 457 L414 144 C414 51 394 35 284 35 C133 35 147 44 147 172 L147 520 L122 520 L97 520 L66 520 L66 492 L66 483 L70 485 C93 493 97 489 97 457 L97 172 C97 2 79 -10 268 -10 C355 -10 396 0 414 42 L414 11 L414 1 L439 1 L464 1 L495 1 C496 1 496 5 495 29 C496 37 496 38 495 38 L491 36 C468 28 464 32 464 64 L464 63 L464 63 Z " />
<glyph glyph-name="udieresis" unicode="&#xfc;" horiz-adv-x="549" d="M319 600 L379 600 L379 660 L319 660 L319 600 L319 600 Z M182 600 L242 600 L242 660 L182 660 L182 600 L182 600 Z M464 63 L464 520 L439 520 L414 520 L382 520 L382 492 L382 483 L387 485 C410 493 414 489 414 457 L414 144 C414 51 394 35 284 35 C133 35 147 44 147 172 L147 520 L122 520 L97 520 L66 520 L66 492 L66 483 L70 485 C93 493 97 489 97 457 L97 172 C97 2 79 -10 268 -10 C355 -10 396 0 414 42 L414 11 L414 1 L439 1 L464 1 L495 1 C496 1 496 5 495 29 C496 37 496 38 495 38 L491 36 C468 28 464 32 464 64 L464 63 L464 63 Z " />
<glyph glyph-name="yacute" unicode="&#xfd;" horiz-adv-x="504" d="M231 600 L276 600 L361 750 L296 750 L231 600 L231 600 Z M52 457 L230 -4 L227 -11 C165 -172 177 -157 112 -157 L62 -157 L62 -200 L112 -200 C210 -200 194 -218 266 -30 L454 457 C467 489 472 493 491 485 L495 483 L495 496 L495 520 L478 520 L450 520 L421 520 L390 520 L390 492 L390 483 L393 485 C405 491 409 491 406 479 L256 69 L107 458 L108 458 C95 490 96 494 112 486 L115 484 L115 493 L115 521 L83 521 L55 521 L27 521 L10 521 L10 497 L10 484 L14 486 C33 494 39 490 51 458 L52 457 L52 457 Z " />
<glyph glyph-name="thorn" unicode="&#xfe;" horiz-adv-x="598" d="M315 31 C164 31 137 36 137 260 C137 484 164 489 315 489 C467 489 494 455 494 260 C494 65 467 31 315 31 L315 31 Z M112 -250 L137 -250 L168 -250 L168 -222 L168 -213 L163 -215 C144 -222 138 -220 137 -201 L137 -187 L137 53 C163 -8 219 -10 331 -10 C515 -10 548 31 548 260 C548 489 515 530 331 530 C219 530 163 528 137 467 L137 750 L112 750 L99 750 L87 750 L55 750 L55 722 L55 713 L60 715 C83 723 87 719 87 687 L87 -187 C87 -219 83 -223 60 -215 L55 -213 L55 -222 L55 -250 L87 -250 L112 -250 L112 -250 Z " />
<glyph glyph-name="ydieresis" unicode="&#xff;" horiz-adv-x="504" d="M292 600 L352 600 L352 660 L292 660 L292 600 L292 600 Z M155 600 L215 600 L215 660 L155 660 L155 600 L155 600 Z M52 457 L230 -4 L227 -11 C165 -172 177 -157 112 -157 L62 -157 L62 -200 L112 -200 C210 -200 194 -218 266 -30 L454 457 C467 489 472 493 491 485 L495 483 L495 496 L495 520 L478 520 L450 520 L421 520 L390 520 L390 492 L390 483 L393 485 C405 491 409 491 406 479 L256 69 L107 458 L108 458 C95 490 96 494 112 486 L115 484 L115 493 L115 521 L83 521 L55 521 L27 521 L10 521 L10 497 L10 484 L14 486 C33 494 39 490 51 458 L52 457 L52 457 Z " />
<glyph glyph-name="Amacron" unicode="&#x100;" horiz-adv-x="756" d="M250 830 L530 830 L530 865 L250 865 L250 830 L250 830 Z M705 63 L419 750 L415 750 L387 750 L361 750 L359 750 L327 750 L327 722 L327 713 L330 715 C345 723 346 719 332 687 L333 687 L72 63 C58 31 53 27 34 35 L30 37 L30 23 L30 0 L46 0 L76 0 L106 0 L137 0 L137 28 L137 37 L134 35 C122 29 119 30 125 46 L196 218 L582 218 L653 46 C659 30 656 29 644 35 L640 37 L640 28 L640 0 L672 0 L702 0 L732 0 L748 0 L748 23 L748 37 L744 35 C725 27 720 31 706 63 L705 63 L705 63 Z M213 260 L389 685 L579 225 L564 260 L213 260 L213 260 Z " />
<glyph glyph-name="amacron" unicode="&#x101;" horiz-adv-x="550" d="M132 600 L412 600 L412 635 L132 635 L132 600 L132 600 Z M70 386 L115 371 C147 471 171 489 272 489 C402 489 425 491 425 381 C425 267 397 275 238 255 C84 236 57 215 57 111 C57 8 53 -10 244 -10 C350 -10 401 -18 424 29 C419 -14 405 -1 520 -1 L520 36 C459 36 475 32 475 47 L475 359 C475 532 445 529 272 529 C140 529 110 507 70 385 L70 386 L70 386 Z M425 258 L425 173 C425 8 400 24 259 24 C103 24 106 37 106 111 C106 189 130 206 268 223 C354 234 401 236 425 259 L425 258 L425 258 Z " />
<glyph glyph-name="Abreve" unicode="&#x102;" horiz-adv-x="756" d="M251 945 C251 839 272 820 390 820 C508 820 529 839 529 945 L492 945 C492 869 477 855 390 855 C303 855 288 869 288 945 L251 945 L251 945 Z M705 63 L419 750 L415 750 L387 750 L361 750 L359 750 L327 750 L327 722 L327 713 L330 715 C345 723 346 719 332 687 L333 687 L72 63 C58 31 53 27 34 35 L30 37 L30 23 L30 0 L46 0 L76 0 L106 0 L137 0 L137 28 L137 37 L134 35 C122 29 119 30 125 46 L196 218 L582 218 L653 46 C659 30 656 29 644 35 L640 37 L640 28 L640 0 L672 0 L702 0 L732 0 L748 0 L748 23 L748 37 L744 35 C725 27 720 31 706 63 L705 63 L705 63 Z M213 260 L389 685 L579 225 L564 260 L213 260 L213 260 Z " />
<glyph glyph-name="abreve" unicode="&#x103;" horiz-adv-x="550" d="M133 715 C133 609 154 590 272 590 C391 590 412 609 412 715 L375 715 C375 639 360 625 272 625 C185 625 170 639 170 715 L133 715 L133 715 Z M70 386 L115 371 C147 471 171 489 272 489 C402 489 425 491 425 381 C425 267 397 275 238 255 C84 236 57 215 57 111 C57 8 53 -10 244 -10 C350 -10 401 -18 424 29 C419 -14 405 -1 520 -1 L520 36 C459 36 475 32 475 47 L475 359 C475 532 445 529 272 529 C140 529 110 507 70 385 L70 386 L70 386 Z M425 258 L425 173 C425 8 400 24 259 24 C103 24 106 37 106 111 C106 189 130 206 268 223 C354 234 401 236 425 259 L425 258 L425 258 Z " />
<glyph glyph-name="Aogonek" unicode="&#x104;" horiz-adv-x="756" d="M705 63 L419 750 L415 750 L387 750 L361 750 L359 750 L327 750 L327 722 L327 713 L330 715 C345 723 346 719 332 687 L333 687 L72 63 C58 31 53 27 34 35 L30 37 L30 23 L30 0 L46 0 L76 0 L106 0 L137 0 L137 28 L137 37 L134 35 C122 29 119 30 125 46 L196 218 L582 218 L653 46 C659 30 656 29 644 35 L640 37 L640 28 L640 0 L672 0 L700 0 C670 -22 641 -54 641 -97 C641 -190 656 -206 742 -206 C787 -206 799 -201 822 -174 L817 -147 C797 -172 786 -176 745 -176 C680 -176 669 -163 669 -92 C669 -44 705 -15 732 0 L748 0 L748 23 L748 37 L744 35 C725 27 720 31 706 63 L705 63 L705 63 Z M213 260 L389 685 L579 225 L564 260 L213 260 L213 260 Z " />
<glyph glyph-name="aogonek" unicode="&#x105;" horiz-adv-x="600" d="M67 260 C67 31 103 -10 307 -10 C406 -10 456 4 481 63 L481 0 L504 0 C472 -23 440 -56 440 -97 C440 -191 455 -207 542 -207 C586 -207 598 -202 621 -175 L616 -148 C596 -173 585 -177 544 -177 C479 -177 468 -164 468 -92 C468 -45 504 -16 531 -1 L562 -1 C563 -1 563 3 562 27 C563 35 563 36 562 36 L558 34 C535 26 531 30 531 62 L531 456 C531 488 535 492 558 484 L562 482 C563 482 563 483 562 491 C563 515 563 519 562 519 L531 519 L506 519 L481 519 L481 456 C456 515 406 529 307 529 C103 529 67 488 67 259 L67 260 L67 260 Z M481 259 C481 64 457 30 323 30 C152 30 122 64 122 259 C122 454 152 488 323 488 C457 488 481 454 481 259 L481 259 Z " />
<glyph glyph-name="Cacute" unicode="&#x106;" horiz-adv-x="720" d="M363 830 L408 830 L493 980 L428 980 L363 830 L363 830 Z M659 199 C598 60 558 35 395 35 C171 35 131 115 131 375 C131 635 171 715 395 715 C540 715 579 690 659 551 L680 569 L680 568 L700 586 L700 617 L682 617 C608 738 557 760 396 760 C121 760 72 670 72 375 C72 80 121 -10 396 -10 C590 -10 636 16 701 164 L659 199 L659 199 Z " />
<glyph glyph-name="cacute" unicode="&#x107;" horiz-adv-x="556" d="M279 600 L325 600 L409 750 L344 750 L279 600 L279 600 Z M482 151 C445 49 418 31 302 31 C149 31 122 36 122 260 C122 486 149 491 302 491 C417 491 425 470 483 352 L526 373 C461 507 453 530 302 530 C102 530 67 524 67 260 C67 -4 102 -10 302 -10 C450 -10 484 11 527 130 L482 151 L482 151 Z " />
<glyph glyph-name="Ccircumflex" unicode="&#x108;" horiz-adv-x="720" d="M386 941 L510 830 L556 830 L411 980 L360 980 L216 830 L261 830 L386 941 L386 941 Z M659 199 C598 60 558 35 395 35 C171 35 131 115 131 375 C131 635 171 715 395 715 C540 715 579 690 659 551 L680 569 L680 568 L700 586 L700 617 L682 617 C608 738 557 760 396 760 C121 760 72 670 72 375 C72 80 121 -10 396 -10 C590 -10 636 16 701 164 L659 199 L659 199 Z " />
<glyph glyph-name="Cdot" unicode="&#x10a;" horiz-adv-x="720" d="M356 830 L416 830 L416 890 L356 890 L356 830 L356 830 Z M659 199 C598 60 558 35 395 35 C171 35 131 115 131 375 C131 635 171 715 395 715 C540 715 579 690 659 551 L680 569 L680 568 L700 586 L700 617 L682 617 C608 738 557 760 396 760 C121 760 72 670 72 375 C72 80 121 -10 396 -10 C590 -10 636 16 701 164 L659 199 L659 199 Z " />
<glyph glyph-name="cdot" unicode="&#x10b;" horiz-adv-x="556" d="M272 600 L332 600 L332 660 L272 660 L272 600 L272 600 Z M482 151 C445 49 418 31 302 31 C149 31 122 36 122 260 C122 486 149 491 302 491 C417 491 425 470 483 352 L526 373 C461 507 453 530 302 530 C102 530 67 524 67 260 C67 -4 102 -10 302 -10 C450 -10 484 11 527 130 L482 151 L482 151 Z " />
<glyph glyph-name="Ccaron" unicode="&#x10c;" horiz-adv-x="720" d="M386 869 L510 980 L556 980 L411 830 L360 830 L216 980 L261 980 L386 869 L386 869 Z M659 199 C598 60 558 35 395 35 C171 35 131 115 131 375 C131 635 171 715 395 715 C540 715 579 690 659 551 L680 569 L680 568 L700 586 L700 617 L682 617 C608 738 557 760 396 760 C121 760 72 670 72 375 C72 80 121 -10 396 -10 C590 -10 636 16 701 164 L659 199 L659 199 Z " />
<glyph glyph-name="ccaron" unicode="&#x10d;" horiz-adv-x="556" d="M302 639 L426 750 L472 750 L327 600 L277 600 L132 750 L177 750 L302 639 L302 639 Z M482 151 C445 49 418 31 302 31 C149 31 122 36 122 260 C122 486 149 491 302 491 C417 491 425 470 483 352 L526 373 C461 507 453 530 302 530 C102 530 67 524 67 260 C67 -4 102 -10 302 -10 C450 -10 484 11 527 130 L482 151 L482 151 Z " />
<glyph glyph-name="Dcaron" unicode="&#x10e;" horiz-adv-x="779" d="M393 869 L517 980 L563 980 L418 830 L368 830 L223 980 L269 980 L393 869 L393 869 Z M149 0 L177 0 L365 0 C711 0 725 15 725 375 C725 726 700 750 335 750 L177 750 L149 750 L121 750 L89 750 L89 722 L89 713 L94 715 C117 723 121 719 121 687 L121 63 C121 31 117 27 94 35 L89 37 L89 28 L89 0 L121 0 L149 0 L149 0 Z M177 43 L177 707 L337 707 C644 707 665 685 665 375 C665 56 653 43 361 43 L177 43 L177 43 Z " />
<glyph glyph-name="dcaron" unicode="&#x10f;" horiz-adv-x="574" d="M554 760 L543 610 L580 610 L608 760 L554 760 L554 760 Z M67 260 C67 31 98 -10 272 -10 C376 -10 429 5 455 66 L455 10 L455 0 L480 0 L505 0 L537 0 C536 0 536 4 537 28 C536 34 536 36 536 37 L532 35 C509 27 505 31 505 63 L505 740 L505 750 L480 750 L455 750 L424 750 L424 722 L424 713 L428 715 C451 723 455 719 455 687 L455 454 C429 515 376 530 272 530 C98 530 67 489 67 260 L67 260 Z M453 260 C453 65 428 31 287 31 C146 31 121 65 121 260 C121 455 146 489 287 489 C428 489 453 455 453 260 L453 260 Z " />
<glyph glyph-name="Dcroat" unicode="&#x110;" horiz-adv-x="779" d="M41 358 L121 358 L121 63 C121 31 117 27 94 35 L89 37 L89 28 L89 0 L121 0 L149 0 L177 0 L365 0 C711 0 725 15 725 375 C725 726 700 750 335 750 L177 750 L149 750 L121 750 L89 750 L89 722 L89 713 L94 715 C117 723 121 719 121 687 L121 392 L41 392 L41 358 L41 358 Z M177 43 L177 358 L393 358 L393 392 L177 392 L177 707 L337 707 C644 707 665 685 665 375 C665 56 653 43 361 43 L177 43 L177 43 Z " />
<glyph glyph-name="dcroat" unicode="&#x111;" horiz-adv-x="574" d="M272 623 L454 623 L454 454 C428 515 375 530 271 530 C97 530 66 489 66 260 C66 31 97 -10 271 -10 C375 -10 428 5 454 66 L454 10 L454 0 L479 0 L504 0 L536 0 C535 0 535 4 536 28 C535 34 535 36 535 37 L531 35 C508 27 504 31 504 63 L504 623 L581 623 L581 657 L504 657 L504 740 L504 750 L479 750 L454 750 L423 750 L423 722 L423 713 L427 715 C450 723 454 719 454 687 L454 657 L272 657 L272 623 L272 623 Z M453 260 C453 65 428 31 287 31 C146 31 121 65 121 260 C121 455 146 489 287 489 C428 489 453 455 453 260 L453 260 Z " />
<glyph glyph-name="Emacron" unicode="&#x112;" horiz-adv-x="601" d="M189 830 L469 830 L469 865 L189 865 L189 830 L189 830 Z M552 23 L552 45 L552 77 L524 77 L515 77 L517 72 C525 50 521 46 489 45 L177 45 L177 365 L454 365 C486 365 490 361 482 338 L480 334 L489 334 L517 334 L517 365 L517 387 L517 409 L517 440 L489 440 L480 440 L482 436 C489 416 487 410 468 409 L454 409 L177 409 L177 705 L474 705 C506 705 510 701 502 678 L500 673 L509 673 L537 673 L537 705 L537 727 L537 750 L177 750 L176 750 L149 750 L121 750 L89 750 L89 722 L89 713 L94 715 C117 723 121 719 121 687 L121 63 C121 31 117 27 94 35 L89 37 L89 28 L89 0 L121 0 L149 0 L176 0 L177 0 L552 0 L552 23 L552 23 Z " />
<glyph glyph-name="emacron" unicode="&#x113;" horiz-adv-x="563" d="M164 600 L444 600 L444 635 L164 635 L164 600 L164 600 Z M486 148 C460 49 432 31 300 31 C151 31 123 36 122 250 L490 250 L490 285 L122 285 C124 486 155 491 304 491 C494 491 490 455 490 250 L540 250 C540 488 545 530 304 530 C103 530 67 524 67 260 C67 -4 102 -10 300 -10 C466 -10 501 11 533 131 L486 148 L486 148 Z " />
<glyph glyph-name="Ebreve" unicode="&#x114;" horiz-adv-x="601" d="M189 945 C189 839 210 820 329 820 C447 820 468 839 468 945 L431 945 C431 869 416 855 329 855 C241 855 226 869 226 945 L189 945 L189 945 Z M552 23 L552 45 L552 77 L524 77 L515 77 L517 72 C525 50 521 46 489 45 L177 45 L177 365 L454 365 C486 365 490 361 482 338 L480 334 L489 334 L517 334 L517 365 L517 387 L517 409 L517 440 L489 440 L480 440 L482 436 C489 416 487 410 468 409 L454 409 L177 409 L177 705 L474 705 C506 705 510 701 502 678 L500 673 L509 673 L537 673 L537 705 L537 727 L537 750 L177 750 L176 750 L149 750 L121 750 L89 750 L89 722 L89 713 L94 715 C117 723 121 719 121 687 L121 63 C121 31 117 27 94 35 L89 37 L89 28 L89 0 L121 0 L149 0 L176 0 L177 0 L552 0 L552 23 L552 23 Z " />
<glyph glyph-name="ebreve" unicode="&#x115;" horiz-adv-x="563" d="M165 715 C165 609 186 590 304 590 C422 590 443 609 443 715 L406 715 C406 639 391 625 304 625 C216 625 201 639 201 715 L165 715 L165 715 Z M486 148 C460 49 432 31 300 31 C151 31 123 36 122 250 L490 250 L490 285 L122 285 C124 486 155 491 304 491 C494 491 490 455 490 250 L540 250 C540 488 545 530 304 530 C103 530 67 524 67 260 C67 -4 102 -10 300 -10 C466 -10 501 11 533 131 L486 148 L486 148 Z " />
<glyph glyph-name="Edot" unicode="&#x116;" horiz-adv-x="601" d="M299 830 L359 830 L359 890 L299 890 L299 830 L299 830 Z M552 23 L552 45 L552 77 L524 77 L515 77 L517 72 C525 50 521 46 489 45 L177 45 L177 365 L454 365 C486 365 490 361 482 338 L480 334 L489 334 L517 334 L517 365 L517 387 L517 409 L517 440 L489 440 L480 440 L482 436 C489 416 487 410 468 409 L454 409 L177 409 L177 705 L474 705 C506 705 510 701 502 678 L500 673 L509 673 L537 673 L537 705 L537 727 L537 750 L177 750 L176 750 L149 750 L121 750 L89 750 L89 722 L89 713 L94 715 C117 723 121 719 121 687 L121 63 C121 31 117 27 94 35 L89 37 L89 28 L89 0 L121 0 L149 0 L176 0 L177 0 L552 0 L552 23 L552 23 Z " />
<glyph glyph-name="edot" unicode="&#x117;" horiz-adv-x="563" d="M274 600 L334 600 L334 660 L274 660 L274 600 L274 600 Z M486 148 C460 49 432 31 300 31 C151 31 123 36 122 250 L490 250 L490 285 L122 285 C124 486 155 491 304 491 C494 491 490 455 490 250 L540 250 C540 488 545 530 304 530 C103 530 67 524 67 260 C67 -4 102 -10 300 -10 C466 -10 501 11 533 131 L486 148 L486 148 Z " />
<glyph glyph-name="Eogonek" unicode="&#x118;" horiz-adv-x="601" d="M316 0 C284 -23 252 -56 252 -97 C252 -191 267 -207 354 -207 C399 -207 411 -202 433 -175 L429 -148 C408 -173 397 -177 356 -177 C291 -177 280 -164 280 -92 C280 -45 316 -16 343 -1 L552 -1 L552 22 L552 44 L552 76 L524 76 L515 76 L517 71 C525 49 521 45 489 44 L177 44 L177 364 L454 364 C486 364 490 360 482 337 L480 333 L489 333 L517 333 L517 364 L517 386 L517 408 L517 439 L489 439 L480 439 L482 435 C489 415 487 409 468 408 L454 408 L177 408 L177 704 L474 704 C506 704 510 700 502 677 L500 672 L509 672 L537 672 L537 704 L537 726 L537 749 L177 749 L176 749 L149 749 L121 749 L89 749 L89 721 L89 712 L94 714 C117 722 121 718 121 686 L121 62 C121 30 117 26 94 34 L89 36 L89 27 L89 -1 L121 -1 L149 -1 L176 -1 L177 -1 L316 0 L316 0 Z " />
<glyph glyph-name="eogonek" unicode="&#x119;" horiz-adv-x="563" d="M459 11 C498 30 516 66 533 130 L486 147 C460 48 432 30 300 30 C151 30 123 35 122 249 L490 249 L490 284 L122 284 C124 485 155 490 304 490 C494 490 490 454 490 249 L540 249 C540 487 545 529 304 529 C103 529 67 523 67 259 C67 -5 102 -11 300 -11 C348 -11 385 -9 414 -3 C389 -25 367 -54 367 -90 C367 -189 382 -206 469 -206 C514 -206 526 -201 548 -174 L544 -147 C524 -172 513 -176 472 -176 C406 -176 395 -162 395 -86 C395 -34 431 -4 458 11 L459 11 L459 11 Z " />
<glyph glyph-name="Ecaron" unicode="&#x11a;" horiz-adv-x="601" d="M329 869 L453 980 L499 980 L354 830 L304 830 L159 980 L204 980 L329 869 L329 869 Z M552 23 L552 45 L552 77 L524 77 L515 77 L517 72 C525 50 521 46 489 45 L177 45 L177 365 L454 365 C486 365 490 361 482 338 L480 334 L489 334 L517 334 L517 365 L517 387 L517 409 L517 440 L489 440 L480 440 L482 436 C489 416 487 410 468 409 L454 409 L177 409 L177 705 L474 705 C506 705 510 701 502 678 L500 673 L509 673 L537 673 L537 705 L537 727 L537 750 L177 750 L176 750 L149 750 L121 750 L89 750 L89 722 L89 713 L94 715 C117 723 121 719 121 687 L121 63 C121 31 117 27 94 35 L89 37 L89 28 L89 0 L121 0 L149 0 L176 0 L177 0 L552 0 L552 23 L552 23 Z " />
<glyph glyph-name="ecaron" unicode="&#x11b;" horiz-adv-x="563" d="M304 639 L428 750 L474 750 L329 600 L279 600 L134 750 L179 750 L304 639 L304 639 Z M486 148 C460 49 432 31 300 31 C151 31 123 36 122 250 L490 250 L490 285 L122 285 C124 486 155 491 304 491 C494 491 490 455 490 250 L540 250 C540 488 545 530 304 530 C103 530 67 524 67 260 C67 -4 102 -10 300 -10 C466 -10 501 11 533 131 L486 148 L486 148 Z " />
<glyph glyph-name="Gcircumflex" unicode="&#x11c;" horiz-adv-x="773" d="M428 941 L553 830 L598 830 L454 980 L403 980 L258 830 L304 830 L428 941 L428 941 Z M445 373 L675 373 L675 126 C583 49 558 35 428 35 C176 35 131 86 131 375 C131 664 176 715 428 715 C556 715 592 690 672 551 L692 568 L713 586 L713 617 L694 617 C688 627 682 636 676 645 C674 648 671 652 668 657 C607 743 555 760 428 760 C125 760 71 702 71 375 C71 48 125 -10 428 -10 C587 -10 618 6 728 99 L728 418 L445 418 L445 373 L445 373 Z " />
<glyph glyph-name="Gbreve" unicode="&#x11e;" horiz-adv-x="773" d="M289 945 C289 839 310 820 428 820 C547 820 568 839 568 945 L531 945 C531 869 516 855 428 855 C341 855 326 869 326 945 L289 945 L289 945 Z M445 373 L675 373 L675 126 C583 49 558 35 428 35 C176 35 131 86 131 375 C131 664 176 715 428 715 C556 715 592 690 672 551 L692 568 L713 586 L713 617 L694 617 C688 627 682 636 676 645 C674 648 671 652 668 657 C607 743 555 760 428 760 C125 760 71 702 71 375 C71 48 125 -10 428 -10 C587 -10 618 6 728 99 L728 418 L445 418 L445 373 L445 373 Z " />
<glyph glyph-name="gbreve" unicode="&#x11f;" horiz-adv-x="564" d="M142 715 C142 609 163 590 281 590 C399 590 420 609 420 715 L383 715 C383 639 368 625 281 625 C193 625 178 639 178 715 L142 715 L142 715 Z M67 -74 C67 -178 99 -176 281 -176 C498 -176 494 -146 494 21 L494 457 C494 489 498 493 521 485 L525 483 C525 484 525 486 526 492 C525 516 525 520 526 520 L494 520 L469 520 L444 520 L444 455 C419 515 368 530 267 530 C97 530 67 535 67 260 C67 -5 97 0 267 0 C368 0 419 14 444 72 L444 0 C444 -114 447 -134 276 -134 C145 -134 122 -135 122 -74 L67 -74 L67 -74 Z M283 489 C420 489 444 455 444 260 C444 74 420 41 283 41 C146 41 122 37 122 260 C122 494 146 489 283 489 L283 489 Z M525 483 L526 483 L525 483 L525 483 Z " />
<glyph glyph-name="Gdot" unicode="&#x120;" horiz-adv-x="773" d="M398 830 L458 830 L458 890 L398 890 L398 830 L398 830 Z M445 373 L675 373 L675 126 C583 49 558 35 428 35 C176 35 131 86 131 375 C131 664 176 715 428 715 C556 715 592 690 672 551 L692 568 L713 586 L713 617 L694 617 C688 627 682 636 676 645 C674 648 671 652 668 657 C607 743 555 760 428 760 C125 760 71 702 71 375 C71 48 125 -10 428 -10 C587 -10 618 6 728 99 L728 418 L445 418 L445 373 L445 373 Z " />
<glyph glyph-name="gdot" unicode="&#x121;" horiz-adv-x="564" d="M251 600 L311 600 L311 660 L251 660 L251 600 L251 600 Z M67 -74 C67 -178 99 -176 281 -176 C498 -176 494 -146 494 21 L494 457 C494 489 498 493 521 485 L525 483 C525 484 525 486 526 492 C525 516 525 520 526 520 L494 520 L469 520 L444 520 L444 455 C419 515 368 530 267 530 C97 530 67 535 67 260 C67 -5 97 0 267 0 C368 0 419 14 444 72 L444 0 C444 -114 447 -134 276 -134 C145 -134 122 -135 122 -74 L67 -74 L67 -74 Z M283 489 C420 489 444 455 444 260 C444 74 420 41 283 41 C146 41 122 37 122 260 C122 494 146 489 283 489 L283 489 Z M525 483 L526 483 L525 483 L525 483 Z " />
<glyph glyph-name="Hcircumflex" unicode="&#x124;" horiz-adv-x="737" d="M379 941 L503 830 L549 830 L404 980 L353 980 L209 830 L254 830 L379 941 L379 941 Z M609 0 L637 0 L668 0 L668 28 L668 37 L663 35 C644 28 638 30 637 49 L637 63 L637 687 L637 701 C638 720 644 722 663 715 L668 713 L668 722 L668 750 L637 750 L609 750 L581 750 L549 750 L549 722 L549 713 L554 715 C577 723 581 719 581 687 L581 418 L177 418 L177 687 L177 701 C178 720 184 722 203 715 L208 713 L208 722 L208 750 L177 750 L149 750 L121 750 L89 750 L89 722 L89 713 L94 715 C117 723 121 719 121 687 L121 63 C121 31 117 27 94 35 L89 37 L89 28 L89 0 L121 0 L149 0 L177 0 L208 0 L208 28 L208 37 L203 35 C184 28 178 30 177 49 L177 63 L177 372 L581 372 L581 63 C581 31 577 27 554 35 L549 37 L549 28 L549 0 L581 0 L609 0 L609 0 Z " />
<glyph glyph-name="Itilde" unicode="&#x128;" horiz-adv-x="258" d="M50 830 C50 884 55 894 83 894 C142 894 108 820 180 820 C237 820 247 836 247 923 L210 923 C210 869 205 859 177 859 C118 859 152 933 80 933 C23 933 13 918 13 830 L50 830 L50 830 Z M130 0 L158 0 L189 0 C190 0 190 4 189 28 C190 36 190 37 189 37 L185 35 C162 27 158 31 158 63 L158 687 C158 719 162 723 185 715 L189 713 C190 713 190 714 189 722 C190 746 190 750 189 750 L158 750 L130 750 L102 750 L70 750 L70 722 L70 713 L75 715 C98 723 102 719 102 687 L102 63 C102 31 98 27 75 35 L70 37 L70 28 L70 0 L102 0 L130 0 L130 0 Z " />
<glyph glyph-name="itilde" unicode="&#x129;" horiz-adv-x="196" d="M6 600 C6 654 11 664 39 664 C98 664 64 590 136 590 C193 590 203 606 203 693 L166 693 C166 639 161 629 132 629 C73 629 108 703 36 703 C-21 703 -31 688 -31 600 L6 600 L6 600 Z M61 520 L29 520 L29 492 L29 483 L34 485 C57 493 61 489 61 457 L61 0 L111 0 L111 520 L86 520 L61 520 L61 520 Z " />
<glyph glyph-name="Imacron" unicode="&#x12a;" horiz-adv-x="258" d="M-10 830 L270 830 L270 865 L-10 865 L-10 830 L-10 830 Z M130 0 L158 0 L189 0 C190 0 190 4 189 28 C190 36 190 37 189 37 L185 35 C162 27 158 31 158 63 L158 687 C158 719 162 723 185 715 L189 713 C190 713 190 714 189 722 C190 746 190 750 189 750 L158 750 L130 750 L102 750 L70 750 L70 722 L70 713 L75 715 C98 723 102 719 102 687 L102 63 C102 31 98 27 75 35 L70 37 L70 28 L70 0 L102 0 L130 0 L130 0 Z " />
<glyph glyph-name="imacron" unicode="&#x12b;" horiz-adv-x="196" d="M-54 600 L226 600 L226 635 L-54 635 L-54 600 L-54 600 Z M86 0 L111 0 L142 0 C143 0 143 4 142 28 C143 36 143 37 142 37 L138 35 C115 27 111 31 111 63 L111 520 L86 520 L61 520 L29 520 L29 492 L29 483 L34 485 C57 493 61 489 61 457 L61 63 C61 31 57 27 34 35 L29 37 L29 28 L29 0 L61 0 L86 0 L86 0 Z " />
<glyph glyph-name="Ibreve" unicode="&#x12c;" horiz-adv-x="258" d="M-9 945 C-9 839 12 820 130 820 C248 820 269 839 269 945 L232 945 C232 869 217 855 130 855 C43 855 28 869 28 945 L-9 945 L-9 945 Z M130 0 L158 0 L189 0 C190 0 190 4 189 28 C190 36 190 37 189 37 L185 35 C162 27 158 31 158 63 L158 687 C158 719 162 723 185 715 L189 713 C190 713 190 714 189 722 C190 746 190 750 189 750 L158 750 L130 750 L102 750 L70 750 L70 722 L70 713 L75 715 C98 723 102 719 102 687 L102 63 C102 31 98 27 75 35 L70 37 L70 28 L70 0 L102 0 L130 0 L130 0 Z " />
<glyph glyph-name="ibreve" unicode="&#x12d;" horiz-adv-x="196" d="M-53 715 C-53 609 -32 590 86 590 C204 590 225 609 225 715 L188 715 C188 639 173 625 86 625 C-1 625 -16 639 -16 715 L-53 715 L-53 715 Z M86 0 L111 0 L142 0 C143 0 143 4 142 28 C143 36 143 37 142 37 L138 35 C115 27 111 31 111 63 L111 520 L86 520 L61 520 L29 520 L29 492 L29 483 L34 485 C57 493 61 489 61 457 L61 63 C61 31 57 27 34 35 L29 37 L29 28 L29 0 L61 0 L86 0 L86 0 Z " />
<glyph glyph-name="Idot" unicode="&#x130;" horiz-adv-x="258" d="M100 830 L160 830 L160 890 L100 890 L100 830 L100 830 Z M130 0 L158 0 L189 0 C190 0 190 4 189 28 C190 36 190 37 189 37 L185 35 C162 27 158 31 158 63 L158 687 C158 719 162 723 185 715 L189 713 C190 713 190 714 189 722 C190 746 190 750 189 750 L158 750 L130 750 L102 750 L70 750 L70 722 L70 713 L75 715 C98 723 102 719 102 687 L102 63 C102 31 98 27 75 35 L70 37 L70 28 L70 0 L102 0 L130 0 L130 0 Z " />
<glyph glyph-name="dotlessi" unicode="&#x131;" horiz-adv-x="262" d="M142 0 L192 0 L192 520 L142 520 L142 0 L142 0 Z " />
<glyph glyph-name="Jcircumflex" unicode="&#x134;" horiz-adv-x="492" d="M380 941 L504 830 L550 830 L405 980 L355 980 L210 830 L256 830 L380 941 L380 941 Z M67 283 L67 221 C67 -5 71 -10 237 -10 C397 -10 408 25 408 220 L408 687 C408 719 412 723 435 715 L439 713 L439 722 L439 750 L408 750 L380 750 L352 750 L320 750 L320 722 L320 713 L325 715 C348 723 352 719 352 687 L352 220 C352 69 345 42 237 42 C126 42 123 46 123 237 L123 292 L67 283 L67 283 Z " />
<glyph glyph-name="Lacute" unicode="&#x139;" horiz-adv-x="528" d="M107 830 L153 830 L238 980 L172 980 L107 830 L107 830 Z M483 23 L483 45 L483 77 L455 77 L446 77 L448 72 C456 50 452 46 420 45 L158 45 L158 687 C158 719 162 723 185 715 L189 713 C190 713 190 714 189 722 C190 746 190 750 189 750 L158 750 L130 750 L102 750 L70 750 L70 722 L70 713 L75 715 C98 723 102 719 102 687 L102 63 C102 31 98 27 75 35 L70 37 L70 28 L70 0 L102 0 L130 0 L158 0 L483 0 L483 23 L483 23 Z " />
<glyph glyph-name="lacute" unicode="&#x13a;" horiz-adv-x="285" d="M123 790 L169 790 L254 940 L188 940 L123 790 L123 790 Z M159 0 L184 0 L215 0 L215 28 L215 37 L210 35 C191 28 185 30 184 49 L184 63 L184 740 L184 750 L159 750 L134 750 L102 750 L102 722 L102 713 L107 715 C130 723 134 719 134 687 L134 63 C134 31 130 27 107 35 L102 37 L102 28 L102 0 L134 0 L159 0 L159 0 Z " />
<glyph glyph-name="Lcaron" unicode="&#x13d;" horiz-adv-x="528" d="M325 760 L313 610 L350 610 L379 760 L325 760 L325 760 Z M483 23 L483 45 L483 77 L455 77 L446 77 L448 72 C456 50 452 46 420 45 L158 45 L158 687 C158 719 162 723 185 715 L189 713 C190 713 190 714 189 722 C190 746 190 750 189 750 L158 750 L130 750 L102 750 L70 750 L70 722 L70 713 L75 715 C98 723 102 719 102 687 L102 63 C102 31 98 27 75 35 L70 37 L70 28 L70 0 L102 0 L130 0 L158 0 L483 0 L483 23 L483 23 Z " />
<glyph glyph-name="lcaron" unicode="&#x13e;" horiz-adv-x="285" d="M234 760 L222 610 L259 610 L288 760 L234 760 L234 760 Z M159 0 L184 0 L215 0 L215 28 L215 37 L210 35 C191 28 185 30 184 49 L184 63 L184 740 L184 750 L159 750 L134 750 L102 750 L102 722 L102 713 L107 715 C130 723 134 719 134 687 L134 63 C134 31 130 27 107 35 L102 37 L102 28 L102 0 L134 0 L159 0 L159 0 Z " />
<glyph glyph-name="Lslash" unicode="&#x141;" horiz-adv-x="528" d="M22 307 L102 334 L102 63 C102 31 98 27 75 35 L70 37 L70 28 L70 0 L102 0 L130 0 L158 0 L483 0 L483 23 L483 45 L483 77 L455 77 L446 77 L448 72 C456 50 452 46 420 45 L158 45 L158 353 L320 407 L320 443 L158 389 L158 687 C158 719 162 723 185 715 L189 713 C190 713 190 714 189 722 C190 746 190 750 189 750 L158 750 L130 750 L102 750 L70 750 L70 722 L70 713 L75 715 C98 723 102 719 102 687 L102 370 L22 343 L22 307 L22 307 Z " />
<glyph glyph-name="lslash" unicode="&#x142;" horiz-adv-x="285" d="M54 307 L134 345 L134 63 C134 31 130 27 107 35 L102 37 L102 28 L102 0 L134 0 L159 0 L184 0 L215 0 L215 28 L215 37 L210 35 C191 28 185 30 184 49 L184 63 L184 369 L264 407 L264 443 L184 405 L184 740 L184 750 L159 750 L134 750 L102 750 L102 722 L102 713 L107 715 C130 723 134 719 134 687 L134 381 L54 343 L54 307 L54 307 Z " />
<glyph glyph-name="Nacute" unicode="&#x143;" horiz-adv-x="704" d="M239 830 L285 830 L370 980 L305 980 L239 830 L239 830 Z M548 687 L548 74 L183 750 L177 750 L149 750 L121 750 L89 750 L89 722 L89 713 L94 715 C117 723 121 719 121 687 L121 63 C121 31 117 27 94 35 L89 37 L89 28 L89 0 L121 0 L149 0 L177 0 L208 0 L208 28 L208 37 L203 35 C184 28 178 30 177 49 L177 63 L177 646 L526 0 L548 0 L588 0 L604 0 L604 687 L604 700 C605 720 612 722 632 715 L636 713 L636 722 L636 750 L605 750 L577 750 L549 750 L517 750 L517 722 L517 713 L522 715 C545 723 549 719 549 687 L548 687 L548 687 Z " />
<glyph glyph-name="nacute" unicode="&#x144;" horiz-adv-x="549" d="M263 600 L308 600 L393 750 L328 750 L263 600 L263 600 Z M444 0 L469 0 L500 0 L500 28 L500 37 L495 35 C476 28 470 30 469 49 L469 63 L469 315 C469 511 446 525 319 525 C220 525 173 514 152 468 L152 510 L152 520 L127 520 L115 520 L102 520 L71 520 L71 492 L71 483 L75 485 C98 493 102 489 102 457 L102 63 C102 31 98 27 75 35 L71 37 L71 28 L71 0 L102 0 L127 0 L152 0 L184 0 L184 28 L184 37 L179 35 C157 27 153 31 152 63 L152 348 C152 460 174 480 300 480 C401 480 419 469 419 315 L419 63 C419 31 415 27 392 35 L387 37 L387 28 L387 0 L419 0 L444 0 L444 0 Z " />
<glyph glyph-name="Ncaron" unicode="&#x147;" horiz-adv-x="704" d="M362 869 L487 980 L532 980 L388 830 L337 830 L192 980 L238 980 L362 869 L362 869 Z M548 687 L548 74 L183 750 L177 750 L149 750 L121 750 L89 750 L89 722 L89 713 L94 715 C117 723 121 719 121 687 L121 63 C121 31 117 27 94 35 L89 37 L89 28 L89 0 L121 0 L149 0 L177 0 L208 0 L208 28 L208 37 L203 35 C184 28 178 30 177 49 L177 63 L177 646 L526 0 L548 0 L588 0 L604 0 L604 687 L604 700 C605 720 612 722 632 715 L636 713 L636 722 L636 750 L605 750 L577 750 L549 750 L517 750 L517 722 L517 713 L522 715 C545 723 549 719 549 687 L548 687 L548 687 Z " />
<glyph glyph-name="ncaron" unicode="&#x148;" horiz-adv-x="549" d="M285 639 L410 750 L455 750 L311 600 L260 600 L115 750 L161 750 L285 639 L285 639 Z M444 0 L469 0 L500 0 L500 28 L500 37 L495 35 C476 28 470 30 469 49 L469 63 L469 315 C469 511 446 525 319 525 C220 525 173 514 152 468 L152 510 L152 520 L127 520 L115 520 L102 520 L71 520 L71 492 L71 483 L75 485 C98 493 102 489 102 457 L102 63 C102 31 98 27 75 35 L71 37 L71 28 L71 0 L102 0 L127 0 L152 0 L184 0 L184 28 L184 37 L179 35 C157 27 153 31 152 63 L152 348 C152 460 174 480 300 480 C401 480 419 469 419 315 L419 63 C419 31 415 27 392 35 L387 37 L387 28 L387 0 L419 0 L444 0 L444 0 Z " />
<glyph glyph-name="Omacron" unicode="&#x14c;" horiz-adv-x="814" d="M278 830 L558 830 L558 865 L278 865 L278 830 L278 830 Z M418 35 C178 35 136 86 136 375 C136 650 190 715 418 715 C645 715 699 650 699 375 C699 86 657 35 418 35 L418 35 Z M76 375 C76 48 127 -10 418 -10 C708 -10 759 48 759 375 C759 686 693 760 418 760 C142 760 76 686 76 375 L76 375 Z " />
<glyph glyph-name="omacron" unicode="&#x14d;" horiz-adv-x="590" d="M164 600 L444 600 L444 635 L164 635 L164 600 L164 600 Z M304 27 C126 27 122 62 122 260 C122 488 149 493 304 493 C482 493 486 458 486 260 C486 32 459 27 304 27 L304 27 Z M67 260 C67 31 72 -10 304 -10 C505 -10 540 -4 540 260 C540 489 535 530 304 530 C103 530 67 524 67 260 L67 260 Z " />
<glyph glyph-name="Obreve" unicode="&#x14e;" horiz-adv-x="814" d="M278 945 C278 839 299 820 418 820 C536 820 557 839 557 945 L520 945 C520 869 505 855 418 855 C330 855 315 869 315 945 L278 945 L278 945 Z M418 35 C178 35 136 86 136 375 C136 650 190 715 418 715 C645 715 699 650 699 375 C699 86 657 35 418 35 L418 35 Z M76 375 C76 48 127 -10 418 -10 C708 -10 759 48 759 375 C759 686 693 760 418 760 C142 760 76 686 76 375 L76 375 Z " />
<glyph glyph-name="obreve" unicode="&#x14f;" horiz-adv-x="590" d="M164 715 C164 609 185 590 304 590 C422 590 443 609 443 715 L406 715 C406 639 391 625 304 625 C216 625 201 639 201 715 L164 715 L164 715 Z M304 27 C126 27 122 62 122 260 C122 488 149 493 304 493 C482 493 486 458 486 260 C486 32 459 27 304 27 L304 27 Z M67 260 C67 31 72 -10 304 -10 C505 -10 540 -4 540 260 C540 489 535 530 304 530 C103 530 67 524 67 260 L67 260 Z " />
<glyph glyph-name="Racute" unicode="&#x154;" horiz-adv-x="655" d="M340 830 L386 830 L470 980 L405 980 L340 830 L340 830 Z M586 0 L618 0 L631 0 L631 22 L631 37 L627 35 C611 28 605 31 592 55 L455 336 C596 339 606 363 606 526 C606 736 594 751 415 751 L178 751 L150 751 L136 751 L122 751 L90 751 L90 723 L90 714 L95 716 C118 724 122 720 122 688 L122 64 C122 32 118 28 95 36 L90 38 L90 29 L90 1 L122 1 L150 1 L178 1 L209 1 L209 29 L209 38 L204 36 C185 29 179 31 178 50 L178 64 L178 336 L391 336 L555 1 L586 0 L586 0 Z M178 379 L178 708 L413 708 C541 708 550 696 550 526 C550 389 541 379 417 379 L178 379 L178 379 Z " />
<glyph glyph-name="racute" unicode="&#x155;" horiz-adv-x="370" d="M203 600 L249 600 L334 750 L269 750 L203 600 L203 600 Z M350 466 L350 520 L340 520 C223 520 173 508 152 458 L152 510 L152 520 L127 520 L115 520 L102 520 L71 520 L71 492 L71 483 L75 485 C98 493 102 489 102 457 L102 63 C102 31 98 27 75 35 L71 37 L71 28 L71 0 L102 0 L127 0 L152 0 L184 0 L184 28 L184 37 L179 35 C157 27 153 31 152 63 L152 258 L152 289 C152 439 159 466 334 466 L350 466 L350 466 Z " />
<glyph glyph-name="Rcaron" unicode="&#x158;" horiz-adv-x="655" d="M363 869 L487 980 L533 980 L388 830 L338 830 L193 980 L238 980 L363 869 L363 869 Z M586 0 L618 0 L631 0 L631 22 L631 37 L627 35 C611 28 605 31 592 55 L455 336 C596 339 606 363 606 526 C606 736 594 751 415 751 L178 751 L150 751 L136 751 L122 751 L90 751 L90 723 L90 714 L95 716 C118 724 122 720 122 688 L122 64 C122 32 118 28 95 36 L90 38 L90 29 L90 1 L122 1 L150 1 L178 1 L209 1 L209 29 L209 38 L204 36 C185 29 179 31 178 50 L178 64 L178 336 L391 336 L555 1 L586 0 L586 0 Z M178 379 L178 708 L413 708 C541 708 550 696 550 526 C550 389 541 379 417 379 L178 379 L178 379 Z " />
<glyph glyph-name="rcaron" unicode="&#x159;" horiz-adv-x="370" d="M226 639 L350 750 L396 750 L251 600 L201 600 L56 750 L102 750 L226 639 L226 639 Z M350 466 L350 520 L340 520 C223 520 173 508 152 458 L152 510 L152 520 L127 520 L115 520 L102 520 L71 520 L71 492 L71 483 L75 485 C98 493 102 489 102 457 L102 63 C102 31 98 27 75 35 L71 37 L71 28 L71 0 L102 0 L127 0 L152 0 L184 0 L184 28 L184 37 L179 35 C157 27 153 31 152 63 L152 258 L152 289 C152 439 159 466 334 466 L350 466 L350 466 Z " />
<glyph glyph-name="Sacute" unicode="&#x15a;" horiz-adv-x="551" d="M243 830 L288 830 L373 980 L308 980 L243 830 L243 830 Z M88 100 C89 97 91 94 93 91 C147 -2 189 -10 303 -10 C502 -10 516 23 516 209 C516 361 501 375 286 414 C124 444 113 453 113 554 C113 687 134 710 250 710 C312 710 331 702 439 581 L459 599 L479 617 L479 648 L461 648 L451 648 C450 649 449 650 448 651 C445 655 436 664 419 681 C346 755 318 761 249 761 C84 761 55 729 55 548 C55 409 69 396 270 359 C447 326 459 316 459 209 C459 65 449 40 302 40 C195 40 171 51 99 206 L51 173 L51 141 L66 141 C73 126 80 113 87 101 L88 100 L88 100 Z " />
<glyph glyph-name="sacute" unicode="&#x15b;" horiz-adv-x="500" d="M243 600 L289 600 L374 750 L308 750 L243 600 L243 600 Z M71 72 C73 66 78 59 86 50 C120 5 166 -5 264 -5 C439 -5 470 17 470 141 C470 247 457 267 271 282 C132 294 122 308 122 383 C122 472 144 488 266 488 C347 488 369 469 417 363 L437 372 L458 382 L458 413 L444 413 C398 507 365 525 266 525 C103 525 74 503 74 379 C74 272 86 252 259 238 C410 225 420 211 420 137 C420 49 397 34 264 34 C153 34 126 52 87 153 L42 136 L42 104 L55 104 C60 92 65 81 70 71 L71 72 L71 72 Z " />
<glyph glyph-name="Scircumflex" unicode="&#x15c;" horiz-adv-x="551" d="M266 941 L390 830 L436 830 L291 980 L240 980 L96 830 L141 830 L266 941 L266 941 Z M88 100 C89 97 91 94 93 91 C147 -2 189 -10 303 -10 C502 -10 516 23 516 209 C516 361 501 375 286 414 C124 444 113 453 113 554 C113 687 134 710 250 710 C312 710 331 702 439 581 L459 599 L479 617 L479 648 L461 648 L451 648 C450 649 449 650 448 651 C445 655 436 664 419 681 C346 755 318 761 249 761 C84 761 55 729 55 548 C55 409 69 396 270 359 C447 326 459 316 459 209 C459 65 449 40 302 40 C195 40 171 51 99 206 L51 173 L51 141 L66 141 C73 126 80 113 87 101 L88 100 L88 100 Z " />
<glyph glyph-name="Scedilla" unicode="&#x15e;" horiz-adv-x="551" d="M284 -81 L304 -10 C503 -10 517 23 517 209 C517 361 502 375 287 414 C125 444 114 453 114 554 C114 687 135 710 251 710 C313 710 332 702 440 581 L460 599 L480 617 L480 648 L462 648 L452 648 C451 649 450 650 449 651 C446 655 437 664 420 681 C347 755 319 761 250 761 C85 761 56 729 56 548 C56 409 70 396 271 359 C448 326 460 316 460 209 C460 65 450 40 303 40 C196 40 172 51 100 206 L52 173 L52 141 L67 141 C74 126 81 113 88 101 C89 98 91 95 93 92 C144 4 184 -8 285 -9 L259 -102 L274 -111 C278 -97 284 -95 316 -95 C352 -95 359 -103 359 -146 C359 -189 352 -197 314 -197 C280 -197 273 -192 269 -164 L249 -179 C255 -215 265 -221 316 -221 C376 -221 387 -210 387 -146 C387 -82 377 -71 320 -71 C298 -71 288 -72 282 -80 L284 -81 L284 -81 Z " />
<glyph glyph-name="scedilla" unicode="&#x15f;" horiz-adv-x="500" d="M246 -81 L267 -5 C440 -5 471 17 471 140 C471 246 458 266 272 281 C133 293 123 307 123 382 C123 471 145 487 267 487 C348 487 370 468 418 362 L438 371 L459 381 L459 412 L445 412 C399 506 366 524 267 524 C104 524 75 502 75 378 C75 271 87 251 260 237 C411 224 421 210 421 136 C421 48 398 33 265 33 C154 33 127 51 88 152 L43 135 L43 103 L56 103 C61 91 66 80 71 70 C73 64 78 57 86 48 C119 5 162 -6 251 -7 L223 -105 L238 -114 L239 -110 C243 -100 252 -98 280 -98 C317 -98 324 -106 324 -149 C324 -192 317 -200 279 -200 C245 -200 238 -195 234 -167 L214 -182 C220 -218 230 -224 280 -224 C341 -224 352 -213 352 -149 C352 -85 342 -74 285 -74 C263 -74 253 -75 247 -82 L246 -81 L246 -81 Z " />
<glyph glyph-name="Scaron" unicode="&#x160;" horiz-adv-x="551" d="M266 869 L390 980 L436 980 L291 830 L240 830 L96 980 L141 980 L266 869 L266 869 Z M88 100 C89 97 91 94 93 91 C147 -2 189 -10 303 -10 C502 -10 516 23 516 209 C516 361 501 375 286 414 C124 444 113 453 113 554 C113 687 134 710 250 710 C312 710 331 702 439 581 L459 599 L479 617 L479 648 L461 648 L451 648 C450 649 449 650 448 651 C445 655 436 664 419 681 C346 755 318 761 249 761 C84 761 55 729 55 548 C55 409 69 396 270 359 C447 326 459 316 459 209 C459 65 449 40 302 40 C195 40 171 51 99 206 L51 173 L51 141 L66 141 C73 126 80 113 87 101 L88 100 L88 100 Z " />
<glyph glyph-name="scaron" unicode="&#x161;" horiz-adv-x="500" d="M266 639 L390 750 L436 750 L291 600 L241 600 L96 750 L142 750 L266 639 L266 639 Z M71 72 C73 66 78 59 86 50 C120 5 166 -5 264 -5 C439 -5 470 17 470 141 C470 247 457 267 271 282 C132 294 122 308 122 383 C122 472 144 488 266 488 C347 488 369 469 417 363 L437 372 L458 382 L458 413 L444 413 C398 507 365 525 266 525 C103 525 74 503 74 379 C74 272 86 252 259 238 C410 225 420 211 420 137 C420 49 397 34 264 34 C153 34 126 52 87 153 L42 136 L42 104 L55 104 C60 92 65 81 70 71 L71 72 L71 72 Z " />
<glyph glyph-name="Tcaron" unicode="&#x164;" horiz-adv-x="595" d="M298 869 L422 980 L468 980 L323 830 L272 830 L128 980 L173 980 L298 869 L298 869 Z M298 0 L325 0 L357 0 L357 28 L357 37 L352 35 C330 27 326 31 325 63 L325 705 L522 705 C554 705 558 701 550 678 L548 673 L557 673 L585 673 L585 705 L585 727 L585 750 L325 750 L270 750 L10 750 L10 727 L10 705 L10 673 L38 673 L47 673 L45 678 C37 701 41 705 73 705 L270 705 L270 63 C270 31 266 27 243 35 L238 37 L238 28 L238 0 L270 0 L297 0 L298 0 L298 0 Z " />
<glyph glyph-name="tcaron" unicode="&#x165;" horiz-adv-x="345" d="M222 760 L211 610 L248 610 L277 760 L222 760 L222 760 Z M315 520 L172 520 L172 697 L122 655 L122 520 L10 520 L10 481 L122 481 L122 137 C122 -9 87 0 219 0 L315 0 L315 41 L240 41 C147 41 172 35 172 137 L172 481 L315 481 L315 520 L315 520 Z " />
<glyph glyph-name="Utilde" unicode="&#x168;" horiz-adv-x="690" d="M274 820 C274 874 279 884 308 884 C367 884 332 810 404 810 C461 810 471 826 471 913 L434 913 C434 859 429 849 401 849 C342 849 376 923 304 923 C247 923 237 908 237 820 L274 820 L274 820 Z M114 687 L114 293 C114 10 130 -10 354 -10 C579 -10 595 10 595 293 L595 687 L595 701 C596 720 602 722 621 715 L626 713 L626 722 L626 750 L595 750 L567 750 L539 750 L507 750 L507 722 L507 713 L512 715 C535 723 539 719 539 687 L539 302 C539 59 527 42 354 42 C182 42 170 59 170 302 L170 687 L170 701 C171 720 177 722 196 715 L201 713 L201 722 L201 750 L170 750 L142 750 L114 750 L82 750 L82 722 L82 713 L87 715 C110 723 114 719 114 687 L114 687 Z " />
<glyph glyph-name="utilde" unicode="&#x169;" horiz-adv-x="549" d="M201 600 C201 654 206 664 234 664 C293 664 259 590 331 590 C387 590 397 606 397 693 L361 693 C361 639 356 629 327 629 C268 629 303 703 230 703 C174 703 164 688 164 600 L201 600 L201 600 Z M464 63 L464 520 L439 520 L414 520 L382 520 L382 492 L382 483 L387 485 C410 493 414 489 414 457 L414 144 C414 51 394 35 284 35 C133 35 147 44 147 172 L147 520 L122 520 L97 520 L66 520 L66 492 L66 483 L70 485 C93 493 97 489 97 457 L97 172 C97 2 79 -10 268 -10 C355 -10 396 0 414 42 L414 11 L414 1 L439 1 L464 1 L495 1 C496 1 496 5 495 29 C496 37 496 38 495 38 L491 36 C468 28 464 32 464 64 L464 63 L464 63 Z " />
<glyph glyph-name="Umacron" unicode="&#x16a;" horiz-adv-x="690" d="M214 820 L494 820 L494 855 L214 855 L214 820 L214 820 Z M114 687 L114 293 C114 10 130 -10 354 -10 C579 -10 595 10 595 293 L595 687 L595 701 C596 720 602 722 621 715 L626 713 L626 722 L626 750 L595 750 L567 750 L539 750 L507 750 L507 722 L507 713 L512 715 C535 723 539 719 539 687 L539 302 C539 59 527 42 354 42 C182 42 170 59 170 302 L170 687 L170 701 C171 720 177 722 196 715 L201 713 L201 722 L201 750 L170 750 L142 750 L114 750 L82 750 L82 722 L82 713 L87 715 C110 723 114 719 114 687 L114 687 Z " />
<glyph glyph-name="umacron" unicode="&#x16b;" horiz-adv-x="549" d="M141 600 L421 600 L421 635 L141 635 L141 600 L141 600 Z M464 63 L464 520 L439 520 L414 520 L382 520 L382 492 L382 483 L387 485 C410 493 414 489 414 457 L414 144 C414 51 394 35 284 35 C133 35 147 44 147 172 L147 520 L122 520 L97 520 L66 520 L66 492 L66 483 L70 485 C93 493 97 489 97 457 L97 172 C97 2 79 -10 268 -10 C355 -10 396 0 414 42 L414 11 L414 1 L439 1 L464 1 L495 1 C496 1 496 5 495 29 C496 37 496 38 495 38 L491 36 C468 28 464 32 464 64 L464 63 L464 63 Z " />
<glyph glyph-name="Ubreve" unicode="&#x16c;" horiz-adv-x="690" d="M215 935 C215 829 236 810 354 810 C472 810 493 829 493 935 L456 935 C456 859 441 845 354 845 C267 845 252 859 252 935 L215 935 L215 935 Z M114 687 L114 293 C114 10 130 -10 354 -10 C579 -10 595 10 595 293 L595 687 L595 701 C596 720 602 722 621 715 L626 713 L626 722 L626 750 L595 750 L567 750 L539 750 L507 750 L507 722 L507 713 L512 715 C535 723 539 719 539 687 L539 302 C539 59 527 42 354 42 C182 42 170 59 170 302 L170 687 L170 701 C171 720 177 722 196 715 L201 713 L201 722 L201 750 L170 750 L142 750 L114 750 L82 750 L82 722 L82 713 L87 715 C110 723 114 719 114 687 L114 687 Z " />
<glyph glyph-name="ubreve" unicode="&#x16d;" horiz-adv-x="549" d="M141 715 C141 609 162 590 281 590 C399 590 420 609 420 715 L383 715 C383 639 368 625 281 625 C193 625 178 639 178 715 L141 715 L141 715 Z M464 63 L464 520 L439 520 L414 520 L382 520 L382 492 L382 483 L387 485 C410 493 414 489 414 457 L414 144 C414 51 394 35 284 35 C133 35 147 44 147 172 L147 520 L122 520 L97 520 L66 520 L66 492 L66 483 L70 485 C93 493 97 489 97 457 L97 172 C97 2 79 -10 268 -10 C355 -10 396 0 414 42 L414 11 L414 1 L439 1 L464 1 L495 1 C496 1 496 5 495 29 C496 37 496 38 495 38 L491 36 C468 28 464 32 464 64 L464 63 L464 63 Z " />
<glyph glyph-name="Uring" unicode="&#x16e;" horiz-adv-x="690" d="M354 843 C302 843 298 847 298 905 C298 960 304 967 354 967 C404 967 410 960 410 905 C410 847 406 843 354 843 L354 843 Z M273 905 C273 826 278 820 354 820 C430 820 435 826 435 905 C435 981 426 990 354 990 C282 990 273 981 273 905 L273 905 Z M114 687 L114 293 C114 10 130 -10 354 -10 C579 -10 595 10 595 293 L595 687 L595 701 C596 720 602 722 621 715 L626 713 L626 722 L626 750 L595 750 L567 750 L539 750 L507 750 L507 722 L507 713 L512 715 C535 723 539 719 539 687 L539 302 C539 59 527 42 354 42 C182 42 170 59 170 302 L170 687 L170 701 C171 720 177 722 196 715 L201 713 L201 722 L201 750 L170 750 L142 750 L114 750 L82 750 L82 722 L82 713 L87 715 C110 723 114 719 114 687 L114 687 Z " />
<glyph glyph-name="uring" unicode="&#x16f;" horiz-adv-x="549" d="M281 623 C228 623 224 627 224 685 C224 740 230 747 281 747 C331 747 337 740 337 685 C337 627 333 623 281 623 L281 623 Z M200 685 C200 606 205 600 281 600 C356 600 361 606 361 685 C361 761 352 770 281 770 C209 770 200 761 200 685 L200 685 Z M464 63 L464 520 L439 520 L414 520 L382 520 L382 492 L382 483 L387 485 C410 493 414 489 414 457 L414 144 C414 51 394 35 284 35 C133 35 147 44 147 172 L147 520 L122 520 L97 520 L66 520 L66 492 L66 483 L70 485 C93 493 97 489 97 457 L97 172 C97 2 79 -10 268 -10 C355 -10 396 0 414 42 L414 11 L414 1 L439 1 L464 1 L495 1 C496 1 496 5 495 29 C496 37 496 38 495 38 L491 36 C468 28 464 32 464 64 L464 63 L464 63 Z " />
<glyph glyph-name="Wcircumflex" unicode="&#x174;" horiz-adv-x="808" d="M415 941 L539 830 L585 830 L440 980 L389 980 L245 830 L290 830 L415 941 L415 941 Z M694 687 L581 119 L440 750 L387 750 L248 119 L134 687 C127 719 129 723 149 715 L153 713 L153 722 L153 750 L121 750 L92 750 L62 750 L38 750 L38 725 L38 713 L42 715 C63 723 68 719 75 687 L75 687 L218 0 L222 0 L272 0 L413 631 L553 0 L557 0 L607 0 L752 687 C759 719 764 723 785 715 L789 713 L789 725 L789 750 L765 750 L736 750 L706 750 L674 750 L674 722 L674 713 L678 715 C698 723 700 719 693 687 L694 687 L694 687 Z " />
<glyph glyph-name="Ycircumflex" unicode="&#x176;" horiz-adv-x="640" d="M333 941 L457 830 L503 830 L358 980 L308 980 L163 830 L208 830 L333 941 L333 941 Z M305 63 C305 31 301 27 278 35 L273 37 L273 28 L273 0 L305 0 L333 0 L361 0 L392 0 L392 28 L392 37 L388 35 C368 28 362 30 361 49 L361 63 L361 330 L577 687 C597 719 603 723 621 715 L624 713 L624 729 L624 750 L615 750 L586 750 L558 750 L526 750 L526 722 L526 713 L529 715 C538 721 540 721 533 709 L333 377 L146 688 C144 690 143 692 142 694 L135 705 C126 720 128 721 137 715 L140 713 L140 722 L140 750 L108 750 L79 750 L50 750 L41 750 L41 729 L41 713 L45 715 C60 721 67 720 80 702 L306 330 L305 63 L305 63 Z " />
<glyph glyph-name="Ydieresis" unicode="&#x178;" horiz-adv-x="640" d="M372 830 L432 830 L432 890 L372 890 L372 830 L372 830 Z M234 830 L294 830 L294 890 L234 890 L234 830 L234 830 Z M305 63 C305 31 301 27 278 35 L273 37 L273 28 L273 0 L305 0 L333 0 L361 0 L392 0 L392 28 L392 37 L388 35 C368 28 362 30 361 49 L361 63 L361 330 L577 687 C597 719 603 723 621 715 L624 713 L624 729 L624 750 L615 750 L586 750 L558 750 L526 750 L526 722 L526 713 L529 715 C538 721 540 721 533 709 L333 377 L146 688 C144 690 143 692 142 694 L135 705 C126 720 128 721 137 715 L140 713 L140 722 L140 750 L108 750 L79 750 L50 750 L41 750 L41 729 L41 713 L45 715 C60 721 67 720 80 702 L306 330 L305 63 L305 63 Z " />
<glyph glyph-name="Zacute" unicode="&#x179;" horiz-adv-x="655" d="M312 830 L358 830 L443 980 L377 980 L312 830 L312 830 Z M610 23 L610 45 L610 77 L582 77 L573 77 L575 72 C583 50 579 46 547 45 L109 45 L610 705 L610 750 L60 750 L60 727 L60 705 L60 673 L88 673 L97 673 L95 678 C87 701 91 705 123 705 L545 705 L45 45 L45 0 L610 0 L610 23 L610 23 Z " />
<glyph glyph-name="zacute" unicode="&#x17a;" horiz-adv-x="460" d="M220 600 L265 600 L350 750 L285 750 L220 600 L220 600 Z M45 520 L45 500 L45 481 L45 449 L73 449 L82 449 L80 454 C72 477 76 481 108 481 L361 481 L30 30 L30 0 L84 0 L440 0 L440 20 L440 39 L440 71 C440 70 436 70 412 71 C406 70 404 70 403 70 L405 66 C413 43 409 39 377 39 L90 39 L424 490 L424 520 L371 520 L45 520 L45 520 Z " />
<glyph glyph-name="Zdot" unicode="&#x17b;" horiz-adv-x="655" d="M305 830 L365 830 L365 890 L305 890 L305 830 L305 830 Z M610 23 L610 45 L610 77 L582 77 L573 77 L575 72 C583 50 579 46 547 45 L109 45 L610 705 L610 750 L60 750 L60 727 L60 705 L60 673 L88 673 L97 673 L95 678 C87 701 91 705 123 705 L545 705 L45 45 L45 0 L610 0 L610 23 L610 23 Z " />
<glyph glyph-name="zdot" unicode="&#x17c;" horiz-adv-x="460" d="M213 600 L273 600 L273 660 L213 660 L213 600 L213 600 Z M45 520 L45 500 L45 481 L45 449 L73 449 L82 449 L80 454 C72 477 76 481 108 481 L361 481 L30 30 L30 0 L84 0 L440 0 L440 20 L440 39 L440 71 C440 70 436 70 412 71 C406 70 404 70 403 70 L405 66 C413 43 409 39 377 39 L90 39 L424 490 L424 520 L371 520 L45 520 L45 520 Z " />
<glyph glyph-name="Zcaron" unicode="&#x17d;" horiz-adv-x="655" d="M335 869 L459 980 L505 980 L360 830 L310 830 L165 980 L211 980 L335 869 L335 869 Z M610 23 L610 45 L610 77 L582 77 L573 77 L575 72 C583 50 579 46 547 45 L109 45 L610 705 L610 750 L60 750 L60 727 L60 705 L60 673 L88 673 L97 673 L95 678 C87 701 91 705 123 705 L545 705 L45 45 L45 0 L610 0 L610 23 L610 23 Z " />
<glyph glyph-name="zcaron" unicode="&#x17e;" horiz-adv-x="460" d="M243 639 L367 750 L413 750 L268 600 L217 600 L73 750 L118 750 L243 639 L243 639 Z M45 520 L45 500 L45 481 L45 449 L73 449 L82 449 L80 454 C72 477 76 481 108 481 L361 481 L30 30 L30 0 L84 0 L440 0 L440 20 L440 39 L440 71 C440 70 436 70 412 71 C406 70 404 70 403 70 L405 66 C413 43 409 39 377 39 L90 39 L424 490 L424 520 L371 520 L45 520 L45 520 Z " />
<glyph glyph-name="oogonek" unicode="&#x1eb;" horiz-adv-x="754" d="M78 298 C78 36 125 -10 388 -10 C438 -10 481 -8 517 -3 L640 -89 L671 -62 L571 8 C676 38 699 116 699 300 C699 550 639 609 388 609 C138 609 78 550 78 300 L78 298 L78 298 Z M464 35 C442 33 417 32 389 32 C171 32 132 72 132 299 C132 515 182 567 389 567 C597 567 646 515 646 299 C646 130 624 65 523 43 L436 104 L405 77 L464 35 L464 35 Z " />
<glyph glyph-name="Adotabove" unicode="&#x226;" horiz-adv-x="756" d="M360 830 L420 830 L420 890 L360 890 L360 830 L360 830 Z M705 63 L419 750 L415 750 L387 750 L361 750 L359 750 L327 750 L327 722 L327 713 L330 715 C345 723 346 719 332 687 L333 687 L72 63 C58 31 53 27 34 35 L30 37 L30 23 L30 0 L46 0 L76 0 L106 0 L137 0 L137 28 L137 37 L134 35 C122 29 119 30 125 46 L196 218 L582 218 L653 46 C659 30 656 29 644 35 L640 37 L640 28 L640 0 L672 0 L702 0 L732 0 L748 0 L748 23 L748 37 L744 35 C725 27 720 31 706 63 L705 63 L705 63 Z M213 260 L389 685 L579 225 L564 260 L213 260 L213 260 Z " />
<glyph glyph-name="G_sc" unicode="&#x262;" horiz-adv-x="713" d="M421 310 L621 310 L621 124 C526 45 502 31 396 31 C166 31 126 71 126 298 C126 526 166 566 396 566 C501 566 534 541 616 401 L634 416 L652 431 L652 463 L634 463 L633 463 C628 471 623 478 619 485 C616 492 610 501 601 514 L601 514 C545 592 499 608 396 608 C121 608 73 562 73 299 C73 37 121 -9 396 -9 C529 -9 558 7 669 101 L669 352 L421 352 L421 310 L421 310 Z " />
<glyph glyph-name="I_sc" unicode="&#x26a;" horiz-adv-x="255" d="M130 0 L155 0 L187 0 L187 28 L187 37 L182 35 C159 27 155 31 155 63 L155 534 C155 567 159 571 182 562 L187 560 L187 569 L187 597 C173 596 164 596 155 596 L155 597 L130 597 L105 597 L105 596 C96 596 87 596 73 597 L73 569 L73 560 L78 562 C101 571 105 567 105 534 L105 63 C105 31 101 27 78 35 L73 37 L73 28 L73 0 L105 0 L130 0 L130 0 Z " />
<glyph glyph-name="N_sc" unicode="&#x274;" horiz-adv-x="619" d="M468 596 C459 596 451 596 438 597 L438 569 L438 560 L442 562 C465 571 469 567 469 534 L469 65 L173 597 L148 597 L123 597 L123 596 C114 596 106 596 93 597 L93 569 L93 560 L97 562 C120 571 124 567 124 534 L124 63 C124 31 120 27 97 35 L93 37 L93 28 L93 0 L124 0 L149 0 L174 0 L206 0 L206 28 L206 37 L201 35 C179 27 175 31 174 63 L174 507 L456 0 L470 0 L506 0 L520 0 L520 534 C521 567 525 571 547 562 L552 560 L552 569 L552 597 C538 596 529 596 519 596 L519 597 L494 597 L469 597 L468 596 L468 596 Z " />
<glyph glyph-name="R_sc" unicode="&#x280;" horiz-adv-x="595" d="M519 63 L396 271 C535 273 545 291 545 418 C545 585 533 597 360 597 L172 597 L147 597 L135 597 L122 597 L122 596 C113 596 105 596 92 597 L92 569 L92 560 L96 562 C119 571 123 567 123 534 L123 63 C123 31 119 27 96 35 L92 37 L92 28 L92 0 L123 0 L148 0 L173 0 L205 0 L205 28 L205 37 L200 35 C178 27 174 31 173 63 L173 271 L338 271 L500 0 L529 0 L557 0 L567 0 L567 21 L567 37 L563 35 C546 27 540 31 520 63 L519 63 L519 63 Z M173 310 L173 558 L359 558 C487 558 496 549 496 418 C496 317 487 310 362 310 L173 310 L173 310 Z " />
<glyph glyph-name="Y_sc" unicode="&#x28f;" horiz-adv-x="580" d="M467 561 C465 559 459 553 443 534 L443 534 L301 367 L150 546 L137 562 L139 560 L139 569 L139 597 C126 596 117 596 108 596 L107 597 L78 597 L49 597 L49 578 L49 560 L52 562 C64 569 72 568 88 552 L277 330 L277 63 C277 31 273 27 250 35 L245 37 L245 28 L245 0 L277 0 L302 0 L327 0 L358 0 C359 0 359 4 358 28 C359 36 359 37 358 37 L354 35 C331 27 327 31 327 63 L327 330 L513 548 C531 568 539 569 551 562 L554 560 L554 578 L554 597 L525 597 L497 597 L496 596 C487 596 478 596 465 597 L465 569 L465 560 L467 561 L467 561 Z " />
<glyph glyph-name="B_sc" unicode="&#x299;" horiz-adv-x="679" d="M501 336 C561 349 575 378 575 439 C575 601 580 598 330 598 L172 598 L147 598 L122 598 L122 597 C113 597 105 597 92 598 L92 570 L92 561 L96 563 C119 572 123 568 123 535 L123 64 C123 32 119 28 96 36 L92 38 L92 29 L92 1 L123 1 L148 1 L173 1 L401 1 C651 1 646 -2 646 175 C646 294 623 330 503 338 L501 336 L501 336 Z M174 349 L174 560 L334 560 C529 560 525 562 525 437 C525 362 497 349 335 349 L174 349 L174 349 Z M174 41 L174 312 L398 312 C564 312 593 292 593 181 C593 38 597 41 387 41 L174 41 L174 41 Z " />
<glyph glyph-name="H_sc" unicode="&#x29c;" horiz-adv-x="658" d="M532 0 L557 0 L589 0 L589 28 L589 37 L584 35 C562 27 558 31 557 63 L557 534 C558 567 562 571 584 562 L589 560 L589 569 L589 597 C575 596 566 596 556 596 L556 597 L531 597 L506 597 L506 596 C497 596 489 596 476 597 L476 569 L476 560 L480 562 C503 571 507 567 507 534 L507 323 L172 323 L172 534 C173 567 177 571 199 562 L204 560 L204 569 L204 597 C190 596 181 596 171 596 L171 597 L146 597 L121 597 L121 596 C112 596 104 596 91 597 L91 569 L91 560 L95 562 C118 571 122 567 122 534 L122 63 C122 31 118 27 95 35 L91 37 L91 28 L91 0 L122 0 L147 0 L172 0 L204 0 L204 28 L204 37 L199 35 C177 27 173 31 172 63 L172 283 L507 283 L507 63 C507 31 503 27 480 35 L476 37 L476 28 L476 0 L507 0 L532 0 L532 0 Z " />
<glyph glyph-name="L_sc" unicode="&#x29f;" horiz-adv-x="465" d="M420 20 L420 41 L420 72 C420 73 416 73 392 72 C384 73 383 73 383 72 L385 68 C393 45 389 41 357 41 L155 41 L155 534 C155 567 159 571 182 562 L187 560 L187 569 L187 597 C173 596 164 596 155 596 L155 597 L130 597 L105 597 L105 596 C96 596 87 596 73 597 L73 569 L73 560 L78 562 C101 571 105 567 105 534 L105 63 C105 31 101 27 78 35 L73 37 L73 28 L73 0 L105 0 L130 0 L155 0 L420 0 L420 20 L420 20 Z " />
<glyph glyph-name="A_sc" unicode="&#x1d00;" horiz-adv-x="696" d="M641 63 L386 597 L382 597 L357 597 L335 597 L332 597 L332 596 C323 596 314 596 301 597 L301 569 L301 560 L304 562 C316 570 318 568 309 548 L78 63 C63 31 57 27 38 35 L34 37 L34 23 L34 0 L48 0 L74 0 L100 0 L131 0 L131 28 L131 37 L128 35 C114 27 115 31 130 63 L130 63 L181 170 L539 170 L521 207 L198 207 L359 548 L589 63 C604 31 604 27 590 35 L587 37 L587 28 L587 0 L619 0 L645 0 L671 0 L685 0 L685 23 L685 37 L681 35 C662 27 656 31 641 63 L641 63 Z " />
<glyph glyph-name="C_sc" unicode="&#x1d04;" horiz-adv-x="660" d="M604 196 C541 56 505 31 365 31 C162 31 126 94 126 298 C126 503 162 566 365 566 C487 566 523 541 604 401 L641 431 L641 463 L622 463 C617 471 612 479 607 486 C605 489 602 493 599 498 C537 589 488 607 365 607 C117 607 73 534 73 298 C73 62 117 -10 365 -10 C533 -10 575 16 641 165 L604 196 L604 196 Z " />
<glyph glyph-name="D_sc" unicode="&#x1d05;" horiz-adv-x="719" d="M147 0 L172 0 L335 0 C652 0 665 12 665 298 C665 578 642 597 305 597 L172 597 L147 597 L122 597 L122 596 C113 596 105 596 92 597 L92 569 L92 560 L96 562 C119 571 123 567 123 534 L123 63 C123 31 119 27 96 35 L92 37 L92 28 L92 0 L123 0 L147 0 L147 0 Z M173 39 L173 558 L308 558 C592 558 612 541 612 298 C612 49 601 39 332 39 L173 39 L173 39 Z " />
<glyph glyph-name="E_sc" unicode="&#x1d07;" horiz-adv-x="537" d="M487 20 L487 41 L487 72 C487 73 483 73 460 72 C452 73 451 73 451 72 L452 68 C461 45 457 41 424 41 L172 41 L172 288 L389 288 C422 288 426 284 417 262 L416 257 L425 257 L452 257 L452 288 L452 308 L452 327 L452 359 L425 359 L416 359 L417 354 C426 332 422 328 389 327 L172 327 L172 556 L409 556 C442 556 446 552 437 529 L436 524 L445 524 L472 524 L472 556 L472 576 L472 597 L172 597 L171 597 L147 597 L122 597 L122 596 C113 596 105 596 92 597 L92 569 L92 560 L96 562 C119 571 123 567 123 534 L123 63 C123 31 119 27 96 35 L92 37 L92 28 L92 0 L123 0 L148 0 L172 0 L173 0 L488 0 L487 20 L487 20 Z " />
<glyph glyph-name="J_sc" unicode="&#x1d0a;" horiz-adv-x="427" d="M68 283 L68 221 C68 -5 71 -10 205 -10 C333 -10 342 18 342 175 L342 534 C342 567 346 571 369 562 L373 560 C373 561 373 564 374 569 C373 592 373 596 374 597 C360 596 351 596 342 596 L342 597 L317 597 L292 597 L292 596 C283 596 274 596 260 597 L260 569 L260 560 L265 562 C288 571 292 567 292 534 L292 175 C292 57 286 36 205 36 C121 36 119 40 119 236 L119 292 L68 283 L68 283 Z M373 560 L374 560 C374 560 374 560 374 561 L373 560 L373 560 Z " />
<glyph glyph-name="K_sc" unicode="&#x1d0b;" horiz-adv-x="540" d="M394 560 L386 550 L157 279 L157 533 L157 548 C158 567 164 568 183 561 L188 559 L188 568 L188 596 C175 595 167 595 158 595 L158 596 L133 596 L107 596 L107 595 C98 595 90 595 77 596 L77 568 L77 559 L82 561 C104 570 108 566 108 533 L108 62 C108 30 104 26 82 34 L77 36 L77 27 L77 -1 L108 -1 L134 -1 L159 -1 L190 -1 L190 27 L190 36 L185 34 C166 27 160 29 159 48 L159 62 L159 216 L432 533 C460 566 468 570 483 561 L486 559 L486 577 C487 593 487 595 486 596 L457 596 L428 596 L427 595 C418 595 409 595 396 595 C395 594 395 590 396 567 C395 561 395 558 395 557 L394 560 L394 560 Z M503 -3 L532 -3 L539 -3 L539 18 L539 34 L535 32 C520 25 513 28 494 54 L287 365 L252 324 L431 60 C453 28 455 24 445 32 L442 34 L442 25 L442 -3 L474 -3 L503 -3 L503 -3 Z " />
<glyph glyph-name="M_sc" unicode="&#x1d0d;" horiz-adv-x="799" d="M730 560 C730 561 730 564 731 569 C730 592 730 596 731 597 C717 596 708 596 699 596 L699 597 L675 597 L667 597 L651 597 L621 597 L411 56 L199 597 L171 597 L152 597 L147 597 L123 597 L123 596 C114 596 105 596 91 597 L91 569 L91 560 L96 562 C119 571 123 567 123 534 L123 63 C123 31 119 27 96 35 L91 37 L91 28 L91 0 L123 0 L147 0 L171 0 L203 0 L203 28 L203 37 L198 35 C175 27 171 31 171 63 L171 549 L389 0 L433 0 L651 556 L651 63 C651 31 647 27 624 35 L619 37 L619 28 L619 0 L651 0 L675 0 L699 0 L731 0 C730 0 730 4 731 28 C730 34 730 36 730 37 L726 35 C703 27 699 31 699 63 L699 534 C699 567 703 571 726 562 L730 560 L730 560 Z M730 560 L731 560 C731 560 731 560 731 561 L730 560 L730 560 Z " />
<glyph glyph-name="O_sc" unicode="&#x1d0f;" horiz-adv-x="754" d="M388 31 C170 31 131 71 131 298 C131 514 181 566 388 566 C596 566 645 514 645 298 C645 71 606 31 388 31 L388 31 Z M78 298 C78 36 125 -10 388 -10 C652 -10 699 36 699 298 C699 548 639 607 388 607 C138 607 78 548 78 298 L78 298 Z " />
<glyph glyph-name="P_sc" unicode="&#x1d18;" horiz-adv-x="579" d="M147 0 L172 0 L204 0 L204 28 L204 37 L199 35 C177 27 173 31 172 63 L172 255 L360 255 C533 255 545 266 545 418 C545 585 533 597 360 597 L172 597 L147 597 L135 597 L122 597 L122 596 C113 596 105 596 92 597 L92 569 L92 560 L96 562 C119 571 123 567 123 534 L123 63 C123 31 119 27 96 35 L92 37 L92 28 L92 0 L123 0 L147 0 L147 0 Z M173 294 L173 558 L359 558 C487 558 496 549 496 418 C496 302 487 294 363 294 L173 294 L173 294 Z " />
<glyph glyph-name="T_sc" unicode="&#x1d1b;" horiz-adv-x="535" d="M268 0 L293 0 L324 0 L324 28 L324 37 L319 35 C300 28 294 30 293 49 L293 63 L293 556 L462 556 C494 556 498 552 490 529 L488 524 L497 524 L525 524 L525 556 L525 576 L525 597 L293 597 L242 597 L10 597 L10 576 L10 556 L10 524 L38 524 L47 524 L45 529 C37 552 41 556 73 556 L242 556 L242 63 C242 31 238 27 216 35 L211 37 L211 28 L211 0 L242 0 L267 0 L268 0 L268 0 Z " />
<glyph glyph-name="U_sc" unicode="&#x1d1c;" horiz-adv-x="624" d="M115 596 C106 596 98 596 85 597 L85 569 L85 560 L89 562 C112 571 116 567 116 534 L116 232 C116 6 129 -10 323 -10 C517 -10 530 6 530 232 L530 534 C530 567 534 571 557 562 L562 560 L562 569 L562 597 C548 596 539 596 530 596 L530 597 L505 597 L480 597 L480 596 C471 596 462 596 448 597 L448 569 L448 560 L453 562 C476 571 480 567 480 534 L480 241 C480 49 470 36 323 36 C176 36 166 49 166 241 L166 534 C167 567 171 571 193 562 L198 560 L198 569 L198 597 C184 596 175 596 165 596 L165 597 L140 597 L115 597 L115 596 L115 596 Z " />
<glyph glyph-name="V_sc" unicode="&#x1d20;" horiz-adv-x="552" d="M436 534 L437 534 L289 70 L135 546 C129 568 132 570 147 562 L151 560 L151 569 L151 597 C137 596 128 596 119 596 L119 597 L92 597 L65 597 L65 596 C60 596 54 596 46 596 L46 572 L46 559 L50 561 C70 570 75 566 86 533 L86 533 L265 -1 L267 -1 L312 -1 L313 -1 L490 533 L491 533 C501 566 507 570 527 561 L531 559 L531 572 L531 596 C523 596 517 596 511 596 L511 597 L485 597 L458 597 L458 596 C449 596 440 596 426 597 L426 569 L426 560 L430 562 C447 571 448 567 437 534 L436 534 L436 534 Z " />
<glyph glyph-name="W_sc" unicode="&#x1d21;" horiz-adv-x="742" d="M632 534 L633 534 L534 92 L406 597 L358 597 L233 94 L130 545 C126 567 130 569 147 561 L151 559 L151 568 L151 596 C137 595 128 595 119 595 L119 596 L92 596 L65 596 L65 595 C58 595 51 595 41 595 L41 570 L41 558 L46 560 C64 568 70 566 76 545 L206 -2 L209 -2 L254 -2 L382 500 L509 -2 L513 -2 L557 -2 L685 532 C694 565 699 569 719 560 L723 558 L723 570 L723 595 C713 595 706 595 699 595 L699 596 L673 596 L646 596 L646 595 C637 595 628 595 614 596 L614 568 L614 559 L618 561 C637 570 639 566 631 533 L632 534 L632 534 Z " />
<glyph glyph-name="Z_sc" unicode="&#x1d22;" horiz-adv-x="595" d="M550 20 L550 41 L550 72 C550 73 546 73 522 72 C514 73 513 73 513 72 L515 68 C523 45 519 41 487 41 L101 41 L550 556 L550 597 L60 597 L60 576 L60 556 L60 524 L88 524 L97 524 L95 529 C87 552 91 556 123 556 L494 556 L45 41 L45 0 L550 0 L550 20 L550 20 Z " />
<glyph glyph-name="Wgrave" unicode="&#x1e80;" horiz-adv-x="808" d="M392 830 L437 830 L372 980 L307 980 L392 830 L392 830 Z M694 687 L581 119 L440 750 L387 750 L248 119 L134 687 C127 719 129 723 149 715 L153 713 L153 722 L153 750 L121 750 L92 750 L62 750 L38 750 L38 725 L38 713 L42 715 C63 723 68 719 75 687 L75 687 L218 0 L222 0 L272 0 L413 631 L553 0 L557 0 L607 0 L752 687 C759 719 764 723 785 715 L789 713 L789 725 L789 750 L765 750 L736 750 L706 750 L674 750 L674 722 L674 713 L678 715 C698 723 700 719 693 687 L694 687 L694 687 Z " />
<glyph glyph-name="Wacute" unicode="&#x1e82;" horiz-adv-x="808" d="M392 830 L437 830 L522 980 L457 980 L392 830 L392 830 Z M694 687 L581 119 L440 750 L387 750 L248 119 L134 687 C127 719 129 723 149 715 L153 713 L153 722 L153 750 L121 750 L92 750 L62 750 L38 750 L38 725 L38 713 L42 715 C63 723 68 719 75 687 L75 687 L218 0 L222 0 L272 0 L413 631 L553 0 L557 0 L607 0 L752 687 C759 719 764 723 785 715 L789 713 L789 725 L789 750 L765 750 L736 750 L706 750 L674 750 L674 722 L674 713 L678 715 C698 723 700 719 693 687 L694 687 L694 687 Z " />
<glyph glyph-name="Wdieresis" unicode="&#x1e84;" horiz-adv-x="808" d="M453 830 L513 830 L513 890 L453 890 L453 830 L453 830 Z M316 830 L376 830 L376 890 L316 890 L316 830 L316 830 Z M694 687 L581 119 L440 750 L387 750 L248 119 L134 687 C127 719 129 723 149 715 L153 713 L153 722 L153 750 L121 750 L92 750 L62 750 L38 750 L38 725 L38 713 L42 715 C63 723 68 719 75 687 L75 687 L218 0 L222 0 L272 0 L413 631 L553 0 L557 0 L607 0 L752 687 C759 719 764 723 785 715 L789 713 L789 725 L789 750 L765 750 L736 750 L706 750 L674 750 L674 722 L674 713 L678 715 C698 723 700 719 693 687 L694 687 L694 687 Z " />
<glyph glyph-name="Etilde" unicode="&#x1ebc;" horiz-adv-x="601" d="M249 830 C249 884 254 894 282 894 C341 894 307 820 379 820 C436 820 446 836 446 923 L409 923 C409 869 404 859 375 859 C316 859 351 933 279 933 C222 933 212 918 212 830 L249 830 L249 830 Z M552 23 L552 45 L552 77 L524 77 L515 77 L517 72 C525 50 521 46 489 45 L177 45 L177 365 L454 365 C486 365 490 361 482 338 L480 334 L489 334 L517 334 L517 365 L517 387 L517 409 L517 440 L489 440 L480 440 L482 436 C489 416 487 410 468 409 L454 409 L177 409 L177 705 L474 705 C506 705 510 701 502 678 L500 673 L509 673 L537 673 L537 705 L537 727 L537 750 L177 750 L176 750 L149 750 L121 750 L89 750 L89 722 L89 713 L94 715 C117 723 121 719 121 687 L121 63 C121 31 117 27 94 35 L89 37 L89 28 L89 0 L121 0 L149 0 L176 0 L177 0 L552 0 L552 23 L552 23 Z " />
<glyph glyph-name="Ygrave" unicode="&#x1ef2;" horiz-adv-x="640" d="M310 830 L356 830 L290 980 L225 980 L310 830 L310 830 Z M305 63 C305 31 301 27 278 35 L273 37 L273 28 L273 0 L305 0 L333 0 L361 0 L392 0 L392 28 L392 37 L388 35 C368 28 362 30 361 49 L361 63 L361 330 L577 687 C597 719 603 723 621 715 L624 713 L624 729 L624 750 L615 750 L586 750 L558 750 L526 750 L526 722 L526 713 L529 715 C538 721 540 721 533 709 L333 377 L146 688 C144 690 143 692 142 694 L135 705 C126 720 128 721 137 715 L140 713 L140 722 L140 750 L108 750 L79 750 L50 750 L41 750 L41 729 L41 713 L45 715 C60 721 67 720 80 702 L306 330 L305 63 L305 63 Z " />
<glyph glyph-name="endash" unicode="&#x2013;" horiz-adv-x="410" d="M5 242 L405 242 L405 284 L5 284 L5 242 L5 242 Z " />
<glyph glyph-name="emdash" unicode="&#x2014;" horiz-adv-x="700" d="M50 242 L650 242 L650 284 L50 284 L50 242 L50 242 Z " />
<glyph glyph-name="quoteleft" unicode="&#x2018;" horiz-adv-x="160" d="M110 760 C49 760 50 747 50 674 L50 614 L110 614 L110 674 L83 674 C83 725 82 734 110 734 L110 760 L110 760 Z " />
<glyph glyph-name="quoteright" unicode="&#x2019;" horiz-adv-x="160" d="M80 760 L80 700 L107 700 C107 639 108 640 80 640 L80 614 C141 614 140 612 140 700 L140 760 L80 760 L80 760 Z " />
<glyph glyph-name="quotedblleft" unicode="&#x201c;" horiz-adv-x="280" d="M230 760 C169 760 170 747 170 674 L170 614 L230 614 L230 674 L203 674 C203 725 202 734 230 734 L230 760 L230 760 Z M140 760 C79 760 80 747 80 674 L80 614 L140 614 L140 674 L113 674 C113 725 112 734 140 734 L140 760 L140 760 Z " />
<glyph glyph-name="quotedblright" unicode="&#x201d;" horiz-adv-x="280" d="M170 760 L170 700 L197 700 C197 639 198 640 170 640 L170 614 C231 614 230 612 230 700 L230 760 L170 760 L170 760 Z M80 760 L80 700 L107 700 C107 639 108 640 80 640 L80 614 C141 614 140 612 140 700 L140 760 L80 760 L80 760 Z " />
<glyph glyph-name="dagger" unicode="&#x2020;" horiz-adv-x="510" d="M450 580 L280 580 L280 750 L230 750 L230 580 L60 580 L60 537 L230 537 L230 -50 L280 -50 L280 537 L450 537 L450 580 L450 580 Z " />
<glyph glyph-name="daggerdbl" unicode="&#x2021;" horiz-adv-x="510" d="M60 120 L230 120 L230 -50 L280 -50 L280 120 L450 120 L450 163 L280 163 L280 537 L450 537 L450 580 L280 580 L280 750 L230 750 L230 580 L60 580 L60 537 L230 537 L230 163 L60 163 L60 120 L60 120 Z " />
<glyph glyph-name="bullet" unicode="&#x2022;" horiz-adv-x="160" d="M43 230 L118 230 L118 305 L43 305 L43 230 L43 230 Z " />
<glyph glyph-name="ellipsis" unicode="&#x2026;" horiz-adv-x="430" d="M320 0 L380 0 L380 60 L320 60 L320 0 L320 0 Z M185 0 L245 0 L245 60 L185 60 L185 0 L185 0 Z M50 0 L110 0 L110 60 L50 60 L50 0 L50 0 Z " />
<glyph glyph-name="perthousand" unicode="&#x2030;" horiz-adv-x="734" d="M901 140 C901 35 895 16 812 16 C729 16 723 35 723 140 C723 245 729 264 812 264 C895 264 901 245 901 140 L901 140 Z M812 -10 C921 -10 929 13 929 140 C929 267 921 290 812 290 C703 290 695 267 695 140 C695 13 703 -10 812 -10 L812 -10 Z M652 140 C652 35 646 16 564 16 C481 16 475 35 475 140 C475 245 481 264 564 264 C646 264 652 245 652 140 L652 140 Z M564 -10 C673 -10 681 13 681 140 C681 267 673 290 564 290 C455 290 447 267 447 140 C447 13 455 -10 564 -10 L564 -10 Z M82 610 C82 715 88 734 171 734 C254 734 260 715 260 610 C260 505 254 486 171 486 C88 486 82 505 82 610 L82 610 Z M171 760 C62 760 54 738 54 610 C54 483 62 460 171 460 C281 460 288 483 288 610 C288 738 281 760 171 760 L171 760 Z M160 0 L177 0 L575 750 L557 750 L160 0 L160 0 Z " />
<glyph glyph-name="guilsinglleft" unicode="&#x2039;" horiz-adv-x="265" d="M204 470 L64 260 L204 50 L248 50 L108 260 L248 470 L204 470 L204 470 Z " />
<glyph glyph-name="guilsinglright" unicode="&#x203a;" horiz-adv-x="265" d="M92 470 L232 260 L92 50 L136 50 L276 260 L136 470 L92 470 L92 470 Z " />
<glyph glyph-name="fraction" unicode="&#x2044;" horiz-adv-x="534" d="M60 0 L77 0 L475 750 L457 750 L60 0 L60 0 Z " />
<glyph glyph-name="Euro" unicode="&#x20ac;" horiz-adv-x="720" d="M17 317 L72 317 C79 68 139 -10 395 -10 C589 -10 635 16 700 164 L659 199 C598 60 558 35 395 35 C189 35 139 103 132 317 L444 317 L448 345 L131 345 C131 355 131 365 131 375 C131 385 131 395 131 405 L448 405 L452 433 L132 433 C139 647 189 715 395 715 C540 715 579 690 659 551 L700 586 C615 734 569 760 395 760 C139 760 79 682 72 433 L25 433 L21 405 L71 405 C71 395 71 385 71 375 C71 365 71 355 71 345 L21 345 L17 317 L17 317 Z " />
<glyph glyph-name="minus" unicode="&#x2212;" horiz-adv-x="615" d="M50 248 L565 248 L565 278 L50 278 L50 248 L50 248 Z " />
<glyph glyph-name="divisionslash" unicode="&#x2215;" horiz-adv-x="414" d="M0 0 L17 0 L415 750 L397 750 L0 0 L0 0 Z " />
<glyph glyph-name="bulletoperator" unicode="&#x2219;" horiz-adv-x="160" d="M50 230 L110 230 L110 290 L50 290 L50 230 L50 230 Z " />
<glyph glyph-name="F_sc" unicode="&#xa730;" horiz-adv-x="502" d="M379 288 C412 288 416 284 407 262 L406 257 L415 257 L442 257 L442 288 L442 308 L442 327 L442 359 L415 359 L406 359 L407 354 C416 332 412 328 379 327 L172 327 L172 556 L409 556 C442 556 446 552 437 529 L436 524 L445 524 L472 524 L472 556 L472 576 L472 597 L172 597 L171 597 L147 597 L122 597 L122 596 C113 596 105 596 92 597 L92 569 L92 560 L96 562 C119 571 123 567 123 534 L123 63 C123 31 119 27 96 35 L92 37 L92 28 L92 0 L123 0 L148 0 L173 0 L205 0 L205 28 L205 37 L200 35 C178 27 174 31 173 63 L173 288 L379 288 L379 288 Z " />
<glyph glyph-name="S_sc" unicode="&#xa731;" horiz-adv-x="485" d="M88 102 C91 96 95 89 100 80 C148 -3 182 -10 268 -10 C438 -10 450 16 450 167 C450 293 437 304 253 332 C118 354 109 361 109 442 C109 544 126 562 220 562 C252 562 266 553 377 431 L412 463 L412 494 L394 494 L384 494 C383 495 382 496 381 497 C376 503 364 516 342 539 L342 539 C282 601 262 606 221 606 C83 606 58 580 58 435 C58 317 70 307 240 281 C391 258 401 250 401 164 C401 53 392 33 269 33 C190 33 171 44 97 201 L54 172 L54 140 L69 140 C76 126 83 113 89 101 L88 102 L88 102 Z " />
<glyph glyph-name="X_sc" unicode="&#xf078;" horiz-adv-x="591" d="M171 63 L321 275 L467 41 C474 29 472 29 464 35 L461 37 L461 28 L461 0 L493 0 L519 0 L546 0 L555 0 L555 21 L555 37 L551 35 C534 27 527 31 507 63 L507 63 L350 315 L505 534 L506 534 C529 567 536 571 552 562 L556 560 L556 577 L556 597 C554 597 552 597 550 597 L550 597 L522 597 L493 597 L492 596 C483 596 474 596 461 597 L461 569 L461 560 L463 562 C470 568 471 568 464 557 L323 358 L205 547 C192 568 192 570 202 562 L204 560 C204 561 204 564 205 569 C204 592 204 596 205 597 C191 596 182 596 173 596 L173 597 L147 597 L120 597 L120 596 C117 596 114 596 110 596 L110 575 L110 559 L114 561 C131 570 138 566 158 533 L158 533 L293 317 L104 50 C88 30 81 28 67 35 L64 37 L64 20 L64 0 L69 0 L98 0 L126 0 L158 0 L158 28 L158 37 L156 35 C146 27 148 31 171 63 L171 63 Z M204 560 L205 560 C205 560 205 560 205 561 L204 560 L204 560 Z " />
</font>
</svg>
