<?xml version="1.0" encoding="UTF-8"?>
<svg xmlns="http://www.w3.org/2000/svg" xmlns:xlink="http://www.w3.org/1999/xlink" version="1.2" >
<font id="Mahlon Regular">
<font-face  font-family="Mahlon" units-per-em="1024" ascent="750" descent="-140" font-style="normal" font-weight="400" font-stretch="normal" cap-height="700" x-height="600" underline-position="-125" underline-thickness="50" />
<missing-glyph  horiz-adv-x="650" d="" />
<glyph glyph-name="NULL" d="" />
<glyph glyph-name="CR" unicode="&#xd;" horiz-adv-x="256" d="" />
<glyph glyph-name="&amp;#x20;" unicode="&#x20;" horiz-adv-x="341.333" d="" />
<glyph glyph-name="&amp;#x9;" unicode="&#x9;" horiz-adv-x="341.333" d="" />
<glyph glyph-name="exclam" unicode="&#x21;" horiz-adv-x="144" d="M27 0 L117 0 L117 90 L27 90 L27 0 L27 0 Z M29 700 L29 464 L52 186 L92 186 L115 464 L115 700 L29 700 L29 700 Z " />
<glyph glyph-name="quotedbl" unicode="&#x22;" horiz-adv-x="305" d="M181 700 L181 520 L226 520 L226 700 L181 700 L181 700 Z M80 700 L80 520 L125 520 L125 700 L80 700 L80 700 Z " />
<glyph glyph-name="numbersign" unicode="&#x23;" horiz-adv-x="396" d="M105 433 L84 256 L30 256 L30 210 L79 210 L54 0 L94 0 L119 210 L235 210 L210 0 L249 0 L274 210 L355 210 L355 256 L279 256 L300 433 L366 433 L366 480 L305 480 L331 700 L292 700 L266 480 L150 480 L176 700 L136 700 L110 480 L41 480 L41 433 L105 433 L105 433 Z M145 433 L261 433 L240 256 L124 256 L145 433 L145 433 Z " />
<glyph glyph-name="dollar" unicode="&#x24;" horiz-adv-x="326" d="M141 740 L141 709 C71 700 26 652 26 582 C26 509 63 422 136 326 C138 324 140 322 142 320 L142 61 C116 65 99 76 99 90 L99 181 L26 181 L26 90 C26 36 71 -2 142 -8 L142 -49 L186 -49 L186 -8 C257 1 303 51 303 123 C303 187 265 279 191 375 C189 377 187 379 185 381 L185 640 C211 635 228 621 228 603 L228 521 L302 521 L302 603 C302 662 256 703 185 710 L185 741 L141 740 L141 740 Z M141 450 C113 501 99 550 99 595 C99 617 115 633 141 639 L141 450 L141 450 Z M185 252 C214 199 228 149 228 109 C228 85 211 67 185 61 L185 252 L185 252 Z " />
<glyph glyph-name="percent" unicode="&#x25;" horiz-adv-x="447" d="M364 308 L364 56 C364 50 357 46 347 47 C336 46 330 50 330 56 L330 308 C330 314 336 318 347 317 C357 318 364 314 364 308 L364 308 Z M425 59 L425 305 C425 344 394 369 347 369 C301 369 270 344 270 305 L270 59 C270 20 301 -5 347 -5 C394 -5 425 20 425 59 L425 59 Z M105 638 L105 386 C105 380 98 376 87 377 C77 376 70 380 70 386 L70 638 C70 644 77 648 87 647 C98 648 105 644 105 638 L105 638 Z M165 389 L165 635 C165 674 134 699 87 699 C41 699 10 674 10 635 L10 389 C10 350 41 325 87 325 C134 325 165 350 165 389 L165 389 Z M10 0 L52 0 L438 700 L395 700 L10 0 L10 0 Z " />
<glyph glyph-name="ampersand" unicode="&#x26;" horiz-adv-x="392" d="M124 337 C160 262 201 181 237 112 C221 80 199 62 169 62 C114 62 98 123 98 214 C98 269 107 307 124 337 L124 337 Z M176 397 C242 463 276 518 276 585 C276 661 235 711 156 711 C74 711 32 655 32 572 C32 547 60 477 99 392 C47 333 20 267 20 158 C20 58 50 -9 155 -9 C207 -9 246 10 275 45 C284 28 292 13 299 0 L388 0 C369 33 344 78 317 128 C339 197 347 289 347 397 L275 397 C275 330 272 271 266 221 C234 280 202 341 175 395 L176 397 L176 397 Z M151 445 C121 508 101 555 101 570 C101 608 119 634 154 634 C187 634 204 611 204 575 C204 524 186 485 151 445 L151 445 Z " />
<glyph glyph-name="quotesingle" unicode="&#x27;" horiz-adv-x="205" d="M80 700 L80 520 L125 520 L125 700 L80 700 L80 700 Z " />
<glyph glyph-name="parenleft" unicode="&#x28;" horiz-adv-x="214" d="M158 700 C91 599 46 483 46 314 C46 144 91 28 158 -73 L214 -73 C145 31 99 148 99 314 C99 479 145 596 214 700 L158 700 L158 700 Z " />
<glyph glyph-name="parenright" unicode="&#x29;" horiz-adv-x="214" d="M40 -73 C107 28 152 144 152 314 C152 483 107 599 40 700 L-16 700 C53 596 99 479 99 314 C99 148 53 31 -16 -73 L40 -73 L40 -73 Z " />
<glyph glyph-name="asterisk" unicode="&#x2a;" horiz-adv-x="173" d="M61 646 L20 637 L34 593 L73 610 L69 568 L115 568 L111 610 L149 593 L164 637 L123 646 L151 677 L113 705 L92 669 L71 705 L33 677 L61 646 L61 646 Z " />
<glyph glyph-name="plus" unicode="&#x2b;" horiz-adv-x="290" d="M117 405 L117 329 L40 329 L40 271 L117 271 L117 195 L173 195 L173 271 L250 271 L250 329 L173 329 L173 405 L117 405 L117 405 Z " />
<glyph glyph-name="comma" unicode="&#x2c;" horiz-adv-x="155" d="M43 120 L14 -70 L67 -70 L129 120 L43 120 L43 120 Z " />
<glyph glyph-name="hyphen" unicode="&#x2d;" horiz-adv-x="248" d="M12 357 L236 357 L236 426 L12 426 L12 357 L12 357 Z " />
<glyph glyph-name="period" unicode="&#x2e;" horiz-adv-x="251" d="M58 0 L194 0 L194 136 L58 136 L58 0 L58 0 Z " />
<glyph glyph-name="slash" unicode="&#x2f;" horiz-adv-x="162" d="M10 -90 L52 -90 L152 700 L110 700 L10 -90 L10 -90 Z " />
<glyph glyph-name="zero" unicode="0" horiz-adv-x="359" d="M234 606 L234 94 C234 76 212 64 179 64 C147 64 125 76 125 94 L125 607 C125 625 147 636 179 636 C212 636 234 624 234 606 L234 606 Z M320 97 L320 603 C320 667 264 710 179 710 C96 710 40 667 40 603 L40 97 C40 33 96 -10 179 -10 C264 -10 320 33 320 97 L320 97 Z " />
<glyph glyph-name="one" unicode="1" horiz-adv-x="303" d="M4 502 L9 493 C58 502 99 519 129 541 L129 94 C129 60 113 37 89 37 L82 37 L82 19 L82 1 L129 1 L172 1 L216 1 L263 1 L263 19 L263 37 L256 37 C232 37 216 60 216 94 L216 701 L180 701 L129 701 L120 701 L120 626 C120 564 74 515 4 503 L4 502 L4 502 Z " />
<glyph glyph-name="two" unicode="2" horiz-adv-x="332" d="M28 577 L113 577 L113 610 C113 625 134 635 166 635 C198 635 220 620 220 597 C220 534 185 450 132 386 C71 312 30 210 30 133 L30 75 L31 75 L31 0 L308 0 L308 38 L308 75 L308 122 L290 122 L272 122 L272 115 C272 91 249 75 215 75 L116 75 L116 133 C116 191 149 270 200 331 C263 408 306 509 306 584 C306 659 250 710 166 710 C83 710 28 669 28 607 L28 577 L28 577 Z " />
<glyph glyph-name="three" unicode="3" horiz-adv-x="323" d="M88 3 C90 2 93 1 96 0 L96 0 C113 -7 132 -11 153 -11 C237 -11 292 43 292 124 L292 276 C292 321 274 357 243 380 C274 402 292 437 292 480 L292 601 C292 665 236 708 153 708 C133 708 114 705 97 700 L97 700 C94 699 91 698 88 697 C60 687 39 670 27 648 L15 648 L15 601 L16 570 L101 570 L102 608 C103 622 123 632 154 632 C186 632 207 624 207 611 L207 464 C207 429 186 406 154 406 L102 406 L102 331 L154 331 C186 331 208 311 208 281 L207 108 C207 80 186 62 154 62 C123 62 102 81 102 110 L101 149 L16 149 L15 121 L15 74 L22 74 C33 41 56 15 88 0 L88 3 L88 3 Z " />
<glyph glyph-name="four" unicode="4" horiz-adv-x="415" d="M268 522 L199 285 L199 219 L100 219 L297 700 L225 700 L19 219 L19 144 L88 144 L199 144 L199 93 C199 59 183 36 159 36 L152 36 L152 18 L152 0 L199 0 L241 0 L283 0 L330 0 C329 0 329 7 330 18 C329 29 329 36 330 36 L323 36 C298 36 283 59 283 93 L283 141 C305 136 318 122 318 104 L318 97 L336 97 L354 97 L354 144 L354 181 L354 219 L354 266 L336 266 L318 266 L318 259 C318 240 305 227 283 222 L283 286 L283 523 L268 522 L268 522 Z " />
<glyph glyph-name="five" unicode="5" horiz-adv-x="331" d="M25 151 L24 123 C24 43 80 -10 164 -10 C247 -10 303 43 303 123 L303 298 C302 366 255 411 184 411 C155 411 131 398 116 376 L121 411 L121 627 C138 604 164 591 196 591 C246 591 284 615 300 653 L309 653 L309 700 L272 700 L234 700 C234 678 212 664 179 664 C144 664 120 678 120 700 L98 700 L35 700 L35 411 L35 305 L95 305 L104 305 L105 313 C110 329 130 339 159 339 C193 339 216 329 216 314 L215 112 C215 84 194 66 163 66 C131 66 110 84 110 112 L109 152 L25 151 L25 151 Z " />
<glyph glyph-name="six" unicode="6" horiz-adv-x="349" d="M124 308 L124 308 C124 319 145 326 176 326 C208 326 229 319 229 308 L234 92 C235 76 211 65 176 65 C145 65 124 75 124 89 L124 308 L124 308 Z M305 644 C285 685 238 710 176 710 C93 710 38 666 38 600 L38 101 C38 34 93 -10 176 -10 C257 -10 312 36 313 104 L315 293 C316 358 270 402 201 402 C169 402 142 393 123 377 L123 610 C123 625 144 636 176 636 C208 636 230 625 230 609 C230 596 229 579 229 566 L315 566 L315 598 L315 645 L305 644 L305 644 Z " />
<glyph glyph-name="seven" unicode="7" horiz-adv-x="343" d="M183 93 L183 93 L324 625 L324 700 L20 700 L20 662 L20 625 L20 578 L38 578 L56 578 L56 585 C56 609 79 625 113 625 L243 625 L99 93 L99 93 C90 59 68 36 44 36 L37 36 L37 18 L37 0 L74 0 L116 0 L158 0 L205 0 L205 18 L205 36 L199 36 C181 36 174 59 183 93 L183 93 Z " />
<glyph glyph-name="eight" unicode="8" horiz-adv-x="359" d="M234 609 L234 423 C234 409 212 399 179 399 C147 399 125 409 125 423 L125 609 C125 625 147 636 179 636 C212 636 234 625 234 609 L234 609 Z M320 95 L320 257 C320 298 305 332 279 355 C305 372 320 396 320 425 L319 604 C319 667 263 709 179 709 C96 709 40 667 40 604 L40 425 C40 396 55 372 81 355 C55 332 40 298 41 257 L41 95 C41 32 97 -10 180 -10 C264 -10 320 32 321 95 L320 95 L320 95 Z M180 331 C212 331 234 307 235 271 L235 92 C235 75 213 64 180 64 C148 64 126 75 126 92 L127 271 C127 307 148 331 180 331 L180 331 Z " />
<glyph glyph-name="nine" unicode="9" horiz-adv-x="352" d="M35 151 L34 123 C34 43 90 -10 174 -10 C257 -10 313 43 313 123 L312 605 C312 668 257 710 174 710 C90 710 34 666 34 601 L35 398 C35 329 79 282 144 282 C179 282 207 293 226 313 L226 111 C226 83 205 65 174 65 C142 65 121 83 121 111 L120 151 L35 151 L35 151 Z M227 385 L226 385 C226 369 204 358 170 358 C139 358 119 369 120 385 L121 613 C121 627 142 636 174 636 C206 636 227 622 227 601 L227 385 L227 385 Z " />
<glyph glyph-name="colon" unicode="&#x3a;" horiz-adv-x="220" d="M65 273 L155 273 L155 363 L65 363 L65 273 L65 273 Z M65 0 L155 0 L155 90 L65 90 L65 0 L65 0 Z " />
<glyph glyph-name="semicolon" unicode="&#x3b;" horiz-adv-x="220" d="M82 273 L172 273 L172 363 L82 363 L82 273 L82 273 Z M84 120 L55 -70 L108 -70 L170 120 L84 120 L84 120 Z " />
<glyph glyph-name="less" unicode="&#x3c;" horiz-adv-x="365" d="M320 509 L320 581 L35 355 L35 319 L320 93 L320 165 L106 337 L320 509 L320 509 Z " />
<glyph glyph-name="equal" unicode="&#x3d;" horiz-adv-x="370" d="M40 260 L40 204 L330 204 L330 260 L40 260 L40 260 Z M40 396 L40 340 L330 340 L330 396 L40 396 L40 396 Z " />
<glyph glyph-name="greater" unicode="&#x3e;" horiz-adv-x="383" d="M45 509 L276 337 L45 165 L45 93 L348 319 L348 355 L45 581 L45 509 L45 509 Z " />
<glyph glyph-name="question" unicode="&#x3f;" horiz-adv-x="313" d="M108 0 L199 0 L199 90 L108 90 L108 0 L108 0 Z M16 514 L97 514 L100 612 C101 626 122 635 154 635 C186 635 207 618 207 593 C207 523 198 466 118 380 L128 170 L169 170 L179 340 C281 451 292 511 292 584 C292 660 237 710 154 710 C69 710 14 670 15 611 L16 514 L16 514 Z " />
<glyph glyph-name="at" unicode="&#x40;" horiz-adv-x="404" d="M364 85 L339 85 C327 44 274 17 204 17 C121 17 66 56 66 114 L66 586 C66 644 121 683 204 683 C284 683 337 644 337 586 L337 172 C337 149 321 133 298 133 C293 133 290 148 290 170 L290 514 C290 565 256 599 204 599 C158 599 127 562 127 507 L127 419 L188 419 L188 522 C188 534 194 541 204 541 C217 541 226 536 226 529 L226 402 C226 383 205 365 174 356 C142 346 121 315 121 278 L121 186 C121 138 145 105 180 105 C201 105 218 122 228 151 C234 122 253 104 279 104 C329 104 363 131 363 171 L363 585 C363 659 299 709 203 709 C104 709 38 659 38 585 L38 113 C38 39 104 -11 203 -11 C284 -11 348 27 363 84 L364 85 L364 85 Z M225 333 L225 226 C225 187 216 161 204 161 C190 161 182 177 182 201 L184 277 C185 301 193 320 206 324 C213 326 219 329 225 333 L225 333 Z " />
<glyph glyph-name="A" unicode="A" horiz-adv-x="421" d="M347 93 L347 93 L265 700 L229 700 L192 700 L155 700 L108 700 L108 682 L108 664 L115 664 C134 664 145 644 143 614 L74 92 L74 92 C69 58 50 35 26 35 L19 35 L19 17 L19 -1 L62 -1 L104 -1 L147 -1 L194 -1 L194 17 L194 35 L188 35 C166 35 154 58 158 92 L158 92 L166 163 L255 163 L263 92 L263 92 C267 58 255 35 233 35 L227 35 L227 17 L227 -1 L274 -1 L317 -1 L359 -1 L402 -1 L402 17 L402 35 L395 35 C371 35 352 58 347 92 L347 93 L347 93 Z M246 238 L175 238 L211 541 L246 238 L246 238 Z " />
<glyph glyph-name="B" unicode="B" horiz-adv-x="413" d="M223 387 L172 387 L172 625 L223 625 C258 625 281 612 281 593 L281 438 C281 407 258 387 223 387 L223 387 Z M325 367 C351 389 366 422 366 461 L366 596 C366 658 309 700 223 700 L172 700 L129 700 L87 700 L40 700 L40 682 L40 664 L47 664 C71 664 87 641 87 607 L87 93 C87 59 71 36 47 36 L40 36 L40 18 L40 0 L87 0 L129 0 L172 0 L236 0 C318 0 373 42 373 105 L373 290 C373 323 355 350 325 367 L325 367 Z M172 75 L172 312 L236 312 C267 312 288 302 288 287 L288 105 C288 87 267 75 236 75 L172 75 L172 75 Z " />
<glyph glyph-name="C" unicode="C" horiz-adv-x="337" d="M317 132 L232 132 L232 91 C232 75 211 65 178 65 C147 65 126 73 126 85 L125 615 C124 627 146 635 178 635 C210 635 231 626 231 612 C231 598 232 580 232 566 L317 566 C317 576 318 588 318 598 L318 645 L307 645 C295 670 272 689 241 700 C239 701 237 702 235 703 C218 708 199 711 178 711 C95 711 40 668 40 603 L40 100 C39 35 95 -9 178 -9 C262 -9 317 36 317 102 L317 132 L317 132 Z " />
<glyph glyph-name="D" unicode="D" horiz-adv-x="413" d="M129 0 L172 0 L226 0 C314 0 373 42 373 105 L373 596 C373 658 314 700 226 700 L172 700 L129 700 L87 700 L40 700 L40 682 L40 664 L47 664 C71 664 87 641 87 607 L87 93 C87 59 71 36 47 36 L40 36 L40 18 L40 0 L87 0 L129 0 L129 0 Z M172 75 L172 625 L226 625 C263 625 288 612 288 593 L288 105 C288 87 263 75 226 75 L172 75 L172 75 Z " />
<glyph glyph-name="E" unicode="E" horiz-adv-x="346" d="M326 40 L326 80 L326 127 C326 126 319 126 308 127 C297 126 290 126 290 127 L290 120 C290 96 270 80 239 79 L233 79 L172 79 L172 314 L183 314 C217 314 240 298 240 274 L240 267 L258 267 L276 267 L276 314 L276 354 L276 394 L276 441 L258 441 L240 441 L240 434 C240 410 217 394 183 394 L172 394 L172 619 L228 619 C262 619 285 603 285 579 L285 572 L303 572 L321 572 L321 619 L321 659 L321 699 L172 699 L129 699 L87 699 L40 699 L40 681 L40 663 L47 663 C71 663 87 640 87 606 L87 92 C87 58 71 35 47 35 L40 35 L40 17 L40 -1 L87 -1 L129 -1 L172 -1 L326 -1 L326 40 L326 40 Z " />
<glyph glyph-name="F" unicode="F" horiz-adv-x="331" d="M190 296 C224 296 247 280 247 256 L247 249 L265 249 L283 249 L283 296 L283 336 L283 376 L283 423 C283 422 276 422 265 423 C254 422 247 422 247 423 L247 415 C247 392 227 377 196 376 L190 376 L172 376 L172 620 L218 620 C252 620 275 604 275 580 L275 573 L293 573 L311 573 L311 620 L311 660 L311 700 L172 700 L129 700 L87 700 L40 700 L40 682 L40 664 L47 664 C71 664 87 641 87 607 L87 93 C87 59 71 36 47 36 L40 36 L40 18 L40 0 L87 0 L129 0 L172 0 L219 0 L219 18 L219 36 L212 36 C188 36 172 59 172 93 L172 296 L190 296 L190 296 Z " />
<glyph glyph-name="G" unicode="G" horiz-adv-x="357" d="M296 329 L232 329 L192 329 L192 254 L232 254 L232 91 C232 75 211 65 178 65 C147 65 126 73 126 85 L125 615 C124 627 146 635 178 635 C210 635 231 626 231 612 C231 598 232 580 232 566 L317 566 C317 576 318 588 318 598 L318 645 L307 645 C295 670 272 689 241 700 C239 701 237 702 235 703 C218 708 199 711 178 711 C95 711 40 668 40 603 L40 100 C39 35 95 -9 178 -9 C217 -9 250 1 274 18 C287 5 307 -4 331 -6 L339 2 C326 3 318 43 318 102 L318 330 L296 329 L296 329 Z " />
<glyph glyph-name="H" unicode="H" horiz-adv-x="460" d="M331 0 L373 0 L420 0 L420 18 L420 36 L413 36 C390 36 374 59 373 93 L373 607 C374 641 390 664 413 664 L420 664 L420 682 L420 700 L373 700 L331 700 L288 700 L241 700 L241 682 L241 664 L248 664 C272 664 288 641 288 607 L288 392 L172 392 L172 607 C172 641 188 664 212 664 L219 664 L219 682 L219 700 L172 700 L129 700 L87 700 L40 700 L40 682 L40 664 L47 664 C71 664 87 641 87 607 L87 93 C87 59 71 36 47 36 L40 36 L40 18 L40 0 L87 0 L129 0 L172 0 L219 0 L219 18 L219 36 L212 36 C188 36 172 59 172 93 L172 317 L288 317 L288 93 C288 59 272 36 248 36 L241 36 L241 18 L241 0 L288 0 L331 0 L331 0 Z " />
<glyph glyph-name="I" unicode="I" horiz-adv-x="258" d="M129 0 L172 0 L219 0 L219 18 L219 36 L212 36 C188 36 172 59 172 93 L172 607 C172 641 188 664 212 664 L219 664 L219 682 L219 700 L172 700 L129 700 L86 700 L39 700 L39 682 L39 664 L46 664 C70 664 86 641 86 607 L86 93 C86 59 70 36 46 36 L39 36 L39 18 L39 0 L86 0 L129 0 L129 0 Z " />
<glyph glyph-name="J" unicode="J" horiz-adv-x="370" d="M202 607 L202 607 L203 90 C203 75 181 65 148 65 C116 65 95 73 94 84 L94 143 L8 143 L8 95 C7 32 63 -10 146 -10 C229 -10 284 32 284 96 L284 607 L284 613 C285 644 301 664 325 664 L332 664 C331 664 331 671 332 682 C331 693 331 700 332 700 L285 700 L244 700 L203 700 L157 700 L157 682 L157 664 L164 664 C187 664 203 641 203 607 L202 607 L202 607 Z " />
<glyph glyph-name="K" unicode="K" horiz-adv-x="439" d="M259 607 L259 607 L172 393 L172 607 C172 641 188 664 212 664 L219 664 L219 682 L219 700 L172 700 L129 700 L87 700 L40 700 L40 682 L40 664 L47 664 C71 664 87 641 87 607 L87 93 C87 59 71 36 47 36 L40 36 L40 18 L40 0 L87 0 L129 0 L172 0 L219 0 L219 18 L219 36 L212 36 C188 36 172 59 172 93 L172 213 L200 277 L263 93 L263 93 C275 59 271 36 253 36 L248 36 L248 18 L248 0 L295 0 L341 0 L387 0 L422 0 L422 18 L422 36 L415 36 C392 36 369 56 356 87 L250 390 L218 317 L348 612 C363 643 388 664 411 664 L418 664 L418 682 L418 700 L387 700 L343 700 L298 700 L251 700 C252 700 252 693 251 682 C252 671 252 664 251 664 L256 664 C273 664 274 641 260 607 L259 607 L259 607 Z " />
<glyph glyph-name="L" unicode="L" horiz-adv-x="326" d="M311 40 L311 80 L311 127 C311 126 304 126 293 127 C282 126 275 126 275 127 L275 120 C275 96 255 80 224 79 L218 79 L172 79 L172 606 C172 640 188 663 212 663 L219 663 L219 681 L219 699 L172 699 L129 699 L87 699 L40 699 L40 681 L40 663 L47 663 C71 663 87 640 87 606 L87 92 C87 58 71 35 47 35 L40 35 L40 17 L40 -1 L87 -1 L129 -1 L172 -1 L311 -1 L311 40 L311 40 Z " />
<glyph glyph-name="M" unicode="M" horiz-adv-x="535" d="M268 290 L192 700 L172 700 L132 700 L129 700 L87 700 L40 700 C39 700 39 693 40 682 C39 671 39 664 40 664 L47 664 C70 664 86 641 87 607 L87 93 C87 59 71 36 47 36 L40 36 L40 18 L40 0 L87 0 L129 0 L172 0 L219 0 L219 18 L219 36 L212 36 C188 36 172 59 172 93 L172 469 L229 141 L254 0 L281 0 L306 141 L363 469 L363 93 C363 59 347 36 323 36 L316 36 L316 18 L316 0 L363 0 L406 0 L448 0 L495 0 L495 18 L495 36 L488 36 C464 36 448 59 448 93 L448 607 C449 641 465 664 488 664 L495 664 L495 682 L495 700 L448 700 L406 700 L403 700 L363 700 L344 700 L268 290 L268 290 Z " />
<glyph glyph-name="N" unicode="N" horiz-adv-x="462" d="M338 700 L301 700 L254 700 C255 700 255 693 254 682 C255 671 255 664 254 664 L262 664 C285 664 300 644 301 613 L301 607 L301 215 L188 700 L164 700 L127 700 L115 700 L89 700 L42 700 L42 682 L42 664 L49 664 C73 664 89 641 89 607 L89 93 C89 59 73 36 49 36 L42 36 L42 18 L42 0 L89 0 L127 0 L164 0 L211 0 L211 18 L211 36 L204 36 C180 36 164 59 164 93 L164 490 L278 0 L301 0 L351 0 L375 0 L375 607 C375 641 391 664 415 664 L422 664 L422 682 L422 700 L375 700 L338 700 L338 700 Z " />
<glyph glyph-name="O" unicode="O" horiz-adv-x="355" d="M229 616 L229 84 C229 72 208 65 177 65 C145 65 124 72 124 84 L124 616 C124 628 145 635 177 635 C208 635 229 628 229 616 L229 616 Z M315 99 L315 601 C315 666 260 710 177 710 C93 710 38 666 38 601 L38 99 C38 34 93 -10 177 -10 C260 -10 315 34 315 99 L315 99 Z " />
<glyph glyph-name="P" unicode="P" horiz-adv-x="398" d="M129 0 L172 0 L219 0 L219 18 L219 36 L212 36 C188 36 172 59 172 93 L172 260 L234 260 C318 260 373 309 373 384 L373 596 C373 658 318 700 234 700 L172 700 L129 700 L87 700 L40 700 L40 682 L40 664 L47 664 C71 664 87 641 87 607 L87 93 C87 59 71 36 47 36 L40 36 L40 18 L40 0 L87 0 L129 0 L129 0 Z M172 335 L172 625 L234 625 C267 625 288 612 288 593 L288 384 C288 354 267 335 234 335 L172 335 L172 335 Z " />
<glyph glyph-name="Q" unicode="Q" horiz-adv-x="369" d="M229 616 L229 84 C229 72 208 65 177 65 C145 65 124 72 124 84 L124 616 C124 628 145 635 177 635 C208 635 229 628 229 616 L229 616 Z M262 10 C283 -2 311 -12 344 -18 L350 -16 C329 12 315 58 315 99 L315 601 C315 666 260 710 177 710 C93 710 38 666 38 601 L38 99 C38 34 93 -10 177 -10 C210 -10 239 -3 262 10 L262 10 Z " />
<glyph glyph-name="R" unicode="R" horiz-adv-x="460" d="M288 93 C288 59 272 36 248 36 L241 36 L241 18 L241 0 L288 0 L331 0 L373 0 L420 0 L420 18 L420 36 L413 36 C389 36 373 59 373 93 L373 268 C373 296 360 320 337 337 C360 365 373 404 373 451 L373 596 C373 658 318 700 234 700 L172 700 L129 700 L87 700 L40 700 L40 682 L40 664 L47 664 C71 664 87 641 87 607 L87 93 C87 59 71 36 47 36 L40 36 L40 18 L40 0 L87 0 L129 0 L172 0 L219 0 L219 18 L219 36 L212 36 C188 36 172 59 172 93 L172 290 L234 290 L236 290 C267 290 288 280 288 265 L288 93 L288 93 Z M234 365 L172 365 L172 625 L234 625 C267 625 288 612 288 593 L288 451 C288 399 267 365 234 365 L234 365 Z " />
<glyph glyph-name="S" unicode="S" horiz-adv-x="324" d="M23 133 L23 89 L23 42 L37 42 C58 10 103 -10 161 -10 C243 -10 298 40 298 115 C298 191 264 289 199 382 C139 466 109 540 109 601 C109 621 130 635 162 635 C193 635 214 625 214 611 L214 573 L300 573 L300 611 L300 658 L286 658 C265 690 220 710 162 710 C79 710 24 661 24 588 C24 508 58 419 124 326 C182 244 212 161 212 100 C212 79 191 65 161 65 C130 65 109 75 109 89 L109 133 L23 133 L23 133 Z " />
<glyph glyph-name="T" unicode="T" horiz-adv-x="309" d="M155 0 L198 0 L245 0 C244 0 244 7 245 18 C244 29 244 36 245 36 L237 36 C214 36 199 56 198 87 L198 93 L198 625 L211 625 C246 625 269 609 269 585 L269 578 L287 578 L304 578 L304 625 L304 662 L304 700 L198 700 L112 700 L5 700 L5 662 L5 625 L5 578 L23 578 L41 578 L41 585 C41 609 64 625 98 625 L112 625 L112 93 C112 59 96 36 72 36 L65 36 L65 18 L65 0 L112 0 L155 0 L155 0 Z " />
<glyph glyph-name="U" unicode="U" horiz-adv-x="448" d="M319 700 L276 700 L234 700 L234 682 L234 664 L240 664 C262 664 276 641 276 607 L276 84 C276 72 255 65 224 65 C192 65 171 72 171 84 L171 607 C171 641 185 664 207 664 L214 664 L214 682 L214 700 L171 700 L128 700 L85 700 L38 700 L38 682 L38 664 L45 664 C69 664 85 641 85 607 L85 99 C85 34 140 -10 224 -10 C307 -10 362 34 362 99 L362 607 C362 641 378 664 402 664 L409 664 L409 682 L409 700 L362 700 L319 700 L319 700 Z " />
<glyph glyph-name="V" unicode="V" horiz-adv-x="421" d="M264 607 L264 607 L211 114 L155 616 C154 645 166 664 186 664 L193 664 L193 682 L193 700 L146 700 L103 700 L60 700 L18 700 L18 682 L18 664 L25 664 C49 664 68 641 72 607 L72 607 L152 0 L199 0 L224 0 L271 0 L349 611 C355 643 372 664 395 664 L402 664 C403 664 403 671 402 682 C403 693 403 700 402 700 L360 700 L317 700 L274 700 L227 700 L227 682 L227 664 L234 664 C256 664 268 641 264 607 L264 607 Z " />
<glyph glyph-name="W" unicode="W" horiz-adv-x="604" d="M81 607 L81 607 L116 0 L164 0 L182 0 L230 0 L302 556 L373 0 L423 0 L440 0 L489 0 L524 607 L524 607 C526 641 543 664 567 664 L574 664 L574 682 L574 700 L529 700 L489 700 L448 700 L401 700 L401 682 L401 664 L408 664 C429 664 443 644 444 614 L426 112 L358 700 L320 700 L283 700 L245 700 L177 118 L159 615 C160 645 174 665 196 665 L203 665 L203 683 L203 701 L156 701 L115 701 L75 701 L30 701 L30 683 L30 665 L37 665 C61 665 78 642 80 608 L81 607 L81 607 Z " />
<glyph glyph-name="X" unicode="X" horiz-adv-x="399" d="M320 93 L320 93 L242 350 L325 607 L325 607 C336 641 359 664 384 664 L391 664 C390 664 390 671 391 682 C390 693 390 700 391 700 L355 700 L316 700 L277 700 L230 700 C231 700 231 693 230 682 C231 671 231 664 230 664 L236 664 C254 664 261 644 253 613 L252 608 L252 608 L252 608 L211 454 L163 613 C155 644 161 665 178 665 L183 665 L183 683 L183 701 L136 701 L93 701 L50 701 L14 701 L14 683 L14 665 L21 665 C45 665 68 642 78 608 L78 608 L156 350 L69 84 C56 55 35 36 13 36 L6 36 L6 18 L6 0 L41 0 L80 0 L119 0 L166 0 L166 18 L166 36 L161 36 C143 36 137 57 144 88 L187 242 L234 86 C242 56 236 36 218 36 L213 36 L213 18 L213 0 L259 0 L303 0 L346 0 L382 0 L382 18 L382 36 L375 36 C351 36 328 59 318 93 L320 93 L320 93 Z " />
<glyph glyph-name="Y" unicode="Y" horiz-adv-x="473" d="M282 607 L283 607 L238 389 L190 607 L191 607 C183 641 191 664 211 664 L217 664 L217 682 L217 700 L170 700 L125 700 L80 700 L43 700 L43 682 L43 664 L50 664 C74 664 96 641 106 607 L106 607 L195 296 L195 93 C195 59 179 36 155 36 L148 36 L148 18 L148 0 L195 0 L237 0 L280 0 L327 0 L327 18 L327 36 L320 36 C296 36 280 59 280 93 L280 296 L367 607 L367 607 C377 641 399 664 423 664 L430 664 L430 682 L430 700 L393 700 L348 700 L303 700 L256 700 L256 682 L256 664 L262 664 C282 664 291 641 283 607 L282 607 L282 607 Z " />
<glyph glyph-name="Z" unicode="Z" horiz-adv-x="335" d="M13 700 L13 662 L13 625 L14 625 C14 609 14 592 13 578 L31 578 L49 578 L49 585 C49 609 72 625 106 625 L220 625 L21 75 L13 54 L13 0 L21 0 L314 0 L314 38 L314 75 L314 122 L296 122 L278 122 L278 115 C278 91 255 75 221 75 L111 75 L310 625 L313 633 L313 700 L310 700 L13 700 L13 700 Z " />
<glyph glyph-name="bracketleft" unicode="&#x5b;" horiz-adv-x="203" d="M105 653 L193 653 L193 700 L105 700 L52 700 L52 -73 L105 -73 L193 -73 L193 -26 L105 -26 L105 653 L105 653 Z " />
<glyph glyph-name="backslash" unicode="&#x5c;" horiz-adv-x="162" d="M110 -90 L152 -90 L52 700 L10 700 L110 -90 L110 -90 Z " />
<glyph glyph-name="bracketright" unicode="&#x5d;" horiz-adv-x="187" d="M95 653 L95 -26 L10 -26 L10 -73 L95 -73 L147 -73 L147 700 L95 700 L10 700 L10 653 L95 653 L95 653 Z " />
<glyph glyph-name="underscore" unicode="&#x5f;" horiz-adv-x="334" d="M10 -57 L10 -102 L324 -102 L324 -57 L10 -57 L10 -57 Z " />
<glyph glyph-name="a" unicode="a" horiz-adv-x="376" d="M32 398 L113 398 L114 517 C114 530 133 539 163 539 C193 539 213 530 213 518 L213 387 L213 387 C213 350 179 339 129 329 C69 316 29 269 29 211 L29 93 C30 31 70 -10 129 -10 C168 -10 198 10 214 44 L214 0 L254 0 L295 0 L342 0 L342 18 L342 36 L335 36 C311 36 295 59 295 93 L295 505 C295 568 242 610 163 610 C84 610 32 568 32 505 L32 398 L32 398 Z M213 302 L213 112 L212 112 C212 81 191 60 160 60 C129 60 109 81 109 112 L109 211 C110 242 122 266 140 270 C170 277 195 285 212 302 L213 302 L213 302 Z " />
<glyph glyph-name="b" unicode="b" horiz-adv-x="391" d="M122 0 L162 0 L162 32 C180 5 209 -10 245 -10 C312 -10 357 32 357 94 L357 507 C357 569 312 610 245 610 C209 610 180 595 162 569 L162 701 L122 701 L81 701 L34 701 L34 683 L34 665 L41 665 C65 665 81 642 81 608 L81 94 C81 60 65 37 41 37 L34 37 L34 19 L34 1 L81 1 L122 0 L122 0 Z M162 491 C162 520 184 539 218 539 C253 539 276 519 276 489 L277 115 C277 81 253 59 218 59 C184 59 162 80 162 112 L162 491 L162 491 Z " />
<glyph glyph-name="c" unicode="c" horiz-adv-x="391" d="M310 225 L229 225 L229 95 C229 75 206 61 172 61 C138 61 115 75 115 95 L115 504 C115 525 138 539 172 539 C206 539 229 524 229 501 L229 370 L310 370 L310 501 L310 548 L299 548 C286 572 263 590 233 600 C231 601 229 602 227 603 L227 603 C211 608 193 611 173 611 C90 611 35 568 35 502 L35 100 C35 35 90 -9 173 -9 C256 -9 311 35 311 101 L310 225 L310 225 Z " />
<glyph glyph-name="d" unicode="d" horiz-adv-x="392" d="M270 0 L310 0 L357 0 L357 18 L357 36 L350 36 C326 36 310 59 310 93 L310 700 L270 700 L229 700 L182 700 L182 682 L182 664 L189 664 C213 664 229 641 229 607 L229 562 C212 592 181 610 142 610 C77 610 34 567 34 501 L34 93 C34 31 77 -10 142 -10 C181 -10 212 12 229 48 L229 0 L270 0 L270 0 Z M229 112 C229 81 206 61 171 61 C137 61 115 81 115 112 L115 504 C115 525 138 539 172 539 C206 539 229 525 229 504 L229 112 L229 112 Z " />
<glyph glyph-name="e" unicode="e" horiz-adv-x="345" d="M310 225 L229 225 L229 95 C229 75 206 61 172 61 C138 61 115 75 115 95 L115 310 L229 310 L310 310 L310 381 L310 501 C310 567 255 610 172 610 C89 610 34 567 34 501 L34 99 C34 34 89 -10 172 -10 C255 -10 310 34 310 100 L310 225 L310 225 Z M229 381 L115 381 L115 504 C115 525 138 539 172 539 C206 539 229 524 229 501 L229 381 L229 381 Z " />
<glyph glyph-name="f" unicode="f" horiz-adv-x="363" d="M179 0 L219 0 L266 0 L266 18 L266 36 L259 36 C235 36 219 59 219 93 L219 525 L301 525 L301 600 L219 600 L219 607 C219 617 233 626 253 628 L337 629 L337 700 L244 700 C182 692 141 653 138 600 L55 600 L55 525 L138 525 L138 93 C138 59 122 36 98 36 L91 36 L91 18 L91 0 L138 0 L179 0 L179 0 Z " />
<glyph glyph-name="g" unicode="g" horiz-adv-x="391" d="M269 600 L228 600 L228 564 C210 593 180 610 142 610 C76 610 33 567 33 501 L33 151 C33 92 76 53 142 53 C181 53 212 73 229 107 L229 17 C229 -11 206 -30 171 -30 C137 -30 115 -13 115 14 L114 38 L33 38 L33 27 C33 -49 88 -100 171 -100 C254 -100 309 -48 309 30 L310 507 L310 507 C309 541 325 564 349 564 L356 564 L356 582 L356 600 L310 600 L269 600 L269 600 Z M228 163 C224 139 202 124 169 124 C136 124 113 142 113 170 L113 504 C113 525 136 539 171 539 C200 539 221 528 227 511 L228 163 L228 163 Z " />
<glyph glyph-name="h" unicode="h" horiz-adv-x="438" d="M316 0 L357 0 L404 0 L404 18 L404 36 L397 36 C373 36 357 59 357 93 L357 507 C357 569 313 610 246 610 C210 610 181 595 163 569 L163 701 L123 701 L82 701 L35 701 L35 683 L35 665 L42 665 C66 665 82 642 82 608 L82 94 C82 60 66 37 42 37 L35 37 L35 19 L35 1 L82 1 L123 1 L163 1 L210 1 L210 19 L210 37 L203 37 C179 37 164 60 163 94 L163 491 C163 520 186 539 220 539 C254 539 277 519 277 489 L277 94 C277 60 261 37 237 37 L230 37 L230 19 L230 1 L277 1 L316 0 L316 0 Z " />
<glyph glyph-name="i" unicode="i" horiz-adv-x="245" d="M79 633 L166 633 L166 700 L79 700 L79 633 L79 633 Z M123 0 L163 0 L210 0 L210 18 L210 36 L203 36 C179 36 163 59 163 93 L163 600 L123 600 L82 600 L35 600 L35 582 L35 564 L42 564 C66 564 82 541 82 507 L82 93 C82 59 66 36 42 36 L35 36 L35 18 L35 0 L82 0 L123 0 L123 0 Z " />
<glyph glyph-name="j" unicode="j" horiz-adv-x="207" d="M88 633 L175 633 L175 700 L88 700 L88 633 L88 633 Z M91 507 L91 -18 C91 -41 73 -59 46 -63 L12 -63 L12 -96 L51 -96 C124 -86 173 -50 173 -5 L172 600 L132 600 L91 600 L44 600 L44 582 L44 564 L51 564 C75 564 91 541 91 507 L91 507 Z " />
<glyph glyph-name="k" unicode="k" horiz-adv-x="411" d="M329 93 L329 93 L235 335 L320 512 C337 544 363 565 386 565 L393 565 L393 583 L393 601 L363 601 L321 601 L280 601 L233 601 L233 583 L233 565 L237 565 C253 565 253 542 237 508 L237 508 L162 345 L162 701 L122 701 L81 701 L34 701 L34 683 L34 665 L41 665 C65 665 81 642 81 608 L81 94 C81 60 65 37 41 37 L34 37 L34 19 L34 1 L81 1 L122 1 L162 1 L209 1 C210 1 210 8 209 19 C210 30 210 37 209 37 L202 37 C179 37 163 60 162 94 L162 184 L220 304 L190 241 L280 1 L322 1 L365 1 L398 1 L398 19 L398 37 L391 37 C367 37 342 60 329 94 L329 93 L329 93 Z " />
<glyph glyph-name="l" unicode="l" horiz-adv-x="245" d="M123 0 L163 0 L210 0 L210 18 L210 36 L203 36 C179 36 163 59 163 93 L163 700 L123 700 L82 700 L35 700 L35 682 L35 664 L42 664 C66 664 82 641 82 607 L82 93 C82 59 66 36 42 36 L35 36 L35 18 L35 0 L82 0 L123 0 L123 0 Z " />
<glyph glyph-name="m" unicode="m" horiz-adv-x="633" d="M552 93 L552 93 L551 507 C551 569 507 610 441 610 C398 610 365 589 348 553 C332 588 296 610 247 610 C211 610 182 595 164 569 L164 601 L124 601 L83 601 L36 601 L36 583 L36 565 L43 565 C67 565 83 542 83 508 L83 94 C83 60 67 37 43 37 L36 37 L36 19 L36 1 L83 1 L124 1 L164 1 L211 1 L211 19 L211 37 L204 37 C180 37 165 60 164 94 L164 491 C164 520 187 539 221 539 C255 539 278 519 278 489 L278 94 C278 60 262 37 238 37 L231 37 L231 19 L231 1 L278 1 L318 1 L359 1 L406 1 L406 19 L406 37 L399 37 C375 37 359 60 359 94 L359 491 C359 520 382 539 415 539 C450 539 473 519 473 489 L472 94 L472 94 C472 60 456 37 433 37 L426 37 L426 19 L426 1 L472 1 L513 1 L554 1 L601 1 C600 1 600 8 601 19 C600 30 600 37 601 37 L593 37 C569 37 553 60 554 94 L552 93 L552 93 Z " />
<glyph glyph-name="n" unicode="n" horiz-adv-x="438" d="M316 0 L357 0 L404 0 L404 18 L404 36 L397 36 C373 36 357 59 357 93 L357 507 C357 569 313 610 246 610 C210 610 181 595 163 569 L163 601 L123 601 L82 601 L35 601 L35 583 L35 565 L42 565 C66 565 82 542 82 508 L82 94 C82 60 66 37 42 37 L35 37 L35 19 L35 1 L82 1 L123 1 L163 1 L210 1 L210 19 L210 37 L203 37 C179 37 164 60 163 94 L163 491 C163 520 186 539 220 539 C254 539 277 519 277 489 L277 94 C277 60 261 37 237 37 L230 37 L230 19 L230 1 L277 1 L316 0 L316 0 Z " />
<glyph glyph-name="o" unicode="o" horiz-adv-x="345" d="M230 513 L230 87 C230 72 207 61 172 61 C137 61 114 72 114 87 L114 513 C114 528 137 539 172 539 C207 539 230 528 230 513 L230 513 Z M310 102 L310 498 C310 565 255 610 172 610 C90 610 35 565 35 498 L35 102 C35 35 90 -10 172 -10 C255 -10 310 35 310 102 L310 102 Z " />
<glyph glyph-name="p" unicode="p" horiz-adv-x="391" d="M122 -90 L162 -90 L209 -90 C210 -90 210 -83 209 -72 C210 -61 210 -54 209 -54 L202 -54 C179 -54 163 -31 162 3 L162 32 C180 5 209 -10 245 -10 C312 -10 357 32 357 94 L357 507 C357 569 312 610 245 610 C209 610 180 595 162 569 L162 601 L122 601 L81 601 L34 601 L34 583 L34 565 L41 565 C65 565 81 542 81 508 L81 4 C81 -30 65 -53 41 -53 L34 -53 L34 -71 L34 -89 L81 -89 L122 -90 L122 -90 Z M162 491 C162 520 184 539 218 539 C253 539 276 519 276 489 L277 115 C277 81 253 59 218 59 C184 59 162 80 162 112 L162 491 L162 491 Z " />
<glyph glyph-name="q" unicode="q" horiz-adv-x="392" d="M270 -90 L310 -90 L357 -90 L357 -72 L357 -54 L350 -54 C326 -54 310 -31 310 3 L310 507 C310 541 326 564 350 564 L357 564 L357 582 L357 600 L310 600 L270 600 L229 600 L229 562 C212 592 181 610 142 610 C77 610 34 567 34 501 L34 93 C34 31 77 -10 142 -10 C181 -10 212 12 229 48 L229 3 C229 -31 213 -54 189 -54 L182 -54 L182 -72 L182 -90 L229 -90 L270 -90 L270 -90 Z M229 112 C229 81 206 61 171 61 C137 61 115 81 115 112 L115 504 C115 525 138 539 172 539 C206 539 229 525 229 504 L229 112 L229 112 Z " />
<glyph glyph-name="r" unicode="r" horiz-adv-x="357" d="M267 411 L348 411 L348 507 C348 569 306 610 242 610 C208 610 180 595 162 569 L162 600 L122 600 L81 600 L34 600 L34 582 L34 564 L41 564 C65 564 81 541 81 507 L81 93 C81 59 65 36 41 36 L34 36 L34 18 L34 0 L81 0 L122 0 L162 0 L209 0 C210 0 210 7 209 18 C210 29 210 36 209 36 L202 36 C179 36 163 59 162 93 L162 490 C162 519 183 538 214 538 C247 538 268 518 267 488 L267 411 L267 411 Z " />
<glyph glyph-name="s" unicode="s" horiz-adv-x="312" d="M19 195 L19 93 L19 46 L31 46 C52 11 97 -10 156 -10 C238 -10 293 42 293 121 C293 177 257 254 186 330 C131 389 102 446 102 497 C102 522 124 539 157 539 C190 539 212 526 212 507 L212 414 L293 414 L293 507 L293 554 L281 554 C261 589 217 610 158 610 C76 610 21 560 21 484 C21 419 57 346 128 270 C185 209 214 149 214 106 C214 79 191 61 157 61 C123 61 101 74 101 93 L101 195 L19 195 L19 195 Z " />
<glyph glyph-name="t" unicode="t" horiz-adv-x="358" d="M349 215 L267 215 L268 95 C268 75 247 61 216 61 C185 61 164 75 164 95 L164 525 L317 525 L317 600 L164 600 L164 640 L164 710 L138 710 C138 668 116 640 83 640 L83 600 L5 600 L5 525 L83 525 L83 99 C83 34 136 -10 216 -10 C295 -10 348 34 348 100 L349 215 L349 215 Z " />
<glyph glyph-name="u" unicode="u" horiz-adv-x="439" d="M317 0 L357 0 L404 0 L404 18 L404 36 L397 36 C373 36 357 59 357 93 L357 600 L317 600 L276 600 L229 600 L229 582 L229 564 L236 564 C260 564 276 541 276 507 L276 112 C276 81 253 61 218 61 C184 61 162 81 162 112 L162 600 L122 600 L81 600 L34 600 L34 582 L34 564 L41 564 C65 564 81 541 81 507 L81 93 C81 31 124 -10 189 -10 C228 -10 259 12 276 48 L276 0 L317 0 L317 0 Z " />
<glyph glyph-name="v" unicode="v" horiz-adv-x="422" d="M267 511 L214 68 L156 507 L157 507 C152 541 163 564 185 564 L191 564 C192 564 192 571 191 582 C192 593 192 600 191 600 L144 600 L104 600 L63 600 L22 600 C21 600 21 593 22 582 C21 571 21 564 22 564 L29 564 C52 564 70 543 76 511 L153 0 L206 0 L223 0 L274 0 L346 507 L346 507 C350 541 369 564 394 564 L401 564 L401 582 L401 600 L359 600 L318 600 L278 600 L231 600 C230 600 230 593 231 582 C230 571 230 564 231 564 L237 564 C258 564 269 543 267 511 L267 511 Z " />
<glyph glyph-name="w" unicode="w" horiz-adv-x="593" d="M431 507 L431 507 L415 95 L345 600 L312 600 L280 600 L248 600 L177 90 L160 507 L160 507 C159 541 173 564 197 564 L203 564 C204 564 204 571 203 582 C204 593 204 600 203 600 L156 600 L116 600 L75 600 L31 600 L31 582 L31 564 L38 564 C62 564 79 541 81 507 L81 507 L115 0 L164 0 L180 0 L228 0 L295 484 L362 0 L410 0 L427 0 L475 0 L509 507 L509 507 C511 541 529 564 553 564 L560 564 C559 564 559 571 560 582 C559 593 559 600 560 600 L515 600 L474 600 L434 600 L387 600 L387 582 L387 564 L394 564 C417 564 432 541 430 507 L431 507 L431 507 Z " />
<glyph glyph-name="x" unicode="x" horiz-adv-x="421" d="M258 507 L258 507 L220 389 L175 515 C165 545 170 565 186 565 L192 565 C191 565 191 572 192 583 C191 594 191 601 192 601 L145 601 L101 601 L58 601 L24 601 L24 583 L24 565 L31 565 C55 565 79 542 91 508 L91 508 L165 301 L164 301 L81 83 C67 55 45 37 24 37 L17 37 L17 19 L17 1 L50 1 L90 1 L129 1 L176 1 L176 19 L176 37 L171 37 C153 37 148 60 160 94 L160 94 L198 208 L239 92 C250 59 246 37 229 37 L224 37 L224 19 L224 1 L271 1 L314 1 L358 1 L392 1 L392 19 L392 37 L385 37 C361 37 337 60 325 94 L325 94 L251 302 L329 508 L329 508 C342 542 367 565 391 565 L398 565 L398 583 L398 601 L364 601 L325 601 L286 601 L239 601 C238 601 238 594 239 583 C238 572 238 565 239 565 L244 565 C262 565 267 542 256 508 L258 507 L258 507 Z " />
<glyph glyph-name="y" unicode="y" horiz-adv-x="392" d="M275 507 L275 507 L276 163 C272 139 250 124 217 124 C184 124 161 142 161 170 L161 600 L121 600 L80 600 L33 600 L33 582 L33 564 L40 564 C64 564 80 541 80 507 L80 151 C80 92 123 53 189 53 C228 53 259 73 276 107 L276 17 C276 -11 253 -30 218 -30 C184 -30 162 -13 162 14 L161 38 L80 38 L80 27 C80 -49 135 -100 218 -100 C301 -100 356 -48 356 30 L356 600 L315 600 L274 600 L228 600 L228 582 L228 564 L235 564 C258 564 274 541 274 507 L275 507 L275 507 Z " />
<glyph glyph-name="z" unicode="z" horiz-adv-x="320" d="M5 600 L5 565 L5 529 L5 482 L23 482 L41 482 L41 489 C41 513 64 529 98 529 L216 529 L13 71 L5 53 L5 0 L13 0 L306 0 L306 35 L306 71 L306 118 C306 117 299 117 288 118 C277 117 270 117 270 118 L270 111 C270 87 250 71 219 70 L213 70 L98 70 L302 528 L305 535 L305 599 L302 599 L5 600 L5 600 Z " />
<glyph glyph-name="bar" unicode="&#x7c;" horiz-adv-x="141" d="M39 -90 L81 -90 L81 700 L39 700 L39 -90 L39 -90 Z " />
<glyph glyph-name="exclamdown" unicode="&#xa1;" horiz-adv-x="144" d="M27 600 L117 600 L117 510 L27 510 L27 600 L27 600 Z M29 -100 L29 136 L52 414 L92 414 L115 136 L115 -100 L29 -100 L29 -100 Z " />
<glyph glyph-name="cent" unicode="&#xa2;" horiz-adv-x="389" d="M307 225 L237 225 L237 95 C237 74 219 58 191 53 L191 548 C219 543 237 526 237 502 L237 371 L307 371 L307 502 C307 562 262 603 191 609 L191 645 L151 645 L151 609 C80 603 34 562 34 502 L34 100 C34 40 80 -2 151 -9 L151 -50 L191 -50 L191 -9 C262 -2 307 40 307 100 L307 225 L307 225 Z M151 53 C123 58 105 74 105 95 L105 504 C105 526 123 542 151 547 L151 53 L151 53 Z " />
<glyph glyph-name="section" unicode="&#xa7;" horiz-adv-x="346" d="M209 547 L209 547 L182 427 L148 556 C142 585 148 604 163 604 L168 604 L168 622 L168 640 L126 640 L88 640 L49 640 L12 640 L12 622 L12 604 L19 604 C40 604 60 586 70 558 L132 320 L68 89 C57 57 36 36 13 36 L6 36 L6 18 L6 0 L43 0 L78 0 L112 0 L154 0 L154 18 L154 36 L149 36 C133 36 127 58 134 90 L162 209 L192 94 L191 94 C200 60 195 37 179 37 L174 37 L174 19 L174 1 L216 1 L254 1 L292 1 L330 1 L330 19 L330 37 L323 37 C299 37 277 60 268 94 L268 94 L209 321 L210 321 L275 555 C285 585 307 605 329 605 L336 605 L336 623 L336 641 L299 641 L264 641 L229 641 L188 641 L188 623 L188 605 L193 605 C210 605 216 582 208 548 L209 547 L209 547 Z " />
<glyph glyph-name="guillemotleft" unicode="&#xab;" horiz-adv-x="368" d="M348 535 L265 535 L171 393 L265 251 L348 251 L254 393 L348 535 L348 535 Z M192 535 L108 535 L14 393 L108 251 L192 251 L98 393 L192 535 L192 535 Z " />
<glyph glyph-name="periodcentered" unicode="&#xb7;" horiz-adv-x="251" d="M58 280 L194 280 L194 416 L58 416 L58 280 L58 280 Z " />
<glyph glyph-name="guillemotright" unicode="&#xbb;" horiz-adv-x="408" d="M212 535 L317 393 L212 251 L295 251 L401 393 L295 535 L212 535 L212 535 Z M23 535 L128 393 L23 251 L106 251 L212 393 L106 535 L23 535 L23 535 Z " />
<glyph glyph-name="onequarter" unicode="&#xbc;" horiz-adv-x="447" d="M420 271 L371 126 L371 117 L326 117 L437 364 L386 364 L270 119 L270 64 L317 64 L371 64 L371 48 C371 31 363 19 350 19 L347 19 L347 9 L347 0 L371 0 L401 0 L430 0 L454 0 C455 0 455 4 454 9 C455 15 455 19 454 19 L451 19 C438 19 430 31 430 48 L430 63 C442 60 449 53 449 44 L449 40 L459 40 L468 40 L468 64 L468 91 L468 117 L468 142 L459 142 L449 142 L449 138 C449 129 442 121 430 118 L430 126 L430 271 L420 271 L420 271 Z M10 591 L14 585 C40 588 62 595 79 605 L79 378 C79 361 70 349 58 349 L54 349 L54 339 L54 330 L79 330 L109 330 L140 330 L164 330 L164 339 L164 349 L161 349 C148 349 140 361 140 378 L140 694 L115 694 L79 694 L72 694 L72 655 C72 622 47 596 10 591 L10 591 Z M10 0 L52 0 L438 700 L395 700 L10 0 L10 0 Z " />
<glyph glyph-name="onehalf" unicode="&#xbd;" horiz-adv-x="447" d="M270 297 L330 297 L330 314 C330 316 336 317 346 316 C357 317 363 314 363 309 C363 276 348 237 324 212 C292 178 271 126 271 83 L271 53 L271 0 L425 0 L425 26 L425 53 L425 77 L415 77 L406 77 L406 74 C406 61 394 53 376 53 L331 53 L331 83 C331 111 346 146 368 170 C402 205 424 257 424 300 C424 341 393 369 346 369 C300 369 270 346 270 312 L270 297 L270 297 Z M10 591 L14 585 C40 588 62 595 79 605 L79 378 C79 361 70 349 58 349 L54 349 L54 339 L54 330 L79 330 L109 330 L140 330 L164 330 L164 339 L164 349 L161 349 C148 349 140 361 140 378 L140 694 L115 694 L79 694 L72 694 L72 655 C72 622 47 596 10 591 L10 591 Z M10 0 L52 0 L438 700 L395 700 L10 0 L10 0 Z " />
<glyph glyph-name="threequarters" unicode="&#xbe;" horiz-adv-x="447" d="M420 271 L371 126 L371 117 L326 117 L437 364 L386 364 L270 119 L270 64 L317 64 L371 64 L371 48 C371 31 363 19 350 19 L347 19 L347 9 L347 0 L371 0 L401 0 L430 0 L454 0 C455 0 455 4 454 9 C455 15 455 19 454 19 L451 19 C438 19 430 31 430 48 L430 63 C442 60 449 53 449 44 L449 40 L459 40 L468 40 L468 64 L468 91 L468 117 L468 142 L459 142 L449 142 L449 138 C449 129 442 121 430 118 L430 126 L430 271 L420 271 L420 271 Z M10 0 L52 0 L438 700 L395 700 L10 0 L10 0 Z M46 335 C47 334 48 333 49 332 L49 332 C60 327 72 324 86 324 C132 324 163 358 163 408 L162 469 C162 495 153 517 138 531 C153 545 162 565 163 590 L163 635 C163 673 132 698 85 698 C72 698 61 696 51 693 L51 693 C49 692 47 691 45 690 C30 683 19 673 13 660 L9 660 L9 639 C9 638 9 637 9 636 L9 620 L69 620 L70 640 C70 644 76 646 85 645 C95 646 102 644 102 643 L102 580 C102 562 95 551 85 551 L58 551 L58 498 L85 498 C96 499 103 489 103 474 L102 398 C102 385 96 376 86 377 C76 376 69 386 69 400 L69 422 L9 422 L9 408 L9 383 L12 383 C17 361 29 344 46 334 L46 335 L46 335 Z " />
<glyph glyph-name="questiondown" unicode="&#xbf;" horiz-adv-x="372" d="M239 600 L149 600 L149 510 L239 510 L239 600 L239 600 Z M332 86 L250 86 L247 -12 C247 -26 225 -35 194 -35 C162 -35 140 -18 140 7 C140 77 149 134 229 220 L219 430 L179 430 L169 260 C67 149 55 89 55 16 C55 -60 111 -110 194 -110 C278 -110 334 -70 333 -11 L332 86 L332 86 Z " />
<glyph glyph-name="Agrave" unicode="&#xc0;" horiz-adv-x="421" d="M184 740 L237 740 L188 800 L101 800 L184 740 L184 740 Z M347 93 L347 93 L265 700 L229 700 L192 700 L155 700 L108 700 L108 682 L108 664 L115 664 C134 664 145 644 143 614 L74 92 L74 92 C69 58 50 35 26 35 L19 35 L19 17 L19 -1 L62 -1 L104 -1 L147 -1 L194 -1 L194 17 L194 35 L188 35 C166 35 154 58 158 92 L158 92 L166 163 L255 163 L263 92 L263 92 C267 58 255 35 233 35 L227 35 L227 17 L227 -1 L274 -1 L317 -1 L359 -1 L402 -1 L402 17 L402 35 L395 35 C371 35 352 58 347 92 L347 93 L347 93 Z M246 238 L175 238 L211 541 L246 238 L246 238 Z " />
<glyph glyph-name="Aacute" unicode="&#xc1;" horiz-adv-x="421" d="M184 740 L237 740 L320 800 L233 800 L184 740 L184 740 Z M347 93 L347 93 L265 700 L229 700 L192 700 L155 700 L108 700 L108 682 L108 664 L115 664 C134 664 145 644 143 614 L74 92 L74 92 C69 58 50 35 26 35 L19 35 L19 17 L19 -1 L62 -1 L104 -1 L147 -1 L194 -1 L194 17 L194 35 L188 35 C166 35 154 58 158 92 L158 92 L166 163 L255 163 L263 92 L263 92 C267 58 255 35 233 35 L227 35 L227 17 L227 -1 L274 -1 L317 -1 L359 -1 L402 -1 L402 17 L402 35 L395 35 C371 35 352 58 347 92 L347 93 L347 93 Z M246 238 L175 238 L211 541 L246 238 L246 238 Z " />
<glyph glyph-name="Acircumflex" unicode="&#xc2;" horiz-adv-x="421" d="M347 93 L347 93 L265 700 L229 700 L192 700 L155 700 L108 700 L108 682 L108 664 L115 664 C134 664 145 644 143 614 L74 92 L74 92 C69 58 50 35 26 35 L19 35 L19 17 L19 -1 L62 -1 L104 -1 L147 -1 L194 -1 L194 17 L194 35 L188 35 C166 35 154 58 158 92 L158 92 L166 163 L255 163 L263 92 L263 92 C267 58 255 35 233 35 L227 35 L227 17 L227 -1 L274 -1 L317 -1 L359 -1 L402 -1 L402 17 L402 35 L395 35 C371 35 352 58 347 92 L347 93 L347 93 Z M168 799 L102 739 L156 739 L211 773 L266 739 L320 739 L254 799 L168 799 L168 799 Z M247 238 L176 238 L212 541 L247 238 L247 238 Z " />
<glyph glyph-name="Atilde" unicode="&#xc3;" horiz-adv-x="421" d="M96 729 L137 729 C135 740 143 748 157 748 C180 748 192 746 196 745 C218 736 247 729 272 729 C310 729 331 753 325 789 L284 789 C286 778 278 770 264 770 C241 770 229 772 225 773 C203 782 174 789 149 789 C111 789 90 765 96 729 L96 729 Z M347 93 L347 93 L265 700 L229 700 L192 700 L155 700 L108 700 L108 682 L108 664 L115 664 C134 664 145 644 143 614 L74 92 L74 92 C69 58 50 35 26 35 L19 35 L19 17 L19 -1 L62 -1 L104 -1 L147 -1 L194 -1 L194 17 L194 35 L188 35 C166 35 154 58 158 92 L158 92 L166 163 L255 163 L263 92 L263 92 C267 58 255 35 233 35 L227 35 L227 17 L227 -1 L274 -1 L317 -1 L359 -1 L402 -1 L402 17 L402 35 L395 35 C371 35 352 58 347 92 L347 93 L347 93 Z M246 238 L175 238 L211 541 L246 238 L246 238 Z " />
<glyph glyph-name="Adieresis" unicode="&#xc4;" horiz-adv-x="421" d="M226 740 L301 740 L301 815 L226 815 L226 740 L226 740 Z M120 740 L195 740 L195 815 L120 815 L120 740 L120 740 Z M347 93 L347 93 L265 700 L229 700 L192 700 L155 700 L108 700 L108 682 L108 664 L115 664 C134 664 145 644 143 614 L74 92 L74 92 C69 58 50 35 26 35 L19 35 L19 17 L19 -1 L62 -1 L104 -1 L147 -1 L194 -1 L194 17 L194 35 L188 35 C166 35 154 58 158 92 L158 92 L166 163 L255 163 L263 92 L263 92 C267 58 255 35 233 35 L227 35 L227 17 L227 -1 L274 -1 L317 -1 L359 -1 L402 -1 L402 17 L402 35 L395 35 C371 35 352 58 347 92 L347 93 L347 93 Z M246 238 L175 238 L211 541 L246 238 L246 238 Z " />
<glyph glyph-name="Aring" unicode="&#xc5;" horiz-adv-x="421" d="M211 770 C202 770 197 772 197 776 C197 779 202 781 211 781 C219 781 224 779 224 775 C224 772 219 770 211 770 L211 770 Z M159 775 C159 755 180 741 211 741 C241 741 262 755 262 776 C262 796 241 810 211 810 C180 810 159 796 159 775 L159 775 Z M347 93 L347 93 L265 700 L229 700 L192 700 L155 700 L108 700 L108 682 L108 664 L115 664 C134 664 145 644 143 614 L74 92 L74 92 C69 58 50 35 26 35 L19 35 L19 17 L19 -1 L62 -1 L104 -1 L147 -1 L194 -1 L194 17 L194 35 L188 35 C166 35 154 58 158 92 L158 92 L166 163 L255 163 L263 92 L263 92 C267 58 255 35 233 35 L227 35 L227 17 L227 -1 L274 -1 L317 -1 L359 -1 L402 -1 L402 17 L402 35 L395 35 C371 35 352 58 347 92 L347 93 L347 93 Z M246 238 L175 238 L211 541 L246 238 L246 238 Z " />
<glyph glyph-name="Ccedilla" unicode="&#xc7;" horiz-adv-x="337" d="M317 132 L232 132 L232 91 C232 75 211 65 178 65 C147 65 126 73 126 85 L125 615 C124 627 146 635 178 635 C210 635 231 626 231 612 C231 598 232 580 232 566 L317 566 C317 576 318 588 318 598 L318 645 L307 645 C295 670 272 689 241 700 C239 701 237 702 235 703 C218 708 199 711 178 711 C95 711 40 668 40 603 L40 100 C39 41 85 -1 156 -8 L126 -53 L161 -53 L166 -53 C169 -55 179 -57 191 -57 C208 -57 220 -65 220 -77 C220 -88 203 -96 176 -96 C158 -96 146 -92 146 -86 L106 -86 C106 -110 135 -125 177 -125 C226 -125 259 -106 259 -77 C259 -47 237 -28 203 -28 C197 -28 191 -26 187 -24 L161 -53 L194 -8 C269 -3 317 40 317 102 L317 132 L317 132 Z " />
<glyph glyph-name="Egrave" unicode="&#xc8;" horiz-adv-x="346" d="M180 740 L233 740 L184 800 L97 800 L180 740 L180 740 Z M326 40 L326 80 L326 127 C326 126 319 126 308 127 C297 126 290 126 290 127 L290 120 C290 96 270 80 239 79 L233 79 L172 79 L172 314 L183 314 C217 314 240 298 240 274 L240 267 L258 267 L276 267 L276 314 L276 354 L276 394 L276 441 L258 441 L240 441 L240 434 C240 410 217 394 183 394 L172 394 L172 619 L228 619 C262 619 285 603 285 579 L285 572 L303 572 L321 572 L321 619 L321 659 L321 699 L172 699 L129 699 L87 699 L40 699 L40 681 L40 663 L47 663 C71 663 87 640 87 606 L87 92 C87 58 71 35 47 35 L40 35 L40 17 L40 -1 L87 -1 L129 -1 L172 -1 L326 -1 L326 40 L326 40 Z " />
<glyph glyph-name="Eacute" unicode="&#xc9;" horiz-adv-x="346" d="M180 740 L233 740 L316 800 L229 800 L180 740 L180 740 Z M326 40 L326 80 L326 127 C326 126 319 126 308 127 C297 126 290 126 290 127 L290 120 C290 96 270 80 239 79 L233 79 L172 79 L172 314 L183 314 C217 314 240 298 240 274 L240 267 L258 267 L276 267 L276 314 L276 354 L276 394 L276 441 L258 441 L240 441 L240 434 C240 410 217 394 183 394 L172 394 L172 619 L228 619 C262 619 285 603 285 579 L285 572 L303 572 L321 572 L321 619 L321 659 L321 699 L172 699 L129 699 L87 699 L40 699 L40 681 L40 663 L47 663 C71 663 87 640 87 606 L87 92 C87 58 71 35 47 35 L40 35 L40 17 L40 -1 L87 -1 L129 -1 L172 -1 L326 -1 L326 40 L326 40 Z " />
<glyph glyph-name="Ecircumflex" unicode="&#xca;" horiz-adv-x="346" d="M163 800 L98 740 L152 740 L206 774 L261 740 L315 740 L249 800 L163 800 L163 800 Z M326 40 L326 80 L326 127 C326 126 319 126 308 127 C297 126 290 126 290 127 L290 120 C290 96 270 80 239 79 L233 79 L172 79 L172 314 L183 314 C217 314 240 298 240 274 L240 267 L258 267 L276 267 L276 314 L276 354 L276 394 L276 441 L258 441 L240 441 L240 434 C240 410 217 394 183 394 L172 394 L172 619 L228 619 C262 619 285 603 285 579 L285 572 L303 572 L321 572 L321 619 L321 659 L321 699 L172 699 L129 699 L87 699 L40 699 L40 681 L40 663 L47 663 C71 663 87 640 87 606 L87 92 C87 58 71 35 47 35 L40 35 L40 17 L40 -1 L87 -1 L129 -1 L172 -1 L326 -1 L326 40 L326 40 Z " />
<glyph glyph-name="Edieresis" unicode="&#xcb;" horiz-adv-x="346" d="M222 740 L297 740 L297 815 L222 815 L222 740 L222 740 Z M116 740 L191 740 L191 815 L116 815 L116 740 L116 740 Z M326 40 L326 80 L326 127 C326 126 319 126 308 127 C297 126 290 126 290 127 L290 120 C290 96 270 80 239 79 L233 79 L172 79 L172 314 L183 314 C217 314 240 298 240 274 L240 267 L258 267 L276 267 L276 314 L276 354 L276 394 L276 441 L258 441 L240 441 L240 434 C240 410 217 394 183 394 L172 394 L172 619 L228 619 C262 619 285 603 285 579 L285 572 L303 572 L321 572 L321 619 L321 659 L321 699 L172 699 L129 699 L87 699 L40 699 L40 681 L40 663 L47 663 C71 663 87 640 87 606 L87 92 C87 58 71 35 47 35 L40 35 L40 17 L40 -1 L87 -1 L129 -1 L172 -1 L326 -1 L326 40 L326 40 Z " />
<glyph glyph-name="Igrave" unicode="&#xcc;" horiz-adv-x="258" d="M103 740 L155 740 L107 794 L19 794 L103 740 L103 740 Z M129 0 L172 0 L219 0 L219 18 L219 36 L212 36 C188 36 172 59 172 93 L172 607 C172 641 188 664 212 664 L219 664 L219 682 L219 700 L172 700 L129 700 L86 700 L39 700 L39 682 L39 664 L46 664 C70 664 86 641 86 607 L86 93 C86 59 70 36 46 36 L39 36 L39 18 L39 0 L86 0 L129 0 L129 0 Z " />
<glyph glyph-name="Icircumflex" unicode="&#xce;" horiz-adv-x="258" d="M86 794 L20 740 L74 740 L129 770 L184 740 L238 740 L172 794 L86 794 L86 794 Z M129 0 L172 0 L219 0 L219 18 L219 36 L212 36 C188 36 172 59 172 93 L172 607 C172 641 188 664 212 664 L219 664 L219 682 L219 700 L172 700 L129 700 L86 700 L39 700 L39 682 L39 664 L46 664 C70 664 86 641 86 607 L86 93 C86 59 70 36 46 36 L39 36 L39 18 L39 0 L86 0 L129 0 L129 0 Z " />
<glyph glyph-name="Idieresis" unicode="&#xcf;" horiz-adv-x="258" d="M145 740 L220 740 L220 815 L145 815 L145 740 L145 740 Z M38 740 L114 740 L114 815 L38 815 L38 740 L38 740 Z M129 0 L172 0 L219 0 L219 18 L219 36 L212 36 C188 36 172 59 172 93 L172 607 C172 641 188 664 212 664 L219 664 L219 682 L219 700 L172 700 L129 700 L86 700 L39 700 L39 682 L39 664 L46 664 C70 664 86 641 86 607 L86 93 C86 59 70 36 46 36 L39 36 L39 18 L39 0 L86 0 L129 0 L129 0 Z " />
<glyph glyph-name="Eth" unicode="&#xd0;" horiz-adv-x="413" d="M36 349 L87 349 L87 93 C87 59 71 36 47 36 L40 36 L40 18 L40 0 L87 0 L129 0 L172 0 L226 0 C314 0 373 42 373 105 L373 596 C373 658 314 700 226 700 L172 700 L129 700 L87 700 L40 700 L40 682 L40 664 L47 664 C71 664 87 641 87 607 L87 399 L36 399 L36 349 L36 349 Z M288 399 L172 399 L172 625 L226 625 C263 625 288 612 288 593 L288 399 L288 399 Z M288 349 L288 105 C288 87 263 75 226 75 L172 75 L172 349 L288 349 L288 349 Z " />
<glyph glyph-name="Ntilde" unicode="&#xd1;" horiz-adv-x="462" d="M118 729 L159 729 C156 740 164 748 178 748 C201 748 214 746 218 745 C239 736 268 729 293 729 C332 729 353 753 346 789 L306 789 C308 778 300 770 286 770 C263 770 251 772 247 773 C225 782 196 789 171 789 C133 789 111 765 118 729 L118 729 Z M338 700 L301 700 L254 700 C255 700 255 693 254 682 C255 671 255 664 254 664 L262 664 C285 664 300 644 301 613 L301 607 L301 215 L188 700 L164 700 L127 700 L115 700 L89 700 L42 700 L42 682 L42 664 L49 664 C73 664 89 641 89 607 L89 93 C89 59 73 36 49 36 L42 36 L42 18 L42 0 L89 0 L127 0 L164 0 L211 0 L211 18 L211 36 L204 36 C180 36 164 59 164 93 L164 490 L278 0 L301 0 L351 0 L375 0 L375 607 C375 641 391 664 415 664 L422 664 L422 682 L422 700 L375 700 L338 700 L338 700 Z " />
<glyph glyph-name="Ograve" unicode="&#xd2;" horiz-adv-x="355" d="M150 740 L203 740 L154 800 L67 800 L150 740 L150 740 Z M229 616 L229 84 C229 72 208 65 177 65 C145 65 124 72 124 84 L124 616 C124 628 145 635 177 635 C208 635 229 628 229 616 L229 616 Z M315 99 L315 601 C315 666 260 710 177 710 C93 710 38 666 38 601 L38 99 C38 34 93 -10 177 -10 C260 -10 315 34 315 99 L315 99 Z " />
<glyph glyph-name="Oacute" unicode="&#xd3;" horiz-adv-x="355" d="M150 740 L203 740 L286 800 L199 800 L150 740 L150 740 Z M229 616 L229 84 C229 72 208 65 177 65 C145 65 124 72 124 84 L124 616 C124 628 145 635 177 635 C208 635 229 628 229 616 L229 616 Z M315 99 L315 601 C315 666 260 710 177 710 C93 710 38 666 38 601 L38 99 C38 34 93 -10 177 -10 C260 -10 315 34 315 99 L315 99 Z " />
<glyph glyph-name="Ocircumflex" unicode="&#xd4;" horiz-adv-x="355" d="M229 616 L229 84 C229 72 208 65 177 65 C145 65 124 72 124 84 L124 616 C124 628 145 635 177 635 C208 635 229 628 229 616 L229 616 Z M315 99 L315 601 C315 666 260 710 177 710 C93 710 38 666 38 601 L38 99 C38 34 93 -10 177 -10 C260 -10 315 34 315 99 L315 99 Z M134 800 L68 740 L122 740 L177 774 L232 740 L286 740 L220 800 L134 800 L134 800 Z " />
<glyph glyph-name="Otilde" unicode="&#xd5;" horiz-adv-x="355" d="M62 729 L103 729 C101 740 109 748 123 748 C146 748 158 746 162 745 C184 736 213 729 238 729 C276 729 297 753 291 789 L250 789 C252 778 244 770 230 770 C207 770 195 772 191 773 C169 782 140 789 115 789 C77 789 56 765 62 729 L62 729 Z M229 616 L229 84 C229 72 208 65 177 65 C145 65 124 72 124 84 L124 616 C124 628 145 635 177 635 C208 635 229 628 229 616 L229 616 Z M315 99 L315 601 C315 666 260 710 177 710 C93 710 38 666 38 601 L38 99 C38 34 93 -10 177 -10 C260 -10 315 34 315 99 L315 99 Z " />
<glyph glyph-name="Odieresis" unicode="&#xd6;" horiz-adv-x="355" d="M192 740 L267 740 L267 815 L192 815 L192 740 L192 740 Z M86 740 L161 740 L161 815 L86 815 L86 740 L86 740 Z M229 616 L229 84 C229 72 208 65 177 65 C145 65 124 72 124 84 L124 616 C124 628 145 635 177 635 C208 635 229 628 229 616 L229 616 Z M315 99 L315 601 C315 666 260 710 177 710 C93 710 38 666 38 601 L38 99 C38 34 93 -10 177 -10 C260 -10 315 34 315 99 L315 99 Z " />
<glyph glyph-name="Ugrave" unicode="&#xd9;" horiz-adv-x="448" d="M197 740 L250 740 L201 800 L114 800 L197 740 L197 740 Z M319 700 L276 700 L234 700 L234 682 L234 664 L240 664 C262 664 276 641 276 607 L276 84 C276 72 255 65 224 65 C192 65 171 72 171 84 L171 607 C171 641 185 664 207 664 L214 664 L214 682 L214 700 L171 700 L128 700 L85 700 L38 700 L38 682 L38 664 L45 664 C69 664 85 641 85 607 L85 99 C85 34 140 -10 224 -10 C307 -10 362 34 362 99 L362 607 C362 641 378 664 402 664 L409 664 L409 682 L409 700 L362 700 L319 700 L319 700 Z " />
<glyph glyph-name="Uacute" unicode="&#xda;" horiz-adv-x="448" d="M197 740 L250 740 L333 800 L246 800 L197 740 L197 740 Z M319 700 L276 700 L234 700 L234 682 L234 664 L240 664 C262 664 276 641 276 607 L276 84 C276 72 255 65 224 65 C192 65 171 72 171 84 L171 607 C171 641 185 664 207 664 L214 664 L214 682 L214 700 L171 700 L128 700 L85 700 L38 700 L38 682 L38 664 L45 664 C69 664 85 641 85 607 L85 99 C85 34 140 -10 224 -10 C307 -10 362 34 362 99 L362 607 C362 641 378 664 402 664 L409 664 L409 682 L409 700 L362 700 L319 700 L319 700 Z " />
<glyph glyph-name="Ucircumflex" unicode="&#xdb;" horiz-adv-x="448" d="M181 800 L115 740 L169 740 L224 774 L279 740 L333 740 L267 800 L181 800 L181 800 Z M320 700 L277 700 L235 700 L235 682 L235 664 L241 664 C263 664 277 641 277 607 L277 84 C277 72 256 65 225 65 C193 65 172 72 172 84 L172 607 C172 641 186 664 208 664 L215 664 L215 682 L215 700 L172 700 L129 700 L86 700 L39 700 L39 682 L39 664 L46 664 C70 664 86 641 86 607 L86 99 C86 34 141 -10 225 -10 C308 -10 363 34 363 99 L363 607 C363 641 379 664 403 664 L410 664 L410 682 L410 700 L363 700 L320 700 L320 700 Z " />
<glyph glyph-name="Udieresis" unicode="&#xdc;" horiz-adv-x="448" d="M239 740 L314 740 L314 815 L239 815 L239 740 L239 740 Z M133 740 L208 740 L208 815 L133 815 L133 740 L133 740 Z M319 700 L276 700 L234 700 L234 682 L234 664 L240 664 C262 664 276 641 276 607 L276 84 C276 72 255 65 224 65 C192 65 171 72 171 84 L171 607 C171 641 185 664 207 664 L214 664 L214 682 L214 700 L171 700 L128 700 L85 700 L38 700 L38 682 L38 664 L45 664 C69 664 85 641 85 607 L85 99 C85 34 140 -10 224 -10 C307 -10 362 34 362 99 L362 607 C362 641 378 664 402 664 L409 664 L409 682 L409 700 L362 700 L319 700 L319 700 Z " />
<glyph glyph-name="Yacute" unicode="&#xdd;" horiz-adv-x="473" d="M209 740 L262 740 L345 800 L258 800 L209 740 L209 740 Z M282 607 L283 607 L238 389 L190 607 L191 607 C183 641 191 664 211 664 L217 664 L217 682 L217 700 L170 700 L125 700 L80 700 L43 700 L43 682 L43 664 L50 664 C74 664 96 641 106 607 L106 607 L195 296 L195 93 C195 59 179 36 155 36 L148 36 L148 18 L148 0 L195 0 L237 0 L280 0 L327 0 L327 18 L327 36 L320 36 C296 36 280 59 280 93 L280 296 L367 607 L367 607 C377 641 399 664 423 664 L430 664 L430 682 L430 700 L393 700 L348 700 L303 700 L256 700 L256 682 L256 664 L262 664 C282 664 291 641 283 607 L282 607 L282 607 Z " />
<glyph glyph-name="agrave" unicode="&#xe0;" horiz-adv-x="376" d="M136 640 L188 640 L140 700 L52 700 L136 640 L136 640 Z M32 398 L113 398 L114 517 C114 530 133 539 163 539 C193 539 213 530 213 518 L213 387 L213 387 C213 350 179 339 129 329 C69 316 29 269 29 211 L29 93 C30 31 70 -10 129 -10 C168 -10 198 10 214 44 L214 0 L254 0 L295 0 L342 0 L342 18 L342 36 L335 36 C311 36 295 59 295 93 L295 505 C295 568 242 610 163 610 C84 610 32 568 32 505 L32 398 L32 398 Z M213 302 L213 112 L212 112 C212 81 191 60 160 60 C129 60 109 81 109 112 L109 211 C110 242 122 266 140 270 C170 277 195 285 212 302 L213 302 L213 302 Z " />
<glyph glyph-name="aacute" unicode="&#xe1;" horiz-adv-x="376" d="M136 640 L188 640 L272 700 L185 700 L136 640 L136 640 Z M32 398 L113 398 L114 517 C114 530 133 539 163 539 C193 539 213 530 213 518 L213 387 L213 387 C213 350 179 339 129 329 C69 316 29 269 29 211 L29 93 C30 31 70 -10 129 -10 C168 -10 198 10 214 44 L214 0 L254 0 L295 0 L342 0 L342 18 L342 36 L335 36 C311 36 295 59 295 93 L295 505 C295 568 242 610 163 610 C84 610 32 568 32 505 L32 398 L32 398 Z M213 302 L213 112 L212 112 C212 81 191 60 160 60 C129 60 109 81 109 112 L109 211 C110 242 122 266 140 270 C170 277 195 285 212 302 L213 302 L213 302 Z " />
<glyph glyph-name="acircumflex" unicode="&#xe2;" horiz-adv-x="376" d="M32 398 L113 398 L114 517 C114 530 133 539 163 539 C193 539 213 530 213 518 L213 387 L213 387 C213 350 179 339 129 329 C69 316 29 269 29 211 L29 93 C30 31 70 -10 129 -10 C168 -10 198 10 214 44 L214 0 L254 0 L295 0 L342 0 L342 18 L342 36 L335 36 C311 36 295 59 295 93 L295 505 C295 568 242 610 163 610 C84 610 32 568 32 505 L32 398 L32 398 Z M119 700 L53 640 L107 640 L162 674 L217 640 L271 640 L205 700 L119 700 L119 700 Z M213 302 L213 112 L212 112 C212 81 191 60 160 60 C129 60 109 81 109 112 L109 211 C110 242 122 266 140 270 C170 277 195 285 212 302 L213 302 L213 302 Z " />
<glyph glyph-name="atilde" unicode="&#xe3;" horiz-adv-x="376" d="M48 633 L88 633 C86 644 94 652 108 652 C131 652 144 650 148 649 C169 640 198 633 223 633 C261 633 283 657 276 693 L236 693 C238 682 230 674 216 674 C193 674 181 676 176 677 C155 686 126 693 101 693 C63 693 41 669 48 633 L48 633 Z M32 398 L113 398 L114 517 C114 530 133 539 163 539 C193 539 213 530 213 518 L213 387 L213 387 C213 350 179 339 129 329 C69 316 29 269 29 211 L29 93 C30 31 70 -10 129 -10 C168 -10 198 10 214 44 L214 0 L254 0 L295 0 L342 0 L342 18 L342 36 L335 36 C311 36 295 59 295 93 L295 505 C295 568 242 610 163 610 C84 610 32 568 32 505 L32 398 L32 398 Z M213 302 L213 112 L212 112 C212 81 191 60 160 60 C129 60 109 81 109 112 L109 211 C110 242 122 266 140 270 C170 277 195 285 212 302 L213 302 L213 302 Z " />
<glyph glyph-name="adieresis" unicode="&#xe4;" horiz-adv-x="376" d="M178 640 L253 640 L253 715 L178 715 L178 640 L178 640 Z M71 640 L147 640 L147 715 L71 715 L71 640 L71 640 Z M32 398 L113 398 L114 517 C114 530 133 539 163 539 C193 539 213 530 213 518 L213 387 L213 387 C213 350 179 339 129 329 C69 316 29 269 29 211 L29 93 C30 31 70 -10 129 -10 C168 -10 198 10 214 44 L214 0 L254 0 L295 0 L342 0 L342 18 L342 36 L335 36 C311 36 295 59 295 93 L295 505 C295 568 242 610 163 610 C84 610 32 568 32 505 L32 398 L32 398 Z M213 302 L213 112 L212 112 C212 81 191 60 160 60 C129 60 109 81 109 112 L109 211 C110 242 122 266 140 270 C170 277 195 285 212 302 L213 302 L213 302 Z " />
<glyph glyph-name="aring" unicode="&#xe5;" horiz-adv-x="376" d="M162 669 C154 669 148 671 148 675 C148 678 154 680 162 680 C170 680 176 678 176 674 C176 671 170 669 162 669 L162 669 Z M111 674 C111 654 131 640 162 640 C193 640 213 654 213 675 C213 695 193 709 162 709 C131 709 111 695 111 674 L111 674 Z M32 398 L113 398 L114 517 C114 530 133 539 163 539 C193 539 213 530 213 518 L213 387 L213 387 C213 350 179 339 129 329 C69 316 29 269 29 211 L29 93 C30 31 70 -10 129 -10 C168 -10 198 10 214 44 L214 0 L254 0 L295 0 L342 0 L342 18 L342 36 L335 36 C311 36 295 59 295 93 L295 505 C295 568 242 610 163 610 C84 610 32 568 32 505 L32 398 L32 398 Z M213 302 L213 112 L212 112 C212 81 191 60 160 60 C129 60 109 81 109 112 L109 211 C110 242 122 266 140 270 C170 277 195 285 212 302 L213 302 L213 302 Z " />
<glyph glyph-name="ccedilla" unicode="&#xe7;" horiz-adv-x="391" d="M310 225 L229 225 L229 95 C229 75 206 61 172 61 C138 61 115 75 115 95 L115 504 C115 525 138 539 172 539 C206 539 229 524 229 501 L229 370 L310 370 L310 501 L310 548 L299 548 C286 572 263 590 233 600 C231 601 229 602 227 603 L227 603 C211 608 193 611 173 611 C90 611 35 568 35 502 L35 100 C35 41 80 -1 150 -8 L120 -53 L155 -53 L160 -53 C163 -55 173 -57 185 -57 C202 -57 214 -65 214 -77 C214 -88 196 -96 170 -96 C152 -96 140 -92 140 -86 L100 -86 C100 -110 128 -125 171 -125 C220 -125 253 -106 253 -77 C253 -47 231 -28 197 -28 C190 -28 184 -26 181 -24 L155 -53 L188 -8 C262 -3 310 39 310 101 L310 225 L310 225 Z " />
<glyph glyph-name="egrave" unicode="&#xe8;" horiz-adv-x="345" d="M146 640 L198 640 L150 700 L62 700 L146 640 L146 640 Z M310 225 L229 225 L229 95 C229 75 206 61 172 61 C138 61 115 75 115 95 L115 310 L229 310 L310 310 L310 381 L310 501 C310 567 255 610 172 610 C89 610 34 567 34 501 L34 99 C34 34 89 -10 172 -10 C255 -10 310 34 310 100 L310 225 L310 225 Z M229 381 L115 381 L115 504 C115 525 138 539 172 539 C206 539 229 524 229 501 L229 381 L229 381 Z " />
<glyph glyph-name="eacute" unicode="&#xe9;" horiz-adv-x="345" d="M146 640 L198 640 L282 700 L195 700 L146 640 L146 640 Z M310 225 L229 225 L229 95 C229 75 206 61 172 61 C138 61 115 75 115 95 L115 310 L229 310 L310 310 L310 381 L310 501 C310 567 255 610 172 610 C89 610 34 567 34 501 L34 99 C34 34 89 -10 172 -10 C255 -10 310 34 310 100 L310 225 L310 225 Z M229 381 L115 381 L115 504 C115 525 138 539 172 539 C206 539 229 524 229 501 L229 381 L229 381 Z " />
<glyph glyph-name="ecircumflex" unicode="&#xea;" horiz-adv-x="345" d="M310 225 L229 225 L229 95 C229 75 206 61 172 61 C138 61 115 75 115 95 L115 310 L229 310 L310 310 L310 381 L310 501 C310 567 255 610 172 610 C89 610 34 567 34 501 L34 99 C34 34 89 -10 172 -10 C255 -10 310 34 310 100 L310 225 L310 225 Z M129 700 L63 640 L117 640 L172 674 L227 640 L281 640 L215 700 L129 700 L129 700 Z M229 381 L115 381 L115 504 C115 525 138 539 172 539 C206 539 229 524 229 501 L229 381 L229 381 Z " />
<glyph glyph-name="edieresis" unicode="&#xeb;" horiz-adv-x="345" d="M188 640 L263 640 L263 715 L188 715 L188 640 L188 640 Z M81 640 L157 640 L157 715 L81 715 L81 640 L81 640 Z M310 225 L229 225 L229 95 C229 75 206 61 172 61 C138 61 115 75 115 95 L115 310 L229 310 L310 310 L310 381 L310 501 C310 567 255 610 172 610 C89 610 34 567 34 501 L34 99 C34 34 89 -10 172 -10 C255 -10 310 34 310 100 L310 225 L310 225 Z M229 381 L115 381 L115 504 C115 525 138 539 172 539 C206 539 229 524 229 501 L229 381 L229 381 Z " />
<glyph glyph-name="igrave" unicode="&#xec;" horiz-adv-x="245" d="M96 640 L149 640 L100 700 L13 700 L96 640 L96 640 Z M123 0 L163 0 L210 0 L210 18 L210 36 L203 36 C179 36 163 59 163 93 L163 600 L123 600 L82 600 L35 600 L35 582 L35 564 L42 564 C66 564 82 541 82 507 L82 93 C82 59 66 36 42 36 L35 36 L35 18 L35 0 L82 0 L123 0 L123 0 Z " />
<glyph glyph-name="iacute" unicode="&#xed;" horiz-adv-x="245" d="M96 640 L149 640 L232 700 L145 700 L96 640 L96 640 Z M123 0 L163 0 L210 0 L210 18 L210 36 L203 36 C179 36 163 59 163 93 L163 600 L123 600 L82 600 L35 600 L35 582 L35 564 L42 564 C66 564 82 541 82 507 L82 93 C82 59 66 36 42 36 L35 36 L35 18 L35 0 L82 0 L123 0 L123 0 Z " />
<glyph glyph-name="icircumflex" unicode="&#xee;" horiz-adv-x="245" d="M80 700 L14 640 L68 640 L123 674 L178 640 L232 640 L166 700 L80 700 L80 700 Z M124 0 L164 0 L211 0 L211 18 L211 36 L204 36 C180 36 164 59 164 93 L164 600 L124 600 L83 600 L36 600 L36 582 L36 564 L43 564 C67 564 83 541 83 507 L83 93 C83 59 67 36 43 36 L36 36 L36 18 L36 0 L83 0 L124 0 L124 0 Z " />
<glyph glyph-name="idieresis" unicode="&#xef;" horiz-adv-x="245" d="M138 640 L213 640 L213 715 L138 715 L138 640 L138 640 Z M32 640 L107 640 L107 715 L32 715 L32 640 L32 640 Z M123 0 L163 0 L210 0 L210 18 L210 36 L203 36 C179 36 163 59 163 93 L163 600 L123 600 L82 600 L35 600 L35 582 L35 564 L42 564 C66 564 82 541 82 507 L82 93 C82 59 66 36 42 36 L35 36 L35 18 L35 0 L82 0 L123 0 L123 0 Z " />
<glyph glyph-name="ntilde" unicode="&#xf1;" horiz-adv-x="438" d="M105 634 L145 634 C143 645 151 653 165 653 C188 653 201 651 205 650 C226 641 255 634 280 634 C318 634 340 658 333 694 L293 694 C295 683 287 675 273 675 C250 675 238 677 234 678 C212 687 183 694 158 694 C120 694 98 670 105 634 L105 634 Z M316 0 L357 0 L404 0 L404 18 L404 36 L397 36 C373 36 357 59 357 93 L357 507 C357 569 313 610 246 610 C210 610 181 595 163 569 L163 601 L123 601 L82 601 L35 601 L35 583 L35 565 L42 565 C66 565 82 542 82 508 L82 94 C82 60 66 37 42 37 L35 37 L35 19 L35 1 L82 1 L123 1 L163 1 L210 1 L210 19 L210 37 L203 37 C179 37 164 60 163 94 L163 491 C163 520 186 539 220 539 C254 539 277 519 277 489 L277 94 C277 60 261 37 237 37 L230 37 L230 19 L230 1 L277 1 L316 0 L316 0 Z " />
<glyph glyph-name="ograve" unicode="&#xf2;" horiz-adv-x="345" d="M146 640 L199 640 L150 700 L63 700 L146 640 L146 640 Z M230 513 L230 87 C230 72 207 61 172 61 C137 61 114 72 114 87 L114 513 C114 528 137 539 172 539 C207 539 230 528 230 513 L230 513 Z M310 102 L310 498 C310 565 255 610 172 610 C90 610 35 565 35 498 L35 102 C35 35 90 -10 172 -10 C255 -10 310 35 310 102 L310 102 Z " />
<glyph glyph-name="oacute" unicode="&#xf3;" horiz-adv-x="345" d="M146 640 L199 640 L282 700 L195 700 L146 640 L146 640 Z M230 513 L230 87 C230 72 207 61 172 61 C137 61 114 72 114 87 L114 513 C114 528 137 539 172 539 C207 539 230 528 230 513 L230 513 Z M310 102 L310 498 C310 565 255 610 172 610 C90 610 35 565 35 498 L35 102 C35 35 90 -10 172 -10 C255 -10 310 35 310 102 L310 102 Z " />
<glyph glyph-name="ocircumflex" unicode="&#xf4;" horiz-adv-x="345" d="M230 513 L230 87 C230 72 207 61 172 61 C137 61 114 72 114 87 L114 513 C114 528 137 539 172 539 C207 539 230 528 230 513 L230 513 Z M310 102 L310 498 C310 565 255 610 172 610 C90 610 35 565 35 498 L35 102 C35 35 90 -10 172 -10 C255 -10 310 35 310 102 L310 102 Z M129 700 L63 640 L118 640 L172 674 L227 640 L281 640 L215 700 L129 700 L129 700 Z " />
<glyph glyph-name="otilde" unicode="&#xf5;" horiz-adv-x="345" d="M58 634 L99 634 C96 645 104 653 118 653 C142 653 154 651 158 650 C180 641 209 634 233 634 C272 634 293 658 286 694 L246 694 C248 683 240 675 226 675 C203 675 191 677 187 678 C165 687 136 694 111 694 C73 694 51 670 58 634 L58 634 Z M230 513 L230 87 C230 72 207 61 172 61 C137 61 114 72 114 87 L114 513 C114 528 137 539 172 539 C207 539 230 528 230 513 L230 513 Z M310 102 L310 498 C310 565 255 610 172 610 C90 610 35 565 35 498 L35 102 C35 35 90 -10 172 -10 C255 -10 310 35 310 102 L310 102 Z " />
<glyph glyph-name="odieresis" unicode="&#xf6;" horiz-adv-x="345" d="M188 640 L263 640 L263 715 L188 715 L188 640 L188 640 Z M82 640 L157 640 L157 715 L82 715 L82 640 L82 640 Z M230 513 L230 87 C230 72 207 61 172 61 C137 61 114 72 114 87 L114 513 C114 528 137 539 172 539 C207 539 230 528 230 513 L230 513 Z M310 102 L310 498 C310 565 255 610 172 610 C90 610 35 565 35 498 L35 102 C35 35 90 -10 172 -10 C255 -10 310 35 310 102 L310 102 Z " />
<glyph glyph-name="oslash" unicode="&#xf8;" horiz-adv-x="345" d="M230 513 L230 472 L114 210 L114 512 C114 527 137 538 172 538 C207 538 230 527 230 512 L230 513 L230 513 Z M310 101 L310 497 C310 514 306 530 299 544 L328 610 L290 610 L275 576 C251 598 215 610 171 610 C89 610 34 565 34 498 L34 102 C34 85 38 69 45 55 L16 -11 L53 -11 L68 24 C92 2 128 -11 172 -11 C255 -11 310 34 310 101 L310 101 Z M230 387 L230 86 C230 71 207 60 172 60 C137 60 114 71 114 86 L114 126 L230 387 L230 387 Z " />
<glyph glyph-name="ugrave" unicode="&#xf9;" horiz-adv-x="439" d="M193 640 L245 640 L197 700 L109 700 L193 640 L193 640 Z M317 0 L357 0 L404 0 L404 18 L404 36 L397 36 C373 36 357 59 357 93 L357 600 L317 600 L276 600 L229 600 L229 582 L229 564 L236 564 C260 564 276 541 276 507 L276 112 C276 81 253 61 218 61 C184 61 162 81 162 112 L162 600 L122 600 L81 600 L34 600 L34 582 L34 564 L41 564 C65 564 81 541 81 507 L81 93 C81 31 124 -10 189 -10 C228 -10 259 12 276 48 L276 0 L317 0 L317 0 Z " />
<glyph glyph-name="uacute" unicode="&#xfa;" horiz-adv-x="439" d="M193 640 L245 640 L329 700 L242 700 L193 640 L193 640 Z M317 0 L357 0 L404 0 L404 18 L404 36 L397 36 C373 36 357 59 357 93 L357 600 L317 600 L276 600 L229 600 L229 582 L229 564 L236 564 C260 564 276 541 276 507 L276 112 C276 81 253 61 218 61 C184 61 162 81 162 112 L162 600 L122 600 L81 600 L34 600 L34 582 L34 564 L41 564 C65 564 81 541 81 507 L81 93 C81 31 124 -10 189 -10 C228 -10 259 12 276 48 L276 0 L317 0 L317 0 Z " />
<glyph glyph-name="ucircumflex" unicode="&#xfb;" horiz-adv-x="439" d="M176 700 L110 640 L164 640 L219 674 L274 640 L328 640 L262 700 L176 700 L176 700 Z M317 0 L357 0 L404 0 L404 18 L404 36 L397 36 C373 36 357 59 357 93 L357 600 L317 600 L276 600 L229 600 L229 582 L229 564 L236 564 C260 564 276 541 276 507 L276 112 C276 81 253 61 218 61 C184 61 162 81 162 112 L162 600 L122 600 L81 600 L34 600 L34 582 L34 564 L41 564 C65 564 81 541 81 507 L81 93 C81 31 124 -10 189 -10 C228 -10 259 12 276 48 L276 0 L317 0 L317 0 Z " />
<glyph glyph-name="udieresis" unicode="&#xfc;" horiz-adv-x="439" d="M235 640 L310 640 L310 715 L235 715 L235 640 L235 640 Z M129 640 L204 640 L204 715 L129 715 L129 640 L129 640 Z M317 0 L357 0 L404 0 L404 18 L404 36 L397 36 C373 36 357 59 357 93 L357 600 L317 600 L276 600 L229 600 L229 582 L229 564 L236 564 C260 564 276 541 276 507 L276 112 C276 81 253 61 218 61 C184 61 162 81 162 112 L162 600 L122 600 L81 600 L34 600 L34 582 L34 564 L41 564 C65 564 81 541 81 507 L81 93 C81 31 124 -10 189 -10 C228 -10 259 12 276 48 L276 0 L317 0 L317 0 Z " />
<glyph glyph-name="yacute" unicode="&#xfd;" horiz-adv-x="392" d="M193 640 L246 640 L329 700 L242 700 L193 640 L193 640 Z M275 507 L275 507 L276 163 C272 139 250 124 217 124 C184 124 161 142 161 170 L161 600 L121 600 L80 600 L33 600 L33 582 L33 564 L40 564 C64 564 80 541 80 507 L80 151 C80 92 123 53 189 53 C228 53 259 73 276 107 L276 17 C276 -11 253 -30 218 -30 C184 -30 162 -13 162 14 L161 38 L80 38 L80 27 C80 -49 135 -100 218 -100 C301 -100 356 -48 356 30 L356 600 L315 600 L274 600 L228 600 L228 582 L228 564 L235 564 C258 564 274 541 274 507 L275 507 L275 507 Z " />
<glyph glyph-name="ydieresis" unicode="&#xff;" horiz-adv-x="392" d="M235 640 L310 640 L310 715 L235 715 L235 640 L235 640 Z M129 640 L204 640 L204 715 L129 715 L129 640 L129 640 Z M275 507 L275 507 L276 163 C272 139 250 124 217 124 C184 124 161 142 161 170 L161 600 L121 600 L80 600 L33 600 L33 582 L33 564 L40 564 C64 564 80 541 80 507 L80 151 C80 92 123 53 189 53 C228 53 259 73 276 107 L276 17 C276 -11 253 -30 218 -30 C184 -30 162 -13 162 14 L161 38 L80 38 L80 27 C80 -49 135 -100 218 -100 C301 -100 356 -48 356 30 L356 600 L315 600 L274 600 L228 600 L228 582 L228 564 L235 564 C258 564 274 541 274 507 L275 507 L275 507 Z " />
<glyph glyph-name="Amacron" unicode="&#x100;" horiz-adv-x="421" d="M68 742 L353 742 L353 796 L68 796 L68 742 L68 742 Z M347 93 L347 93 L265 700 L229 700 L192 700 L155 700 L108 700 L108 682 L108 664 L115 664 C134 664 145 644 143 614 L74 92 L74 92 C69 58 50 35 26 35 L19 35 L19 17 L19 -1 L62 -1 L104 -1 L147 -1 L194 -1 L194 17 L194 35 L188 35 C166 35 154 58 158 92 L158 92 L166 163 L255 163 L263 92 L263 92 C267 58 255 35 233 35 L227 35 L227 17 L227 -1 L274 -1 L317 -1 L359 -1 L402 -1 L402 17 L402 35 L395 35 C371 35 352 58 347 92 L347 93 L347 93 Z M246 238 L175 238 L211 541 L246 238 L246 238 Z " />
<glyph glyph-name="amacron" unicode="&#x101;" horiz-adv-x="376" d="M19 642 L305 642 L305 696 L19 696 L19 642 L19 642 Z M32 398 L113 398 L114 517 C114 530 133 539 163 539 C193 539 213 530 213 518 L213 387 L213 387 C213 350 179 339 129 329 C69 316 29 269 29 211 L29 93 C30 31 70 -10 129 -10 C168 -10 198 10 214 44 L214 0 L254 0 L295 0 L342 0 L342 18 L342 36 L335 36 C311 36 295 59 295 93 L295 505 C295 568 242 610 163 610 C84 610 32 568 32 505 L32 398 L32 398 Z M213 302 L213 112 L212 112 C212 81 191 60 160 60 C129 60 109 81 109 112 L109 211 C110 242 122 266 140 270 C170 277 195 285 212 302 L213 302 L213 302 Z " />
<glyph glyph-name="Abreve" unicode="&#x102;" horiz-adv-x="421" d="M160 815 L107 815 C107 761 136 740 211 740 C276 740 301 761 301 815 L248 815 C248 793 238 785 211 785 C174 785 160 793 160 815 L160 815 Z M347 93 L347 93 L265 700 L229 700 L192 700 L155 700 L108 700 L108 682 L108 664 L115 664 C134 664 145 644 143 614 L74 92 L74 92 C69 58 50 35 26 35 L19 35 L19 17 L19 -1 L62 -1 L104 -1 L147 -1 L194 -1 L194 17 L194 35 L188 35 C166 35 154 58 158 92 L158 92 L166 163 L255 163 L263 92 L263 92 C267 58 255 35 233 35 L227 35 L227 17 L227 -1 L274 -1 L317 -1 L359 -1 L402 -1 L402 17 L402 35 L395 35 C371 35 352 58 347 92 L347 93 L347 93 Z M246 238 L175 238 L211 541 L246 238 L246 238 Z " />
<glyph glyph-name="abreve" unicode="&#x103;" horiz-adv-x="376" d="M118 715 L65 715 C65 661 94 640 169 640 C234 640 259 661 259 715 L206 715 C206 693 196 685 169 685 C132 685 118 693 118 715 L118 715 Z M32 398 L113 398 L114 517 C114 530 133 539 163 539 C193 539 213 530 213 518 L213 387 L213 387 C213 350 179 339 129 329 C69 316 29 269 29 211 L29 93 C30 31 70 -10 129 -10 C168 -10 198 10 214 44 L214 0 L254 0 L295 0 L342 0 L342 18 L342 36 L335 36 C311 36 295 59 295 93 L295 505 C295 568 242 610 163 610 C84 610 32 568 32 505 L32 398 L32 398 Z M213 302 L213 112 L212 112 C212 81 191 60 160 60 C129 60 109 81 109 112 L109 211 C110 242 122 266 140 270 C170 277 195 285 212 302 L213 302 L213 302 Z " />
<glyph glyph-name="Aogonek" unicode="&#x104;" horiz-adv-x="421" d="M347 93 L347 93 L265 700 L229 700 L192 700 L155 700 L108 700 L108 682 L108 664 L115 664 C134 664 145 644 143 614 L74 92 L74 92 C69 58 50 35 26 35 L19 35 L19 17 L19 -1 L62 -1 L104 -1 L147 -1 L194 -1 L194 17 L194 35 L188 35 C166 35 154 58 158 92 L158 92 L166 163 L255 163 L263 92 L263 92 C267 58 255 35 233 35 L227 35 L227 17 L227 -1 L274 -1 L306 -1 C291 -21 282 -40 282 -51 C282 -85 304 -108 346 -108 C391 -108 409 -88 409 -58 L364 -58 C364 -70 359 -78 345 -78 C332 -78 326 -69 326 -56 C326 -40 333 -19 345 -1 L359 -1 L402 -1 L402 17 L402 35 L395 35 C371 35 352 58 347 92 L347 93 L347 93 Z M246 238 L175 238 L211 541 L246 238 L246 238 Z " />
<glyph glyph-name="aogonek" unicode="&#x105;" horiz-adv-x="376" d="M32 398 L113 398 L114 517 C114 530 133 539 163 539 C193 539 213 530 213 518 L213 387 L213 387 C213 350 179 339 129 329 C69 316 29 269 29 211 L29 93 C30 31 70 -10 129 -10 C168 -10 198 10 214 44 L214 0 L238 0 C223 -20 214 -39 214 -50 C214 -84 236 -107 279 -107 C324 -107 341 -87 341 -57 L296 -57 C296 -69 291 -77 277 -77 C264 -77 258 -68 258 -55 C258 -39 265 -18 277 0 L295 0 L342 0 L342 18 L342 36 L335 36 C311 36 295 59 295 93 L295 505 C295 568 242 610 163 610 C84 610 32 568 32 505 L32 398 L32 398 Z M213 302 L213 112 L212 112 C212 81 191 60 160 60 C129 60 109 81 109 112 L109 211 C110 242 122 266 140 270 C170 277 195 285 212 302 L213 302 L213 302 Z " />
<glyph glyph-name="Cacute" unicode="&#x106;" horiz-adv-x="337" d="M152 740 L205 740 L288 794 L201 794 L152 740 L152 740 Z M317 132 L232 132 L232 91 C232 75 211 65 178 65 C147 65 126 73 126 85 L125 615 C124 627 146 635 178 635 C210 635 231 626 231 612 C231 598 232 580 232 566 L317 566 C317 576 318 588 318 598 L318 645 L307 645 C295 670 272 689 241 700 C239 701 237 702 235 703 C218 708 199 711 178 711 C95 711 40 668 40 603 L40 100 C39 35 95 -9 178 -9 C262 -9 317 36 317 102 L317 132 L317 132 Z " />
<glyph glyph-name="cacute" unicode="&#x107;" horiz-adv-x="391" d="M146 640 L198 640 L282 700 L195 700 L146 640 L146 640 Z M310 225 L229 225 L229 95 C229 75 206 61 172 61 C138 61 115 75 115 95 L115 504 C115 525 138 539 172 539 C206 539 229 524 229 501 L229 370 L310 370 L310 501 L310 548 L299 548 C286 572 263 590 233 600 C231 601 229 602 227 603 L227 603 C211 608 193 611 173 611 C90 611 35 568 35 502 L35 100 C35 35 90 -9 173 -9 C256 -9 311 35 311 101 L310 225 L310 225 Z " />
<glyph glyph-name="Ccaron" unicode="&#x10c;" horiz-adv-x="337" d="M317 132 L232 132 L232 91 C232 75 211 65 178 65 C147 65 126 73 126 85 L125 615 C124 627 146 635 178 635 C210 635 231 626 231 612 C231 598 232 580 232 566 L317 566 C317 576 318 588 318 598 L318 645 L307 645 C295 670 272 689 241 700 C239 701 237 702 235 703 C218 708 199 711 178 711 C95 711 40 668 40 603 L40 100 C39 35 95 -9 178 -9 C262 -9 317 36 317 102 L317 132 L317 132 Z M136 741 L70 795 L124 795 L179 765 L234 795 L288 795 L222 741 L136 741 L136 741 Z " />
<glyph glyph-name="ccaron" unicode="&#x10d;" horiz-adv-x="391" d="M310 225 L229 225 L229 95 C229 75 206 61 172 61 C138 61 115 75 115 95 L115 504 C115 525 138 539 172 539 C206 539 229 524 229 501 L229 370 L310 370 L310 501 L310 548 L299 548 C286 572 263 590 233 600 C231 601 229 602 227 603 L227 603 C211 608 193 611 173 611 C90 611 35 568 35 502 L35 100 C35 35 90 -9 173 -9 C256 -9 311 35 311 101 L310 225 L310 225 Z M130 641 L64 701 L118 701 L173 667 L228 701 L282 701 L216 641 L130 641 L130 641 Z " />
<glyph glyph-name="Dcaron" unicode="&#x10e;" horiz-adv-x="413" d="M187 740 L121 794 L175 794 L230 764 L285 794 L339 794 L273 740 L187 740 L187 740 Z M129 0 L172 0 L226 0 C314 0 373 42 373 105 L373 596 C373 658 314 700 226 700 L172 700 L129 700 L87 700 L40 700 L40 682 L40 664 L47 664 C71 664 87 641 87 607 L87 93 C87 59 71 36 47 36 L40 36 L40 18 L40 0 L87 0 L129 0 L129 0 Z M172 75 L172 625 L226 625 C263 625 288 612 288 593 L288 105 C288 87 263 75 226 75 L172 75 L172 75 Z " />
<glyph glyph-name="dcaron" unicode="&#x10f;" horiz-adv-x="392" d="M392 603 L445 700 L370 700 L350 603 L392 603 L392 603 Z M270 0 L310 0 L357 0 L357 18 L357 36 L350 36 C326 36 310 59 310 93 L310 700 L270 700 L229 700 L182 700 L182 682 L182 664 L189 664 C213 664 229 641 229 607 L229 562 C212 592 181 610 142 610 C77 610 34 567 34 501 L34 93 C34 31 77 -10 142 -10 C181 -10 212 12 229 48 L229 0 L270 0 L270 0 Z M229 112 C229 81 206 61 171 61 C137 61 115 81 115 112 L115 504 C115 525 138 539 172 539 C206 539 229 525 229 504 L229 112 L229 112 Z " />
<glyph glyph-name="Dcroat" unicode="&#x110;" horiz-adv-x="413" d="M36 349 L87 349 L87 93 C87 59 71 36 47 36 L40 36 L40 18 L40 0 L87 0 L129 0 L172 0 L226 0 C314 0 373 42 373 105 L373 596 C373 658 314 700 226 700 L172 700 L129 700 L87 700 L40 700 L40 682 L40 664 L47 664 C71 664 87 641 87 607 L87 399 L36 399 L36 349 L36 349 Z M288 399 L172 399 L172 625 L226 625 C263 625 288 612 288 593 L288 399 L288 399 Z M288 349 L288 105 C288 87 263 75 226 75 L172 75 L172 349 L288 349 L288 349 Z " />
<glyph glyph-name="dcroat" unicode="&#x111;" horiz-adv-x="392" d="M130 636 L224 636 C227 628 229 618 229 607 L229 562 C212 592 181 610 142 610 C77 610 34 567 34 501 L34 93 C34 31 77 -10 142 -10 C181 -10 212 12 229 48 L229 0 L270 0 L310 0 L357 0 L357 18 L357 36 L350 36 C326 36 310 59 310 93 L310 636 L386 636 L386 686 L310 686 L310 700 L270 700 L229 700 L182 700 L182 686 L130 686 L130 636 L130 636 Z M229 112 C229 81 206 61 171 61 C137 61 115 81 115 112 L115 504 C115 525 138 539 172 539 C206 539 229 525 229 504 L229 112 L229 112 Z " />
<glyph glyph-name="Emacron" unicode="&#x112;" horiz-adv-x="346" d="M64 742 L349 742 L349 796 L64 796 L64 742 L64 742 Z M326 40 L326 80 L326 127 C326 126 319 126 308 127 C297 126 290 126 290 127 L290 120 C290 96 270 80 239 79 L233 79 L172 79 L172 314 L183 314 C217 314 240 298 240 274 L240 267 L258 267 L276 267 L276 314 L276 354 L276 394 L276 441 L258 441 L240 441 L240 434 C240 410 217 394 183 394 L172 394 L172 619 L228 619 C262 619 285 603 285 579 L285 572 L303 572 L321 572 L321 619 L321 659 L321 699 L172 699 L129 699 L87 699 L40 699 L40 681 L40 663 L47 663 C71 663 87 640 87 606 L87 92 C87 58 71 35 47 35 L40 35 L40 17 L40 -1 L87 -1 L129 -1 L172 -1 L326 -1 L326 40 L326 40 Z " />
<glyph glyph-name="emacron" unicode="&#x113;" horiz-adv-x="345" d="M29 642 L315 642 L315 696 L29 696 L29 642 L29 642 Z M310 225 L229 225 L229 95 C229 75 206 61 172 61 C138 61 115 75 115 95 L115 310 L229 310 L310 310 L310 381 L310 501 C310 567 255 610 172 610 C89 610 34 567 34 501 L34 99 C34 34 89 -10 172 -10 C255 -10 310 34 310 100 L310 225 L310 225 Z M229 381 L115 381 L115 504 C115 525 138 539 172 539 C206 539 229 524 229 501 L229 381 L229 381 Z " />
<glyph glyph-name="Edot" unicode="&#x116;" horiz-adv-x="346" d="M163 729 L249 729 L249 815 L163 815 L163 729 L163 729 Z M326 40 L326 80 L326 127 C326 126 319 126 308 127 C297 126 290 126 290 127 L290 120 C290 96 270 80 239 79 L233 79 L172 79 L172 314 L183 314 C217 314 240 298 240 274 L240 267 L258 267 L276 267 L276 314 L276 354 L276 394 L276 441 L258 441 L240 441 L240 434 C240 410 217 394 183 394 L172 394 L172 619 L228 619 C262 619 285 603 285 579 L285 572 L303 572 L321 572 L321 619 L321 659 L321 699 L172 699 L129 699 L87 699 L40 699 L40 681 L40 663 L47 663 C71 663 87 640 87 606 L87 92 C87 58 71 35 47 35 L40 35 L40 17 L40 -1 L87 -1 L129 -1 L172 -1 L326 -1 L326 40 L326 40 Z " />
<glyph glyph-name="edot" unicode="&#x117;" horiz-adv-x="345" d="M129 629 L215 629 L215 700 L129 700 L129 629 L129 629 Z M310 225 L229 225 L229 95 C229 75 206 61 172 61 C138 61 115 75 115 95 L115 310 L229 310 L310 310 L310 381 L310 501 C310 567 255 610 172 610 C89 610 34 567 34 501 L34 99 C34 34 89 -10 172 -10 C255 -10 310 34 310 100 L310 225 L310 225 Z M229 381 L115 381 L115 504 C115 525 138 539 172 539 C206 539 229 524 229 501 L229 381 L229 381 Z " />
<glyph glyph-name="Eogonek" unicode="&#x118;" horiz-adv-x="346" d="M283 0 L326 0 L326 40 L326 80 L326 127 C326 126 319 126 308 127 C297 126 290 126 290 127 L290 120 C290 96 270 80 239 79 L233 79 L172 79 L172 314 L183 314 C217 314 240 298 240 274 L240 267 L258 267 L276 267 L276 314 L276 354 L276 394 L276 441 L258 441 L240 441 L240 434 C240 410 217 394 183 394 L172 394 L172 619 L228 619 C262 619 285 603 285 579 L285 572 L303 572 L321 572 L321 619 L321 659 L321 699 L172 699 L129 699 L87 699 L40 699 L40 681 L40 663 L47 663 C71 663 87 640 87 606 L87 92 C87 58 71 35 47 35 L40 35 L40 17 L40 -1 L87 -1 L129 -1 L172 -1 L244 -1 C229 -21 220 -40 220 -51 C220 -85 242 -108 284 -108 C329 -108 346 -88 346 -58 L301 -58 C301 -70 296 -78 282 -78 C270 -78 263 -69 263 -56 C263 -40 270 -19 282 -1 L283 0 L283 0 Z " />
<glyph glyph-name="eogonek" unicode="&#x119;" horiz-adv-x="345" d="M310 225 L229 225 L229 95 C229 75 206 61 172 61 C138 61 115 75 115 95 L115 310 L229 310 L310 310 L310 381 L310 501 C310 567 255 610 172 610 C89 610 34 567 34 501 L34 99 C34 34 89 -10 172 -10 C185 -10 197 -9 208 -7 C195 -25 187 -42 187 -52 C187 -86 209 -108 251 -108 C296 -108 314 -88 314 -58 L269 -58 C269 -70 264 -78 249 -78 C237 -78 230 -69 230 -56 C230 -36 242 -9 259 12 C291 31 309 62 309 100 L310 225 L310 225 Z M228 381 L114 381 L114 504 C114 525 137 539 171 539 C205 539 228 524 228 501 L228 381 L228 381 Z " />
<glyph glyph-name="Ecaron" unicode="&#x11a;" horiz-adv-x="346" d="M163 740 L98 800 L152 800 L206 766 L261 800 L315 800 L249 740 L163 740 L163 740 Z M326 40 L326 80 L326 127 C326 126 319 126 308 127 C297 126 290 126 290 127 L290 120 C290 96 270 80 239 79 L233 79 L172 79 L172 314 L183 314 C217 314 240 298 240 274 L240 267 L258 267 L276 267 L276 314 L276 354 L276 394 L276 441 L258 441 L240 441 L240 434 C240 410 217 394 183 394 L172 394 L172 619 L228 619 C262 619 285 603 285 579 L285 572 L303 572 L321 572 L321 619 L321 659 L321 699 L172 699 L129 699 L87 699 L40 699 L40 681 L40 663 L47 663 C71 663 87 640 87 606 L87 92 C87 58 71 35 47 35 L40 35 L40 17 L40 -1 L87 -1 L129 -1 L172 -1 L326 -1 L326 40 L326 40 Z " />
<glyph glyph-name="ecaron" unicode="&#x11b;" horiz-adv-x="345" d="M310 225 L229 225 L229 95 C229 75 206 61 172 61 C138 61 115 75 115 95 L115 310 L229 310 L310 310 L310 381 L310 501 C310 567 255 610 172 610 C89 610 34 567 34 501 L34 99 C34 34 89 -10 172 -10 C255 -10 310 34 310 100 L310 225 L310 225 Z M129 640 L63 700 L117 700 L172 666 L227 700 L281 700 L215 640 L129 640 L129 640 Z M229 381 L115 381 L115 504 C115 525 138 539 172 539 C206 539 229 524 229 501 L229 381 L229 381 Z " />
<glyph glyph-name="Gbreve" unicode="&#x11e;" horiz-adv-x="357" d="M128 815 L75 815 C75 761 104 740 178 740 C244 740 269 761 269 815 L216 815 C216 793 205 785 178 785 C142 785 128 793 128 815 L128 815 Z M296 329 L232 329 L192 329 L192 254 L232 254 L232 91 C232 75 211 65 178 65 C147 65 126 73 126 85 L125 615 C124 627 146 635 178 635 C210 635 231 626 231 612 C231 598 232 580 232 566 L317 566 C317 576 318 588 318 598 L318 645 L307 645 C295 670 272 689 241 700 C239 701 237 702 235 703 C218 708 199 711 178 711 C95 711 40 668 40 603 L40 100 C39 35 95 -9 178 -9 C217 -9 250 1 274 18 C287 5 307 -4 331 -6 L339 2 C326 3 318 43 318 102 L318 330 L296 329 L296 329 Z " />
<glyph glyph-name="gbreve" unicode="&#x11f;" horiz-adv-x="391" d="M121 715 L69 715 C69 661 98 640 172 640 C237 640 262 661 262 715 L210 715 C210 693 199 685 172 685 C135 685 121 693 121 715 L121 715 Z M269 600 L228 600 L228 564 C210 593 180 610 142 610 C76 610 33 567 33 501 L33 151 C33 92 76 53 142 53 C181 53 212 73 229 107 L229 17 C229 -11 206 -30 171 -30 C137 -30 115 -13 115 14 L114 38 L33 38 L33 27 C33 -49 88 -100 171 -100 C254 -100 309 -48 309 30 L310 507 L310 507 C309 541 325 564 349 564 L356 564 L356 582 L356 600 L310 600 L269 600 L269 600 Z M228 163 C224 139 202 124 169 124 C136 124 113 142 113 170 L113 504 C113 525 136 539 171 539 C200 539 221 528 227 511 L228 163 L228 163 Z " />
<glyph glyph-name="Imacron" unicode="&#x12a;" horiz-adv-x="258" d="M-14 742 L272 742 L272 796 L-14 796 L-14 742 L-14 742 Z M129 0 L172 0 L219 0 L219 18 L219 36 L212 36 C188 36 172 59 172 93 L172 607 C172 641 188 664 212 664 L219 664 L219 682 L219 700 L172 700 L129 700 L86 700 L39 700 L39 682 L39 664 L46 664 C70 664 86 641 86 607 L86 93 C86 59 70 36 46 36 L39 36 L39 18 L39 0 L86 0 L129 0 L129 0 Z " />
<glyph glyph-name="imacron" unicode="&#x12b;" horiz-adv-x="245" d="M-20 642 L265 642 L265 696 L-20 696 L-20 642 L-20 642 Z M123 0 L163 0 L210 0 L210 18 L210 36 L203 36 C179 36 163 59 163 93 L163 600 L123 600 L82 600 L35 600 L35 582 L35 564 L42 564 C66 564 82 541 82 507 L82 93 C82 59 66 36 42 36 L35 36 L35 18 L35 0 L82 0 L123 0 L123 0 Z " />
<glyph glyph-name="Iogonek" unicode="&#x12e;" horiz-adv-x="258" d="M152 0 L172 0 L219 0 L219 18 L219 36 L212 36 C188 36 172 59 172 93 L172 607 C172 641 188 664 212 664 L219 664 L219 682 L219 700 L172 700 L129 700 L86 700 L39 700 L39 682 L39 664 L46 664 C70 664 86 641 86 607 L86 93 C86 59 70 36 46 36 L39 36 L39 18 L39 0 L86 0 L113 0 C98 -20 89 -39 89 -50 C89 -84 111 -107 153 -107 C198 -107 216 -87 216 -57 L171 -57 C171 -69 166 -77 152 -77 C139 -77 133 -68 133 -55 C133 -39 140 -18 152 0 L152 0 Z " />
<glyph glyph-name="iogonek" unicode="&#x12f;" horiz-adv-x="245" d="M79 633 L166 633 L166 700 L79 700 L79 633 L79 633 Z M145 0 L163 0 L210 0 L210 18 L210 36 L203 36 C179 36 163 59 163 93 L163 600 L123 600 L82 600 L35 600 L35 582 L35 564 L42 564 C66 564 82 541 82 507 L82 93 C82 59 66 36 42 36 L35 36 L35 18 L35 0 L82 0 L107 0 C92 -20 83 -39 83 -50 C83 -84 105 -107 147 -107 C192 -107 210 -87 210 -57 L165 -57 C165 -69 159 -77 145 -77 C133 -77 126 -68 126 -55 C126 -39 133 -18 145 0 L145 0 Z " />
<glyph glyph-name="Idot" unicode="&#x130;" horiz-adv-x="258" d="M86 729 L172 729 L172 815 L86 815 L86 729 L86 729 Z M129 0 L172 0 L219 0 L219 18 L219 36 L212 36 C188 36 172 59 172 93 L172 607 C172 641 188 664 212 664 L219 664 L219 682 L219 700 L172 700 L129 700 L86 700 L39 700 L39 682 L39 664 L46 664 C70 664 86 641 86 607 L86 93 C86 59 70 36 46 36 L39 36 L39 18 L39 0 L86 0 L129 0 L129 0 Z " />
<glyph glyph-name="dotlessi" unicode="&#x131;" horiz-adv-x="245" d="M123 0 L163 0 L210 0 L210 18 L210 36 L203 36 C179 36 163 59 163 93 L163 600 L123 600 L82 600 L35 600 L35 582 L35 564 L42 564 C66 564 82 541 82 507 L82 93 C82 59 66 36 42 36 L35 36 L35 18 L35 0 L82 0 L123 0 L123 0 Z " />
<glyph glyph-name="Jcircumflex" unicode="&#x134;" horiz-adv-x="370" d="M202 607 L202 607 L203 90 C203 75 181 65 148 65 C116 65 95 73 94 84 L94 143 L8 143 L8 95 C7 32 63 -10 146 -10 C229 -10 284 32 284 96 L284 607 L284 613 C285 644 301 664 325 664 L332 664 C331 664 331 671 332 682 C331 693 331 700 332 700 L285 700 L244 700 L203 700 L157 700 L157 682 L157 664 L164 664 C187 664 203 641 203 607 L202 607 L202 607 Z M201 800 L135 740 L189 740 L244 774 L299 740 L353 740 L287 800 L201 800 L201 800 Z " />
<glyph glyph-name="Lacute" unicode="&#x139;" horiz-adv-x="326" d="M103 740 L156 740 L239 794 L152 794 L103 740 L103 740 Z M311 40 L311 80 L311 127 C311 126 304 126 293 127 C282 126 275 126 275 127 L275 120 C275 96 255 80 224 79 L218 79 L172 79 L172 606 C172 640 188 663 212 663 L219 663 L219 681 L219 699 L172 699 L129 699 L87 699 L40 699 L40 681 L40 663 L47 663 C71 663 87 640 87 606 L87 92 C87 58 71 35 47 35 L40 35 L40 17 L40 -1 L87 -1 L129 -1 L172 -1 L311 -1 L311 40 L311 40 Z " />
<glyph glyph-name="lacute" unicode="&#x13a;" horiz-adv-x="245" d="M96 740 L149 740 L232 800 L145 800 L96 740 L96 740 Z M123 0 L163 0 L210 0 L210 18 L210 36 L203 36 C179 36 163 59 163 93 L163 700 L123 700 L82 700 L35 700 L35 682 L35 664 L42 664 C66 664 82 641 82 607 L82 93 C82 59 66 36 42 36 L35 36 L35 18 L35 0 L82 0 L123 0 L123 0 Z " />
<glyph glyph-name="Lcaron" unicode="&#x13d;" horiz-adv-x="326" d="M254 603 L307 700 L232 700 L212 603 L254 603 L254 603 Z M311 40 L311 80 L311 127 C311 126 304 126 293 127 C282 126 275 126 275 127 L275 120 C275 96 255 80 224 79 L218 79 L172 79 L172 606 C172 640 188 663 212 663 L219 663 L219 681 L219 699 L172 699 L129 699 L87 699 L40 699 L40 681 L40 663 L47 663 C71 663 87 640 87 606 L87 92 C87 58 71 35 47 35 L40 35 L40 17 L40 -1 L87 -1 L129 -1 L172 -1 L311 -1 L311 40 L311 40 Z " />
<glyph glyph-name="lcaron" unicode="&#x13e;" horiz-adv-x="245" d="M253 603 L306 700 L231 700 L211 603 L253 603 L253 603 Z M123 0 L163 0 L210 0 L210 18 L210 36 L203 36 C179 36 163 59 163 93 L163 700 L123 700 L82 700 L35 700 L35 682 L35 664 L42 664 C66 664 82 641 82 607 L82 93 C82 59 66 36 42 36 L35 36 L35 18 L35 0 L82 0 L123 0 L123 0 Z " />
<glyph glyph-name="Nacute" unicode="&#x143;" horiz-adv-x="462" d="M206 740 L258 740 L342 800 L255 800 L206 740 L206 740 Z M338 700 L301 700 L254 700 C255 700 255 693 254 682 C255 671 255 664 254 664 L262 664 C285 664 300 644 301 613 L301 607 L301 215 L188 700 L164 700 L127 700 L115 700 L89 700 L42 700 L42 682 L42 664 L49 664 C73 664 89 641 89 607 L89 93 C89 59 73 36 49 36 L42 36 L42 18 L42 0 L89 0 L127 0 L164 0 L211 0 L211 18 L211 36 L204 36 C180 36 164 59 164 93 L164 490 L278 0 L301 0 L351 0 L375 0 L375 607 C375 641 391 664 415 664 L422 664 L422 682 L422 700 L375 700 L338 700 L338 700 Z " />
<glyph glyph-name="nacute" unicode="&#x144;" horiz-adv-x="438" d="M193 640 L245 640 L329 700 L242 700 L193 640 L193 640 Z M316 0 L357 0 L404 0 L404 18 L404 36 L397 36 C373 36 357 59 357 93 L357 507 C357 569 313 610 246 610 C210 610 181 595 163 569 L163 601 L123 601 L82 601 L35 601 L35 583 L35 565 L42 565 C66 565 82 542 82 508 L82 94 C82 60 66 37 42 37 L35 37 L35 19 L35 1 L82 1 L123 1 L163 1 L210 1 L210 19 L210 37 L203 37 C179 37 164 60 163 94 L163 491 C163 520 186 539 220 539 C254 539 277 519 277 489 L277 94 C277 60 261 37 237 37 L230 37 L230 19 L230 1 L277 1 L316 0 L316 0 Z " />
<glyph glyph-name="Ncaron" unicode="&#x147;" horiz-adv-x="462" d="M189 740 L123 800 L177 800 L232 766 L287 800 L341 800 L275 740 L189 740 L189 740 Z M338 700 L301 700 L254 700 C255 700 255 693 254 682 C255 671 255 664 254 664 L262 664 C285 664 300 644 301 613 L301 607 L301 215 L188 700 L164 700 L127 700 L115 700 L89 700 L42 700 L42 682 L42 664 L49 664 C73 664 89 641 89 607 L89 93 C89 59 73 36 49 36 L42 36 L42 18 L42 0 L89 0 L127 0 L164 0 L211 0 L211 18 L211 36 L204 36 C180 36 164 59 164 93 L164 490 L278 0 L301 0 L351 0 L375 0 L375 607 C375 641 391 664 415 664 L422 664 L422 682 L422 700 L375 700 L338 700 L338 700 Z " />
<glyph glyph-name="ncaron" unicode="&#x148;" horiz-adv-x="438" d="M176 640 L110 700 L164 700 L219 666 L274 700 L328 700 L262 640 L176 640 L176 640 Z M316 0 L357 0 L404 0 L404 18 L404 36 L397 36 C373 36 357 59 357 93 L357 507 C357 569 313 610 246 610 C210 610 181 595 163 569 L163 601 L123 601 L82 601 L35 601 L35 583 L35 565 L42 565 C66 565 82 542 82 508 L82 94 C82 60 66 37 42 37 L35 37 L35 19 L35 1 L82 1 L123 1 L163 1 L210 1 L210 19 L210 37 L203 37 C179 37 164 60 163 94 L163 491 C163 520 186 539 220 539 C254 539 277 519 277 489 L277 94 C277 60 261 37 237 37 L230 37 L230 19 L230 1 L277 1 L316 0 L316 0 Z " />
<glyph glyph-name="Omacron" unicode="&#x14c;" horiz-adv-x="355" d="M34 742 L319 742 L319 796 L34 796 L34 742 L34 742 Z M229 616 L229 84 C229 72 208 65 177 65 C145 65 124 72 124 84 L124 616 C124 628 145 635 177 635 C208 635 229 628 229 616 L229 616 Z M315 99 L315 601 C315 666 260 710 177 710 C93 710 38 666 38 601 L38 99 C38 34 93 -10 177 -10 C260 -10 315 34 315 99 L315 99 Z " />
<glyph glyph-name="omacron" unicode="&#x14d;" horiz-adv-x="345" d="M30 642 L315 642 L315 696 L30 696 L30 642 L30 642 Z M230 513 L230 87 C230 72 207 61 172 61 C137 61 114 72 114 87 L114 513 C114 528 137 539 172 539 C207 539 230 528 230 513 L230 513 Z M310 102 L310 498 C310 565 255 610 172 610 C90 610 35 565 35 498 L35 102 C35 35 90 -10 172 -10 C255 -10 310 35 310 102 L310 102 Z " />
<glyph glyph-name="Obreve" unicode="&#x14e;" horiz-adv-x="355" d="M126 815 L73 815 C73 761 102 740 177 740 C242 740 267 761 267 815 L214 815 C214 793 204 785 177 785 C140 785 126 793 126 815 L126 815 Z M229 616 L229 84 C229 72 208 65 177 65 C145 65 124 72 124 84 L124 616 C124 628 145 635 177 635 C208 635 229 628 229 616 L229 616 Z M315 99 L315 601 C315 666 260 710 177 710 C93 710 38 666 38 601 L38 99 C38 34 93 -10 177 -10 C260 -10 315 34 315 99 L315 99 Z " />
<glyph glyph-name="obreve" unicode="&#x14f;" horiz-adv-x="345" d="M121 715 L69 715 C69 661 98 640 172 640 C238 640 263 661 263 715 L210 715 C210 693 199 685 172 685 C135 685 121 693 121 715 L121 715 Z M230 513 L230 87 C230 72 207 61 172 61 C137 61 114 72 114 87 L114 513 C114 528 137 539 172 539 C207 539 230 528 230 513 L230 513 Z M310 102 L310 498 C310 565 255 610 172 610 C90 610 35 565 35 498 L35 102 C35 35 90 -10 172 -10 C255 -10 310 35 310 102 L310 102 Z " />
<glyph glyph-name="Racute" unicode="&#x154;" horiz-adv-x="460" d="M204 740 L256 740 L340 794 L253 794 L204 740 L204 740 Z M288 93 C288 59 272 36 248 36 L241 36 L241 18 L241 0 L288 0 L331 0 L373 0 L420 0 L420 18 L420 36 L413 36 C389 36 373 59 373 93 L373 268 C373 296 360 320 337 337 C360 365 373 404 373 451 L373 596 C373 658 318 700 234 700 L172 700 L129 700 L87 700 L40 700 L40 682 L40 664 L47 664 C71 664 87 641 87 607 L87 93 C87 59 71 36 47 36 L40 36 L40 18 L40 0 L87 0 L129 0 L172 0 L219 0 L219 18 L219 36 L212 36 C188 36 172 59 172 93 L172 290 L234 290 L236 290 C267 290 288 280 288 265 L288 93 L288 93 Z M234 365 L172 365 L172 625 L234 625 C267 625 288 612 288 593 L288 451 C288 399 267 365 234 365 L234 365 Z " />
<glyph glyph-name="racute" unicode="&#x155;" horiz-adv-x="357" d="M188 640 L241 640 L324 700 L237 700 L188 640 L188 640 Z M267 411 L348 411 L348 507 C348 569 306 610 242 610 C208 610 180 595 162 569 L162 600 L122 600 L81 600 L34 600 L34 582 L34 564 L41 564 C65 564 81 541 81 507 L81 93 C81 59 65 36 41 36 L34 36 L34 18 L34 0 L81 0 L122 0 L162 0 L209 0 C210 0 210 7 209 18 C210 29 210 36 209 36 L202 36 C179 36 163 59 162 93 L162 490 C162 519 183 538 214 538 C247 538 268 518 267 488 L267 411 L267 411 Z " />
<glyph glyph-name="Rcaron" unicode="&#x158;" horiz-adv-x="460" d="M187 740 L121 794 L175 794 L230 764 L285 794 L339 794 L273 740 L187 740 L187 740 Z M288 93 C288 59 272 36 248 36 L241 36 L241 18 L241 0 L288 0 L331 0 L373 0 L420 0 L420 18 L420 36 L413 36 C389 36 373 59 373 93 L373 268 C373 296 360 320 337 337 C360 365 373 404 373 451 L373 596 C373 658 318 700 234 700 L172 700 L129 700 L87 700 L40 700 L40 682 L40 664 L47 664 C71 664 87 641 87 607 L87 93 C87 59 71 36 47 36 L40 36 L40 18 L40 0 L87 0 L129 0 L172 0 L219 0 L219 18 L219 36 L212 36 C188 36 172 59 172 93 L172 290 L234 290 L236 290 C267 290 288 280 288 265 L288 93 L288 93 Z M234 365 L172 365 L172 625 L234 625 C267 625 288 612 288 593 L288 451 C288 399 267 365 234 365 L234 365 Z " />
<glyph glyph-name="rcaron" unicode="&#x159;" horiz-adv-x="357" d="M267 411 L348 411 L348 507 C348 569 306 610 242 610 C208 610 180 595 162 569 L162 600 L122 600 L81 600 L34 600 L34 582 L34 564 L41 564 C65 564 81 541 81 507 L81 93 C81 59 65 36 41 36 L34 36 L34 18 L34 0 L81 0 L122 0 L162 0 L209 0 C210 0 210 7 209 18 C210 29 210 36 209 36 L202 36 C179 36 163 59 162 93 L162 490 C162 519 183 538 214 538 C247 538 268 518 267 488 L267 411 L267 411 Z M172 640 L106 700 L160 700 L215 666 L270 700 L324 700 L258 640 L172 640 L172 640 Z " />
<glyph glyph-name="Sacute" unicode="&#x15a;" horiz-adv-x="324" d="M135 740 L188 740 L271 794 L184 794 L135 740 L135 740 Z M23 133 L23 89 L23 42 L37 42 C58 10 103 -10 161 -10 C243 -10 298 40 298 115 C298 191 264 289 199 382 C139 466 109 540 109 601 C109 621 130 635 162 635 C193 635 214 625 214 611 L214 573 L300 573 L300 611 L300 658 L286 658 C265 690 220 710 162 710 C79 710 24 661 24 588 C24 508 58 419 124 326 C182 244 212 161 212 100 C212 79 191 65 161 65 C130 65 109 75 109 89 L109 133 L23 133 L23 133 Z " />
<glyph glyph-name="sacute" unicode="&#x15b;" horiz-adv-x="312" d="M130 640 L183 640 L267 700 L179 700 L130 640 L130 640 Z M19 195 L19 93 L19 46 L31 46 C52 11 97 -10 156 -10 C238 -10 293 42 293 121 C293 177 257 254 186 330 C131 389 102 446 102 497 C102 522 124 539 157 539 C190 539 212 526 212 507 L212 414 L293 414 L293 507 L293 554 L281 554 C261 589 217 610 158 610 C76 610 21 560 21 484 C21 419 57 346 128 270 C185 209 214 149 214 106 C214 79 191 61 157 61 C123 61 101 74 101 93 L101 195 L19 195 L19 195 Z " />
<glyph glyph-name="Scaron" unicode="&#x160;" horiz-adv-x="324" d="M23 133 L23 89 L23 42 L37 42 C58 10 103 -10 161 -10 C243 -10 298 40 298 115 C298 191 264 289 199 382 C139 466 109 540 109 601 C109 621 130 635 162 635 C193 635 214 625 214 611 L214 573 L300 573 L300 611 L300 658 L286 658 C265 690 220 710 162 710 C79 710 24 661 24 588 C24 508 58 419 124 326 C182 244 212 161 212 100 C212 79 191 65 161 65 C130 65 109 75 109 89 L109 133 L23 133 L23 133 Z M119 740 L53 794 L107 794 L162 764 L217 794 L271 794 L205 740 L119 740 L119 740 Z " />
<glyph glyph-name="scaron" unicode="&#x161;" horiz-adv-x="312" d="M19 195 L19 93 L19 46 L31 46 C52 11 97 -10 156 -10 C238 -10 293 42 293 121 C293 177 257 254 186 330 C131 389 102 446 102 497 C102 522 124 539 157 539 C190 539 212 526 212 507 L212 414 L293 414 L293 507 L293 554 L281 554 C261 589 217 610 158 610 C76 610 21 560 21 484 C21 419 57 346 128 270 C185 209 214 149 214 106 C214 79 191 61 157 61 C123 61 101 74 101 93 L101 195 L19 195 L19 195 Z M115 640 L49 700 L103 700 L158 666 L212 700 L267 700 L201 640 L115 640 L115 640 Z " />
<glyph glyph-name="Tcaron" unicode="&#x164;" horiz-adv-x="309" d="M112 740 L46 794 L100 794 L155 764 L209 794 L264 794 L198 740 L112 740 L112 740 Z M155 0 L198 0 L245 0 C244 0 244 7 245 18 C244 29 244 36 245 36 L237 36 C214 36 199 56 198 87 L198 93 L198 625 L211 625 C246 625 269 609 269 585 L269 578 L287 578 L304 578 L304 625 L304 662 L304 700 L198 700 L112 700 L5 700 L5 662 L5 625 L5 578 L23 578 L41 578 L41 585 C41 609 64 625 98 625 L112 625 L112 93 C112 59 96 36 72 36 L65 36 L65 18 L65 0 L112 0 L155 0 L155 0 Z " />
<glyph glyph-name="tcaron" unicode="&#x165;" horiz-adv-x="358" d="M229 653 L283 750 L207 750 L187 653 L229 653 L229 653 Z M349 215 L267 215 L268 95 C268 75 247 61 216 61 C185 61 164 75 164 95 L164 525 L317 525 L317 600 L164 600 L164 640 L164 710 L138 710 C138 668 116 640 83 640 L83 600 L5 600 L5 525 L83 525 L83 99 C83 34 136 -10 216 -10 C295 -10 348 34 348 100 L349 215 L349 215 Z " />
<glyph glyph-name="Umacron" unicode="&#x16a;" horiz-adv-x="448" d="M81 742 L366 742 L366 796 L81 796 L81 742 L81 742 Z M319 700 L276 700 L234 700 L234 682 L234 664 L240 664 C262 664 276 641 276 607 L276 84 C276 72 255 65 224 65 C192 65 171 72 171 84 L171 607 C171 641 185 664 207 664 L214 664 L214 682 L214 700 L171 700 L128 700 L85 700 L38 700 L38 682 L38 664 L45 664 C69 664 85 641 85 607 L85 99 C85 34 140 -10 224 -10 C307 -10 362 34 362 99 L362 607 C362 641 378 664 402 664 L409 664 L409 682 L409 700 L362 700 L319 700 L319 700 Z " />
<glyph glyph-name="umacron" unicode="&#x16b;" horiz-adv-x="439" d="M76 642 L362 642 L362 696 L76 696 L76 642 L76 642 Z M317 0 L357 0 L404 0 L404 18 L404 36 L397 36 C373 36 357 59 357 93 L357 600 L317 600 L276 600 L229 600 L229 582 L229 564 L236 564 C260 564 276 541 276 507 L276 112 C276 81 253 61 218 61 C184 61 162 81 162 112 L162 600 L122 600 L81 600 L34 600 L34 582 L34 564 L41 564 C65 564 81 541 81 507 L81 93 C81 31 124 -10 189 -10 C228 -10 259 12 276 48 L276 0 L317 0 L317 0 Z " />
<glyph glyph-name="Uring" unicode="&#x16e;" horiz-adv-x="448" d="M224 770 C215 770 210 772 210 776 C210 779 215 781 224 781 C232 781 237 779 237 775 C237 772 232 770 224 770 L224 770 Z M172 775 C172 755 193 741 224 741 C254 741 275 755 275 776 C275 796 254 810 224 810 C193 810 172 796 172 775 L172 775 Z M319 700 L276 700 L234 700 L234 682 L234 664 L240 664 C262 664 276 641 276 607 L276 84 C276 72 255 65 224 65 C192 65 171 72 171 84 L171 607 C171 641 185 664 207 664 L214 664 L214 682 L214 700 L171 700 L128 700 L85 700 L38 700 L38 682 L38 664 L45 664 C69 664 85 641 85 607 L85 99 C85 34 140 -10 224 -10 C307 -10 362 34 362 99 L362 607 C362 641 378 664 402 664 L409 664 L409 682 L409 700 L362 700 L319 700 L319 700 Z " />
<glyph glyph-name="uring" unicode="&#x16f;" horiz-adv-x="439" d="M219 669 C211 669 205 671 205 675 C205 678 211 680 219 680 C227 680 233 678 233 674 C233 671 227 669 219 669 L219 669 Z M168 674 C168 654 188 640 219 640 C250 640 271 654 271 675 C271 695 250 709 219 709 C188 709 168 695 168 674 L168 674 Z M317 0 L357 0 L404 0 L404 18 L404 36 L397 36 C373 36 357 59 357 93 L357 600 L317 600 L276 600 L229 600 L229 582 L229 564 L236 564 C260 564 276 541 276 507 L276 112 C276 81 253 61 218 61 C184 61 162 81 162 112 L162 600 L122 600 L81 600 L34 600 L34 582 L34 564 L41 564 C65 564 81 541 81 507 L81 93 C81 31 124 -10 189 -10 C228 -10 259 12 276 48 L276 0 L317 0 L317 0 Z " />
<glyph glyph-name="Ydieresis" unicode="&#x178;" horiz-adv-x="473" d="M251 740 L326 740 L326 815 L251 815 L251 740 L251 740 Z M145 740 L220 740 L220 815 L145 815 L145 740 L145 740 Z M282 607 L283 607 L238 389 L190 607 L191 607 C183 641 191 664 211 664 L217 664 L217 682 L217 700 L170 700 L125 700 L80 700 L43 700 L43 682 L43 664 L50 664 C74 664 96 641 106 607 L106 607 L195 296 L195 93 C195 59 179 36 155 36 L148 36 L148 18 L148 0 L195 0 L237 0 L280 0 L327 0 L327 18 L327 36 L320 36 C296 36 280 59 280 93 L280 296 L367 607 L367 607 C377 641 399 664 423 664 L430 664 L430 682 L430 700 L393 700 L348 700 L303 700 L256 700 L256 682 L256 664 L262 664 C282 664 291 641 283 607 L282 607 L282 607 Z " />
<glyph glyph-name="Zacute" unicode="&#x179;" horiz-adv-x="335" d="M141 740 L194 740 L277 794 L190 794 L141 740 L141 740 Z M13 700 L13 662 L13 625 L14 625 C14 609 14 592 13 578 L31 578 L49 578 L49 585 C49 609 72 625 106 625 L220 625 L21 75 L13 54 L13 0 L21 0 L314 0 L314 38 L314 75 L314 122 L296 122 L278 122 L278 115 C278 91 255 75 221 75 L111 75 L310 625 L313 633 L313 700 L310 700 L13 700 L13 700 Z " />
<glyph glyph-name="zacute" unicode="&#x17a;" horiz-adv-x="320" d="M129 640 L181 640 L265 700 L177 700 L129 640 L129 640 Z M5 600 L5 565 L5 529 L5 482 L23 482 L41 482 L41 489 C41 513 64 529 98 529 L216 529 L13 71 L5 53 L5 0 L13 0 L306 0 L306 35 L306 71 L306 118 C306 117 299 117 288 118 C277 117 270 117 270 118 L270 111 C270 87 250 71 219 70 L213 70 L98 70 L302 528 L305 535 L305 599 L302 599 L5 600 L5 600 Z " />
<glyph glyph-name="Zdot" unicode="&#x17b;" horiz-adv-x="335" d="M77 740 L257 740 L257 920 L77 920 L77 740 L77 740 Z M13 700 L13 662 L13 625 L14 625 C14 609 14 592 13 578 L31 578 L49 578 L49 585 C49 609 72 625 106 625 L220 625 L21 75 L13 54 L13 0 L21 0 L314 0 L314 38 L314 75 L314 122 L296 122 L278 122 L278 115 C278 91 255 75 221 75 L111 75 L310 625 L313 633 L313 700 L310 700 L13 700 L13 700 Z " />
<glyph glyph-name="zdot" unicode="&#x17c;" horiz-adv-x="320" d="M112 629 L198 629 L198 700 L112 700 L112 629 L112 629 Z M5 600 L5 565 L5 529 L5 482 L23 482 L41 482 L41 489 C41 513 64 529 98 529 L216 529 L13 71 L5 53 L5 0 L13 0 L306 0 L306 35 L306 71 L306 118 C306 117 299 117 288 118 C277 117 270 117 270 118 L270 111 C270 87 250 71 219 70 L213 70 L98 70 L302 528 L305 535 L305 599 L302 599 L5 600 L5 600 Z " />
<glyph glyph-name="Zcaron" unicode="&#x17d;" horiz-adv-x="335" d="M13 700 L13 662 L13 625 L14 625 C14 609 14 592 13 578 L31 578 L49 578 L49 585 C49 609 72 625 106 625 L220 625 L21 75 L13 54 L13 0 L21 0 L314 0 L314 38 L314 75 L314 122 L296 122 L278 122 L278 115 C278 91 255 75 221 75 L111 75 L310 625 L313 633 L313 700 L310 700 L13 700 L13 700 Z M139 740 L74 794 L128 794 L182 764 L237 794 L291 794 L225 740 L139 740 L139 740 Z " />
<glyph glyph-name="zcaron" unicode="&#x17e;" horiz-adv-x="320" d="M5 600 L5 565 L5 529 L5 482 L23 482 L41 482 L41 489 C41 513 64 529 98 529 L216 529 L13 71 L5 53 L5 0 L13 0 L306 0 L306 35 L306 71 L306 118 C306 117 299 117 288 118 C277 117 270 117 270 118 L270 111 C270 87 250 71 219 70 L213 70 L98 70 L302 528 L305 535 L305 599 L302 599 L5 600 L5 600 Z M112 639 L46 699 L100 699 L155 665 L209 699 L264 699 L198 639 L112 639 L112 639 Z " />
<glyph glyph-name="oogonek" unicode="&#x1eb;" horiz-adv-x="305" d="M183 555 L183 85 C183 69 170 58 149 58 C129 58 116 69 116 85 L116 555 C116 571 129 582 149 582 C170 582 183 571 183 555 L183 555 Z M216 9 C233 -2 255 -11 280 -17 L285 -15 C271 8 261 54 261 99 L261 543 C261 608 216 651 149 651 C83 651 38 608 38 543 L38 99 C38 34 83 -9 149 -9 C175 -9 198 -2 216 10 L216 9 L216 9 Z " />
<glyph glyph-name="oslashacute" unicode="&#x1ff;" horiz-adv-x="345" d="M146 640 L199 640 L282 700 L195 700 L146 640 L146 640 Z M230 513 L230 472 L114 210 L114 512 C114 527 137 538 172 538 C207 538 230 527 230 512 L230 513 L230 513 Z M310 101 L310 497 C310 514 306 530 299 544 L328 610 L290 610 L275 576 C251 598 215 610 171 610 C89 610 34 565 34 498 L34 102 C34 85 38 69 45 55 L16 -11 L53 -11 L68 24 C92 2 128 -11 172 -11 C255 -11 310 34 310 101 L310 101 Z M230 387 L230 86 C230 71 207 60 172 60 C137 60 114 71 114 86 L114 126 L230 387 L230 387 Z " />
<glyph glyph-name="G_sc" unicode="&#x262;" horiz-adv-x="302" d="M244 301 L186 301 L151 301 L151 233 L186 233 L186 91 C186 71 172 58 151 58 C131 58 117 69 117 86 L116 554 C116 571 130 582 151 582 C172 582 186 570 186 551 L186 507 L263 507 L263 539 L263 586 L254 586 C238 626 200 650 150 650 C83 650 39 607 39 542 L39 98 C38 33 83 -10 150 -10 C182 -10 209 0 228 18 C239 7 255 -2 275 -7 L282 0 C270 3 262 43 262 100 L262 301 L244 301 L244 301 Z " />
<glyph glyph-name="I_sc" unicode="&#x26a;" horiz-adv-x="250" d="M125 0 L163 0 L210 0 C211 0 211 7 210 18 C211 29 211 36 210 36 L203 36 C180 36 164 59 163 93 L163 547 C164 581 180 604 203 604 L210 604 C211 604 211 611 210 622 C211 633 211 640 210 640 L163 640 L125 640 L86 640 L39 640 L39 622 L39 604 L46 604 C70 604 86 581 86 547 L86 93 C86 59 70 36 46 36 L39 36 L39 18 L39 0 L86 0 L125 0 L125 0 Z " />
<glyph glyph-name="N_sc" unicode="&#x274;" horiz-adv-x="407" d="M288 640 L254 640 L207 640 C208 640 208 633 207 622 C208 611 208 604 207 604 L214 604 C238 604 254 584 255 553 L255 547 L255 229 L183 640 L158 640 L124 640 L118 640 L90 640 L43 640 L43 622 L43 604 L50 604 C74 604 90 581 90 547 L90 93 C90 59 74 36 50 36 L43 36 L43 18 L43 0 L90 0 L124 0 L158 0 L205 0 L205 18 L205 36 L198 36 C174 36 158 59 158 93 L158 411 L230 0 L255 0 L295 0 L322 0 L322 547 L322 553 C323 584 339 604 363 604 L370 604 C369 604 369 611 370 622 C369 633 369 640 370 640 L323 640 L288 640 L288 640 Z " />
<glyph glyph-name="R_sc" unicode="&#x280;" horiz-adv-x="405" d="M242 93 C242 59 232 36 217 36 L213 36 L213 18 L213 0 L242 0 L280 0 L319 0 L366 0 L366 18 L366 36 L359 36 C335 36 319 59 319 93 L319 247 C319 273 308 295 289 311 C308 337 319 373 319 416 L319 546 C319 603 274 641 206 641 L164 641 L125 641 L87 641 L40 641 L40 623 L40 605 L47 605 C71 605 87 582 87 548 L87 94 C87 60 71 37 47 37 L40 37 L40 19 L40 1 L87 1 L125 1 L164 1 L193 1 L193 19 L193 37 L188 37 C173 37 164 60 164 94 L164 269 L206 269 L207 269 C228 269 242 259 242 245 L242 93 L242 93 Z M206 337 L164 337 L164 573 L206 573 C228 573 242 561 242 543 L242 416 C242 368 228 337 206 337 L206 337 Z " />
<glyph glyph-name="Y_sc" unicode="&#x28f;" horiz-adv-x="419" d="M102 547 L102 547 L171 271 L171 93 C171 59 155 36 131 36 L124 36 L124 18 L124 0 L171 0 L209 0 L248 0 L295 0 L295 18 L295 36 L288 36 C264 36 248 59 248 93 L248 271 L315 547 L315 547 C323 581 345 604 369 604 L376 604 L376 622 L376 640 L337 640 L297 640 L256 640 L218 640 L218 622 L218 604 L223 604 C238 604 245 584 241 554 L210 374 L178 547 L179 547 C172 581 179 604 195 604 L199 604 L199 622 L199 640 L161 640 L121 640 L80 640 L42 640 L42 622 L42 604 L49 604 C73 604 95 581 103 547 L102 547 L102 547 Z " />
<glyph glyph-name="B_sc" unicode="&#x299;" horiz-adv-x="359" d="M197 354 L164 354 L164 572 L197 572 C220 572 235 560 235 542 L235 401 C235 373 220 354 197 354 L197 354 Z M279 336 C300 356 312 385 312 421 L312 545 C312 602 266 640 197 640 L164 640 L125 640 L87 640 L40 640 L40 622 L40 604 L47 604 C71 604 87 581 87 547 L87 93 C87 59 71 36 47 36 L40 36 L40 18 L40 0 L87 0 L125 0 L164 0 L207 0 C274 0 319 38 319 96 L319 265 C319 295 304 320 279 336 L279 336 Z M164 68 L164 286 L207 286 C228 286 242 276 242 262 L242 96 C242 79 228 68 207 68 L164 68 L164 68 Z " />
<glyph glyph-name="H_sc" unicode="&#x29c;" horiz-adv-x="405" d="M280 0 L319 0 L366 0 L366 18 L366 36 L359 36 C335 36 319 59 319 93 L319 547 C319 581 335 604 359 604 L366 604 L366 622 L366 640 L319 640 L280 640 L242 640 L207 640 L207 622 L207 604 L212 604 C230 604 242 581 242 547 L242 358 L164 358 L164 547 C164 581 176 604 194 604 L199 604 L199 622 L199 640 L164 640 L125 640 L87 640 L40 640 L40 622 L40 604 L47 604 C71 604 87 581 87 547 L87 93 C87 59 71 36 47 36 L40 36 L40 18 L40 0 L87 0 L125 0 L164 0 L199 0 L199 18 L199 36 L194 36 C176 36 164 59 164 93 L164 290 L242 290 L242 93 C242 59 230 36 212 36 L207 36 L207 18 L207 0 L242 0 L280 0 L280 0 Z " />
<glyph glyph-name="L_sc" unicode="&#x29f;" horiz-adv-x="273" d="M259 36 L259 72 L259 119 L241 119 L223 119 L223 112 C223 87 200 72 166 72 L164 72 L164 547 C164 581 180 604 204 604 L211 604 L211 622 L211 640 L164 640 L125 640 L87 640 L40 640 L40 622 L40 604 L47 604 C71 604 87 581 87 547 L87 93 C87 59 71 36 47 36 L40 36 L40 18 L40 0 L87 0 L125 0 L164 0 L259 0 L259 36 L259 36 Z " />
<glyph glyph-name="A_sc" unicode="&#x1d00;" horiz-adv-x="366" d="M123 547 L124 547 L73 93 L73 93 C69 59 51 36 27 36 L20 36 L20 18 L20 0 L63 0 L101 0 L140 0 L174 0 L174 18 L174 36 L170 36 C154 36 145 59 149 93 L149 93 L157 172 L213 172 L221 93 L221 93 C225 59 216 36 200 36 L195 36 L195 18 L195 0 L230 0 L268 0 L307 0 L350 0 L350 18 L350 36 L343 36 C321 36 303 55 297 84 L234 640 L202 640 L169 640 L136 640 L89 640 C88 640 88 633 89 622 C88 611 88 604 89 604 L95 604 C117 604 129 581 125 547 L123 547 L123 547 Z M207 239 L164 239 L186 467 L207 239 L207 239 Z " />
<glyph glyph-name="C_sc" unicode="&#x1d04;" horiz-adv-x="282" d="M263 131 L186 131 L186 91 C187 71 173 58 151 58 C131 58 117 69 117 86 L116 554 C116 571 130 582 151 582 C172 582 186 570 186 551 L186 507 L263 507 L263 539 L263 586 L254 586 C238 626 200 650 150 650 C83 650 39 607 39 542 L39 98 C38 33 83 -10 150 -10 C217 -10 261 34 262 100 L263 131 L263 131 Z " />
<glyph glyph-name="D_sc" unicode="&#x1d05;" horiz-adv-x="359" d="M125 0 L164 0 L200 0 C271 0 319 38 319 96 L319 545 C319 602 271 640 200 640 L164 640 L125 640 L87 640 L40 640 L40 622 L40 604 L47 604 C71 604 87 581 87 547 L87 93 C87 59 71 36 47 36 L40 36 L40 18 L40 0 L87 0 L125 0 L125 0 Z M164 68 L164 572 L200 572 C225 572 242 560 242 542 L242 96 C242 79 225 68 200 68 L164 68 L164 68 Z " />
<glyph glyph-name="E_sc" unicode="&#x1d07;" horiz-adv-x="293" d="M274 36 L274 72 L274 119 L256 119 L238 119 L238 112 C238 87 215 72 181 72 L164 72 L164 289 L165 289 C186 289 201 274 201 252 L201 242 L219 242 L237 242 L237 289 L237 325 L237 361 L237 408 C237 407 230 407 219 408 C208 407 201 407 201 408 L201 397 C201 376 188 362 169 361 L165 361 L164 361 L164 568 L176 568 C210 568 233 552 233 528 L233 521 L251 521 L269 521 L269 568 L269 604 L269 640 L164 640 L125 640 L87 640 L40 640 L40 622 L40 604 L47 604 C71 604 87 581 87 547 L87 93 C87 59 71 36 47 36 L40 36 L40 18 L40 0 L87 0 L125 0 L164 0 L274 0 L274 36 L274 36 Z " />
<glyph glyph-name="J_sc" unicode="&#x1d0a;" horiz-adv-x="316" d="M156 547 L156 547 L157 91 C157 71 143 58 121 58 C100 58 86 69 86 85 L85 142 L8 142 L8 94 C8 32 52 -10 119 -10 C185 -10 229 32 229 96 L230 547 L230 547 C229 581 245 604 269 604 L276 604 L276 622 L276 640 L230 640 L193 640 L156 640 L109 640 L109 622 L109 604 L117 604 C140 604 156 581 156 547 L156 547 Z " />
<glyph glyph-name="K_sc" unicode="&#x1d0b;" horiz-adv-x="386" d="M306 93 L306 93 L226 357 L298 547 L298 547 C311 581 336 604 360 604 L367 604 L367 622 L367 640 L333 640 L294 640 L255 640 L219 640 C220 640 220 633 219 622 C220 611 220 604 219 604 L223 604 C235 604 235 581 222 547 L222 547 L164 380 L164 547 C164 581 176 604 194 604 L199 604 L199 622 L199 640 L164 640 L125 640 L87 640 L40 640 L40 622 L40 604 L47 604 C71 604 87 581 87 547 L87 93 C87 59 71 36 47 36 L40 36 L40 18 L40 0 L87 0 L125 0 L164 0 L198 0 L198 18 L198 36 L193 36 C175 36 164 59 164 93 L164 196 L181 241 L228 82 C235 54 233 36 222 36 L218 36 L218 18 L218 0 L252 0 L293 0 L334 0 L370 0 L370 18 L370 36 L363 36 C339 36 316 59 306 93 L306 93 Z " />
<glyph glyph-name="M_sc" unicode="&#x1d0d;" horiz-adv-x="480" d="M240 135 L275 130 L240 135 L206 130 L240 135 L240 135 Z M240 286 L185 640 L164 640 L131 640 L125 640 L87 640 L40 640 C39 640 39 633 40 622 C39 611 39 604 40 604 L47 604 C70 604 86 581 87 547 L87 93 C87 59 71 36 47 36 L40 36 L40 18 L40 0 L87 0 L125 0 L164 0 L196 0 L196 18 L196 36 L191 36 C175 36 164 59 164 93 L164 416 L206 130 L225 0 L256 0 L275 130 L317 419 L317 93 C317 59 306 36 290 36 L285 36 L285 18 L285 0 L317 0 L355 0 L394 0 L441 0 L441 18 L441 36 L434 36 C410 36 394 59 394 93 L394 547 C394 581 410 604 434 604 L441 604 L441 622 L441 640 L394 640 L355 640 L349 640 L317 640 L296 640 L240 286 L240 286 Z " />
<glyph glyph-name="O_sc" unicode="&#x1d0f;" horiz-adv-x="300" d="M183 555 L183 85 C183 69 170 58 149 58 C129 58 116 69 116 85 L116 555 C116 571 129 582 149 582 C170 582 183 571 183 555 L183 555 Z M261 98 L261 542 C261 607 216 650 149 650 C83 650 38 607 38 542 L38 98 C38 33 83 -10 149 -10 C216 -10 261 33 261 98 L261 98 Z " />
<glyph glyph-name="P_sc" unicode="&#x1d18;" horiz-adv-x="344" d="M125 0 L164 0 L211 0 L211 18 L211 36 L204 36 C180 36 164 59 164 93 L164 239 L206 239 C274 239 319 284 319 352 L319 545 C319 602 274 640 206 640 L164 640 L125 640 L87 640 L40 640 L40 622 L40 604 L47 604 C71 604 87 581 87 547 L87 93 C87 59 71 36 47 36 L40 36 L40 18 L40 0 L87 0 L125 0 L125 0 Z M164 307 L164 572 L206 572 C228 572 242 560 242 542 L242 352 C242 325 228 307 206 307 L164 307 L164 307 Z " />
<glyph glyph-name="T_sc" unicode="&#x1d1b;" horiz-adv-x="257" d="M129 0 L167 0 L214 0 L214 18 L214 36 L207 36 C183 36 167 59 167 93 L167 572 L174 572 C199 572 216 556 216 532 L216 525 L234 525 L252 525 L252 572 L252 606 L252 640 L167 640 L90 640 L5 640 L5 606 L5 572 L5 525 L23 525 L41 525 L41 532 C41 556 58 572 83 572 L90 572 L90 93 C90 59 74 36 50 36 L43 36 L43 18 L43 0 L90 0 L129 0 L129 0 Z " />
<glyph glyph-name="U_sc" unicode="&#x1d1c;" horiz-adv-x="394" d="M269 640 L231 640 L206 640 L206 622 L206 604 L210 604 C221 604 228 588 230 563 C230 471 230 301 230 84 C230 68 217 57 196 57 C176 57 163 68 163 84 L162 550 C164 582 172 603 184 603 L187 603 C188 603 188 610 187 621 C188 632 188 639 187 639 L163 639 L125 639 L86 639 L39 639 L39 621 L39 603 L46 603 C70 603 86 580 86 546 L86 97 C86 32 131 -11 197 -11 C264 -11 309 32 309 97 L309 546 L309 552 C310 583 326 603 350 603 L357 603 C356 603 356 610 357 621 C356 632 356 639 357 639 L310 639 L269 640 L269 640 Z " />
<glyph glyph-name="V_sc" unicode="&#x1d20;" horiz-adv-x="367" d="M70 547 L70 547 L130 0 L172 0 L195 0 L237 0 L296 551 C301 583 319 604 341 604 L349 604 L349 622 L349 640 L305 640 L267 640 L228 640 L193 640 L193 622 L193 604 L198 604 C213 604 222 584 221 554 L184 130 L146 548 L147 548 C144 582 153 605 169 605 L174 605 L174 623 L174 641 L138 641 L100 641 L61 641 L18 641 L18 623 L18 605 L25 605 C49 605 68 582 71 548 L70 547 L70 547 Z " />
<glyph glyph-name="W_sc" unicode="&#x1d21;" horiz-adv-x="539" d="M388 547 L388 547 L370 112 L321 640 L287 640 L253 640 L220 640 L170 118 L153 547 L153 547 C151 581 166 604 189 604 L196 604 C195 604 195 611 196 622 C195 633 195 640 196 640 L149 640 L112 640 L76 640 L31 640 L31 622 L31 604 L38 604 C62 604 80 581 81 547 L82 547 L116 0 L159 0 L175 0 L218 0 L270 481 L321 0 L365 0 L380 0 L425 0 L460 554 C464 584 481 604 503 604 L510 604 L510 622 L510 640 L465 640 L428 640 L392 640 L345 640 L345 622 L345 604 L352 604 C375 604 390 581 388 547 L388 547 Z " />
<glyph glyph-name="Z_sc" unicode="&#x1d22;" horiz-adv-x="275" d="M15 640 L15 606 L15 572 L16 572 C16 556 16 539 15 525 L33 525 L51 525 L51 532 C51 556 74 572 109 572 L170 572 L21 68 L15 49 L15 0 L21 0 L253 0 L253 34 L253 68 L253 115 C253 114 246 114 235 115 C224 114 217 114 217 115 L217 108 C217 84 197 68 166 67 L160 67 L100 67 L249 571 L252 582 L252 639 L249 639 L15 640 L15 640 Z " />
<glyph glyph-name="endash" unicode="&#x2013;" horiz-adv-x="334" d="M10 387 L324 387 L324 433 L10 433 L10 387 L10 387 Z " />
<glyph glyph-name="emdash" unicode="&#x2014;" horiz-adv-x="434" d="M10 387 L424 387 L424 433 L10 433 L10 387 L10 387 Z " />
<glyph glyph-name="quoteleft" unicode="&#x2018;" horiz-adv-x="122" d="M14 490 L107 490 L107 589 L65 589 L65 616 C65 647 84 668 112 669 L103 710 C50 709 14 665 14 599 L14 589 L14 490 L14 490 Z " />
<glyph glyph-name="quoteright" unicode="&#x2019;" horiz-adv-x="122" d="M112 700 L18 700 L18 600 L60 600 L60 574 C61 543 42 521 14 521 L22 480 C76 481 112 525 112 590 L112 600 L112 700 L112 700 Z " />
<glyph glyph-name="quotedblleft" unicode="&#x201c;" horiz-adv-x="256" d="M149 490 L242 490 L242 589 L200 589 L200 616 C200 647 218 668 246 669 L238 710 C185 709 149 665 149 599 L149 589 L149 490 L149 490 Z M14 490 L107 490 L107 589 L65 589 L65 616 C65 647 84 668 112 669 L103 710 C50 709 14 665 14 599 L14 589 L14 490 L14 490 Z " />
<glyph glyph-name="quotedblright" unicode="&#x201d;" horiz-adv-x="256" d="M246 700 L153 700 L153 600 L195 600 L195 574 C195 543 176 521 149 521 L157 480 C210 481 246 525 246 590 L246 600 L246 700 L246 700 Z M112 700 L18 700 L18 600 L60 600 L60 574 C61 543 42 521 14 521 L22 480 C76 481 112 525 112 590 L112 600 L112 700 L112 700 Z " />
<glyph glyph-name="bullet" unicode="&#x2022;" horiz-adv-x="174" d="M156 324 C156 365 128 393 87 393 C46 393 18 365 18 324 L18 251 C18 210 46 182 87 182 C128 182 156 210 156 251 L156 324 L156 324 Z " />
<glyph glyph-name="ellipsis" unicode="&#x2026;" horiz-adv-x="653" d="M487 -10 L568 -10 L568 71 L487 71 L487 -10 L487 -10 Z M286 -10 L367 -10 L367 71 L286 71 L286 -10 L286 -10 Z M85 -10 L166 -10 L166 71 L85 71 L85 -10 L85 -10 Z " />
<glyph glyph-name="perthousand" unicode="&#x2030;" horiz-adv-x="447" d="M599 308 L599 56 C599 50 592 46 582 47 C571 46 564 50 565 56 L564 308 C564 314 571 318 582 317 C592 318 599 314 599 308 L599 308 Z M659 59 L659 305 C660 344 628 369 582 369 C535 369 505 344 504 305 L504 59 C505 20 535 -5 582 -5 C628 -5 660 20 659 59 L659 59 Z M364 308 L364 56 C364 50 357 46 347 47 C336 46 330 50 330 56 L330 308 C330 314 336 318 347 317 C357 318 364 314 364 308 L364 308 Z M425 59 L425 305 C425 344 394 369 347 369 C301 369 270 344 270 305 L270 59 C270 20 301 -5 347 -5 C394 -5 425 20 425 59 L425 59 Z M105 638 L105 386 C105 380 98 376 87 377 C77 376 70 380 70 386 L70 638 C70 644 77 648 87 647 C98 648 105 644 105 638 L105 638 Z M165 389 L165 635 C165 674 134 699 87 699 C41 699 10 674 10 635 L10 389 C10 350 41 325 87 325 C134 325 165 350 165 389 L165 389 Z M10 0 L52 0 L438 700 L395 700 L10 0 L10 0 Z " />
<glyph glyph-name="guilsinglleft" unicode="&#x2039;" horiz-adv-x="187" d="M180 535 L96 535 L2 393 L96 251 L180 251 L86 393 L180 535 L180 535 Z " />
<glyph glyph-name="guilsinglright" unicode="&#x203a;" horiz-adv-x="219" d="M23 535 L128 393 L23 251 L106 251 L212 393 L106 535 L23 535 L23 535 Z " />
<glyph glyph-name="fraction" unicode="&#x2044;" horiz-adv-x="447" d="M10 0 L52 0 L438 700 L395 700 L10 0 L10 0 Z " />
<glyph glyph-name="Euro" unicode="&#x20ac;" horiz-adv-x="368" d="M349 140 L263 140 L264 91 C264 75 242 65 209 65 C177 65 155 73 155 85 L155 270 L273 270 L273 318 L155 318 L155 398 L274 398 L274 446 L155 446 L155 615 C155 627 177 635 210 635 C242 635 264 626 264 612 L264 556 L350 556 L350 598 C350 665 294 710 210 710 C127 710 71 667 70 602 L70 446 L6 446 L6 398 L70 398 L70 318 L6 318 L6 270 L70 270 L70 99 C70 34 126 -10 210 -10 C293 -10 349 35 350 101 L349 140 L349 140 Z " />
<glyph glyph-name="minus" unicode="&#x2212;" horiz-adv-x="438" d="M12 277 L426 277 L426 323 L12 323 L12 277 L12 277 Z " />
<glyph glyph-name="F_sc" unicode="&#xa730;" horiz-adv-x="278" d="M166 271 C188 271 203 256 203 233 L203 224 L221 224 L239 224 L239 271 L239 307 L239 343 L239 390 L221 390 L203 390 L203 381 C203 358 188 343 166 343 L164 343 L164 568 L166 568 C200 568 223 552 223 528 L223 521 L241 521 L259 521 L259 568 L259 604 L259 640 L164 640 L125 640 L87 640 L40 640 L40 622 L40 604 L47 604 C71 604 87 581 87 547 L87 93 C87 59 71 36 47 36 L40 36 L40 18 L40 0 L87 0 L125 0 L164 0 L211 0 L211 18 L211 36 L204 36 C180 36 164 59 164 93 L164 271 L166 271 L166 271 Z " />
<glyph glyph-name="S_sc" unicode="&#xa731;" horiz-adv-x="270" d="M23 122 L23 81 L23 34 L36 34 C54 7 89 -10 134 -10 C200 -10 244 36 244 105 C244 178 219 268 169 347 C124 420 101 488 101 549 C101 569 115 582 135 582 C155 582 168 573 168 559 L168 524 L245 524 L245 559 L245 606 L232 606 C214 633 180 650 136 650 C70 650 26 605 26 537 C26 461 51 380 101 300 C144 229 167 152 167 91 C167 71 154 58 135 58 C114 58 101 67 101 81 L101 122 L23 122 L23 122 Z " />
</font>
</svg>
