<?xml version="1.0" encoding="UTF-8"?>
<svg xmlns="http://www.w3.org/2000/svg" xmlns:xlink="http://www.w3.org/1999/xlink" version="1.2" >
<font id="Zack Thin">
<font-face  font-family="Zack" units-per-em="1024" ascent="975" descent="-300" font-style="normal" font-weight="100" font-stretch="normal" cap-height="750" x-height="500" underline-position="0" underline-thickness="0" />
<missing-glyph  horiz-adv-x="472" d="M0 700 C0 700 432 700 432 700 C432 700 432 0 432 0 C432 0 0 0 0 0 C0 0 0 700 0 700 L0 700 Z M50 50 C50 50 382 50 382 50 C382 50 382 650 382 650 C382 650 50 650 50 650 C50 650 50 50 50 50 L50 50 Z " />
<glyph glyph-name="NULL" d="" />
<glyph glyph-name="CR" unicode="&#xd;" horiz-adv-x="256" d="" />
<glyph glyph-name="space" unicode="&#x20;" horiz-adv-x="250" d="" />
<glyph glyph-name="exclam" unicode="&#x21;" horiz-adv-x="164" d="M82 -5 C94 -5 102 3 102 15 C102 27 94 35 82 35 C70 35 62 27 62 15 C62 3 70 -5 82 -5 L82 -5 Z M82 755 C72 755 69 728 70 688 C70 688 80 210 80 210 C80 210 84 210 84 210 C84 210 94 688 94 688 C95 728 93 755 82 755 L82 755 Z " />
<glyph glyph-name="quotedbl" unicode="&#x22;" horiz-adv-x="325" d="M748 750 C742 750 741 732 742 705 C742 705 749 560 749 560 C749 560 751 560 751 560 C751 560 758 705 758 705 C759 732 758 750 752 750 C752 750 748 750 748 750 L748 750 Z " />
<glyph glyph-name="numbersign" unicode="&#x23;" horiz-adv-x="525" d="M390 692 C390 692 359 468 359 468 C359 468 205 468 205 468 C205 468 236 692 236 692 C236 692 228 692 228 692 C228 692 197 468 197 468 C197 468 61 468 61 468 C61 468 59 452 59 452 C59 452 195 452 195 452 C195 452 162 208 162 208 C162 208 23 208 23 208 C23 208 21 192 21 192 C21 192 159 192 159 192 C159 192 133 0 133 0 C133 0 141 0 141 0 C141 0 167 192 167 192 C167 192 321 192 321 192 C321 192 295 0 295 0 C295 0 303 0 303 0 C303 0 329 192 329 192 C329 192 460 192 460 192 C460 192 462 208 462 208 C462 208 332 208 332 208 C332 208 365 452 365 452 C365 452 503 452 503 452 C503 452 505 468 505 468 C505 468 367 468 367 468 C367 468 398 692 398 692 C398 692 390 692 390 692 L390 692 Z M203 452 C203 452 357 452 357 452 C357 452 324 208 324 208 C324 208 170 208 170 208 C170 208 203 452 203 452 L203 452 Z " />
<glyph glyph-name="dollar" unicode="&#x24;" horiz-adv-x="540" d="M307 744 C307 744 264 751 264 751 C264 751 251 754 251 754 C252 754 253 754 255 754 C258 753 261 752 264 751 C264 751 264 751 264 751 C278 747 293 739 307 727 C307 727 307 392 307 392 C283 403 261 415 241 427 C241 427 241 754 241 754 C244 754 247 754 251 754 C251 754 249 754 249 754 C251 754 253 754 255 754 C273 752 290 750 307 745 C307 745 307 744 307 744 L307 744 Z M307 825 C307 825 307 752 307 752 C286 757 264 760 241 760 C241 760 241 825 241 825 C241 825 227 825 227 825 C227 825 227 760 227 760 C138 755 80 687 80 588 C80 530 130 463 227 404 C227 404 227 10 227 10 C223 11 219 12 215 14 C189 24 141 122 116 197 C116 197 111 212 111 212 C111 212 55 212 55 212 C55 212 55 149 55 149 C55 149 55 48 55 48 C55 48 111 48 111 48 C111 48 115 68 115 68 C119 64 123 60 128 56 C136 49 149 40 164 31 C184 19 205 9 227 3 C227 3 227 -75 227 -75 C227 -75 241 -75 241 -75 C241 -75 241 -1 241 -1 C262 -7 285 -10 307 -10 C307 -10 307 -75 307 -75 C307 -75 321 -75 321 -75 C321 -75 321 -10 321 -10 C430 -5 501 66 501 171 C501 248 439 328 321 385 C321 385 321 714 321 714 C353 681 381 634 395 593 C395 593 400 578 400 578 C400 578 455 578 455 578 C455 578 455 641 455 641 C455 641 455 721 455 721 C455 721 400 721 400 721 C400 721 397 710 397 710 C387 718 376 725 364 731 C360 733 356 735 350 737 C341 741 331 745 321 748 C321 748 321 825 321 825 C321 825 307 825 307 825 L307 825 Z M395 701 C395 702 395 703 395 703 C395 703 395 703 396 703 C396 703 395 701 395 701 L395 701 Z M241 395 C260 384 281 373 303 363 C304 362 306 362 307 361 C307 361 307 -3 307 -3 C285 -3 262 0 241 6 C241 6 241 395 241 395 L241 395 Z M321 354 C428 300 483 230 483 164 C483 68 419 2 321 -3 C321 -3 321 354 321 354 L321 354 Z M227 435 C141 490 97 547 97 597 C97 687 148 748 227 754 C227 754 227 435 227 435 L227 435 Z " />
<glyph glyph-name="ampersand" unicode="&#x26;" horiz-adv-x="307" d="M311 471 C311 471 314 468 314 468 C395 493 449 552 449 614 C449 702 395 760 315 760 C222 760 160 699 160 607 C160 579 217 511 302 412 C302 412 520 157 520 157 C437 63 345 9 257 9 C149 9 78 89 78 210 C78 315 147 407 252 439 C252 439 248 440 248 440 C133 405 57 311 57 203 C57 75 132 -10 245 -10 C338 -10 436 49 524 152 C524 152 563 107 563 107 C623 37 678 -10 700 -10 C764 -10 815 54 827 149 C827 149 823 150 823 150 C812 64 766 6 708 6 C689 6 638 51 581 117 C581 117 537 168 537 168 C607 254 670 367 719 500 C719 500 714 500 714 500 C666 368 603 256 533 173 C533 173 320 422 320 422 C234 522 177 590 177 618 C177 700 232 755 315 755 C386 755 433 699 433 615 C433 551 384 493 311 471 C311 471 311 471 311 471 L311 471 Z " />
<glyph glyph-name="quotesingle" unicode="&#x27;" horiz-adv-x="204" d="" />
<glyph glyph-name="parenleft" unicode="&#x28;" horiz-adv-x="405" d="M320 760 C184 668 93 473 93 273 C93 80 181 -115 313 -214 C313 -214 314 -212 314 -212 C190 -118 107 76 107 273 C107 477 193 671 321 758 C321 758 320 760 320 760 L320 760 Z " />
<glyph glyph-name="parenright" unicode="&#x29;" horiz-adv-x="405" d="M29 758 C157 674 243 481 243 273 C243 63 160 -131 36 -212 C36 -212 37 -214 37 -214 C169 -128 257 67 257 273 C257 477 166 672 30 760 C30 760 29 758 29 758 L29 758 Z " />
<glyph glyph-name="asterisk" unicode="&#x2a;" horiz-adv-x="245" d="M149 631 C149 631 49 695 49 695 C40 701 34 690 43 685 C43 685 149 631 149 631 C149 631 149 630 149 630 C149 630 149 629 149 629 C149 629 43 575 43 575 C34 570 40 559 49 565 C49 565 149 629 149 629 C149 629 144 510 144 510 C144 505 146 502 150 502 C154 502 156 505 156 510 C156 510 151 629 151 629 C151 629 251 565 251 565 C260 559 266 570 257 575 C257 575 151 629 151 629 C151 629 151 630 151 630 C151 630 151 631 151 631 C151 631 257 685 257 685 C266 690 260 701 251 695 C251 695 151 631 151 631 C151 631 156 750 156 750 C156 755 154 758 150 758 C146 758 144 755 144 750 C144 750 149 631 149 631 L149 631 Z " />
<glyph glyph-name="plus" unicode="&#x2b;" horiz-adv-x="620" d="M302 460 C302 460 302 257 302 257 C302 257 100 257 100 257 C100 257 100 243 100 243 C100 243 302 243 302 243 C302 243 302 40 302 40 C302 40 318 40 318 40 C318 40 318 243 318 243 C318 243 520 243 520 243 C520 243 520 257 520 257 C520 257 318 257 318 257 C318 257 318 460 318 460 C318 460 302 460 302 460 L302 460 Z " />
<glyph glyph-name="comma" unicode="&#x2c;" horiz-adv-x="258" d="M175 50 C178 36 180 21 180 3 C180 -63 134 -106 65 -106 C65 -106 65 -111 65 -111 C139 -111 188 -63 188 10 C188 52 177 84 159 101 C150 110 139 115 125 115 C89 115 65 91 65 55 C65 19 89 -5 125 -5 C154 -5 173 17 175 50 C175 50 175 50 175 50 L175 50 Z " />
<glyph glyph-name="hyphen" unicode="&#x2d;" horiz-adv-x="430" d="M80 277 C80 277 350 277 350 277 C350 277 350 293 350 293 C350 293 80 293 80 293 C80 293 80 277 80 277 L80 277 Z " />
<glyph glyph-name="period" unicode="&#x2e;" horiz-adv-x="195" d="M125 -5 C137 -5 145 3 145 15 C145 27 137 35 125 35 C113 35 105 27 105 15 C105 3 113 -5 125 -5 L125 -5 Z " />
<glyph glyph-name="slash" unicode="&#x2f;" horiz-adv-x="369" d="M328 770 C328 770 46 -80 46 -80 C46 -80 58 -80 58 -80 C58 -80 340 770 340 770 C340 770 328 770 328 770 L328 770 Z " />
<glyph glyph-name="zero" unicode="0" horiz-adv-x="602" d="M305 -2 C174 -2 62 99 62 250 C62 386 159 502 305 502 C436 502 548 401 548 250 C548 114 451 -2 305 -2 L305 -2 Z M53 250 C53 94 169 -10 305 -10 C456 -10 557 110 557 250 C557 406 441 510 305 510 C154 510 53 390 53 250 L53 250 Z " />
<glyph glyph-name="one" unicode="1" horiz-adv-x="239" d="M130 103 C130 103 130 397 130 397 C130 433 154 440 191 440 C191 440 200 440 200 440 C200 440 200 500 200 500 C200 500 40 500 40 500 C40 500 40 440 40 440 C40 440 49 440 49 440 C86 440 110 433 110 397 C110 397 110 103 110 103 C110 67 86 60 49 60 C49 60 40 60 40 60 C40 60 40 0 40 0 C40 0 200 0 200 0 C200 0 200 60 200 60 C200 60 191 60 191 60 C154 60 130 67 130 103 L130 103 Z " />
<glyph glyph-name="two" unicode="2" horiz-adv-x="515" d="M51 292 C74 414 150 495 241 495 C333 495 395 432 395 337 C395 221 227 103 30 4 C30 4 30 0 30 0 C30 0 179 0 179 0 C179 0 420 0 420 0 C434 20 444 39 457 59 C445 60 405 63 399 63 C399 63 394 54 394 54 C380 32 322 18 65 18 C257 119 415 233 415 341 C415 442 350 510 251 510 C154 510 72 423 47 293 C47 293 51 292 51 292 L51 292 Z " />
<glyph glyph-name="three" unicode="3" horiz-adv-x="400" d="M19 -228 C19 -228 20 -232 20 -232 C225 -210 361 -122 361 -11 C361 77 262 150 115 170 C115 170 88 159 88 159 C255 230 366 307 366 382 C366 459 304 510 212 510 C121 510 46 446 24 350 C24 350 28 349 28 349 C48 437 119 496 203 496 C288 496 345 448 345 375 C345 301 242 228 88 163 C88 163 88 159 88 159 C239 138 340 68 340 -16 C340 -123 212 -208 19 -228 L19 -228 Z " />
<glyph glyph-name="four" unicode="4" horiz-adv-x="620" d="M595 1 C597 21 600 42 604 61 C604 61 543 61 543 61 C543 61 542 52 542 52 C540 37 515 25 415 19 C415 19 415 530 415 530 C415 530 412 530 412 530 C412 530 15 4 15 4 C15 4 15 0 15 0 C15 0 365 0 365 0 C376 0 386 0 395 0 C395 0 395 -220 395 -220 C395 -220 415 -220 415 -220 C415 -220 415 -1 415 -1 C514 -3 533 -14 530 -29 C530 -29 529 -38 529 -38 C529 -38 590 -38 590 -38 C592 -26 593 -13 595 0 C595 0 595 0 595 0 C595 0 595 1 595 1 L595 1 Z M227 15 C227 15 33 15 33 15 C33 15 32 14 32 14 C32 14 396 496 396 496 C396 496 395 495 395 495 C395 495 395 18 395 18 C352 16 297 15 227 15 L227 15 Z " />
<glyph glyph-name="five" unicode="5" horiz-adv-x="421" d="M60 -231 C259 -206 391 -96 391 45 C391 174 272 260 93 260 C93 260 89 260 89 260 C89 260 137 482 137 482 C137 482 338 483 338 483 C342 501 346 522 348 540 C348 540 288 540 288 540 C288 540 286 531 286 531 C283 512 258 500 137 500 C137 500 133 500 133 500 C133 500 78 242 78 242 C78 242 81 239 81 239 C81 239 90 239 90 239 C261 239 374 159 374 38 C374 -98 248 -204 60 -227 C60 -227 60 -231 60 -231 L60 -231 Z " />
<glyph glyph-name="six" unicode="6" horiz-adv-x="565" d="M550 750 C260 688 66 501 66 283 C66 107 159 -10 298 -10 C428 -10 515 90 515 240 C515 372 418 461 272 461 C183 461 117 416 93 344 C128 538 302 694 551 747 C551 747 550 750 550 750 L550 750 Z M86 272 C86 382 160 456 270 456 C405 456 495 370 495 241 C495 94 416 -4 297 -4 C170 -4 86 106 86 272 L86 272 Z " />
<glyph glyph-name="seven" unicode="7" horiz-adv-x="440" d="M121 -220 C121 -220 136 -220 136 -220 C136 -220 435 485 435 485 C435 485 435 500 435 500 C435 500 267 500 267 500 C163 500 147 509 153 522 C153 522 157 531 157 531 C157 531 97 531 97 531 C93 521 88 510 83 500 C83 500 80 500 80 500 C80 500 73 484 73 484 C73 484 76 484 76 484 C69 469 62 454 56 438 C56 438 116 438 116 438 C116 438 120 448 120 448 C130 469 161 484 295 484 C295 484 425 484 425 484 C425 484 430 485 430 485 C430 485 121 -220 121 -220 L121 -220 Z " />
<glyph glyph-name="eight" unicode="8" horiz-adv-x="543" d="M255 394 C259 392 262 391 266 389 C399 335 488 279 488 175 C488 67 404 -5 278 -5 C154 -5 71 67 71 174 C71 265 145 352 255 394 C255 394 255 394 255 394 L255 394 Z M250 396 C132 351 54 263 54 174 C54 64 144 -10 278 -10 C413 -10 503 68 503 184 C503 290 418 347 290 401 C402 443 475 520 475 596 C475 695 395 760 276 760 C157 760 78 690 78 586 C78 510 146 442 250 396 L250 396 Z M285 403 C281 405 278 406 274 408 C166 451 94 519 94 594 C94 690 167 755 276 755 C385 755 458 691 458 595 C458 517 389 442 285 403 C285 403 285 403 285 403 L285 403 Z " />
<glyph glyph-name="nine" unicode="9" horiz-adv-x="565" d="M16 -250 C306 -188 500 -1 500 217 C500 393 407 510 268 510 C138 510 51 410 51 260 C51 128 148 39 293 39 C384 39 451 85 474 159 C440 -36 265 -194 15 -247 C15 -247 16 -250 16 -250 L16 -250 Z M480 228 C480 118 406 44 296 44 C161 44 71 130 71 259 C71 406 150 504 269 504 C395 504 480 394 480 228 L480 228 Z " />
<glyph glyph-name="colon" unicode="&#x3a;" horiz-adv-x="135" d="M125 385 C137 385 145 393 145 405 C145 417 137 425 125 425 C113 425 105 417 105 405 C105 393 113 385 125 385 L125 385 Z M125 -5 C137 -5 145 3 145 15 C145 27 137 35 125 35 C113 35 105 27 105 15 C105 3 113 -5 125 -5 L125 -5 Z " />
<glyph glyph-name="semicolon" unicode="&#x3b;" horiz-adv-x="258" d="M125 385 C137 385 145 393 145 405 C145 417 137 425 125 425 C113 425 105 417 105 405 C105 393 113 385 125 385 L125 385 Z M175 50 C178 36 180 21 180 3 C180 -63 134 -106 65 -106 C65 -106 65 -111 65 -111 C139 -111 188 -63 188 10 C188 52 177 84 159 101 C150 110 139 115 125 115 C89 115 65 91 65 55 C65 19 89 -5 125 -5 C154 -5 173 17 175 50 C175 50 175 50 175 50 L175 50 Z " />
<glyph glyph-name="equal" unicode="&#x3d;" horiz-adv-x="523" d="M73 204 C73 204 73 196 73 196 C73 196 453 196 453 196 C453 196 453 204 453 204 C453 204 73 204 73 204 L73 204 Z M73 304 C73 304 73 296 73 296 C73 296 453 296 453 296 C453 296 453 304 453 304 C453 304 73 304 73 304 L73 304 Z " />
<glyph glyph-name="question" unicode="&#x3f;" horiz-adv-x="309" d="M125 -5 C137 -5 145 3 145 15 C145 27 137 35 125 35 C113 35 105 27 105 15 C105 3 113 -5 125 -5 L125 -5 Z M119 145 C119 145 125 360 125 360 C202 360 238 400 278 460 C294 484 305 520 305 551 C305 676 241 760 145 760 C134 760 126 754 126 745 C126 739 130 735 137 735 C142 735 147 739 152 739 C240 739 299 663 299 549 C299 524 289 493 273 469 C237 416 204 380 118 380 C118 380 115 145 115 145 C115 145 119 145 119 145 L119 145 Z " />
<glyph glyph-name="at" unicode="&#x40;" horiz-adv-x="1121" d="M1046 0 C979 -145 785 -241 562 -241 C267 -241 71 -41 71 259 C71 559 267 759 561 759 C855 759 1051 593 1051 343 C1051 138 970 2 849 2 C709 2 635 81 665 200 C665 200 735 480 735 480 C735 480 716 480 716 480 C716 480 688 370 688 370 C683 442 636 490 566 490 C409 490 305 375 305 201 C305 91 372 17 473 17 C544 17 607 72 640 159 C635 59 713 -5 846 -5 C979 -5 1067 134 1067 343 C1067 596 865 764 561 764 C257 764 55 562 55 259 C55 -44 258 -246 562 -246 C788 -246 984 -148 1053 0 C1053 0 1046 0 1046 0 L1046 0 Z M685 356 C685 356 646 200 646 200 C620 97 555 28 483 28 C389 28 327 99 327 205 C327 372 422 484 565 484 C637 484 685 432 685 356 L685 356 Z " />
<glyph glyph-name="A" unicode="A" horiz-adv-x="661" d="M212 294 C212 294 478 294 478 294 C478 294 481 284 481 284 C533 96 517 60 479 60 C479 60 469 60 469 60 C469 60 469 0 469 0 C469 0 563 0 563 0 C563 0 586 0 586 0 C586 0 635 0 635 0 C635 0 635 60 635 60 C635 60 624 60 624 60 C592 60 555 110 479 368 C479 368 370 743 370 743 C370 743 362 770 362 770 C362 770 360 770 360 770 C357 754 353 744 348 743 C348 743 351 733 351 733 C351 733 350 733 350 733 C350 733 237 387 237 387 C142 115 93 60 48 60 C48 60 36 60 36 60 C36 60 36 0 36 0 C36 0 110 0 110 0 C110 0 117 0 117 0 C117 0 232 0 232 0 C232 0 232 60 232 60 C232 60 221 60 221 60 C173 60 151 92 200 256 C200 256 212 294 212 294 L212 294 Z M214 299 C214 299 353 726 353 726 C353 726 476 299 476 299 C476 299 214 299 214 299 L214 299 Z " />
<glyph glyph-name="B" unicode="B" horiz-adv-x="565" d="M167 746 C167 746 243 745 243 745 C449 745 497 673 497 566 C497 458 405 387 266 387 C266 387 167 387 167 387 C167 387 167 506 167 506 C167 506 167 746 167 746 L167 746 Z M325 387 C444 403 520 472 520 568 C520 677 469 750 252 750 C252 750 167 750 167 750 C167 750 71 750 71 750 C71 750 71 690 71 690 C71 690 81 690 81 690 C119 690 145 661 145 506 C145 506 145 244 145 244 C145 89 119 60 81 60 C81 60 71 60 71 60 C71 60 71 0 71 0 C71 0 167 0 167 0 C167 0 287 0 287 0 C430 0 526 37 526 193 C526 306 446 382 325 387 C325 387 325 387 325 387 L325 387 Z M268 383 C268 383 298 383 298 383 C420 383 501 307 501 193 C501 40 413 4 282 4 C282 4 232 4 232 4 C193 4 167 96 167 235 C167 235 167 244 167 244 C167 244 167 383 167 383 C167 383 268 383 268 383 L268 383 Z " />
<glyph glyph-name="C" unicode="C" horiz-adv-x="675" d="M567 689 C563 698 533 719 489 738 C489 738 487 738 487 738 C452 752 410 760 358 760 C186 760 71 606 71 375 C71 144 182 -10 347 -10 C399 -10 444 -2 483 14 C483 14 484 14 484 14 C484 14 485 14 486 15 C511 25 534 39 556 55 C560 57 563 59 567 61 C572 64 575 56 575 40 C575 40 627 40 627 40 C627 40 627 124 627 124 C627 124 627 188 627 188 C627 188 572 188 572 188 C550 122 501 30 460 12 C427 1 391 -5 349 -5 C197 -5 95 147 95 375 C95 602 201 754 360 754 C389 754 414 751 437 747 C486 731 544 643 567 576 C567 576 572 561 572 561 C572 561 627 561 627 561 C627 561 627 626 627 626 C627 626 627 707 627 707 C627 707 572 707 572 707 C572 707 567 689 567 689 C567 689 567 689 567 689 C567 689 567 689 567 689 L567 689 Z " />
<glyph glyph-name="D" unicode="D" horiz-adv-x="752" d="M144 506 C144 506 144 244 144 244 C144 89 118 60 80 60 C80 60 71 60 71 60 C71 60 71 0 71 0 C71 0 144 0 144 0 C144 0 167 0 167 0 C167 0 247 0 247 0 C518 0 698 127 698 375 C698 600 558 750 287 750 C287 750 167 750 167 750 C167 750 144 750 144 750 C144 750 71 750 71 750 C71 750 71 690 71 690 C71 690 80 690 80 690 C118 690 144 661 144 506 L144 506 Z M167 746 C167 746 269 746 269 746 C536 746 673 598 673 375 C673 130 500 4 240 4 C174 4 167 96 167 235 C167 235 167 244 167 244 C167 244 167 506 167 506 C167 506 167 746 167 746 L167 746 Z " />
<glyph glyph-name="E" unicode="E" horiz-adv-x="564" d="M167 244 C167 244 167 385 167 385 C167 385 177 385 177 385 C328 385 357 350 357 296 C357 296 357 287 357 287 C357 287 417 287 417 287 C417 287 417 385 417 385 C417 385 417 390 417 390 C417 390 417 488 417 488 C417 488 357 488 357 488 C357 488 357 479 357 479 C357 426 328 390 177 390 C177 390 167 390 167 390 C167 390 167 506 167 506 C167 506 167 745 167 745 C419 745 419 714 423 667 C423 667 423 658 423 658 C423 658 484 658 484 658 C482 688 479 719 477 750 C477 750 167 750 167 750 C167 750 145 750 145 750 C145 750 71 750 71 750 C71 750 71 690 71 690 C71 690 81 690 81 690 C119 690 145 661 145 506 C145 506 145 244 145 244 C145 89 119 60 81 60 C81 60 71 60 71 60 C71 60 71 0 71 0 C71 0 145 0 145 0 C145 0 167 0 167 0 C167 0 502 0 502 0 C502 0 511 61 515 92 C515 92 455 92 455 92 C455 92 453 83 453 83 C447 36 399 5 168 5 C168 5 167 5 167 5 C167 5 167 244 167 244 L167 244 Z " />
<glyph glyph-name="F" unicode="F" horiz-adv-x="539" d="M485 661 C483 690 479 721 477 750 C477 750 167 750 167 750 C167 750 145 750 145 750 C145 750 71 750 71 750 C71 750 71 690 71 690 C71 690 81 690 81 690 C119 690 145 661 145 506 C145 506 145 244 145 244 C145 89 119 60 81 60 C81 60 71 60 71 60 C71 60 71 0 71 0 C71 0 145 0 145 0 C145 0 167 0 167 0 C167 0 240 0 240 0 C240 0 240 60 240 60 C240 60 231 60 231 60 C193 60 167 89 167 244 C167 244 167 380 167 380 C167 380 259 380 259 380 C330 370 351 344 359 309 C359 309 365 284 365 284 C365 284 407 284 407 284 C407 284 407 380 407 380 C407 380 407 385 407 385 C407 385 407 481 407 481 C407 481 365 481 365 481 C365 481 359 456 359 456 C349 413 316 385 177 385 C177 385 167 385 167 385 C167 385 167 506 167 506 C167 506 167 746 167 746 C377 746 420 715 424 668 C424 668 425 659 425 659 C437 660 479 661 485 661 L485 661 Z " />
<glyph glyph-name="G" unicode="G" horiz-adv-x="728" d="M584 95 C584 95 585 27 585 27 C585 27 585 27 585 27 C579 25 574 23 568 22 C568 22 553 20 553 20 C573 28 584 38 584 49 C584 49 585 27 585 27 C585 27 585 24 585 24 C585 24 568 22 568 22 C556 19 544 16 532 13 C540 15 547 18 553 20 C553 20 351 -5 351 -5 C197 -5 95 147 95 375 C95 602 201 754 360 754 C389 754 414 751 437 747 C486 731 544 643 567 576 C567 576 572 561 572 561 C572 561 627 561 627 561 C627 561 627 626 627 626 C627 626 627 707 627 707 C627 707 572 707 572 707 C572 707 567 689 567 689 C567 689 567 689 567 689 C563 698 533 719 489 738 C489 738 487 738 487 738 C452 752 410 760 358 760 C186 760 71 606 71 375 C71 144 182 -10 349 -10 C448 -10 527 4 597 27 C597 27 606 29 606 29 C606 29 606 30 606 30 C634 39 660 50 686 62 C686 62 684 65 684 65 C659 53 633 43 606 34 C606 34 607 95 607 95 C607 238 627 265 657 265 C657 265 666 265 666 265 C666 265 666 325 666 325 C666 325 514 325 514 325 C514 325 514 265 514 265 C514 265 523 265 523 265 C560 265 584 238 584 95 C584 95 584 95 584 95 L584 95 Z " />
<glyph glyph-name="H" unicode="H" horiz-adv-x="744" d="M619 230 C619 230 619 520 619 520 C619 663 645 690 683 690 C683 690 692 690 692 690 C692 690 692 750 692 750 C692 750 523 750 523 750 C523 750 523 690 523 690 C523 690 532 690 532 690 C570 690 596 663 596 520 C596 520 596 386 596 386 C596 386 203 386 203 386 C203 386 203 520 203 520 C203 663 229 690 267 690 C267 690 276 690 276 690 C276 690 276 750 276 750 C276 750 107 750 107 750 C107 750 107 690 107 690 C107 690 117 690 117 690 C155 690 181 663 181 520 C181 520 181 230 181 230 C181 87 155 60 117 60 C117 60 107 60 107 60 C107 60 107 0 107 0 C107 0 276 0 276 0 C276 0 276 60 276 60 C276 60 267 60 267 60 C229 60 203 87 203 230 C203 230 203 380 203 380 C203 380 596 380 596 380 C596 380 596 230 596 230 C596 87 570 60 532 60 C532 60 523 60 523 60 C523 60 523 0 523 0 C523 0 692 0 692 0 C692 0 692 60 692 60 C692 60 683 60 683 60 C645 60 619 87 619 230 L619 230 Z " />
<glyph glyph-name="I" unicode="I" horiz-adv-x="306" d="M182 230 C182 230 182 520 182 520 C182 663 208 690 246 690 C246 690 255 690 255 690 C255 690 255 750 255 750 C255 750 86 750 86 750 C86 750 86 690 86 690 C86 690 95 690 95 690 C133 690 159 663 159 520 C159 520 159 230 159 230 C159 87 133 60 95 60 C95 60 86 60 86 60 C86 60 86 0 86 0 C86 0 255 0 255 0 C255 0 255 60 255 60 C255 60 246 60 246 60 C208 60 182 87 182 230 L182 230 Z " />
<glyph glyph-name="J" unicode="J" horiz-adv-x="306" d="M159 520 C159 520 159 1 159 1 C159 -178 90 -212 40 -212 C28 -212 33 -193 22 -193 C15 -193 11 -197 11 -204 C11 -214 20 -220 34 -220 C96 -220 182 -178 182 43 C182 43 182 520 182 520 C182 663 208 690 246 690 C246 690 255 690 255 690 C255 690 255 750 255 750 C255 750 86 750 86 750 C86 750 86 690 86 690 C86 690 95 690 95 690 C133 690 159 663 159 520 L159 520 Z " />
<glyph glyph-name="K" unicode="K" horiz-adv-x="627" d="M326 244 C326 244 325 244 325 244 C325 244 185 389 185 389 C185 389 299 521 299 521 C425 660 471 690 501 690 C501 690 512 690 512 690 C512 690 512 750 512 750 C512 750 498 750 498 750 C498 750 489 750 489 750 C489 750 391 750 391 750 C391 750 391 690 391 690 C391 690 397 690 397 690 C419 690 399 649 227 444 C227 444 167 375 167 375 C167 375 167 581 167 581 C167 673 193 690 231 690 C231 690 240 690 240 690 C240 690 240 750 240 750 C240 750 167 750 167 750 C167 750 145 750 145 750 C145 750 71 750 71 750 C71 750 71 690 71 690 C71 690 81 690 81 690 C119 690 145 673 145 581 C145 581 145 169 145 169 C145 77 119 60 81 60 C81 60 71 60 71 60 C71 60 71 0 71 0 C71 0 145 0 145 0 C145 0 167 0 167 0 C167 0 240 0 240 0 C240 0 240 60 240 60 C240 60 231 60 231 60 C193 60 167 77 167 169 C167 169 167 375 167 375 C167 375 533 0 533 0 C533 0 562 0 562 0 C562 0 563 0 563 0 C563 0 563 60 563 60 C563 60 552 60 552 60 C523 60 416 151 326 244 C326 244 326 244 326 244 L326 244 Z " />
<glyph glyph-name="L" unicode="L" horiz-adv-x="571" d="M517 4 C517 4 517 4 517 4 C526 42 537 80 547 117 C535 118 493 119 487 119 C475 63 441 26 326 11 C198 36 182 119 182 235 C182 235 182 244 182 244 C182 244 182 506 182 506 C182 661 208 690 246 690 C246 690 255 690 255 690 C255 690 255 750 255 750 C255 750 182 750 182 750 C182 750 159 750 159 750 C159 750 86 750 86 750 C86 750 86 690 86 690 C86 690 95 690 95 690 C133 690 159 661 159 506 C159 506 159 244 159 244 C159 89 133 60 95 60 C95 60 86 60 86 60 C86 60 86 0 86 0 C86 0 159 0 159 0 C159 0 181 0 181 0 C181 0 182 0 182 0 C182 0 516 0 516 0 C516 0 517 0 517 0 C517 0 517 4 517 4 L517 4 Z " />
<glyph glyph-name="M" unicode="M" horiz-adv-x="790" d="M705 244 C705 244 704 244 704 244 C704 244 704 270 704 270 C704 270 704 267 704 267 C695 622 717 690 753 690 C753 690 764 690 764 690 C764 690 764 750 764 750 C764 750 691 750 691 750 C691 750 677 750 677 750 C677 750 669 750 669 750 C669 750 418 28 418 28 C418 28 418 29 418 29 C418 29 145 750 145 750 C145 750 139 750 139 750 C139 750 118 750 118 750 C118 750 68 750 68 750 C68 750 68 690 68 690 C68 690 80 690 80 690 C98 690 116 683 136 658 C136 658 129 396 129 396 C120 115 88 60 45 60 C45 60 33 60 33 60 C33 60 33 0 33 0 C33 0 118 0 118 0 C118 0 126 0 126 0 C126 0 214 0 214 0 C214 0 214 60 214 60 C214 60 202 60 202 60 C159 60 131 109 135 359 C135 359 142 650 142 650 C162 623 185 578 212 506 C212 506 212 507 212 507 C277 338 342 168 408 0 C408 0 413 0 413 0 C413 0 670 729 670 729 C670 729 683 217 683 217 C683 86 657 60 618 60 C618 60 609 60 609 60 C609 60 609 0 609 0 C609 0 689 0 689 0 C689 0 711 0 711 0 C711 0 778 0 778 0 C778 0 778 60 778 60 C778 60 769 60 769 60 C733 60 708 89 705 244 C705 244 705 244 705 244 L705 244 Z " />
<glyph glyph-name="N" unicode="N" horiz-adv-x="710" d="M135 750 C135 750 130 750 130 750 C130 750 124 750 124 750 C124 750 107 750 107 750 C107 750 100 750 100 750 C100 750 100 690 100 690 C100 690 109 690 109 690 C114 690 119 689 124 687 C124 687 124 427 124 427 C124 119 94 60 49 60 C49 60 36 60 36 60 C36 60 36 0 36 0 C36 0 124 0 124 0 C124 0 130 0 130 0 C130 0 218 0 218 0 C218 0 218 60 218 60 C218 60 206 60 206 60 C160 60 130 114 130 399 C130 399 130 684 130 684 C148 674 171 649 207 591 C207 591 207 592 207 592 C207 592 559 32 559 32 C559 32 579 0 579 0 C579 0 584 0 584 0 C584 0 585 408 585 408 C585 408 585 408 585 408 C584 645 616 690 663 690 C663 690 672 690 672 690 C672 690 672 750 672 750 C672 750 585 750 585 750 C585 750 579 750 579 750 C579 750 492 750 492 750 C492 750 492 690 492 690 C492 690 501 690 501 690 C548 690 579 645 579 408 C579 408 579 42 579 42 C579 42 578 44 578 44 C578 44 135 750 135 750 L135 750 Z " />
<glyph glyph-name="O" unicode="O" horiz-adv-x="767" d="M378 -4 C209 -4 96 148 96 375 C96 602 212 754 386 754 C566 754 687 602 687 375 C687 148 563 -4 378 -4 L378 -4 Z M71 375 C71 144 193 -10 377 -10 C578 -10 713 144 713 375 C713 606 582 760 387 760 C197 760 71 606 71 375 L71 375 Z " />
<glyph glyph-name="P" unicode="P" horiz-adv-x="512" d="M173 360 C173 360 223 360 223 360 C385 360 493 416 493 542 C493 667 405 750 273 750 C273 750 173 750 173 750 C173 750 150 750 150 750 C150 750 77 750 77 750 C77 750 77 690 77 690 C77 690 86 690 86 690 C124 690 150 661 150 506 C150 506 150 244 150 244 C150 89 124 60 86 60 C86 60 77 60 77 60 C77 60 77 0 77 0 C77 0 150 0 150 0 C150 0 173 0 173 0 C173 0 246 0 246 0 C246 0 246 60 246 60 C246 60 237 60 237 60 C199 60 173 89 173 244 C173 244 173 360 173 360 L173 360 Z M173 365 C173 365 173 506 173 506 C173 506 173 746 173 746 C173 746 267 746 267 746 C390 746 472 666 472 546 C472 421 372 365 223 365 C223 365 173 365 173 365 L173 365 Z " />
<glyph glyph-name="Q" unicode="Q" horiz-adv-x="762" d="M746 -98 C746 -98 744 -96 744 -96 C747 -94 687 -92 595 -92 C521 -92 435 -60 375 -10 C376 -10 376 -10 377 -10 C578 -10 713 144 713 375 C713 606 582 760 387 760 C197 760 71 606 71 375 C71 161 254 13 355 -7 C424 -70 519 -111 592 -111 C675 -111 736 -106 746 -98 L746 -98 Z M378 -4 C375 -4 371 -4 367 -3 C367 -3 367 -3 367 -3 C367 -3 366 -3 366 -3 C276 9 96 158 96 375 C96 602 212 754 386 754 C566 754 687 602 687 375 C687 148 563 -4 378 -4 C378 -4 378 -4 378 -4 L378 -4 Z " />
<glyph glyph-name="R" unicode="R" horiz-adv-x="611" d="M602 0 C602 0 602 13 602 13 C544 13 540 17 488 120 C419 255 371 350 358 375 C450 382 511 434 511 542 C511 667 441 750 337 750 C337 750 167 750 167 750 C167 750 71 750 71 750 C71 750 71 690 71 690 C71 690 81 690 81 690 C119 690 145 661 145 506 C145 506 145 244 145 244 C145 89 119 60 81 60 C81 60 71 60 71 60 C71 60 71 0 71 0 C71 0 240 0 240 0 C240 0 240 60 240 60 C240 60 231 60 231 60 C193 60 167 89 167 244 C167 244 167 374 167 374 C167 374 335 374 335 374 C343 355 392 257 461 120 C521 5 526 0 602 0 C602 0 602 0 602 0 L602 0 Z M167 746 C167 746 330 746 330 746 C424 746 487 666 487 546 C487 440 435 387 355 381 C355 381 355 381 355 381 C355 381 353 381 353 381 C348 380 342 380 337 380 C337 380 167 380 167 380 C167 380 167 506 167 506 C167 506 167 746 167 746 L167 746 Z " />
<glyph glyph-name="S" unicode="S" horiz-adv-x="540" d="M264 751 C264 751 251 754 251 754 C252 754 253 754 255 754 C258 753 261 752 264 751 C317 736 373 658 395 593 C395 593 400 578 400 578 C400 578 455 578 455 578 C455 578 455 641 455 641 C455 641 455 721 455 721 C455 721 400 721 400 721 C400 721 397 710 397 710 C387 718 376 725 364 731 C360 733 356 735 350 737 C316 752 278 760 238 760 C143 760 80 691 80 588 C80 516 156 432 303 363 C422 308 483 234 483 164 C483 64 414 -3 310 -3 C277 -3 245 3 215 14 C189 24 141 122 116 197 C116 197 111 212 111 212 C111 212 55 212 55 212 C55 212 55 149 55 149 C55 149 55 48 55 48 C55 48 111 48 111 48 C111 48 115 68 115 68 C119 64 123 60 128 56 C136 49 149 40 164 31 C208 5 258 -10 310 -10 C425 -10 501 62 501 171 C501 249 438 330 317 387 C172 454 97 532 97 597 C97 691 153 754 238 754 C242 754 247 754 251 754 C251 754 249 754 249 754 C251 754 253 754 264 751 L264 751 Z M395 701 C395 702 395 703 395 703 C395 703 395 703 396 703 C396 703 395 701 395 701 L395 701 Z " />
<glyph glyph-name="T" unicode="T" horiz-adv-x="775" d="M388 750 C161 750 122 762 129 781 C129 781 132 790 132 790 C132 790 102 790 102 790 C83 789 71 789 71 789 C66 776 62 763 57 750 C57 750 55 750 55 750 C55 750 55 745 55 745 C46 721 37 697 29 673 C35 673 77 671 89 671 C105 720 147 743 376 744 C376 744 376 230 376 230 C376 87 350 60 312 60 C312 60 303 60 303 60 C303 60 303 0 303 0 C303 0 472 0 472 0 C472 0 472 60 472 60 C472 60 463 60 463 60 C425 60 399 87 399 230 C399 230 399 744 399 744 C628 743 670 720 686 671 C710 671 722 673 746 673 C738 697 729 721 720 745 C720 745 720 750 720 750 C720 750 718 750 718 750 C713 763 709 776 704 789 C704 789 692 789 673 790 C673 790 643 790 643 790 C643 790 646 781 646 781 C653 762 614 750 388 750 C388 750 388 750 388 750 L388 750 Z " />
<glyph glyph-name="U" unicode="U" horiz-adv-x="604" d="M509 150 C509 150 509 506 509 506 C509 506 509 750 509 750 C509 750 413 750 413 750 C413 750 413 690 413 690 C413 690 422 690 422 690 C461 690 487 661 487 506 C487 506 487 164 487 164 C442 68 339 4 230 4 C171 4 132 90 132 220 C132 220 132 506 132 506 C132 506 132 750 132 750 C132 750 36 750 36 750 C36 750 36 690 36 690 C36 690 46 690 46 690 C84 690 110 661 110 506 C110 506 110 220 110 220 C110 82 154 -10 221 -10 C334 -10 441 55 487 153 C487 153 487 150 487 150 C487 150 487 0 487 0 C487 0 490 0 490 0 C490 0 582 -7 582 -7 C582 -7 582 23 582 23 C521 21 509 37 509 150 L509 150 Z " />
<glyph glyph-name="V" unicode="V" horiz-adv-x="676" d="M129 574 C129 574 300 30 300 30 C300 30 312 -10 312 -10 C312 -10 317 -10 317 -10 C317 -10 466 404 466 404 C554 643 593 690 625 690 C625 690 636 690 636 690 C636 690 636 750 636 750 C636 750 591 750 591 750 C591 750 582 750 582 750 C582 750 467 750 467 750 C467 750 467 690 467 690 C467 690 478 690 478 690 C524 690 539 645 464 418 C464 418 327 31 327 31 C327 31 206 413 206 413 C139 644 157 690 204 690 C204 690 215 690 215 690 C215 690 215 750 215 750 C215 750 100 750 100 750 C100 750 74 750 74 750 C74 750 48 750 48 750 C48 750 48 690 48 690 C48 690 56 690 56 690 C78 690 99 672 128 577 C128 577 129 574 129 574 L129 574 Z " />
<glyph glyph-name="W" unicode="W" horiz-adv-x="983" d="M503 595 C511 563 520 531 528 500 C528 500 304 29 304 29 C304 29 204 379 204 379 C134 640 148 690 189 690 C189 690 200 690 200 690 C200 690 200 750 200 750 C200 750 99 750 99 750 C99 750 74 750 74 750 C74 750 46 750 46 750 C46 750 46 690 46 690 C46 690 54 690 54 690 C76 690 106 636 185 351 C185 351 185 351 185 351 C219 231 252 111 285 -10 C285 -10 291 -10 291 -10 C291 -10 530 490 530 490 C573 323 617 157 660 -10 C660 -10 666 -10 666 -10 C666 -10 796 415 796 415 C868 644 904 690 935 690 C935 690 946 690 946 690 C946 690 946 750 946 750 C946 750 898 750 898 750 C898 750 889 750 889 750 C889 750 773 750 773 750 C773 750 773 690 773 690 C773 690 785 690 785 690 C836 690 854 636 768 351 C768 351 769 351 769 351 C769 351 673 33 673 33 C673 33 557 483 557 483 C517 655 538 690 579 690 C579 690 590 690 590 690 C590 690 590 750 590 750 C590 750 489 750 489 750 C489 750 463 750 463 750 C463 750 412 750 412 750 C412 750 412 690 412 690 C412 690 423 690 423 690 C455 690 480 674 503 595 C503 595 503 595 503 595 L503 595 Z " />
<glyph glyph-name="X" unicode="X" horiz-adv-x="672" d="M366 392 C214 642 203 690 229 690 C229 690 236 690 236 690 C236 690 236 750 236 750 C236 750 148 750 148 750 C148 750 122 750 122 750 C122 750 106 750 106 750 C106 750 106 690 106 690 C106 690 116 690 116 690 C141 690 187 642 338 394 C338 394 349 375 349 375 C349 374 350 374 350 373 C350 373 308 309 308 309 C169 101 117 60 82 60 C82 60 70 60 70 60 C70 60 70 0 70 0 C70 0 104 0 104 0 C104 0 113 0 113 0 C113 0 242 0 242 0 C242 0 242 60 242 60 C242 60 232 60 232 60 C186 60 183 104 326 326 C326 326 353 368 353 368 C509 109 522 60 496 60 C496 60 489 60 489 60 C489 60 489 0 489 0 C489 0 576 0 576 0 C576 0 603 0 603 0 C603 0 625 0 625 0 C625 0 625 60 625 60 C625 60 615 60 615 60 C586 60 536 110 376 375 C374 379 371 383 369 386 C369 386 436 490 436 490 C545 655 586 690 612 690 C612 690 623 690 623 690 C623 690 623 750 623 750 C623 750 602 750 602 750 C602 750 592 750 592 750 C592 750 498 750 498 750 C498 750 498 690 498 690 C498 690 505 690 505 690 C534 690 524 642 366 392 C366 392 366 392 366 392 L366 392 Z " />
<glyph glyph-name="Y" unicode="Y" horiz-adv-x="625" d="M262 456 C155 650 145 690 163 690 C163 690 168 690 168 690 C168 690 168 750 168 750 C168 750 95 750 95 750 C95 750 69 750 69 750 C69 750 58 750 58 750 C58 750 58 690 58 690 C58 690 67 690 67 690 C86 690 125 646 253 427 C253 427 305 336 305 336 C305 336 305 230 305 230 C305 87 279 60 241 60 C241 60 232 60 232 60 C232 60 232 0 232 0 C232 0 401 0 401 0 C401 0 401 60 401 60 C401 60 392 60 392 60 C354 60 328 87 328 230 C328 230 328 336 328 336 C328 336 376 424 376 424 C501 645 545 690 571 690 C571 690 582 690 582 690 C582 690 582 750 582 750 C582 750 556 750 556 750 C556 750 544 750 544 750 C544 750 471 750 471 750 C471 750 471 690 471 690 C471 690 477 690 477 690 C496 690 493 660 423 525 C423 525 326 344 326 344 C326 344 262 456 262 456 L262 456 Z " />
<glyph glyph-name="Z" unicode="Z" horiz-adv-x="642" d="M49 0 C49 0 151 0 151 0 C151 0 606 0 606 0 C615 37 625 73 634 111 C634 111 622 112 604 112 C586 113 574 113 574 113 C574 113 548 83 548 83 C512 40 443 10 219 6 C219 6 53 5 53 5 C53 5 610 745 610 745 C610 745 610 750 610 750 C610 750 588 750 588 750 C588 750 553 750 553 750 C553 750 70 750 70 750 C64 711 60 669 53 629 C53 629 69 628 92 628 C116 627 131 626 131 626 C131 626 140 647 140 647 C164 703 232 740 500 745 C500 745 584 745 584 745 C584 745 25 5 25 5 C25 5 25 0 25 0 C25 0 49 0 49 0 L49 0 Z " />
<glyph glyph-name="bracketleft" unicode="&#x5b;" horiz-adv-x="277" d="M117 744 C117 744 327 744 327 744 C327 744 327 750 327 750 C327 750 117 750 117 750 C117 750 110 750 110 750 C110 750 110 -195 110 -195 C110 -195 117 -195 117 -195 C117 -195 327 -195 327 -195 C327 -195 327 -189 327 -189 C327 -189 117 -189 117 -189 C117 -189 117 744 117 744 L117 744 Z " />
<glyph glyph-name="backslash" unicode="&#x5c;" horiz-adv-x="327" d="M46 770 C46 770 306 -80 306 -80 C306 -80 318 -80 318 -80 C318 -80 58 770 58 770 C58 770 46 770 46 770 L46 770 Z " />
<glyph glyph-name="bracketright" unicode="&#x5d;" horiz-adv-x="280" d="M163 744 C163 744 163 -189 163 -189 C163 -189 -47 -189 -47 -189 C-47 -189 -47 -195 -47 -195 C-47 -195 163 -195 163 -195 C163 -195 170 -195 170 -195 C170 -195 170 750 170 750 C170 750 163 750 163 750 C163 750 -47 750 -47 750 C-47 750 -47 744 -47 744 C-47 744 163 744 163 744 L163 744 Z " />
<glyph glyph-name="underscore" unicode="&#x5f;" horiz-adv-x="455" d="M5 -50 C5 -50 5 -61 5 -61 C5 -61 450 -61 450 -61 C450 -61 450 -50 450 -50 C450 -50 5 -50 5 -50 L5 -50 Z " />
<glyph glyph-name="a" unicode="a" horiz-adv-x="511" d="M522 56 C522 56 514 60 514 60 C509 29 487 9 459 9 C424 9 400 31 400 64 C400 64 400 361 400 361 C400 464 346 510 266 510 C155 510 81 414 81 360 C81 356 84 354 89 354 C96 354 101 357 101 358 C101 364 93 367 93 370 C93 418 159 504 259 504 C332 504 380 462 380 368 C380 368 380 268 380 268 C122 190 61 161 61 74 C61 24 107 -10 177 -10 C255 -10 327 18 380 91 C380 91 380 64 380 64 C380 23 408 -5 451 -5 C487 -5 515 20 522 56 C522 56 522 56 522 56 L522 56 Z M380 264 C380 264 380 97 380 97 C331 28 262 1 188 1 C124 1 81 31 81 76 C81 163 138 190 380 264 L380 264 Z " />
<glyph glyph-name="b" unicode="b" horiz-adv-x="502" d="M96 64 C134 20 203 -10 271 -10 C383 -10 458 94 458 251 C458 403 374 505 247 505 C205 505 149 466 108 409 C108 409 108 456 108 456 C108 456 108 750 108 750 C108 750 105 750 105 750 C105 750 29 728 29 728 C29 728 29 668 29 668 C29 668 38 670 38 670 C68 679 88 648 88 451 C88 451 88 0 88 0 C88 0 90 0 90 0 C90 0 96 64 96 64 L96 64 Z M108 403 C149 459 201 497 239 497 C357 497 436 397 436 248 C436 96 370 -5 272 -5 C212 -5 147 25 108 70 C108 70 108 195 108 195 C108 195 108 403 108 403 L108 403 Z " />
<glyph glyph-name="c" unicode="c" horiz-adv-x="439" d="M410 128 C410 128 407 129 407 129 C373 53 301 2 228 2 C133 2 70 103 70 254 C70 404 137 505 237 505 C310 505 374 465 395 405 C396 403 399 401 403 401 C408 401 410 403 410 405 C386 468 318 510 238 510 C125 510 50 403 50 242 C50 91 119 -10 221 -10 C297 -10 373 45 410 128 L410 128 Z " />
<glyph glyph-name="d" unicode="d" horiz-adv-x="574" d="M494 84 C460 35 389 3 319 3 C177 3 83 106 83 261 C83 407 171 504 341 504 C398 504 463 450 494 387 C494 387 494 150 494 150 C494 150 494 84 494 84 L494 84 Z M494 77 C494 77 494 -10 494 -10 C494 -10 497 -10 497 -10 C497 -10 573 9 573 9 C573 9 573 69 573 69 C535 61 514 62 514 154 C514 154 514 563 514 563 C514 563 514 750 514 750 C514 750 510 750 510 750 C510 750 435 728 435 728 C435 728 435 668 435 668 C435 668 444 670 444 670 C474 679 494 665 494 558 C494 558 494 412 494 412 C459 467 397 510 339 510 C157 510 63 408 63 256 C63 99 162 -5 310 -5 C385 -5 459 27 494 77 C494 77 494 77 494 77 L494 77 Z " />
<glyph glyph-name="e" unicode="e" horiz-adv-x="534" d="M91 340 C91 340 482 340 482 340 C482 340 504 340 504 340 C482 462 406 510 304 510 C156 510 58 401 58 238 C58 89 147 -10 281 -10 C377 -10 462 48 494 134 C494 134 491 135 491 135 C462 56 380 3 286 3 C162 3 79 100 79 246 C79 280 83 311 91 340 L91 340 Z M499 346 C499 346 499 346 499 346 C499 346 499 346 499 346 C499 346 499 346 499 346 L499 346 Z M481 346 C481 346 93 345 93 345 C123 444 199 505 302 505 C391 505 459 461 481 346 C481 346 481 346 481 346 L481 346 Z " />
<glyph glyph-name="f" unicode="f" horiz-adv-x="304" d="M136 489 C136 489 295 489 295 489 C295 489 295 500 295 500 C295 500 136 500 136 500 C136 649 180 749 264 749 C331 749 333 662 388 662 C399 662 406 669 406 680 C406 725 352 755 271 755 C169 755 116 653 116 500 C116 500 6 492 6 492 C6 492 6 489 6 489 C6 489 116 489 116 489 C116 489 116 103 116 103 C116 67 96 60 66 60 C66 60 57 60 57 60 C57 60 57 0 57 0 C57 0 196 0 196 0 C196 0 196 60 196 60 C196 60 187 60 187 60 C156 60 136 67 136 103 C136 103 136 489 136 489 L136 489 Z " />
<glyph glyph-name="g" unicode="g" horiz-adv-x="520" d="M111 350 C111 443 172 505 263 505 C354 505 415 443 415 350 C415 256 354 193 263 193 C172 193 111 256 111 350 L111 350 Z M181 32 C183 32 186 32 188 32 C188 32 300 32 300 32 C421 32 468 -18 468 -93 C468 -172 390 -225 273 -225 C154 -225 75 -170 75 -86 C75 -31 117 16 181 32 C181 32 181 32 181 32 L181 32 Z M176 32 C106 15 59 -34 59 -91 C59 -174 144 -230 272 -230 C400 -230 485 -173 485 -88 C485 -4 434 52 302 52 C302 52 189 52 189 52 C121 52 76 77 76 115 C76 159 151 188 263 188 C366 188 435 253 435 350 C435 360 434 370 433 379 C439 444 475 487 527 487 C552 487 568 467 568 438 C568 434 572 431 577 431 C582 431 585 435 585 440 C585 473 565 495 535 495 C479 495 439 452 431 387 C416 462 352 510 263 510 C160 510 91 446 91 350 C91 265 144 205 226 191 C127 185 64 154 64 110 C64 66 109 35 176 32 C176 32 176 32 176 32 L176 32 Z " />
<glyph glyph-name="h" unicode="h" horiz-adv-x="508" d="M388 103 C388 67 368 60 338 60 C338 60 329 60 329 60 C329 60 329 0 329 0 C329 0 468 0 468 0 C468 0 468 60 468 60 C468 60 459 60 459 60 C428 60 408 67 408 103 C408 103 408 395 408 395 C408 464 371 510 298 510 C248 510 181 454 132 369 C132 369 132 456 132 456 C132 456 132 750 132 750 C132 750 129 750 129 750 C129 750 53 728 53 728 C53 728 53 668 53 668 C53 668 62 670 62 670 C92 679 112 648 112 451 C112 451 112 103 112 103 C112 67 92 60 62 60 C62 60 53 60 53 60 C53 60 53 0 53 0 C53 0 192 0 192 0 C192 0 192 60 192 60 C192 60 183 60 183 60 C152 60 132 67 132 103 C132 103 132 363 132 363 C178 443 240 496 287 496 C354 496 388 456 388 395 C388 395 388 103 388 103 L388 103 Z " />
<glyph glyph-name="i" unicode="i" horiz-adv-x="231" d="M131 615 C143 615 151 623 151 635 C151 647 143 655 131 655 C119 655 111 647 111 635 C111 623 119 615 131 615 L131 615 Z M141 103 C141 103 141 206 141 206 C141 206 141 500 141 500 C141 500 138 500 138 500 C138 500 62 478 62 478 C62 478 62 418 62 418 C62 418 71 420 71 420 C101 429 121 398 121 201 C121 201 121 103 121 103 C121 67 104 60 78 60 C78 60 69 60 69 60 C69 60 69 0 69 0 C69 0 194 0 194 0 C194 0 194 60 194 60 C194 60 185 60 185 60 C158 60 141 67 141 103 L141 103 Z " />
<glyph glyph-name="j" unicode="j" horiz-adv-x="221" d="M121 615 C133 615 141 623 141 635 C141 647 133 655 121 655 C109 655 101 647 101 635 C101 623 109 615 121 615 L121 615 Z M111 201 C111 201 111 12 111 12 C111 -58 96 -114 72 -127 C36 -127 -7 -100 -44 -100 C-71 -100 -89 -116 -89 -140 C-89 -169 -65 -187 -29 -185 C-22 -184 20 -162 76 -130 C109 -111 131 -54 131 12 C131 12 131 206 131 206 C131 206 131 500 131 500 C131 500 128 500 128 500 C128 500 52 478 52 478 C52 478 52 418 52 418 C52 418 61 420 61 420 C91 429 111 398 111 201 L111 201 Z " />
<glyph glyph-name="k" unicode="k" horiz-adv-x="425" d="M379 0 C379 0 372 60 372 60 C372 60 364 60 364 60 C345 60 328 67 301 103 C301 103 301 103 301 103 C301 103 160 289 160 289 C160 289 263 392 263 392 C263 392 269 397 269 397 C305 433 327 440 348 440 C348 440 357 440 357 440 C360 452 371 494 373 500 C373 500 365 500 365 500 C365 500 236 500 236 500 C236 500 236 440 236 440 C236 440 243 440 243 440 C279 440 277 414 141 280 C141 280 141 456 141 456 C141 456 141 750 141 750 C141 750 138 750 138 750 C138 750 62 728 62 728 C62 728 62 668 62 668 C62 668 71 670 71 670 C101 679 121 648 121 451 C121 451 121 103 121 103 C121 67 104 60 78 60 C78 60 69 60 69 60 C69 60 69 0 69 0 C69 0 194 0 194 0 C194 0 194 60 194 60 C194 60 185 60 185 60 C158 60 141 67 141 103 C141 103 141 280 141 280 C141 280 291 82 291 82 C303 64 301 60 296 60 C296 60 294 60 294 60 C294 60 294 0 294 0 C294 0 353 0 353 0 C353 0 379 0 379 0 L379 0 Z " />
<glyph glyph-name="l" unicode="l" horiz-adv-x="221" d="M131 103 C131 103 131 456 131 456 C131 456 131 750 131 750 C131 750 128 750 128 750 C128 750 52 728 52 728 C52 728 52 668 52 668 C52 668 61 670 61 670 C91 679 111 648 111 451 C111 451 111 103 111 103 C111 67 92 60 65 60 C65 60 56 60 56 60 C56 60 56 0 56 0 C56 0 187 0 187 0 C187 0 187 60 187 60 C187 60 178 60 178 60 C150 60 131 67 131 103 L131 103 Z " />
<glyph glyph-name="m" unicode="m" horiz-adv-x="793" d="M683 159 C683 76 666 60 640 60 C640 60 631 60 631 60 C631 60 631 0 631 0 C631 0 763 0 763 0 C763 0 763 60 763 60 C763 60 754 60 754 60 C723 60 703 76 703 159 C703 159 703 395 703 395 C703 464 667 510 573 510 C525 510 461 457 414 376 C414 376 414 395 414 395 C414 464 378 510 284 510 C236 510 173 456 125 374 C125 374 125 500 125 500 C125 500 122 500 122 500 C122 500 46 472 46 472 C46 472 46 412 46 412 C46 412 55 415 55 415 C85 426 105 396 105 200 C105 200 105 159 105 159 C105 76 85 60 55 60 C55 60 46 60 46 60 C46 60 46 0 46 0 C46 0 174 0 174 0 C174 0 174 60 174 60 C174 60 165 60 165 60 C141 60 125 76 125 159 C125 159 125 206 125 206 C125 206 125 368 125 368 C170 444 230 495 276 495 C361 495 394 455 394 395 C394 395 394 159 394 159 C394 76 377 60 351 60 C351 60 342 60 342 60 C342 60 342 0 342 0 C342 0 460 0 460 0 C460 0 460 60 460 60 C460 60 451 60 451 60 C429 60 414 76 414 159 C414 159 414 370 414 370 C458 445 518 495 565 495 C650 495 683 455 683 395 C683 395 683 159 683 159 L683 159 Z " />
<glyph glyph-name="n" unicode="n" horiz-adv-x="504" d="M125 363 C171 442 230 495 272 495 C353 495 394 455 394 395 C394 395 394 103 394 103 C394 67 375 60 348 60 C348 60 339 60 339 60 C339 60 339 0 339 0 C339 0 470 0 470 0 C470 0 470 60 470 60 C470 60 461 60 461 60 C433 60 414 67 414 103 C414 103 414 395 414 395 C414 464 370 510 284 510 C238 510 174 454 125 369 C125 369 125 500 125 500 C125 500 122 500 122 500 C122 500 46 472 46 472 C46 472 46 412 46 412 C46 412 55 415 55 415 C85 426 105 396 105 200 C105 200 105 103 105 103 C105 67 86 60 59 60 C59 60 50 60 50 60 C50 60 50 0 50 0 C50 0 181 0 181 0 C181 0 181 60 181 60 C181 60 172 60 172 60 C144 60 125 67 125 103 C125 103 125 206 125 206 C125 206 125 363 125 363 L125 363 Z " />
<glyph glyph-name="o" unicode="o" horiz-adv-x="609" d="M311 -4 C173 -4 81 98 81 250 C81 402 173 504 311 504 C450 504 542 402 542 250 C542 98 450 -4 311 -4 L311 -4 Z M58 250 C58 94 159 -10 311 -10 C463 -10 564 94 564 250 C564 406 463 510 311 510 C159 510 58 406 58 250 L58 250 Z " />
<glyph glyph-name="p" unicode="p" horiz-adv-x="525" d="M126 420 C155 470 208 502 259 502 C379 502 459 399 459 245 C459 113 382 0 266 0 C215 0 160 46 126 116 C126 116 126 206 126 206 C126 206 126 420 126 420 L126 420 Z M126 428 C126 428 126 500 126 500 C126 500 123 500 123 500 C123 500 47 472 47 472 C47 472 47 412 47 412 C47 412 56 415 56 415 C86 426 106 396 106 200 C106 200 106 -15 106 -15 C106 -137 86 -160 56 -160 C56 -160 47 -160 47 -160 C47 -160 47 -220 47 -220 C47 -220 186 -220 186 -220 C186 -220 186 -160 186 -160 C186 -160 177 -160 177 -160 C146 -160 126 -137 126 -15 C126 -15 126 99 126 99 C161 36 216 -5 268 -5 C396 -5 481 113 481 252 C481 407 396 510 268 510 C212 510 156 478 126 428 C126 428 126 428 126 428 L126 428 Z " />
<glyph glyph-name="q" unicode="q" horiz-adv-x="607" d="M496 -117 C496 -117 496 500 496 500 C496 500 495 500 495 500 C495 500 488 440 488 440 C448 482 379 510 317 510 C148 510 61 408 61 256 C61 99 158 -5 303 -5 C373 -5 441 26 476 72 C476 72 476 -117 476 -117 C476 -153 456 -160 426 -160 C426 -160 416 -160 416 -160 C416 -160 416 -220 416 -220 C416 -220 555 -220 555 -220 C555 -220 555 -160 555 -160 C555 -160 546 -160 546 -160 C516 -160 496 -153 496 -117 L496 -117 Z M476 428 C476 428 476 79 476 79 C442 34 377 3 311 3 C174 3 82 106 82 261 C82 407 162 505 316 505 C368 505 432 474 476 428 C476 428 476 428 476 428 L476 428 Z " />
<glyph glyph-name="r" unicode="r" horiz-adv-x="324" d="M131 370 C155 449 209 501 267 501 C281 501 291 487 291 466 C291 459 296 454 302 454 C309 454 314 459 314 466 C314 492 299 510 276 510 C212 510 155 458 131 381 C131 381 131 500 131 500 C131 500 128 500 128 500 C128 500 52 472 52 472 C52 472 52 412 52 412 C52 412 61 415 61 415 C91 426 111 396 111 200 C111 200 111 103 111 103 C111 67 94 60 68 60 C68 60 59 60 59 60 C59 60 59 0 59 0 C59 0 191 0 191 0 C191 0 191 60 191 60 C191 60 182 60 182 60 C151 60 131 67 131 103 C131 103 131 206 131 206 C131 206 131 370 131 370 L131 370 Z " />
<glyph glyph-name="s" unicode="s" horiz-adv-x="431" d="M288 488 C280 494 260 502 234 507 C234 507 232 507 232 507 C221 509 209 510 197 510 C127 510 81 465 81 396 C81 339 136 281 244 242 C324 213 366 162 366 108 C366 40 319 -5 248 -5 C181 -5 136 70 136 132 C136 132 136 143 136 143 C136 143 76 143 76 143 C76 143 76 96 76 96 C76 96 76 36 76 36 C76 36 122 36 122 36 C156 7 201 -10 248 -10 C329 -10 382 39 382 114 C382 172 338 227 253 258 C149 295 96 350 96 403 C96 464 136 505 197 505 C253 505 291 440 291 387 C291 387 291 376 291 376 C291 376 352 376 352 376 C352 376 352 424 352 424 C352 424 352 504 352 504 C352 504 291 504 291 504 C291 504 291 486 291 486 C290 487 289 488 288 488 L288 488 Z M157 19 C148 24 139 29 131 36 C131 36 136 36 136 36 C136 36 136 51 136 51 C136 41 143 29 157 19 L157 19 Z " />
<glyph glyph-name="t" unicode="t" horiz-adv-x="306" d="M269 500 C269 500 115 500 115 500 C115 500 115 620 115 620 C115 620 114 620 114 620 C114 620 30 500 30 500 C30 500 30 490 30 490 C30 490 95 490 95 490 C95 490 95 103 95 103 C95 22 135 -10 196 -10 C225 -10 266 12 296 45 C296 45 294 46 294 46 C268 18 231 -1 202 -1 C149 -1 114 27 114 98 C114 98 115 489 115 489 C115 489 269 489 269 489 C269 489 269 500 269 500 L269 500 Z " />
<glyph glyph-name="u" unicode="u" horiz-adv-x="483" d="M378 130 C378 130 378 129 378 129 C346 53 284 4 220 4 C153 4 109 66 109 160 C109 160 109 397 109 397 C109 397 109 500 109 500 C109 500 43 500 43 500 C43 500 43 440 43 440 C43 440 52 440 52 440 C74 440 89 433 89 397 C89 397 89 160 89 160 C89 58 138 -10 210 -10 C278 -10 344 42 378 124 C378 124 378 -10 378 -10 C378 -10 382 -10 382 -10 C382 -10 458 9 458 9 C458 9 458 69 458 69 C421 61 398 59 398 134 C398 134 398 397 398 397 C398 397 398 500 398 500 C398 500 332 500 332 500 C332 500 332 440 332 440 C332 440 341 440 341 440 C363 440 378 433 378 397 C378 397 378 130 378 130 L378 130 Z " />
<glyph glyph-name="v" unicode="v" horiz-adv-x="440" d="M97 373 C97 373 193 -10 193 -10 C193 -10 199 -10 199 -10 C199 -10 306 309 306 309 C306 309 306 309 306 309 C342 419 369 440 399 440 C399 440 409 440 409 440 C409 440 409 500 409 500 C409 500 370 500 370 500 C370 500 361 500 361 500 C361 500 294 500 294 500 C294 500 294 440 294 440 C294 440 302 440 302 440 C325 440 337 426 313 355 C313 355 313 354 313 354 C313 354 202 17 202 17 C202 17 115 383 115 383 C105 430 115 440 132 440 C132 440 139 440 139 440 C139 440 139 500 139 500 C139 500 87 500 87 500 C87 500 65 500 65 500 C65 500 31 500 31 500 C31 500 31 440 31 440 C31 440 40 440 40 440 C63 440 81 429 97 373 C97 373 97 373 97 373 L97 373 Z " />
<glyph glyph-name="w" unicode="w" horiz-adv-x="685" d="M345 393 C345 393 354 350 354 350 C354 350 354 350 354 350 C354 350 241 -10 241 -10 C241 -10 249 17 249 17 C249 17 175 384 175 384 C175 384 175 384 175 384 C164 431 173 440 190 440 C190 440 197 440 197 440 C197 440 197 500 197 500 C197 500 151 500 151 500 C151 500 129 500 129 500 C129 500 96 500 96 500 C96 500 96 440 96 440 C96 440 105 440 105 440 C127 440 144 431 154 384 C154 384 154 384 154 384 C154 384 241 -10 241 -10 C241 -10 247 -10 247 -10 C247 -10 357 336 357 336 C357 336 434 -10 434 -10 C434 -10 440 -10 440 -10 C440 -10 551 312 551 312 C551 312 550 309 550 309 C586 419 613 440 643 440 C643 440 654 440 654 440 C654 440 654 500 654 500 C654 500 615 500 615 500 C615 500 606 500 606 500 C606 500 539 500 539 500 C539 500 539 440 539 440 C539 440 547 440 547 440 C570 440 581 428 560 365 C560 365 559 362 559 362 C559 362 434 -10 434 -10 C434 -10 443 17 443 17 C443 17 366 389 366 389 C358 432 367 440 383 440 C383 440 389 440 389 440 C389 440 389 500 389 500 C389 500 343 500 343 500 C343 500 321 500 321 500 C321 500 288 500 288 500 C288 500 288 440 288 440 C288 440 297 440 297 440 C318 440 334 432 345 393 L345 393 Z " />
<glyph glyph-name="x" unicode="x" horiz-adv-x="472" d="M178 158 C122 77 95 60 71 60 C71 60 62 60 62 60 C62 60 62 0 62 0 C62 0 75 0 75 0 C75 0 84 0 84 0 C84 0 154 0 154 0 C154 0 154 60 154 60 C154 60 149 60 149 60 C134 60 133 73 170 134 C170 134 234 234 234 234 C234 234 267 182 267 182 C331 80 338 60 330 60 C330 60 327 60 327 60 C327 60 327 0 327 0 C327 0 383 0 383 0 C383 0 407 0 407 0 C407 0 414 0 414 0 C414 0 414 60 414 60 C414 60 405 60 405 60 C385 60 360 77 303 164 C303 164 247 252 247 252 C247 252 284 316 284 316 C284 316 284 316 284 316 C342 420 371 440 398 440 C398 440 407 440 407 440 C407 440 407 500 407 500 C407 500 389 500 389 500 C389 500 380 500 380 500 C380 500 317 500 317 500 C317 500 317 440 317 440 C317 440 322 440 322 440 C336 440 336 424 294 346 C294 346 244 257 244 257 C244 257 206 316 206 316 C206 316 207 316 207 316 C141 420 134 440 142 440 C142 440 146 440 146 440 C146 440 146 500 146 500 C146 500 90 500 90 500 C90 500 65 500 65 500 C65 500 65 440 65 440 C65 440 73 440 73 440 C90 440 108 428 148 370 C148 370 231 239 231 239 C231 239 178 158 178 158 L178 158 Z " />
<glyph glyph-name="y" unicode="y" horiz-adv-x="460" d="M99 379 C99 379 207 -10 207 -10 C207 -10 163 -140 163 -140 C158 -155 146 -165 133 -165 C128 -165 127 -158 122 -158 C115 -158 110 -162 110 -168 C110 -175 115 -180 122 -180 C142 -180 160 -166 167 -145 C167 -145 213 -10 213 -10 C213 -10 324 310 324 310 C324 310 324 309 324 309 C361 419 388 440 418 440 C418 440 428 440 428 440 C428 440 428 500 428 500 C428 500 390 500 390 500 C390 500 381 500 381 500 C381 500 314 500 314 500 C314 500 314 440 314 440 C314 440 322 440 322 440 C345 440 355 426 331 355 C331 355 331 352 331 352 C331 352 207 -10 207 -10 C207 -10 216 17 216 17 C216 17 118 383 118 383 C107 430 116 440 133 440 C133 440 139 440 139 440 C139 440 139 500 139 500 C139 500 87 500 87 500 C87 500 65 500 65 500 C65 500 33 500 33 500 C33 500 33 440 33 440 C33 440 42 440 42 440 C64 440 82 430 99 379 C99 379 99 379 99 379 L99 379 Z " />
<glyph glyph-name="z" unicode="z" horiz-adv-x="457" d="M52 425 C52 425 104 425 104 425 C104 425 115 435 115 435 C155 469 214 492 383 495 C383 495 393 495 393 495 C393 495 22 5 22 5 C22 5 22 0 22 0 C22 0 43 0 43 0 C43 0 397 0 397 0 C397 0 412 0 412 0 C416 25 420 50 422 75 C422 75 372 75 372 75 C372 75 361 66 361 66 C319 31 256 8 82 5 C82 5 47 5 47 5 C47 5 417 495 417 495 C417 495 417 500 417 500 C417 500 397 500 397 500 C397 500 261 500 261 500 C207 500 134 508 137 519 C137 519 140 528 140 528 C140 528 79 528 79 528 C70 493 61 459 52 425 C52 425 52 425 52 425 L52 425 Z " />
<glyph glyph-name="bar" unicode="&#x7c;" horiz-adv-x="135" d="M60 800 C60 800 60 -250 60 -250 C60 -250 76 -250 76 -250 C76 -250 76 800 76 800 C76 800 60 800 60 800 L60 800 Z " />
<glyph glyph-name="exclamdown" unicode="&#xa1;" horiz-adv-x="164" d="M82 505 C70 505 62 497 62 485 C62 473 70 465 82 465 C94 465 102 473 102 485 C102 497 94 505 82 505 L82 505 Z M82 -255 C93 -255 95 -228 94 -188 C94 -188 84 290 84 290 C84 290 80 290 80 290 C80 290 70 -188 70 -188 C69 -228 71 -255 82 -255 L82 -255 Z " />
<glyph glyph-name="cent" unicode="&#xa2;" horiz-adv-x="448" d="M225 575 C225 575 225 509 225 509 C124 496 59 392 59 242 C59 93 126 -7 225 -10 C225 -10 225 -75 225 -75 C225 -75 239 -75 239 -75 C239 -75 239 -10 239 -10 C312 -6 383 48 419 128 C419 128 416 129 416 129 C382 54 311 3 239 2 C239 2 239 505 239 505 C241 505 244 505 246 505 C319 505 383 465 404 405 C405 403 408 401 412 401 C417 401 419 403 419 405 C395 468 327 510 247 510 C244 510 242 510 239 510 C239 510 239 575 239 575 C239 575 225 575 225 575 L225 575 Z M225 3 C137 11 79 109 79 254 C79 393 137 490 225 503 C225 503 225 3 225 3 L225 3 Z " />
<glyph glyph-name="questiondown" unicode="&#xbf;" horiz-adv-x="309" d="M184 505 C172 505 164 497 164 485 C164 473 172 465 184 465 C196 465 204 473 204 485 C204 497 196 505 184 505 L184 505 Z M190 355 C190 355 184 140 184 140 C107 140 71 100 31 40 C15 16 4 -20 4 -51 C4 -176 68 -260 164 -260 C175 -260 183 -254 183 -245 C183 -239 179 -235 172 -235 C167 -235 162 -239 157 -239 C69 -239 10 -163 10 -49 C10 -24 20 7 36 31 C72 84 106 120 191 120 C191 120 194 355 194 355 C194 355 190 355 190 355 L190 355 Z " />
<glyph glyph-name="Agrave" unicode="&#xc0;" horiz-adv-x="661" d="M236 949 C193 993 164 1022 161 1022 C155 1022 151 1017 151 1012 C151 1009 181 981 226 940 C226 940 363 814 363 814 C363 814 366 817 366 817 C366 817 236 949 236 949 L236 949 Z M212 294 C212 294 478 294 478 294 C478 294 481 284 481 284 C533 96 517 60 479 60 C479 60 469 60 469 60 C469 60 469 0 469 0 C469 0 563 0 563 0 C563 0 586 0 586 0 C586 0 635 0 635 0 C635 0 635 60 635 60 C635 60 624 60 624 60 C592 60 555 110 479 368 C479 368 370 743 370 743 C370 743 362 770 362 770 C362 770 360 770 360 770 C357 754 353 744 348 743 C348 743 351 733 351 733 C351 733 350 733 350 733 C350 733 237 387 237 387 C142 115 93 60 48 60 C48 60 36 60 36 60 C36 60 36 0 36 0 C36 0 110 0 110 0 C110 0 117 0 117 0 C117 0 232 0 232 0 C232 0 232 60 232 60 C232 60 221 60 221 60 C173 60 151 92 200 256 C200 256 212 294 212 294 L212 294 Z M214 299 C214 299 353 726 353 726 C353 726 476 299 476 299 C476 299 214 299 214 299 L214 299 Z " />
<glyph glyph-name="Aacute" unicode="&#xc1;" horiz-adv-x="661" d="M364 814 C364 814 501 940 501 940 C547 982 577 1011 577 1012 C577 1017 572 1022 567 1022 C566 1022 536 993 492 949 C492 949 362 817 362 817 C362 817 364 814 364 814 L364 814 Z M212 294 C212 294 478 294 478 294 C478 294 481 284 481 284 C533 96 517 60 479 60 C479 60 469 60 469 60 C469 60 469 0 469 0 C469 0 563 0 563 0 C563 0 586 0 586 0 C586 0 635 0 635 0 C635 0 635 60 635 60 C635 60 624 60 624 60 C592 60 555 110 479 368 C479 368 370 743 370 743 C370 743 362 770 362 770 C362 770 360 770 360 770 C357 754 353 744 348 743 C348 743 351 733 351 733 C351 733 350 733 350 733 C350 733 237 387 237 387 C142 115 93 60 48 60 C48 60 36 60 36 60 C36 60 36 0 36 0 C36 0 110 0 110 0 C110 0 117 0 117 0 C117 0 232 0 232 0 C232 0 232 60 232 60 C232 60 221 60 221 60 C173 60 151 92 200 256 C200 256 212 294 212 294 L212 294 Z M214 299 C214 299 353 726 353 726 C353 726 476 299 476 299 C476 299 214 299 214 299 L214 299 Z " />
<glyph glyph-name="Acircumflex" unicode="&#xc2;" horiz-adv-x="661" d="M359 1007 C359 1007 503 809 503 809 C503 809 505 811 505 811 C505 811 366 1024 366 1024 C364 1026 361 1031 359 1031 C356 1031 353 1026 352 1024 C352 1024 212 811 212 811 C212 811 215 809 215 809 C215 809 359 1007 359 1007 L359 1007 Z M212 294 C212 294 478 294 478 294 C478 294 481 284 481 284 C533 96 517 60 479 60 C479 60 469 60 469 60 C469 60 469 0 469 0 C469 0 563 0 563 0 C563 0 586 0 586 0 C586 0 635 0 635 0 C635 0 635 60 635 60 C635 60 624 60 624 60 C592 60 555 110 479 368 C479 368 370 743 370 743 C370 743 362 770 362 770 C362 770 360 770 360 770 C357 754 353 744 348 743 C348 743 351 733 351 733 C351 733 350 733 350 733 C350 733 237 387 237 387 C142 115 93 60 48 60 C48 60 36 60 36 60 C36 60 36 0 36 0 C36 0 110 0 110 0 C110 0 117 0 117 0 C117 0 232 0 232 0 C232 0 232 60 232 60 C232 60 221 60 221 60 C173 60 151 92 200 256 C200 256 212 294 212 294 L212 294 Z M214 299 C214 299 353 726 353 726 C353 726 476 299 476 299 C476 299 214 299 214 299 L214 299 Z " />
<glyph glyph-name="Atilde" unicode="&#xc3;" horiz-adv-x="661" d="M216 870 C216 913 235 941 264 941 C326 941 386 876 448 876 C482 876 505 906 505 951 C505 951 502 951 502 951 C502 915 482 891 453 891 C391 891 330 956 268 956 C234 956 212 922 212 870 C212 870 216 870 216 870 L216 870 Z M212 294 C212 294 478 294 478 294 C478 294 481 284 481 284 C533 96 517 60 479 60 C479 60 469 60 469 60 C469 60 469 0 469 0 C469 0 563 0 563 0 C563 0 586 0 586 0 C586 0 635 0 635 0 C635 0 635 60 635 60 C635 60 624 60 624 60 C592 60 555 110 479 368 C479 368 370 743 370 743 C370 743 362 770 362 770 C362 770 360 770 360 770 C357 754 353 744 348 743 C348 743 351 733 351 733 C351 733 350 733 350 733 C350 733 237 387 237 387 C142 115 93 60 48 60 C48 60 36 60 36 60 C36 60 36 0 36 0 C36 0 110 0 110 0 C110 0 117 0 117 0 C117 0 232 0 232 0 C232 0 232 60 232 60 C232 60 221 60 221 60 C173 60 151 92 200 256 C200 256 212 294 212 294 L212 294 Z M214 299 C214 299 353 726 353 726 C353 726 476 299 476 299 C476 299 214 299 214 299 L214 299 Z " />
<glyph glyph-name="Adieresis" unicode="&#xc4;" horiz-adv-x="661" d="M422 865 C434 865 442 873 442 885 C442 897 434 905 422 905 C410 905 402 897 402 885 C402 873 410 865 422 865 L422 865 Z M295 865 C307 865 315 873 315 885 C315 897 307 905 295 905 C283 905 275 897 275 885 C275 873 283 865 295 865 L295 865 Z M212 294 C212 294 478 294 478 294 C478 294 481 284 481 284 C533 96 517 60 479 60 C479 60 469 60 469 60 C469 60 469 0 469 0 C469 0 563 0 563 0 C563 0 586 0 586 0 C586 0 635 0 635 0 C635 0 635 60 635 60 C635 60 624 60 624 60 C592 60 555 110 479 368 C479 368 370 743 370 743 C370 743 362 770 362 770 C362 770 360 770 360 770 C357 754 353 744 348 743 C348 743 351 733 351 733 C351 733 350 733 350 733 C350 733 237 387 237 387 C142 115 93 60 48 60 C48 60 36 60 36 60 C36 60 36 0 36 0 C36 0 110 0 110 0 C110 0 117 0 117 0 C117 0 232 0 232 0 C232 0 232 60 232 60 C232 60 221 60 221 60 C173 60 151 92 200 256 C200 256 212 294 212 294 L212 294 Z M214 299 C214 299 353 726 353 726 C353 726 476 299 476 299 C476 299 214 299 214 299 L214 299 Z " />
<glyph glyph-name="Aring" unicode="&#xc5;" horiz-adv-x="661" d="M359 815 C310 815 269 856 269 905 C269 959 305 995 359 995 C412 995 448 959 448 905 C448 856 407 815 359 815 L359 815 Z M263 905 C263 854 307 810 359 810 C410 810 454 854 454 905 C454 962 416 1000 359 1000 C301 1000 263 962 263 905 L263 905 Z M212 294 C212 294 478 294 478 294 C478 294 481 284 481 284 C533 96 517 60 479 60 C479 60 469 60 469 60 C469 60 469 0 469 0 C469 0 563 0 563 0 C563 0 586 0 586 0 C586 0 635 0 635 0 C635 0 635 60 635 60 C635 60 624 60 624 60 C592 60 555 110 479 368 C479 368 370 743 370 743 C370 743 362 770 362 770 C362 770 360 770 360 770 C357 754 353 744 348 743 C348 743 351 733 351 733 C351 733 350 733 350 733 C350 733 237 387 237 387 C142 115 93 60 48 60 C48 60 36 60 36 60 C36 60 36 0 36 0 C36 0 110 0 110 0 C110 0 117 0 117 0 C117 0 232 0 232 0 C232 0 232 60 232 60 C232 60 221 60 221 60 C173 60 151 92 200 256 C200 256 212 294 212 294 L212 294 Z M214 299 C214 299 353 726 353 726 C353 726 476 299 476 299 C476 299 214 299 214 299 L214 299 Z " />
<glyph glyph-name="Egrave" unicode="&#xc8;" horiz-adv-x="564" d="M188 949 C145 993 116 1022 113 1022 C108 1022 103 1017 103 1012 C103 1009 133 981 179 940 C179 940 315 814 315 814 C315 814 318 817 318 817 C318 817 188 949 188 949 L188 949 Z M167 244 C167 244 167 385 167 385 C167 385 177 385 177 385 C328 385 357 350 357 296 C357 296 357 287 357 287 C357 287 417 287 417 287 C417 287 417 385 417 385 C417 385 417 390 417 390 C417 390 417 488 417 488 C417 488 357 488 357 488 C357 488 357 479 357 479 C357 426 328 390 177 390 C177 390 167 390 167 390 C167 390 167 506 167 506 C167 506 167 745 167 745 C419 745 419 714 423 667 C423 667 423 658 423 658 C423 658 484 658 484 658 C482 688 479 719 477 750 C477 750 167 750 167 750 C167 750 145 750 145 750 C145 750 71 750 71 750 C71 750 71 690 71 690 C71 690 81 690 81 690 C119 690 145 661 145 506 C145 506 145 244 145 244 C145 89 119 60 81 60 C81 60 71 60 71 60 C71 60 71 0 71 0 C71 0 145 0 145 0 C145 0 167 0 167 0 C167 0 502 0 502 0 C502 0 511 61 515 92 C515 92 455 92 455 92 C455 92 453 83 453 83 C447 36 399 5 168 5 C168 5 167 5 167 5 C167 5 167 244 167 244 L167 244 Z " />
<glyph glyph-name="Eacute" unicode="&#xc9;" horiz-adv-x="564" d="M317 814 C317 814 453 940 453 940 C499 982 529 1011 529 1012 C529 1017 524 1022 519 1022 C518 1022 488 993 444 949 C444 949 314 817 314 817 C314 817 317 814 317 814 L317 814 Z M167 244 C167 244 167 385 167 385 C167 385 177 385 177 385 C328 385 357 350 357 296 C357 296 357 287 357 287 C357 287 417 287 417 287 C417 287 417 385 417 385 C417 385 417 390 417 390 C417 390 417 488 417 488 C417 488 357 488 357 488 C357 488 357 479 357 479 C357 426 328 390 177 390 C177 390 167 390 167 390 C167 390 167 506 167 506 C167 506 167 745 167 745 C419 745 419 714 423 667 C423 667 423 658 423 658 C423 658 484 658 484 658 C482 688 479 719 477 750 C477 750 167 750 167 750 C167 750 145 750 145 750 C145 750 71 750 71 750 C71 750 71 690 71 690 C71 690 81 690 81 690 C119 690 145 661 145 506 C145 506 145 244 145 244 C145 89 119 60 81 60 C81 60 71 60 71 60 C71 60 71 0 71 0 C71 0 145 0 145 0 C145 0 167 0 167 0 C167 0 502 0 502 0 C502 0 511 61 515 92 C515 92 455 92 455 92 C455 92 453 83 453 83 C447 36 399 5 168 5 C168 5 167 5 167 5 C167 5 167 244 167 244 L167 244 Z " />
<glyph glyph-name="Ecircumflex" unicode="&#xca;" horiz-adv-x="564" d="M311 1007 C311 1007 455 809 455 809 C455 809 458 811 458 811 C458 811 318 1024 318 1024 C317 1026 313 1031 311 1031 C309 1031 305 1026 304 1024 C304 1024 164 811 164 811 C164 811 167 809 167 809 C167 809 311 1007 311 1007 L311 1007 Z M167 244 C167 244 167 385 167 385 C167 385 177 385 177 385 C328 385 357 350 357 296 C357 296 357 287 357 287 C357 287 417 287 417 287 C417 287 417 385 417 385 C417 385 417 390 417 390 C417 390 417 488 417 488 C417 488 357 488 357 488 C357 488 357 479 357 479 C357 426 328 390 177 390 C177 390 167 390 167 390 C167 390 167 506 167 506 C167 506 167 745 167 745 C419 745 419 714 423 667 C423 667 423 658 423 658 C423 658 484 658 484 658 C482 688 479 719 477 750 C477 750 167 750 167 750 C167 750 145 750 145 750 C145 750 71 750 71 750 C71 750 71 690 71 690 C71 690 81 690 81 690 C119 690 145 661 145 506 C145 506 145 244 145 244 C145 89 119 60 81 60 C81 60 71 60 71 60 C71 60 71 0 71 0 C71 0 145 0 145 0 C145 0 167 0 167 0 C167 0 502 0 502 0 C502 0 511 61 515 92 C515 92 455 92 455 92 C455 92 453 83 453 83 C447 36 399 5 168 5 C168 5 167 5 167 5 C167 5 167 244 167 244 L167 244 Z " />
<glyph glyph-name="Edieresis" unicode="&#xcb;" horiz-adv-x="564" d="M375 865 C387 865 395 873 395 885 C395 897 387 905 375 905 C363 905 355 897 355 885 C355 873 363 865 375 865 L375 865 Z M247 865 C259 865 267 873 267 885 C267 897 259 905 247 905 C235 905 227 897 227 885 C227 873 235 865 247 865 L247 865 Z M167 244 C167 244 167 385 167 385 C167 385 177 385 177 385 C328 385 357 350 357 296 C357 296 357 287 357 287 C357 287 417 287 417 287 C417 287 417 385 417 385 C417 385 417 390 417 390 C417 390 417 488 417 488 C417 488 357 488 357 488 C357 488 357 479 357 479 C357 426 328 390 177 390 C177 390 167 390 167 390 C167 390 167 506 167 506 C167 506 167 745 167 745 C419 745 419 714 423 667 C423 667 423 658 423 658 C423 658 484 658 484 658 C482 688 479 719 477 750 C477 750 167 750 167 750 C167 750 145 750 145 750 C145 750 71 750 71 750 C71 750 71 690 71 690 C71 690 81 690 81 690 C119 690 145 661 145 506 C145 506 145 244 145 244 C145 89 119 60 81 60 C81 60 71 60 71 60 C71 60 71 0 71 0 C71 0 145 0 145 0 C145 0 167 0 167 0 C167 0 502 0 502 0 C502 0 511 61 515 92 C515 92 455 92 455 92 C455 92 453 83 453 83 C447 36 399 5 168 5 C168 5 167 5 167 5 C167 5 167 244 167 244 L167 244 Z " />
<glyph glyph-name="Igrave" unicode="&#xcc;" horiz-adv-x="306" d="M47 949 C5 993 -24 1022 -28 1022 C-33 1022 -38 1017 -38 1012 C-38 1009 -8 981 38 940 C38 940 175 814 175 814 C175 814 177 817 177 817 C177 817 47 949 47 949 L47 949 Z M182 230 C182 230 182 520 182 520 C182 663 208 690 246 690 C246 690 255 690 255 690 C255 690 255 750 255 750 C255 750 86 750 86 750 C86 750 86 690 86 690 C86 690 95 690 95 690 C133 690 159 663 159 520 C159 520 159 230 159 230 C159 87 133 60 95 60 C95 60 86 60 86 60 C86 60 86 0 86 0 C86 0 255 0 255 0 C255 0 255 60 255 60 C255 60 246 60 246 60 C208 60 182 87 182 230 L182 230 Z " />
<glyph glyph-name="Iacute" unicode="&#xcd;" horiz-adv-x="306" d="M176 814 C176 814 313 940 313 940 C358 982 388 1011 388 1012 C388 1017 384 1022 378 1022 C377 1022 348 993 304 949 C304 949 174 817 174 817 C174 817 176 814 176 814 L176 814 Z M182 230 C182 230 182 520 182 520 C182 663 208 690 246 690 C246 690 255 690 255 690 C255 690 255 750 255 750 C255 750 86 750 86 750 C86 750 86 690 86 690 C86 690 95 690 95 690 C133 690 159 663 159 520 C159 520 159 230 159 230 C159 87 133 60 95 60 C95 60 86 60 86 60 C86 60 86 0 86 0 C86 0 255 0 255 0 C255 0 255 60 255 60 C255 60 246 60 246 60 C208 60 182 87 182 230 L182 230 Z " />
<glyph glyph-name="Icircumflex" unicode="&#xce;" horiz-adv-x="306" d="M170 1007 C170 1007 314 809 314 809 C314 809 317 811 317 811 C317 811 177 1024 177 1024 C176 1026 173 1031 170 1031 C168 1031 165 1026 163 1024 C163 1024 24 811 24 811 C24 811 26 809 26 809 C26 809 170 1007 170 1007 L170 1007 Z M182 230 C182 230 182 520 182 520 C182 663 208 690 246 690 C246 690 255 690 255 690 C255 690 255 750 255 750 C255 750 86 750 86 750 C86 750 86 690 86 690 C86 690 95 690 95 690 C133 690 159 663 159 520 C159 520 159 230 159 230 C159 87 133 60 95 60 C95 60 86 60 86 60 C86 60 86 0 86 0 C86 0 255 0 255 0 C255 0 255 60 255 60 C255 60 246 60 246 60 C208 60 182 87 182 230 L182 230 Z " />
<glyph glyph-name="Idieresis" unicode="&#xcf;" horiz-adv-x="306" d="M234 865 C246 865 254 873 254 885 C254 897 246 905 234 905 C222 905 214 897 214 885 C214 873 222 865 234 865 L234 865 Z M107 865 C119 865 127 873 127 885 C127 897 119 905 107 905 C95 905 87 897 87 885 C87 873 95 865 107 865 L107 865 Z M182 230 C182 230 182 520 182 520 C182 663 208 690 246 690 C246 690 255 690 255 690 C255 690 255 750 255 750 C255 750 86 750 86 750 C86 750 86 690 86 690 C86 690 95 690 95 690 C133 690 159 663 159 520 C159 520 159 230 159 230 C159 87 133 60 95 60 C95 60 86 60 86 60 C86 60 86 0 86 0 C86 0 255 0 255 0 C255 0 255 60 255 60 C255 60 246 60 246 60 C208 60 182 87 182 230 L182 230 Z " />
<glyph glyph-name="Ntilde" unicode="&#xd1;" horiz-adv-x="710" d="M211 870 C211 913 230 941 259 941 C322 941 382 876 444 876 C478 876 501 906 501 951 C501 951 498 951 498 951 C498 915 478 891 449 891 C386 891 326 956 264 956 C230 956 208 922 208 870 C208 870 211 870 211 870 L211 870 Z M135 750 C135 750 130 750 130 750 C130 750 124 750 124 750 C124 750 107 750 107 750 C107 750 100 750 100 750 C100 750 100 690 100 690 C100 690 109 690 109 690 C114 690 119 689 124 687 C124 687 124 427 124 427 C124 119 94 60 49 60 C49 60 36 60 36 60 C36 60 36 0 36 0 C36 0 124 0 124 0 C124 0 130 0 130 0 C130 0 218 0 218 0 C218 0 218 60 218 60 C218 60 206 60 206 60 C160 60 130 114 130 399 C130 399 130 684 130 684 C148 674 171 649 207 591 C207 591 207 592 207 592 C207 592 559 32 559 32 C559 32 579 0 579 0 C579 0 584 0 584 0 C584 0 585 408 585 408 C585 408 585 408 585 408 C584 645 616 690 663 690 C663 690 672 690 672 690 C672 690 672 750 672 750 C672 750 585 750 585 750 C585 750 579 750 579 750 C579 750 492 750 492 750 C492 750 492 690 492 690 C492 690 501 690 501 690 C548 690 579 645 579 408 C579 408 579 42 579 42 C579 42 578 44 578 44 C578 44 135 750 135 750 L135 750 Z " />
<glyph glyph-name="Ograve" unicode="&#xd2;" horiz-adv-x="767" d="M378 -4 C209 -4 96 148 96 375 C96 602 212 754 386 754 C566 754 687 602 687 375 C687 148 563 -4 378 -4 L378 -4 Z M71 375 C71 144 193 -10 377 -10 C578 -10 713 144 713 375 C713 606 582 760 387 760 C197 760 71 606 71 375 L71 375 Z M263 949 C221 993 192 1022 189 1022 C183 1022 179 1017 179 1012 C179 1009 209 981 254 940 C254 940 391 814 391 814 C391 814 393 817 393 817 C393 817 263 949 263 949 L263 949 Z " />
<glyph glyph-name="Oacute" unicode="&#xd3;" horiz-adv-x="767" d="M392 814 C392 814 529 940 529 940 C575 982 605 1011 605 1012 C605 1017 600 1022 595 1022 C593 1022 564 993 520 949 C520 949 390 817 390 817 C390 817 392 814 392 814 L392 814 Z M378 -4 C209 -4 96 148 96 375 C96 602 212 754 386 754 C566 754 687 602 687 375 C687 148 563 -4 378 -4 L378 -4 Z M71 375 C71 144 193 -10 377 -10 C578 -10 713 144 713 375 C713 606 582 760 387 760 C197 760 71 606 71 375 L71 375 Z " />
<glyph glyph-name="Ocircumflex" unicode="&#xd4;" horiz-adv-x="767" d="M378 -4 C209 -4 96 148 96 375 C96 602 212 754 386 754 C566 754 687 602 687 375 C687 148 563 -4 378 -4 L378 -4 Z M71 375 C71 144 193 -10 377 -10 C578 -10 713 144 713 375 C713 606 582 760 387 760 C197 760 71 606 71 375 L71 375 Z M387 1007 C387 1007 531 809 531 809 C531 809 533 811 533 811 C533 811 394 1024 394 1024 C392 1026 389 1031 387 1031 C384 1031 381 1026 380 1024 C380 1024 240 811 240 811 C240 811 243 809 243 809 C243 809 387 1007 387 1007 L387 1007 Z " />
<glyph glyph-name="Otilde" unicode="&#xd5;" horiz-adv-x="767" d="M243 870 C243 913 262 941 291 941 C354 941 414 876 476 876 C510 876 533 906 533 951 C533 951 530 951 530 951 C530 915 510 891 481 891 C418 891 358 956 296 956 C262 956 240 922 240 870 C240 870 243 870 243 870 L243 870 Z M378 -4 C209 -4 96 148 96 375 C96 602 212 754 386 754 C566 754 687 602 687 375 C687 148 563 -4 378 -4 L378 -4 Z M71 375 C71 144 193 -10 377 -10 C578 -10 713 144 713 375 C713 606 582 760 387 760 C197 760 71 606 71 375 L71 375 Z " />
<glyph glyph-name="Odieresis" unicode="&#xd6;" horiz-adv-x="767" d="M450 865 C462 865 470 873 470 885 C470 897 462 905 450 905 C438 905 430 897 430 885 C430 873 438 865 450 865 L450 865 Z M323 865 C335 865 343 873 343 885 C343 897 335 905 323 905 C311 905 303 897 303 885 C303 873 311 865 323 865 L323 865 Z M378 -4 C209 -4 96 148 96 375 C96 602 212 754 386 754 C566 754 687 602 687 375 C687 148 563 -4 378 -4 L378 -4 Z M71 375 C71 144 193 -10 377 -10 C578 -10 713 144 713 375 C713 606 582 760 387 760 C197 760 71 606 71 375 L71 375 Z " />
<glyph glyph-name="Oslash" unicode="&#xd8;" horiz-adv-x="767" d="M74 -13 C74 -13 160 90 160 90 C213 26 288 -10 377 -10 C578 -10 713 144 713 375 C713 488 682 583 627 650 C627 650 716 757 716 757 C716 757 709 763 709 763 C709 763 621 657 621 657 C564 723 483 760 387 760 C197 760 71 606 71 375 C71 260 101 165 154 97 C154 97 67 -7 67 -7 C67 -7 74 -13 74 -13 L74 -13 Z M378 -4 C292 -4 221 35 171 104 C171 104 615 635 615 635 C661 570 687 481 687 375 C687 148 563 -4 378 -4 C378 -4 378 -4 378 -4 L378 -4 Z M166 111 C121 177 96 268 96 375 C96 602 212 754 386 754 C479 754 556 714 609 643 C609 643 166 111 166 111 L166 111 Z " />
<glyph glyph-name="Ugrave" unicode="&#xd9;" horiz-adv-x="604" d="M186 949 C144 993 115 1022 111 1022 C106 1022 101 1017 101 1012 C101 1009 131 981 177 940 C177 940 314 814 314 814 C314 814 316 817 316 817 C316 817 186 949 186 949 L186 949 Z M509 150 C509 150 509 506 509 506 C509 506 509 750 509 750 C509 750 413 750 413 750 C413 750 413 690 413 690 C413 690 422 690 422 690 C461 690 487 661 487 506 C487 506 487 164 487 164 C442 68 339 4 230 4 C171 4 132 90 132 220 C132 220 132 506 132 506 C132 506 132 750 132 750 C132 750 36 750 36 750 C36 750 36 690 36 690 C36 690 46 690 46 690 C84 690 110 661 110 506 C110 506 110 220 110 220 C110 82 154 -10 221 -10 C334 -10 441 55 487 153 C487 153 487 150 487 150 C487 150 487 0 487 0 C487 0 490 0 490 0 C490 0 582 -7 582 -7 C582 -7 582 23 582 23 C521 21 509 37 509 150 L509 150 Z " />
<glyph glyph-name="Uacute" unicode="&#xda;" horiz-adv-x="604" d="M315 814 C315 814 452 940 452 940 C497 982 527 1011 527 1012 C527 1017 523 1022 517 1022 C516 1022 487 993 442 949 C442 949 312 817 312 817 C312 817 315 814 315 814 L315 814 Z M509 150 C509 150 509 506 509 506 C509 506 509 750 509 750 C509 750 413 750 413 750 C413 750 413 690 413 690 C413 690 422 690 422 690 C461 690 487 661 487 506 C487 506 487 164 487 164 C442 68 339 4 230 4 C171 4 132 90 132 220 C132 220 132 506 132 506 C132 506 132 750 132 750 C132 750 36 750 36 750 C36 750 36 690 36 690 C36 690 46 690 46 690 C84 690 110 661 110 506 C110 506 110 220 110 220 C110 82 154 -10 221 -10 C334 -10 441 55 487 153 C487 153 487 150 487 150 C487 150 487 0 487 0 C487 0 490 0 490 0 C490 0 582 -7 582 -7 C582 -7 582 23 582 23 C521 21 509 37 509 150 L509 150 Z " />
<glyph glyph-name="Ucircumflex" unicode="&#xdb;" horiz-adv-x="604" d="M309 1007 C309 1007 453 809 453 809 C453 809 456 811 456 811 C456 811 316 1024 316 1024 C315 1026 312 1031 309 1031 C307 1031 304 1026 302 1024 C302 1024 163 811 163 811 C163 811 165 809 165 809 C165 809 309 1007 309 1007 L309 1007 Z M509 150 C509 150 509 506 509 506 C509 506 509 750 509 750 C509 750 413 750 413 750 C413 750 413 690 413 690 C413 690 422 690 422 690 C461 690 487 661 487 506 C487 506 487 164 487 164 C442 68 339 4 230 4 C171 4 132 90 132 220 C132 220 132 506 132 506 C132 506 132 750 132 750 C132 750 36 750 36 750 C36 750 36 690 36 690 C36 690 46 690 46 690 C84 690 110 661 110 506 C110 506 110 220 110 220 C110 82 154 -10 221 -10 C334 -10 441 55 487 153 C487 153 487 150 487 150 C487 150 487 0 487 0 C487 0 490 0 490 0 C490 0 582 -7 582 -7 C582 -7 582 23 582 23 C521 21 509 37 509 150 L509 150 Z " />
<glyph glyph-name="Udieresis" unicode="&#xdc;" horiz-adv-x="604" d="M373 865 C385 865 393 873 393 885 C393 897 385 905 373 905 C361 905 353 897 353 885 C353 873 361 865 373 865 L373 865 Z M246 865 C258 865 266 873 266 885 C266 897 258 905 246 905 C234 905 226 897 226 885 C226 873 234 865 246 865 L246 865 Z M509 150 C509 150 509 506 509 506 C509 506 509 750 509 750 C509 750 413 750 413 750 C413 750 413 690 413 690 C413 690 422 690 422 690 C461 690 487 661 487 506 C487 506 487 164 487 164 C442 68 339 4 230 4 C171 4 132 90 132 220 C132 220 132 506 132 506 C132 506 132 750 132 750 C132 750 36 750 36 750 C36 750 36 690 36 690 C36 690 46 690 46 690 C84 690 110 661 110 506 C110 506 110 220 110 220 C110 82 154 -10 221 -10 C334 -10 441 55 487 153 C487 153 487 150 487 150 C487 150 487 0 487 0 C487 0 490 0 490 0 C490 0 582 -7 582 -7 C582 -7 582 23 582 23 C521 21 509 37 509 150 L509 150 Z " />
<glyph glyph-name="Yacute" unicode="&#xdd;" horiz-adv-x="625" d="M322 814 C322 814 459 940 459 940 C505 982 535 1011 535 1012 C535 1017 530 1022 525 1022 C523 1022 494 993 450 949 C450 949 320 817 320 817 C320 817 322 814 322 814 L322 814 Z M262 456 C155 650 145 690 163 690 C163 690 168 690 168 690 C168 690 168 750 168 750 C168 750 95 750 95 750 C95 750 69 750 69 750 C69 750 58 750 58 750 C58 750 58 690 58 690 C58 690 67 690 67 690 C86 690 125 646 253 427 C253 427 305 336 305 336 C305 336 305 230 305 230 C305 87 279 60 241 60 C241 60 232 60 232 60 C232 60 232 0 232 0 C232 0 401 0 401 0 C401 0 401 60 401 60 C401 60 392 60 392 60 C354 60 328 87 328 230 C328 230 328 336 328 336 C328 336 376 424 376 424 C501 645 545 690 571 690 C571 690 582 690 582 690 C582 690 582 750 582 750 C582 750 556 750 556 750 C556 750 544 750 544 750 C544 750 471 750 471 750 C471 750 471 690 471 690 C471 690 477 690 477 690 C496 690 493 660 423 525 C423 525 326 344 326 344 C326 344 262 456 262 456 L262 456 Z " />
<glyph glyph-name="agrave" unicode="&#xe0;" horiz-adv-x="511" d="M522 56 C522 56 514 60 514 60 C509 29 487 9 459 9 C424 9 400 31 400 64 C400 64 400 361 400 361 C400 464 346 510 266 510 C155 510 81 414 81 360 C81 356 84 354 89 354 C96 354 101 357 101 358 C101 364 93 367 93 370 C93 418 159 504 259 504 C332 504 380 462 380 368 C380 368 380 268 380 268 C122 190 61 161 61 74 C61 24 107 -10 177 -10 C255 -10 327 18 380 91 C380 91 380 64 380 64 C380 23 408 -5 451 -5 C487 -5 515 20 522 56 C522 56 522 56 522 56 L522 56 Z M143 699 C100 743 71 772 68 772 C63 772 58 767 58 762 C58 759 88 731 134 690 C134 690 270 564 270 564 C270 564 273 567 273 567 C273 567 143 699 143 699 L143 699 Z M380 264 C380 264 380 97 380 97 C331 28 262 1 188 1 C124 1 81 31 81 76 C81 163 138 190 380 264 L380 264 Z " />
<glyph glyph-name="aacute" unicode="&#xe1;" horiz-adv-x="511" d="M272 564 C272 564 408 690 408 690 C454 732 484 761 484 762 C484 767 479 772 474 772 C473 772 443 743 399 699 C399 699 269 567 269 567 C269 567 272 564 272 564 L272 564 Z M522 56 C522 56 514 60 514 60 C509 29 487 9 459 9 C424 9 400 31 400 64 C400 64 400 361 400 361 C400 464 346 510 266 510 C155 510 81 414 81 360 C81 356 84 354 89 354 C96 354 101 357 101 358 C101 364 93 367 93 370 C93 418 159 504 259 504 C332 504 380 462 380 368 C380 368 380 268 380 268 C122 190 61 161 61 74 C61 24 107 -10 177 -10 C255 -10 327 18 380 91 C380 91 380 64 380 64 C380 23 408 -5 451 -5 C487 -5 515 20 522 56 C522 56 522 56 522 56 L522 56 Z M380 264 C380 264 380 97 380 97 C331 28 262 1 188 1 C124 1 81 31 81 76 C81 163 138 190 380 264 L380 264 Z " />
<glyph glyph-name="acircumflex" unicode="&#xe2;" horiz-adv-x="511" d="M522 56 C522 56 514 60 514 60 C509 29 487 9 459 9 C424 9 400 31 400 64 C400 64 400 361 400 361 C400 464 346 510 266 510 C155 510 81 414 81 360 C81 356 84 354 89 354 C96 354 101 357 101 358 C101 364 93 367 93 370 C93 418 159 504 259 504 C332 504 380 462 380 368 C380 368 380 268 380 268 C122 190 61 161 61 74 C61 24 107 -10 177 -10 C255 -10 327 18 380 91 C380 91 380 64 380 64 C380 23 408 -5 451 -5 C487 -5 515 20 522 56 C522 56 522 56 522 56 L522 56 Z M266 757 C266 757 410 559 410 559 C410 559 413 561 413 561 C413 561 273 774 273 774 C272 776 268 781 266 781 C264 781 260 776 259 774 C259 774 119 561 119 561 C119 561 122 559 122 559 C122 559 266 757 266 757 L266 757 Z M380 264 C380 264 380 97 380 97 C331 28 262 1 188 1 C124 1 81 31 81 76 C81 163 138 190 380 264 L380 264 Z " />
<glyph glyph-name="atilde" unicode="&#xe3;" horiz-adv-x="511" d="M123 620 C123 663 142 691 171 691 C233 691 293 626 355 626 C390 626 413 656 413 701 C413 701 409 701 409 701 C409 665 389 641 360 641 C298 641 238 706 175 706 C142 706 119 672 119 620 C119 620 123 620 123 620 L123 620 Z M522 56 C522 56 514 60 514 60 C509 29 487 9 459 9 C424 9 400 31 400 64 C400 64 400 361 400 361 C400 464 346 510 266 510 C155 510 81 414 81 360 C81 356 84 354 89 354 C96 354 101 357 101 358 C101 364 93 367 93 370 C93 418 159 504 259 504 C332 504 380 462 380 368 C380 368 380 268 380 268 C122 190 61 161 61 74 C61 24 107 -10 177 -10 C255 -10 327 18 380 91 C380 91 380 64 380 64 C380 23 408 -5 451 -5 C487 -5 515 20 522 56 C522 56 522 56 522 56 L522 56 Z M380 264 C380 264 380 97 380 97 C331 28 262 1 188 1 C124 1 81 31 81 76 C81 163 138 190 380 264 L380 264 Z " />
<glyph glyph-name="adieresis" unicode="&#xe4;" horiz-adv-x="511" d="M330 615 C342 615 350 623 350 635 C350 647 342 655 330 655 C318 655 310 647 310 635 C310 623 318 615 330 615 L330 615 Z M202 615 C214 615 222 623 222 635 C222 647 214 655 202 655 C190 655 182 647 182 635 C182 623 190 615 202 615 L202 615 Z M522 56 C522 56 514 60 514 60 C509 29 487 9 459 9 C424 9 400 31 400 64 C400 64 400 361 400 361 C400 464 346 510 266 510 C155 510 81 414 81 360 C81 356 84 354 89 354 C96 354 101 357 101 358 C101 364 93 367 93 370 C93 418 159 504 259 504 C332 504 380 462 380 368 C380 368 380 268 380 268 C122 190 61 161 61 74 C61 24 107 -10 177 -10 C255 -10 327 18 380 91 C380 91 380 64 380 64 C380 23 408 -5 451 -5 C487 -5 515 20 522 56 C522 56 522 56 522 56 L522 56 Z M380 264 C380 264 380 97 380 97 C331 28 262 1 188 1 C124 1 81 31 81 76 C81 163 138 190 380 264 L380 264 Z " />
<glyph glyph-name="aring" unicode="&#xe5;" horiz-adv-x="511" d="M266 565 C217 565 176 606 176 655 C176 709 212 745 266 745 C320 745 356 709 356 655 C356 606 315 565 266 565 L266 565 Z M170 655 C170 604 214 560 266 560 C318 560 362 604 362 655 C362 712 324 750 266 750 C208 750 170 712 170 655 L170 655 Z M522 56 C522 56 514 60 514 60 C509 29 487 9 459 9 C424 9 400 31 400 64 C400 64 400 361 400 361 C400 464 346 510 266 510 C155 510 81 414 81 360 C81 356 84 354 89 354 C96 354 101 357 101 358 C101 364 93 367 93 370 C93 418 159 504 259 504 C332 504 380 462 380 368 C380 368 380 268 380 268 C122 190 61 161 61 74 C61 24 107 -10 177 -10 C255 -10 327 18 380 91 C380 91 380 64 380 64 C380 23 408 -5 451 -5 C487 -5 515 20 522 56 C522 56 522 56 522 56 L522 56 Z M380 264 C380 264 380 97 380 97 C331 28 262 1 188 1 C124 1 81 31 81 76 C81 163 138 190 380 264 L380 264 Z " />
<glyph glyph-name="egrave" unicode="&#xe8;" horiz-adv-x="534" d="M180 699 C138 743 109 772 105 772 C100 772 96 767 96 762 C96 759 126 731 171 690 C171 690 308 564 308 564 C308 564 310 567 310 567 C310 567 180 699 180 699 L180 699 Z M91 340 C91 340 482 340 482 340 C482 340 504 340 504 340 C482 462 406 510 304 510 C156 510 58 401 58 238 C58 89 147 -10 281 -10 C377 -10 462 48 494 134 C494 134 491 135 491 135 C462 56 380 3 286 3 C162 3 79 100 79 246 C79 280 83 311 91 340 L91 340 Z M499 346 C499 346 499 346 499 346 C499 346 499 346 499 346 C499 346 499 346 499 346 L499 346 Z M481 346 C481 346 93 345 93 345 C123 444 199 505 302 505 C391 505 459 461 481 346 C481 346 481 346 481 346 L481 346 Z " />
<glyph glyph-name="eacute" unicode="&#xe9;" horiz-adv-x="534" d="M309 564 C309 564 446 690 446 690 C492 732 522 761 522 762 C522 767 517 772 512 772 C510 772 481 743 437 699 C437 699 307 567 307 567 C307 567 309 564 309 564 L309 564 Z M91 340 C91 340 482 340 482 340 C482 340 504 340 504 340 C482 462 406 510 304 510 C156 510 58 401 58 238 C58 89 147 -10 281 -10 C377 -10 462 48 494 134 C494 134 491 135 491 135 C462 56 380 3 286 3 C162 3 79 100 79 246 C79 280 83 311 91 340 L91 340 Z M499 346 C499 346 499 346 499 346 C499 346 499 346 499 346 C499 346 499 346 499 346 L499 346 Z M481 346 C481 346 93 345 93 345 C123 444 199 505 302 505 C391 505 459 461 481 346 C481 346 481 346 481 346 L481 346 Z " />
<glyph glyph-name="ecircumflex" unicode="&#xea;" horiz-adv-x="534" d="M304 757 C304 757 447 559 447 559 C447 559 450 561 450 561 C450 561 311 774 311 774 C309 776 306 781 304 781 C300 781 298 778 297 774 C297 774 297 774 297 774 C297 774 157 561 157 561 C157 561 160 559 160 559 C160 559 304 757 304 757 L304 757 Z M91 340 C91 340 482 340 482 340 C482 340 504 340 504 340 C482 462 406 510 304 510 C156 510 58 401 58 238 C58 89 147 -10 281 -10 C377 -10 462 48 494 134 C494 134 491 135 491 135 C462 56 380 3 286 3 C162 3 79 100 79 246 C79 280 83 311 91 340 L91 340 Z M499 346 C499 346 499 346 499 346 C499 346 499 346 499 346 C499 346 499 346 499 346 L499 346 Z M481 346 C481 346 93 345 93 345 C123 444 199 505 302 505 C391 505 459 461 481 346 C481 346 481 346 481 346 L481 346 Z " />
<glyph glyph-name="edieresis" unicode="&#xeb;" horiz-adv-x="534" d="M367 615 C379 615 387 623 387 635 C387 647 379 655 367 655 C355 655 347 647 347 635 C347 623 355 615 367 615 L367 615 Z M240 615 C252 615 260 623 260 635 C260 647 252 655 240 655 C228 655 220 647 220 635 C220 623 228 615 240 615 L240 615 Z M91 340 C91 340 482 340 482 340 C482 340 504 340 504 340 C482 462 406 510 304 510 C156 510 58 401 58 238 C58 89 147 -10 281 -10 C377 -10 462 48 494 134 C494 134 491 135 491 135 C462 56 380 3 286 3 C162 3 79 100 79 246 C79 280 83 311 91 340 L91 340 Z M499 346 C499 346 499 346 499 346 C499 346 499 346 499 346 C499 346 499 346 499 346 L499 346 Z M481 346 C481 346 93 345 93 345 C123 444 199 505 302 505 C391 505 459 461 481 346 C481 346 481 346 481 346 L481 346 Z " />
<glyph glyph-name="igrave" unicode="&#xec;" horiz-adv-x="241" d="M18 699 C-25 743 -54 772 -57 772 C-62 772 -67 767 -67 762 C-67 759 -37 731 9 690 C9 690 145 564 145 564 C145 564 148 567 148 567 C148 567 18 699 18 699 L18 699 Z M151 103 C151 103 151 297 151 297 C151 297 151 500 151 500 C151 500 147 500 147 500 C147 500 74 454 74 454 C74 454 74 424 74 424 C122 427 131 410 131 297 C131 297 131 103 131 103 C131 67 112 60 84 60 C84 60 75 60 75 60 C75 60 75 0 75 0 C75 0 209 0 209 0 C209 0 209 60 209 60 C209 60 200 60 200 60 C171 60 151 67 151 103 L151 103 Z " />
<glyph glyph-name="iacute" unicode="&#xed;" horiz-adv-x="241" d="M18 699 C-25 743 -54 772 -57 772 C-62 772 -67 767 -67 762 C-67 759 -37 731 9 690 C9 690 145 564 145 564 C145 564 148 567 148 567 C148 567 18 699 18 699 L18 699 Z M151 103 C151 103 151 297 151 297 C151 297 151 500 151 500 C151 500 147 500 147 500 C147 500 74 454 74 454 C74 454 74 424 74 424 C122 427 131 410 131 297 C131 297 131 103 131 103 C131 67 112 60 84 60 C84 60 75 60 75 60 C75 60 75 0 75 0 C75 0 209 0 209 0 C209 0 209 60 209 60 C209 60 200 60 200 60 C171 60 151 67 151 103 L151 103 Z " />
<glyph glyph-name="icircumflex" unicode="&#xee;" horiz-adv-x="241" d="M141 757 C141 757 285 559 285 559 C285 559 288 561 288 561 C288 561 148 774 148 774 C147 776 143 781 141 781 C139 781 135 776 134 774 C134 774 -6 561 -6 561 C-6 561 -3 559 -3 559 C-3 559 141 757 141 757 L141 757 Z M151 103 C151 103 151 297 151 297 C151 297 151 500 151 500 C151 500 147 500 147 500 C147 500 74 454 74 454 C74 454 74 424 74 424 C122 427 131 410 131 297 C131 297 131 103 131 103 C131 67 112 60 84 60 C84 60 75 60 75 60 C75 60 75 0 75 0 C75 0 209 0 209 0 C209 0 209 60 209 60 C209 60 200 60 200 60 C171 60 151 67 151 103 L151 103 Z " />
<glyph glyph-name="idieresis" unicode="&#xef;" horiz-adv-x="241" d="M205 615 C217 615 225 623 225 635 C225 647 217 655 205 655 C193 655 185 647 185 635 C185 623 193 615 205 615 L205 615 Z M77 615 C89 615 97 623 97 635 C97 647 89 655 77 655 C65 655 57 647 57 635 C57 623 65 615 77 615 L77 615 Z M151 103 C151 103 151 297 151 297 C151 297 151 500 151 500 C151 500 147 500 147 500 C147 500 74 454 74 454 C74 454 74 424 74 424 C122 427 131 410 131 297 C131 297 131 103 131 103 C131 67 112 60 84 60 C84 60 75 60 75 60 C75 60 75 0 75 0 C75 0 209 0 209 0 C209 0 209 60 209 60 C209 60 200 60 200 60 C171 60 151 67 151 103 L151 103 Z " />
<glyph glyph-name="ntilde" unicode="&#xf1;" horiz-adv-x="504" d="M117 620 C117 663 136 691 165 691 C227 691 287 626 349 626 C384 626 407 656 407 701 C407 701 403 701 403 701 C403 665 383 641 354 641 C292 641 232 706 169 706 C136 706 113 672 113 620 C113 620 117 620 117 620 L117 620 Z M125 363 C171 442 230 495 272 495 C353 495 394 455 394 395 C394 395 394 103 394 103 C394 67 375 60 348 60 C348 60 339 60 339 60 C339 60 339 0 339 0 C339 0 470 0 470 0 C470 0 470 60 470 60 C470 60 461 60 461 60 C433 60 414 67 414 103 C414 103 414 395 414 395 C414 464 370 510 284 510 C238 510 174 454 125 369 C125 369 125 500 125 500 C125 500 122 500 122 500 C122 500 46 472 46 472 C46 472 46 412 46 412 C46 412 55 415 55 415 C85 426 105 396 105 200 C105 200 105 103 105 103 C105 67 86 60 59 60 C59 60 50 60 50 60 C50 60 50 0 50 0 C50 0 181 0 181 0 C181 0 181 60 181 60 C181 60 172 60 172 60 C144 60 125 67 125 103 C125 103 125 206 125 206 C125 206 125 363 125 363 L125 363 Z " />
<glyph glyph-name="ograve" unicode="&#xf2;" horiz-adv-x="609" d="M311 -4 C173 -4 81 98 81 250 C81 402 173 504 311 504 C450 504 542 402 542 250 C542 98 450 -4 311 -4 L311 -4 Z M58 250 C58 94 159 -10 311 -10 C463 -10 564 94 564 250 C564 406 463 510 311 510 C159 510 58 406 58 250 L58 250 Z M188 699 C145 743 116 772 113 772 C108 772 103 767 103 762 C103 759 133 731 179 690 C179 690 316 564 316 564 C316 564 318 567 318 567 C318 567 188 699 188 699 L188 699 Z " />
<glyph glyph-name="oacute" unicode="&#xf3;" horiz-adv-x="609" d="M317 564 C317 564 454 690 454 690 C499 732 529 761 529 762 C529 767 525 772 519 772 C518 772 489 743 444 699 C444 699 314 567 314 567 C314 567 317 564 317 564 L317 564 Z M311 -4 C173 -4 81 98 81 250 C81 402 173 504 311 504 C450 504 542 402 542 250 C542 98 450 -4 311 -4 L311 -4 Z M58 250 C58 94 159 -10 311 -10 C463 -10 564 94 564 250 C564 406 463 510 311 510 C159 510 58 406 58 250 L58 250 Z " />
<glyph glyph-name="ocircumflex" unicode="&#xf4;" horiz-adv-x="609" d="M311 -4 C173 -4 81 98 81 250 C81 402 173 504 311 504 C450 504 542 402 542 250 C542 98 450 -4 311 -4 L311 -4 Z M58 250 C58 94 159 -10 311 -10 C463 -10 564 94 564 250 C564 406 463 510 311 510 C159 510 58 406 58 250 L58 250 Z M311 757 C311 757 455 559 455 559 C455 559 458 561 458 561 C458 561 318 774 318 774 C317 776 314 781 311 781 C309 781 306 776 304 774 C304 774 165 561 165 561 C165 561 167 559 167 559 C167 559 311 757 311 757 L311 757 Z " />
<glyph glyph-name="otilde" unicode="&#xf5;" horiz-adv-x="609" d="M168 620 C168 663 187 691 216 691 C278 691 338 626 401 626 C435 626 458 656 458 701 C458 701 454 701 454 701 C454 665 434 641 405 641 C343 641 283 706 221 706 C187 706 165 672 165 620 C165 620 168 620 168 620 L168 620 Z M311 -4 C173 -4 81 98 81 250 C81 402 173 504 311 504 C450 504 542 402 542 250 C542 98 450 -4 311 -4 L311 -4 Z M58 250 C58 94 159 -10 311 -10 C463 -10 564 94 564 250 C564 406 463 510 311 510 C159 510 58 406 58 250 L58 250 Z " />
<glyph glyph-name="odieresis" unicode="&#xf6;" horiz-adv-x="609" d="M375 615 C387 615 395 623 395 635 C395 647 387 655 375 655 C363 655 355 647 355 635 C355 623 363 615 375 615 L375 615 Z M248 615 C260 615 268 623 268 635 C268 647 260 655 248 655 C236 655 228 647 228 635 C228 623 236 615 248 615 L248 615 Z M311 -4 C173 -4 81 98 81 250 C81 402 173 504 311 504 C450 504 542 402 542 250 C542 98 450 -4 311 -4 L311 -4 Z M58 250 C58 94 159 -10 311 -10 C463 -10 564 94 564 250 C564 406 463 510 311 510 C159 510 58 406 58 250 L58 250 Z " />
<glyph glyph-name="oslash" unicode="&#xf8;" horiz-adv-x="609" d="M61 -12 C61 -12 130 59 130 59 C174 15 236 -10 311 -10 C463 -10 564 94 564 250 C564 327 540 391 497 436 C497 436 567 508 567 508 C567 508 561 512 561 512 C561 512 492 441 492 441 C448 485 386 510 311 510 C159 510 58 406 58 250 C58 173 82 109 126 64 C126 64 56 -8 56 -8 C56 -8 61 -12 61 -12 L61 -12 Z M311 -4 C240 -4 181 23 141 70 C141 70 486 425 486 425 C522 381 542 321 542 250 C542 98 450 -4 311 -4 C311 -4 311 -4 311 -4 L311 -4 Z M137 75 C101 119 81 179 81 250 C81 402 173 504 311 504 C382 504 441 477 482 430 C482 430 137 75 137 75 L137 75 Z " />
<glyph glyph-name="ugrave" unicode="&#xf9;" horiz-adv-x="483" d="M121 699 C78 743 49 772 46 772 C41 772 36 767 36 762 C36 759 66 731 112 690 C112 690 248 564 248 564 C248 564 251 567 251 567 C251 567 121 699 121 699 L121 699 Z M378 130 C378 130 378 129 378 129 C346 53 284 4 220 4 C153 4 109 66 109 160 C109 160 109 397 109 397 C109 397 109 500 109 500 C109 500 43 500 43 500 C43 500 43 440 43 440 C43 440 52 440 52 440 C74 440 89 433 89 397 C89 397 89 160 89 160 C89 58 138 -10 210 -10 C278 -10 344 42 378 124 C378 124 378 -10 378 -10 C378 -10 382 -10 382 -10 C382 -10 458 9 458 9 C458 9 458 69 458 69 C421 61 398 59 398 134 C398 134 398 397 398 397 C398 397 398 500 398 500 C398 500 332 500 332 500 C332 500 332 440 332 440 C332 440 341 440 341 440 C363 440 378 433 378 397 C378 397 378 130 378 130 L378 130 Z " />
<glyph glyph-name="uacute" unicode="&#xfa;" horiz-adv-x="483" d="M250 564 C250 564 386 690 386 690 C432 732 462 761 462 762 C462 767 457 772 452 772 C451 772 421 743 377 699 C377 699 247 567 247 567 C247 567 250 564 250 564 L250 564 Z M378 130 C378 130 378 129 378 129 C346 53 284 4 220 4 C153 4 109 66 109 160 C109 160 109 397 109 397 C109 397 109 500 109 500 C109 500 43 500 43 500 C43 500 43 440 43 440 C43 440 52 440 52 440 C74 440 89 433 89 397 C89 397 89 160 89 160 C89 58 138 -10 210 -10 C278 -10 344 42 378 124 C378 124 378 -10 378 -10 C378 -10 382 -10 382 -10 C382 -10 458 9 458 9 C458 9 458 69 458 69 C421 61 398 59 398 134 C398 134 398 397 398 397 C398 397 398 500 398 500 C398 500 332 500 332 500 C332 500 332 440 332 440 C332 440 341 440 341 440 C363 440 378 433 378 397 C378 397 378 130 378 130 L378 130 Z " />
<glyph glyph-name="ucircumflex" unicode="&#xfb;" horiz-adv-x="483" d="M244 757 C244 757 388 559 388 559 C388 559 391 561 391 561 C391 561 251 774 251 774 C249 776 246 781 244 781 C241 781 238 776 237 774 C237 774 97 561 97 561 C97 561 100 559 100 559 C100 559 244 757 244 757 L244 757 Z M378 130 C378 130 378 129 378 129 C346 53 284 4 220 4 C153 4 109 66 109 160 C109 160 109 397 109 397 C109 397 109 500 109 500 C109 500 43 500 43 500 C43 500 43 440 43 440 C43 440 52 440 52 440 C74 440 89 433 89 397 C89 397 89 160 89 160 C89 58 138 -10 210 -10 C278 -10 344 42 378 124 C378 124 378 -10 378 -10 C378 -10 382 -10 382 -10 C382 -10 458 9 458 9 C458 9 458 69 458 69 C421 61 398 59 398 134 C398 134 398 397 398 397 C398 397 398 500 398 500 C398 500 332 500 332 500 C332 500 332 440 332 440 C332 440 341 440 341 440 C363 440 378 433 378 397 C378 397 378 130 378 130 L378 130 Z " />
<glyph glyph-name="udieresis" unicode="&#xfc;" horiz-adv-x="483" d="M307 615 C319 615 327 623 327 635 C327 647 319 655 307 655 C295 655 287 647 287 635 C287 623 295 615 307 615 L307 615 Z M180 615 C192 615 200 623 200 635 C200 647 192 655 180 655 C168 655 160 647 160 635 C160 623 168 615 180 615 L180 615 Z M378 130 C378 130 378 129 378 129 C346 53 284 4 220 4 C153 4 109 66 109 160 C109 160 109 397 109 397 C109 397 109 500 109 500 C109 500 43 500 43 500 C43 500 43 440 43 440 C43 440 52 440 52 440 C74 440 89 433 89 397 C89 397 89 160 89 160 C89 58 138 -10 210 -10 C278 -10 344 42 378 124 C378 124 378 -10 378 -10 C378 -10 382 -10 382 -10 C382 -10 458 9 458 9 C458 9 458 69 458 69 C421 61 398 59 398 134 C398 134 398 397 398 397 C398 397 398 500 398 500 C398 500 332 500 332 500 C332 500 332 440 332 440 C332 440 341 440 341 440 C363 440 378 433 378 397 C378 397 378 130 378 130 L378 130 Z " />
<glyph glyph-name="ydieresis" unicode="&#xff;" horiz-adv-x="460" d="M297 615 C309 615 317 623 317 635 C317 647 309 655 297 655 C285 655 277 647 277 635 C277 623 285 615 297 615 L297 615 Z M170 615 C182 615 190 623 190 635 C190 647 182 655 170 655 C158 655 150 647 150 635 C150 623 158 615 170 615 L170 615 Z M99 379 C99 379 207 -10 207 -10 C207 -10 163 -140 163 -140 C158 -155 146 -165 133 -165 C128 -165 127 -158 122 -158 C115 -158 110 -162 110 -168 C110 -175 115 -180 122 -180 C142 -180 160 -166 167 -145 C167 -145 213 -10 213 -10 C213 -10 324 310 324 310 C324 310 324 309 324 309 C361 419 388 440 418 440 C418 440 428 440 428 440 C428 440 428 500 428 500 C428 500 390 500 390 500 C390 500 381 500 381 500 C381 500 314 500 314 500 C314 500 314 440 314 440 C314 440 322 440 322 440 C345 440 355 426 331 355 C331 355 331 352 331 352 C331 352 207 -10 207 -10 C207 -10 216 17 216 17 C216 17 118 383 118 383 C107 430 116 440 133 440 C133 440 139 440 139 440 C139 440 139 500 139 500 C139 500 87 500 87 500 C87 500 65 500 65 500 C65 500 33 500 33 500 C33 500 33 440 33 440 C33 440 42 440 42 440 C64 440 82 430 99 379 C99 379 99 379 99 379 L99 379 Z " />
<glyph glyph-name="Amacron" unicode="&#x100;" horiz-adv-x="661" d="M209 907 C209 907 509 907 509 907 C509 907 509 920 509 920 C509 920 209 920 209 920 C209 920 209 907 209 907 L209 907 Z M212 294 C212 294 478 294 478 294 C478 294 481 284 481 284 C533 96 517 60 479 60 C479 60 469 60 469 60 C469 60 469 0 469 0 C469 0 563 0 563 0 C563 0 586 0 586 0 C586 0 635 0 635 0 C635 0 635 60 635 60 C635 60 624 60 624 60 C592 60 555 110 479 368 C479 368 370 743 370 743 C370 743 362 770 362 770 C362 770 360 770 360 770 C357 754 353 744 348 743 C348 743 351 733 351 733 C351 733 350 733 350 733 C350 733 237 387 237 387 C142 115 93 60 48 60 C48 60 36 60 36 60 C36 60 36 0 36 0 C36 0 110 0 110 0 C110 0 117 0 117 0 C117 0 232 0 232 0 C232 0 232 60 232 60 C232 60 221 60 221 60 C173 60 151 92 200 256 C200 256 212 294 212 294 L212 294 Z M214 299 C214 299 353 726 353 726 C353 726 476 299 476 299 C476 299 214 299 214 299 L214 299 Z " />
<glyph glyph-name="amacron" unicode="&#x101;" horiz-adv-x="511" d="M116 657 C116 657 416 657 416 657 C416 657 416 670 416 670 C416 670 116 670 116 670 C116 670 116 657 116 657 L116 657 Z M522 56 C522 56 514 60 514 60 C509 29 487 9 459 9 C424 9 400 31 400 64 C400 64 400 361 400 361 C400 464 346 510 266 510 C155 510 81 414 81 360 C81 356 84 354 89 354 C96 354 101 357 101 358 C101 364 93 367 93 370 C93 418 159 504 259 504 C332 504 380 462 380 368 C380 368 380 268 380 268 C122 190 61 161 61 74 C61 24 107 -10 177 -10 C255 -10 327 18 380 91 C380 91 380 64 380 64 C380 23 408 -5 451 -5 C487 -5 515 20 522 56 C522 56 522 56 522 56 L522 56 Z M380 264 C380 264 380 97 380 97 C331 28 262 1 188 1 C124 1 81 31 81 76 C81 163 138 190 380 264 L380 264 Z " />
<glyph glyph-name="Abreve" unicode="&#x102;" horiz-adv-x="661" d="M243 995 C244 940 291 904 359 904 C427 904 474 940 475 994 C475 994 470 995 470 995 C470 949 425 919 359 919 C293 919 248 950 247 995 C247 995 243 995 243 995 L243 995 Z M212 294 C212 294 478 294 478 294 C478 294 481 284 481 284 C533 96 517 60 479 60 C479 60 469 60 469 60 C469 60 469 0 469 0 C469 0 563 0 563 0 C563 0 586 0 586 0 C586 0 635 0 635 0 C635 0 635 60 635 60 C635 60 624 60 624 60 C592 60 555 110 479 368 C479 368 370 743 370 743 C370 743 362 770 362 770 C362 770 360 770 360 770 C357 754 353 744 348 743 C348 743 351 733 351 733 C351 733 350 733 350 733 C350 733 237 387 237 387 C142 115 93 60 48 60 C48 60 36 60 36 60 C36 60 36 0 36 0 C36 0 110 0 110 0 C110 0 117 0 117 0 C117 0 232 0 232 0 C232 0 232 60 232 60 C232 60 221 60 221 60 C173 60 151 92 200 256 C200 256 212 294 212 294 L212 294 Z M214 299 C214 299 353 726 353 726 C353 726 476 299 476 299 C476 299 214 299 214 299 L214 299 Z " />
<glyph glyph-name="abreve" unicode="&#x103;" horiz-adv-x="511" d="M150 745 C151 690 198 654 266 654 C334 654 381 690 382 744 C382 744 378 745 378 745 C377 699 332 669 266 669 C200 669 155 700 154 745 C154 745 150 745 150 745 L150 745 Z M522 56 C522 56 514 60 514 60 C509 29 487 9 459 9 C424 9 400 31 400 64 C400 64 400 361 400 361 C400 464 346 510 266 510 C155 510 81 414 81 360 C81 356 84 354 89 354 C96 354 101 357 101 358 C101 364 93 367 93 370 C93 418 159 504 259 504 C332 504 380 462 380 368 C380 368 380 268 380 268 C122 190 61 161 61 74 C61 24 107 -10 177 -10 C255 -10 327 18 380 91 C380 91 380 64 380 64 C380 23 408 -5 451 -5 C487 -5 515 20 522 56 C522 56 522 56 522 56 L522 56 Z M380 264 C380 264 380 97 380 97 C331 28 262 1 188 1 C124 1 81 31 81 76 C81 163 138 190 380 264 L380 264 Z " />
<glyph glyph-name="Cacute" unicode="&#x106;" horiz-adv-x="675" d="M363 814 C363 814 500 940 500 940 C546 982 576 1011 576 1012 C576 1017 571 1022 566 1022 C565 1022 535 993 491 949 C491 949 361 817 361 817 C361 817 363 814 363 814 L363 814 Z M567 689 C563 698 533 719 489 738 C489 738 487 738 487 738 C452 752 410 760 358 760 C186 760 71 606 71 375 C71 144 182 -10 347 -10 C399 -10 444 -2 483 14 C483 14 484 14 484 14 C484 14 485 14 486 15 C511 25 534 39 556 55 C560 57 563 59 567 61 C572 64 575 56 575 40 C575 40 627 40 627 40 C627 40 627 124 627 124 C627 124 627 188 627 188 C627 188 572 188 572 188 C550 122 501 30 460 12 C427 1 391 -5 349 -5 C197 -5 95 147 95 375 C95 602 201 754 360 754 C389 754 414 751 437 747 C486 731 544 643 567 576 C567 576 572 561 572 561 C572 561 627 561 627 561 C627 561 627 626 627 626 C627 626 627 707 627 707 C627 707 572 707 572 707 C572 707 567 689 567 689 C567 689 567 689 567 689 C567 689 567 689 567 689 L567 689 Z " />
<glyph glyph-name="Ccircumflex" unicode="&#x108;" horiz-adv-x="675" d="M358 1007 C358 1007 502 809 502 809 C502 809 504 811 504 811 C504 811 365 1024 365 1024 C363 1026 360 1031 358 1031 C355 1031 352 1026 351 1024 C351 1024 211 811 211 811 C211 811 214 809 214 809 C214 809 358 1007 358 1007 L358 1007 Z M567 689 C563 698 533 719 489 738 C489 738 487 738 487 738 C452 752 410 760 358 760 C186 760 71 606 71 375 C71 144 182 -10 347 -10 C399 -10 444 -2 483 14 C483 14 484 14 484 14 C484 14 485 14 486 15 C511 25 534 39 556 55 C560 57 563 59 567 61 C572 64 575 56 575 40 C575 40 627 40 627 40 C627 40 627 124 627 124 C627 124 627 188 627 188 C627 188 572 188 572 188 C550 122 501 30 460 12 C427 1 391 -5 349 -5 C197 -5 95 147 95 375 C95 602 201 754 360 754 C389 754 414 751 437 747 C486 731 544 643 567 576 C567 576 572 561 572 561 C572 561 627 561 627 561 C627 561 627 626 627 626 C627 626 627 707 627 707 C627 707 572 707 572 707 C572 707 567 689 567 689 C567 689 567 689 567 689 C567 689 567 689 567 689 L567 689 Z " />
<glyph glyph-name="Cdotaccent" unicode="&#x10a;" horiz-adv-x="675" d="M358 865 C370 865 378 873 378 885 C378 897 370 905 358 905 C346 905 338 897 338 885 C338 873 346 865 358 865 L358 865 Z M567 689 C563 698 533 719 489 738 C489 738 487 738 487 738 C452 752 410 760 358 760 C186 760 71 606 71 375 C71 144 182 -10 347 -10 C399 -10 444 -2 483 14 C483 14 484 14 484 14 C484 14 485 14 486 15 C511 25 534 39 556 55 C560 57 563 59 567 61 C572 64 575 56 575 40 C575 40 627 40 627 40 C627 40 627 124 627 124 C627 124 627 188 627 188 C627 188 572 188 572 188 C550 122 501 30 460 12 C427 1 391 -5 349 -5 C197 -5 95 147 95 375 C95 602 201 754 360 754 C389 754 414 751 437 747 C486 731 544 643 567 576 C567 576 572 561 572 561 C572 561 627 561 627 561 C627 561 627 626 627 626 C627 626 627 707 627 707 C627 707 572 707 572 707 C572 707 567 689 567 689 C567 689 567 689 567 689 C567 689 567 689 567 689 L567 689 Z " />
<glyph glyph-name="cdotaccent" unicode="&#x10b;" horiz-adv-x="448" d="M247 615 C259 615 267 623 267 635 C267 647 259 655 247 655 C235 655 227 647 227 635 C227 623 235 615 247 615 L247 615 Z M419 128 C419 128 416 129 416 129 C382 53 310 2 237 2 C142 2 79 103 79 254 C79 404 146 505 246 505 C319 505 383 465 404 405 C405 403 408 401 412 401 C417 401 419 403 419 405 C395 468 327 510 247 510 C134 510 59 403 59 242 C59 91 128 -10 230 -10 C306 -10 382 45 419 128 L419 128 Z " />
<glyph glyph-name="Ccaron" unicode="&#x10c;" horiz-adv-x="675" d="M358 843 C358 843 502 1041 502 1041 C502 1041 504 1039 504 1039 C504 1039 365 826 365 826 C363 824 360 819 358 819 C355 819 352 824 351 826 C351 826 211 1039 211 1039 C211 1039 214 1041 214 1041 C214 1041 358 843 358 843 L358 843 Z M567 689 C563 698 533 719 489 738 C489 738 487 738 487 738 C452 752 410 760 358 760 C186 760 71 606 71 375 C71 144 182 -10 347 -10 C399 -10 444 -2 483 14 C483 14 484 14 484 14 C484 14 485 14 486 15 C511 25 534 39 556 55 C560 57 563 59 567 61 C572 64 575 56 575 40 C575 40 627 40 627 40 C627 40 627 124 627 124 C627 124 627 188 627 188 C627 188 572 188 572 188 C550 122 501 30 460 12 C427 1 391 -5 349 -5 C197 -5 95 147 95 375 C95 602 201 754 360 754 C389 754 414 751 437 747 C486 731 544 643 567 576 C567 576 572 561 572 561 C572 561 627 561 627 561 C627 561 627 626 627 626 C627 626 627 707 627 707 C627 707 572 707 572 707 C572 707 567 689 567 689 C567 689 567 689 567 689 C567 689 567 689 567 689 L567 689 Z " />
<glyph glyph-name="ccaron" unicode="&#x10d;" horiz-adv-x="448" d="M419 128 C419 128 416 129 416 129 C382 53 310 2 237 2 C142 2 79 103 79 254 C79 404 146 505 246 505 C319 505 383 465 404 405 C405 403 408 401 412 401 C417 401 419 403 419 405 C395 468 327 510 247 510 C134 510 59 403 59 242 C59 91 128 -10 230 -10 C306 -10 382 45 419 128 L419 128 Z M247 593 C247 593 391 791 391 791 C391 791 394 789 394 789 C394 789 254 576 254 576 C253 574 250 569 247 569 C245 569 242 574 240 576 C240 576 101 789 101 789 C101 789 103 791 103 791 C103 791 247 593 247 593 L247 593 Z " />
<glyph glyph-name="Dcaron" unicode="&#x10e;" horiz-adv-x="753" d="M409 843 C409 843 553 1041 553 1041 C553 1041 556 1039 556 1039 C556 1039 416 826 416 826 C415 824 412 819 409 819 C407 819 404 824 402 826 C402 826 263 1039 263 1039 C263 1039 265 1041 265 1041 C265 1041 409 843 409 843 L409 843 Z M145 506 C145 506 145 244 145 244 C145 89 119 60 81 60 C81 60 71 60 71 60 C71 60 71 0 71 0 C71 0 145 0 145 0 C145 0 167 0 167 0 C167 0 247 0 247 0 C518 0 698 127 698 375 C698 600 558 750 287 750 C287 750 167 750 167 750 C167 750 145 750 145 750 C145 750 71 750 71 750 C71 750 71 690 71 690 C71 690 81 690 81 690 C119 690 145 661 145 506 L145 506 Z M167 746 C167 746 269 746 269 746 C536 746 674 598 674 375 C674 130 501 4 240 4 C174 4 167 96 167 235 C167 235 167 244 167 244 C167 244 167 506 167 506 C167 506 167 746 167 746 L167 746 Z " />
<glyph glyph-name="dcaron" unicode="&#x10f;" horiz-adv-x="574" d="M589 652 C600 702 607 744 607 757 C607 759 603 759 598 759 C593 759 584 698 578 654 C578 654 563 543 563 543 C563 543 566 543 566 543 C566 543 589 652 589 652 L589 652 Z M494 84 C460 35 389 3 319 3 C177 3 83 106 83 261 C83 407 171 504 341 504 C398 504 463 450 494 387 C494 387 494 150 494 150 C494 150 494 84 494 84 L494 84 Z M494 77 C494 77 494 -10 494 -10 C494 -10 497 -10 497 -10 C497 -10 573 9 573 9 C573 9 573 69 573 69 C535 61 514 62 514 154 C514 154 514 563 514 563 C514 563 514 750 514 750 C514 750 510 750 510 750 C510 750 435 728 435 728 C435 728 435 668 435 668 C435 668 444 670 444 670 C474 679 494 665 494 558 C494 558 494 412 494 412 C459 467 397 510 339 510 C157 510 63 408 63 256 C63 99 162 -5 310 -5 C385 -5 459 27 494 77 C494 77 494 77 494 77 L494 77 Z " />
<glyph glyph-name="Emacron" unicode="&#x112;" horiz-adv-x="564" d="M161 907 C161 907 461 907 461 907 C461 907 461 920 461 920 C461 920 161 920 161 920 C161 920 161 907 161 907 L161 907 Z M167 244 C167 244 167 385 167 385 C167 385 177 385 177 385 C328 385 357 350 357 296 C357 296 357 287 357 287 C357 287 417 287 417 287 C417 287 417 385 417 385 C417 385 417 390 417 390 C417 390 417 488 417 488 C417 488 357 488 357 488 C357 488 357 479 357 479 C357 426 328 390 177 390 C177 390 167 390 167 390 C167 390 167 506 167 506 C167 506 167 745 167 745 C419 745 419 714 423 667 C423 667 423 658 423 658 C423 658 484 658 484 658 C482 688 479 719 477 750 C477 750 167 750 167 750 C167 750 145 750 145 750 C145 750 71 750 71 750 C71 750 71 690 71 690 C71 690 81 690 81 690 C119 690 145 661 145 506 C145 506 145 244 145 244 C145 89 119 60 81 60 C81 60 71 60 71 60 C71 60 71 0 71 0 C71 0 145 0 145 0 C145 0 167 0 167 0 C167 0 502 0 502 0 C502 0 511 61 515 92 C515 92 455 92 455 92 C455 92 453 83 453 83 C447 36 399 5 168 5 C168 5 167 5 167 5 C167 5 167 244 167 244 L167 244 Z " />
<glyph glyph-name="emacron" unicode="&#x113;" horiz-adv-x="534" d="M154 657 C154 657 454 657 454 657 C454 657 454 670 454 670 C454 670 154 670 154 670 C154 670 154 657 154 657 L154 657 Z M91 340 C91 340 482 340 482 340 C482 340 504 340 504 340 C482 462 406 510 304 510 C156 510 58 401 58 238 C58 89 147 -10 281 -10 C377 -10 462 48 494 134 C494 134 491 135 491 135 C462 56 380 3 286 3 C162 3 79 100 79 246 C79 280 83 311 91 340 L91 340 Z M499 346 C499 346 499 346 499 346 C499 346 499 346 499 346 C499 346 499 346 499 346 L499 346 Z M481 346 C481 346 93 345 93 345 C123 444 199 505 302 505 C391 505 459 461 481 346 C481 346 481 346 481 346 L481 346 Z " />
<glyph glyph-name="Ebreve" unicode="&#x114;" horiz-adv-x="564" d="M195 995 C196 940 243 904 311 904 C379 904 426 940 427 994 C427 994 423 995 423 995 C422 949 377 919 311 919 C245 919 200 950 199 995 C199 995 195 995 195 995 L195 995 Z M167 244 C167 244 167 385 167 385 C167 385 177 385 177 385 C328 385 357 350 357 296 C357 296 357 287 357 287 C357 287 417 287 417 287 C417 287 417 385 417 385 C417 385 417 390 417 390 C417 390 417 488 417 488 C417 488 357 488 357 488 C357 488 357 479 357 479 C357 426 328 390 177 390 C177 390 167 390 167 390 C167 390 167 506 167 506 C167 506 167 745 167 745 C419 745 419 714 423 667 C423 667 423 658 423 658 C423 658 484 658 484 658 C482 688 479 719 477 750 C477 750 167 750 167 750 C167 750 145 750 145 750 C145 750 71 750 71 750 C71 750 71 690 71 690 C71 690 81 690 81 690 C119 690 145 661 145 506 C145 506 145 244 145 244 C145 89 119 60 81 60 C81 60 71 60 71 60 C71 60 71 0 71 0 C71 0 145 0 145 0 C145 0 167 0 167 0 C167 0 502 0 502 0 C502 0 511 61 515 92 C515 92 455 92 455 92 C455 92 453 83 453 83 C447 36 399 5 168 5 C168 5 167 5 167 5 C167 5 167 244 167 244 L167 244 Z " />
<glyph glyph-name="ebreve" unicode="&#x115;" horiz-adv-x="534" d="M188 745 C189 690 235 654 304 654 C372 654 418 690 419 744 C419 744 415 745 415 745 C414 699 370 669 304 669 C238 669 193 700 192 745 C192 745 188 745 188 745 L188 745 Z M91 340 C91 340 482 340 482 340 C482 340 504 340 504 340 C482 462 406 510 304 510 C156 510 58 401 58 238 C58 89 147 -10 281 -10 C377 -10 462 48 494 134 C494 134 491 135 491 135 C462 56 380 3 286 3 C162 3 79 100 79 246 C79 280 83 311 91 340 L91 340 Z M499 346 C499 346 499 346 499 346 C499 346 499 346 499 346 C499 346 499 346 499 346 L499 346 Z M481 346 C481 346 93 345 93 345 C123 444 199 505 302 505 C391 505 459 461 481 346 C481 346 481 346 481 346 L481 346 Z " />
<glyph glyph-name="Edotaccent" unicode="&#x116;" horiz-adv-x="564" d="M311 865 C323 865 331 873 331 885 C331 897 323 905 311 905 C299 905 291 897 291 885 C291 873 299 865 311 865 L311 865 Z M167 244 C167 244 167 385 167 385 C167 385 177 385 177 385 C328 385 357 350 357 296 C357 296 357 287 357 287 C357 287 417 287 417 287 C417 287 417 385 417 385 C417 385 417 390 417 390 C417 390 417 488 417 488 C417 488 357 488 357 488 C357 488 357 479 357 479 C357 426 328 390 177 390 C177 390 167 390 167 390 C167 390 167 506 167 506 C167 506 167 745 167 745 C419 745 419 714 423 667 C423 667 423 658 423 658 C423 658 484 658 484 658 C482 688 479 719 477 750 C477 750 167 750 167 750 C167 750 145 750 145 750 C145 750 71 750 71 750 C71 750 71 690 71 690 C71 690 81 690 81 690 C119 690 145 661 145 506 C145 506 145 244 145 244 C145 89 119 60 81 60 C81 60 71 60 71 60 C71 60 71 0 71 0 C71 0 145 0 145 0 C145 0 167 0 167 0 C167 0 502 0 502 0 C502 0 511 61 515 92 C515 92 455 92 455 92 C455 92 453 83 453 83 C447 36 399 5 168 5 C168 5 167 5 167 5 C167 5 167 244 167 244 L167 244 Z " />
<glyph glyph-name="edotaccent" unicode="&#x117;" horiz-adv-x="534" d="M304 615 C316 615 324 623 324 635 C324 647 316 655 304 655 C292 655 284 647 284 635 C284 623 292 615 304 615 L304 615 Z M91 340 C91 340 482 340 482 340 C482 340 504 340 504 340 C482 462 406 510 304 510 C156 510 58 401 58 238 C58 89 147 -10 281 -10 C377 -10 462 48 494 134 C494 134 491 135 491 135 C462 56 380 3 286 3 C162 3 79 100 79 246 C79 280 83 311 91 340 L91 340 Z M499 346 C499 346 499 346 499 346 C499 346 499 346 499 346 C499 346 499 346 499 346 L499 346 Z M481 346 C481 346 93 345 93 345 C123 444 199 505 302 505 C391 505 459 461 481 346 C481 346 481 346 481 346 L481 346 Z " />
<glyph glyph-name="Ecaron" unicode="&#x11a;" horiz-adv-x="564" d="M311 843 C311 843 455 1041 455 1041 C455 1041 458 1039 458 1039 C458 1039 318 826 318 826 C317 824 313 819 311 819 C309 819 305 824 304 826 C304 826 164 1039 164 1039 C164 1039 167 1041 167 1041 C167 1041 311 843 311 843 L311 843 Z M167 244 C167 244 167 385 167 385 C167 385 177 385 177 385 C328 385 357 350 357 296 C357 296 357 287 357 287 C357 287 417 287 417 287 C417 287 417 385 417 385 C417 385 417 390 417 390 C417 390 417 488 417 488 C417 488 357 488 357 488 C357 488 357 479 357 479 C357 426 328 390 177 390 C177 390 167 390 167 390 C167 390 167 506 167 506 C167 506 167 745 167 745 C419 745 419 714 423 667 C423 667 423 658 423 658 C423 658 484 658 484 658 C482 688 479 719 477 750 C477 750 167 750 167 750 C167 750 145 750 145 750 C145 750 71 750 71 750 C71 750 71 690 71 690 C71 690 81 690 81 690 C119 690 145 661 145 506 C145 506 145 244 145 244 C145 89 119 60 81 60 C81 60 71 60 71 60 C71 60 71 0 71 0 C71 0 145 0 145 0 C145 0 167 0 167 0 C167 0 502 0 502 0 C502 0 511 61 515 92 C515 92 455 92 455 92 C455 92 453 83 453 83 C447 36 399 5 168 5 C168 5 167 5 167 5 C167 5 167 244 167 244 L167 244 Z " />
<glyph glyph-name="ecaron" unicode="&#x11b;" horiz-adv-x="534" d="M304 593 C304 593 447 791 447 791 C447 791 450 789 450 789 C450 789 311 576 311 576 C309 574 306 569 304 569 C300 569 298 572 297 576 C297 576 297 576 297 576 C297 576 157 789 157 789 C157 789 160 791 160 791 C160 791 304 593 304 593 L304 593 Z M91 340 C91 340 482 340 482 340 C482 340 504 340 504 340 C482 462 406 510 304 510 C156 510 58 401 58 238 C58 89 147 -10 281 -10 C377 -10 462 48 494 134 C494 134 491 135 491 135 C462 56 380 3 286 3 C162 3 79 100 79 246 C79 280 83 311 91 340 L91 340 Z M499 346 C499 346 499 346 499 346 C499 346 499 346 499 346 C499 346 499 346 499 346 L499 346 Z M481 346 C481 346 93 345 93 345 C123 444 199 505 302 505 C391 505 459 461 481 346 C481 346 481 346 481 346 L481 346 Z " />
<glyph glyph-name="Gcircumflex" unicode="&#x11c;" horiz-adv-x="728" d="M584 95 C584 95 585 27 585 27 C585 27 585 27 585 27 C579 25 574 23 568 22 C568 22 553 20 553 20 C573 28 584 38 584 49 C584 49 585 27 585 27 C585 27 585 24 585 24 C585 24 568 22 568 22 C556 19 544 16 532 13 C540 15 547 18 553 20 C553 20 351 -5 351 -5 C197 -5 95 147 95 375 C95 602 201 754 360 754 C389 754 414 751 437 747 C486 731 544 643 567 576 C567 576 572 561 572 561 C572 561 627 561 627 561 C627 561 627 626 627 626 C627 626 627 707 627 707 C627 707 572 707 572 707 C572 707 567 689 567 689 C567 689 567 689 567 689 C563 698 533 719 489 738 C489 738 487 738 487 738 C452 752 410 760 358 760 C186 760 71 606 71 375 C71 144 182 -10 349 -10 C448 -10 527 4 597 27 C597 27 606 29 606 29 C606 29 606 30 606 30 C634 39 660 50 686 62 C686 62 684 65 684 65 C659 53 633 43 606 34 C606 34 607 95 607 95 C607 238 627 265 657 265 C657 265 666 265 666 265 C666 265 666 325 666 325 C666 325 514 325 514 325 C514 325 514 265 514 265 C514 265 523 265 523 265 C560 265 584 238 584 95 C584 95 584 95 584 95 L584 95 Z M358 1007 C358 1007 502 809 502 809 C502 809 504 811 504 811 C504 811 365 1024 365 1024 C363 1026 360 1031 358 1031 C355 1031 352 1026 351 1024 C351 1024 211 811 211 811 C211 811 214 809 214 809 C214 809 358 1007 358 1007 L358 1007 Z " />
<glyph glyph-name="Gbreve" unicode="&#x11e;" horiz-adv-x="728" d="M584 95 C584 95 585 27 585 27 C585 27 585 27 585 27 C579 25 574 23 568 22 C568 22 553 20 553 20 C573 28 584 38 584 49 C584 49 585 27 585 27 C585 27 585 24 585 24 C585 24 568 22 568 22 C556 19 544 16 532 13 C540 15 547 18 553 20 C553 20 351 -5 351 -5 C197 -5 95 147 95 375 C95 602 201 754 360 754 C389 754 414 751 437 747 C486 731 544 643 567 576 C567 576 572 561 572 561 C572 561 627 561 627 561 C627 561 627 626 627 626 C627 626 627 707 627 707 C627 707 572 707 572 707 C572 707 567 689 567 689 C567 689 567 689 567 689 C563 698 533 719 489 738 C489 738 487 738 487 738 C452 752 410 760 358 760 C186 760 71 606 71 375 C71 144 182 -10 349 -10 C448 -10 527 4 597 27 C597 27 606 29 606 29 C606 29 606 30 606 30 C634 39 660 50 686 62 C686 62 684 65 684 65 C659 53 633 43 606 34 C606 34 607 95 607 95 C607 238 627 265 657 265 C657 265 666 265 666 265 C666 265 666 325 666 325 C666 325 514 325 514 325 C514 325 514 265 514 265 C514 265 523 265 523 265 C560 265 584 238 584 95 C584 95 584 95 584 95 L584 95 Z M242 995 C243 940 290 904 358 904 C426 904 473 940 474 994 C474 994 469 995 469 995 C469 949 424 919 358 919 C292 919 247 950 246 995 C246 995 242 995 242 995 L242 995 Z " />
<glyph glyph-name="gbreve" unicode="&#x11f;" horiz-adv-x="520" d="M147 745 C148 690 195 654 263 654 C331 654 378 690 379 744 C379 744 375 745 375 745 C374 699 329 669 263 669 C197 669 152 700 151 745 C151 745 147 745 147 745 L147 745 Z M111 350 C111 443 172 505 263 505 C354 505 415 443 415 350 C415 256 354 193 263 193 C172 193 111 256 111 350 L111 350 Z M181 32 C183 32 186 32 188 32 C188 32 300 32 300 32 C421 32 468 -18 468 -93 C468 -172 390 -225 273 -225 C154 -225 75 -170 75 -86 C75 -31 117 16 181 32 C181 32 181 32 181 32 L181 32 Z M176 32 C106 15 59 -34 59 -91 C59 -174 144 -230 272 -230 C400 -230 485 -173 485 -88 C485 -4 434 52 302 52 C302 52 189 52 189 52 C121 52 76 77 76 115 C76 159 151 188 263 188 C366 188 435 253 435 350 C435 360 434 370 433 379 C439 444 475 487 527 487 C552 487 568 467 568 438 C568 434 572 431 577 431 C582 431 585 435 585 440 C585 473 565 495 535 495 C479 495 439 452 431 387 C416 462 352 510 263 510 C160 510 91 446 91 350 C91 265 144 205 226 191 C127 185 64 154 64 110 C64 66 109 35 176 32 C176 32 176 32 176 32 L176 32 Z " />
<glyph glyph-name="Gdotaccent" unicode="&#x120;" horiz-adv-x="728" d="M584 95 C584 95 585 27 585 27 C585 27 585 27 585 27 C579 25 574 23 568 22 C568 22 553 20 553 20 C573 28 584 38 584 49 C584 49 585 27 585 27 C585 27 585 24 585 24 C585 24 568 22 568 22 C556 19 544 16 532 13 C540 15 547 18 553 20 C553 20 351 -5 351 -5 C197 -5 95 147 95 375 C95 602 201 754 360 754 C389 754 414 751 437 747 C486 731 544 643 567 576 C567 576 572 561 572 561 C572 561 627 561 627 561 C627 561 627 626 627 626 C627 626 627 707 627 707 C627 707 572 707 572 707 C572 707 567 689 567 689 C567 689 567 689 567 689 C563 698 533 719 489 738 C489 738 487 738 487 738 C452 752 410 760 358 760 C186 760 71 606 71 375 C71 144 182 -10 349 -10 C448 -10 527 4 597 27 C597 27 606 29 606 29 C606 29 606 30 606 30 C634 39 660 50 686 62 C686 62 684 65 684 65 C659 53 633 43 606 34 C606 34 607 95 607 95 C607 238 627 265 657 265 C657 265 666 265 666 265 C666 265 666 325 666 325 C666 325 514 325 514 325 C514 325 514 265 514 265 C514 265 523 265 523 265 C560 265 584 238 584 95 C584 95 584 95 584 95 L584 95 Z M358 865 C370 865 378 873 378 885 C378 897 370 905 358 905 C346 905 338 897 338 885 C338 873 346 865 358 865 L358 865 Z " />
<glyph glyph-name="gdotaccent" unicode="&#x121;" horiz-adv-x="520" d="M263 615 C275 615 283 623 283 635 C283 647 275 655 263 655 C251 655 243 647 243 635 C243 623 251 615 263 615 L263 615 Z M111 350 C111 443 172 505 263 505 C354 505 415 443 415 350 C415 256 354 193 263 193 C172 193 111 256 111 350 L111 350 Z M181 32 C183 32 186 32 188 32 C188 32 300 32 300 32 C421 32 468 -18 468 -93 C468 -172 390 -225 273 -225 C154 -225 75 -170 75 -86 C75 -31 117 16 181 32 C181 32 181 32 181 32 L181 32 Z M176 32 C106 15 59 -34 59 -91 C59 -174 144 -230 272 -230 C400 -230 485 -173 485 -88 C485 -4 434 52 302 52 C302 52 189 52 189 52 C121 52 76 77 76 115 C76 159 151 188 263 188 C366 188 435 253 435 350 C435 360 434 370 433 379 C439 444 475 487 527 487 C552 487 568 467 568 438 C568 434 572 431 577 431 C582 431 585 435 585 440 C585 473 565 495 535 495 C479 495 439 452 431 387 C416 462 352 510 263 510 C160 510 91 446 91 350 C91 265 144 205 226 191 C127 185 64 154 64 110 C64 66 109 35 176 32 C176 32 176 32 176 32 L176 32 Z " />
<glyph glyph-name="Hcircumflex" unicode="&#x124;" horiz-adv-x="744" d="M400 1007 C400 1007 544 809 544 809 C544 809 546 811 546 811 C546 811 407 1024 407 1024 C405 1026 402 1031 400 1031 C397 1031 394 1026 393 1024 C393 1024 253 811 253 811 C253 811 256 809 256 809 C256 809 400 1007 400 1007 L400 1007 Z M619 230 C619 230 619 520 619 520 C619 663 645 690 683 690 C683 690 692 690 692 690 C692 690 692 750 692 750 C692 750 523 750 523 750 C523 750 523 690 523 690 C523 690 532 690 532 690 C570 690 596 663 596 520 C596 520 596 386 596 386 C596 386 203 386 203 386 C203 386 203 520 203 520 C203 663 229 690 267 690 C267 690 276 690 276 690 C276 690 276 750 276 750 C276 750 107 750 107 750 C107 750 107 690 107 690 C107 690 117 690 117 690 C155 690 181 663 181 520 C181 520 181 230 181 230 C181 87 155 60 117 60 C117 60 107 60 107 60 C107 60 107 0 107 0 C107 0 276 0 276 0 C276 0 276 60 276 60 C276 60 267 60 267 60 C229 60 203 87 203 230 C203 230 203 380 203 380 C203 380 596 380 596 380 C596 380 596 230 596 230 C596 87 570 60 532 60 C532 60 523 60 523 60 C523 60 523 0 523 0 C523 0 692 0 692 0 C692 0 692 60 692 60 C692 60 683 60 683 60 C645 60 619 87 619 230 L619 230 Z " />
<glyph glyph-name="Itilde" unicode="&#x128;" horiz-adv-x="306" d="M27 870 C27 913 46 941 75 941 C137 941 198 876 260 876 C294 876 317 906 317 951 C317 951 314 951 314 951 C314 915 294 891 264 891 C202 891 142 956 80 956 C46 956 24 922 24 870 C24 870 27 870 27 870 L27 870 Z M182 230 C182 230 182 520 182 520 C182 663 208 690 246 690 C246 690 255 690 255 690 C255 690 255 750 255 750 C255 750 86 750 86 750 C86 750 86 690 86 690 C86 690 95 690 95 690 C133 690 159 663 159 520 C159 520 159 230 159 230 C159 87 133 60 95 60 C95 60 86 60 86 60 C86 60 86 0 86 0 C86 0 255 0 255 0 C255 0 255 60 255 60 C255 60 246 60 246 60 C208 60 182 87 182 230 L182 230 Z " />
<glyph glyph-name="itilde" unicode="&#x129;" horiz-adv-x="241" d="M-2 620 C-2 663 17 691 46 691 C108 691 168 626 230 626 C265 626 288 656 288 701 C288 701 284 701 284 701 C284 665 264 641 235 641 C173 641 113 706 50 706 C17 706 -6 672 -6 620 C-6 620 -2 620 -2 620 L-2 620 Z M151 103 C151 103 151 297 151 297 C151 297 151 500 151 500 C151 500 147 500 147 500 C147 500 74 454 74 454 C74 454 74 424 74 424 C122 427 131 410 131 297 C131 297 131 103 131 103 C131 67 112 60 84 60 C84 60 75 60 75 60 C75 60 75 0 75 0 C75 0 209 0 209 0 C209 0 209 60 209 60 C209 60 200 60 200 60 C171 60 151 67 151 103 L151 103 Z " />
<glyph glyph-name="Imacron" unicode="&#x12a;" horiz-adv-x="306" d="M20 907 C20 907 320 907 320 907 C320 907 320 920 320 920 C320 920 20 920 20 920 C20 920 20 907 20 907 L20 907 Z M182 230 C182 230 182 520 182 520 C182 663 208 690 246 690 C246 690 255 690 255 690 C255 690 255 750 255 750 C255 750 86 750 86 750 C86 750 86 690 86 690 C86 690 95 690 95 690 C133 690 159 663 159 520 C159 520 159 230 159 230 C159 87 133 60 95 60 C95 60 86 60 86 60 C86 60 86 0 86 0 C86 0 255 0 255 0 C255 0 255 60 255 60 C255 60 246 60 246 60 C208 60 182 87 182 230 L182 230 Z " />
<glyph glyph-name="imacron" unicode="&#x12b;" horiz-adv-x="241" d="M-9 657 C-9 657 291 657 291 657 C291 657 291 670 291 670 C291 670 -9 670 -9 670 C-9 670 -9 657 -9 657 L-9 657 Z M151 103 C151 103 151 297 151 297 C151 297 151 500 151 500 C151 500 147 500 147 500 C147 500 74 454 74 454 C74 454 74 424 74 424 C122 427 131 410 131 297 C131 297 131 103 131 103 C131 67 112 60 84 60 C84 60 75 60 75 60 C75 60 75 0 75 0 C75 0 209 0 209 0 C209 0 209 60 209 60 C209 60 200 60 200 60 C171 60 151 67 151 103 L151 103 Z " />
<glyph glyph-name="Ibreve" unicode="&#x12c;" horiz-adv-x="306" d="M55 995 C55 940 102 904 170 904 C239 904 285 940 286 994 C286 994 282 995 282 995 C281 949 236 919 170 919 C104 919 60 950 59 995 C59 995 55 995 55 995 L55 995 Z M182 230 C182 230 182 520 182 520 C182 663 208 690 246 690 C246 690 255 690 255 690 C255 690 255 750 255 750 C255 750 86 750 86 750 C86 750 86 690 86 690 C86 690 95 690 95 690 C133 690 159 663 159 520 C159 520 159 230 159 230 C159 87 133 60 95 60 C95 60 86 60 86 60 C86 60 86 0 86 0 C86 0 255 0 255 0 C255 0 255 60 255 60 C255 60 246 60 246 60 C208 60 182 87 182 230 L182 230 Z " />
<glyph glyph-name="ibreve" unicode="&#x12d;" horiz-adv-x="241" d="M25 745 C26 690 73 654 141 654 C209 654 256 690 257 744 C257 744 253 745 253 745 C252 699 207 669 141 669 C75 669 30 700 29 745 C29 745 25 745 25 745 L25 745 Z M151 103 C151 103 151 297 151 297 C151 297 151 500 151 500 C151 500 147 500 147 500 C147 500 74 454 74 454 C74 454 74 424 74 424 C122 427 131 410 131 297 C131 297 131 103 131 103 C131 67 112 60 84 60 C84 60 75 60 75 60 C75 60 75 0 75 0 C75 0 209 0 209 0 C209 0 209 60 209 60 C209 60 200 60 200 60 C171 60 151 67 151 103 L151 103 Z " />
<glyph glyph-name="Idotaccent" unicode="&#x130;" horiz-adv-x="306" d="M170 865 C182 865 190 873 190 885 C190 897 182 905 170 905 C158 905 150 897 150 885 C150 873 158 865 170 865 L170 865 Z M182 230 C182 230 182 520 182 520 C182 663 208 690 246 690 C246 690 255 690 255 690 C255 690 255 750 255 750 C255 750 86 750 86 750 C86 750 86 690 86 690 C86 690 95 690 95 690 C133 690 159 663 159 520 C159 520 159 230 159 230 C159 87 133 60 95 60 C95 60 86 60 86 60 C86 60 86 0 86 0 C86 0 255 0 255 0 C255 0 255 60 255 60 C255 60 246 60 246 60 C208 60 182 87 182 230 L182 230 Z " />
<glyph glyph-name="dotlessi" unicode="&#x131;" horiz-adv-x="241" d="M151 103 C151 103 151 297 151 297 C151 297 151 500 151 500 C151 500 147 500 147 500 C147 500 74 454 74 454 C74 454 74 424 74 424 C122 427 131 410 131 297 C131 297 131 103 131 103 C131 67 112 60 84 60 C84 60 75 60 75 60 C75 60 75 0 75 0 C75 0 209 0 209 0 C209 0 209 60 209 60 C209 60 200 60 200 60 C171 60 151 67 151 103 L151 103 Z " />
<glyph glyph-name="Jcircumflex" unicode="&#x134;" horiz-adv-x="306" d="M170 1007 C170 1007 314 809 314 809 C314 809 317 811 317 811 C317 811 177 1024 177 1024 C176 1026 173 1031 170 1031 C168 1031 165 1026 163 1024 C163 1024 24 811 24 811 C24 811 26 809 26 809 C26 809 170 1007 170 1007 L170 1007 Z M159 520 C159 520 159 1 159 1 C159 -178 90 -212 40 -212 C28 -212 33 -193 22 -193 C15 -193 11 -197 11 -204 C11 -214 20 -220 34 -220 C96 -220 182 -178 182 43 C182 43 182 520 182 520 C182 663 208 690 246 690 C246 690 255 690 255 690 C255 690 255 750 255 750 C255 750 86 750 86 750 C86 750 86 690 86 690 C86 690 95 690 95 690 C133 690 159 663 159 520 L159 520 Z " />
<glyph glyph-name="Lacute" unicode="&#x139;" horiz-adv-x="571" d="M176 814 C176 814 313 940 313 940 C358 982 388 1011 388 1012 C388 1017 384 1022 378 1022 C377 1022 348 993 304 949 C304 949 174 817 174 817 C174 817 176 814 176 814 L176 814 Z M517 4 C517 4 517 4 517 4 C526 42 537 80 547 117 C535 118 493 119 487 119 C475 63 441 26 326 11 C198 36 182 119 182 235 C182 235 182 244 182 244 C182 244 182 506 182 506 C182 661 208 690 246 690 C246 690 255 690 255 690 C255 690 255 750 255 750 C255 750 182 750 182 750 C182 750 159 750 159 750 C159 750 86 750 86 750 C86 750 86 690 86 690 C86 690 95 690 95 690 C133 690 159 661 159 506 C159 506 159 244 159 244 C159 89 133 60 95 60 C95 60 86 60 86 60 C86 60 86 0 86 0 C86 0 159 0 159 0 C159 0 181 0 181 0 C181 0 182 0 182 0 C182 0 516 0 516 0 C516 0 517 0 517 0 C517 0 517 4 517 4 L517 4 Z " />
<glyph glyph-name="Lcaron" unicode="&#x13d;" horiz-adv-x="571" d="M517 4 C517 4 517 4 517 4 C526 42 537 80 547 117 C535 118 493 119 487 119 C475 63 441 26 326 11 C198 36 182 119 182 235 C182 235 182 244 182 244 C182 244 182 506 182 506 C182 661 208 690 246 690 C246 690 255 690 255 690 C255 690 255 750 255 750 C255 750 182 750 182 750 C182 750 159 750 159 750 C159 750 86 750 86 750 C86 750 86 690 86 690 C86 690 95 690 95 690 C133 690 159 661 159 506 C159 506 159 244 159 244 C159 89 133 60 95 60 C95 60 86 60 86 60 C86 60 86 0 86 0 C86 0 159 0 159 0 C159 0 181 0 181 0 C181 0 182 0 182 0 C182 0 516 0 516 0 C516 0 517 0 517 0 C517 0 517 4 517 4 L517 4 Z M337 702 C348 752 355 794 355 807 C355 809 351 809 346 809 C341 809 332 748 326 704 C326 704 311 593 311 593 C311 593 315 593 315 593 C315 593 337 702 337 702 L337 702 Z " />
<glyph glyph-name="lcaron" unicode="&#x13e;" horiz-adv-x="221" d="M206 652 C217 702 224 744 224 757 C224 759 221 759 215 759 C210 759 201 698 196 654 C196 654 181 543 181 543 C181 543 184 543 184 543 C184 543 206 652 206 652 L206 652 Z M131 103 C131 103 131 456 131 456 C131 456 131 750 131 750 C131 750 128 750 128 750 C128 750 52 728 52 728 C52 728 52 668 52 668 C52 668 61 670 61 670 C91 679 111 648 111 451 C111 451 111 103 111 103 C111 67 92 60 65 60 C65 60 56 60 56 60 C56 60 56 0 56 0 C56 0 187 0 187 0 C187 0 187 60 187 60 C187 60 178 60 178 60 C150 60 131 67 131 103 L131 103 Z " />
<glyph glyph-name="Nacute" unicode="&#x143;" horiz-adv-x="710" d="M260 814 C260 814 397 940 397 940 C443 982 473 1011 473 1012 C473 1017 468 1022 463 1022 C461 1022 432 993 388 949 C388 949 258 817 258 817 C258 817 260 814 260 814 L260 814 Z M135 750 C135 750 130 750 130 750 C130 750 124 750 124 750 C124 750 107 750 107 750 C107 750 100 750 100 750 C100 750 100 690 100 690 C100 690 109 690 109 690 C114 690 119 689 124 687 C124 687 124 427 124 427 C124 119 94 60 49 60 C49 60 36 60 36 60 C36 60 36 0 36 0 C36 0 124 0 124 0 C124 0 130 0 130 0 C130 0 218 0 218 0 C218 0 218 60 218 60 C218 60 206 60 206 60 C160 60 130 114 130 399 C130 399 130 684 130 684 C148 674 171 649 207 591 C207 591 207 592 207 592 C207 592 559 32 559 32 C559 32 579 0 579 0 C579 0 584 0 584 0 C584 0 585 408 585 408 C585 408 585 408 585 408 C584 645 616 690 663 690 C663 690 672 690 672 690 C672 690 672 750 672 750 C672 750 585 750 585 750 C585 750 579 750 579 750 C579 750 492 750 492 750 C492 750 492 690 492 690 C492 690 501 690 501 690 C548 690 579 645 579 408 C579 408 579 42 579 42 C579 42 578 44 578 44 C578 44 135 750 135 750 L135 750 Z " />
<glyph glyph-name="Ncaron" unicode="&#x147;" horiz-adv-x="710" d="M355 843 C355 843 498 1041 498 1041 C498 1041 501 1039 501 1039 C501 1039 362 826 362 826 C360 824 357 819 355 819 C351 819 349 822 348 826 C348 826 348 826 348 826 C348 826 208 1039 208 1039 C208 1039 211 1041 211 1041 C211 1041 355 843 355 843 L355 843 Z M135 750 C135 750 130 750 130 750 C130 750 124 750 124 750 C124 750 107 750 107 750 C107 750 100 750 100 750 C100 750 100 690 100 690 C100 690 109 690 109 690 C114 690 119 689 124 687 C124 687 124 427 124 427 C124 119 94 60 49 60 C49 60 36 60 36 60 C36 60 36 0 36 0 C36 0 124 0 124 0 C124 0 130 0 130 0 C130 0 218 0 218 0 C218 0 218 60 218 60 C218 60 206 60 206 60 C160 60 130 114 130 399 C130 399 130 684 130 684 C148 674 171 649 207 591 C207 591 207 592 207 592 C207 592 559 32 559 32 C559 32 579 0 579 0 C579 0 584 0 584 0 C584 0 585 408 585 408 C585 408 585 408 585 408 C584 645 616 690 663 690 C663 690 672 690 672 690 C672 690 672 750 672 750 C672 750 585 750 585 750 C585 750 579 750 579 750 C579 750 492 750 492 750 C492 750 492 690 492 690 C492 690 501 690 501 690 C548 690 579 645 579 408 C579 408 579 42 579 42 C579 42 578 44 578 44 C578 44 135 750 135 750 L135 750 Z " />
<glyph glyph-name="ncaron" unicode="&#x148;" horiz-adv-x="504" d="M260 593 C260 593 404 791 404 791 C404 791 407 789 407 789 C407 789 267 576 267 576 C265 574 262 569 260 569 C257 569 254 574 253 576 C253 576 113 789 113 789 C113 789 116 791 116 791 C116 791 260 593 260 593 L260 593 Z M125 363 C171 442 230 495 272 495 C353 495 394 455 394 395 C394 395 394 103 394 103 C394 67 375 60 348 60 C348 60 339 60 339 60 C339 60 339 0 339 0 C339 0 470 0 470 0 C470 0 470 60 470 60 C470 60 461 60 461 60 C433 60 414 67 414 103 C414 103 414 395 414 395 C414 464 370 510 284 510 C238 510 174 454 125 369 C125 369 125 500 125 500 C125 500 122 500 122 500 C122 500 46 472 46 472 C46 472 46 412 46 412 C46 412 55 415 55 415 C85 426 105 396 105 200 C105 200 105 103 105 103 C105 67 86 60 59 60 C59 60 50 60 50 60 C50 60 50 0 50 0 C50 0 181 0 181 0 C181 0 181 60 181 60 C181 60 172 60 172 60 C144 60 125 67 125 103 C125 103 125 206 125 206 C125 206 125 363 125 363 L125 363 Z " />
<glyph glyph-name="Omacron" unicode="&#x14c;" horiz-adv-x="767" d="M237 907 C237 907 537 907 537 907 C537 907 537 920 537 920 C537 920 237 920 237 920 C237 920 237 907 237 907 L237 907 Z M378 -4 C209 -4 96 148 96 375 C96 602 212 754 386 754 C566 754 687 602 687 375 C687 148 563 -4 378 -4 L378 -4 Z M71 375 C71 144 193 -10 377 -10 C578 -10 713 144 713 375 C713 606 582 760 387 760 C197 760 71 606 71 375 L71 375 Z " />
<glyph glyph-name="omacron" unicode="&#x14d;" horiz-adv-x="609" d="M161 657 C161 657 461 657 461 657 C461 657 461 670 461 670 C461 670 161 670 161 670 C161 670 161 657 161 657 L161 657 Z M311 -4 C173 -4 81 98 81 250 C81 402 173 504 311 504 C450 504 542 402 542 250 C542 98 450 -4 311 -4 L311 -4 Z M58 250 C58 94 159 -10 311 -10 C463 -10 564 94 564 250 C564 406 463 510 311 510 C159 510 58 406 58 250 L58 250 Z " />
<glyph glyph-name="Obreve" unicode="&#x14e;" horiz-adv-x="767" d="M271 995 C272 940 318 904 387 904 C455 904 501 940 502 994 C502 994 498 995 498 995 C497 949 453 919 387 919 C321 919 276 950 275 995 C275 995 271 995 271 995 L271 995 Z M378 -4 C209 -4 96 148 96 375 C96 602 212 754 386 754 C566 754 687 602 687 375 C687 148 563 -4 378 -4 L378 -4 Z M71 375 C71 144 193 -10 377 -10 C578 -10 713 144 713 375 C713 606 582 760 387 760 C197 760 71 606 71 375 L71 375 Z " />
<glyph glyph-name="obreve" unicode="&#x14f;" horiz-adv-x="609" d="M195 745 C196 690 243 654 311 654 C379 654 426 690 427 744 C427 744 423 745 423 745 C422 699 377 669 311 669 C245 669 200 700 200 745 C200 745 195 745 195 745 L195 745 Z M311 -4 C173 -4 81 98 81 250 C81 402 173 504 311 504 C450 504 542 402 542 250 C542 98 450 -4 311 -4 L311 -4 Z M58 250 C58 94 159 -10 311 -10 C463 -10 564 94 564 250 C564 406 463 510 311 510 C159 510 58 406 58 250 L58 250 Z " />
<glyph glyph-name="Racute" unicode="&#x154;" horiz-adv-x="611" d="M321 814 C321 814 458 940 458 940 C504 982 534 1011 534 1012 C534 1017 529 1022 524 1022 C523 1022 493 993 449 949 C449 949 319 817 319 817 C319 817 321 814 321 814 L321 814 Z M602 0 C602 0 602 13 602 13 C544 13 540 17 488 120 C419 255 371 350 358 375 C450 382 511 434 511 542 C511 667 441 750 337 750 C337 750 167 750 167 750 C167 750 71 750 71 750 C71 750 71 690 71 690 C71 690 81 690 81 690 C119 690 145 661 145 506 C145 506 145 244 145 244 C145 89 119 60 81 60 C81 60 71 60 71 60 C71 60 71 0 71 0 C71 0 240 0 240 0 C240 0 240 60 240 60 C240 60 231 60 231 60 C193 60 167 89 167 244 C167 244 167 374 167 374 C167 374 335 374 335 374 C343 355 392 257 461 120 C521 5 526 0 602 0 C602 0 602 0 602 0 L602 0 Z M167 746 C167 746 330 746 330 746 C424 746 487 666 487 546 C487 440 435 387 355 381 C355 381 355 381 355 381 C355 381 353 381 353 381 C348 380 342 380 337 380 C337 380 167 380 167 380 C167 380 167 506 167 506 C167 506 167 746 167 746 L167 746 Z " />
<glyph glyph-name="Rcaron" unicode="&#x158;" horiz-adv-x="611" d="M602 0 C602 0 602 13 602 13 C544 13 540 17 488 120 C419 255 371 350 358 375 C450 382 511 434 511 542 C511 667 441 750 337 750 C337 750 167 750 167 750 C167 750 71 750 71 750 C71 750 71 690 71 690 C71 690 81 690 81 690 C119 690 145 661 145 506 C145 506 145 244 145 244 C145 89 119 60 81 60 C81 60 71 60 71 60 C71 60 71 0 71 0 C71 0 240 0 240 0 C240 0 240 60 240 60 C240 60 231 60 231 60 C193 60 167 89 167 244 C167 244 167 374 167 374 C167 374 335 374 335 374 C343 355 392 257 461 120 C521 5 526 0 602 0 C602 0 602 0 602 0 L602 0 Z M316 843 C316 843 460 1041 460 1041 C460 1041 462 1039 462 1039 C462 1039 323 826 323 826 C321 824 318 819 316 819 C313 819 310 824 309 826 C309 826 169 1039 169 1039 C169 1039 172 1041 172 1041 C172 1041 316 843 316 843 L316 843 Z M167 746 C167 746 330 746 330 746 C424 746 487 666 487 546 C487 440 435 387 355 381 C355 381 355 381 355 381 C355 381 353 381 353 381 C348 380 342 380 337 380 C337 380 167 380 167 380 C167 380 167 506 167 506 C167 506 167 746 167 746 L167 746 Z " />
<glyph glyph-name="rcaron" unicode="&#x159;" horiz-adv-x="324" d="M211 593 C211 593 355 791 355 791 C355 791 358 789 358 789 C358 789 218 576 218 576 C217 574 213 569 211 569 C209 569 205 574 204 576 C204 576 64 789 64 789 C64 789 67 791 67 791 C67 791 211 593 211 593 L211 593 Z M131 370 C155 449 209 501 267 501 C281 501 291 487 291 466 C291 459 296 454 302 454 C309 454 314 459 314 466 C314 492 299 510 276 510 C212 510 155 458 131 381 C131 381 131 500 131 500 C131 500 128 500 128 500 C128 500 52 472 52 472 C52 472 52 412 52 412 C52 412 61 415 61 415 C91 426 111 396 111 200 C111 200 111 103 111 103 C111 67 94 60 68 60 C68 60 59 60 59 60 C59 60 59 0 59 0 C59 0 191 0 191 0 C191 0 191 60 191 60 C191 60 182 60 182 60 C151 60 131 67 131 103 C131 103 131 206 131 206 C131 206 131 370 131 370 L131 370 Z " />
<glyph glyph-name="Sacute" unicode="&#x15a;" horiz-adv-x="540" d="M264 751 C264 751 251 754 251 754 C252 754 253 754 255 754 C258 753 261 752 264 751 C317 736 373 658 395 593 C395 593 400 578 400 578 C400 578 455 578 455 578 C455 578 455 641 455 641 C455 641 455 721 455 721 C455 721 400 721 400 721 C400 721 397 710 397 710 C387 718 376 725 364 731 C360 733 356 735 350 737 C316 752 278 760 238 760 C143 760 80 691 80 588 C80 516 156 432 303 363 C422 308 483 234 483 164 C483 64 414 -3 310 -3 C277 -3 245 3 215 14 C189 24 141 122 116 197 C116 197 111 212 111 212 C111 212 55 212 55 212 C55 212 55 149 55 149 C55 149 55 48 55 48 C55 48 111 48 111 48 C111 48 115 68 115 68 C119 64 123 60 128 56 C136 49 149 40 164 31 C208 5 258 -10 310 -10 C425 -10 501 62 501 171 C501 249 438 330 317 387 C172 454 97 532 97 597 C97 691 153 754 238 754 C242 754 247 754 251 754 C251 754 249 754 249 754 C251 754 253 754 264 751 L264 751 Z M280 814 C280 814 416 940 416 940 C462 982 492 1011 492 1012 C492 1017 487 1022 482 1022 C481 1022 451 993 407 949 C407 949 277 817 277 817 C277 817 280 814 280 814 L280 814 Z M395 701 C395 702 395 703 395 703 C395 703 395 703 396 703 C396 703 395 701 395 701 L395 701 Z " />
<glyph glyph-name="Scircumflex" unicode="&#x15c;" horiz-adv-x="540" d="M264 751 C264 751 251 754 251 754 C252 754 253 754 255 754 C258 753 261 752 264 751 C317 736 373 658 395 593 C395 593 400 578 400 578 C400 578 455 578 455 578 C455 578 455 641 455 641 C455 641 455 721 455 721 C455 721 400 721 400 721 C400 721 397 710 397 710 C387 718 376 725 364 731 C360 733 356 735 350 737 C316 752 278 760 238 760 C143 760 80 691 80 588 C80 516 156 432 303 363 C422 308 483 234 483 164 C483 64 414 -3 310 -3 C277 -3 245 3 215 14 C189 24 141 122 116 197 C116 197 111 212 111 212 C111 212 55 212 55 212 C55 212 55 149 55 149 C55 149 55 48 55 48 C55 48 111 48 111 48 C111 48 115 68 115 68 C119 64 123 60 128 56 C136 49 149 40 164 31 C208 5 258 -10 310 -10 C425 -10 501 62 501 171 C501 249 438 330 317 387 C172 454 97 532 97 597 C97 691 153 754 238 754 C242 754 247 754 251 754 C251 754 249 754 249 754 C251 754 253 754 264 751 L264 751 Z M274 1007 C274 1007 418 809 418 809 C418 809 421 811 421 811 C421 811 281 1024 281 1024 C280 1026 276 1031 274 1031 C272 1031 269 1026 267 1024 C267 1024 127 811 127 811 C127 811 130 809 130 809 C130 809 274 1007 274 1007 L274 1007 Z M395 701 C395 702 395 703 395 703 C395 703 395 703 396 703 C396 703 395 701 395 701 L395 701 Z " />
<glyph glyph-name="Scaron" unicode="&#x160;" horiz-adv-x="540" d="M264 751 C264 751 251 754 251 754 C252 754 253 754 255 754 C258 753 261 752 264 751 C317 736 373 658 395 593 C395 593 400 578 400 578 C400 578 455 578 455 578 C455 578 455 641 455 641 C455 641 455 721 455 721 C455 721 400 721 400 721 C400 721 397 710 397 710 C387 718 376 725 364 731 C360 733 356 735 350 737 C316 752 278 760 238 760 C143 760 80 691 80 588 C80 516 156 432 303 363 C422 308 483 234 483 164 C483 64 414 -3 310 -3 C277 -3 245 3 215 14 C189 24 141 122 116 197 C116 197 111 212 111 212 C111 212 55 212 55 212 C55 212 55 149 55 149 C55 149 55 48 55 48 C55 48 111 48 111 48 C111 48 115 68 115 68 C119 64 123 60 128 56 C136 49 149 40 164 31 C208 5 258 -10 310 -10 C425 -10 501 62 501 171 C501 249 438 330 317 387 C172 454 97 532 97 597 C97 691 153 754 238 754 C242 754 247 754 251 754 C251 754 249 754 249 754 C251 754 253 754 264 751 L264 751 Z M274 843 C274 843 418 1041 418 1041 C418 1041 421 1039 421 1039 C421 1039 281 826 281 826 C280 824 276 819 274 819 C272 819 269 824 267 826 C267 826 127 1039 127 1039 C127 1039 130 1041 130 1041 C130 1041 274 843 274 843 L274 843 Z M395 701 C395 702 395 703 395 703 C395 703 395 703 396 703 C396 703 395 701 395 701 L395 701 Z " />
<glyph glyph-name="scaron" unicode="&#x161;" horiz-adv-x="431" d="M248 593 C248 593 392 791 392 791 C392 791 395 789 395 789 C395 789 255 576 255 576 C254 574 251 569 248 569 C246 569 243 574 241 576 C241 576 102 789 102 789 C102 789 104 791 104 791 C104 791 248 593 248 593 L248 593 Z M288 488 C280 494 260 502 234 507 C234 507 232 507 232 507 C221 509 209 510 197 510 C127 510 81 465 81 396 C81 339 136 281 244 242 C324 213 366 162 366 108 C366 40 319 -5 248 -5 C181 -5 136 70 136 132 C136 132 136 143 136 143 C136 143 76 143 76 143 C76 143 76 96 76 96 C76 96 76 36 76 36 C76 36 122 36 122 36 C156 7 201 -10 248 -10 C329 -10 382 39 382 114 C382 172 338 227 253 258 C149 295 96 350 96 403 C96 464 136 505 197 505 C253 505 291 440 291 387 C291 387 291 376 291 376 C291 376 352 376 352 376 C352 376 352 424 352 424 C352 424 352 504 352 504 C352 504 291 504 291 504 C291 504 291 486 291 486 C290 487 289 488 288 488 L288 488 Z M157 19 C148 24 139 29 131 36 C131 36 136 36 136 36 C136 36 136 51 136 51 C136 41 143 29 157 19 L157 19 Z " />
<glyph glyph-name="Tcaron" unicode="&#x164;" horiz-adv-x="775" d="M388 843 C388 843 531 1041 531 1041 C531 1041 534 1039 534 1039 C534 1039 395 826 395 826 C393 824 390 819 388 819 C385 819 382 824 380 826 C380 826 241 1039 241 1039 C241 1039 244 1041 244 1041 C244 1041 388 843 388 843 L388 843 Z M388 750 C161 750 122 762 129 781 C129 781 132 790 132 790 C132 790 102 790 102 790 C83 789 71 789 71 789 C66 776 62 763 57 750 C57 750 55 750 55 750 C55 750 55 745 55 745 C46 721 37 697 29 673 C35 673 77 671 89 671 C105 720 147 743 376 744 C376 744 376 230 376 230 C376 87 350 60 312 60 C312 60 303 60 303 60 C303 60 303 0 303 0 C303 0 472 0 472 0 C472 0 472 60 472 60 C472 60 463 60 463 60 C425 60 399 87 399 230 C399 230 399 744 399 744 C628 743 670 720 686 671 C710 671 722 673 746 673 C738 697 729 721 720 745 C720 745 720 750 720 750 C720 750 718 750 718 750 C713 763 709 776 704 789 C704 789 692 789 673 790 C673 790 643 790 643 790 C643 790 646 781 646 781 C653 762 614 750 388 750 C388 750 388 750 388 750 L388 750 Z " />
<glyph glyph-name="tcaron" unicode="&#x165;" horiz-adv-x="306" d="M269 500 C269 500 115 500 115 500 C115 500 115 620 115 620 C115 620 114 620 114 620 C114 620 30 500 30 500 C30 500 30 490 30 490 C30 490 95 490 95 490 C95 490 95 103 95 103 C95 22 135 -10 196 -10 C225 -10 266 12 296 45 C296 45 294 46 294 46 C268 18 231 -1 202 -1 C149 -1 114 27 114 98 C114 98 115 489 115 489 C115 489 269 489 269 489 C269 489 269 500 269 500 L269 500 Z M341 652 C352 702 359 744 359 757 C359 759 356 759 350 759 C345 759 336 698 331 654 C331 654 316 543 316 543 C316 543 319 543 319 543 C319 543 341 652 341 652 L341 652 Z " />
<glyph glyph-name="Utilde" unicode="&#x168;" horiz-adv-x="604" d="M166 870 C166 913 185 941 214 941 C276 941 337 876 399 876 C433 876 456 906 456 951 C456 951 452 951 452 951 C452 915 433 891 403 891 C341 891 281 956 219 956 C185 956 163 922 163 870 C163 870 166 870 166 870 L166 870 Z M509 150 C509 150 509 506 509 506 C509 506 509 750 509 750 C509 750 413 750 413 750 C413 750 413 690 413 690 C413 690 422 690 422 690 C461 690 487 661 487 506 C487 506 487 164 487 164 C442 68 339 4 230 4 C171 4 132 90 132 220 C132 220 132 506 132 506 C132 506 132 750 132 750 C132 750 36 750 36 750 C36 750 36 690 36 690 C36 690 46 690 46 690 C84 690 110 661 110 506 C110 506 110 220 110 220 C110 82 154 -10 221 -10 C334 -10 441 55 487 153 C487 153 487 150 487 150 C487 150 487 0 487 0 C487 0 490 0 490 0 C490 0 582 -7 582 -7 C582 -7 582 23 582 23 C521 21 509 37 509 150 L509 150 Z " />
<glyph glyph-name="utilde" unicode="&#x169;" horiz-adv-x="483" d="M101 620 C101 663 120 691 149 691 C211 691 271 626 333 626 C368 626 391 656 391 701 C391 701 387 701 387 701 C387 665 367 641 338 641 C276 641 216 706 153 706 C120 706 97 672 97 620 C97 620 101 620 101 620 L101 620 Z M378 130 C378 130 378 129 378 129 C346 53 284 4 220 4 C153 4 109 66 109 160 C109 160 109 397 109 397 C109 397 109 500 109 500 C109 500 43 500 43 500 C43 500 43 440 43 440 C43 440 52 440 52 440 C74 440 89 433 89 397 C89 397 89 160 89 160 C89 58 138 -10 210 -10 C278 -10 344 42 378 124 C378 124 378 -10 378 -10 C378 -10 382 -10 382 -10 C382 -10 458 9 458 9 C458 9 458 69 458 69 C421 61 398 59 398 134 C398 134 398 397 398 397 C398 397 398 500 398 500 C398 500 332 500 332 500 C332 500 332 440 332 440 C332 440 341 440 341 440 C363 440 378 433 378 397 C378 397 378 130 378 130 L378 130 Z " />
<glyph glyph-name="Umacron" unicode="&#x16a;" horiz-adv-x="604" d="M159 907 C159 907 459 907 459 907 C459 907 459 920 459 920 C459 920 159 920 159 920 C159 920 159 907 159 907 L159 907 Z M509 150 C509 150 509 506 509 506 C509 506 509 750 509 750 C509 750 413 750 413 750 C413 750 413 690 413 690 C413 690 422 690 422 690 C461 690 487 661 487 506 C487 506 487 164 487 164 C442 68 339 4 230 4 C171 4 132 90 132 220 C132 220 132 506 132 506 C132 506 132 750 132 750 C132 750 36 750 36 750 C36 750 36 690 36 690 C36 690 46 690 46 690 C84 690 110 661 110 506 C110 506 110 220 110 220 C110 82 154 -10 221 -10 C334 -10 441 55 487 153 C487 153 487 150 487 150 C487 150 487 0 487 0 C487 0 490 0 490 0 C490 0 582 -7 582 -7 C582 -7 582 23 582 23 C521 21 509 37 509 150 L509 150 Z " />
<glyph glyph-name="umacron" unicode="&#x16b;" horiz-adv-x="483" d="M94 657 C94 657 394 657 394 657 C394 657 394 670 394 670 C394 670 94 670 94 670 C94 670 94 657 94 657 L94 657 Z M378 130 C378 130 378 129 378 129 C346 53 284 4 220 4 C153 4 109 66 109 160 C109 160 109 397 109 397 C109 397 109 500 109 500 C109 500 43 500 43 500 C43 500 43 440 43 440 C43 440 52 440 52 440 C74 440 89 433 89 397 C89 397 89 160 89 160 C89 58 138 -10 210 -10 C278 -10 344 42 378 124 C378 124 378 -10 378 -10 C378 -10 382 -10 382 -10 C382 -10 458 9 458 9 C458 9 458 69 458 69 C421 61 398 59 398 134 C398 134 398 397 398 397 C398 397 398 500 398 500 C398 500 332 500 332 500 C332 500 332 440 332 440 C332 440 341 440 341 440 C363 440 378 433 378 397 C378 397 378 130 378 130 L378 130 Z " />
<glyph glyph-name="Ubreve" unicode="&#x16c;" horiz-adv-x="604" d="M194 995 C194 940 241 904 309 904 C378 904 424 940 425 994 C425 994 421 995 421 995 C420 949 375 919 309 919 C243 919 199 950 198 995 C198 995 194 995 194 995 L194 995 Z M509 150 C509 150 509 506 509 506 C509 506 509 750 509 750 C509 750 413 750 413 750 C413 750 413 690 413 690 C413 690 422 690 422 690 C461 690 487 661 487 506 C487 506 487 164 487 164 C442 68 339 4 230 4 C171 4 132 90 132 220 C132 220 132 506 132 506 C132 506 132 750 132 750 C132 750 36 750 36 750 C36 750 36 690 36 690 C36 690 46 690 46 690 C84 690 110 661 110 506 C110 506 110 220 110 220 C110 82 154 -10 221 -10 C334 -10 441 55 487 153 C487 153 487 150 487 150 C487 150 487 0 487 0 C487 0 490 0 490 0 C490 0 582 -7 582 -7 C582 -7 582 23 582 23 C521 21 509 37 509 150 L509 150 Z " />
<glyph glyph-name="ubreve" unicode="&#x16d;" horiz-adv-x="483" d="M128 745 C129 690 176 654 244 654 C312 654 359 690 360 744 C360 744 355 745 355 745 C355 699 310 669 244 669 C178 669 133 700 132 745 C132 745 128 745 128 745 L128 745 Z M378 130 C378 130 378 129 378 129 C346 53 284 4 220 4 C153 4 109 66 109 160 C109 160 109 397 109 397 C109 397 109 500 109 500 C109 500 43 500 43 500 C43 500 43 440 43 440 C43 440 52 440 52 440 C74 440 89 433 89 397 C89 397 89 160 89 160 C89 58 138 -10 210 -10 C278 -10 344 42 378 124 C378 124 378 -10 378 -10 C378 -10 382 -10 382 -10 C382 -10 458 9 458 9 C458 9 458 69 458 69 C421 61 398 59 398 134 C398 134 398 397 398 397 C398 397 398 500 398 500 C398 500 332 500 332 500 C332 500 332 440 332 440 C332 440 341 440 341 440 C363 440 378 433 378 397 C378 397 378 130 378 130 L378 130 Z " />
<glyph glyph-name="Uring" unicode="&#x16e;" horiz-adv-x="604" d="M309 815 C261 815 220 856 220 905 C220 959 256 995 309 995 C363 995 399 959 399 905 C399 856 358 815 309 815 L309 815 Z M214 905 C214 854 258 810 309 810 C361 810 405 854 405 905 C405 962 367 1000 309 1000 C252 1000 214 962 214 905 L214 905 Z M509 150 C509 150 509 506 509 506 C509 506 509 750 509 750 C509 750 413 750 413 750 C413 750 413 690 413 690 C413 690 422 690 422 690 C461 690 487 661 487 506 C487 506 487 164 487 164 C442 68 339 4 230 4 C171 4 132 90 132 220 C132 220 132 506 132 506 C132 506 132 750 132 750 C132 750 36 750 36 750 C36 750 36 690 36 690 C36 690 46 690 46 690 C84 690 110 661 110 506 C110 506 110 220 110 220 C110 82 154 -10 221 -10 C334 -10 441 55 487 153 C487 153 487 150 487 150 C487 150 487 0 487 0 C487 0 490 0 490 0 C490 0 582 -7 582 -7 C582 -7 582 23 582 23 C521 21 509 37 509 150 L509 150 Z " />
<glyph glyph-name="uring" unicode="&#x16f;" horiz-adv-x="483" d="M244 565 C195 565 154 606 154 655 C154 709 190 745 244 745 C298 745 334 709 334 655 C334 606 293 565 244 565 L244 565 Z M148 655 C148 604 192 560 244 560 C295 560 339 604 339 655 C339 712 301 750 244 750 C186 750 148 712 148 655 L148 655 Z M378 130 C378 130 378 129 378 129 C346 53 284 4 220 4 C153 4 109 66 109 160 C109 160 109 397 109 397 C109 397 109 500 109 500 C109 500 43 500 43 500 C43 500 43 440 43 440 C43 440 52 440 52 440 C74 440 89 433 89 397 C89 397 89 160 89 160 C89 58 138 -10 210 -10 C278 -10 344 42 378 124 C378 124 378 -10 378 -10 C378 -10 382 -10 382 -10 C382 -10 458 9 458 9 C458 9 458 69 458 69 C421 61 398 59 398 134 C398 134 398 397 398 397 C398 397 398 500 398 500 C398 500 332 500 332 500 C332 500 332 440 332 440 C332 440 341 440 341 440 C363 440 378 433 378 397 C378 397 378 130 378 130 L378 130 Z " />
<glyph glyph-name="Wcircumflex" unicode="&#x174;" horiz-adv-x="983" d="M486 1007 C486 1007 630 809 630 809 C630 809 633 811 633 811 C633 811 493 1024 493 1024 C492 1026 488 1031 486 1031 C484 1031 480 1026 479 1024 C479 1024 339 811 339 811 C339 811 342 809 342 809 C342 809 486 1007 486 1007 L486 1007 Z M503 595 C511 563 520 531 528 500 C528 500 304 29 304 29 C304 29 204 379 204 379 C134 640 148 690 189 690 C189 690 200 690 200 690 C200 690 200 750 200 750 C200 750 99 750 99 750 C99 750 74 750 74 750 C74 750 46 750 46 750 C46 750 46 690 46 690 C46 690 54 690 54 690 C76 690 106 636 185 351 C185 351 185 351 185 351 C219 231 252 111 285 -10 C285 -10 291 -10 291 -10 C291 -10 530 490 530 490 C573 323 617 157 660 -10 C660 -10 666 -10 666 -10 C666 -10 796 415 796 415 C868 644 904 690 935 690 C935 690 946 690 946 690 C946 690 946 750 946 750 C946 750 898 750 898 750 C898 750 889 750 889 750 C889 750 773 750 773 750 C773 750 773 690 773 690 C773 690 785 690 785 690 C836 690 854 636 768 351 C768 351 769 351 769 351 C769 351 673 33 673 33 C673 33 557 483 557 483 C517 655 538 690 579 690 C579 690 590 690 590 690 C590 690 590 750 590 750 C590 750 489 750 489 750 C489 750 463 750 463 750 C463 750 412 750 412 750 C412 750 412 690 412 690 C412 690 423 690 423 690 C455 690 480 674 503 595 C503 595 503 595 503 595 L503 595 Z " />
<glyph glyph-name="Ycircumflex" unicode="&#x176;" horiz-adv-x="625" d="M317 1007 C317 1007 461 809 461 809 C461 809 463 811 463 811 C463 811 324 1024 324 1024 C322 1026 319 1031 317 1031 C314 1031 311 1026 310 1024 C310 1024 170 811 170 811 C170 811 173 809 173 809 C173 809 317 1007 317 1007 L317 1007 Z M262 456 C155 650 145 690 163 690 C163 690 168 690 168 690 C168 690 168 750 168 750 C168 750 95 750 95 750 C95 750 69 750 69 750 C69 750 58 750 58 750 C58 750 58 690 58 690 C58 690 67 690 67 690 C86 690 125 646 253 427 C253 427 305 336 305 336 C305 336 305 230 305 230 C305 87 279 60 241 60 C241 60 232 60 232 60 C232 60 232 0 232 0 C232 0 401 0 401 0 C401 0 401 60 401 60 C401 60 392 60 392 60 C354 60 328 87 328 230 C328 230 328 336 328 336 C328 336 376 424 376 424 C501 645 545 690 571 690 C571 690 582 690 582 690 C582 690 582 750 582 750 C582 750 556 750 556 750 C556 750 544 750 544 750 C544 750 471 750 471 750 C471 750 471 690 471 690 C471 690 477 690 477 690 C496 690 493 660 423 525 C423 525 326 344 326 344 C326 344 262 456 262 456 L262 456 Z " />
<glyph glyph-name="Ydieresis" unicode="&#x178;" horiz-adv-x="625" d="M380 865 C392 865 400 873 400 885 C400 897 392 905 380 905 C368 905 360 897 360 885 C360 873 368 865 380 865 L380 865 Z M253 865 C265 865 273 873 273 885 C273 897 265 905 253 905 C241 905 233 897 233 885 C233 873 241 865 253 865 L253 865 Z M262 456 C155 650 145 690 163 690 C163 690 168 690 168 690 C168 690 168 750 168 750 C168 750 95 750 95 750 C95 750 69 750 69 750 C69 750 58 750 58 750 C58 750 58 690 58 690 C58 690 67 690 67 690 C86 690 125 646 253 427 C253 427 305 336 305 336 C305 336 305 230 305 230 C305 87 279 60 241 60 C241 60 232 60 232 60 C232 60 232 0 232 0 C232 0 401 0 401 0 C401 0 401 60 401 60 C401 60 392 60 392 60 C354 60 328 87 328 230 C328 230 328 336 328 336 C328 336 376 424 376 424 C501 645 545 690 571 690 C571 690 582 690 582 690 C582 690 582 750 582 750 C582 750 556 750 556 750 C556 750 544 750 544 750 C544 750 471 750 471 750 C471 750 471 690 471 690 C471 690 477 690 477 690 C496 690 493 660 423 525 C423 525 326 344 326 344 C326 344 262 456 262 456 L262 456 Z " />
<glyph glyph-name="Zacute" unicode="&#x179;" horiz-adv-x="642" d="M346 814 C346 814 482 940 482 940 C528 982 558 1011 558 1012 C558 1017 553 1022 548 1022 C547 1022 517 993 473 949 C473 949 343 817 343 817 C343 817 346 814 346 814 L346 814 Z M49 0 C49 0 151 0 151 0 C151 0 606 0 606 0 C615 37 625 73 634 111 C634 111 622 112 604 112 C586 113 574 113 574 113 C574 113 548 83 548 83 C512 40 443 10 219 6 C219 6 53 5 53 5 C53 5 610 745 610 745 C610 745 610 750 610 750 C610 750 588 750 588 750 C588 750 553 750 553 750 C553 750 70 750 70 750 C64 711 60 669 53 629 C53 629 69 628 92 628 C116 627 131 626 131 626 C131 626 140 647 140 647 C164 703 232 740 500 745 C500 745 584 745 584 745 C584 745 25 5 25 5 C25 5 25 0 25 0 C25 0 49 0 49 0 L49 0 Z " />
<glyph glyph-name="Zdotaccent" unicode="&#x17b;" horiz-adv-x="642" d="M340 865 C352 865 360 873 360 885 C360 897 352 905 340 905 C328 905 320 897 320 885 C320 873 328 865 340 865 L340 865 Z M49 0 C49 0 151 0 151 0 C151 0 606 0 606 0 C615 37 625 73 634 111 C634 111 622 112 604 112 C586 113 574 113 574 113 C574 113 548 83 548 83 C512 40 443 10 219 6 C219 6 53 5 53 5 C53 5 610 745 610 745 C610 745 610 750 610 750 C610 750 588 750 588 750 C588 750 553 750 553 750 C553 750 70 750 70 750 C64 711 60 669 53 629 C53 629 69 628 92 628 C116 627 131 626 131 626 C131 626 140 647 140 647 C164 703 232 740 500 745 C500 745 584 745 584 745 C584 745 25 5 25 5 C25 5 25 0 25 0 C25 0 49 0 49 0 L49 0 Z " />
<glyph glyph-name="zdotaccent" unicode="&#x17c;" horiz-adv-x="475" d="M299 615 C311 615 319 623 319 635 C319 647 311 655 299 655 C287 655 279 647 279 635 C279 623 287 615 299 615 L299 615 Z M70 425 C70 425 122 425 122 425 C122 425 133 435 133 435 C173 469 232 492 401 495 C401 495 411 495 411 495 C411 495 40 5 40 5 C40 5 40 0 40 0 C40 0 61 0 61 0 C61 0 415 0 415 0 C415 0 430 0 430 0 C434 25 438 50 440 75 C440 75 390 75 390 75 C390 75 379 66 379 66 C337 31 274 8 100 5 C100 5 65 5 65 5 C65 5 435 495 435 495 C435 495 435 500 435 500 C435 500 415 500 415 500 C415 500 279 500 279 500 C225 500 152 508 155 519 C155 519 158 528 158 528 C158 528 97 528 97 528 C88 493 79 459 70 425 C70 425 70 425 70 425 L70 425 Z " />
<glyph glyph-name="Zcaron" unicode="&#x17d;" horiz-adv-x="642" d="M340 843 C340 843 484 1041 484 1041 C484 1041 487 1039 487 1039 C487 1039 347 826 347 826 C346 824 342 819 340 819 C338 819 334 824 333 826 C333 826 193 1039 193 1039 C193 1039 196 1041 196 1041 C196 1041 340 843 340 843 L340 843 Z M49 0 C49 0 151 0 151 0 C151 0 606 0 606 0 C615 37 625 73 634 111 C634 111 622 112 604 112 C586 113 574 113 574 113 C574 113 548 83 548 83 C512 40 443 10 219 6 C219 6 53 5 53 5 C53 5 610 745 610 745 C610 745 610 750 610 750 C610 750 588 750 588 750 C588 750 553 750 553 750 C553 750 70 750 70 750 C64 711 60 669 53 629 C53 629 69 628 92 628 C116 627 131 626 131 626 C131 626 140 647 140 647 C164 703 232 740 500 745 C500 745 584 745 584 745 C584 745 25 5 25 5 C25 5 25 0 25 0 C25 0 49 0 49 0 L49 0 Z " />
<glyph glyph-name="zcaron" unicode="&#x17e;" horiz-adv-x="475" d="M70 425 C70 425 122 425 122 425 C122 425 133 435 133 435 C173 469 232 492 401 495 C401 495 411 495 411 495 C411 495 40 5 40 5 C40 5 40 0 40 0 C40 0 61 0 61 0 C61 0 415 0 415 0 C415 0 430 0 430 0 C434 25 438 50 440 75 C440 75 390 75 390 75 C390 75 379 66 379 66 C337 31 274 8 100 5 C100 5 65 5 65 5 C65 5 435 495 435 495 C435 495 435 500 435 500 C435 500 415 500 415 500 C415 500 279 500 279 500 C225 500 152 508 155 519 C155 519 158 528 158 528 C158 528 97 528 97 528 C88 493 79 459 70 425 C70 425 70 425 70 425 L70 425 Z M299 593 C299 593 443 791 443 791 C443 791 445 789 445 789 C445 789 306 576 306 576 C304 574 301 569 299 569 C296 569 293 574 292 576 C292 576 152 789 152 789 C152 789 155 791 155 791 C155 791 299 593 299 593 L299 593 Z " />
<glyph glyph-name="SmallLetterOwithogon" unicode="&#x1eb;" horiz-adv-x="685" d="M910 -53 C910 -53 909 -51 909 -51 C879 -76 787 -93 678 -93 C558 -93 424 -60 339 -10 C516 -10 635 111 635 292 C635 472 520 593 348 593 C182 593 71 472 71 292 C71 125 229 10 317 -8 C317 -8 316 -8 316 -8 C413 -68 556 -109 675 -109 C775 -109 869 -86 910 -53 L910 -53 Z M339 -5 C336 -5 333 -5 330 -4 C329 -4 329 -4 329 -4 C329 -4 328 -4 328 -4 C250 6 94 122 94 292 C94 469 195 588 347 588 C506 588 612 469 612 292 C612 114 503 -5 339 -5 L339 -5 Z " />
<glyph glyph-name="CapitalLetterAwithdo" unicode="&#x226;" horiz-adv-x="661" d="M359 865 C371 865 379 873 379 885 C379 897 371 905 359 905 C347 905 339 897 339 885 C339 873 347 865 359 865 L359 865 Z M212 294 C212 294 478 294 478 294 C478 294 481 284 481 284 C533 96 517 60 479 60 C479 60 469 60 469 60 C469 60 469 0 469 0 C469 0 563 0 563 0 C563 0 586 0 586 0 C586 0 635 0 635 0 C635 0 635 60 635 60 C635 60 624 60 624 60 C592 60 555 110 479 368 C479 368 370 743 370 743 C370 743 362 770 362 770 C362 770 360 770 360 770 C357 754 353 744 348 743 C348 743 351 733 351 733 C351 733 350 733 350 733 C350 733 237 387 237 387 C142 115 93 60 48 60 C48 60 36 60 36 60 C36 60 36 0 36 0 C36 0 110 0 110 0 C110 0 117 0 117 0 C117 0 232 0 232 0 C232 0 232 60 232 60 C232 60 221 60 221 60 C173 60 151 92 200 256 C200 256 212 294 212 294 L212 294 Z M214 299 C214 299 353 726 353 726 C353 726 476 299 476 299 C476 299 214 299 214 299 L214 299 Z " />
<glyph glyph-name="LETTERSMALLCAPITALG" unicode="&#x262;" horiz-adv-x="651" d="M406 584 C381 590 353 593 319 593 C170 593 71 472 71 292 C71 111 168 -10 315 -10 C380 -10 440 1 497 18 C501 20 506 21 510 22 C510 22 510 20 510 20 C510 20 530 25 530 25 C530 25 530 29 530 29 C557 39 583 50 609 62 C609 62 608 65 608 65 C582 53 556 42 530 33 C531 166 551 192 580 192 C580 192 589 192 589 192 C589 192 589 253 589 253 C589 253 440 253 440 253 C440 253 440 192 440 192 C440 192 449 192 449 192 C485 192 509 165 509 28 C509 28 507 43 507 43 C507 34 499 25 485 18 C481 17 477 16 473 15 C473 15 316 -5 316 -5 C183 -5 94 114 94 292 C94 469 185 588 321 588 C330 588 339 588 348 587 C407 578 469 500 490 438 C490 438 495 423 495 423 C495 423 550 423 550 423 C550 423 550 487 550 487 C550 487 550 568 550 568 C550 568 495 568 495 568 C495 568 490 548 490 548 C492 555 459 571 406 584 L406 584 Z M509 26 C501 23 493 21 485 18 C483 18 481 17 479 16 C479 16 497 18 497 18 C497 18 509 26 509 26 L509 26 Z M341 588 C341 588 340 588 340 588 C340 588 341 588 341 588 L341 588 Z " />
<glyph glyph-name="LETTERSMALLCAPITALI" unicode="&#x26a;" horiz-adv-x="305" d="M180 230 C180 230 180 354 180 354 C180 496 206 523 245 523 C245 523 254 523 254 523 C254 523 254 583 254 583 C254 583 87 583 87 583 C87 583 87 523 87 523 C87 523 96 523 96 523 C134 523 160 496 160 354 C160 354 160 230 160 230 C160 87 134 60 96 60 C96 60 87 60 87 60 C87 60 87 0 87 0 C87 0 254 0 254 0 C254 0 254 60 254 60 C254 60 245 60 245 60 C206 60 180 87 180 230 L180 230 Z " />
<glyph glyph-name="LETTERSMALLCAPITALN" unicode="&#x274;" horiz-adv-x="634" d="M134 583 C134 583 129 583 129 583 C129 583 124 583 124 583 C124 583 109 583 109 583 C109 583 104 583 104 583 C104 583 104 523 104 523 C104 523 113 523 113 523 C117 523 120 523 124 522 C124 522 124 427 124 427 C124 119 94 60 49 60 C49 60 37 60 37 60 C37 60 37 0 37 0 C37 0 124 0 124 0 C124 0 130 0 130 0 C130 0 217 0 217 0 C217 0 217 60 217 60 C217 60 205 60 205 60 C162 60 133 107 129 344 C129 344 129 520 129 520 C146 513 168 493 203 445 C203 445 489 22 489 22 C489 22 504 0 504 0 C504 0 508 0 508 0 C508 0 508 241 508 241 C508 241 509 241 509 241 C508 478 540 523 587 523 C587 523 596 523 596 523 C596 523 596 583 596 583 C596 583 509 583 509 583 C509 583 503 583 503 583 C503 583 416 583 416 583 C416 583 416 523 416 523 C416 523 425 523 425 523 C469 523 499 483 504 281 C504 281 504 28 504 28 C504 28 502 31 502 31 C502 31 134 583 134 583 L134 583 Z " />
<glyph glyph-name="LETTERSMALLCAPITALR" unicode="&#x280;" horiz-adv-x="533" d="M524 0 C524 0 524 12 524 12 C469 12 465 15 418 94 C355 198 310 272 298 292 C382 297 436 338 436 421 C436 518 373 583 278 583 C278 583 165 583 165 583 C165 583 72 583 72 583 C72 583 72 523 72 523 C72 523 81 523 81 523 C119 523 145 494 145 340 C145 340 145 244 145 244 C145 89 119 60 81 60 C81 60 72 60 72 60 C72 60 72 0 72 0 C72 0 239 0 239 0 C239 0 239 60 239 60 C239 60 230 60 230 60 C191 60 165 89 165 244 C165 244 165 291 165 291 C165 291 277 291 277 291 C284 277 329 202 394 94 C449 4 454 0 524 0 C524 0 524 0 524 0 L524 0 Z M165 579 C165 579 272 579 272 579 C357 579 413 518 413 425 C413 342 367 302 295 297 C295 297 295 297 295 297 C295 297 292 296 292 296 C288 296 283 296 278 296 C278 296 165 296 165 296 C165 296 165 340 165 340 C165 340 165 579 165 579 L165 579 Z " />
<glyph glyph-name="LETTERSMALLCAPITALY" unicode="&#x28f;" horiz-adv-x="548" d="M267 298 C153 486 143 523 161 523 C161 523 167 523 167 523 C167 523 167 583 167 583 C167 583 93 583 93 583 C93 583 69 583 69 583 C69 583 61 583 61 583 C61 583 61 523 61 523 C61 523 70 523 70 523 C92 523 132 482 265 264 C265 264 266 264 266 264 C266 264 268 261 268 261 C268 261 268 230 268 230 C268 87 242 60 203 60 C203 60 194 60 194 60 C194 60 194 0 194 0 C194 0 361 0 361 0 C361 0 361 60 361 60 C361 60 352 60 352 60 C314 60 288 87 288 230 C288 230 288 261 288 261 C288 261 290 264 290 264 C290 264 290 264 290 264 C418 482 462 523 491 523 C491 523 501 523 501 523 C501 523 501 583 501 583 C501 583 478 583 478 583 C478 583 468 583 468 583 C468 583 394 583 394 583 C394 583 394 523 394 523 C394 523 400 523 400 523 C419 523 414 493 333 348 C333 348 286 267 286 267 C286 267 267 298 267 298 L267 298 Z " />
<glyph glyph-name="LETTERSMALLCAPITALB" unicode="&#x299;" horiz-adv-x="477" d="M165 579 C165 579 217 579 217 579 C375 579 412 523 412 440 C412 357 353 301 264 301 C264 301 165 301 165 301 C165 301 165 340 165 340 C165 340 165 579 165 579 L165 579 Z M304 301 C382 314 432 367 432 442 C432 527 393 583 225 583 C225 583 165 583 165 583 C165 583 72 583 72 583 C72 583 72 523 72 523 C72 523 81 523 81 523 C119 523 145 494 145 340 C145 340 145 244 145 244 C145 89 119 60 81 60 C81 60 72 60 72 60 C72 60 72 0 72 0 C72 0 165 0 165 0 C165 0 285 0 285 0 C377 0 438 29 438 151 C438 241 387 301 310 301 C310 301 304 301 304 301 L304 301 Z M266 298 C266 298 297 298 297 298 C368 298 415 239 415 151 C415 32 361 4 280 4 C280 4 230 4 230 4 C191 4 165 96 165 235 C165 235 165 244 165 244 C165 244 165 298 165 298 C165 298 266 298 266 298 L266 298 Z " />
<glyph glyph-name="LETTERSMALLCAPITALH" unicode="&#x29c;" horiz-adv-x="671" d="M546 230 C546 230 546 354 546 354 C546 496 572 523 610 523 C610 523 619 523 619 523 C619 523 619 583 619 583 C619 583 453 583 453 583 C453 583 453 523 453 523 C453 523 462 523 462 523 C500 523 526 496 526 354 C526 354 526 301 526 301 C526 301 201 301 201 301 C201 301 201 354 201 354 C201 496 227 523 266 523 C266 523 275 523 275 523 C275 523 275 583 275 583 C275 583 108 583 108 583 C108 583 108 523 108 523 C108 523 117 523 117 523 C155 523 181 496 181 354 C181 354 181 230 181 230 C181 87 155 60 117 60 C117 60 108 60 108 60 C108 60 108 0 108 0 C108 0 275 0 275 0 C275 0 275 60 275 60 C275 60 266 60 266 60 C227 60 201 87 201 230 C201 230 201 295 201 295 C201 295 526 295 526 295 C526 295 526 230 526 230 C526 87 500 60 462 60 C462 60 453 60 453 60 C453 60 453 0 453 0 C453 0 619 0 619 0 C619 0 619 60 619 60 C619 60 610 60 610 60 C572 60 546 87 546 230 L546 230 Z " />
<glyph glyph-name="LETTERSMALLCAPITALL" unicode="&#x29f;" horiz-adv-x="495" d="M440 0 C449 39 460 78 471 116 C470 116 458 117 441 117 C423 118 411 119 411 119 C411 119 408 110 408 110 C396 66 372 32 305 15 C195 44 180 125 180 235 C180 235 180 244 180 244 C180 244 180 340 180 340 C180 494 206 523 245 523 C245 523 254 523 254 523 C254 523 254 583 254 583 C254 583 180 583 180 583 C180 583 160 583 160 583 C160 583 87 583 87 583 C87 583 87 523 87 523 C87 523 96 523 96 523 C134 523 160 494 160 340 C160 340 160 244 160 244 C160 89 134 60 96 60 C96 60 87 60 87 60 C87 60 87 0 87 0 C87 0 160 0 160 0 C160 0 180 0 180 0 C180 0 440 0 440 0 L440 0 Z " />
<glyph glyph-name="LETTERSMALLCAPITALA" unicode="&#x1d00;" horiz-adv-x="589" d="M388 399 C388 399 389 396 389 396 C389 396 331 578 331 578 C331 578 323 603 323 603 C323 603 321 603 321 603 C319 589 315 579 311 578 C311 578 314 568 314 568 C314 568 314 568 314 568 C314 568 254 402 254 402 C148 117 96 60 50 60 C50 60 38 60 38 60 C38 60 38 0 38 0 C38 0 110 0 110 0 C110 0 116 0 116 0 C116 0 231 0 231 0 C231 0 231 60 231 60 C231 60 221 60 221 60 C172 60 148 86 193 217 C193 217 197 228 197 228 C197 228 421 228 421 228 C421 228 433 191 433 191 C462 82 444 60 409 60 C409 60 399 60 399 60 C399 60 399 0 399 0 C399 0 493 0 493 0 C493 0 514 0 514 0 C514 0 562 0 562 0 C562 0 562 60 562 60 C562 60 551 60 551 60 C517 60 478 114 388 399 C388 399 388 399 388 399 L388 399 Z M199 233 C199 233 316 562 316 562 C316 562 420 233 420 233 C420 233 199 233 199 233 L199 233 Z " />
<glyph glyph-name="LETTERSMALLCAPITALC" unicode="&#x1d04;" horiz-adv-x="598" d="M407 584 C407 584 406 584 406 584 C381 590 353 593 319 593 C170 593 71 472 71 292 C71 111 167 -10 310 -10 C374 -10 423 2 463 24 C472 27 481 30 490 33 C495 35 498 27 498 13 C498 13 550 13 550 13 C550 13 550 96 550 96 C550 96 550 160 550 160 C550 160 495 160 495 160 C495 160 490 145 490 145 C470 85 416 7 374 0 C374 0 374 0 374 0 C355 -3 335 -5 312 -5 C181 -5 94 114 94 292 C94 469 185 588 321 588 C330 588 339 588 348 587 C407 578 469 500 490 438 C490 438 495 423 495 423 C495 423 550 423 550 423 C550 423 550 487 550 487 C550 487 550 568 550 568 C550 568 495 568 495 568 C495 568 490 548 490 548 C492 555 459 571 407 584 C407 584 407 584 407 584 L407 584 Z M341 588 C341 588 340 588 340 588 C340 588 341 588 341 588 L341 588 Z " />
<glyph glyph-name="LETTERSMALLCAPITALD" unicode="&#x1d05;" horiz-adv-x="676" d="M145 340 C145 340 145 244 145 244 C145 89 119 60 81 60 C81 60 72 60 72 60 C72 60 72 0 72 0 C72 0 145 0 145 0 C145 0 165 0 165 0 C165 0 221 0 221 0 C461 0 621 99 621 292 C621 466 495 583 249 583 C249 583 165 583 165 583 C165 583 145 583 145 583 C145 583 72 583 72 583 C72 583 72 523 72 523 C72 523 81 523 81 523 C119 523 145 494 145 340 L145 340 Z M165 579 C165 579 233 579 233 579 C475 579 599 464 599 292 C599 102 446 4 215 4 C170 4 165 96 165 235 C165 235 165 244 165 244 C165 244 165 340 165 340 C165 340 165 579 165 579 L165 579 Z " />
<glyph glyph-name="LETTERSMALLCAPITALE" unicode="&#x1d07;" horiz-adv-x="503" d="M355 299 C355 299 355 304 355 304 C355 304 355 402 355 402 C355 402 295 402 295 402 C295 402 295 393 295 393 C295 340 276 304 175 304 C175 304 165 304 165 304 C165 304 165 340 165 340 C165 340 165 579 165 579 C165 579 166 579 166 579 C357 579 358 548 361 501 C361 501 361 492 361 492 C361 492 422 492 422 492 C421 506 419 524 419 538 C417 551 416 569 415 583 C415 583 165 583 165 583 C165 583 145 583 145 583 C145 583 72 583 72 583 C72 583 72 523 72 523 C72 523 81 523 81 523 C119 523 145 494 145 340 C145 340 145 244 145 244 C145 89 119 60 81 60 C81 60 72 60 72 60 C72 60 72 0 72 0 C72 0 145 0 145 0 C145 0 165 0 165 0 C165 0 440 0 440 0 C440 0 449 61 453 92 C453 92 393 92 393 92 C387 33 353 4 166 4 C166 4 165 4 165 4 C165 4 355 299 355 299 L355 299 Z M165 244 C165 244 165 299 165 299 C165 299 175 299 175 299 C175 299 165 244 165 244 L165 244 Z " />
<glyph glyph-name="LETTERSMALLCAPITALJ" unicode="&#x1d0a;" horiz-adv-x="305" d="M160 354 C160 354 160 3 160 3 C160 -178 98 -213 54 -213 C44 -213 48 -196 38 -196 C32 -196 28 -200 28 -206 C28 -214 36 -220 49 -220 C104 -220 181 -178 180 41 C180 41 180 354 180 354 C180 496 206 523 245 523 C245 523 254 523 254 523 C254 523 254 583 254 583 C254 583 87 583 87 583 C87 583 87 523 87 523 C87 523 96 523 96 523 C134 523 160 496 160 354 L160 354 Z " />
<glyph glyph-name="LETTERSMALLCAPITALK" unicode="&#x1d0b;" horiz-adv-x="548" d="M458 0 C458 0 483 0 483 0 C483 0 483 12 482 30 C482 30 482 60 482 60 C482 60 472 60 472 60 C446 60 347 140 258 227 C258 227 181 305 181 305 C181 305 183 307 183 307 C183 307 183 307 183 307 C337 488 389 523 424 523 C424 523 435 523 435 523 C435 523 435 583 435 583 C435 583 420 583 420 583 C420 583 413 583 413 583 C413 583 315 583 315 583 C315 583 315 523 315 523 C315 523 321 523 321 523 C342 523 336 498 239 379 C239 379 165 292 165 292 C165 292 165 414 165 414 C165 506 191 523 230 523 C230 523 239 523 239 523 C239 523 239 583 239 583 C239 583 165 583 165 583 C165 583 145 583 145 583 C145 583 72 583 72 583 C72 583 72 523 72 523 C72 523 81 523 81 523 C119 523 145 506 145 414 C145 414 145 169 145 169 C145 77 119 60 81 60 C81 60 72 60 72 60 C72 60 72 0 72 0 C72 0 145 0 145 0 C145 0 165 0 165 0 C165 0 239 0 239 0 C239 0 239 60 239 60 C239 60 230 60 230 60 C191 60 165 77 165 169 C165 169 165 292 165 292 C165 292 458 0 458 0 L458 0 Z " />
<glyph glyph-name="LETTERSMALLCAPITALM" unicode="&#x1d0d;" horiz-adv-x="713" d="M628 201 C623 468 644 523 676 523 C676 523 687 523 687 523 C687 523 687 583 687 583 C687 583 613 583 613 583 C613 583 601 583 601 583 C601 583 594 583 594 583 C594 583 380 25 380 25 C380 25 380 27 380 27 C380 27 144 581 144 581 C144 581 144 583 144 583 C144 583 143 583 143 583 C143 583 139 583 139 583 C139 583 119 583 119 583 C119 583 71 583 71 583 C71 583 71 523 71 523 C71 523 83 523 83 523 C100 523 117 517 136 497 C136 497 132 377 132 377 C119 113 88 60 46 60 C46 60 33 60 33 60 C33 60 33 0 33 0 C33 0 119 0 119 0 C119 0 126 0 126 0 C126 0 213 0 213 0 C213 0 213 60 213 60 C213 60 201 60 201 60 C160 60 133 106 136 333 C136 333 141 491 141 491 C160 469 181 434 207 378 C261 252 315 126 370 0 C370 0 375 0 375 0 C375 0 595 566 595 566 C595 566 607 217 607 217 C608 86 581 60 542 60 C542 60 533 60 533 60 C533 60 533 0 533 0 C533 0 614 0 614 0 C614 0 634 0 634 0 C634 0 699 0 699 0 C699 0 699 60 699 60 C699 60 690 60 690 60 C659 60 636 83 628 201 C628 201 628 201 628 201 L628 201 Z " />
<glyph glyph-name="LETTERSMALLCAPITALO" unicode="&#x1d0f;" horiz-adv-x="690" d="M339 -5 C192 -5 94 114 94 292 C94 469 195 588 347 588 C506 588 612 469 612 292 C612 114 503 -5 339 -5 L339 -5 Z M71 292 C71 111 178 -10 338 -10 C516 -10 635 111 635 292 C635 472 520 593 348 593 C182 593 71 472 71 292 L71 292 Z " />
<glyph glyph-name="LETTERSMALLCAPITALP" unicode="&#x1d18;" horiz-adv-x="415" d="M171 280 C171 280 206 280 206 280 C320 280 396 324 396 422 C396 518 334 583 241 583 C241 583 171 583 171 583 C171 583 150 583 150 583 C150 583 77 583 77 583 C77 583 77 523 77 523 C77 523 86 523 86 523 C124 523 150 494 150 340 C150 340 150 244 150 244 C150 89 124 60 86 60 C86 60 77 60 77 60 C77 60 77 0 77 0 C77 0 150 0 150 0 C150 0 171 0 171 0 C171 0 244 0 244 0 C244 0 244 60 244 60 C244 60 235 60 235 60 C196 60 171 89 171 244 C171 244 171 280 171 280 L171 280 Z M171 284 C171 284 171 340 171 340 C171 340 171 580 171 580 C171 580 235 580 235 580 C320 580 377 518 377 425 C377 328 308 284 206 284 C206 284 171 284 171 284 L171 284 Z " />
<glyph glyph-name="LETTERSMALLCAPITALT" unicode="&#x1d1b;" horiz-adv-x="715" d="M358 583 C156 583 121 596 128 614 C128 614 132 623 132 623 C132 623 71 623 71 623 C66 609 62 596 57 583 C57 583 55 583 55 583 C55 583 55 578 55 578 C55 578 55 578 55 578 C46 554 37 531 29 506 C29 506 59 506 59 506 C77 505 88 505 89 505 C105 553 144 577 347 578 C347 578 347 230 347 230 C347 87 321 60 283 60 C283 60 274 60 274 60 C274 60 274 0 274 0 C274 0 441 0 441 0 C441 0 441 60 441 60 C441 60 432 60 432 60 C394 60 368 87 368 230 C368 230 368 578 368 578 C571 577 610 553 626 505 C627 505 638 505 656 506 C656 506 686 506 686 506 C678 531 669 554 660 578 C660 578 660 578 660 578 C660 578 660 583 660 583 C660 583 658 583 658 583 C653 596 649 609 644 623 C644 623 583 623 583 623 C583 623 587 614 587 614 C594 596 559 583 358 583 L358 583 Z " />
<glyph glyph-name="LETTERSMALLCAPITALU" unicode="&#x1d1c;" horiz-adv-x="525" d="M431 150 C431 150 431 340 431 340 C431 340 431 583 431 583 C431 583 337 583 337 583 C337 583 337 523 337 523 C337 523 346 523 346 523 C384 523 410 494 410 340 C410 340 410 150 410 150 C410 150 410 145 410 145 C371 60 281 3 188 3 C153 3 130 83 130 202 C130 202 130 340 130 340 C130 340 130 583 130 583 C130 583 37 583 37 583 C37 583 37 523 37 523 C37 523 46 523 46 523 C84 523 110 494 110 340 C110 340 110 202 110 202 C110 75 138 -10 179 -10 C278 -10 370 48 410 136 C410 136 410 0 410 0 C410 0 414 0 414 0 C414 0 503 -7 503 -7 C503 -7 503 23 503 23 C443 21 431 37 431 150 L431 150 Z " />
<glyph glyph-name="LETTERSMALLCAPITALV" unicode="&#x1d20;" horiz-adv-x="599" d="M130 423 C130 423 263 30 263 30 C263 30 277 -10 277 -10 C277 -10 281 -10 281 -10 C281 -10 357 184 357 184 C357 184 358 184 358 184 C467 469 511 523 546 523 C546 523 556 523 556 523 C556 523 556 583 556 583 C556 583 514 583 514 583 C514 583 506 583 506 583 C506 583 391 583 391 583 C391 583 391 523 391 523 C391 523 401 523 401 523 C449 523 461 471 358 199 C358 199 293 31 293 31 C293 31 238 187 238 187 C238 187 239 184 239 184 C141 469 155 523 202 523 C202 523 213 523 213 523 C213 523 213 583 213 583 C213 583 98 583 98 583 C98 583 75 583 75 583 C75 583 50 583 50 583 C50 583 50 523 50 523 C50 523 59 523 59 523 C79 523 99 507 130 423 L130 423 Z " />
<glyph glyph-name="LETTERSMALLCAPITALW" unicode="&#x1d21;" horiz-adv-x="860" d="M449 421 C452 411 455 400 458 389 C458 389 457 389 457 389 C457 389 272 25 272 25 C272 25 219 194 219 194 C136 470 147 523 188 523 C188 523 198 523 198 523 C198 523 198 583 198 583 C198 583 97 583 97 583 C97 583 75 583 75 583 C75 583 48 583 48 583 C48 583 48 523 48 523 C48 523 57 523 57 523 C78 523 109 469 195 184 C195 184 195 184 195 184 C215 119 234 55 254 -10 C254 -10 259 -10 259 -10 C259 -10 460 381 460 381 C496 250 532 120 568 -10 C568 -10 573 -10 573 -10 C573 -10 657 237 657 237 C740 476 778 523 810 523 C810 523 821 523 821 523 C821 523 821 583 821 583 C821 583 775 583 775 583 C775 583 767 583 767 583 C767 583 652 583 652 583 C652 583 652 523 652 523 C652 523 663 523 663 523 C713 523 729 469 633 184 C633 184 633 184 633 184 C633 184 581 28 581 28 C581 28 581 29 581 29 C581 29 505 302 505 302 C457 486 475 523 518 523 C518 523 528 523 528 523 C528 523 528 583 528 583 C528 583 427 583 427 583 C427 583 404 583 404 583 C404 583 354 583 354 583 C354 583 354 523 354 523 C354 523 365 523 365 523 C397 523 423 506 449 421 C449 421 449 421 449 421 L449 421 Z " />
<glyph glyph-name="LETTERSMALLCAPITALZ" unicode="&#x1d22;" horiz-adv-x="582" d="M47 0 C47 0 91 0 91 0 C91 0 546 0 546 0 C555 38 563 74 574 111 C574 111 562 111 544 112 C526 112 514 113 514 113 C514 113 488 82 488 82 C449 36 370 5 92 5 C92 5 92 4 92 4 C92 4 51 4 51 4 C51 4 550 579 550 579 C550 579 550 583 550 583 C550 583 530 583 530 583 C530 583 70 583 70 583 C63 543 60 502 53 463 C53 463 69 462 92 462 C116 461 131 460 131 460 C131 460 140 481 140 481 C164 538 235 576 519 579 C519 579 526 579 526 579 C526 579 25 4 25 4 C25 4 25 0 25 0 C25 0 47 0 47 0 L47 0 Z " />
<glyph glyph-name="Wgrave" unicode="&#x1e80;" horiz-adv-x="983" d="M363 949 C320 993 291 1022 288 1022 C283 1022 278 1017 278 1012 C278 1009 308 981 354 940 C354 940 490 814 490 814 C490 814 493 817 493 817 C493 817 363 949 363 949 L363 949 Z M503 595 C511 563 520 531 528 500 C528 500 304 29 304 29 C304 29 204 379 204 379 C134 640 148 690 189 690 C189 690 200 690 200 690 C200 690 200 750 200 750 C200 750 99 750 99 750 C99 750 74 750 74 750 C74 750 46 750 46 750 C46 750 46 690 46 690 C46 690 54 690 54 690 C76 690 106 636 185 351 C185 351 185 351 185 351 C219 231 252 111 285 -10 C285 -10 291 -10 291 -10 C291 -10 530 490 530 490 C573 323 617 157 660 -10 C660 -10 666 -10 666 -10 C666 -10 796 415 796 415 C868 644 904 690 935 690 C935 690 946 690 946 690 C946 690 946 750 946 750 C946 750 898 750 898 750 C898 750 889 750 889 750 C889 750 773 750 773 750 C773 750 773 690 773 690 C773 690 785 690 785 690 C836 690 854 636 768 351 C768 351 769 351 769 351 C769 351 673 33 673 33 C673 33 557 483 557 483 C517 655 538 690 579 690 C579 690 590 690 590 690 C590 690 590 750 590 750 C590 750 489 750 489 750 C489 750 463 750 463 750 C463 750 412 750 412 750 C412 750 412 690 412 690 C412 690 423 690 423 690 C455 690 480 674 503 595 C503 595 503 595 503 595 L503 595 Z " />
<glyph glyph-name="Wacute" unicode="&#x1e82;" horiz-adv-x="983" d="M492 814 C492 814 628 940 628 940 C674 982 704 1011 704 1012 C704 1017 699 1022 694 1022 C693 1022 663 993 619 949 C619 949 489 817 489 817 C489 817 492 814 492 814 L492 814 Z M503 595 C511 563 520 531 528 500 C528 500 304 29 304 29 C304 29 204 379 204 379 C134 640 148 690 189 690 C189 690 200 690 200 690 C200 690 200 750 200 750 C200 750 99 750 99 750 C99 750 74 750 74 750 C74 750 46 750 46 750 C46 750 46 690 46 690 C46 690 54 690 54 690 C76 690 106 636 185 351 C185 351 185 351 185 351 C219 231 252 111 285 -10 C285 -10 291 -10 291 -10 C291 -10 530 490 530 490 C573 323 617 157 660 -10 C660 -10 666 -10 666 -10 C666 -10 796 415 796 415 C868 644 904 690 935 690 C935 690 946 690 946 690 C946 690 946 750 946 750 C946 750 898 750 898 750 C898 750 889 750 889 750 C889 750 773 750 773 750 C773 750 773 690 773 690 C773 690 785 690 785 690 C836 690 854 636 768 351 C768 351 769 351 769 351 C769 351 673 33 673 33 C673 33 557 483 557 483 C517 655 538 690 579 690 C579 690 590 690 590 690 C590 690 590 750 590 750 C590 750 489 750 489 750 C489 750 463 750 463 750 C463 750 412 750 412 750 C412 750 412 690 412 690 C412 690 423 690 423 690 C455 690 480 674 503 595 C503 595 503 595 503 595 L503 595 Z " />
<glyph glyph-name="Wdieresis" unicode="&#x1e84;" horiz-adv-x="983" d="M550 865 C562 865 570 873 570 885 C570 897 562 905 550 905 C538 905 530 897 530 885 C530 873 538 865 550 865 L550 865 Z M422 865 C434 865 442 873 442 885 C442 897 434 905 422 905 C410 905 402 897 402 885 C402 873 410 865 422 865 L422 865 Z M503 595 C511 563 520 531 528 500 C528 500 304 29 304 29 C304 29 204 379 204 379 C134 640 148 690 189 690 C189 690 200 690 200 690 C200 690 200 750 200 750 C200 750 99 750 99 750 C99 750 74 750 74 750 C74 750 46 750 46 750 C46 750 46 690 46 690 C46 690 54 690 54 690 C76 690 106 636 185 351 C185 351 185 351 185 351 C219 231 252 111 285 -10 C285 -10 291 -10 291 -10 C291 -10 530 490 530 490 C573 323 617 157 660 -10 C660 -10 666 -10 666 -10 C666 -10 796 415 796 415 C868 644 904 690 935 690 C935 690 946 690 946 690 C946 690 946 750 946 750 C946 750 898 750 898 750 C898 750 889 750 889 750 C889 750 773 750 773 750 C773 750 773 690 773 690 C773 690 785 690 785 690 C836 690 854 636 768 351 C768 351 769 351 769 351 C769 351 673 33 673 33 C673 33 557 483 557 483 C517 655 538 690 579 690 C579 690 590 690 590 690 C590 690 590 750 590 750 C590 750 489 750 489 750 C489 750 463 750 463 750 C463 750 412 750 412 750 C412 750 412 690 412 690 C412 690 423 690 423 690 C455 690 480 674 503 595 C503 595 503 595 503 595 L503 595 Z " />
<glyph glyph-name="CapitalLetterEWITHTI" unicode="&#x1ebc;" horiz-adv-x="564" d="M168 870 C168 913 187 941 216 941 C278 941 338 876 400 876 C435 876 458 906 458 951 C458 951 454 951 454 951 C454 915 434 891 405 891 C343 891 283 956 220 956 C187 956 164 922 164 870 C164 870 168 870 168 870 L168 870 Z M167 244 C167 244 167 385 167 385 C167 385 177 385 177 385 C328 385 357 350 357 296 C357 296 357 287 357 287 C357 287 417 287 417 287 C417 287 417 385 417 385 C417 385 417 390 417 390 C417 390 417 488 417 488 C417 488 357 488 357 488 C357 488 357 479 357 479 C357 426 328 390 177 390 C177 390 167 390 167 390 C167 390 167 506 167 506 C167 506 167 745 167 745 C419 745 419 714 423 667 C423 667 423 658 423 658 C423 658 484 658 484 658 C482 688 479 719 477 750 C477 750 167 750 167 750 C167 750 145 750 145 750 C145 750 71 750 71 750 C71 750 71 690 71 690 C71 690 81 690 81 690 C119 690 145 661 145 506 C145 506 145 244 145 244 C145 89 119 60 81 60 C81 60 71 60 71 60 C71 60 71 0 71 0 C71 0 145 0 145 0 C145 0 167 0 167 0 C167 0 502 0 502 0 C502 0 511 61 515 92 C515 92 455 92 455 92 C455 92 453 83 453 83 C447 36 399 5 168 5 C168 5 167 5 167 5 C167 5 167 244 167 244 L167 244 Z " />
<glyph glyph-name="Ygrave" unicode="&#x1ef2;" horiz-adv-x="625" d="M194 949 C151 993 122 1022 119 1022 C113 1022 109 1017 109 1012 C109 1009 139 981 184 940 C184 940 321 814 321 814 C321 814 324 817 324 817 C324 817 194 949 194 949 L194 949 Z M262 456 C155 650 145 690 163 690 C163 690 168 690 168 690 C168 690 168 750 168 750 C168 750 95 750 95 750 C95 750 69 750 69 750 C69 750 58 750 58 750 C58 750 58 690 58 690 C58 690 67 690 67 690 C86 690 125 646 253 427 C253 427 305 336 305 336 C305 336 305 230 305 230 C305 87 279 60 241 60 C241 60 232 60 232 60 C232 60 232 0 232 0 C232 0 401 0 401 0 C401 0 401 60 401 60 C401 60 392 60 392 60 C354 60 328 87 328 230 C328 230 328 336 328 336 C328 336 376 424 376 424 C501 645 545 690 571 690 C571 690 582 690 582 690 C582 690 582 750 582 750 C582 750 556 750 556 750 C556 750 544 750 544 750 C544 750 471 750 471 750 C471 750 471 690 471 690 C471 690 477 690 477 690 C496 690 493 660 423 525 C423 525 326 344 326 344 C326 344 262 456 262 456 L262 456 Z " />
<glyph glyph-name="quoteleft" unicode="&#x2018;" horiz-adv-x="448" d="" />
<glyph glyph-name="quoteright" unicode="&#x2019;" horiz-adv-x="40" d="" />
<glyph glyph-name="quotedblleft" unicode="&#x201c;" horiz-adv-x="448" d="M137 621 C142 621 146 625 146 631 C146 636 142 640 137 640 C137 640 137 653 137 653 C133 653 131 648 131 641 C131 683 149 725 177 749 C177 749 167 760 167 760 C142 739 125 690 125 638 C125 628 130 621 137 621 L137 621 Z " />
<glyph glyph-name="quotedblright" unicode="&#x201d;" horiz-adv-x="448" d="M143 744 C143 682 139 637 132 632 C132 632 143 621 143 621 C146 624 149 675 149 748 C149 755 144 760 137 760 C132 760 128 756 128 751 C128 745 132 741 137 741 C137 741 137 728 137 728 C141 728 143 734 143 744 C143 744 143 744 143 744 C143 744 143 744 143 744 L143 744 Z " />
<glyph glyph-name="Euro" unicode="&#x20ac;" horiz-adv-x="725" d="M53 336 C53 336 122 336 122 336 C134 127 241 -10 397 -10 C449 -10 494 -2 533 14 C533 14 534 14 534 14 C534 14 535 14 536 15 C561 25 584 39 606 55 C610 57 613 59 617 61 C622 64 625 56 625 40 C625 40 677 40 677 40 C677 40 677 124 677 124 C677 124 677 188 677 188 C677 188 622 188 622 188 C600 122 551 30 510 12 C477 1 441 -5 399 -5 C256 -5 157 130 146 336 C146 336 460 336 460 336 C460 336 462 350 462 350 C462 350 145 350 145 350 C145 358 145 367 145 375 C145 383 145 392 145 400 C145 400 462 400 462 400 C462 400 464 414 464 414 C464 414 146 414 146 414 C158 619 260 754 410 754 C439 754 464 751 487 747 C536 731 594 643 617 576 C617 576 622 561 622 561 C622 561 677 561 677 561 C677 561 677 626 677 626 C677 626 677 707 677 707 C677 707 622 707 622 707 C622 707 617 689 617 689 C617 689 617 689 617 689 C613 698 583 719 539 738 C539 738 537 738 537 738 C502 752 460 760 408 760 C246 760 134 623 122 414 C122 414 57 414 57 414 C57 414 55 400 55 400 C55 400 121 400 121 400 C121 392 121 383 121 375 C121 367 121 358 121 350 C121 350 55 350 55 350 C55 350 53 336 53 336 L53 336 Z " />
<glyph glyph-name="LETTERSMALLCAPITALF" unicode="&#xa730;" horiz-adv-x="478" d="M297 371 C287 328 263 299 175 299 C175 299 165 299 165 299 C165 299 165 340 165 340 C165 340 165 580 165 580 C165 580 166 580 166 580 C325 580 358 549 362 502 C362 502 363 493 363 493 C363 493 375 493 393 494 C393 494 423 494 423 494 C421 524 417 553 415 583 C415 583 165 583 165 583 C165 583 145 583 145 583 C145 583 72 583 72 583 C72 583 72 523 72 523 C72 523 81 523 81 523 C119 523 145 494 145 340 C145 340 145 244 145 244 C145 89 119 60 81 60 C81 60 72 60 72 60 C72 60 72 0 72 0 C72 0 145 0 145 0 C145 0 165 0 165 0 C165 0 239 0 239 0 C239 0 239 60 239 60 C239 60 230 60 230 60 C191 60 165 89 165 244 C165 244 165 295 165 295 C165 295 223 295 223 295 C272 285 288 259 297 223 C297 223 303 198 303 198 C303 198 345 198 345 198 C345 198 345 295 345 295 C345 295 345 299 345 299 C345 299 345 396 345 396 C345 396 303 396 303 396 C303 396 297 371 297 371 L297 371 Z " />
<glyph glyph-name="LETTERSMALLCAPITALS" unicode="&#xa731;" horiz-adv-x="480" d="M218 588 C262 583 315 511 335 451 C335 451 340 436 340 436 C340 436 395 436 395 436 C395 436 395 498 395 498 C395 498 395 579 395 579 C395 579 340 579 340 579 C340 579 336 561 336 561 C334 562 333 563 332 563 C324 569 307 577 283 584 C283 584 281 584 281 584 C260 590 237 593 213 593 C133 593 80 540 80 459 C80 406 144 340 269 281 C371 234 424 175 424 124 C424 47 365 -4 275 -4 C257 -4 239 -2 222 1 C222 1 226 1 226 1 C190 8 139 95 116 163 C116 163 111 178 111 178 C111 178 56 178 56 178 C56 178 56 116 56 116 C56 116 56 15 56 15 C56 15 111 15 111 15 C111 15 116 40 116 40 C115 35 144 19 188 4 C188 4 189 4 189 4 C216 -5 245 -10 275 -10 C375 -10 441 46 441 130 C441 189 387 253 281 302 C159 359 96 420 96 467 C96 540 143 588 213 588 C215 588 216 588 218 588 C218 588 218 588 218 588 C218 588 213 588 213 588 C223 588 233 587 242 586 C242 586 218 588 218 588 L218 588 Z " />
<glyph glyph-name="[namenotfound]" unicode="&#xf078;" horiz-adv-x="595" d="M336 292 C334 295 332 298 330 301 C330 301 334 306 334 306 C334 306 334 306 334 306 C336 309 338 311 340 314 C340 314 369 357 369 357 C466 495 504 523 532 523 C532 523 543 523 543 523 C543 523 543 583 543 583 C543 583 525 583 525 583 C525 583 516 583 516 583 C516 583 421 583 421 583 C421 583 421 523 421 523 C421 523 428 523 428 523 C456 523 452 488 328 306 C328 306 329 306 329 306 C329 306 328 305 328 305 C210 488 204 523 228 523 C228 523 234 523 234 523 C234 523 234 583 234 583 C234 583 147 583 147 583 C147 583 123 583 123 583 C123 583 110 583 110 583 C110 583 110 523 110 523 C110 523 120 523 120 523 C143 523 179 493 276 348 C276 348 313 290 313 290 C174 97 123 60 86 60 C86 60 75 60 75 60 C75 60 75 0 75 0 C75 0 104 0 104 0 C104 0 112 0 112 0 C112 0 242 0 242 0 C242 0 242 60 242 60 C242 60 232 60 232 60 C188 60 181 94 301 265 C301 265 316 286 316 286 C316 286 337 253 337 253 C439 92 444 60 421 60 C421 60 414 60 414 60 C414 60 414 0 414 0 C414 0 501 0 501 0 C501 0 525 0 525 0 C525 0 546 0 546 0 C546 0 546 60 546 60 C546 60 535 60 535 60 C506 60 462 97 336 292 C336 292 336 292 336 292 L336 292 Z " />
</font>
</svg>
