<?xml version="1.0" encoding="UTF-8" standalone="no"?>
<!-- Created with Inkscape (http://www.inkscape.org/) -->

<svg
   xmlns:dc="http://purl.org/dc/elements/1.1/"
   xmlns:cc="http://creativecommons.org/ns#"
   xmlns:rdf="http://www.w3.org/1999/02/22-rdf-syntax-ns#"
   xmlns:svg="http://www.w3.org/2000/svg"
   xmlns="http://www.w3.org/2000/svg"
   xmlns:sodipodi="http://sodipodi.sourceforge.net/DTD/sodipodi-0.dtd"
   xmlns:inkscape="http://www.inkscape.org/namespaces/inkscape"
   id="svg2"
   version="1.1"
   inkscape:version="0.91 r13725"
   width="1179"
   height="385"
   viewBox="0 0 1179 385"
   sodipodi:docname="logo.svg">
  <metadata
     id="metadata8">
    <rdf:RDF>
      <cc:Work
         rdf:about="">
        <dc:format>image/svg+xml</dc:format>
        <dc:type
           rdf:resource="http://purl.org/dc/dcmitype/StillImage" />
        <dc:title></dc:title>
      </cc:Work>
    </rdf:RDF>
  </metadata>
  <defs
     id="defs6" />
  <sodipodi:namedview
     pagecolor="#ffffff"
     bordercolor="#666666"
     borderopacity="1"
     objecttolerance="10"
     gridtolerance="10"
     guidetolerance="10"
     inkscape:pageopacity="0"
     inkscape:pageshadow="2"
     inkscape:window-width="1920"
     inkscape:window-height="1017"
     id="namedview4"
     showgrid="false"
     inkscape:zoom="0.72929758"
     inkscape:cx="399.93631"
     inkscape:cy="240.6932"
     inkscape:window-x="-8"
     inkscape:window-y="-8"
     inkscape:window-maximized="1"
     inkscape:current-layer="svg2" />
  <g
     id="g3338"
     transform="translate(-0.96957241,1.9391459)"
     inkscape:export-xdpi="121.583"
     inkscape:export-ydpi="121.583">
    <path
       style="fill:#a7b1a8"
       d="m 1036,383.49132 c -9.9992,-1.517 -14.3132,-2.99223 -24.9828,-8.54318 C 989.28054,363.63949 974.83906,344.26994 967.99882,317.25 L 966.92291,313 485.71146,312.9847 c -264.6663,-0.008 -481.7925656,-0.38398 -482.5028057,-0.83457 -0.9353932,-0.59344 -1.2110378,-3.27675 -1,-9.73469 L 2.5,293.5 483.70009,293 c 318.87912,-0.33134 481.51012,-0.83733 482.11919,-1.5 0.5055,-0.55 1.93102,-5.1734 3.1678,-10.27421 11.80508,-48.6871 62.52692,-76.58924 109.68142,-60.33581 18.6461,6.42705 35.1313,19.82941 45.0184,36.59966 4.725,8.01447 7.1687,14.2339 9.8194,24.99116 1.8985,7.70433 2.5528,9.07597 4.6034,9.65032 1.3146,0.36824 10.341,0.71438 20.0585,0.7692 9.7175,0.0548 18.38,0.37282 19.25,0.70667 1.2678,0.4865 1.5818,2.26606 1.5818,8.96482 0,7.23968 -0.2588,8.49631 -1.9343,9.39301 -1.1437,0.61209 -9.9068,1.03518 -21.4409,1.03518 -12.1024,0 -19.7446,0.38481 -20.1333,1.01376 -0.3446,0.55757 -1.5073,4.19194 -2.5837,8.07637 -7.3449,26.50485 -26.6305,48.061 -51.4201,57.47384 -7.2814,2.76484 -23.3761,5.42892 -31.9877,5.29478 -2.75,-0.0428 -8.825,-0.65818 -13.5,-1.36743 z m 34.8782,-6.61172 c 26.9092,-6.79585 49.7506,-29.67633 56.677,-56.77408 2.0628,-8.07019 2.3241,-29.37419 0.4552,-37.10498 -3.4553,-14.29246 -10.4463,-26.51565 -21.4708,-37.54015 -8.8821,-8.88213 -16.7372,-14.04792 -27.5469,-18.11584 -11.5915,-4.36215 -20.2976,-5.72393 -32.4246,-5.07179 -32.2437,1.73393 -59.87893,23.15954 -70.58835,54.72724 -1.68408,4.96407 -2.32613,9.72325 -2.71715,20.1407 -0.64796,17.26308 0.9458,25.08659 7.98392,39.1916 4.42873,8.87557 6.29802,11.37498 14.70938,19.6677 10.9199,10.76587 17.3954,14.9806 29.3437,19.09902 14.8064,5.10353 30.0611,5.69947 45.5786,1.78058 z M 1033.5,374.4989 c -28.5049,-7.80738 -49.73696,-29.09632 -56.11866,-56.26892 -2.25998,-9.62278 -1.44478,-32.43344 1.44679,-40.48365 9.03552,-25.15513 28.59147,-43.69903 53.20347,-50.4501 9.6902,-2.658 28.9349,-2.37875 39.4233,0.57206 40.1583,11.29812 63.6392,52.94774 52.4895,93.10434 -3.6509,13.1491 -9.1902,22.35767 -19.9013,33.08421 -8.1492,8.16092 -10.9307,10.2384 -19.0431,14.22295 -5.225,2.56636 -12.425,5.34663 -16,6.17838 -8.1887,1.90515 -28.6074,1.92857 -35.5,0.0407 z m 19.41,-1.42208 c 1.1637,-0.73674 1.2999,-3.81898 0.7798,-17.65488 -0.6017,-16.00513 -1.4161,-20.25031 -3.3112,-17.25907 -1.0295,1.62511 -1.8489,29.82714 -0.9685,33.33501 0.6755,2.69128 1.2986,2.97241 3.4999,1.57894 z m -7.8352,-4.82682 c 0.041,-1.5125 0.5208,-9.275 1.0658,-17.25 1.8792,-27.49418 2.141,-45.20577 0.6819,-46.13085 -1.9166,-1.21521 -22.6134,-1.05832 -28.936,0.21935 -2.9626,0.59867 -12.3615,1.38617 -20.8865,1.75 l -15.5,0.6615 0.1444,4.54574 c 0.18174,5.72134 4.20113,17.39542 8.53481,24.78886 5.30455,9.04978 18.93849,21.99457 27.94909,26.53638 8.3049,4.18609 18.4916,7.44532 23.6217,7.55778 2.8788,0.0631 3.2585,-0.24286 3.3248,-2.67876 z m 23.2809,1.18418 c 3.3793,-0.8612 9.9367,-3.38772 14.5718,-5.6145 11.0332,-5.30048 24.8053,-18.63339 30.2854,-29.31968 4.2042,-8.19815 7.7871,-19.2892 7.7871,-24.10534 l 0,-3.39466 -11.75,-0.004 c -6.4625,-0.002 -15.8,-0.66923 -20.75,-1.48254 -11.121,-1.82722 -30.5973,-2.01635 -32.3,-0.31365 -1.672,1.67197 -1.5139,18.8649 0.2877,31.3 0.7969,5.5 1.4631,15.5125 1.4806,22.25 0.036,14.09762 -0.5679,13.476 10.3874,10.68418 z m -54.4379,-67.38089 2.4178,-1.30329 -2.4178,-1.33956 c -2.8985,-1.60587 -29.35011,-1.95697 -33.3336,-0.44245 -4.34515,1.65202 -2.16683,3.88149 4.25466,4.35456 10.55035,0.77725 26.58034,0.0776 29.07894,-1.26926 z m 39.7969,0.032 c 0.9616,-1.53976 0.9009,-2.15939 -0.3097,-3.1641 -1.2208,-1.01316 -1.8105,-0.94424 -3.1193,0.36453 -1.3313,1.33135 -1.3886,1.88532 -0.3274,3.1641 1.6735,2.01645 2.3079,1.95489 3.7564,-0.36453 z m 68.0878,1.27071 c 1.6351,-0.43795 2.2148,-1.23104 2,-2.73634 -0.2899,-2.03138 -0.8976,-2.13121 -14.5928,-2.39735 -13.6929,-0.2661 -22.2097,0.79648 -22.2097,2.77093 0,0.83356 1.268,1.16478 9,2.3509 4.2602,0.65353 23.3739,0.66233 25.8025,0.0119 z m -74.1723,-22.106 c -0.833,-28.19833 -2.2722,-49.29203 -3.443,-50.46284 -0.8345,-0.83446 -3.269,-0.55957 -9.4065,1.06213 -25.8919,6.84132 -44.80604,25.22435 -51.7554,50.30198 -2.43868,8.80027 -2.5343,11.43943 -0.44351,12.24174 0.86998,0.33385 7.28248,0.63292 14.25,0.66462 6.96751,0.0317 14.46821,0.42995 16.66821,0.885 2.2,0.45505 10.884,0.87912 19.2977,0.94237 l 15.2978,0.115 -0.4653,-15.75 z m 57.8698,13.96617 15,-0.71617 0.3201,-3.33998 c 0.4084,-4.26253 -2.8817,-14.89573 -7.0658,-22.8352 -7.2789,-13.81213 -18.0135,-24.39365 -31.2543,-30.80865 -7.9348,-3.8443 -20.8722,-7.6943 -23.0489,-6.85903 -1.1554,0.44336 -1.4576,3.03157 -1.4828,12.69985 -0.017,6.67865 -0.6837,16.64301 -1.4806,22.14301 -1.5367,10.60633 -1.9933,29.66112 -0.7407,30.91365 0.7217,0.72168 18.5377,0.29287 49.753,-1.19748 z m -52.2086,-49.3076 c 0.2014,-16.81143 0.14,-17.40857 -1.7914,-17.40857 -1.9192,0 -2,0.66667 -2,16.5 0,16.54849 0.629,21.27096 2.5742,19.32579 0.5838,-0.58383 1.0965,-8.34061 1.2172,-18.41722 z M 413,271.15321 407.5,270.5 406.69075,260 c -0.44509,-5.775 -0.65469,-28.83683 -0.46577,-51.24852 0.31368,-37.21349 0.49543,-40.90046 2.09503,-42.5 1.55062,-1.55056 3.99513,-1.74943 21.30943,-1.73363 23.30009,0.0213 22.36231,-0.47821 22.38587,11.92328 0.021,11.07375 0.56906,11.67577 6.91916,7.60092 12.67778,-8.13531 19.08588,-21.53673 19.05075,-39.84127 -0.0307,-15.99218 -5.0873,-28.32515 -15.67389,-38.2284 -10.9102,-10.205946 -20.07813,-13.514986 -35.24647,-12.721735 -16.1024,0.842099 -28.29389,7.360975 -37.01323,19.791255 -6.44584,9.18918 -9.00491,17.40662 -9.03054,28.998 -0.034,15.37778 2.60046,23.01537 12.44835,36.08916 l 5.55219,7.37094 -0.26081,27.5 -0.26082,27.5 -2.79931,0.32118 c -3.55184,0.40752 -13.27254,-4.11241 -24.29225,-11.29542 C 351.07175,216.26963 336.5588,195.81613 329.88102,171 c -1.97133,-7.32588 -2.29374,-10.98637 -2.33414,-26.5 -0.0411,-15.79009 0.23719,-19.04357 2.26694,-26.5 8.13764,-29.894281 28.54854,-54.298119 56.48048,-67.529602 15.74748,-7.459653 22.25739,-8.79371 43.2057,-8.854016 15.82809,-0.04557 18.9631,0.223081 25.98185,2.226446 39.86405,11.37842 70.26062,45.87382 75.59855,85.792662 1.81447,13.56922 0.67686,33.78457 -2.51258,44.64859 -5.11247,17.41434 -11.31545,28.23036 -23.56605,41.09167 -12.18162,12.78889 -24.99434,20.77828 -42.1481,26.28153 -4.59452,1.47401 -8.91617,3.36513 -9.60367,4.2025 -0.82704,1.00732 -1.25,5.13842 -1.25,12.2089 0,7.37965 -0.39025,11.01031 -1.26116,11.7331 -1.51478,1.25715 -29.95688,2.27567 -37.73884,1.35143 z M 448.30815,257 c 1.21681,-15.80955 0.43519,-14.49725 10.44603,-17.53818 22.1194,-6.71906 38.83958,-17.83616 50.84739,-33.80798 21.00725,-27.94216 25.06736,-70.52905 9.86165,-103.43983 C 507.38135,76.064397 483.24481,55.145529 456.94433,48.029598 434.16514,41.866397 405.42972,44.223613 386.37043,53.818897 361.38318,66.398583 342.44638,88.904524 333.76619,116.33782 331.70362,122.85646 331.5,125.43182 331.5,145 l 0,21.5 3.30696,9.5 c 9.5297,27.37623 24.84296,44.799 50.82471,57.82614 4.47242,2.24246 8.40992,3.79894 8.75,3.45886 C 394.72175,236.94492 395,225.01132 395,210.76589 l 0,-25.90078 -4.58382,-5.62713 C 375.4833,160.90631 372.79589,137.4956 383.32902,117.5 c 4.39243,-8.33838 15.50049,-19.207643 23.75249,-23.241869 13.46468,-6.582594 31.00935,-6.425937 44.91849,0.401077 24.92975,12.236262 36.23044,43.267942 25.85518,70.998302 -3.41927,9.13884 -13.76728,20.31868 -21.98496,23.75225 -5.54282,2.31594 -6.29837,1.14798 -6.87022,-10.62019 L 448.5,168.5 l -19.25,-0.27159 -19.25,-0.2716 0,48.43981 c 0,26.64189 0.27696,49.16156 0.61547,50.0437 0.53896,1.40451 2.86992,1.57008 18.75,1.33179 L 447.5,267.5 448.30815,257 Z M 607,246.30987 c -7.05764,-1.17939 -18.91544,-6.03422 -25.50767,-10.44338 C 566.83277,226.06158 556.76983,212.19994 550.37315,193 l -2.83187,-8.5 -0.32738,-68.82916 c -0.2464,-51.803155 -0.0357,-69.180635 0.8518,-70.250004 1.75946,-2.120022 47.13107,-2.093593 48.89224,0.02848 0.89167,1.074404 1.40608,18.341366 1.98859,66.749994 0.55901,46.45637 1.1291,66.16642 1.9755,68.30069 4.0411,10.18986 10.55857,14.5 21.92581,14.5 11.38544,0 16.40395,-2.74988 20.98742,-11.5 l 2.61909,-5 0.66521,-59.5 C 647.48543,86.275 647.8332,56.719643 647.89239,53.321429 648.0596,43.720658 647.27875,44 673.94898,44 c 19.46588,0 22.99622,0.229043 24.10399,1.56383 1.76241,2.123566 2.47013,70.7624 1.12838,109.43617 -0.91333,26.32545 -1.1919,29.1867 -3.65092,37.5 -4.29291,14.51323 -9.65308,23.61865 -20.03043,34.02611 -15.1183,15.16216 -29.22393,20.58413 -52.90996,20.33771 C 615.39052,246.78892 608.375,246.53964 607,246.30987 Z m 32.39401,-3.81973 c 8.80794,-1.81933 18.51939,-5.64646 24.13883,-9.51273 6.39382,-4.39907 18.68007,-18.02349 22.18747,-24.60403 4.01673,-7.53616 7.72311,-20.34429 9.22344,-31.87338 0.81411,-6.25592 1.07746,-27.1414 0.86373,-68.5 L 695.5,48.5 673.25,48.230868 651,47.961737 650.9658,96.230868 c -0.041,57.849872 -1.04077,83.017562 -3.50402,88.208472 -0.9382,1.97711 -3.8992,5.56679 -6.58,7.97706 -5.73201,5.15357 -12.16705,7.10754 -20.82258,6.32268 -10.02184,-0.90875 -16.40156,-5.54737 -21.49892,-15.63164 L 596.2313,178.5 l -0.86565,-65 -0.86565,-65 -22.39513,-0.269519 -22.39514,-0.269519 0.56503,66.769518 c 0.52383,61.90184 0.706,67.27984 2.49881,73.76952 4.50753,16.31658 12.14541,29.67892 22.0344,38.5488 6.93427,6.21966 21.13073,13.30372 30.69203,15.31538 9.24484,1.94507 24.80713,2.00291 33.89401,0.12596 z M 1.9015752,242.38141 C 0.85040769,241.11483 0.55305445,234.78949 0.53432084,213.297 0.51163767,187.27328 0.6120275,185.75686 2.44632,184.41559 c 1.5898778,-1.16254 9.096717,-1.42625 41.99481,-1.4752 22.032378,-0.0328 42.279698,-0.42409 44.994042,-0.86957 6.53421,-1.07239 8.953261,-3.93229 8.291585,-9.80267 C 96.793952,163.99233 92.394365,160.29514 60.5,140.98466 36.007725,126.15579 30.138422,122.005 22.073666,113.8094 13.775137,105.37624 8.907046,98.435019 5.1548336,89.68551 2.6279473,83.79325 2.5030642,82.694045 2.5206753,66.5 2.5379625,50.603811 2.7081912,49.062271 5.1423994,42.758449 14.222068,19.245008 31.941657,5.0957539 56.259659,1.9408517 60.791846,1.3528672 83.425495,0.62077403 106.55665,0.31397802 c 36.96753,-0.49031216 42.24236,-0.37211466 43.59126,0.97678618 1.13734,1.1373408 1.70003,4.798676 2.17365,14.1437028 0.7958,15.701488 -0.23598,40.38125 -1.72885,41.353726 C 149.99172,57.179687 131.88384,57.95 110.35297,58.5 74.057747,59.427152 71.052747,59.638775 69.102973,61.404988 66.314133,63.931271 66.389154,68.795241 69.283387,73.102117 72.091206,77.2804 80.064849,82.822175 104,97.230566 c 27.28936,16.427544 32.67871,20.226344 41.5,29.252194 12.71098,13.00574 18.87231,25.41506 20.52752,41.34377 3.00576,28.92548 -10.7431,54.97648 -35.39683,67.06906 -16.19447,7.94333 -26.69474,9.04886 -86.258245,9.08172 -36.6948267,0.0202 -41.272338,-0.15176 -42.4708698,-1.5959 z M 115.30048,237.20959 c 10.59445,-2.92496 20.37885,-8.26448 28.08692,-15.32752 7.87063,-7.21201 11.66735,-12.80791 15.58828,-22.97523 3.65949,-9.48937 4.89833,-23.35878 3.11795,-34.90684 -1.64339,-10.65953 -8.99758,-25.43503 -17.00701,-34.16925 -6.81726,-7.43417 -10.94049,-10.31051 -40.81125,-28.4697 C 79.893879,86.538924 75.955694,83.908855 70.173223,78.586346 60.991381,70.134866 60.545978,61.871744 69.035625,57.481578 73.198017,55.329121 79.4605,54.885144 116,54.152049 L 148.5,53.5 l 0,-25 0,-25 L 116,3.1979853 C 70.970638,2.7795383 48.932241,4.9759012 36.744236,11.096674 21.496713,18.753924 10.113733,33.820911 6.4623336,51.17906 1.078332,76.773714 10.617055,103.19248 30.511846,117.7874 c 3.53314,2.59193 14.42585,9.6208 24.206023,15.61972 32.250811,19.78185 40.148516,25.31273 43.347414,30.35687 5.858247,9.23749 4.509857,16.3269 -3.877591,20.3872 -4.521982,2.18905 -5.59171,2.24935 -47.407034,2.67243 L 4,187.25647 l 0,26.45015 0,26.45015 51.75,-0.3968 c 49.22685,-0.37745 52.13032,-0.50179 59.55048,-2.55038 z M 276.5,242.48548 C 255.25063,239.74515 240.54098,234.90062 227,226.18297 207.40763,213.56945 192.41489,193.4166 185.94655,171 c -2.7389,-9.49192 -3.80305,-33.39157 -1.98781,-44.64419 3.18637,-19.75215 12.40298,-36.933216 28.13572,-52.448968 19.73838,-19.466143 42.99984,-27.722629 83.25822,-29.551905 12.63665,-0.574189 14.40404,-0.455364 15.93044,1.071039 1.5155,1.515504 1.71688,4.226161 1.71688,23.110269 0,24.806605 0.61371,23.458359 -10.68426,23.47196 -17.2461,0.02076 -34.1642,3.525501 -43.99601,9.114175 -5.99398,3.40714 -15.55998,13.3881 -15.10522,15.76045 0.27572,1.43831 3.97054,1.67374 33.40785,2.12862 25.85716,0.39956 33.4566,0.80919 34.73774,1.87245 1.42348,1.18137 1.6399,4.10013 1.6399,22.1161 0,18.084 -0.21277,20.93174 -1.65326,22.12756 -1.30205,1.08089 -8.87906,1.47866 -35.66814,1.87244 -22.48647,0.33054 -34.13327,0.85663 -34.36417,1.55226 -0.70082,2.11139 6.20835,10.83673 11.89739,15.02476 10.25095,7.54632 21.72394,10.64829 44.28818,11.97426 6.6,0.38784 12.7875,1.1133 13.75,1.61213 1.58244,0.82012 1.75,2.92059 1.75,21.93752 0,12.58455 -0.41574,21.80736 -1.03518,22.96481 -0.94217,1.76045 -2.1328,1.92415 -13.25,1.8218 C 291.99667,243.82569 282,243.19476 276.5,242.48548 Z M 308.77071,219.75 308.5,199.5 294.76462,198.77523 c -16.7151,-0.88199 -24.77504,-2.65116 -35.33281,-7.7556 -9.21223,-4.4539 -15.00658,-9.60453 -19.37562,-17.2231 -3.47943,-6.06728 -3.78429,-8.25449 -1.30619,-9.37105 0.9625,-0.43367 17.05,-0.84147 35.75,-0.90622 l 34,-0.11774 0.27048,-20.12965 0.27048,-20.12966 -33.98604,-0.3211 c -29.76629,-0.28124 -34.18773,-0.52296 -35.61045,-1.94679 -1.49922,-1.5004 -1.49047,-1.88573 0.11359,-5 2.6392,-5.12398 15.33707,-17.20774 20.6814,-19.681172 10.09797,-4.673476 28.47278,-8.126183 43.51054,-8.175819 L 309,88 l 0,-20.144957 0,-20.144958 -17.25,0.593316 c -31.76435,1.09254 -53.15794,7.836883 -71.76247,22.623161 C 201.0324,85.991496 188.18249,110.38067 186.49265,134.5 c -2.27539,32.4769 7.54046,58.32501 30.1769,79.46495 18.48807,17.26582 43.7188,25.69735 77.60116,25.93253 L 309.04141,240 308.77071,219.75 Z M 815.5,243.34364 C 779.38921,239.05006 761.63578,231.63578 743.11299,213.11299 730.69389,200.69389 722.73854,187.03002 717.4296,169 c -1.58131,-5.37038 -1.91451,-9.71507 -1.91728,-25 -0.003,-16.22755 0.27339,-19.4567 2.24966,-26.2885 4.68105,-16.18198 12.71465,-30.031773 24.12381,-41.589063 C 761.02585,56.733883 781.7721,47.97962 815.5,45.059559 831.66159,43.660337 842.3132,43.713196 843.8,45.2 c 0.85982,0.85982 1.2,7.369959 1.2,22.964816 0,25.320505 0.6977,23.833426 -11.18426,23.838001 -17.74285,0.0068 -35.37602,3.93973 -44.81218,9.994903 C 783.53406,105.50749 775,114.39978 775,116.5891 c 0,0.75504 1.0125,1.59144 2.25,1.85866 1.2375,0.26723 16.55398,0.6133 34.03663,0.76905 26.95403,0.24014 31.93077,0.51124 32.73469,1.78319 0.52143,0.825 0.95495,10.52649 0.96337,21.55887 0.012,15.75571 -0.28894,20.47529 -1.40293,22 -1.34272,1.83777 -3.22865,1.96775 -35.41869,2.44113 -18.70025,0.275 -34.29523,0.79568 -34.6555,1.15707 -1.12209,1.12556 2.23928,6.44972 7.44843,11.79776 9.18877,9.43376 24.06496,14.20931 48.62093,15.60827 8.77864,0.50013 12.98986,1.14655 13.99093,2.14762 1.14968,1.14968 1.43214,5.47423 1.43214,21.92645 0,12.2149 -0.4182,21.27573 -1.03518,22.42857 -0.94396,1.76381 -2.11159,1.92106 -13.25,1.78443 C 823.99667,243.76776 817.15,243.53982 815.5,243.34364 Z M 841.52711,238.75 c 0.25539,-0.6875 0.12876,-9.8 -0.28139,-20.25 L 840.5,199.5 828,198.81293 c -26.56014,-1.45989 -39.69529,-6.16459 -50.77742,-18.18729 -2.3274,-2.52493 -5.22148,-6.62817 -6.43129,-9.11832 -2.05822,-4.23645 -2.09185,-4.63533 -0.52303,-6.20416 1.51131,-1.51131 5.01796,-1.65631 35.56581,-1.4707 27.99855,0.17012 34.09098,-0.0372 35.05007,-1.19286 0.81315,-0.97978 1.07925,-7.05116 0.88837,-20.26918 L 841.5,123.5 807,122.97188 c -18.975,-0.29046 -35.0625,-0.87952 -35.75,-1.30901 -2.03933,-1.27402 -1.46184,-3.50479 2.4221,-9.35618 9.57565,-14.426327 25.08173,-21.295406 52.75264,-23.36903 7.74139,-0.58013 14.42298,-1.398653 14.84798,-1.818938 0.42499,-0.420286 0.64999,-9.281434 0.5,-19.691439 L 841.5,48.5 830.12086,48.216041 C 795.76024,47.358595 766.74262,56.851386 747.31607,75.304707 734.25386,87.712531 725.69443,102.16394 720.84348,120 c -1.91973,7.05849 -2.30272,10.87425 -2.25834,22.5 0.1124,29.43886 7.66712,48.78004 26.3854,67.55041 20.50936,20.56644 45.28813,29.66838 81.31084,29.86777 10.9724,0.0607 14.90104,-0.24029 15.24573,-1.16818 z m 75.43101,4.27284 c -7.31305,-0.94342 -18.08805,-4.46515 -25.16881,-8.22623 -12.52484,-6.65283 -23.36929,-22.859 -25.96096,-38.79661 -0.87388,-5.37399 -1.23501,-27.70696 -1.27397,-78.7848 C 864.50685,54.912111 864.689,45.807085 866,44.951701 c 2.30296,-1.502599 47.57936,-0.776707 49.14149,0.787859 0.95014,0.951623 1.34001,16.933714 1.67837,68.80252 0.43318,66.40334 0.47713,67.635 2.56044,71.76044 3.57657,7.08241 6.16022,7.78097 31.21345,8.43941 17.08331,0.44898 21.8782,0.87288 23.04243,2.0371 2.18191,2.18192 1.59512,44.83519 -0.63618,46.24356 -1.72326,1.08771 -47.61071,1.08791 -56.04188,2.5e-4 z M 971.50298,220.25 c -0.35955,-10.8625 -0.80895,-20.25587 -0.99867,-20.87415 -0.23513,-0.76625 -6.9766,-1.26497 -21.17463,-1.56647 -23.29867,-0.49475 -27.89948,-1.58773 -32.21908,-7.65406 C 913.62852,185.26519 913.06895,174.79697 912.77255,109 L 912.5,48.5 l -22,0 -22,0 0,73.5 0,73.5 2.83812,8.26801 c 6.02836,17.56182 15.55125,27.15943 32.42527,32.67972 8.88756,2.90754 13.79309,3.3129 41.56496,3.43465 L 972.15671,240 971.50298,220.25 Z"
       id="path3344"
       inkscape:connector-curvature="0" />
    <path
       style="fill:#648d3c"
       d="m 1029.5,381.11625 c -29.74271,-8.93626 -50.50684,-29.91845 -58.80978,-59.42741 -1.36356,-4.84613 -2.78917,-9.12113 -3.16803,-9.5 -0.37885,-0.37886 -217.4137,-0.80365 -482.29966,-0.94396 -382.91763,-0.20285 -481.7728287,-0.51023 -482.4013668,-1.5 -1.058771,-1.66727 -1.0111801,-11.89672 0.063235,-13.59207 0.7131497,-1.1253 79.8937638,-1.43642 480.7346918,-1.8889 263.9345,-0.29794 480.83479,-0.89578 482.00065,-1.32853 1.68748,-0.62638 2.58114,-2.68824 4.38241,-10.1111 7.3461,-30.27249 27.92631,-52.40168 57.49785,-61.82543 9.8828,-3.1494 30.1735,-3.9177 41.1327,-1.55747 10.5731,2.27706 28.1204,10.90057 36.0759,17.72935 13.4896,11.57891 23.3107,27.88087 27.3638,45.42063 1.3871,6.00284 2.784,9.79261 3.809,10.33435 0.8902,0.47049 10.8436,1.11884 22.1186,1.44076 l 20.5,0.58532 0,7.7741 0,7.77411 -21.5,0.78808 c -14.6513,0.53705 -21.8559,1.17413 -22.6172,2 -0.6145,0.66656 -1.8562,4.24604 -2.7593,7.9544 -2.2265,9.14207 -5.6339,16.54739 -12.0531,26.19485 -15.4284,23.18747 -41.302,36.70092 -69.8329,36.47283 -9.1499,-0.0731 -12.9094,-0.59218 -20.2375,-2.79391 z m 34.0663,-1.16723 c 30.7096,-5.43933 53.6784,-25.29282 64.1498,-55.44902 3.028,-8.72022 4.1911,-27.4695 2.3573,-38.00014 -5.2147,-29.94499 -29.4596,-55.81214 -59.5734,-63.55952 -11.0243,-2.83622 -27.9987,-2.83944 -38.8782,-0.007 -22.7381,5.91901 -41.78859,21.45794 -52.18648,42.56705 -6.46589,13.12662 -7.87217,19.48204 -7.8552,35.5 0.0166,15.61584 1.41556,22.043 7.52814,34.5849 6.5139,13.36533 18.59103,26.41893 32.02724,34.61668 6.14,3.74618 17.8146,8.11776 25.9298,9.70947 6.3497,1.24542 19.577,1.26437 26.501,0.038 z M 1056,229 c 0,-0.55 0.4766,-1 1.059,-1 0.5825,0 0.7809,0.45 0.441,1 -0.3399,0.55 -0.8165,1 -1.059,1 -0.2426,0 -0.441,-0.45 -0.441,-1 z M 97.185979,1.2519869 C 106.36327,1.0871165 121.66327,1.0868218 131.18598,1.2513322 140.70869,1.4158425 133.2,1.5507365 114.5,1.5510966 95.8,1.5514567 88.008691,1.4168573 97.185979,1.2519869 Z"
       id="path3342"
       inkscape:connector-curvature="0" />
    <path
       style="fill:#467a12"
       d="m 1132.1941,302.20276 c 0.1419,-10.623 0.2071,-10.9288 1.8872,-8.85292 1.6811,2.07722 2.4555,2.15016 22.8269,2.15016 l 21.0867,0 -0.076,8 c -0.042,4.4 -0.2651,7.55 -0.4958,7 -0.6742,-1.60754 -41.7159,-0.33835 -43.7492,1.35292 -1.4867,1.23667 -1.6138,0.40753 -1.4794,-9.65016 z M 968,311 c -0.96303,-0.62236 -173.77796,-0.97486 -482.75,-0.98469 L 4,310 l 0,-6.923 0,-6.92301 481.08842,-0.32699 481.08843,-0.327 1.91157,-2.36078 c 1.91033,-2.35924 1.91158,-2.35384 1.91158,8.25 0,5.83593 -0.1125,10.60389 -0.25,10.59547 -0.1375,-0.008 -0.925,-0.45153 -1.75,-0.98469 z"
       id="path3340"
       inkscape:connector-curvature="0" />
  </g>
  <path
     style="opacity:0.98999999;fill:#000000;fill-opacity:1;stroke:#428003;stroke-width:0.48478618;stroke-opacity:1"
     d="m 608.11579,248.18481 c -7.10021,-0.64342 -20.32397,-5.76145 -27.69591,-10.71922 -15.08595,-10.14558 -24.66071,-23.83856 -31.87301,-45.58197 l -2.02154,-6.09447 0.1325,-68.94394 c 0.11531,-59.994718 0.22488,-69.001034 0.84418,-69.383718 1.47618,-0.912193 7.55634,-1.221484 24.01242,-1.221484 16.1504,0 22.53994,0.3115 23.923,1.166283 1.02573,0.633932 1.43438,10.153696 1.98935,46.342763 0.76729,50.034586 1.46904,81.186076 1.91933,85.201326 0.53253,4.74857 2.43024,8.572 6.09655,12.28312 2.1456,2.17181 3.66477,3.2311 5.75274,4.01128 6.11503,2.2849 14.58923,2.47106 21.08959,0.4633 4.22244,-1.30418 8.16486,-5.18849 11.22707,-11.06162 l 2.1485,-4.12068 0.57995,-51.62973 c 0.97393,-86.703525 0.79854,-78.664685 1.74793,-80.113628 1.39398,-2.127484 3.34567,-2.38132 20.24084,-2.632508 17.29126,-0.257077 27.24337,0.220069 28.38415,1.360855 2.34681,2.346798 2.82129,88.902581 0.69499,126.779891 -0.60394,10.75856 -1.39472,15.48081 -3.83877,22.92375 -3.99575,12.16845 -9.03488,20.57663 -17.69535,29.52609 -11.837,12.23199 -22.5644,18.29318 -36.64857,20.70714 -5.21296,0.89348 -24.28262,1.34681 -31.00994,0.73717 z m 22.65624,-2.67926 c 8.2371,-0.45847 19.03396,-3.55889 27.39231,-7.86594 9.72248,-5.00999 23.9915,-20.63159 28.59177,-31.30201 3.75788,-8.71648 6.86884,-21.56518 7.65815,-31.62925 0.25094,-3.19959 0.46121,-32.4524 0.46726,-65.00624 l 0.011,-59.188808 -8.36257,-0.317217 c -4.5994,-0.174469 -14.74355,-0.317883 -22.54255,-0.318698 l -14.18,-0.0015 -0.009,40.35845 c -0.0122,53.144893 -0.80343,82.832883 -2.45798,92.230573 -0.66981,3.80444 -2.18047,6.31106 -6.26527,10.39586 -6.77423,6.77423 -15.39866,9.17635 -25.36479,7.06474 -7.85811,-1.66497 -13.09504,-5.96612 -17.67493,-14.51663 l -2.56648,-4.79152 -0.88129,-64.89982 c -0.4847,-35.694896 -1.01038,-65.02891 -1.16816,-65.186691 -0.15778,-0.157783 -10.3583,-0.402308 -22.66782,-0.54339 l -22.38093,-0.256513 0.29889,20.554687 c 0.16439,11.305078 0.42301,36.479907 0.57472,55.944077 0.32131,41.22513 0.7934,56.59805 1.90258,61.95464 2.74302,13.24696 10.68138,28.55705 19.62365,37.84656 7.94637,8.25493 22.27399,15.98966 34.25597,18.49299 4.12725,0.86229 14.30085,1.61601 18.6027,1.3782 1.46648,-0.0811 4.68086,-0.25952 7.14308,-0.39657 z"
     id="path3352"
     inkscape:connector-curvature="0" />
  <path
     style="opacity:0.98999999;fill:#000000;fill-opacity:1;stroke:#428003;stroke-width:0.48478618;stroke-opacity:1"
     d="m 411.30873,272.80503 c -2.2575,-0.23567 -4.24926,-0.58845 -4.42612,-0.78396 -1.28471,-1.42022 -1.97485,-68.50749 -0.95004,-92.35222 0.44846,-10.43451 0.77028,-11.63638 3.30582,-12.34579 2.30195,-0.64406 37.01866,-0.45135 38.50901,0.21375 2.58844,1.15516 2.95147,2.40946 3.25826,11.25765 0.38226,11.02459 0.7291,11.35518 7.39158,7.04524 12.09335,-7.82315 18.74843,-21.70968 18.80995,-39.24895 0.0541,-15.43823 -4.83951,-27.881 -14.89259,-37.86641 -10.5937,-10.522404 -19.98676,-14.173881 -35.02406,-13.615335 -16.11744,0.598673 -28.13124,6.457855 -36.97215,18.031495 -3.66815,4.80196 -7.64041,12.45037 -8.81222,16.96752 -1.42282,5.48473 -1.96453,13.6248 -1.36029,20.44055 1.08262,12.21199 3.67702,18.2514 13.31341,30.99179 l 4.36607,5.77243 -0.24395,27.29818 c -0.13416,15.014 -0.35228,27.40654 -0.48471,27.53896 -0.13243,0.13243 -1.30927,0.24905 -2.6152,0.25917 -6.46761,0.0501 -23.88859,-9.80517 -35.62026,-20.15082 -12.03522,-10.61334 -22.37755,-26.62688 -27.75903,-42.98069 -3.85821,-11.72473 -3.92149,-12.26951 -3.90881,-33.65641 l 0.0112,-18.90667 1.50555,-5.57504 c 3.97467,-14.7182 10.9791,-28.590441 20.19437,-39.994857 4.36408,-5.40079 12.79939,-13.487922 18.27253,-17.518311 6.52691,-4.806385 10.86283,-7.391436 18.90666,-11.272043 7.66157,-3.696195 13.64852,-5.857683 19.56892,-7.065034 9.01657,-1.838751 35.27943,-2.117253 43.982,-0.466404 11.93174,2.263413 28.89365,10.35605 40.9205,19.523436 4.31899,3.292127 13.93792,12.826713 17.68056,17.525536 10.31883,12.955135 17.24914,27.607117 20.6371,43.630757 1.10133,5.20885 1.31764,7.64314 1.54032,17.33463 0.40627,17.68154 -0.79284,27.18597 -4.96757,39.37402 -4.95686,14.47144 -11.84491,25.24617 -23.70742,37.08463 -11.39101,11.36792 -21.22686,17.37951 -38.96365,23.81426 -4.64398,1.6848 -8.9562,3.39913 -9.58269,3.80963 -1.63444,1.07092 -2.0123,3.23184 -2.35865,13.48847 -0.16908,5.007 -0.50086,9.61241 -0.73728,10.23426 -0.52984,1.39358 -1.95682,1.61836 -14.24675,2.24416 -10.47253,0.53325 -18.91962,0.50517 -24.54038,-0.0816 z m 35.11932,-3.39023 c 0.14312,-0.14312 0.58358,-4.38556 0.97879,-9.42762 1.02122,-13.02863 1.34408,-14.56547 3.33375,-15.86915 0.57851,-0.37905 3.66514,-1.50132 6.85918,-2.49392 28.93739,-8.9928 48.3486,-24.71363 59.87758,-48.49389 6.92029,-14.27413 10.16393,-28.89436 10.16393,-45.81229 0,-21.49224 -5.50311,-40.1463 -16.75547,-56.796531 -10.33298,-15.28981 -23.9123,-27.213135 -39.72212,-34.878004 -13.13538,-6.368255 -25.94016,-9.148137 -42.17937,-9.157016 -16.5149,-0.009 -32.01304,3.290442 -43.95355,9.35748 -24.60554,12.502202 -43.61618,35.089874 -52.22372,62.050121 -2.11796,6.63378 -2.45575,11.04293 -2.46534,32.1795 l -0.008,18.5111 2.90336,8.15214 c 3.51567,9.87141 9.52018,22.03243 13.94916,28.25144 3.73833,5.24923 11.3593,13.38278 16.40981,17.51353 9.23913,7.55657 28.27517,18.11944 29.83791,16.5567 0.38987,-0.38986 0.61933,-8.01275 0.78871,-26.20031 l 0.23887,-25.65048 -4.60232,-5.90188 c -7.04384,-9.0328 -10.95679,-17.29531 -12.76692,-26.95839 -1.20447,-6.42987 -0.76004,-17.24375 0.96629,-23.51213 2.64992,-9.62195 8.06062,-18.23124 16.13186,-25.66839 7.30766,-6.733563 13.32722,-10.117041 21.81743,-12.263175 3.58747,-0.906831 5.50646,-1.069147 12.25264,-1.036395 6.98471,0.03393 8.5956,0.197555 12.70422,1.290559 9.01618,2.398543 15.95791,6.319159 22.76809,12.859181 9.32895,8.95886 14.84125,20.42048 16.44168,34.18685 1.15744,9.95601 -0.85399,22.45521 -4.89102,30.39313 -5.26208,10.3467 -18.13464,21.78582 -23.88996,21.22966 -1.31925,-0.12749 -1.65044,-0.42774 -2.14585,-1.94541 -0.32222,-0.98705 -0.8117,-5.76689 -1.08774,-10.62186 -0.27605,-4.85497 -0.55781,-8.87135 -0.62613,-8.92529 -0.0683,-0.0539 -8.81514,-0.22725 -19.43737,-0.38515 l -19.31314,-0.28709 0.16408,49.10961 c 0.17518,52.42829 0.0729,50.34768 2.50203,50.89012 1.42162,0.31745 34.64924,0.0831 34.97905,-0.24675 z"
     id="path3356"
     inkscape:connector-curvature="0" />
  <path
     style="opacity:0.98999999;fill:#000000;fill-opacity:1;stroke:#428003;stroke-width:0.48478618;stroke-opacity:1"
     d="m 818.02821,245.23284 c -8.09895,-0.45176 -22.10966,-2.72717 -31.33818,-5.08948 -18.94305,-4.84903 -31.93252,-12.43476 -45.7598,-26.72333 -11.86481,-12.26062 -19.94834,-26.64313 -24.61839,-43.80194 -1.24423,-4.57159 -1.25363,-4.74277 -1.27708,-23.26973 -0.0264,-20.89472 0.0165,-21.26628 3.68895,-31.91676 7.08186,-20.538183 20.67778,-37.944869 39.1506,-50.124046 17.48324,-11.52674 42.79637,-17.70277 73.72791,-17.98852 9.27045,-0.08564 11.00958,0.216945 11.50977,2.00255 0.20212,0.72156 0.36749,10.256232 0.36749,21.188161 0,21.128076 -0.1271,22.412629 -2.33453,23.594012 -0.55495,0.296999 -5.68922,0.702771 -11.68958,0.92385 -19.23523,0.708719 -33.18741,4.196285 -42.87029,10.716103 -3.17722,2.13935 -11.36804,10.53881 -12.17368,12.4838 -0.62629,1.51199 -0.59978,1.68816 0.37246,2.47543 1.25912,1.01957 5.17985,1.19662 41.3052,1.86523 13.46494,0.2492 24.95746,0.60343 25.53894,0.78716 0.58148,0.18372 1.216,0.69432 1.41005,1.13465 0.48511,1.10082 0.87402,33.67926 0.45537,38.14676 -0.40778,4.35165 -1.19166,5.4967 -4.15221,6.06538 -1.19017,0.22862 -13.18071,0.63781 -26.64565,0.90933 -28.40067,0.5727 -39.41011,0.98023 -40.23385,1.48932 -1.59311,0.9846 4.61829,9.81729 10.11047,14.37722 4.41011,3.66152 12.4981,7.55085 19.45808,9.35695 7.49101,1.9439 12.99022,2.77211 24.23931,3.65054 13.63414,1.06468 16.06001,1.50728 16.77834,3.06118 0.51405,1.11203 0.85212,30.46557 0.42971,37.31089 -0.48835,7.91392 -0.087,7.61264 -10.25677,7.69849 -4.48978,0.0379 -11.32647,-0.10755 -15.19264,-0.3232 z m 21.54142,-3.85439 c 1.23293,-0.46876 1.24357,-0.51937 1.24837,-5.93863 0.004,-4.74533 -0.98416,-33.96505 -1.1544,-34.12796 -0.0343,-0.0328 -4.42548,-0.30856 -9.75813,-0.61268 -28.34553,-1.61654 -40.83869,-5.60213 -51.66657,-16.48277 -5.12632,-5.15129 -9.65888,-12.07118 -9.65888,-14.74626 0,-0.63588 0.4417,-1.55588 0.98155,-2.04445 1.522,-1.37738 9.03535,-1.67904 39.49809,-1.58583 31.24007,0.0956 31.04073,0.11546 31.50442,-3.14112 0.16048,-1.12706 0.22764,-10.01182 0.14923,-19.7439 l -0.14254,-17.69469 -7.75658,-0.0991 c -17.31847,-0.22115 -57.86435,-1.25362 -60.35588,-1.53692 -2.59046,-0.29455 -2.6707,-0.3487 -2.82006,-1.90309 -0.37052,-3.85612 7.86229,-14.5076 14.93971,-19.32878 3.38679,-2.30711 8.89238,-4.931845 13.51027,-6.440897 8.05558,-2.632443 11.73109,-3.234855 34.22261,-5.60905 3.98928,-0.421107 7.53428,-0.998893 7.87778,-1.28397 0.49011,-0.406753 0.62454,-4.611926 0.62454,-19.536164 l 0,-19.017841 -3.99949,-0.311341 c -23.59334,-1.836631 -50.84905,2.844714 -68.759,11.809808 -14.57055,7.293508 -27.58242,18.974363 -36.44366,32.715761 -6.0431,9.371214 -11.43905,22.908654 -13.234,33.201654 -0.86162,4.94091 -1.00117,23.56519 -0.22889,30.54773 2.08258,18.82958 8.05112,33.14884 19.49958,46.78187 12.35866,14.71691 26.84076,24.63867 44.50633,30.49152 9.05092,2.9987 16.77934,4.48705 30.05674,5.78837 4.11066,0.40288 26.22287,0.28058 27.35886,-0.15132 z"
     id="path3358"
     inkscape:connector-curvature="0" />
  <path
     style="opacity:0.98999999;fill:#000000;fill-opacity:1;stroke:#428003;stroke-width:0.48478618;stroke-opacity:1"
     d="m 925.16595,245.26647 c -6.69136,-0.26443 -10.76433,-0.67018 -13.94047,-1.38875 -9.53895,-2.15809 -19.79315,-6.42742 -25.20053,-10.49223 -10.13077,-7.61543 -18.37014,-21.3663 -20.78002,-34.68023 -1.95171,-10.78271 -2.17663,-149.461721 -0.24554,-151.394698 0.42863,-0.42904 5.02141,-0.625001 17.16546,-0.7324 17.1742,-0.151885 31.30308,0.472014 31.88144,1.407811 0.7449,1.205269 1.03619,13.513311 1.6996,71.813317 0.38311,33.6662 0.896,62.47088 1.13978,64.01039 0.53205,3.36008 2.68165,7.35055 4.93792,9.16662 3.25895,2.62313 7.85428,3.17236 35.58065,4.25253 12.24465,0.47703 14.89146,0.8782 15.56184,2.35869 0.62114,1.37171 0.80965,29.55055 0.2442,36.50273 -0.63311,7.78408 -0.80693,8.49861 -2.15565,8.86141 -1.77085,0.47635 -35.87975,0.71034 -45.88868,0.31481 z m 45.84914,-13.95934 c -0.58096,-18.77279 -1.1899,-29.82815 -1.66935,-30.30761 -0.49209,-0.49208 -8.66076,-1.01892 -27.69706,-1.78632 -13.41157,-0.54066 -16.65672,-0.99541 -20.38024,-2.85595 -4.69958,-2.34824 -6.69884,-6.13606 -7.71637,-14.6195 -0.82465,-6.87538 -1.46298,-34.55798 -1.46999,-63.74939 -0.004,-15.19804 -0.15091,-36.631653 -0.32726,-47.630239 l -0.32062,-19.99743 -21.9789,0 -21.9789,0 0,73.816499 0,73.8165 2.34793,6.53681 c 4.06131,11.30694 7.42534,17.00577 13.47476,22.82684 5.19518,4.99908 10.1298,7.88737 18.38442,10.76062 8.9407,3.11205 11.41263,3.35643 37.54124,3.71127 12.93168,0.17563 25.45153,0.3615 27.82189,0.41306 l 4.30976,0.0937 -0.34131,-11.02889 z"
     id="path3360"
     inkscape:connector-curvature="0" />
  <path
     style="opacity:0.98999999;fill:#000000;fill-opacity:1;stroke:#428003;stroke-width:0.48478618;stroke-opacity:1"
     d="m 1041.0299,385.33758 c -7.8029,-0.59997 -18.9717,-4.08015 -28.1621,-8.77529 -16.55909,-8.45958 -28.9859,-21.04705 -37.03258,-37.51143 -2.59064,-5.30069 -4.19834,-9.63267 -7.01674,-18.90666 -0.81027,-2.66632 -1.68405,-5.17509 -1.94172,-5.57504 -0.41279,-0.64082 -12.22999,-0.7637 -99.50377,-1.03472 -54.46946,-0.16914 -200.04057,-0.36473 -323.49137,-0.43464 -123.4508,-0.0699 -283.4666,-0.26924 -355.59067,-0.44297 -88.359677,-0.21283 -0.67491,-0.32973 268.81394,-0.35837 423.02186,-0.0449 508.76968,0.15255 510.56014,1.17609 1.02634,0.58671 1.05751,0.51877 1.39041,-3.03384 0.39549,-4.22042 0.11204,-16.0234 -0.39704,-16.53246 -0.19052,-0.19056 -1.05547,0.47271 -1.92203,1.47392 l -1.57556,1.82039 -49.44819,0.19881 c -27.1965,0.10934 -242.73244,0.25367 -478.96875,0.32073 -236.2363,0.0671 -421.667021,-0.002 -412.068254,-0.15486 9.598766,-0.15224 155.761804,-0.53532 324.806744,-0.85128 169.04494,-0.31595 376.61827,-0.77913 461.27405,-1.02926 l 153.91962,-0.4548 1.23887,-1.38357 c 0.89986,-1.00498 1.74625,-3.3007 3.09313,-8.38966 5.94522,-22.46354 16.29138,-38.17519 33.04917,-50.18833 8.4491,-6.05687 21.3316,-11.81776 30.1807,-13.4964 11.0723,-2.1004 28.2625,-2.00674 36.9097,0.2011 7.5799,1.93531 19.0504,7.07539 27.5768,12.35745 10.7657,6.66933 21.0126,18.499 27.5143,31.76413 3.0484,6.21969 4.595,10.47323 6.7672,18.61219 0.9183,3.44093 2.0748,7.17197 2.5699,8.2912 0.7822,1.76844 1.1459,2.07351 2.7769,2.32925 1.9025,0.29833 21.1145,1.23402 29.9944,1.46085 2.6663,0.0681 -2.9582,0.16948 -12.4988,0.22529 -18.3291,0.1072 -19.9354,-0.0566 -21.108,-2.15181 -0.2739,-0.48937 -0.6779,-0.71031 -0.8979,-0.49098 -0.5391,0.53748 -0.8124,18.76603 -0.2892,19.28919 0.2277,0.22774 1.138,0.2053 2.0282,-0.05 3.8377,-1.10065 38.8255,-2.56633 38.8255,-1.62644 0,0.28229 -5.9997,0.70615 -14.9635,1.05713 -15.7195,0.6155 -23.1332,1.24078 -24.0859,2.03142 -0.314,0.26062 -1.046,2.05343 -1.6266,3.98403 -4.768,15.85276 -6.6876,20.22251 -13.1484,29.93102 -3.1057,4.66684 -5.5457,7.57271 -10.6147,12.64125 -7.4738,7.47307 -12.9374,11.39016 -21.8586,15.67141 -14.0935,6.76335 -28.4187,9.317 -45.0793,8.03594 z m 25.4131,-4.093 c 25.2599,-5.74838 44.2568,-20.65162 55.7608,-43.74487 5.8967,-11.83728 7.7208,-20.46531 7.7174,-36.50456 0,-8.3458 -0.1677,-10.69022 -1.0354,-14.63219 -7.1002,-32.25394 -34.248,-58.05225 -66.283,-62.98821 -5.1686,-0.79639 -19.7675,-0.79027 -25.2088,0.0106 -10.4707,1.54101 -24.3,7.27897 -33.6815,13.97487 -5.50207,3.92705 -13.72205,12.02035 -17.62594,17.35434 -5.96684,8.1526 -11.62469,19.62014 -13.69972,27.76719 -2.59065,10.17146 -2.57974,30.26909 0.0218,40.5256 2.0854,8.22102 7.23616,18.78903 12.95795,26.58627 3.97553,5.41764 14.18319,15.41819 19.67071,19.27163 7.3817,5.18356 16.6048,9.39022 26.2012,11.95041 6.7164,1.79182 9.5855,2.0643 19.9716,1.8967 8.1873,-0.13212 10.2273,-0.32868 15.2327,-1.46774 l 2e-4,0 z"
     id="path3362"
     inkscape:connector-curvature="0" />
  <path
     style="opacity:0.98999999;fill:#000000;fill-opacity:1;stroke:#428003;stroke-width:0.48478618;stroke-opacity:1"
     d=""
     id="path3364"
     inkscape:connector-curvature="0" />
  <path
     style="opacity:0.98999999;fill:#000000;fill-opacity:1;stroke:#428003;stroke-width:0.48478618;stroke-opacity:1"
     d="m 1037.115,377.0321 c -4.6627,-0.53304 -12.5566,-3.11806 -19.0539,-6.23967 -18.79747,-9.03111 -33.90323,-26.11029 -39.86522,-45.07319 -2.36275,-7.515 -2.68548,-10.07522 -2.6889,-21.33059 -0.005,-15.49303 0.94025,-21.37404 4.87973,-30.36939 4.22727,-9.65249 9.66791,-17.54091 17.33811,-25.13863 7.36728,-7.29766 14.50228,-12.12501 23.68438,-16.02423 8.9433,-3.7978 13.1299,-4.65152 24.2225,-4.93938 14.9525,-0.38803 23.4018,0.91266 33.5947,5.17161 10.3351,4.3184 20.6937,11.80751 27.8775,20.15508 8.183,9.50863 14.2281,21.88074 17.0393,34.87326 1.5371,7.10355 1.532,22.06839 -0.01,29.19819 -2.3041,10.65489 -6.0365,19.55228 -11.4037,27.18491 -3.6229,5.15199 -16.3586,18.0942 -20.6139,20.94809 -4.3177,2.89574 -13.9234,7.43283 -19.9491,9.42266 -3.4769,1.14814 -6.7687,1.84567 -10.3859,2.20073 -6.1623,0.60489 -19.2119,0.58401 -24.6657,-0.0395 l -10e-5,10e-6 z m 14.7582,-1.82598 1.1444,-0.9309 -0.1074,-10.77563 c -0.1165,-11.67125 -0.8166,-21.79304 -1.6102,-23.27573 -0.6002,-1.12151 -1.7053,-1.2153 -2.1031,-0.1785 -0.622,1.62073 -1.3443,16.90973 -1.1899,25.18396 0.2005,10.74691 0.8521,12.42838 3.8662,9.9768 z m -8.6203,-2.59459 c 0.9894,-0.72349 0.9393,-0.24111 2.3278,-22.41058 0.5677,-9.06551 1.0553,-22.30952 1.0835,-29.43115 0.047,-11.82683 -0.024,-13.0236 -0.8149,-13.81641 -0.7875,-0.78905 -1.9558,-0.8653 -12.8469,-0.83846 -8.3886,0.0206 -13.6522,0.26846 -17.5557,0.82645 -5.1537,0.73669 -13.1041,1.31435 -28.72356,2.087 l -6.18103,0.30576 0.003,3.22349 c 0.01,9.20693 6.1112,24.18468 13.47264,33.0722 7.14905,8.63108 17.19475,17.00482 24.70795,20.59559 5.4206,2.59066 13.7294,5.47531 17.9948,6.24746 4.7802,0.86535 5.5168,0.88098 6.532,0.13865 z m 22.1917,-0.61165 c 5.4852,-1.39042 13.0891,-4.30086 18.1129,-6.93276 10.7025,-5.6069 23.5668,-18.52628 29.043,-29.16737 4.2008,-8.16288 7.5499,-18.92877 7.5566,-24.29127 l 0,-2.71827 -12.2408,-0.27546 c -8.6206,-0.19398 -14.6066,-0.59682 -20.2398,-1.36207 -6.2658,-0.85118 -10.4675,-1.09537 -19.3915,-1.12695 -12.7803,-0.0452 -13.2951,0.0656 -13.9167,2.99548 -0.7272,3.4274 -0.2758,18.93555 0.8147,27.99051 0.6236,5.178 1.1983,13.7527 1.4134,21.0882 0.3558,12.13336 0.6398,14.11374 2.1085,14.70545 1.0903,0.43924 1.8163,0.34166 6.7363,-0.90549 l 0,0 z m -60.3924,-66.66268 c 4.1208,-0.33462 6.934,-0.81763 8.3118,-1.4271 1.1455,-0.50671 2.0827,-1.0549 2.0827,-1.2182 0,-0.1633 -0.9679,-0.72509 -2.151,-1.24842 -4.6658,-2.06389 -30.766,-2.23653 -34.64779,-0.22918 -1.88107,0.97274 -1.82701,2.16086 0.14123,3.10421 2.93393,1.4062 15.4922,1.89331 26.26306,1.01869 z m 47.7284,-1.06975 c 1.1898,-1.95151 1.1896,-2.07733 -0.01,-3.2723 -1.2794,-1.27945 -2.2144,-1.22313 -3.6579,0.22036 -1.4468,1.44677 -1.4622,1.72662 -0.1852,3.35016 1.3555,1.72324 2.6784,1.62073 3.8485,-0.29822 l 0,0 z m 67.958,1.07298 c 2.8111,-0.78075 3.1359,-3.96324 0.4804,-4.70775 -0.7155,-0.20059 -7.5182,-0.36471 -15.1173,-0.36471 -14.1941,0 -18.6344,0.44287 -19.9154,1.98633 -0.9795,1.18026 0.053,1.67852 5.4432,2.6266 5.7568,1.01258 25.969,1.33166 29.1091,0.45953 z m -73.5484,-11.98066 c -0.1343,-3.13293 -0.4658,-12.13178 -0.7366,-19.99743 -0.7439,-21.6031 -1.8878,-37.3608 -2.9066,-40.04051 -0.5987,-1.57463 -2.3156,-1.532 -9.2631,0.22996 -10.0996,2.5614 -18.8045,6.71938 -27.0142,12.90365 -12.68553,9.55589 -21.09089,22.21759 -25.56001,38.5032 -1.64328,5.98819 -2.02654,9.36233 -1.2099,10.65197 0.64612,1.02037 4.31701,1.44425 12.88916,1.48835 4.26612,0.022 10.48355,0.2692 13.81645,0.54947 12.9574,1.08958 16.6397,1.2636 28.2347,1.33437 l 11.9943,0.0732 -0.2442,-5.69623 z m 45.8223,4.46237 c 9.4655,-0.3848 19.3246,-0.83722 21.9093,-1.00536 l 4.6993,-0.30573 0.2996,-2.48462 c 0.3553,-2.94585 -0.5481,-7.59237 -2.6624,-13.6945 -6.0581,-17.48391 -19.1643,-32.75439 -34.8816,-40.64176 -5.8544,-2.93791 -16.3145,-6.45495 -21.6885,-7.2924 -3.4004,-0.52991 -3.5174,-0.0929 -4.0411,15.09687 -0.2469,7.16148 -0.7842,15.63871 -1.1939,18.8383 -1.1155,8.7094 -1.9201,25.13805 -1.4125,28.84055 0.4064,2.96485 0.5154,3.16615 1.8857,3.47992 1.7181,0.39343 13.4036,0.1315 37.0861,-0.83127 z m -41.4673,-32.09519 c 0.51,-1.31866 1.2959,-27.08662 0.9459,-31.0132 -0.1762,-1.97665 -0.5944,-3.73586 -0.9602,-4.03952 -1.1264,-0.9348 -2.3072,-0.30321 -2.7696,1.48144 -0.6384,2.46346 -0.1848,31.42208 0.5182,33.0865 0.6374,1.50913 1.7755,1.75263 2.2657,0.48478 z m 5.1083,-35.32755 c 0,-0.87089 -0.6976,-0.85237 -1.4367,0.0381 -0.7985,0.96221 -0.1695,1.9628 0.7527,1.19738 0.3762,-0.31222 0.684,-0.8682 0.684,-1.2355 z"
     id="path3366"
     inkscape:connector-curvature="0" />
  <path
     style="opacity:0.98999999;fill:#000000;fill-opacity:1;stroke:#428003;stroke-width:0.48478618;stroke-opacity:1"
     d="m 286.33161,245.19482 c -28.54753,-1.86287 -49.72385,-8.85971 -67.14289,-22.1846 -3.98596,-3.04911 -11.35958,-10.21935 -15.02362,-14.60923 -10.25516,-12.28673 -18.41304,-29.27266 -20.37257,-42.41879 -1.19923,-8.04536 -1.80463,-22.86988 -1.2511,-30.63581 1.55486,-21.81457 10.6532,-41.014657 27.48035,-57.991368 20.60957,-20.79274 42.40834,-28.688281 85.21527,-30.865065 13.4747,-0.685206 14.89668,-0.414113 15.89663,3.030602 0.86908,2.993849 0.89071,38.2152 0.025,40.655175 -1.18608,3.342832 -1.28586,3.371684 -13.27809,3.839497 -18.15253,0.708122 -31.47221,3.672483 -40.74276,9.067509 -5.50637,3.20445 -14.92173,12.76998 -14.92173,15.15972 0,2.15465 1.44528,2.28083 33.45025,2.92027 26.99097,0.53927 33.65183,0.94014 34.80642,2.09473 1.11187,1.11187 1.67495,12.39456 1.37222,27.49577 -0.14745,7.35538 -0.49052,13.95845 -0.76237,14.67348 -0.27186,0.71503 -1.09812,1.53114 -1.83614,1.81358 -1.44515,0.55307 -14.94398,1.10455 -46.42697,1.89672 -10.93193,0.27507 -20.47616,0.63035 -21.20939,0.78951 -0.95049,0.20632 -1.33317,0.58812 -1.33317,1.33012 0,3.071 9.50272,13.2867 15.78454,16.96883 9.46063,5.54541 18.67956,7.76862 38.4684,9.2769 11.23984,0.8567 15.48764,1.42513 16.23505,2.17254 0.96299,0.96299 1.43408,16.58132 0.91347,30.28442 -0.27382,7.20713 -0.65672,13.48138 -0.85089,13.94278 -0.19417,0.46139 -1.1494,1.0601 -2.12275,1.33045 -2.02713,0.56305 -13.46189,0.54376 -22.37313,-0.0378 l 0,2e-5 z m 21.81538,-12.47618 c 0,-5.28956 -0.14307,-14.53346 -0.31794,-20.542 l -0.31793,-10.92462 -6.59027,-0.32254 c -21.40726,-1.04772 -29.53033,-2.48758 -40.04204,-7.09766 -9.93071,-4.35527 -17.25525,-10.58395 -21.70133,-18.45453 -2.84335,-5.03338 -3.31843,-7.05857 -1.92124,-8.18994 1.40796,-1.14011 10.50784,-1.44396 43.3018,-1.44593 l 26.9495,-0.001 0.31972,-10.98603 c 0.52823,-18.15019 0.41679,-29.73303 -0.28625,-29.75459 -0.33329,-0.0102 -14.89506,-0.22866 -32.35948,-0.48543 -17.46442,-0.25677 -32.72727,-0.66395 -33.91744,-0.90484 -1.23369,-0.24971 -2.53169,-0.89215 -3.0194,-1.49444 -0.77792,-0.96069 -0.79076,-1.21131 -0.14166,-2.76481 1.12851,-2.70091 3.65759,-5.8404 8.8233,-10.95287 9.15314,-9.058791 13.27728,-11.386143 25.45027,-14.362182 8.50658,-2.079682 18.28062,-3.410707 27.65022,-3.765397 l 8.12017,-0.307551 0,-20.301564 0,-20.301564 -7.1506,0.28017 c -22.24892,0.871744 -32.69265,1.970647 -43.50956,4.578134 -28.79756,6.941845 -51.00176,24.49235 -63.201,49.954964 -7.03071,14.6747 -9.76121,28.19069 -9.10809,45.08511 1.02086,26.40661 10.0852,46.89269 28.74699,64.97031 10.15869,9.8407 20.1826,16.06121 33.16115,20.57875 13.3826,4.65818 24.9783,6.52696 43.60881,7.02807 6.79912,0.18287 13.50735,0.3706 14.90717,0.41716 l 2.54513,0.0847 0,-9.61738 z"
     id="path3368"
     inkscape:connector-curvature="0" />
  <path
     style="opacity:0.98999999;fill:#000000;fill-opacity:1;stroke:#428003;stroke-width:0.48478618;stroke-opacity:1"
     d="m 5.4773665,245.23204 c -2.0894172,-0.19903 -4.0242473,-0.58718 -4.2996224,-0.86255 -1.04440775,-1.04441 -1.40107983,-10.27504 -1.25911392,-32.58573 0.16150327,-25.38108 0.13478025,-25.16127 3.14709622,-25.88685 0.7494954,-0.18053 19.0331746,-0.52134 40.6303996,-0.75737 40.337919,-0.44082 43.312024,-0.54933 47.578778,-1.7359 5.280451,-1.46848 6.922048,-6.05101 4.6779,-13.05837 C 94.243002,165.0064 86.28594,158.99112 58.724498,142.20185 34.476735,127.43115 29.711171,124.0255 21.153568,115.35226 17.820663,111.97431 13.620445,107.14971 11.819749,104.63091 8.5747541,100.09184 3.843369,91.180041 2.6965055,87.446834 1.8947402,84.836973 1.4964265,58.415699 2.1820442,53.321163 2.856199,48.311801 3.6642541,45.975083 7.3183197,38.468178 16.348958,19.915655 30.9573,8.693683 51.181026,4.7733155 56.822245,3.6797658 80.477067,2.6104807 89.266027,3.0517333 100.61326,3.6214251 125.6784,3.9034454 129.26089,3.5017355 131.96903,3.1980679 128.25801,3.0279724 114.7173,2.8351262 97.718177,2.5930255 98.212824,2.5772874 122.33571,2.5927331 c 28.68708,0.018368 26.74053,-0.2210161 27.72863,3.4100215 0.29023,1.0665296 0.77902,6.7860834 1.08619,12.7101204 0.73008,14.080287 -0.28236,38.319734 -1.65802,39.695392 -0.46734,0.467334 -14.9707,1.114752 -42.28939,1.887763 -29.528098,0.835524 -36.62306,1.284591 -38.368896,2.428512 -1.945437,1.274692 -2.807528,3.093469 -2.767834,5.839366 0.10579,7.318899 4.719287,11.174336 36.53126,30.528653 28.4862,17.330939 32.7476,20.374949 42.22806,30.164439 14.37264,14.84112 20.30936,29.017 20.30936,48.4953 0,13.81455 -3.83435,26.77795 -11.15688,37.71984 -3.24619,4.85071 -11.72908,13.36595 -16.48333,16.54618 -7.93199,5.30589 -17.14126,9.11522 -26.04364,10.7727 -7.81801,1.45558 -13.370776,1.93474 -28.406488,2.45126 -15.665439,0.53815 -71.888204,0.53073 -77.5673655,-0.0102 l 0,-1e-5 z m 85.9701985,-3.88866 c 16.532395,-0.47307 19.102885,-0.7816 26.420845,-3.17119 12.51023,-4.08507 25.44616,-13.16819 32.71179,-22.96898 4.88273,-6.58644 8.96895,-16.51236 10.49236,-25.48725 1.11975,-6.59671 1.10874,-19.88045 -0.0208,-25.10778 -2.52105,-11.66708 -9.61975,-25.22838 -17.77943,-33.96569 -5.96867,-6.3912 -11.12913,-9.91819 -43.341007,-29.62203 C 90.865822,95.475135 81.162283,89.388989 78.367908,87.49569 71.761993,83.019931 65.267405,76.704428 63.610929,73.145641 60.644479,66.772468 63.19426,61.135437 70.071035,58.863719 c 4.448427,-1.469523 13.567444,-1.901743 62.704555,-2.97205 l 14.90717,-0.324709 0,-25.088195 0,-25.0881977 L 124.1858,5.0309284 C 77.523682,4.3167295 52.384386,6.1895507 39.275667,11.356543 28.429902,15.631558 18.270683,24.734515 11.976822,35.817105 -2.0504784,60.517179 2.5017368,93.787696 22.667817,113.95377 c 4.731471,4.73148 14.331224,11.29308 36.78386,25.14242 23.636536,14.57961 32.855036,20.93493 36.086281,24.87824 2.822047,3.44394 4.754442,8.13967 4.779892,11.6152 0.0261,3.5698 -0.749273,5.26808 -3.568111,7.81472 -2.708549,2.44702 -5.423676,3.5803 -9.994662,4.17171 -3.105831,0.40185 -56.438081,1.3688 -78.3271462,1.42012 l -5.6962376,0.0134 0,26.67183 0,26.67183 36.4801608,-0.27948 c 20.064088,-0.15372 43.570158,-0.48237 52.235711,-0.73034 z"
     id="path3370"
     inkscape:connector-curvature="0" />
  <path
     style="opacity:0.98999999;fill:#000000;fill-opacity:1;stroke:#428003;stroke-width:0.24239309;stroke-opacity:1"
     d="m 562.17199,296.17799 c 28.19637,-0.0989 105.53189,-0.30789 171.8567,-0.46444 66.32481,-0.15655 145.32625,-0.36677 175.55875,-0.46716 l 54.96818,-0.18253 0.72163,-0.69136 c 0.3969,-0.38025 0.72163,-0.58229 0.72163,-0.44897 0,0.13331 -0.29996,0.5227 -0.66658,0.8653 l -0.66658,0.62291 -103.13826,0.28128 c -245.55782,0.6697 -275.7573,0.73762 -312.20231,0.70215 l -38.4193,-0.0374 51.26614,-0.17979 z"
     id="path3378"
     inkscape:connector-curvature="0" />
  <path
     style="opacity:0.98999999;fill:#000000;fill-opacity:1;stroke:#428003;stroke-width:0.24239309;stroke-opacity:1"
     d="m 1044.1707,386.44003 c -7.0744,-0.63376 -16.1078,-2.19505 -20.1008,-3.47413 -6.2834,-2.01275 -15.9984,-6.87357 -22.318,-11.16663 -16.63909,-11.30327 -28.46932,-28.98334 -34.20708,-51.1218 -0.46647,-1.79977 -1.00817,-3.84496 -1.2038,-4.54487 l -0.35569,-1.27257 -227.47914,0 -227.47914,0 0,-0.72718 0,-0.72718 33.38964,0.004 c 18.36431,0.002 103.74425,0.11172 189.7332,0.24289 147.38801,0.22484 225.37329,0.53684 230.22292,0.92108 1.48342,0.11753 2.19982,0.27872 2.35735,0.53041 0.12449,0.19887 0.78239,2.10681 1.46204,4.23987 4.48854,14.0875 6.11611,18.12944 10.06416,24.99354 3.64147,6.33107 7.63104,11.50939 13.06528,16.95823 4.39745,4.40927 7.69484,7.12666 12.61176,10.39339 11.3812,7.56151 25.5611,12.91088 37.0263,13.96822 4.1497,0.38269 16.0854,0.15792 19.6937,-0.37086 6.6518,-0.9748 12.9708,-2.55382 18.629,-4.65507 2.8892,-1.07294 10.4347,-4.64544 12.9427,-6.12784 l 1.2725,-0.75217 0,0.67635 c 0,0.60649 -0.2566,0.81887 -2.4845,2.05598 -8.6555,4.80634 -15.333,6.96762 -27.451,8.88497 -6.746,1.06737 -14.5937,1.5008 -19.3914,1.07098 z"
     id="path3380"
     inkscape:connector-curvature="0" />
  <path
     style="opacity:0.98999999;fill:#000000;fill-opacity:1;stroke:#428003;stroke-width:0.24239309;stroke-opacity:1"
     d="m 213.62666,314.67824 -66.96109,-0.0615 0,-0.88078 0,-0.88078 54.47785,0.15385 c 29.96282,0.0846 111.87956,0.22332 182.03721,0.30822 l 127.55937,0.15436 0,0.6942 0,0.69419 -115.07612,-0.0602 c -63.29187,-0.0331 -145.20862,-0.0878 -182.03722,-0.12163 z"
     id="path3382"
     inkscape:connector-curvature="0" />
  <path
     style="opacity:0.98999999;fill:#000000;fill-opacity:1;stroke:#428003;stroke-width:0.24239309;stroke-opacity:1"
     d="m 146.66557,296.13533 0,-0.60714 36.66196,-0.14628 c 20.16407,-0.0804 111.65232,-0.203 203.3072,-0.27232 91.65489,-0.0693 206.2129,-0.19818 254.57335,-0.28634 79.0648,-0.14414 87.92809,-0.12269 87.92809,0.21283 0,0.33307 -3.23306,0.38977 -30.11734,0.52823 -37.42476,0.19274 -228.21608,0.57697 -370.80083,0.74675 -58.99242,0.0702 -123.97498,0.19605 -144.40569,0.27957 l -37.14674,0.15185 0,-0.60715 z"
     id="path3384"
     inkscape:connector-curvature="0" />
  <path
     style="opacity:0.98999999;fill:#000000;fill-opacity:1;stroke:#428003;stroke-width:0.24239309;stroke-opacity:1"
     d="m 1.4994924,297.09047 0,-1.62188 72.4755346,0 72.475533,0 0,0.56935 0,0.56935 -44.41853,0.16608 c -48.826154,0.18256 -87.965998,0.53565 -95.2164479,0.85896 -4.0754884,0.18174 -4.7200134,0.26484 -4.9975079,0.64434 -0.274848,0.37587 -0.3185818,0.21304 -0.3185818,-1.1862 z"
     id="path3386"
     inkscape:connector-curvature="0" />
  <path
     style="opacity:0.98999999;fill:#000000;fill-opacity:1;stroke:#428003;stroke-width:0.24239309;stroke-opacity:1"
     d="m 55.223851,314.35391 c -28.644122,-0.0999 -52.3301778,-0.24444 -52.6356767,-0.32112 -0.5586111,-0.1402 -1.0886819,-1.18572 -1.0886819,-2.14732 0,-0.37998 0.068996,-0.42104 0.335658,-0.19973 0.2310158,0.19173 3.5748366,0.35185 10.7258946,0.51362 10.49998,0.23754 88.557025,0.71305 117.952175,0.71855 l 15.93734,0.003 0,0.84837 0,0.84838 -19.57324,-0.041 c -10.76528,-0.0225 -43.009344,-0.12278 -71.653469,-0.22271 z"
     id="path3388"
     inkscape:connector-curvature="0" />
  <path
     style="opacity:0.98999999;fill:#000000;fill-opacity:1;stroke:#428003;stroke-width:0.24239309;stroke-opacity:1"
     d="m 2.0452474,311.50934 c -0.5980817,-0.37977 -0.8430108,-2.97684 -0.7012696,-7.4358 0.1910589,-6.01041 0.1742082,-5.92607 1.1856853,-5.93492 0.3939771,-0.003 0.4241879,0.47966 0.4241879,6.7833 0,6.95722 -0.026271,7.14769 -0.9086036,6.58742 z"
     id="path3390"
     inkscape:connector-curvature="0" />
  <path
     style="opacity:0.98999999;fill:#000000;fill-opacity:1;stroke:#428003;stroke-width:0.24239309;stroke-opacity:1"
     d="m 291.02835,296.49878 c 10.23202,-0.035 26.97532,-0.035 37.20734,0 10.23202,0.035 1.86036,0.0636 -18.60367,0.0636 -20.46404,0 -28.83569,-0.0286 -18.60367,-0.0636 z"
     id="path3394"
     inkscape:connector-curvature="0" />
</svg>
